<svg width="100" height="100" viewBox="0 0 100 100" fill="none" xmlns="http://www.w3.org/2000/svg">
<circle cx="50" cy="50" r="49.25" fill="#42B3F5" stroke="#42B3F5" stroke-width="1.5"/>
<g clip-path="url(#clip0_238_36756)">
<path d="M32.5806 50.3295C32.5806 46.3493 32.5806 42.3691 32.5806 38.3889C32.5806 36.499 33.6595 35.1532 35.4 34.7952C35.6446 34.7523 35.9035 34.738 36.148 34.738C41.902 34.738 47.6703 34.738 53.4242 34.738C53.5249 34.738 53.6399 34.7236 53.7406 34.7523C54.1866 34.8239 54.4599 35.0816 54.4743 35.5397C54.4886 35.9692 54.2297 36.2413 53.8126 36.3272C53.6256 36.3701 53.4242 36.3558 53.2228 36.3558C47.6127 36.3558 41.9883 36.3558 36.3782 36.3558C34.8678 36.3558 34.1917 37.0287 34.1917 38.5464C34.1917 46.4352 34.1917 54.3384 34.1917 62.2272C34.1917 63.7305 34.8822 64.4178 36.3926 64.4178C44.3186 64.4178 52.259 64.4178 60.185 64.4178C61.681 64.4178 62.3715 63.7305 62.3715 62.2702C62.3715 56.7294 62.3715 51.2029 62.3715 45.6621C62.3715 45.433 62.3715 45.1896 62.429 44.9748C62.5441 44.5596 62.8462 44.3592 63.2777 44.4021C63.6805 44.4451 63.9251 44.6885 63.9826 45.0894C63.997 45.2469 63.997 45.4044 63.997 45.5762C63.997 51.1313 63.9538 56.6864 64.0114 62.2415C64.0401 64.4607 62.4434 66.0643 60.185 66.0499C52.259 66.007 44.3186 66.0356 36.3926 66.0356C33.9903 66.0356 32.5806 64.6325 32.5806 62.2415C32.5662 58.2613 32.5806 54.2954 32.5806 50.3295Z" fill="white"/>
<path d="M60.2122 66.252C60.1979 66.252 60.1979 66.252 60.1835 66.252C54.6022 66.2233 48.9202 66.2233 43.4252 66.2376C41.0805 66.2376 38.7357 66.2376 36.391 66.2376C33.8737 66.2376 32.3633 64.7343 32.3633 62.2288C32.3633 59.4083 32.3633 56.6021 32.3633 53.7816V50.3311H32.5791H32.3633C32.3633 49.1571 32.3633 47.9687 32.3633 46.7947C32.3633 44.0458 32.3633 41.1966 32.3633 38.3904C32.3633 36.4146 33.5141 34.9543 35.3553 34.5963C35.643 34.5391 35.9307 34.5391 36.1465 34.5391C41.4113 34.5391 46.6905 34.5391 51.9554 34.5391H53.4226C53.4514 34.5391 53.4802 34.5391 53.4945 34.5391C53.5809 34.5391 53.6815 34.5391 53.7679 34.5534C54.3289 34.6393 54.6741 34.9972 54.6741 35.5413C54.6885 36.0567 54.372 36.429 53.8398 36.5435C53.6672 36.5864 53.5089 36.5721 53.3507 36.5721C53.3075 36.5721 53.2644 36.5721 53.2068 36.5721H36.3623C34.9669 36.5721 34.3915 37.1448 34.3915 38.5479C34.3915 46.4368 34.3915 54.3399 34.3915 62.2288C34.3915 63.6176 34.9813 64.2046 36.3766 64.2046C44.3027 64.2046 52.2431 64.2046 60.1691 64.2046C61.55 64.2046 62.1398 63.6176 62.1398 62.2717C62.1398 59.7948 62.1398 57.3323 62.1398 54.8554C62.1398 51.7914 62.1398 48.7275 62.1398 45.6636V45.6207C62.1398 45.3916 62.1398 45.1482 62.1973 44.9191C62.3268 44.4037 62.7296 44.1317 63.2762 44.1889C63.7797 44.2462 64.0961 44.5612 64.1681 45.0623C64.1824 45.2055 64.1824 45.3486 64.1824 45.4918V45.5777C64.1824 47.1813 64.1824 48.7848 64.1824 50.3883C64.1681 54.2683 64.1681 58.2772 64.2112 62.2288C64.2256 63.3598 63.8228 64.3907 63.0892 65.1209C62.3843 65.8511 61.3486 66.252 60.2122 66.252ZM49.5531 65.8081C53.0918 65.8081 56.6592 65.8081 60.1835 65.8367H60.1979C61.2192 65.8367 62.1398 65.4788 62.7871 64.8345C63.4344 64.1759 63.7941 63.2596 63.7797 62.2431C63.7365 58.2915 63.7365 54.2827 63.7509 50.3883C63.7509 48.7848 63.7509 47.1813 63.7509 45.5777V45.4918C63.7509 45.363 63.7509 45.2341 63.7365 45.1196C63.6934 44.8046 63.5351 44.6471 63.233 44.6185C62.9022 44.5898 62.7008 44.7187 62.6145 45.0337C62.5713 45.2198 62.5713 45.4202 62.5713 45.635V45.6779C62.5713 48.7419 62.5713 51.8058 62.5713 54.8697C62.5713 57.3466 62.5713 59.8092 62.5713 62.2861C62.5713 63.8753 61.7802 64.6484 60.1691 64.6484C52.2431 64.6484 44.3027 64.6484 36.3766 64.6484C34.7512 64.6484 33.96 63.861 33.96 62.2431C33.96 54.3542 33.96 46.4511 33.96 38.5622C33.96 36.9157 34.7224 36.1569 36.3623 36.1569H53.2068C53.25 36.1569 53.3075 36.1569 53.3507 36.1569C53.4945 36.1569 53.624 36.1569 53.7391 36.1426C54.0699 36.071 54.2426 35.8706 54.2282 35.5699C54.2282 35.2406 54.0412 35.0402 53.6815 34.9972C53.624 34.9829 53.5521 34.9829 53.4802 34.9972C53.4514 34.9972 53.4226 34.9972 53.3938 34.9972H51.9266C46.6618 34.9972 41.3825 34.9972 36.1177 34.9972C35.9163 34.9972 35.6574 34.9972 35.4129 35.0545C33.7874 35.3408 32.7948 36.6008 32.7948 38.3904C32.7948 41.1966 32.7948 44.0458 32.7948 46.7947C32.7948 47.9687 32.7948 49.1571 32.7948 50.3311V53.7816C32.7948 56.6021 32.7948 59.4083 32.7948 62.2288C32.7948 64.5052 34.1038 65.8081 36.391 65.8081C38.7357 65.8081 41.0805 65.8081 43.4252 65.8081C45.4534 65.8081 47.4961 65.8081 49.5531 65.8081Z" fill="white"/>
<path d="M60.2122 66.252C60.1979 66.252 60.1979 66.252 60.1835 66.252C54.6022 66.2233 48.9202 66.2233 43.4252 66.2376C41.0805 66.2376 38.7357 66.2376 36.391 66.2376C33.8737 66.2376 32.3633 64.7343 32.3633 62.2288C32.3633 59.4083 32.3633 56.6021 32.3633 53.7816V50.3311H32.5791H32.3633C32.3633 49.1571 32.3633 47.9687 32.3633 46.7947C32.3633 44.0458 32.3633 41.1966 32.3633 38.3904C32.3633 36.4146 33.5141 34.9543 35.3553 34.5963C35.643 34.5391 35.9307 34.5391 36.1465 34.5391C41.4113 34.5391 46.6905 34.5391 51.9554 34.5391H53.4226C53.4514 34.5391 53.4802 34.5391 53.4945 34.5391C53.5809 34.5391 53.6815 34.5391 53.7679 34.5534C54.3289 34.6393 54.6741 34.9972 54.6741 35.5413C54.6885 36.0567 54.372 36.429 53.8398 36.5435C53.6672 36.5864 53.5089 36.5721 53.3507 36.5721C53.3075 36.5721 53.2644 36.5721 53.2068 36.5721H36.3623C34.9669 36.5721 34.3915 37.1448 34.3915 38.5479C34.3915 46.4368 34.3915 54.3399 34.3915 62.2288C34.3915 63.6176 34.9813 64.2046 36.3766 64.2046C44.3027 64.2046 52.2431 64.2046 60.1691 64.2046C61.55 64.2046 62.1398 63.6176 62.1398 62.2717C62.1398 59.7948 62.1398 57.3323 62.1398 54.8554C62.1398 51.7914 62.1398 48.7275 62.1398 45.6636V45.6207C62.1398 45.3916 62.1398 45.1482 62.1973 44.9191C62.3268 44.4037 62.7296 44.1317 63.2762 44.1889C63.7797 44.2462 64.0961 44.5612 64.1681 45.0623C64.1824 45.2055 64.1824 45.3486 64.1824 45.4918V45.5777C64.1824 47.1813 64.1824 48.7848 64.1824 50.3883C64.1681 54.2683 64.1681 58.2772 64.2112 62.2288C64.2256 63.3598 63.8228 64.3907 63.0892 65.1209C62.3843 65.8511 61.3486 66.252 60.2122 66.252ZM49.5531 65.8081C53.0918 65.8081 56.6592 65.8081 60.1835 65.8367H60.1979C61.2192 65.8367 62.1398 65.4788 62.7871 64.8345C63.4344 64.1759 63.7941 63.2596 63.7797 62.2431C63.7365 58.2915 63.7365 54.2827 63.7509 50.3883C63.7509 48.7848 63.7509 47.1813 63.7509 45.5777V45.4918C63.7509 45.363 63.7509 45.2341 63.7365 45.1196C63.6934 44.8046 63.5351 44.6471 63.233 44.6185C62.9022 44.5898 62.7008 44.7187 62.6145 45.0337C62.5713 45.2198 62.5713 45.4202 62.5713 45.635V45.6779C62.5713 48.7419 62.5713 51.8058 62.5713 54.8697C62.5713 57.3466 62.5713 59.8092 62.5713 62.2861C62.5713 63.8753 61.7802 64.6484 60.1691 64.6484C52.2431 64.6484 44.3027 64.6484 36.3766 64.6484C34.7512 64.6484 33.96 63.861 33.96 62.2431C33.96 54.3542 33.96 46.4511 33.96 38.5622C33.96 36.9157 34.7224 36.1569 36.3623 36.1569H53.2068C53.25 36.1569 53.3075 36.1569 53.3507 36.1569C53.4945 36.1569 53.624 36.1569 53.7391 36.1426C54.0699 36.071 54.2426 35.8706 54.2282 35.5699C54.2282 35.2406 54.0412 35.0402 53.6815 34.9972C53.624 34.9829 53.5521 34.9829 53.4802 34.9972C53.4514 34.9972 53.4226 34.9972 53.3938 34.9972H51.9266C46.6618 34.9972 41.3825 34.9972 36.1177 34.9972C35.9163 34.9972 35.6574 34.9972 35.4129 35.0545C33.7874 35.3408 32.7948 36.6008 32.7948 38.3904C32.7948 41.1966 32.7948 44.0458 32.7948 46.7947C32.7948 47.9687 32.7948 49.1571 32.7948 50.3311V53.7816C32.7948 56.6021 32.7948 59.4083 32.7948 62.2288C32.7948 64.5052 34.1038 65.8081 36.391 65.8081C38.7357 65.8081 41.0805 65.8081 43.4252 65.8081C45.4534 65.8081 47.4961 65.8081 49.5531 65.8081Z" fill="white"/>
<path d="M60.2132 66.4692H60.1844C54.7038 66.4406 49.1225 66.4406 43.7282 66.4549H43.4261C41.0814 66.4549 38.7367 66.4549 36.392 66.4549C33.7308 66.4549 32.1484 64.88 32.1484 62.2313C32.1484 59.4108 32.1484 56.6046 32.1484 53.7841V50.3336C32.1484 49.1596 32.1484 47.9712 32.1484 46.7972C32.1484 44.0483 32.1484 41.2134 32.1484 38.3929C32.1484 36.3026 33.3711 34.7707 35.3131 34.3841C35.6152 34.3268 35.9173 34.3125 36.1474 34.3125C41.0958 34.3125 46.0298 34.3125 50.9781 34.3125H53.5099C53.6105 34.3125 53.7112 34.3125 53.8263 34.3268C54.5024 34.427 54.9052 34.8709 54.9196 35.5295C54.934 36.1451 54.5456 36.6176 53.9126 36.7464C53.7256 36.7894 53.5242 36.7894 53.366 36.7751C53.3229 36.7751 53.2797 36.7751 53.2365 36.7751H36.392C35.1117 36.7751 34.637 37.2476 34.637 38.5361C34.637 46.425 34.637 54.3281 34.637 62.217C34.637 63.4912 35.1405 63.978 36.4063 63.978C44.3324 63.978 52.2728 63.978 60.1988 63.978C61.4646 63.978 61.9537 63.4912 61.9537 62.2599C61.9537 59.783 61.9537 57.3204 61.9537 54.8435C61.9537 51.7796 61.9537 48.7157 61.9537 45.6518V45.6089C61.9537 45.3655 61.9537 45.1078 62.0257 44.85C62.1839 44.2344 62.6874 43.8908 63.3347 43.9481C63.9388 44.0053 64.3416 44.4062 64.4135 45.0075C64.4279 45.165 64.4279 45.3225 64.4279 45.4657V45.5516C64.4279 47.1551 64.4279 48.7587 64.4279 50.3622C64.4135 54.2422 64.4135 58.2511 64.4567 62.2026C64.4711 63.391 64.0539 64.4791 63.2771 65.2522C62.486 66.0397 61.4071 66.4692 60.2132 66.4692ZM49.5253 66.0254C53.0639 66.0254 56.6457 66.0254 60.1988 66.0397H60.2276H60.2132C57.1492 66.0254 53.7832 66.011 49.5828 66.011C47.7991 66.011 46.0298 66.011 44.2748 66.011H43.4549C41.1102 66.011 38.7654 66.011 36.4207 66.011C38.7654 66.011 41.1102 66.011 43.4549 66.011H43.757C45.6414 66.0254 47.5689 66.0254 49.5253 66.0254ZM32.58 50.5483V53.7841C32.58 56.6046 32.58 59.4108 32.58 62.2313C32.58 64.608 34.0041 66.0254 36.392 66.0254C34.0041 66.0254 32.58 64.608 32.58 62.2313C32.58 59.4108 32.58 56.6046 32.58 53.7841V50.5483ZM49.554 65.5958C53.74 65.5958 57.1204 65.5958 60.1844 65.6245H60.1988C61.1626 65.6245 62.04 65.2952 62.6442 64.6795C63.2484 64.0639 63.5792 63.2049 63.5792 62.2456C63.5361 58.294 63.5361 54.2852 63.5504 50.3909C63.5504 48.7873 63.5504 47.1838 63.5504 45.5802V45.4943C63.5504 45.3655 63.5504 45.2509 63.5361 45.1507C63.5073 44.936 63.421 44.85 63.2196 44.8357C62.9894 44.8071 62.8887 44.8787 62.8312 45.0934C62.788 45.2509 62.788 45.4514 62.788 45.6375V45.6805C62.788 48.7444 62.788 51.8083 62.788 54.8722C62.788 57.3491 62.788 59.8116 62.788 62.2885C62.788 64.0066 61.9106 64.8657 60.17 64.8657C52.244 64.8657 44.3036 64.8657 36.3776 64.8657C34.6226 64.8657 33.7451 63.978 33.7451 62.2456C33.7451 54.3568 33.7451 46.4536 33.7451 38.5647C33.7451 36.8037 34.6082 35.9447 36.3632 35.9447H53.2078C53.2653 35.9447 53.3085 35.9447 53.366 35.9447C53.4955 35.9447 53.6105 35.9447 53.7112 35.9304C53.9989 35.8731 54.0421 35.7156 54.0277 35.5724C54.0277 35.3863 53.9558 35.2431 53.6681 35.2002C53.6249 35.2002 53.5674 35.2002 53.4955 35.2002C53.4667 35.2002 53.4379 35.2002 53.4092 35.2002H51.0213C46.0585 35.2002 41.0958 35.2002 36.133 35.2002C35.946 35.2002 35.6871 35.2002 35.4713 35.2574C33.9465 35.5295 33.0115 36.7178 33.0115 38.3929C33.0115 41.2134 33.0115 44.0483 33.0115 46.7972C33.0115 47.9712 33.0115 49.1596 33.0115 50.3336V53.7841C33.0115 56.6046 33.0115 59.4108 33.0115 62.2313C33.0115 64.4075 34.2198 65.5958 36.392 65.5958C38.7367 65.5958 41.0814 65.5958 43.4261 65.5958H44.246C46.001 65.5958 47.7703 65.5958 49.554 65.5958ZM63.421 64.3932C63.2915 64.5936 63.1333 64.7941 62.9607 64.9659C62.7881 65.1377 62.5867 65.2952 62.3709 65.4384C62.5867 65.3095 62.7737 65.152 62.9607 64.9659C63.1333 64.7941 63.2915 64.608 63.421 64.3932ZM34.1911 62.2313C34.1911 63.7203 34.8959 64.4218 36.392 64.4218C34.8959 64.4218 34.1911 63.7203 34.1911 62.2313ZM62.3709 55.0726C62.3709 57.4636 62.3709 59.8689 62.3709 62.2599C62.3709 63.7346 61.6804 64.4075 60.1844 64.4075C61.6804 64.4075 62.3709 63.7203 62.3709 62.2599C62.3709 59.8689 62.3709 57.4779 62.3709 55.0726ZM63.982 54.2422C63.982 56.8909 63.982 59.5826 64.0108 62.2313C64.0108 62.4031 64.0108 62.5606 63.982 62.7324C63.9964 62.5749 64.0108 62.4031 64.0108 62.2313C63.982 59.5683 63.982 56.8909 63.982 54.2422ZM36.3776 36.3456C34.8672 36.3456 34.1911 37.0185 34.1911 38.5361C34.1911 45.3798 34.1911 52.2235 34.1911 59.0671C34.1911 52.2235 34.1911 45.3798 34.1911 38.5361C34.1911 37.0328 34.8672 36.3456 36.3776 36.3456ZM62.3853 45.6518C62.3853 48.501 62.3853 51.3501 62.3853 54.1993C62.3709 51.3501 62.3709 48.501 62.3853 45.6518ZM63.9964 45.4514C63.9964 45.4657 63.9964 45.4657 63.9964 45.48V45.5659C63.9964 47.1695 63.9964 48.773 63.9964 50.3765C63.9964 50.7774 63.9964 51.164 63.9964 51.5649C63.9964 51.164 63.9964 50.7631 63.9964 50.3765C63.9964 48.773 63.9964 47.1695 63.9964 45.5659V45.48C63.9964 45.4657 63.9964 45.4657 63.9964 45.4514ZM32.58 50.1188C32.58 49.0164 32.58 47.8996 32.58 46.7972C32.58 44.7212 32.58 42.6022 32.58 40.4689C32.58 42.6022 32.58 44.7212 32.58 46.7972C32.58 47.914 32.58 49.0164 32.58 50.1188ZM62.4572 44.893C62.4428 44.9216 62.4428 44.936 62.4428 44.9646C62.3853 45.165 62.3853 45.3941 62.3853 45.6089C62.3853 45.3941 62.3853 45.165 62.4428 44.9646C62.4428 44.9503 62.4428 44.9216 62.4572 44.893ZM63.2915 44.3919C63.6799 44.4348 63.9244 44.6782 63.9676 45.0791C63.9676 45.1078 63.9676 45.1364 63.982 45.165C63.982 45.1364 63.982 45.1078 63.9676 45.0791C63.9244 44.6782 63.6799 44.4348 63.2915 44.3919ZM63.2052 44.3919C63.234 44.3919 63.2484 44.3919 63.2771 44.3919C63.2484 44.3919 63.234 44.3919 63.2052 44.3919ZM53.3948 36.3599C53.5386 36.3599 53.6825 36.3599 53.8119 36.3312C53.6825 36.3599 53.5386 36.3599 53.3948 36.3599ZM53.2222 36.3456C53.2365 36.3456 53.2509 36.3456 53.2653 36.3456C53.2509 36.3456 53.2365 36.3456 53.2222 36.3456ZM53.7832 34.7563C54.2291 34.8279 54.4736 35.1143 54.4736 35.5438C54.4736 35.5581 54.4736 35.5867 54.4736 35.6011C54.4736 35.5867 54.4736 35.5581 54.4736 35.5438C54.4736 35.1 54.2291 34.8279 53.7832 34.7563ZM36.1474 34.742C35.9316 34.742 35.6583 34.742 35.3994 34.7993C35.3706 34.7993 35.3419 34.8136 35.3131 34.8136C35.3419 34.8136 35.3706 34.7993 35.3994 34.7993C35.6583 34.7563 35.946 34.742 36.1474 34.742ZM53.6105 34.742C53.6537 34.742 53.6825 34.742 53.7256 34.742C53.6969 34.742 53.6537 34.742 53.6105 34.742ZM53.4235 34.742C53.4235 34.742 53.4379 34.742 53.4235 34.742C53.4379 34.742 53.4235 34.742 53.4235 34.742ZM53.5099 34.742C53.4811 34.742 53.4523 34.742 53.4235 34.742C53.4523 34.742 53.4811 34.742 53.5099 34.742Z" fill="white"/>
<path d="M40.2764 60.5721C39.0249 60.6294 38.2913 59.842 38.392 58.6107C38.4927 57.4796 38.579 56.3342 38.6509 55.1888C38.6797 54.6448 38.8667 54.1866 39.2695 53.8001C45.7426 47.3573 52.2158 40.9145 58.6889 34.486C59.811 33.3692 61.3358 33.3692 62.4722 34.486C63.177 35.1732 63.8675 35.8748 64.5723 36.5763C65.7087 37.7217 65.7231 39.225 64.5723 40.3847C62.803 42.1601 61.0193 43.9211 59.25 45.6965C54.6324 50.2923 50.0149 54.8882 45.3974 59.4983C44.9083 59.9851 44.3761 60.2858 43.6568 60.3288C42.5348 60.3574 41.3984 60.4719 40.2764 60.5721ZM39.9887 58.9686C41.1826 58.8827 42.319 58.8111 43.4554 58.6966C43.7431 58.6679 44.074 58.5105 44.2754 58.2957C49.2381 53.3849 54.1721 48.4597 59.1205 43.5345C59.2356 43.42 59.3507 43.2768 59.4226 43.2052C58.1999 41.9883 57.0203 40.8143 55.8264 39.6259C55.8264 39.6259 55.7688 39.6546 55.7401 39.6975C50.6622 44.7515 45.5988 49.7912 40.5209 54.8452C40.4203 54.9454 40.3052 55.1029 40.2908 55.2461C40.1757 56.4631 40.0894 57.68 39.9887 58.9686ZM60.6741 41.9167C61.6234 41.0004 62.6016 40.0554 63.551 39.0962C63.9106 38.7382 63.8819 38.2085 63.5366 37.8363C62.7886 37.0631 62.0262 36.3043 61.2638 35.5598C60.8754 35.1875 60.3576 35.1446 59.998 35.5025C59.0054 36.4618 58.0704 37.4497 57.1498 38.3803C58.3149 39.5543 59.4945 40.7427 60.6741 41.9167Z" fill="white"/>
<path d="M40.1619 60.7849C39.5433 60.7849 39.0399 60.5844 38.6802 60.2265C38.2919 59.8256 38.1336 59.2673 38.1912 58.5943C38.2919 57.4776 38.3782 56.3322 38.4501 55.1868C38.4932 54.5712 38.709 54.0844 39.1262 53.6692C41.96 50.863 44.7794 48.0425 47.5988 45.2363C51.2382 41.614 54.8919 37.9774 58.5456 34.3551C59.754 33.1525 61.3938 33.1525 62.6309 34.3551C63.2351 34.9564 63.8824 35.5864 64.7311 36.4454C65.9538 37.6767 65.9538 39.3232 64.7311 40.5545C63.4796 41.8144 62.1994 43.0887 60.9623 44.32C60.4444 44.8354 59.9266 45.3508 59.4087 45.8662L56.2297 49.0304C52.7342 52.5095 49.1092 56.1174 45.5562 59.6681C44.9808 60.2551 44.391 60.5272 43.6718 60.5558C42.8806 60.5988 42.0751 60.6703 41.2839 60.7276C40.953 60.7563 40.6222 60.7849 40.2913 60.8135H40.277C40.2482 60.7849 40.205 60.7849 40.1619 60.7849ZM60.5739 33.8683C59.9697 33.8683 59.3512 34.126 58.8477 34.6415C55.194 38.2637 51.5546 41.9003 47.9009 45.5226C45.0815 48.3288 42.2477 51.1493 39.4283 53.9555C39.083 54.2991 38.9104 54.6857 38.8816 55.2011C38.8097 56.3465 38.7234 57.5062 38.6227 58.623C38.5796 59.167 38.709 59.6109 38.9967 59.9258C39.2844 60.2265 39.7303 60.384 40.277 60.3554C40.6078 60.3267 40.9243 60.2981 41.2551 60.2695C42.0463 60.1979 42.8518 60.1263 43.6574 60.0977C44.2615 60.069 44.7506 59.8399 45.2541 59.3388C48.8071 55.7881 52.4321 52.1945 55.9276 48.7011L59.1067 45.5369C59.6245 45.0215 60.1424 44.5061 60.6602 43.9907C61.8973 42.7594 63.1775 41.4851 64.429 40.2252C65.4791 39.1657 65.4791 37.7913 64.429 36.7175C63.5947 35.8728 62.9474 35.2285 62.3432 34.6415C61.7966 34.126 61.1781 33.8683 60.5739 33.8683ZM39.7591 59.1957L39.8454 58.0646C39.9173 57.0767 39.9893 56.1461 40.0756 55.2155C40.09 55.0007 40.2482 54.8146 40.3776 54.6857C45.3836 49.7033 50.4326 44.6779 55.5968 39.538C55.6543 39.4807 55.6975 39.4521 55.7262 39.4378L55.8701 39.3375L55.9852 39.4807L59.7252 43.2175L59.5814 43.375C59.567 43.3893 59.5382 43.418 59.5238 43.4466C59.4663 43.5182 59.38 43.6184 59.2793 43.7043L57.7689 45.2076C53.4103 49.5601 48.8934 54.0557 44.4342 58.4655C44.1896 58.7089 43.8156 58.8807 43.4848 58.9236C42.6504 59.0095 41.8449 59.0668 40.9818 59.1384C40.6653 59.167 40.3489 59.1813 40.018 59.21L39.7591 59.1957ZM55.8125 39.9246C50.6772 45.0358 45.6569 50.0326 40.6797 55.0007C40.5647 55.1152 40.5071 55.2154 40.5071 55.2584C40.4208 56.2033 40.3489 57.1197 40.277 58.1075L40.2338 58.7375C40.4783 58.7232 40.7085 58.7089 40.953 58.6802C41.8161 58.623 42.6217 58.5657 43.4416 58.4798C43.6718 58.4512 43.9595 58.3223 44.1321 58.1505C48.577 53.7408 53.0938 49.2451 57.4668 44.907L58.9772 43.4037C59.0347 43.3464 59.0779 43.2891 59.1354 43.2462L55.8125 39.9246ZM60.6746 42.2153L56.8482 38.3783L56.9921 38.2208C57.251 37.9631 57.5099 37.6911 57.7689 37.419C58.445 36.7318 59.1354 36.0159 59.8403 35.3287C60.2862 34.8992 60.9191 34.9278 61.4082 35.386C62.2138 36.1591 62.9905 36.9322 63.6954 37.6624C64.1269 38.1206 64.1413 38.7935 63.7098 39.223C63.0337 39.9102 62.3145 40.5975 61.6384 41.2561C61.3651 41.5138 61.0918 41.7858 60.8328 42.0435L60.6746 42.2153ZM57.4524 38.364L60.6746 41.5997C60.8904 41.3849 61.1061 41.1702 61.3363 40.9554C62.0124 40.2968 62.7172 39.6096 63.4077 38.9223C63.6666 38.6503 63.6666 38.2494 63.3933 37.9631C62.6885 37.2329 61.9261 36.4598 61.1205 35.7009C60.8041 35.4003 60.4301 35.3716 60.1567 35.6294C59.4519 36.3166 58.7614 37.0181 58.0853 37.7054C57.8696 37.9488 57.6538 38.1635 57.4524 38.364Z" fill="white"/>
<path d="M40.1619 60.7849C39.5433 60.7849 39.0399 60.5844 38.6802 60.2265C38.2919 59.8256 38.1336 59.2673 38.1912 58.5943C38.2919 57.4776 38.3782 56.3322 38.4501 55.1868C38.4932 54.5712 38.709 54.0844 39.1262 53.6692C41.96 50.863 44.7794 48.0425 47.5988 45.2363C51.2382 41.614 54.8919 37.9774 58.5456 34.3551C59.754 33.1525 61.3938 33.1525 62.6309 34.3551C63.2351 34.9564 63.8824 35.5864 64.7311 36.4454C65.9538 37.6767 65.9538 39.3232 64.7311 40.5545C63.4796 41.8144 62.1994 43.0887 60.9623 44.32C60.4444 44.8354 59.9266 45.3508 59.4087 45.8662L56.2297 49.0304C52.7342 52.5095 49.1092 56.1174 45.5562 59.6681C44.9808 60.2551 44.391 60.5272 43.6718 60.5558C42.8806 60.5988 42.0751 60.6703 41.2839 60.7276C40.953 60.7563 40.6222 60.7849 40.2913 60.8135H40.277C40.2482 60.7849 40.205 60.7849 40.1619 60.7849ZM60.5739 33.8683C59.9697 33.8683 59.3512 34.126 58.8477 34.6415C55.194 38.2637 51.5546 41.9003 47.9009 45.5226C45.0815 48.3288 42.2477 51.1493 39.4283 53.9555C39.083 54.2991 38.9104 54.6857 38.8816 55.2011C38.8097 56.3465 38.7234 57.5062 38.6227 58.623C38.5796 59.167 38.709 59.6109 38.9967 59.9258C39.2844 60.2265 39.7303 60.384 40.277 60.3554C40.6078 60.3267 40.9243 60.2981 41.2551 60.2695C42.0463 60.1979 42.8518 60.1263 43.6574 60.0977C44.2615 60.069 44.7506 59.8399 45.2541 59.3388C48.8071 55.7881 52.4321 52.1945 55.9276 48.7011L59.1067 45.5369C59.6245 45.0215 60.1424 44.5061 60.6602 43.9907C61.8973 42.7594 63.1775 41.4851 64.429 40.2252C65.4791 39.1657 65.4791 37.7913 64.429 36.7175C63.5947 35.8728 62.9474 35.2285 62.3432 34.6415C61.7966 34.126 61.1781 33.8683 60.5739 33.8683ZM39.7591 59.1957L39.8454 58.0646C39.9173 57.0767 39.9893 56.1461 40.0756 55.2155C40.09 55.0007 40.2482 54.8146 40.3776 54.6857C45.3836 49.7033 50.4326 44.6779 55.5968 39.538C55.6543 39.4807 55.6975 39.4521 55.7262 39.4378L55.8701 39.3375L55.9852 39.4807L59.7252 43.2175L59.5814 43.375C59.567 43.3893 59.5382 43.418 59.5238 43.4466C59.4663 43.5182 59.38 43.6184 59.2793 43.7043L57.7689 45.2076C53.4103 49.5601 48.8934 54.0557 44.4342 58.4655C44.1896 58.7089 43.8156 58.8807 43.4848 58.9236C42.6504 59.0095 41.8449 59.0668 40.9818 59.1384C40.6653 59.167 40.3489 59.1813 40.018 59.21L39.7591 59.1957ZM55.8125 39.9246C50.6772 45.0358 45.6569 50.0326 40.6797 55.0007C40.5647 55.1152 40.5071 55.2154 40.5071 55.2584C40.4208 56.2033 40.3489 57.1197 40.277 58.1075L40.2338 58.7375C40.4783 58.7232 40.7085 58.7089 40.953 58.6802C41.8161 58.623 42.6217 58.5657 43.4416 58.4798C43.6718 58.4512 43.9595 58.3223 44.1321 58.1505C48.577 53.7408 53.0938 49.2451 57.4668 44.907L58.9772 43.4037C59.0347 43.3464 59.0779 43.2891 59.1354 43.2462L55.8125 39.9246ZM60.6746 42.2153L56.8482 38.3783L56.9921 38.2208C57.251 37.9631 57.5099 37.6911 57.7689 37.419C58.445 36.7318 59.1354 36.0159 59.8403 35.3287C60.2862 34.8992 60.9191 34.9278 61.4082 35.386C62.2138 36.1591 62.9905 36.9322 63.6954 37.6624C64.1269 38.1206 64.1413 38.7935 63.7098 39.223C63.0337 39.9102 62.3145 40.5975 61.6384 41.2561C61.3651 41.5138 61.0918 41.7858 60.8328 42.0435L60.6746 42.2153ZM57.4524 38.364L60.6746 41.5997C60.8904 41.3849 61.1061 41.1702 61.3363 40.9554C62.0124 40.2968 62.7172 39.6096 63.4077 38.9223C63.6666 38.6503 63.6666 38.2494 63.3933 37.9631C62.6885 37.2329 61.9261 36.4598 61.1205 35.7009C60.8041 35.4003 60.4301 35.3716 60.1567 35.6294C59.4519 36.3166 58.7614 37.0181 58.0853 37.7054C57.8696 37.9488 57.6538 38.1635 57.4524 38.364Z" fill="white"/>
<path d="M40.1605 60.9991C39.4844 60.9991 38.9234 60.7843 38.5206 60.3691C38.0891 59.9253 37.9021 59.3096 37.974 58.5651C38.0747 57.4484 38.161 56.303 38.2329 55.1576C38.2761 54.499 38.5206 53.955 38.9666 53.4968C41.7141 50.7622 44.4616 48.0276 47.209 45.3073L47.4536 45.0639C51.0929 41.4416 54.7467 37.805 58.4004 34.1827C59.695 32.8942 61.4644 32.8799 62.7878 34.1827C63.4063 34.7841 64.0536 35.4283 64.888 36.2731C66.197 37.5903 66.197 39.3656 64.888 40.6828C63.6365 41.957 62.3562 43.217 61.1191 44.4483L61.0328 44.5342C60.5437 45.0209 60.0547 45.5077 59.5512 45.9945L56.3722 49.1587C52.8623 52.6521 49.2517 56.2457 45.6986 59.7964C45.0801 60.4121 44.4472 60.7127 43.6704 60.7414C42.8792 60.7843 42.0737 60.8416 41.2969 60.9132C40.966 60.9418 40.6352 60.9704 40.3043 60.9991H40.29C40.2468 60.9991 40.2037 60.9991 40.1605 60.9991ZM39.3118 60.4121C39.5851 60.5266 39.916 60.5839 40.2756 60.5696C40.6064 60.5409 40.9373 60.5123 41.2537 60.4837C41.7428 60.4407 42.2319 60.3978 42.721 60.3691C42.2319 60.3978 41.7428 60.4407 41.2537 60.4837C40.9085 60.5123 40.592 60.5409 40.2612 60.5696C39.916 60.5839 39.5851 60.5266 39.3118 60.4121ZM44.9938 59.8394C44.7492 60.0255 44.4903 60.14 44.217 60.2259C44.4903 60.14 44.7349 60.0112 44.9938 59.8394ZM38.4199 58.2645C38.4056 58.379 38.4056 58.4935 38.3912 58.6081C38.3336 59.2094 38.4919 59.7248 38.8227 60.0685C38.8659 60.1114 38.8946 60.14 38.9378 60.1687C38.8946 60.14 38.8659 60.0971 38.8227 60.0685C38.4919 59.7105 38.3336 59.2094 38.3912 58.6081C38.4056 58.4935 38.4199 58.379 38.4199 58.2645ZM60.5725 34.0825C59.9971 34.0825 59.4505 34.3259 58.9902 34.7841C55.3365 38.4063 51.6971 42.0429 48.0578 45.6652C45.2383 48.4714 42.4045 51.2919 39.5851 54.0981C39.283 54.3988 39.1248 54.7424 39.096 55.2006C39.0241 56.3459 38.9378 57.5057 38.8371 58.6224C38.7939 59.1092 38.909 59.4958 39.1536 59.7535C39.3981 60.0112 39.7865 60.14 40.2612 60.1114C40.5777 60.0828 40.9085 60.0541 41.225 60.0255C42.0161 59.9539 42.8361 59.8823 43.6416 59.8537C44.1882 59.8251 44.6342 59.6103 45.0945 59.1521C48.6188 55.6444 52.2006 52.0651 55.6673 48.6146L58.947 45.3502C59.4361 44.8635 59.9396 44.3624 60.4287 43.8756L60.5006 43.804C61.7377 42.5727 63.0179 41.3128 64.2694 40.0528C65.2476 39.0649 65.2476 37.8337 64.2694 36.8458C63.4351 36.001 62.7878 35.3568 62.1836 34.7697C61.6945 34.3259 61.1479 34.0825 60.5725 34.0825ZM38.6645 55.129C38.6645 55.1576 38.6645 55.1719 38.6645 55.2006C38.6357 55.6444 38.6069 56.0739 38.5782 56.5178C38.6069 56.0882 38.6357 55.6444 38.6645 55.2006C38.6645 55.1719 38.6645 55.1433 38.6645 55.129ZM44.0156 49.0871C42.4333 50.662 40.851 52.2369 39.2686 53.8118C39.2399 53.8404 39.2111 53.8691 39.1967 53.8834C39.2255 53.8547 39.2399 53.8261 39.2686 53.8118C40.851 52.2369 42.4333 50.662 44.0156 49.0871ZM57.825 47.097L55.9694 48.9439C55.2214 49.6884 54.459 50.4472 53.6966 51.206C54.4878 50.4186 55.2789 49.6311 56.0701 48.8437L57.825 47.097ZM57.3647 35.8006C54.1569 38.9934 50.9491 42.1718 47.7557 45.3646L47.5111 45.608C47.1515 45.9659 46.7775 46.3381 46.4179 46.6961C46.8638 46.2522 47.3097 45.8084 47.7557 45.3646C50.9491 42.1861 54.1569 38.9934 57.3647 35.8006ZM64.629 40.3105C64.6146 40.3249 64.5859 40.3535 64.5715 40.3678C63.32 41.6277 62.0398 42.902 60.8027 44.1333L60.7308 44.2049C60.328 44.6057 59.9252 45.0066 59.5224 45.4075C59.9252 45.0066 60.328 44.6201 60.7164 44.2192L60.8027 44.1333C62.0398 42.902 63.32 41.6421 64.5715 40.3678C64.5859 40.3535 64.6146 40.3392 64.629 40.3105ZM60.5725 33.653C61.263 33.653 61.9103 33.9393 62.4713 34.4834C63.0899 35.0847 63.7228 35.729 64.5715 36.5737C64.6003 36.6024 64.6146 36.6167 64.6434 36.6453C64.629 36.6167 64.6003 36.6024 64.5715 36.5737C63.7372 35.729 63.0899 35.0847 62.4713 34.4834C61.3925 33.4239 59.954 33.3666 58.8607 34.3259C59.3642 33.8821 59.954 33.653 60.5725 33.653ZM39.5276 59.4385L39.6283 58.064C39.7002 57.0761 39.7721 56.1455 39.8584 55.2006C39.8872 54.9285 40.0598 54.6851 40.218 54.542C45.1664 49.6025 50.2442 44.5628 55.4371 39.3942C55.4947 39.337 55.5666 39.294 55.5954 39.2654L55.8975 39.0506L56.142 39.337L60.0259 43.2026L59.7526 43.5033C59.7382 43.5176 59.7094 43.5463 59.695 43.5749C59.6231 43.6465 59.5368 43.7467 59.4361 43.8469L57.9257 45.3502C53.5527 49.7027 49.0503 54.1984 44.591 58.6081C44.3033 58.8801 43.9005 59.0806 43.5122 59.1235C42.6778 59.2094 41.8723 59.2667 41.0092 59.3383C40.6783 59.3669 40.3619 59.3812 40.031 59.4099L39.5276 59.4385ZM40.0454 58.3217L40.0023 58.966C40.0598 58.966 40.103 58.9517 40.1605 58.9517L40.0023 58.966L40.0454 58.3217ZM41.6134 58.8515C41.3976 58.8658 41.1818 58.8801 40.966 58.8944H40.8797C40.6783 58.9088 40.4913 58.9231 40.29 58.9374C40.5201 58.9231 40.7359 58.9088 40.9517 58.8944C41.1818 58.8801 41.3976 58.8658 41.6134 58.8515ZM43.5265 58.6797C43.4978 58.6797 43.4834 58.694 43.4546 58.694C43.3108 58.7083 43.1669 58.7226 43.0231 58.7369C43.1669 58.7226 43.3108 58.7083 43.4546 58.694C43.469 58.694 43.4978 58.6797 43.5265 58.6797ZM40.7215 55.2865C40.6352 56.2171 40.5633 57.1477 40.4913 58.1213L40.4626 58.5079C40.592 58.4935 40.7215 58.4935 40.851 58.4792H40.9373C41.8004 58.422 42.6059 58.3647 43.4115 58.2788C43.5985 58.2645 43.843 58.1356 43.9725 58.0068C48.4461 53.5684 52.9486 49.0871 57.3072 44.7632L58.8176 43.2599L55.8112 40.2533C50.7189 45.3216 45.7418 50.2611 40.8222 55.1719C40.7503 55.2149 40.7215 55.2722 40.7215 55.2865ZM49.5394 53.0673C47.7844 54.814 46.0295 56.5607 44.2745 58.2931C44.2026 58.3647 44.1307 58.422 44.0444 58.4792C44.1307 58.422 44.217 58.3647 44.2745 58.2931C46.0295 56.5607 47.7844 54.814 49.5394 53.0673ZM40.5057 54.8569C40.3763 54.9858 40.3043 55.129 40.29 55.2292C40.29 55.2722 40.2756 55.3294 40.2756 55.3724C40.2756 55.3294 40.29 55.2722 40.29 55.2292C40.3043 55.086 40.4338 54.9285 40.5057 54.8569ZM55.7392 39.6949C53.1787 42.2434 50.647 44.7489 48.1584 47.2401C50.6326 44.7776 53.1356 42.2863 55.6673 39.7665L55.7392 39.6949ZM56.7318 40.5396L59.4217 43.217L56.7318 40.5396ZM60.6732 42.5154L56.5448 38.3777L56.8469 38.077C57.0914 37.8193 57.3503 37.5616 57.5949 37.3039L57.6236 37.2753C58.2853 36.588 58.9758 35.8722 59.695 35.1849C60.2129 34.6838 61.0041 34.7125 61.5651 35.2422C62.3706 36.0154 63.1474 36.7885 63.8523 37.533C64.3701 38.077 64.3845 38.8788 63.8666 39.3942C63.1762 40.0958 62.4713 40.7687 61.7952 41.4416L61.7808 41.4559C61.5075 41.7136 61.2486 41.9714 60.9897 42.2291L60.6732 42.5154ZM60.6732 41.9141C60.9321 41.6564 61.2055 41.3987 61.4644 41.141L61.4788 41.1266C62.1548 40.468 62.8597 39.7951 63.5502 39.0936C63.6077 39.022 63.6653 38.9504 63.7084 38.8788C63.6653 38.9504 63.6221 39.022 63.5502 39.0936C62.8597 39.7808 62.1692 40.468 61.4788 41.1266L61.4212 41.1839C61.2198 41.3843 61.0184 41.5705 60.8171 41.7709L60.6732 41.9141ZM57.7531 38.3634L60.6732 41.2984C60.8171 41.1553 60.9753 41.0121 61.1335 40.8546L61.1911 40.7973C61.8672 40.1387 62.572 39.4658 63.2481 38.7786C63.4351 38.5925 63.4207 38.3204 63.2193 38.12C62.5145 37.3898 61.7521 36.631 60.9609 35.8579C60.7308 35.6431 60.4862 35.6145 60.2992 35.7863C59.5944 36.4735 58.9039 37.1751 58.2422 37.8623C58.0696 38.0341 57.9113 38.2059 57.7531 38.3634ZM57.1489 38.3777L57.2928 38.2202C57.3072 38.2059 57.3359 38.1773 57.3503 38.1629C57.2784 38.2345 57.2209 38.3061 57.1489 38.3777ZM59.8677 35.6145C59.7094 35.772 59.5512 35.9294 59.393 36.0869C59.5512 35.9294 59.7094 35.772 59.8677 35.6145ZM61.1767 35.4713C61.2055 35.4999 61.2342 35.5142 61.263 35.5429C61.3925 35.6717 61.5363 35.8006 61.6658 35.9294C61.5363 35.8006 61.4068 35.6717 61.263 35.5429C61.2342 35.5286 61.2055 35.4999 61.1767 35.4713Z" fill="white"/>
<path d="M21.4316 30.78C21.7913 29.5917 22.4961 28.7326 23.7907 28.4892C24.0065 28.4463 24.2223 28.432 24.4381 28.432C26.9842 28.432 29.5303 28.432 32.0764 28.432C32.2202 28.432 32.3641 28.4177 32.5079 28.4606C32.9251 28.5752 33.1552 28.8615 33.1409 29.2767C33.1121 29.6919 32.8676 29.9639 32.436 30.0212C32.2778 30.0498 32.1195 30.0355 31.9469 30.0355C29.5015 30.0355 27.0705 30.0355 24.6251 30.0355C23.5031 30.0355 23.0571 30.4937 23.0571 31.5818C23.0571 44.3815 23.0571 57.1955 23.0571 69.9952C23.0571 71.069 23.5031 71.5128 24.5963 71.5128C30.6379 71.5128 36.6939 71.5271 42.7355 71.4985C43.9295 71.4985 44.7206 71.9423 45.296 72.9875C46.2886 74.7915 47.3387 76.5525 48.3744 78.3278C48.8059 79.0723 49.1943 79.0723 49.6402 78.3135C50.7047 76.4809 51.7979 74.6483 52.8337 72.8014C53.3371 71.9137 54.0564 71.5128 55.0777 71.5128C59.0047 71.5271 62.9318 71.5128 66.8732 71.5271C67.089 71.5271 67.3623 71.4985 67.4918 71.613C67.7219 71.8135 67.9808 72.1141 68.0096 72.3862C68.0528 72.7584 67.7794 73.0448 67.3623 73.1163C67.1753 73.145 66.9739 73.1307 66.7725 73.1307C62.9174 73.1307 59.0623 73.145 55.1928 73.1163C54.6893 73.1163 54.416 73.2738 54.1714 73.7034C53.1357 75.536 52.0713 77.3543 51.0068 79.1726C49.9711 80.9479 48.0435 80.9336 47.0078 79.1582C45.9721 77.3686 44.9076 75.5789 43.9007 73.7749C43.6274 73.2881 43.3253 73.102 42.7643 73.102C36.8665 73.1163 30.9544 73.0734 25.0566 73.1307C23.2729 73.145 22.0502 72.558 21.4604 70.8256C21.4316 57.5105 21.4316 44.1524 21.4316 30.78Z" fill="white"/>
<path d="M49.0077 80.7308C48.1446 80.7308 47.3391 80.201 46.8068 79.2847C46.591 78.9125 46.3753 78.5402 46.1451 78.1537C45.3396 76.7649 44.4909 75.3188 43.6853 73.9014C43.4552 73.4862 43.2106 73.343 42.7359 73.343C42.7359 73.343 42.7359 73.343 42.7215 73.343C40.4487 73.3574 38.1328 73.343 35.8888 73.343C32.3213 73.343 28.6388 73.343 24.9995 73.3717C24.9707 73.3717 24.9563 73.3717 24.9275 73.3717C22.9568 73.3717 21.7629 72.5985 21.2019 70.9234L21.1875 70.8948V30.749L21.2307 30.7204C21.6622 29.3173 22.4821 28.5298 23.7624 28.2721C23.9638 28.2292 24.1939 28.2148 24.4385 28.2148C26.9846 28.2148 29.5307 28.2148 32.0768 28.2148H32.1487C32.2782 28.2148 32.422 28.2148 32.5659 28.2435C33.0837 28.3867 33.3858 28.7732 33.357 29.2886C33.3283 29.8041 32.9974 30.162 32.4652 30.2336C32.3357 30.2479 32.2063 30.2479 32.0768 30.2479C32.0336 30.2479 31.9905 30.2479 31.9617 30.2479H29.243C27.7038 30.2479 26.1646 30.2479 24.6255 30.2479C23.6185 30.2479 23.2733 30.6058 23.2733 31.5794C23.2733 44.3791 23.2733 57.1931 23.2733 69.9928C23.2733 70.9664 23.6185 71.2957 24.5967 71.2957C25.9057 71.2957 27.2291 71.2957 28.5381 71.2957C33.1988 71.2957 38.0033 71.31 42.7359 71.2813C42.7503 71.2813 42.7503 71.2813 42.7647 71.2813C44.0449 71.2813 44.8936 71.7681 45.4978 72.8849C46.2027 74.1734 46.9651 75.4763 47.6987 76.7362C47.9864 77.2374 48.2741 77.7241 48.5761 78.2252C48.8207 78.6404 48.9645 78.6834 49.0221 78.6834C49.0796 78.6834 49.2235 78.6404 49.468 78.2252C49.7557 77.7385 50.0434 77.2374 50.3311 76.7506C51.1079 75.4334 51.899 74.0589 52.6614 72.7131C53.1937 71.7681 53.9848 71.3243 55.0781 71.3243H55.0925C57.5379 71.3386 60.0264 71.3243 62.4287 71.3243C63.9103 71.3243 65.392 71.3243 66.8736 71.3243C66.9024 71.3243 66.9455 71.3243 66.9887 71.3243C67.2188 71.3243 67.4778 71.31 67.636 71.4675C67.8805 71.6822 68.1826 72.0115 68.2258 72.3838C68.2833 72.8706 67.9381 73.2715 67.3915 73.343C67.2188 73.3717 67.0462 73.3717 66.8736 73.3717H66.7729H64.3563C61.3498 73.3717 58.2427 73.3717 55.1932 73.3574C54.776 73.3574 54.5602 73.4719 54.3588 73.8442C53.467 75.4191 52.5464 77.0083 51.6401 78.5545L51.1942 79.3277C50.6476 80.2154 49.8564 80.7308 49.0077 80.7308ZM42.7503 72.9135C43.3832 72.9135 43.7572 73.1426 44.0737 73.701C44.8793 75.1327 45.7136 76.5644 46.5191 77.9532C46.7349 78.3255 46.9651 78.6977 47.1808 79.0843C47.6411 79.8717 48.3028 80.3156 49.0077 80.3156C49.7125 80.3156 50.3599 79.8717 50.8202 79.0986L51.2661 78.3255C52.158 76.7935 53.093 75.2043 53.9848 73.6294C54.2581 73.1426 54.6178 72.9278 55.1932 72.9278H55.2075C58.2571 72.9422 61.3642 72.9422 64.3707 72.9422H66.7873H66.888C67.0462 72.9422 67.2045 72.9422 67.3483 72.9278C67.6072 72.8849 67.8518 72.7274 67.8086 72.4411C67.7799 72.2692 67.6216 72.0258 67.3627 71.7968C67.3195 71.7538 67.1038 71.7681 67.0031 71.7681C66.9599 71.7681 66.9168 71.7681 66.8736 71.7681C65.392 71.7681 63.9103 71.7681 62.4287 71.7681C60.0264 71.7681 57.5379 71.7681 55.0781 71.7681C55.0781 71.7681 55.0781 71.7681 55.0637 71.7681C54.1287 71.7681 53.4814 72.1404 53.021 72.9422C52.2587 74.3023 51.4531 75.6624 50.6907 76.994C50.403 77.4808 50.1153 77.9819 49.8276 78.4686C49.655 78.755 49.3961 79.1416 49.0077 79.1416C48.6193 79.1416 48.3604 78.755 48.1878 78.4686C47.9001 77.9675 47.6124 77.4807 47.3247 76.9796C46.591 75.7197 45.8287 74.4312 45.1094 73.1283C44.5772 72.169 43.8723 71.7538 42.7647 71.7538H42.7503C38.0177 71.7825 33.1988 71.7681 28.5381 71.7681C27.2291 71.7681 25.9057 71.7681 24.5967 71.7681C23.3884 71.7681 22.8418 71.2241 22.8418 70.0357C22.8418 57.2361 22.8418 44.4221 22.8418 31.6224C22.8418 30.4054 23.3884 29.8613 24.6255 29.8613C26.1646 29.8613 27.7038 29.8613 29.243 29.8613H31.9473C31.9905 29.8613 32.0336 29.8613 32.0768 29.8613C32.1919 29.8613 32.2926 29.8613 32.3933 29.847C32.7241 29.8041 32.8967 29.6179 32.9111 29.303C32.9255 28.988 32.7673 28.7875 32.4364 28.7016C32.3501 28.673 32.2494 28.673 32.1343 28.6873H32.0624C29.5163 28.6873 26.9702 28.6873 24.4241 28.6873C24.1939 28.6873 24.0069 28.7016 23.8199 28.7446C22.7411 28.9164 22.0218 29.6036 21.6478 30.8206V70.8375C22.1513 72.2979 23.1726 72.9565 24.9563 72.9565C24.9851 72.9565 24.9995 72.9565 25.0282 72.9565C28.6532 72.9278 32.3501 72.9278 35.9175 72.9278C38.1472 72.9278 40.4631 72.9278 42.7503 72.9135C42.7359 72.9135 42.7359 72.9135 42.7503 72.9135Z" fill="white"/>
<path d="M49.0077 80.7308C48.1446 80.7308 47.3391 80.201 46.8068 79.2847C46.591 78.9125 46.3753 78.5402 46.1451 78.1537C45.3396 76.7649 44.4909 75.3188 43.6853 73.9014C43.4552 73.4862 43.2106 73.343 42.7359 73.343C42.7359 73.343 42.7359 73.343 42.7215 73.343C40.4487 73.3574 38.1328 73.343 35.8888 73.343C32.3213 73.343 28.6388 73.343 24.9995 73.3717C24.9707 73.3717 24.9563 73.3717 24.9275 73.3717C22.9568 73.3717 21.7629 72.5985 21.2019 70.9234L21.1875 70.8948V30.749L21.2307 30.7204C21.6622 29.3173 22.4821 28.5298 23.7624 28.2721C23.9638 28.2292 24.1939 28.2148 24.4385 28.2148C26.9846 28.2148 29.5307 28.2148 32.0768 28.2148H32.1487C32.2782 28.2148 32.422 28.2148 32.5659 28.2435C33.0837 28.3867 33.3858 28.7732 33.357 29.2886C33.3283 29.8041 32.9974 30.162 32.4652 30.2336C32.3357 30.2479 32.2063 30.2479 32.0768 30.2479C32.0336 30.2479 31.9905 30.2479 31.9617 30.2479H29.243C27.7038 30.2479 26.1646 30.2479 24.6255 30.2479C23.6185 30.2479 23.2733 30.6058 23.2733 31.5794C23.2733 44.3791 23.2733 57.1931 23.2733 69.9928C23.2733 70.9664 23.6185 71.2957 24.5967 71.2957C25.9057 71.2957 27.2291 71.2957 28.5381 71.2957C33.1988 71.2957 38.0033 71.31 42.7359 71.2813C42.7503 71.2813 42.7503 71.2813 42.7647 71.2813C44.0449 71.2813 44.8936 71.7681 45.4978 72.8849C46.2027 74.1734 46.9651 75.4763 47.6987 76.7362C47.9864 77.2374 48.2741 77.7241 48.5761 78.2252C48.8207 78.6404 48.9645 78.6834 49.0221 78.6834C49.0796 78.6834 49.2235 78.6404 49.468 78.2252C49.7557 77.7385 50.0434 77.2374 50.3311 76.7506C51.1079 75.4334 51.899 74.0589 52.6614 72.7131C53.1937 71.7681 53.9848 71.3243 55.0781 71.3243H55.0925C57.5379 71.3386 60.0264 71.3243 62.4287 71.3243C63.9103 71.3243 65.392 71.3243 66.8736 71.3243C66.9024 71.3243 66.9455 71.3243 66.9887 71.3243C67.2188 71.3243 67.4778 71.31 67.636 71.4675C67.8805 71.6822 68.1826 72.0115 68.2258 72.3838C68.2833 72.8706 67.9381 73.2715 67.3915 73.343C67.2188 73.3717 67.0462 73.3717 66.8736 73.3717H66.7729H64.3563C61.3498 73.3717 58.2427 73.3717 55.1932 73.3574C54.776 73.3574 54.5602 73.4719 54.3588 73.8442C53.467 75.4191 52.5464 77.0083 51.6401 78.5545L51.1942 79.3277C50.6476 80.2154 49.8564 80.7308 49.0077 80.7308ZM42.7503 72.9135C43.3832 72.9135 43.7572 73.1426 44.0737 73.701C44.8793 75.1327 45.7136 76.5644 46.5191 77.9532C46.7349 78.3255 46.9651 78.6977 47.1808 79.0843C47.6411 79.8717 48.3028 80.3156 49.0077 80.3156C49.7125 80.3156 50.3599 79.8717 50.8202 79.0986L51.2661 78.3255C52.158 76.7935 53.093 75.2043 53.9848 73.6294C54.2581 73.1426 54.6178 72.9278 55.1932 72.9278H55.2075C58.2571 72.9422 61.3642 72.9422 64.3707 72.9422H66.7873H66.888C67.0462 72.9422 67.2045 72.9422 67.3483 72.9278C67.6072 72.8849 67.8518 72.7274 67.8086 72.4411C67.7799 72.2692 67.6216 72.0258 67.3627 71.7968C67.3195 71.7538 67.1038 71.7681 67.0031 71.7681C66.9599 71.7681 66.9168 71.7681 66.8736 71.7681C65.392 71.7681 63.9103 71.7681 62.4287 71.7681C60.0264 71.7681 57.5379 71.7681 55.0781 71.7681C55.0781 71.7681 55.0781 71.7681 55.0637 71.7681C54.1287 71.7681 53.4814 72.1404 53.021 72.9422C52.2587 74.3023 51.4531 75.6624 50.6907 76.994C50.403 77.4808 50.1153 77.9819 49.8276 78.4686C49.655 78.755 49.3961 79.1416 49.0077 79.1416C48.6193 79.1416 48.3604 78.755 48.1878 78.4686C47.9001 77.9675 47.6124 77.4807 47.3247 76.9796C46.591 75.7197 45.8287 74.4312 45.1094 73.1283C44.5772 72.169 43.8723 71.7538 42.7647 71.7538H42.7503C38.0177 71.7825 33.1988 71.7681 28.5381 71.7681C27.2291 71.7681 25.9057 71.7681 24.5967 71.7681C23.3884 71.7681 22.8418 71.2241 22.8418 70.0357C22.8418 57.2361 22.8418 44.4221 22.8418 31.6224C22.8418 30.4054 23.3884 29.8613 24.6255 29.8613C26.1646 29.8613 27.7038 29.8613 29.243 29.8613H31.9473C31.9905 29.8613 32.0336 29.8613 32.0768 29.8613C32.1919 29.8613 32.2926 29.8613 32.3933 29.847C32.7241 29.8041 32.8967 29.6179 32.9111 29.303C32.9255 28.988 32.7673 28.7875 32.4364 28.7016C32.3501 28.673 32.2494 28.673 32.1343 28.6873H32.0624C29.5163 28.6873 26.9702 28.6873 24.4241 28.6873C24.1939 28.6873 24.0069 28.7016 23.8199 28.7446C22.7411 28.9164 22.0218 29.6036 21.6478 30.8206V70.8375C22.1513 72.2979 23.1726 72.9565 24.9563 72.9565C24.9851 72.9565 24.9995 72.9565 25.0282 72.9565C28.6532 72.9278 32.3501 72.9278 35.9175 72.9278C38.1472 72.9278 40.4631 72.9278 42.7503 72.9135C42.7359 72.9135 42.7359 72.9135 42.7503 72.9135Z" fill="white"/>
<path d="M49.0072 80.9455C48.0722 80.9455 47.1947 80.3728 46.6193 79.3992L45.9576 78.2681C45.1377 76.8793 44.3034 75.4333 43.4978 74.0016C43.2964 73.6579 43.1382 73.5577 42.7354 73.5577C40.477 73.572 38.1754 73.5577 35.9602 73.5577H35.9026C32.551 73.5577 28.7534 73.5577 25.0277 73.5864H24.9558C22.8988 73.5864 21.6185 72.7416 21.0288 70.9949L21 70.9377V30.7203L21.0144 30.663C21.4747 29.174 22.3522 28.3293 23.7043 28.0716C23.9201 28.0286 24.1647 28 24.438 28C26.9841 28 29.5302 28 32.0763 28H32.1482C32.2921 28 32.4503 28 32.6229 28.043C33.2415 28.2148 33.6011 28.6872 33.5723 29.3029C33.5435 29.9185 33.1264 30.3624 32.4935 30.4483C32.3352 30.4626 32.1914 30.4626 32.0619 30.4626C32.0188 30.4626 31.9756 30.4626 31.9468 30.4626H28.3075C27.0704 30.4626 25.8477 30.4626 24.6106 30.4626C23.7187 30.4626 23.4742 30.7203 23.4742 31.5793C23.4742 44.379 23.4742 57.193 23.4742 69.9927C23.4742 70.8374 23.7187 71.0808 24.5818 71.0808C25.8908 71.0808 27.2142 71.0808 28.5232 71.0808H28.6096C33.2415 71.0808 38.0172 71.0951 42.7354 71.0665H42.7642C44.1164 71.0665 45.037 71.6106 45.6843 72.7703C46.3892 74.0588 47.1516 75.3617 47.8852 76.6073C48.1729 77.1084 48.4606 77.5952 48.7627 78.0963C48.8921 78.3111 48.9784 78.397 49.0216 78.4256C49.0647 78.397 49.151 78.3111 49.2805 78.082C49.5682 77.5952 49.8559 77.0941 50.1436 76.6073C50.906 75.2901 51.7115 73.93 52.4739 72.5698C53.0493 71.5533 53.898 71.0665 55.0776 71.0665C57.3504 71.0665 59.6519 71.0808 61.8672 71.0665H62.4282C63.9098 71.0665 65.3915 71.0665 66.8731 71.0665C66.9019 71.0665 66.9306 71.0665 66.945 71.0665H66.9738C67.2327 71.0665 67.5492 71.0522 67.7794 71.267C68.0527 71.5103 68.3835 71.8826 68.4411 72.3121C68.513 72.9134 68.0958 73.4145 67.4341 73.5148C67.2327 73.5434 67.0457 73.5434 66.8875 73.5434H66.7868H63.953C61.0904 73.5434 58.1272 73.5434 55.207 73.5291H55.1927C54.8618 73.5291 54.718 73.615 54.5597 73.9013C53.6679 75.4762 52.7472 77.0511 51.8554 78.5831L51.3951 79.3849C50.7909 80.3871 49.9422 80.9455 49.0072 80.9455ZM47.4393 79.7858C47.8852 80.2582 48.4318 80.5159 49.0072 80.5159V80.7307V80.5159C48.4318 80.5159 47.8852 80.2582 47.4393 79.7858ZM52.028 77.4091C51.8266 77.7527 51.6252 78.082 51.4382 78.4256L50.9923 79.1987C50.7621 79.5853 50.4888 79.9003 50.1724 80.1294C50.4888 79.9003 50.7621 79.5853 50.9923 79.1987L51.4526 78.397C51.654 78.0677 51.841 77.7384 52.028 77.4091ZM42.7354 72.6987C43.4547 72.6987 43.9006 72.9707 44.2602 73.5864C45.0514 75.0038 45.9001 76.4355 46.7056 77.8243L47.3673 78.9554C47.7845 79.6712 48.3743 80.0721 49.0072 80.0721C49.6257 80.0721 50.2155 79.6712 50.6327 78.9697L51.0786 78.1965C51.9705 76.6646 52.9055 75.0754 53.7973 73.5005C54.1138 72.9421 54.5453 72.6844 55.1927 72.6844C58.1415 72.6987 61.1336 72.6987 64.0249 72.6987H66.7868H66.8875C67.0601 72.6987 67.1896 72.6987 67.3047 72.6844C67.3622 72.67 67.6067 72.6271 67.578 72.441C67.5636 72.3407 67.4485 72.1689 67.2327 71.9542C67.1896 71.9542 67.1176 71.9542 67.0026 71.9542H66.9738C66.9306 71.9542 66.9019 71.9542 66.8587 71.9542C65.3771 71.9542 63.8955 71.9542 62.4138 71.9542H62.0686C59.7814 71.9542 57.4079 71.9542 55.0776 71.9542C54.2001 71.9542 53.6391 72.2835 53.2219 73.0137C52.4595 74.3595 51.6684 75.734 50.8916 77.0512L50.8772 77.0655C50.5895 77.5523 50.3018 78.0534 50.0141 78.5401C49.8127 78.8838 49.4963 79.3276 49.0072 79.3276C48.5181 79.3276 48.2016 78.8838 48.0003 78.5545C47.7126 78.0534 47.4249 77.5666 47.1372 77.0655C46.3892 75.8055 45.6268 74.5027 44.9219 73.1998C44.4328 72.2978 43.7999 71.9399 42.7642 71.9399H42.721C38.046 71.9685 33.2702 71.9542 28.6671 71.9542H28.5089C27.1998 71.9542 25.8764 71.9542 24.5674 71.9542C23.244 71.9542 22.5967 71.3099 22.5967 70.007C22.5967 57.2073 22.5967 44.3933 22.5967 31.5936C22.5967 30.2621 23.2584 29.6179 24.5962 29.6179C26.0491 29.6179 27.5163 29.6179 28.9692 29.6179H31.9181C31.9612 29.6179 32.0044 29.6179 32.0475 29.6179C32.1482 29.6179 32.2489 29.6179 32.3352 29.6035C32.5654 29.5749 32.6661 29.4747 32.6805 29.2599C32.6948 29.1024 32.6517 28.9593 32.364 28.8877C32.3352 28.859 32.2345 28.859 32.1482 28.859H32.0763C29.5302 28.859 26.9841 28.859 24.438 28.859C24.2222 28.859 24.0352 28.8734 23.877 28.902C22.8844 29.1024 22.2227 29.7324 21.8631 30.8491V70.7945C22.3522 72.1546 23.2728 72.7416 24.9558 72.7416H25.0277C28.7102 72.713 32.5366 72.713 35.917 72.713H36.0753C38.2618 72.713 40.5202 72.713 42.7354 72.6987ZM45.0226 75.8055C45.4542 76.5644 45.9001 77.3232 46.3316 78.0534L46.8351 78.9124L46.3316 78.0534C45.9001 77.3089 45.4542 76.5644 45.0226 75.8055ZM48.403 78.4113C48.5469 78.6404 48.7483 78.9124 48.9928 78.9124C48.8058 78.9124 48.6044 78.7406 48.403 78.4113ZM50.6758 76.55C50.6183 76.6503 50.5608 76.7648 50.4888 76.865C50.3738 77.0511 50.2587 77.2516 50.158 77.4377C50.2731 77.2516 50.3881 77.0511 50.4888 76.865L50.5032 76.8507C50.5608 76.7505 50.6183 76.6503 50.6758 76.55ZM47.1516 76.2637C47.2666 76.4641 47.3817 76.6646 47.4968 76.8507C47.5256 76.908 47.5687 76.9652 47.5975 77.0368C47.5687 76.9796 47.5256 76.9223 47.4968 76.865C47.3817 76.6646 47.2666 76.4641 47.1516 76.2637ZM54.272 73.5577C54.2289 73.615 54.2001 73.6723 54.157 73.7295C53.9699 74.0588 53.7829 74.3881 53.5959 74.7174C53.7829 74.3881 53.9699 74.0588 54.157 73.7295C54.2001 73.6579 54.2289 73.6007 54.272 73.5577ZM42.7354 73.1282C43.1526 73.1282 43.4403 73.2284 43.6704 73.4861C43.4403 73.2284 43.167 73.1282 42.7354 73.1282C40.5202 73.1425 38.2474 73.1282 36.0753 73.1282H35.917H35.9746C38.1898 73.1425 40.477 73.1425 42.7354 73.1282ZM25.7758 73.1568C25.5312 73.1568 25.2723 73.1568 25.0277 73.1568H25.0134H25.0277C25.2723 73.1568 25.5312 73.1568 25.7758 73.1568ZM66.758 73.1425H64.3414H66.758ZM66.7724 73.1425H66.8587C66.8587 73.1425 66.8587 73.1425 66.8731 73.1425C66.8731 73.1425 66.8731 73.1425 66.8587 73.1425H66.7724ZM55.1783 73.1282C55.207 73.1282 55.2358 73.1282 55.2646 73.1282C55.2358 73.1282 55.207 73.1282 55.1783 73.1282ZM42.7498 71.5247C43.9006 71.5247 44.6774 71.9542 45.2384 72.9134C44.6774 71.9399 43.9294 71.5247 42.7498 71.5247ZM67.9664 72.6557C67.9376 72.7273 67.9088 72.7846 67.8657 72.8419C67.9088 72.7846 67.952 72.7273 67.9664 72.6557ZM67.506 71.6392C67.6067 71.7394 67.7506 71.8826 67.8513 72.0401C67.765 71.9112 67.6499 71.7824 67.506 71.6392ZM23.057 70.1645C23.1002 71.1381 23.5605 71.5247 24.5962 71.5247C25.9052 71.5247 27.2286 71.5247 28.5376 71.5247H28.6959C33.299 71.5247 38.0604 71.539 42.7498 71.5103H42.7786H42.721C38.0172 71.539 33.2271 71.5247 28.5952 71.5247H28.5089C27.1998 71.5247 25.8764 71.5247 24.5674 71.5247C23.5461 71.539 23.1002 71.1381 23.057 70.1645ZM67.0889 71.539C67.1464 71.539 67.1896 71.539 67.2327 71.539C67.1608 71.539 67.0889 71.539 67.017 71.539C67.0313 71.539 67.0601 71.539 67.0889 71.539ZM65.0894 71.539C65.6792 71.539 66.2689 71.539 66.8443 71.539C66.2546 71.539 65.6792 71.539 65.0894 71.539ZM55.0488 71.5247C57.3935 71.5247 59.7526 71.5247 62.0542 71.5247H62.3994H61.8384C59.6232 71.539 57.3216 71.539 55.0488 71.5247C55.0632 71.5247 55.0632 71.5247 55.0488 71.5247ZM23.0426 50.2348C23.0426 50.4209 23.0426 50.6071 23.0426 50.7932C23.0426 50.6071 23.0426 50.4209 23.0426 50.2348ZM24.625 30.0331C23.503 30.0331 23.057 30.4769 23.057 31.5793C23.0426 30.4912 23.503 30.0331 24.625 30.0331ZM22.309 29.2313C21.935 29.6035 21.6473 30.1046 21.4459 30.7346C21.6473 30.119 21.935 29.6035 22.309 29.2313ZM31.9468 30.0331C31.99 30.0331 32.0188 30.0331 32.0619 30.0331C32.0763 30.0331 32.0763 30.0331 32.0907 30.0331H32.0763C32.0331 30.0331 31.99 30.0331 31.9468 30.0331ZM24.74 30.0331C24.7113 30.0331 24.6681 30.0331 24.6394 30.0331C24.6681 30.0331 24.6969 30.0331 24.74 30.0331ZM27.8903 30.0331C26.8402 30.0331 25.7901 30.0331 24.74 30.0331C25.934 30.0331 27.1279 30.0331 28.3075 30.0331H31.9324H28.9979C28.6239 30.0331 28.2643 30.0331 27.8903 30.0331ZM32.4791 30.0187C32.4647 30.0187 32.4503 30.0187 32.4359 30.0331C32.4215 30.0331 32.4071 30.0331 32.4071 30.0331C32.4215 30.0331 32.4359 30.0331 32.4359 30.0331C32.4359 30.0187 32.4647 30.0187 32.4791 30.0187ZM28.5232 28.4295C27.1567 28.4295 25.7901 28.4295 24.438 28.4295C26.9841 28.4295 29.5302 28.4295 32.0763 28.4295C30.8967 28.4295 29.7172 28.4295 28.5232 28.4295ZM32.1482 28.4295H32.0763H32.1482Z" fill="white"/>
<path d="M76.5704 50.779C76.5704 57.1789 76.5704 63.5644 76.5704 69.9642C76.5704 71.9973 75.4197 73.1427 73.377 73.1427C72.5858 73.1427 71.7947 73.1427 71.0035 73.1427C70.3994 73.1427 70.0685 72.842 70.0685 72.3552C70.0685 71.8684 70.4137 71.5535 71.0035 71.5535C71.8091 71.5392 72.6146 71.5535 73.4202 71.5535C74.5134 71.5535 74.945 71.1096 74.945 70.0215C74.945 62.3045 74.945 54.5874 74.945 46.8847C74.945 41.8164 74.945 36.7481 74.945 31.6654C74.945 30.4914 74.499 30.0619 73.3195 30.0619C61.0636 30.0619 48.8078 30.0619 36.5519 30.0619C35.6745 30.0619 35.3005 29.8185 35.3149 29.2458C35.3292 28.6731 35.7032 28.4297 36.5376 28.4297C48.8078 28.4297 61.078 28.4297 73.3482 28.4297C75.3909 28.4297 76.5561 29.5894 76.5561 31.6081C76.5704 37.9937 76.5704 44.3935 76.5704 50.779Z" fill="white"/>
<path d="M72.0529 73.3561C71.6933 73.3561 71.348 73.3561 70.9884 73.3561C70.2836 73.3417 69.8376 72.9552 69.8376 72.3539C69.8376 71.7382 70.298 71.3373 70.9884 71.3373C71.4775 71.323 71.9666 71.3373 72.4413 71.3373C72.7578 71.3373 73.0886 71.3373 73.4051 71.3373C74.3689 71.3373 74.7141 70.9937 74.7141 70.0201C74.7141 64.0928 74.7141 58.1511 74.7141 52.2237V42.7313C74.7141 39.0374 74.7141 35.3579 74.7141 31.664C74.7141 30.6045 74.3689 30.2752 73.3044 30.2752H36.5368C35.9471 30.2752 35.5587 30.1607 35.3285 29.9316C35.1559 29.7598 35.084 29.5307 35.084 29.2444C35.0984 28.2422 36.1628 28.2422 36.5225 28.2422H38.9823C50.4326 28.2422 61.8972 28.2422 73.3475 28.2422C75.5196 28.2422 76.7711 29.4735 76.7711 31.6354C76.7711 36.2026 76.7711 40.7698 76.7711 45.3371V50.8206V56.3041C76.7711 60.8714 76.7711 65.4386 76.7711 70.0058C76.7711 72.1534 75.5196 73.399 73.3619 73.399H72.8872C72.6139 73.3561 72.3406 73.3561 72.0529 73.3561ZM71.8803 71.7525C71.5926 71.7525 71.2905 71.7525 71.0028 71.7525C70.5425 71.7668 70.2692 71.9816 70.2692 72.3395C70.2692 72.812 70.6576 72.9122 70.9884 72.9122C71.6214 72.9265 72.2543 72.9122 72.8728 72.9122H73.3475C75.2751 72.9122 76.3252 71.8527 76.3252 69.9485C76.3252 65.3813 76.3252 60.8141 76.3252 56.2469V50.7633V45.2798C76.3252 40.7126 76.3252 36.1453 76.3252 31.5781C76.3252 29.6739 75.2607 28.6144 73.3331 28.6144C61.8829 28.6144 50.4326 28.6144 38.9679 28.6144H36.5081C35.5875 28.6144 35.5155 28.9151 35.5011 29.2014C35.5011 29.4305 35.5731 29.5307 35.6162 29.5737C35.7601 29.7169 36.0622 29.7885 36.5225 29.7885H73.29C74.599 29.7885 75.1312 30.3182 75.1312 31.6068C75.1312 35.3006 75.1312 38.9802 75.1312 42.674V52.1951C75.1312 58.1224 75.1312 64.0641 75.1312 69.9915C75.1312 71.1941 74.599 71.7382 73.3907 71.7382C73.0742 71.7382 72.7434 71.7382 72.4269 71.7382C72.2687 71.7525 72.0673 71.7525 71.8803 71.7525Z" fill="white"/>
<path d="M72.0529 73.3561C71.6933 73.3561 71.348 73.3561 70.9884 73.3561C70.2836 73.3417 69.8376 72.9552 69.8376 72.3539C69.8376 71.7382 70.298 71.3373 70.9884 71.3373C71.4775 71.323 71.9666 71.3373 72.4413 71.3373C72.7578 71.3373 73.0886 71.3373 73.4051 71.3373C74.3689 71.3373 74.7141 70.9937 74.7141 70.0201C74.7141 64.0928 74.7141 58.1511 74.7141 52.2237V42.7313C74.7141 39.0374 74.7141 35.3579 74.7141 31.664C74.7141 30.6045 74.3689 30.2752 73.3044 30.2752H36.5368C35.9471 30.2752 35.5587 30.1607 35.3285 29.9316C35.1559 29.7598 35.084 29.5307 35.084 29.2444C35.0984 28.2422 36.1628 28.2422 36.5225 28.2422H38.9823C50.4326 28.2422 61.8972 28.2422 73.3475 28.2422C75.5196 28.2422 76.7711 29.4735 76.7711 31.6354C76.7711 36.2026 76.7711 40.7698 76.7711 45.3371V50.8206V56.3041C76.7711 60.8714 76.7711 65.4386 76.7711 70.0058C76.7711 72.1534 75.5196 73.399 73.3619 73.399H72.8872C72.6139 73.3561 72.3406 73.3561 72.0529 73.3561ZM71.8803 71.7525C71.5926 71.7525 71.2905 71.7525 71.0028 71.7525C70.5425 71.7668 70.2692 71.9816 70.2692 72.3395C70.2692 72.812 70.6576 72.9122 70.9884 72.9122C71.6214 72.9265 72.2543 72.9122 72.8728 72.9122H73.3475C75.2751 72.9122 76.3252 71.8527 76.3252 69.9485C76.3252 65.3813 76.3252 60.8141 76.3252 56.2469V50.7633V45.2798C76.3252 40.7126 76.3252 36.1453 76.3252 31.5781C76.3252 29.6739 75.2607 28.6144 73.3331 28.6144C61.8829 28.6144 50.4326 28.6144 38.9679 28.6144H36.5081C35.5875 28.6144 35.5155 28.9151 35.5011 29.2014C35.5011 29.4305 35.5731 29.5307 35.6162 29.5737C35.7601 29.7169 36.0622 29.7885 36.5225 29.7885H73.29C74.599 29.7885 75.1312 30.3182 75.1312 31.6068C75.1312 35.3006 75.1312 38.9802 75.1312 42.674V52.1951C75.1312 58.1224 75.1312 64.0641 75.1312 69.9915C75.1312 71.1941 74.599 71.7382 73.3907 71.7382C73.0742 71.7382 72.7434 71.7382 72.4269 71.7382C72.2687 71.7525 72.0673 71.7525 71.8803 71.7525Z" fill="white"/>
<path d="M72.0525 73.572C71.6929 73.572 71.3333 73.572 70.988 73.572C70.1537 73.5577 69.6215 73.0853 69.6215 72.3408C69.6215 71.6106 70.1681 71.1238 70.988 71.1095C71.4915 71.0951 71.995 71.1095 72.4553 71.1095C72.7718 71.1095 73.1026 71.1095 73.4191 71.1095C74.2678 71.1095 74.5123 70.8517 74.5123 70.007C74.5123 64.0797 74.5123 58.138 74.5123 52.2106V42.7182C74.5123 39.0243 74.5123 35.3448 74.5123 31.6509C74.5123 30.7203 74.2678 30.4769 73.3184 30.4769H36.5508C35.8891 30.4769 35.4576 30.348 35.1843 30.0617C34.9685 29.8469 34.8678 29.5606 34.8822 29.217C34.8966 28.6586 35.1843 28 36.5365 28H46.2318C55.2798 28 64.3135 28 73.3615 28C75.6487 28 77.0009 29.3458 77.0009 31.608C77.0009 35.4164 77.0009 39.2248 77.0009 43.0189V58.5389C77.0009 62.3473 77.0009 66.1557 77.0009 69.9498C77.0009 72.2119 75.6487 73.5577 73.3759 73.5577H72.7861C72.5416 73.572 72.2971 73.572 72.0525 73.572ZM70.5277 73.0566C70.6572 73.1139 70.8154 73.1425 71.0024 73.1425C71.5922 73.1425 72.1964 73.1425 72.7861 73.1425H73.117H72.8005C72.2108 73.1425 71.5922 73.1425 71.0024 73.1425C70.8154 73.1425 70.6572 73.1139 70.5277 73.0566ZM76.555 69.9641C76.555 71.9685 75.3898 73.1282 73.3759 73.1425C75.4329 73.1282 76.555 71.9971 76.555 69.9641ZM71.8799 71.9685C71.5922 71.9685 71.2901 71.9685 71.0024 71.9685C70.6572 71.9685 70.4846 72.0974 70.4846 72.3408C70.4846 72.441 70.4846 72.6987 71.0024 72.6987C71.5922 72.6987 72.2108 72.6987 72.8005 72.6987H73.3615C75.174 72.6987 76.1234 71.7394 76.1378 69.9498C76.1378 66.1413 76.1378 62.3329 76.1378 58.5389V43.0189C76.1378 39.2105 76.1378 35.4021 76.1378 31.608C76.1378 29.8183 75.174 28.859 73.3615 28.859C62.7887 28.859 52.2159 28.859 41.6431 28.859H36.5365C35.7597 28.859 35.7453 29.0595 35.7453 29.2313C35.7453 29.3888 35.7885 29.4317 35.8028 29.4604C35.846 29.5033 36.0186 29.6179 36.5508 29.6179H73.3184C74.7425 29.6179 75.3754 30.2478 75.3754 31.6509C75.3754 35.3448 75.3754 39.0243 75.3754 42.7182V52.1963C75.3754 58.1236 75.3754 64.0653 75.3754 69.9927C75.3754 71.3099 74.7281 71.9542 73.4191 71.9542C73.117 71.9542 72.8005 71.9542 72.4984 71.9542H72.4553C72.2683 71.9685 72.0669 71.9685 71.8799 71.9685ZM70.1825 71.8969C70.0962 72.0258 70.053 72.1689 70.053 72.3408C70.053 72.1689 70.0962 72.0258 70.1825 71.8969ZM71.2182 71.539C71.1463 71.539 71.0743 71.539 71.0024 71.539C70.7147 71.539 70.4702 71.6249 70.312 71.7681C70.4702 71.6249 70.7147 71.5533 71.0024 71.539C71.0743 71.539 71.1463 71.539 71.2182 71.539ZM73.4622 71.539C73.4191 71.539 73.3615 71.539 73.3184 71.539C73.3615 71.539 73.4191 71.539 73.4622 71.539ZM72.369 71.539C72.3978 71.539 72.4265 71.539 72.4409 71.539H72.4553C72.4265 71.539 72.3978 71.539 72.369 71.539ZM74.9439 70.007C74.9439 70.1645 74.9295 70.3077 74.9151 70.4365C74.9439 70.2934 74.9439 70.1502 74.9439 70.007ZM74.9439 57.7657C74.9439 61.116 74.9439 64.4519 74.9439 67.8022C74.9439 64.4519 74.9439 61.1017 74.9439 57.7657ZM76.5693 59.5124C76.5693 59.899 76.5693 60.2856 76.5693 60.6865C76.5693 60.2999 76.5693 59.9133 76.5693 59.5124ZM73.3184 30.0331C74.4979 30.0331 74.9439 30.4626 74.9439 31.6366C74.9439 34.858 74.9439 38.0937 74.9439 41.3151C74.9439 38.0937 74.9439 34.858 74.9439 31.6366C74.9439 30.4769 74.5123 30.0331 73.3184 30.0331ZM76.5693 36.6477C76.5693 38.0651 76.5693 39.4682 76.5693 40.8856C76.5693 39.4682 76.5693 38.0651 76.5693 36.6477ZM73.3471 28.4295C75.3898 28.4295 76.555 29.5892 76.555 31.608C76.555 29.5606 75.4186 28.4295 73.3471 28.4295ZM35.472 29.7324L35.4864 29.7467C35.6734 29.9328 36.0186 30.0331 36.5508 30.0331C36.0186 30.0331 35.6734 29.9472 35.4864 29.7467C35.4864 29.7467 35.4864 29.7467 35.472 29.7324ZM35.4001 28.8447C35.3425 28.9449 35.3138 29.0738 35.3138 29.2313C35.3138 29.2456 35.3138 29.2742 35.3138 29.2886C35.3138 29.2742 35.3138 29.2456 35.3138 29.2313C35.3138 29.0738 35.3425 28.9449 35.4001 28.8447ZM55.9991 28.4295C61.7818 28.4295 67.5645 28.4295 73.3471 28.4295C67.5645 28.4295 61.7818 28.4295 55.9991 28.4295Z" fill="white"/>
</g>
<defs>
<clipPath id="clip0_238_36756">
<rect width="56" height="52.9455" fill="white" transform="translate(21 28)"/>
</clipPath>
</defs>
</svg>
