<svg width="100" height="100" viewBox="0 0 100 100" fill="none" xmlns="http://www.w3.org/2000/svg">
<circle cx="50" cy="50" r="49.25" fill="#42B3F5" stroke="#42B3F5" stroke-width="1.5"/>
<path d="M22 70.0747C22 55.4441 22 40.8135 22 26.1996C22.4917 24.5666 23.5863 24 25.1726 24C39.6237 24.0333 54.0748 24.0167 68.5259 24.0167C68.7638 24.0167 69.0018 24.0167 69.2397 24.0333C70.6515 24.15 71.6192 25.2331 71.6509 26.7162C71.6667 27.466 71.6509 28.2159 71.6509 28.9491C71.6509 29.5156 71.6509 30.0822 71.6509 30.6654C72.904 30.6654 74.062 30.6654 75.2359 30.6654C76.9491 30.6821 77.996 31.7819 77.996 33.5815C77.996 45.4293 78.0119 57.2771 77.9802 69.1249C77.9802 69.8914 77.8533 70.7079 77.6312 71.4244C76.7429 74.2239 74.3317 75.9069 71.3495 75.9069C57.1205 75.9069 42.8914 75.9069 28.6466 75.9069C28.4245 75.9069 28.2024 75.9069 27.9962 75.8903C25.3471 75.7403 23.0311 73.824 22.2697 71.1578C22.1745 70.8079 22.0952 70.4413 22 70.0747ZM71.6509 33.3482C71.6509 33.5649 71.6509 33.7148 71.6509 33.8648C71.6509 44.8794 71.6509 55.8773 71.6509 66.8919C71.6509 67.6918 71.7302 67.7751 72.5392 67.9751C73.1896 68.1417 73.5703 68.6749 73.5227 69.3582C73.4751 70.008 73.031 70.4913 72.3964 70.5413C72.095 70.5579 71.7778 70.5413 71.4764 70.4579C69.9535 70.0247 69.1128 68.7583 69.1128 66.9086C69.1128 53.7611 69.1128 40.6135 69.1128 27.4494C69.1128 27.1994 69.1128 26.9661 69.1128 26.6995C54.2175 26.6995 39.4016 26.6995 24.5381 26.6995C24.5222 26.9161 24.5063 27.0994 24.5063 27.2827C24.5063 41.1634 24.5063 55.0442 24.5063 68.9249C24.5063 71.5577 26.1085 73.2574 28.599 73.2574C42.8439 73.2574 57.1046 73.2574 71.3495 73.2574C73.84 73.2574 75.4421 71.5577 75.4421 68.9249C75.4421 57.2604 75.4421 45.6126 75.4421 33.9481C75.4421 33.7482 75.4263 33.5482 75.4104 33.3482C74.1414 33.3482 72.9358 33.3482 71.6509 33.3482Z" fill="white"/>
<path d="M37.2438 38.6641C39.2425 38.6641 41.2571 38.6641 43.2558 38.6641C44.4773 38.6641 44.9214 39.1473 44.9214 40.4304C44.9214 44.6296 44.9214 48.8122 44.9214 53.0114C44.9214 54.2778 44.4456 54.761 43.2241 54.761C39.2267 54.761 35.2451 54.761 31.2476 54.761C30.0579 54.761 29.582 54.2778 29.582 53.0447C29.582 48.8288 29.582 44.6296 29.582 40.4137C29.582 39.114 30.0103 38.6641 31.2794 38.6641C33.2781 38.6641 35.2609 38.6641 37.2438 38.6641ZM32.1677 52.0615C35.5941 52.0615 38.957 52.0615 42.3517 52.0615C42.3517 48.4789 42.3517 44.9296 42.3517 41.3636C38.9411 41.3636 35.5623 41.3636 32.1677 41.3636C32.1677 44.9462 32.1677 48.4789 32.1677 52.0615Z" fill="white"/>
<path d="M46.825 32.0156C51.9646 32.0156 57.1042 32.0156 62.2438 32.0156C62.5135 32.0156 62.799 32.0156 63.0528 32.0656C63.608 32.1656 64.0046 32.6822 64.0363 33.2821C64.068 33.8653 63.7032 34.4318 63.1638 34.5818C62.9259 34.6485 62.6562 34.6818 62.4024 34.6818C52.0122 34.6818 41.6379 34.6818 31.2477 34.6818C30.1531 34.6818 29.5662 34.1486 29.6297 33.2321C29.6772 32.6322 30.0738 32.1489 30.6449 32.0656C30.8987 32.0323 31.1525 32.0323 31.4063 32.0323C36.5459 32.0156 41.6855 32.0156 46.825 32.0156Z" fill="white"/>
<path d="M56.3425 47.9787C54.3279 47.9787 52.2975 47.9787 50.2829 47.9787C49.2518 47.9787 48.6807 47.3788 48.7759 46.479C48.8394 45.9124 49.2042 45.4791 49.7435 45.3792C49.9815 45.3292 50.2194 45.3125 50.4415 45.3125C54.4072 45.3125 58.3888 45.3125 62.3546 45.3125C62.878 45.3125 63.3856 45.3292 63.7505 45.7957C64.3533 46.5623 63.9884 47.6954 63.0525 47.912C62.7987 47.962 62.5449 47.9787 62.2911 47.9787C60.3082 47.9787 58.3254 47.9787 56.3425 47.9787Z" fill="white"/>
<path d="M56.3587 54.6271C54.3123 54.6271 52.2819 54.6437 50.2356 54.6271C49.1886 54.6271 48.6176 53.9772 48.7762 53.0441C48.8555 52.5108 49.1728 52.1942 49.6487 52.0443C49.9025 51.9609 50.188 51.9609 50.4577 51.9609C54.4075 51.9609 58.3574 51.9609 62.3231 51.9609C63.4494 51.9609 64.0521 52.4442 64.0363 53.3273C64.0204 54.1938 63.4335 54.6271 62.3231 54.6437C60.3402 54.6271 58.3574 54.6271 56.3587 54.6271Z" fill="white"/>
<path d="M56.3891 38.6641C58.4354 38.6641 60.4659 38.6641 62.5122 38.6641C63.4322 38.6641 63.9557 39.0973 64.0191 39.8805C64.0667 40.5304 63.7019 41.0969 63.0991 41.2469C62.877 41.2969 62.6391 41.3302 62.4011 41.3302C58.3878 41.3302 54.3904 41.3469 50.3771 41.3136C49.9963 41.3136 49.5839 41.1969 49.2508 40.997C48.7749 40.7137 48.6639 40.1804 48.7908 39.6472C48.9177 39.1473 49.2349 38.814 49.7267 38.7141C49.9805 38.6641 50.2343 38.6641 50.4881 38.6641C52.4551 38.6641 54.4221 38.6641 56.3891 38.6641Z" fill="white"/>
<path d="M56.392 61.2758C54.3457 61.2758 52.3152 61.2758 50.2689 61.2758C49.3489 61.2758 48.8254 60.8425 48.762 60.0594C48.7144 59.4095 49.0792 58.8429 49.682 58.693C49.92 58.6263 50.1896 58.6096 50.4434 58.6096C54.4091 58.6096 58.3907 58.593 62.3564 58.6263C62.753 58.6263 63.1972 58.7429 63.5462 58.9429C64.022 59.2262 64.1331 59.7594 63.9903 60.2926C63.8634 60.7925 63.5462 61.1258 63.0544 61.2258C62.8006 61.2758 62.5468 61.2758 62.293 61.2758C60.326 61.2758 58.359 61.2758 56.392 61.2758Z" fill="white"/>
<path d="M37.2597 67.924C35.2134 67.924 33.183 67.924 31.1366 67.924C30.5973 67.924 30.1214 67.8073 29.82 67.2908C29.3759 66.5742 29.7248 65.5744 30.518 65.3578C30.7718 65.2911 31.0573 65.2578 31.327 65.2578C35.2927 65.2578 39.2743 65.2578 43.24 65.2578C43.5097 65.2578 43.7952 65.2911 44.049 65.3578C44.5884 65.5078 44.9532 66.0743 44.9215 66.6575C44.8898 67.2574 44.4932 67.7573 43.938 67.874C43.7 67.924 43.4621 67.924 43.2242 67.924C41.2254 67.924 39.2426 67.924 37.2597 67.924Z" fill="white"/>
<path d="M56.3583 67.923C54.312 67.923 52.2815 67.923 50.2352 67.923C49.331 67.923 48.7917 67.473 48.7441 66.6899C48.7124 66.0733 49.0772 65.5234 49.6483 65.3568C49.8545 65.3068 50.0766 65.2734 50.2987 65.2734C54.3596 65.2734 58.4205 65.2734 62.4814 65.2734C62.7352 65.2734 62.989 65.3068 63.2269 65.3901C63.7345 65.5567 64.0518 66.1233 64.0201 66.6899C63.9725 67.2897 63.5759 67.7897 63.0207 67.873C62.6559 67.923 62.291 67.923 61.9262 67.923C60.0702 67.923 58.2142 67.923 56.3583 67.923Z" fill="white"/>
<path d="M37.2619 61.2755C35.2155 61.2755 33.1851 61.2755 31.1388 61.2755C30.2346 61.2755 29.7111 60.8589 29.6318 60.1257C29.5525 59.4092 29.9173 58.8427 30.5994 58.6927C30.8057 58.6427 31.0277 58.6094 31.2498 58.6094C35.2631 58.6094 39.2606 58.6094 43.2739 58.6094C44.2574 58.6094 44.7809 58.9926 44.876 59.7758C44.9712 60.4923 44.5429 61.1422 43.8608 61.2089C43.2263 61.2755 42.5918 61.2589 41.9573 61.2589C40.4027 61.2755 38.8323 61.2755 37.2619 61.2755Z" fill="white"/>
</svg>
