<svg width="100" height="100" viewBox="0 0 100 100" fill="none" xmlns="http://www.w3.org/2000/svg">
<circle cx="50" cy="50" r="49.25" fill="#42B3F5" stroke="#42B3F5" stroke-width="1.5"/>
<path fill-rule="evenodd" clip-rule="evenodd" d="M26 52.3804V47.584H74V52.3804H26ZM59.6 73.9644V69.1679H69.2V59.5751H74V69.1679C74 71.806 72.05 73.9644 69.65 73.9644H59.6ZM40.4 73.9644H30.35C27.95 73.9644 26 71.806 26 69.1679V59.5751H30.8V69.1679H40.4V73.9644ZM59.6 26H69.65C72.05 26 74 28.1584 74 30.7964V40.3893H69.2V30.7964H59.6V26ZM40.4 26V30.7964H30.8V40.3893H26V30.7964C26 28.1584 27.95 26 30.35 26H40.4Z" fill="white"/>
</svg>
