<svg width="100" height="100" viewBox="0 0 100 100" fill="none" xmlns="http://www.w3.org/2000/svg">
<circle cx="50" cy="50" r="49.25" fill="white" stroke="white" stroke-width="1.5"/>
<path d="M25.1708 28.0642C24.4325 28.0642 23.7703 28.0715 23.108 28.0642C22.2901 28.0534 22.0078 27.7747 22.0042 26.9677C22.0006 26.1027 21.9969 25.2414 22.0042 24.3764C22.015 22.9686 22.9632 22.0096 24.3674 22.006C27.2119 21.9951 30.0529 22.0024 32.8974 22.0024C47.0152 22.0024 61.1366 22.0024 75.2544 22.0024C77.1653 22.0024 77.9976 22.8384 77.9976 24.7673C77.9976 25.5309 78.0049 26.2981 77.994 27.0618C77.9832 27.7277 77.69 28.0389 77.0277 28.057C76.322 28.0751 75.6199 28.0606 74.8274 28.0606C74.8274 28.3429 74.8274 28.589 74.8274 28.8387C74.8274 44.3751 74.8274 59.9116 74.8274 75.4517C74.8274 76.5989 74.6428 76.7871 73.5028 76.7871C65.9934 76.7871 58.4803 76.7835 50.9708 76.8015C50.5655 76.8015 50.1203 76.921 49.7548 77.1019C47.3337 78.3143 44.9017 78.3432 42.4625 77.196C42.1368 77.044 41.9015 77.0151 41.5541 77.1815C39.1837 78.3215 36.7951 78.3143 34.4247 77.1743C34.1026 77.0187 33.8854 77.0368 33.5706 77.1815C30.983 78.365 28.4279 78.3577 25.9236 76.9065C25.3699 76.588 25.1563 76.1827 25.1563 75.5276C25.1744 59.9912 25.1708 44.4548 25.1708 28.9147C25.1708 28.6686 25.1708 28.4153 25.1708 28.0642ZM50.8695 28.1004C50.8695 31.6507 50.8695 35.1647 50.8695 38.6752C56.3704 39.1493 60.6589 43.4306 61.1222 48.8844C61.3248 51.2802 60.8001 53.5276 59.537 55.5724C57.5429 58.8078 54.579 60.5304 50.8659 60.9502C50.8659 64.5186 50.8659 68.0182 50.8659 71.5142C57.1195 71.5142 63.3261 71.5142 69.5436 71.5142C69.5436 57.0236 69.5436 42.5765 69.5436 28.0968C63.2936 28.1004 57.0869 28.1004 50.8695 28.1004ZM26.8175 28.0859C26.8175 28.2995 26.8175 28.4551 26.8175 28.6071C26.8175 44.082 26.8211 59.5569 26.8066 75.0318C26.8066 75.4444 26.9659 75.6254 27.2988 75.7737C29.083 76.5627 30.8635 76.5265 32.6549 75.7991C33.0567 75.6362 33.1833 75.4046 33.1833 74.9631C33.1688 59.5461 33.1725 44.1327 33.1725 28.7156C33.1725 28.5094 33.1725 28.3067 33.1725 28.0896C31.0191 28.0859 28.9635 28.0859 26.8175 28.0859ZM34.8481 28.1004C34.8372 28.2669 34.8191 28.3972 34.8191 28.5311C34.8191 44.0458 34.8191 59.5569 34.8083 75.0717C34.8083 75.4227 34.9277 75.6 35.2281 75.7376C37.0665 76.5699 38.8978 76.5627 40.7398 75.7556C41.0836 75.6073 41.1777 75.401 41.1777 75.0427C41.1669 69.0424 41.1741 63.0384 41.1596 57.0381C41.1596 56.7884 41.0619 56.4989 40.9172 56.2926C38.1414 52.3261 38.1341 47.3464 40.8918 43.351C41.0547 43.1157 41.156 42.7828 41.156 42.4969C41.1705 37.8899 41.1669 33.2792 41.1669 28.6686C41.1669 28.4804 41.1669 28.2922 41.1669 28.104C39.0172 28.1004 36.9471 28.1004 34.8481 28.1004ZM40.5155 49.7711C40.4322 54.8884 44.6918 59.2204 49.8779 59.3C55.0748 59.376 59.3597 55.1996 59.4719 49.9484C59.5805 44.7443 55.4005 40.4195 50.1746 40.3327C44.8474 40.2495 40.6059 44.3932 40.5155 49.7711ZM23.6689 26.3307C41.2646 26.3307 58.7662 26.3307 76.3293 26.3307C76.3293 25.824 76.3293 25.3572 76.3293 24.8903C76.3293 23.7467 76.2497 23.6671 75.0916 23.6671C58.3608 23.6671 41.6301 23.6671 24.903 23.6671C24.7076 23.6671 24.5085 23.6599 24.3131 23.6743C23.9259 23.6997 23.6834 23.9096 23.6762 24.3041C23.6581 24.9663 23.6689 25.6286 23.6689 26.3307ZM50.8405 75.0608C58.3138 75.0608 65.7292 75.0608 73.1482 75.0608C73.1482 59.3868 73.1482 43.7599 73.1482 28.1076C72.5221 28.1076 71.9285 28.1076 71.2771 28.1076C71.2771 28.3972 71.2771 28.6469 71.2771 28.9002C71.2771 43.2207 71.2771 57.5411 71.2771 71.858C71.2771 72.9943 71.0708 73.2079 69.9598 73.2079C63.8219 73.2079 57.6841 73.2079 51.5498 73.2079C51.3218 73.2079 51.0939 73.2079 50.8441 73.2079C50.8405 73.8593 50.8405 74.4419 50.8405 75.0608ZM42.8497 58.3663C42.8316 58.5291 42.8208 58.5979 42.8208 58.6703C42.8208 64.1639 42.8172 69.6576 42.8353 75.1513C42.8353 75.3358 43.0307 75.6109 43.208 75.6941C45.0067 76.5591 46.827 76.5446 48.6619 75.7846C49.0708 75.6145 49.1866 75.3865 49.1866 74.9486C49.1685 70.4755 49.1758 66.0024 49.1758 61.5293C49.1758 61.3411 49.1577 61.1529 49.1468 60.9249C46.7908 60.7186 44.7244 59.8682 42.8497 58.3663ZM42.8461 41.2374C44.7316 39.7247 46.8162 38.8815 49.1396 38.6716C49.1396 35.1177 49.1396 31.6145 49.1396 28.1113C47.0188 28.1113 44.9379 28.1113 42.8461 28.1113C42.8461 32.4867 42.8461 36.8114 42.8461 41.2374Z" fill="#0063AA"/>
<path d="M50.1533 44.7344C52.2994 44.7887 54.3405 45.545 56.0559 47.1374C56.5698 47.6115 56.6458 48.1326 56.2731 48.5126C55.9148 48.8782 55.4407 48.8275 54.9304 48.3715C51.9773 45.7441 48.0289 45.7658 45.0215 48.3932C44.7791 48.6031 44.3556 48.7117 44.0372 48.6827C43.8417 48.6646 43.545 48.2955 43.5341 48.0747C43.5196 47.7924 43.6789 47.4269 43.8888 47.217C45.4269 45.6645 47.7394 44.7416 50.1533 44.7344Z" fill="#0063AA"/>
<path d="M50.0015 48.6172C51.2646 48.6679 52.3865 49.0659 53.331 49.9056C53.8268 50.3471 53.9028 50.8429 53.5482 51.2301C53.1935 51.621 52.7737 51.6065 52.2562 51.1831C50.7977 49.9888 49.1945 49.996 47.7179 51.1975C47.2113 51.6101 46.777 51.6137 46.4296 51.212C46.1002 50.832 46.1726 50.3507 46.6395 49.9309C47.5949 49.0659 48.7312 48.6606 50.0015 48.6172Z" fill="#0063AA"/>
<path d="M50.0225 54.8614C49.3168 54.8723 48.7269 54.3005 48.7305 53.6165C48.7341 52.9506 49.2987 52.386 49.9718 52.3752C50.6739 52.3643 51.2674 52.9361 51.2638 53.6237C51.2602 54.2896 50.6956 54.8506 50.0225 54.8614Z" fill="#0063AA"/>
</svg>
