<svg width="100" height="100" viewBox="0 0 100 100" fill="none" xmlns="http://www.w3.org/2000/svg">
<circle cx="50" cy="50" r="49.25" fill="white" stroke="white" stroke-width="1.5"/>
<path d="M30.7514 22C43.5826 22 56.4174 22 69.2486 22C69.2486 37.7348 69.2486 53.4697 69.2486 69.2633C71.0239 69.2633 72.744 69.2633 74.4531 69.2633C74.4531 69.8771 74.4531 70.4285 74.4531 71.0202C71.5385 71.0202 68.6642 71.0202 65.7826 71.0202C65.7826 71.612 65.7826 72.167 65.7826 72.7514C69.8771 72.7514 73.9386 72.7514 78 72.7514C78 73.3358 78 73.9165 78 74.5009C74.5377 74.5009 71.0753 74.4972 67.613 74.5009C66.8522 74.5009 65.9774 74.3024 65.3599 74.6038C64.7608 74.8979 64.4117 75.7138 63.9706 76.3166C63.5663 76.8679 63.1877 77.4376 62.7981 78C57.9501 78 53.1021 78 48.2505 78C48.2247 77.9743 48.2064 77.9302 48.1769 77.9265C46.3907 77.5479 45.13 76.5151 44.3912 74.8611C44.2405 74.523 44.0126 74.4972 43.7002 74.4972C36.4668 74.5046 29.2334 74.5046 22 74.5046C22 73.9202 22 73.3395 22 72.7551C29.079 72.7551 36.1544 72.7551 43.3143 72.7551C43.0827 72.2846 42.8585 71.9097 42.7078 71.5054C42.5571 71.1011 42.3182 70.9908 41.8882 70.9908C36.6395 71.0092 31.3909 71.0018 26.146 71.0018C25.9365 71.0018 25.727 71.0018 25.5358 71.0018C25.5358 70.3733 25.5358 69.833 25.5358 69.2376C27.2891 69.2376 29.0055 69.2376 30.7514 69.2376C30.7514 53.4476 30.7514 37.7238 30.7514 22ZM41.561 69.2302C41.3038 68.7157 41.0171 68.2673 40.8517 67.7784C40.6532 67.1867 40.418 66.5508 40.451 65.9443C40.5245 64.43 41.5757 63.2502 42.9577 62.9304C44.4096 62.596 45.7805 63.1804 46.6112 64.4962C46.8354 64.8527 47.0596 65.2129 47.3463 65.6724C47.3463 62.7025 47.3463 59.8724 47.3463 56.9798C45.3027 56.9798 43.2922 56.9798 41.2817 56.9798C41.2817 52.2972 41.2817 47.6734 41.2817 42.9908C41.8624 42.9908 42.4174 42.9908 43.0018 42.9908C43.0018 41.8771 42.9908 40.8223 43.0055 39.7674C43.0129 39.2785 43.0276 38.7824 43.1084 38.3009C43.6046 35.2759 46.0194 32.9787 49.151 32.534C51.9774 32.1334 54.9399 33.7249 56.2484 36.3418C56.7519 37.3526 57.0129 38.4148 57.0018 39.5505C56.9871 40.6899 56.9982 41.833 56.9982 43.0312C57.623 43.0312 58.178 43.0312 58.7146 43.0312C58.7146 47.7138 58.7146 52.3376 58.7146 57.0202C56.9614 57.0202 55.2449 57.0202 53.5248 57.0202C53.5248 57.9134 53.5248 58.744 53.5248 59.6298C54.1276 59.6298 54.7046 59.6261 55.2854 59.6298C56.0793 59.6372 56.8475 59.8908 57.2187 60.5634C57.6671 61.3794 58.2846 61.4565 59.0491 61.3794C59.2476 61.361 59.4497 61.3757 59.6519 61.3757C60.5781 61.3904 61.35 61.7653 61.7947 62.5592C62.0814 63.0664 62.4122 63.1436 62.9231 63.1363C64.68 63.1105 65.7459 64.1911 65.7495 65.9443C65.7495 67.0323 65.7495 68.1202 65.7495 69.2119C66.367 69.2119 66.9184 69.2119 67.4623 69.2119C67.4623 54.0394 67.4623 38.9036 67.4623 23.7753C55.7999 23.7753 44.1743 23.7753 32.534 23.7753C32.534 38.9367 32.534 54.0725 32.534 69.2119C33.1184 69.2119 33.6734 69.2119 34.2835 69.2119C34.2835 63.3715 34.2835 57.5715 34.2835 51.7826C34.8826 51.7826 35.4229 51.7826 36.0221 51.7826C36.0221 57.6193 36.0221 63.4193 36.0221 69.2266C37.8782 69.2302 39.6755 69.2302 41.561 69.2302ZM51.7495 63.9853C51.7495 63.739 51.7495 63.5406 51.7495 63.3421C51.7495 60.0782 51.7495 56.8181 51.7495 53.5542C51.7495 53.3888 51.7569 53.2271 51.7459 53.0617C51.6907 52.3192 51.1431 51.7642 50.4558 51.7532C49.7537 51.7385 49.1767 52.3082 49.1252 53.0764C49.1142 53.2381 49.1216 53.4035 49.1216 53.5689C49.1216 58.5639 49.1216 63.5589 49.1216 68.5503C49.1216 68.7635 49.1216 68.9766 49.1216 69.2449C48.7136 69.2449 48.3497 69.2192 47.9932 69.2523C47.5815 69.2927 47.3426 69.1567 47.1294 68.7818C46.4899 67.6608 45.8062 66.5618 45.1263 65.4628C44.608 64.6248 43.748 64.3712 42.9724 64.8049C42.23 65.2166 41.98 66.1024 42.3954 66.9404C43.6267 69.4177 44.858 71.895 46.1076 74.3612C46.7214 75.5742 47.7506 76.2284 49.0921 76.2358C53.2124 76.2688 57.329 76.2505 61.4492 76.2358C61.633 76.2358 61.8719 76.1181 61.9858 75.9748C62.618 75.1735 63.2208 74.3539 63.8199 73.5269C63.9191 73.3909 63.9853 73.1998 63.9853 73.0344C63.9963 70.6453 63.9963 68.2599 63.989 65.8708C63.9853 65.2975 63.6876 64.9409 63.1693 64.8858C62.8716 64.8527 62.5666 64.8784 62.2284 64.8784C62.2284 65.7789 62.2284 66.6096 62.2284 67.4586C61.633 67.4586 61.0816 67.4586 60.4936 67.4586C60.4936 66.3339 60.5009 65.2423 60.4899 64.1507C60.4862 63.5406 60.1885 63.1657 59.6482 63.1326C59.0711 63.0958 58.4941 63.1252 57.8546 63.1252C57.8546 64.0184 57.8546 64.8637 57.8546 65.7018C57.2407 65.7018 56.6894 65.7018 56.116 65.7018C56.116 64.5844 56.1197 63.5075 56.1124 62.4342C56.1087 61.8351 55.8551 61.4418 55.3552 61.3977C54.7488 61.3463 54.1313 61.3867 53.4623 61.3867C53.4623 62.2872 53.4623 63.1326 53.4623 63.9816C52.8853 63.9853 52.3597 63.9853 51.7495 63.9853ZM56.9614 55.2266C56.9614 51.7165 56.9614 48.2468 56.9614 44.7918C52.2862 44.7918 47.6514 44.7918 43.0276 44.7918C43.0276 48.2909 43.0276 51.7459 43.0276 55.2523C43.7627 55.2523 44.4684 55.2523 45.1741 55.2523C45.8945 55.2523 46.6185 55.2523 47.3757 55.2523C47.3757 54.6017 47.3757 54.021 47.3757 53.4439C47.3757 51.3857 48.596 50.0074 50.4227 50.0037C52.2788 50 53.4954 51.371 53.4991 53.4697C53.4991 54.0467 53.4991 54.6275 53.4991 55.2266C54.6752 55.2266 55.7999 55.2266 56.9614 55.2266ZM44.6448 42.9651C48.2762 42.9651 51.7459 42.9651 55.2486 42.9651C55.2486 41.7852 55.256 40.6385 55.2449 39.4954C55.2413 39.2234 55.1972 38.9514 55.1567 38.6831C54.8002 36.2536 52.7677 34.4195 50.2536 34.2615C47.8792 34.1108 45.4718 35.7427 45.0013 38.0877C44.6852 39.6535 44.7551 41.3001 44.6448 42.9651Z" fill="#0063AA"/>
<path d="M22 69.25C22.5587 69.25 23.1137 69.25 23.7091 69.25C23.7091 69.8307 23.7091 70.3784 23.7091 70.9995C23.1394 70.9995 22.5697 70.9995 22 70.9995C22 70.4151 22 69.8344 22 69.25Z" fill="#0063AA"/>
<path d="M78.0001 70.9995C77.4414 70.9995 76.8864 70.9995 76.291 70.9995C76.291 70.4188 76.291 69.8712 76.291 69.25C76.8607 69.25 77.4304 69.25 78.0001 69.25C78.0001 69.8344 78.0001 70.4151 78.0001 70.9995Z" fill="#0063AA"/>
<path d="M34.2908 25.5156C44.7733 25.5156 55.2154 25.5156 65.7017 25.5156C65.7017 37.4463 65.7017 49.3733 65.7017 61.3371C65.1614 61.3371 64.61 61.3371 64.0146 61.3371C64.0146 49.9945 64.0146 38.6629 64.0146 27.2909C54.6715 27.2909 45.3724 27.2909 36.0072 27.2909C36.0072 31.3339 36.0072 35.388 36.0072 39.4678C35.4081 39.4678 34.8678 39.4678 34.2871 39.4678C34.2908 34.8404 34.2908 30.2056 34.2908 25.5156Z" fill="#0063AA"/>
<path d="M39.4987 45.6459C39.4987 46.2303 39.5024 46.811 39.4987 47.3955C39.484 48.851 38.3373 49.9904 36.8928 49.994C35.4153 49.9977 34.2648 48.8583 34.2575 47.3734C34.2501 46.2083 34.2501 45.0431 34.2575 43.8743C34.2648 42.3857 35.4153 41.2463 36.8891 41.25C38.3593 41.2537 39.4877 42.3968 39.4987 43.9C39.4987 44.4808 39.4987 45.0652 39.4987 45.6459ZM35.996 45.5761C35.996 46.1201 35.9886 46.664 35.9997 47.208C36.0107 47.8328 36.3709 48.2445 36.8855 48.2371C37.378 48.2298 37.7418 47.8292 37.7492 47.2411C37.7602 46.1531 37.7639 45.0615 37.7492 43.9736C37.7418 43.3892 37.3596 42.9885 36.8671 42.9959C36.3746 43.0032 36.018 43.4039 36.0033 43.9919C35.9886 44.5249 35.996 45.0505 35.996 45.5761Z" fill="#0063AA"/>
<path d="M55.0313 48.5131C54.6564 48.9211 54.2778 49.3328 53.8955 49.7481C51.3043 47.7523 48.7314 47.745 46.1035 49.7444C45.7359 49.3475 45.361 48.9395 44.9824 48.5315C47.2759 46.0064 52.2195 45.672 55.0313 48.5131Z" fill="#0063AA"/>
</svg>
