<svg width="100" height="100" viewBox="0 0 100 100" fill="none" xmlns="http://www.w3.org/2000/svg">
<circle cx="50" cy="50" r="49.25" fill="white" stroke="white" stroke-width="1.5"/>
<path d="M50.7617 29C51.2878 29.1535 51.8308 29.2655 52.3373 29.4671C54.1373 30.1841 55.3905 31.5309 56.4217 33.1054C57.9541 35.4463 58.8496 38.0449 59.4527 40.7528C59.6668 41.7144 59.8221 42.6891 60.0127 43.7001H66.1726V46.6318H60.1954C60.1954 47.4542 60.2515 48.2336 60.185 49.0027C59.9761 51.4256 59.2477 53.7366 58.5559 56.0515C58.0782 57.6507 57.5612 59.2395 57.077 60.8375C56.9908 61.1224 56.8838 61.2539 56.5509 61.2526C52.1689 61.2396 47.7869 61.2435 43.4061 61.2448C43.1921 61.2448 43.0093 61.2682 42.9258 60.9741C41.9885 57.6859 40.973 54.4184 40.1206 51.1081C39.7982 49.855 39.8439 48.5069 39.7264 47.2018C39.7107 47.0287 39.7238 46.8543 39.7238 46.6487H33.7949V43.717H39.8491C40.306 41.8289 40.6793 40.0033 41.1962 38.2193C41.8267 36.0423 42.773 33.9942 44.1867 32.1932C45.4581 30.5706 47.0076 29.3696 49.1209 29.0573C49.1483 29.0534 49.1718 29.0195 49.1966 29H50.7604H50.7617ZM54.7861 58.3066C55.3304 56.5095 55.9035 54.719 56.4138 52.9116C56.8681 51.3046 57.3198 49.6845 57.3015 47.9968C57.2662 44.732 56.7428 41.5375 55.7298 38.4314C55.1281 36.5875 54.3605 34.8152 53.0043 33.3722C51.2068 31.4593 48.8403 31.4021 47.0702 33.3266C46.334 34.1282 45.7088 35.0742 45.2179 36.0475C43.8278 38.8036 43.1895 41.7834 42.8501 44.8296C42.6699 46.4431 42.4337 48.0801 42.8213 49.6754C43.4349 52.2089 44.1685 54.7125 44.8564 57.2278C44.9569 57.5974 45.0913 57.9565 45.2049 58.3066H54.7874H54.7861Z" fill="#0063AA"/>
<path d="M75.0015 46.6335H69.1719V43.7109H75.0015V46.6335Z" fill="#0063AA"/>
<path d="M42.6905 64.1797H57.3116C57.3116 64.3371 57.3116 64.4894 57.3116 64.6429C57.3116 66.9318 57.3181 69.2207 57.3103 71.5096C57.2959 75.7308 53.9242 78.9865 49.6936 78.8746C45.9852 78.7757 42.7727 75.6553 42.6722 71.9572C42.603 69.4263 42.6565 66.8928 42.6552 64.3606C42.6552 64.315 42.6735 64.2695 42.6918 64.1797H42.6905ZM45.5831 67.1101C45.5831 68.6039 45.5766 70.0457 45.5844 71.4875C45.5988 73.991 47.5215 75.9468 49.9638 75.9546C52.4309 75.9624 54.3615 74.0067 54.3772 71.4731C54.385 70.1433 54.3798 68.8147 54.3772 67.4848C54.3772 67.3612 54.3563 67.2389 54.3432 67.1101H45.5818H45.5831Z" fill="#0063AA"/>
<path d="M30.8022 43.7461V46.6088H25V43.7461H30.8022Z" fill="#0063AA"/>
</svg>
