<svg width="100" height="100" viewBox="0 0 100 100" fill="none" xmlns="http://www.w3.org/2000/svg">
<circle cx="50" cy="50" r="50" fill="#42B3F5"/>
<g clip-path="url(#clip0_238_36801)">
<path d="M75.0965 34.4727C75.0965 37.1745 75.0965 39.8763 75.0965 42.5781C75.0744 42.6016 75.0444 42.6212 75.0313 42.6486C74.6438 43.4587 74.0372 43.8045 73.291 43.6375C72.5826 43.4796 72.1638 42.8834 72.1638 42.0263C72.1625 40.3499 72.0881 38.6696 72.1899 36.9997C72.2577 35.8908 71.9029 35.1276 71.1045 34.3827C70.5331 33.8491 69.9916 33.8595 69.3224 33.9352C69.3224 34.1726 69.3224 34.3827 69.3224 34.5927C69.3224 45.1208 69.3106 55.6476 69.3367 66.1757C69.3394 67.4947 68.8997 68.4431 67.6851 68.9754C67.676 69.0236 67.6642 69.055 67.6642 69.0876C67.6616 70.2265 67.6642 71.3654 67.659 72.5043C67.6525 73.9485 66.6088 74.9922 65.1633 74.9961C63.663 75.0013 62.1641 75 60.6638 74.9961C59.4492 74.9922 58.4929 74.2459 58.2255 73.0783C58.1681 72.8292 58.1759 72.5617 58.1746 72.3034C58.1694 71.2506 58.172 70.1991 58.172 69.1463C52.7266 69.1463 47.3425 69.1463 41.9258 69.1463C41.9258 70.2891 41.9298 71.3928 41.9245 72.4978C41.9193 73.9459 40.8783 74.9909 39.4354 74.9961C37.9351 75.0013 36.4361 75.0013 34.9358 74.9961C33.489 74.9922 32.444 73.9485 32.4388 72.5056C32.4349 71.3354 32.4375 70.1639 32.4375 68.9832C31.1968 68.4444 30.7559 67.496 30.7598 66.177C30.7859 55.6333 30.7741 45.0895 30.7741 34.5457C30.7741 34.3396 30.7741 34.1348 30.7741 33.9417C30.0057 33.7904 29.3743 33.853 28.9086 34.5079C28.7325 34.7571 28.4924 34.9671 28.255 35.1641C27.9901 35.3833 27.9236 35.639 27.9262 35.973C27.9406 38.0395 27.9393 40.1059 27.9314 42.1724C27.9275 43.1678 27.0704 43.8553 26.1259 43.6362C25.5492 43.5018 25.2322 43.0843 25 42.5795C25 39.8776 25 37.1758 25 34.474C25.2218 34.1791 25.4162 33.8608 25.668 33.596C26.3189 32.915 27.0065 32.2666 27.6601 31.5869C28.0802 31.1499 28.5576 30.9216 29.176 30.9555C29.7044 30.9842 30.234 30.962 30.7546 30.962C31.0246 28.6477 32.0774 26.8943 34.0774 25.801C34.748 25.4331 35.5242 25.2609 36.2522 25C45.4496 25 54.647 25 63.8444 25C63.9161 25.0313 63.9866 25.0783 64.0623 25.0926C65.4738 25.3405 66.6571 26.0006 67.6316 27.0417C68.6544 28.1363 69.1776 29.4552 69.3394 30.9594C69.5585 30.9594 69.7516 30.9581 69.9447 30.9594C71.9472 30.9738 71.6133 30.7598 73.1253 32.277C73.171 32.3227 73.2192 32.3671 73.2623 32.4153C73.8741 33.1016 74.4847 33.7865 75.0965 34.4727ZM50.0978 27.9275C45.8905 27.9275 41.6845 27.9262 37.4772 27.9275C35.1289 27.9288 33.7069 29.3521 33.7069 31.7004C33.7056 37.0701 33.7069 42.4412 33.7069 47.8109C33.7069 48.9498 33.7147 50.0887 33.7017 51.2289C33.6991 51.5081 33.7734 51.6386 34.0696 51.6725C34.7493 51.7495 35.4211 51.906 36.1021 51.9438C39.2423 52.12 42.3825 52.3744 45.5239 52.3979C50.364 52.4344 55.2066 52.3509 60.0467 52.223C62.0114 52.1709 63.9683 51.8591 65.9304 51.6868C66.3179 51.6529 66.3988 51.4925 66.3988 51.1337C66.3884 44.6081 66.3936 38.0825 66.3844 31.5569C66.3844 31.172 66.3336 30.7741 66.2292 30.4049C65.7935 28.872 64.4784 27.9353 62.7681 27.9327C58.5438 27.9236 54.3208 27.9275 50.0978 27.9275ZM33.7278 60.4368C33.8204 60.4707 33.9078 60.5177 34.0004 60.5333C35.939 60.8686 37.8777 61.2065 39.8189 61.5274C40.5534 61.6488 41.0218 62.0323 41.2409 62.7511C41.5423 63.7452 41.8854 64.7263 42.1829 65.7204C42.2716 66.0152 42.3851 66.1379 42.7125 66.1366C47.6035 66.1261 52.4957 66.1274 57.3866 66.1353C57.6763 66.1353 57.8145 66.0583 57.9019 65.7648C58.2059 64.738 58.549 63.7231 58.87 62.7016C59.0748 62.048 59.5092 61.6592 60.1824 61.5431C61.3839 61.3356 62.5881 61.14 63.7909 60.9325C64.6519 60.7838 65.5117 60.6246 66.3662 60.4707C66.3662 58.4864 66.3662 56.5556 66.3662 54.6939C55.478 55.6606 44.6146 55.6685 33.7291 54.6874C33.7278 56.5582 33.7278 58.4903 33.7278 60.4368ZM33.7395 63.4778C33.7395 64.3662 33.7395 65.2325 33.7395 66.1026C35.5672 66.1026 37.3624 66.1026 39.2045 66.1026C39.0309 65.5573 38.8848 65.0472 38.6983 64.5502C38.6539 64.4302 38.4856 64.301 38.3552 64.2775C36.8249 63.9996 35.2907 63.7426 33.7395 63.4778ZM66.3636 63.4843C64.8072 63.7491 63.2991 63.9996 61.7949 64.2697C61.6474 64.2958 61.4505 64.4197 61.4009 64.5476C61.2078 65.0433 61.0656 65.5573 60.8921 66.104C62.7381 66.104 64.5371 66.104 66.3636 66.104C66.3636 65.2286 66.3636 64.3727 66.3636 63.4843ZM35.3898 72.0412C36.6005 72.0412 37.7785 72.0412 38.967 72.0412C38.967 71.0601 38.967 70.1091 38.967 69.1411C37.7629 69.1411 36.5861 69.1411 35.3898 69.1411C35.3898 70.113 35.3898 71.0523 35.3898 72.0412ZM61.1387 69.1345C61.1387 70.0973 61.1387 71.0601 61.1387 72.0425C62.3298 72.0425 63.5091 72.0425 64.7015 72.0425C64.7015 71.0627 64.7015 70.1117 64.7015 69.1345C63.5091 69.1345 62.3428 69.1345 61.1387 69.1345Z" fill="white"/>
<path d="M50.0456 58.8019C51.495 58.8019 52.9444 58.794 54.3939 58.8058C55.1023 58.811 55.6228 59.1971 55.842 59.8312C56.0442 60.4182 55.8798 61.0836 55.3449 61.4293C55.0488 61.6211 54.6548 61.7528 54.3025 61.7568C51.4689 61.7829 48.6354 61.7776 45.8018 61.7672C44.9734 61.7646 44.4476 61.3784 44.2363 60.6961C44.051 60.0973 44.2702 59.4085 44.8338 59.0849C45.1286 58.9167 45.503 58.8214 45.8448 58.8136C47.2434 58.7849 48.6445 58.8019 50.0456 58.8019Z" fill="white"/>
</g>
<defs>
<clipPath id="clip0_238_36801">
<rect width="50.0965" height="50" fill="white" transform="translate(25 25)"/>
</clipPath>
</defs>
</svg>
