<svg width="100" height="100" viewBox="0 0 100 100" fill="none" xmlns="http://www.w3.org/2000/svg">
<circle cx="50" cy="50" r="49.25" fill="#42B3F5" stroke="#42B3F5" stroke-width="1.5"/>
<g clip-path="url(#clip0_238_38631)">
<path d="M73.0487 75C71.7607 74.0166 70.463 73.0431 69.1861 72.045C67.9557 71.0837 66.7387 70.1052 65.5327 69.1133C65.2135 68.8503 64.8943 68.739 64.4784 68.7402C57.5961 68.7512 50.7138 68.7512 43.8314 68.7463C40.8177 68.7439 38.33 66.8395 37.6915 63.9029C37.464 62.8571 37.5032 61.738 37.5398 60.6556C37.5655 59.8826 38.3703 59.3359 39.1788 59.3787C39.942 59.4203 40.5866 60.0599 40.6208 60.8317C40.6392 61.2537 40.6257 61.6781 40.6269 62.1C40.6294 64.3334 41.91 65.6238 44.1299 65.6238C47.9863 65.625 51.8427 65.6238 55.6979 65.6238C58.8706 65.6238 62.0433 65.636 65.216 65.614C65.8911 65.6091 66.4403 65.806 66.9577 66.228C68.4572 67.4511 69.9762 68.6522 71.488 69.8606C71.5871 69.9401 71.6935 70.011 71.8476 70.1223C71.861 69.9425 71.8794 69.808 71.8794 69.6722C71.8806 61.1301 71.8818 52.5881 71.8794 44.046C71.8794 42.0377 70.7138 40.7828 68.7177 40.6213C67.7686 40.5443 67.1472 39.8618 67.1962 38.9494C67.2402 38.1128 67.9361 37.5 68.8424 37.5C71.7876 37.5 74.41 39.7273 74.9065 42.6443C74.9249 42.7544 74.9714 42.8596 75.0044 42.966C75.0044 53.2522 75.0044 63.5384 75.0044 73.8258C74.7744 74.3762 74.3794 74.764 73.8327 74.9976C73.5697 75 73.3092 75 73.0487 75Z" fill="white"/>
<path d="M25.0037 46.6648C25.0037 41.5547 25 36.4446 25.0049 31.3346C25.0073 28.3184 26.919 25.8771 29.8422 25.1702C30.2948 25.0601 30.773 25.01 31.2402 25.01C40.6299 25.0002 50.0196 24.9953 59.4093 25.0063C62.8474 25.01 65.614 27.7754 65.6213 31.2086C65.6336 37.4904 65.6348 43.7722 65.6213 50.054C65.614 53.4835 62.8413 56.2404 59.3995 56.2453C51.9459 56.2563 44.4924 56.2514 37.0389 56.2428C36.6756 56.2428 36.4004 56.3358 36.1191 56.5731C33.366 58.8859 30.6005 61.1829 27.84 63.486C27.2407 63.9862 26.601 64.2847 25.8354 63.8737C25.2299 63.5484 24.9988 63.0139 25 62.3363C25.0073 58.6254 25.0037 54.9158 25.0037 51.2049C25.0037 49.6907 25.0037 48.1778 25.0037 46.6648ZM28.125 59.122C28.2999 58.9936 28.4039 58.9251 28.4993 58.8456C30.5113 57.1687 32.5306 55.4992 34.5303 53.8077C35.0783 53.3441 35.6556 53.1142 36.3894 53.1154C43.9567 53.1337 51.524 53.1288 59.0925 53.1252C61.1485 53.1239 62.4988 51.8214 62.5012 49.8032C62.511 43.6841 62.511 37.565 62.5012 31.4459C62.4976 29.4681 61.1644 28.1288 59.1891 28.1264C49.945 28.1178 40.7021 28.1178 31.4579 28.1374C30.9381 28.1386 30.3743 28.2536 29.9058 28.4737C28.6167 29.0792 28.125 30.1983 28.125 31.5767C28.1262 40.5921 28.1262 49.6088 28.1262 58.6242C28.125 58.7551 28.125 58.8847 28.125 59.122Z" fill="white"/>
<path d="M45.3624 34.3762C48.4703 34.3762 51.5782 34.3726 54.686 34.3787C55.4859 34.3799 56.1488 34.967 56.2406 35.7167C56.3372 36.5056 55.8798 37.2162 55.1166 37.434C54.9331 37.4865 54.7325 37.4939 54.5393 37.4939C48.3883 37.4963 42.2374 37.4976 36.0865 37.4951C35.0627 37.4951 34.368 36.8469 34.379 35.91C34.3888 35.0024 35.0823 34.375 36.0877 34.375C39.1784 34.375 42.2704 34.3762 45.3624 34.3762Z" fill="white"/>
<path d="M42.2386 40.6253C44.2567 40.6253 46.2736 40.6241 48.2917 40.6265C49.3154 40.6278 50.0089 41.276 49.9991 42.2117C49.9893 43.118 49.2946 43.7454 48.2905 43.7466C44.2225 43.7479 40.1544 43.7479 36.0864 43.7466C35.0627 43.7466 34.3692 43.0972 34.379 42.1615C34.3888 41.2552 35.0835 40.6278 36.0877 40.6265C38.1376 40.6241 40.1875 40.6253 42.2386 40.6253Z" fill="white"/>
</g>
<defs>
<clipPath id="clip0_238_38631">
<rect width="50.0024" height="50" fill="white" transform="translate(25 25)"/>
</clipPath>
</defs>
</svg>
