<svg width="100" height="100" viewBox="0 0 100 100" fill="none" xmlns="http://www.w3.org/2000/svg">
<circle cx="50" cy="50" r="49.25" fill="white" stroke="white" stroke-width="1.5"/>
<path d="M32.0071 49.8789C32.0071 42.1426 32.0178 34.4099 32 26.6737C31.9965 24.6773 32.6014 22.9621 34.1067 21.6099C35.281 20.553 36.6653 20.005 38.2488 20.005C45.7573 20.0014 53.2658 19.9943 60.7743 20.0085C64.2154 20.0121 66.9947 22.7948 66.9947 26.2395C67.0018 42.043 67.0018 57.8464 66.9947 73.6463C66.9947 77.091 64.2119 79.8738 60.7743 79.8809C53.2658 79.8916 45.7573 79.8916 38.2488 79.8809C34.95 79.8773 32.2598 77.3223 32.0427 74.02C32.0178 73.6463 32.0071 73.2727 32.0071 72.899C32.0071 65.2233 32.0071 57.5511 32.0071 49.8789ZM64.4717 69.8778C64.4717 56.5547 64.4717 43.2813 64.4717 30.0222C54.4686 30.0222 44.5189 30.0222 34.5728 30.0222C34.5728 31.6841 34.5728 33.2961 34.5728 34.9722C34.9927 34.9722 35.3842 34.965 35.7721 34.9757C36.5336 34.9971 37.046 35.4988 37.0496 36.2141C37.0496 36.9294 36.5371 37.4382 35.7792 37.4596C35.3735 37.4703 34.9678 37.4631 34.5728 37.4631C34.5728 37.9293 34.5728 38.2958 34.5728 38.7157C34.8326 38.7157 35.0568 38.7157 35.281 38.7157C36.6937 38.7157 38.11 38.7051 39.5228 38.7193C40.3483 38.7264 40.8928 39.367 40.7825 40.1498C40.6935 40.7833 40.1846 41.1996 39.4516 41.2032C37.836 41.2103 36.2204 41.2067 34.5764 41.2067C34.5764 50.797 34.5764 60.3267 34.5764 69.8814C44.551 69.8778 54.4864 69.8778 64.4717 69.8778ZM34.5123 72.4222C34.5444 73.1161 34.4945 73.7531 34.6155 74.3545C34.9892 76.2049 36.5158 77.3828 38.4908 77.3864C43.6044 77.3935 48.7216 77.3899 53.8352 77.3899C56.102 77.3899 58.3688 77.4006 60.6356 77.3864C63.1016 77.3721 64.9912 75.2584 64.4076 72.4222C54.4757 72.4222 44.5403 72.4222 34.5123 72.4222ZM64.5072 27.453C64.5072 27.058 64.5144 26.6914 64.5072 26.3214C64.4574 24.14 62.8383 22.4995 60.6498 22.4959C53.2267 22.4817 45.8036 22.4853 38.3805 22.4959C36.6403 22.4995 35.1422 23.5599 34.7187 25.1542C34.5266 25.8765 34.555 26.6559 34.4803 27.453C44.5474 27.453 54.4971 27.453 64.5072 27.453Z" fill="#0063AA"/>
<path d="M55.1023 46.2379C55.5649 45.7504 56.0098 45.2593 56.4759 44.7931C57.8709 43.4017 59.7925 43.327 61.0807 44.601C62.3867 45.8927 62.3155 47.8286 60.9028 49.252C60.2017 49.9601 59.4758 50.6469 58.7997 51.38C58.636 51.5543 58.5256 51.8995 58.5719 52.1308C59.9882 59.1233 54.3586 65.4682 47.2344 64.8917C42.3521 64.4967 38.3096 60.6179 37.6619 55.7178C36.7723 48.9495 42.3485 43.1135 49.1347 43.7327C51.1417 43.9142 52.9601 44.633 54.5757 45.8464C54.7251 45.9532 54.8746 46.0671 55.1023 46.2379ZM53.1416 47.9638C50.5332 45.6187 46.0886 45.6116 43.1243 47.9816C40.0426 50.4441 39.1672 54.8211 41.0746 58.2017C43.0602 61.7246 47.1526 63.2726 50.9175 61.9204C54.8248 60.5183 56.5364 56.5897 56.1948 53.9955C56.0276 54.1521 55.8745 54.2802 55.7358 54.4225C54.1486 56.0096 52.5651 57.6003 50.9709 59.1803C50.3232 59.8244 49.6649 59.8635 49.0564 59.2657C47.6757 57.9134 46.295 56.5612 44.9641 55.1591C43.8004 53.935 43.8929 52.0134 45.0957 50.8284C46.2772 49.6648 48.1454 49.6221 49.3873 50.7288C49.583 50.9031 49.7681 51.0846 49.8962 51.2056C51.0065 50.0953 52.074 49.0278 53.1416 47.9638ZM49.9496 56.5932C50.0385 56.5292 50.1097 56.49 50.1666 56.4331C53.1807 53.4226 56.1948 50.4085 59.2089 47.398C59.5042 47.1026 59.6573 46.7681 59.3192 46.4194C58.9527 46.0422 58.6075 46.213 58.2943 46.5226C58.1769 46.64 58.0595 46.7574 57.942 46.8749C55.6504 49.1666 53.3587 51.4618 51.0634 53.75C50.2698 54.54 49.672 54.5328 48.8678 53.7464C48.4977 53.3834 48.1383 53.0062 47.7611 52.6504C47.4835 52.387 47.1704 52.3408 46.875 52.6255C46.5832 52.9066 46.5868 53.234 46.8572 53.508C47.8714 54.5435 48.9105 55.5613 49.9496 56.5932Z" fill="#0063AA"/>
<path d="M62.0055 33.7432C62.0055 34.1773 62.0233 34.615 62.0019 35.0491C61.9628 35.743 61.4148 36.2306 60.7244 36.2163C60.0661 36.1986 59.543 35.711 59.5252 35.0385C59.5003 34.1702 59.5038 33.2983 59.5252 32.4301C59.543 31.7255 60.0803 31.2308 60.7707 31.2344C61.4575 31.238 61.977 31.7361 62.0055 32.4407C62.0197 32.8749 62.0055 33.309 62.0055 33.7432Z" fill="#0063AA"/>
<path d="M58.2625 34.3846C58.2625 34.6123 58.2767 34.8401 58.2589 35.0678C58.2091 35.7297 57.686 36.2101 57.0241 36.2137C56.3622 36.2172 55.8213 35.7404 55.7822 35.0821C55.7537 34.6088 55.7573 34.1284 55.7786 33.6551C55.8106 32.9576 56.3515 32.4665 57.0419 32.4808C57.7002 32.4914 58.2127 32.9754 58.2589 33.6444C58.2767 33.8864 58.2625 34.1355 58.2625 34.3846Z" fill="#0063AA"/>
<path d="M53.2489 33.7267C53.957 33.716 54.5157 34.2534 54.5193 34.9615C54.5228 35.6697 53.9784 36.2177 53.2702 36.2177C52.587 36.2141 52.0497 35.6946 52.0319 35.0149C52.0105 34.2996 52.5443 33.7374 53.2489 33.7267Z" fill="#0063AA"/>
<path d="M40.7924 36.2324C40.7853 36.937 40.2266 37.4743 39.5149 37.4601C38.8103 37.4458 38.2801 36.88 38.3014 36.1683C38.3228 35.4886 38.8601 34.9727 39.5469 34.9727C40.255 34.9727 40.7995 35.5242 40.7924 36.2324Z" fill="#0063AA"/>
<path d="M49.501 76.136C48.7146 76.136 47.9246 76.1432 47.1382 76.136C46.3268 76.1289 45.8002 75.6414 45.793 74.9084C45.7859 74.1682 46.3055 73.6557 47.1061 73.6486C48.7253 73.638 50.3409 73.638 51.96 73.6486C52.7607 73.6522 53.2838 74.1646 53.2766 74.9048C53.2695 75.6379 52.7429 76.1254 51.9315 76.136C51.1202 76.1432 50.3088 76.136 49.501 76.136Z" fill="#0063AA"/>
<path d="M48.251 26.2341C47.4646 26.2341 46.6746 26.2412 45.8882 26.2341C45.0768 26.2269 44.5502 25.7394 44.543 25.0064C44.5359 24.2662 45.0555 23.7538 45.8561 23.7502C47.4753 23.7395 49.0909 23.7395 50.71 23.7502C51.5107 23.7538 52.0302 24.2697 52.0231 25.0064C52.016 25.7394 51.4893 26.2269 50.678 26.2341C49.8666 26.2412 49.0588 26.2341 48.251 26.2341Z" fill="#0063AA"/>
<path d="M54.53 26.2333C53.8218 26.2369 53.2738 25.6924 53.2774 24.9807C53.2809 24.2726 53.8325 23.7317 54.5442 23.7423C55.2239 23.753 55.7541 24.2797 55.7648 24.9629C55.779 25.6746 55.2381 26.2298 54.53 26.2333Z" fill="#0063AA"/>
</svg>
