<svg width="34" height="24" viewBox="0 0 16 15" fill="none" xmlns="http://www.w3.org/2000/svg">
<path d="M1.29196 0.293787C1.38485 0.20066 1.4952 0.126775 1.61669 0.0763616C1.73818 0.0259488 1.86842 0 1.99996 0C2.13149 0 2.26173 0.0259488 2.38322 0.0763616C2.50471 0.126775 2.61506 0.20066 2.70796 0.293787L7.99996 5.58779L13.292 0.293787C13.3849 0.200811 13.4953 0.127058 13.6168 0.0767403C13.7383 0.0264221 13.8685 0.000523567 14 0.000523567C14.1314 0.000523567 14.2616 0.0264221 14.3831 0.0767403C14.5046 0.127058 14.615 0.200811 14.708 0.293787C14.8009 0.386763 14.8747 0.497141 14.925 0.61862C14.9753 0.740099 15.0012 0.870299 15.0012 1.00179C15.0012 1.13327 14.9753 1.26348 14.925 1.38495C14.8747 1.50643 14.8009 1.61681 14.708 1.70979L9.41395 7.00179L14.708 12.2938C14.8009 12.3868 14.8747 12.4971 14.925 12.6186C14.9753 12.7401 15.0012 12.8703 15.0012 13.0018C15.0012 13.1333 14.9753 13.2635 14.925 13.385C14.8747 13.5064 14.8009 13.6168 14.708 13.7098C14.615 13.8028 14.5046 13.8765 14.3831 13.9268C14.2616 13.9772 14.1314 14.003 14 14.003C13.8685 14.003 13.7383 13.9772 13.6168 13.9268C13.4953 13.8765 13.3849 13.8028 13.292 13.7098L7.99996 8.41579L2.70796 13.7098C2.61498 13.8028 2.5046 13.8765 2.38312 13.9268C2.26164 13.9772 2.13144 14.003 1.99996 14.003C1.86847 14.003 1.73827 13.9772 1.61679 13.9268C1.49531 13.8765 1.38493 13.8028 1.29196 13.7098C1.19898 13.6168 1.12523 13.5064 1.07491 13.385C1.02459 13.2635 0.998693 13.1333 0.998693 13.0018C0.998693 12.8703 1.02459 12.7401 1.07491 12.6186C1.12523 12.4971 1.19898 12.3868 1.29196 12.2938L6.58596 7.00179L1.29196 1.70979C1.19883 1.6169 1.12494 1.50654 1.07453 1.38505C1.02412 1.26356 0.998169 1.13332 0.998169 1.00179C0.998169 0.870252 1.02412 0.74001 1.07453 0.61852C1.12494 0.497029 1.19883 0.386678 1.29196 0.293787Z" fill="white"/>
</svg>
