<svg width="134" height="49" viewBox="0 0 134 49" fill="none" xmlns="http://www.w3.org/2000/svg">
<rect y="0.4375" width="133.096" height="48.4378" rx="7.31137" fill="#0063AA"/>
<path d="M30.509 25.3912C30.5353 23.3447 31.63 21.4082 33.3668 20.3363C32.2711 18.7655 30.436 17.7695 28.5267 17.7095C26.4903 17.495 24.5161 18.9328 23.4784 18.9328C22.4206 18.9328 20.8229 17.7308 19.1024 17.7664C16.8599 17.8391 14.7692 19.1191 13.6782 21.0873C11.3328 25.1638 13.0822 31.1548 15.3289 34.4499C16.4529 36.0634 17.7666 37.8657 19.4855 37.8018C21.1676 37.7318 21.7958 36.725 23.8262 36.725C25.8378 36.725 26.4272 37.8018 28.181 37.7612C29.9859 37.7318 31.1231 36.1405 32.2078 34.5117C33.0154 33.362 33.6368 32.0914 34.0491 30.7468C31.928 29.8462 30.5115 27.7032 30.509 25.3912Z" fill="white"/>
<path d="M27.1963 15.5425C28.1805 14.3565 28.6653 12.8321 28.5479 11.293C27.0444 11.4515 25.6555 12.1729 24.6581 13.3134C23.6828 14.4278 23.1752 15.9254 23.2711 17.4056C24.7752 17.4212 26.2538 16.7194 27.1963 15.5425Z" fill="white"/>
<path d="M90.5024 23.2789V25.7588H88.954V27.3851H90.5024V32.911C90.5024 34.7979 91.3526 35.5526 93.4917 35.5526C93.8676 35.5526 94.2256 35.5077 94.5389 35.4538V33.8454C94.2704 33.8724 94.1003 33.8904 93.805 33.8904C92.8473 33.8904 92.4267 33.4411 92.4267 32.4168V27.3851H94.5389V25.7588H92.4267V23.2789H90.5024Z" fill="white"/>
<path d="M99.9881 35.6874C102.834 35.6874 104.58 33.7736 104.58 30.6018C104.58 27.448 102.825 25.5252 99.9881 25.5252C97.142 25.5252 95.3877 27.448 95.3877 30.6018C95.3877 33.7736 97.133 35.6874 99.9881 35.6874ZM99.9881 33.9712C98.3144 33.9712 97.3747 32.7403 97.3747 30.6018C97.3747 28.4813 98.3144 27.2414 99.9881 27.2414C101.653 27.2414 102.602 28.4813 102.602 30.6018C102.602 32.7313 101.653 33.9712 99.9881 33.9712Z" fill="white"/>
<path d="M106.073 35.4987H107.997V29.7213C107.997 28.3466 109.026 27.4211 110.485 27.4211C110.825 27.4211 111.398 27.484 111.559 27.5379V25.633C111.353 25.5791 110.986 25.5522 110.7 25.5522C109.429 25.5522 108.346 26.253 108.069 27.2144H107.926V25.7139H106.073V35.4987Z" fill="white"/>
<path d="M116.337 27.1695C117.76 27.1695 118.691 28.1669 118.736 29.7033H113.813C113.921 28.1758 114.914 27.1695 116.337 27.1695ZM118.727 32.8571C118.369 33.6208 117.572 34.0431 116.409 34.0431C114.869 34.0431 113.876 32.9559 113.813 31.2398V31.1319H120.696V30.4581C120.696 27.3851 119.058 25.5252 116.346 25.5252C113.598 25.5252 111.853 27.5109 111.853 30.6378C111.853 33.7646 113.563 35.6874 116.355 35.6874C118.584 35.6874 120.141 34.6092 120.58 32.8571H118.727Z" fill="white"/>
<path d="M77.8832 31.8853C78.0316 34.288 80.0261 35.8247 82.9946 35.8247C86.1672 35.8247 88.1524 34.2135 88.1524 31.6432C88.1524 29.6223 87.0206 28.5048 84.2747 27.8622L82.7998 27.499C81.0558 27.0892 80.3507 26.5398 80.3507 25.5806C80.3507 24.3699 81.4454 23.5783 83.0873 23.5783C84.6458 23.5783 85.7219 24.3513 85.9167 25.5899H87.939C87.8184 23.3269 85.8332 21.7344 83.1152 21.7344C80.193 21.7344 78.245 23.3269 78.245 25.7203C78.245 27.6946 79.3489 28.868 81.7701 29.4361L83.4955 29.8551C85.2673 30.2742 86.0466 30.8889 86.0466 31.9133C86.0466 33.1053 84.8221 33.9714 83.1523 33.9714C81.3619 33.9714 80.1188 33.1612 79.9426 31.8853H77.8832Z" fill="white"/>
<path d="M57.9495 25.5522C56.6249 25.5522 55.4792 26.2171 54.8885 27.3312H54.7453V25.7139H52.8926V38.7513H54.8169V34.0162H54.9691C55.4792 35.0494 56.5801 35.6604 57.9674 35.6604C60.4287 35.6604 61.995 33.7107 61.995 30.6018C61.995 27.493 60.4287 25.5522 57.9495 25.5522ZM57.4035 33.9263C55.7925 33.9263 54.7811 32.6504 54.7811 30.6108C54.7811 28.5622 55.7925 27.2863 57.4125 27.2863C59.0414 27.2863 60.017 28.5352 60.017 30.6018C60.017 32.6774 59.0414 33.9263 57.4035 33.9263Z" fill="white"/>
<path d="M68.7284 25.5522C67.4038 25.5522 66.2581 26.2171 65.6674 27.3312H65.5242V25.7139H63.6715V38.7513H65.5958V34.0162H65.748C66.2581 35.0494 67.359 35.6604 68.7463 35.6604C71.2076 35.6604 72.7739 33.7107 72.7739 30.6018C72.7739 27.493 71.2076 25.5522 68.7284 25.5522ZM68.1824 33.9263C66.5714 33.9263 65.56 32.6504 65.56 30.6108C65.56 28.5622 66.5714 27.2863 68.1914 27.2863C69.8203 27.2863 70.7959 28.5352 70.7959 30.6018C70.7959 32.6774 69.8203 33.9263 68.1824 33.9263Z" fill="white"/>
<path d="M49.4401 35.4987H51.648L46.8149 22.0603H44.5792L39.7461 35.4987H41.8797L43.1135 31.9319H48.2156L49.4401 35.4987ZM45.5904 24.5003H45.7481L47.6869 30.1811H43.6423L45.5904 24.5003Z" fill="white"/>
<path d="M39.6934 12.5817V17.8935H41.6038C43.1805 17.8935 44.0935 16.918 44.0935 15.221C44.0935 13.5498 43.1732 12.5817 41.6038 12.5817H39.6934ZM40.5147 13.3326H41.5121C42.6085 13.3326 43.2575 14.032 43.2575 15.2321C43.2575 16.4505 42.6195 17.1426 41.5121 17.1426H40.5147V13.3326Z" fill="white"/>
<path d="M46.8898 17.9708C48.0559 17.9708 48.7709 17.1867 48.7709 15.8873C48.7709 14.5952 48.0522 13.8075 46.8898 13.8075C45.7238 13.8075 45.0051 14.5952 45.0051 15.8873C45.0051 17.1867 45.7201 17.9708 46.8898 17.9708ZM46.8898 17.2677C46.2041 17.2677 45.8191 16.7634 45.8191 15.8873C45.8191 15.0186 46.2041 14.5106 46.8898 14.5106C47.5719 14.5106 47.9605 15.0186 47.9605 15.8873C47.9605 16.7597 47.5719 17.2677 46.8898 17.2677Z" fill="white"/>
<path d="M54.86 13.8848H54.0716L53.3603 16.9438H53.2979L52.4766 13.8848H51.7212L50.8998 16.9438H50.8412L50.1261 13.8848H49.3268L50.4268 17.8935H51.2372L52.0586 14.9413H52.1209L52.9459 17.8935H53.7636L54.86 13.8848Z" fill="white"/>
<path d="M55.7679 17.8935H56.5562V15.5487C56.5562 14.9229 56.9266 14.5327 57.5096 14.5327C58.0926 14.5327 58.3713 14.8529 58.3713 15.4971V17.8935H59.1597V15.2983C59.1597 14.3449 58.6683 13.8075 57.7773 13.8075C57.1759 13.8075 56.7799 14.0762 56.5856 14.5216H56.5269V13.8848H55.7679V17.8935Z" fill="white"/>
<path d="M60.4013 17.8935H61.1896V12.3203H60.4013V17.8935Z" fill="white"/>
<path d="M64.1546 17.9708C65.3206 17.9708 66.0357 17.1867 66.0357 15.8873C66.0357 14.5952 65.317 13.8075 64.1546 13.8075C62.9886 13.8075 62.2699 14.5952 62.2699 15.8873C62.2699 17.1867 62.9849 17.9708 64.1546 17.9708ZM64.1546 17.2677C63.4689 17.2677 63.0839 16.7634 63.0839 15.8873C63.0839 15.0186 63.4689 14.5106 64.1546 14.5106C64.8366 14.5106 65.2253 15.0186 65.2253 15.8873C65.2253 16.7597 64.8366 17.2677 64.1546 17.2677Z" fill="white"/>
<path d="M68.3846 17.2935C67.9556 17.2935 67.6439 17.0837 67.6439 16.7229C67.6439 16.3695 67.8933 16.1818 68.4433 16.145L69.4187 16.0824V16.4174C69.4187 16.9143 68.9786 17.2935 68.3846 17.2935ZM68.1829 17.9598C68.7073 17.9598 69.1436 17.7316 69.382 17.3303H69.4443V17.8935H70.2034V15.1548C70.2034 14.3081 69.6387 13.8075 68.6376 13.8075C67.7319 13.8075 67.0866 14.2492 67.0059 14.9376H67.7686C67.8566 14.6541 68.1609 14.4922 68.601 14.4922C69.14 14.4922 69.4187 14.7314 69.4187 15.1548V15.5008L68.337 15.5634C67.3872 15.6223 66.8519 16.0382 66.8519 16.7597C66.8519 17.4923 67.4129 17.9598 68.1829 17.9598Z" fill="white"/>
<path d="M72.8787 17.9598C73.4287 17.9598 73.8944 17.6984 74.1327 17.2604H74.195V17.8935H74.9504V12.3203H74.162V14.5216H74.1034C73.887 14.0799 73.425 13.8185 72.8787 13.8185C71.8703 13.8185 71.2213 14.621 71.2213 15.8873C71.2213 17.1573 71.8629 17.9598 72.8787 17.9598ZM73.1023 14.529C73.7624 14.529 74.1767 15.0554 74.1767 15.891C74.1767 16.7303 73.766 17.2493 73.1023 17.2493C72.435 17.2493 72.0353 16.7376 72.0353 15.8873C72.0353 15.0443 72.4386 14.529 73.1023 14.529Z" fill="white"/>
<path d="M80.0627 17.9708C81.2287 17.9708 81.9437 17.1867 81.9437 15.8873C81.9437 14.5952 81.225 13.8075 80.0627 13.8075C78.8966 13.8075 78.1779 14.5952 78.1779 15.8873C78.1779 17.1867 78.8929 17.9708 80.0627 17.9708ZM80.0627 17.2677C79.377 17.2677 78.9919 16.7634 78.9919 15.8873C78.9919 15.0186 79.377 14.5106 80.0627 14.5106C80.7447 14.5106 81.1334 15.0186 81.1334 15.8873C81.1334 16.7597 80.7447 17.2677 80.0627 17.2677Z" fill="white"/>
<path d="M82.9873 17.8935H83.7757V15.5487C83.7757 14.9229 84.146 14.5327 84.729 14.5327C85.312 14.5327 85.5907 14.8529 85.5907 15.4971V17.8935H86.3791V15.2983C86.3791 14.3449 85.8877 13.8075 84.9967 13.8075C84.3953 13.8075 83.9993 14.0762 83.805 14.5216H83.7463V13.8848H82.9873V17.8935Z" fill="white"/>
<path d="M90.01 12.8872V13.9032H89.3756V14.5695H90.01V16.8334C90.01 17.6064 90.3583 17.9156 91.2347 17.9156C91.3887 17.9156 91.5353 17.8972 91.6637 17.8751V17.2162C91.5537 17.2272 91.484 17.2346 91.363 17.2346C90.9707 17.2346 90.7983 17.0505 90.7983 16.6309V14.5695H91.6637V13.9032H90.7983V12.8872H90.01Z" fill="white"/>
<path d="M92.7219 17.8935H93.5103V15.5523C93.5103 14.9449 93.8696 14.5363 94.515 14.5363C95.0723 14.5363 95.3694 14.8603 95.3694 15.5008V17.8935H96.1577V15.3057C96.1577 14.3523 95.6334 13.8112 94.7827 13.8112C94.1813 13.8112 93.7596 14.0799 93.5653 14.529H93.503V12.3203H92.7219V17.8935Z" fill="white"/>
<path d="M99.0017 14.4811C99.5847 14.4811 99.9661 14.8897 99.9844 15.5192H97.9676C98.0117 14.8934 98.4187 14.4811 99.0017 14.4811ZM99.9807 16.8113C99.834 17.1242 99.5077 17.2972 99.031 17.2972C98.4003 17.2972 97.9933 16.8518 97.9676 16.1487V16.1045H100.787V15.8284C100.787 14.5695 100.116 13.8075 99.0054 13.8075C97.8796 13.8075 97.1646 14.621 97.1646 15.902C97.1646 17.1831 97.865 17.9708 99.009 17.9708C99.9221 17.9708 100.56 17.5291 100.74 16.8113H99.9807Z" fill="white"/>
</svg>
