<svg width="133" height="48" viewBox="0 0 133 48" fill="none" xmlns="http://www.w3.org/2000/svg">
<rect width="133" height="48" rx="7.31137" fill="#0063AA"/>
<g filter="url(#filter0_ii_238_38788)">
<path d="M14.9702 12.266C14.6894 12.5644 14.5234 13.0275 14.5234 13.6271V35.0521C14.5234 35.6528 14.6894 36.1149 14.9702 36.4132L15.0416 36.483L26.9969 24.4811V24.3396V24.1982L15.0416 12.1953L14.9702 12.266Z" fill="url(#paint0_linear_238_38788)"/>
<path d="M30.9805 28.4811L26.9961 24.4792V24.3377V24.1963L30.9815 20.1953L31.0712 20.2467L35.7929 22.9398C37.141 23.709 37.141 24.9674 35.7929 25.7376L31.0712 28.4307L30.9805 28.4811Z" fill="url(#paint1_linear_238_38788)"/>
<g filter="url(#filter1_i_238_38788)">
<path d="M31.0706 28.4358L26.9944 24.3437L14.9688 36.4174C15.4126 36.8901 16.147 36.9482 16.974 36.4774L31.0706 28.4358Z" fill="url(#paint2_linear_238_38788)"/>
</g>
<path d="M31.0706 20.2491L16.974 12.2084C16.147 11.7366 15.4126 11.7957 14.9688 12.2685L26.9954 24.3421L31.0706 20.2491Z" fill="url(#paint3_linear_238_38788)"/>
</g>
<path d="M67.1271 25.5116C64.9835 25.5116 63.2363 27.1413 63.2363 29.3858C63.2363 31.6167 64.9835 33.2601 67.1271 33.2601C69.2716 33.2601 71.0188 31.6167 71.0188 29.3858C71.0179 27.1413 69.2707 25.5116 67.1271 25.5116ZM67.1271 31.7352C65.9523 31.7352 64.9397 30.7668 64.9397 29.3868C64.9397 27.9921 65.9532 27.0384 67.1271 27.0384C68.3019 27.0384 69.3144 27.9921 69.3144 29.3868C69.3144 30.7659 68.3019 31.7352 67.1271 31.7352ZM58.6383 25.5116C56.4947 25.5116 54.7475 27.1413 54.7475 29.3858C54.7475 31.6167 56.4947 33.2601 58.6383 33.2601C60.7828 33.2601 62.53 31.6167 62.53 29.3858C62.53 27.1413 60.7828 25.5116 58.6383 25.5116ZM58.6383 31.7352C57.4635 31.7352 56.4509 30.7668 56.4509 29.3868C56.4509 27.9921 57.4644 27.0384 58.6383 27.0384C59.8131 27.0384 60.8257 27.9921 60.8257 29.3868C60.8266 30.7659 59.8131 31.7352 58.6383 31.7352ZM48.5418 26.7013V28.3446H52.4772C52.3597 29.2692 52.0516 29.9443 51.5813 30.4134C51.009 30.9855 50.1131 31.6167 48.5418 31.6167C46.1193 31.6167 44.2254 29.6646 44.2254 27.2433C44.2254 24.822 46.1193 22.8699 48.5418 22.8699C49.8487 22.8699 50.803 23.3837 51.5075 24.0441L52.6677 22.8845C51.6834 21.9453 50.3774 21.2266 48.5418 21.2266C45.2234 21.2266 42.4336 23.9266 42.4336 27.2433C42.4336 30.56 45.2234 33.2601 48.5418 33.2601C50.3327 33.2601 51.6843 32.6725 52.7406 31.5721C53.827 30.4863 54.1651 28.9595 54.1651 27.727C54.1651 27.3463 54.136 26.9937 54.0767 26.7004L48.5418 26.7013ZM89.8355 27.9775C89.5129 27.1121 88.5286 25.5116 86.5171 25.5116C84.5203 25.5116 82.8606 27.0821 82.8606 29.3858C82.8606 31.5575 84.5057 33.2601 86.7076 33.2601C88.4839 33.2601 89.512 32.1742 89.9385 31.543L88.617 30.6621C88.1768 31.3079 87.5744 31.7333 86.7076 31.7333C85.8418 31.7333 85.2248 31.3371 84.8283 30.5591L90.0114 28.4166L89.8355 27.9775ZM84.5494 29.2692C84.5057 27.7717 85.7096 27.0092 86.5764 27.0092C87.2517 27.0092 87.8241 27.3472 88.0155 27.8309L84.5494 29.2692ZM80.336 33.026H82.0385V21.6383H80.336V33.026ZM77.5453 26.3779H77.487C77.1051 25.9225 76.3705 25.5116 75.4464 25.5116C73.5078 25.5116 71.7315 27.2142 71.7315 29.4013C71.7315 31.573 73.5078 33.261 75.4464 33.261C76.3714 33.261 77.1051 32.8502 77.487 32.381H77.5453V32.9385C77.5453 34.4206 76.7524 35.2131 75.4755 35.2131C74.4329 35.2131 73.7867 34.4652 73.5224 33.834L72.0395 34.4507C72.4652 35.4773 73.5953 36.7399 75.4755 36.7399C77.4724 36.7399 79.1612 35.5657 79.1612 32.7035V25.7476H77.5462L77.5453 26.3779ZM75.5931 31.7352C74.4183 31.7352 73.4349 30.7513 73.4349 29.4013C73.4349 28.0358 74.4183 27.0384 75.5931 27.0384C76.7524 27.0384 77.6629 28.0358 77.6629 29.4013C77.6629 30.7513 76.7524 31.7352 75.5931 31.7352ZM97.8139 21.6383H93.7391V33.026H95.4388V28.7118H97.813C99.6978 28.7118 101.552 27.3481 101.552 25.1755C101.552 23.0029 99.6987 21.6383 97.8139 21.6383ZM97.8577 27.1267H95.4388V23.2233H97.8577C99.1291 23.2233 99.8509 24.2755 99.8509 25.1755C99.8509 26.0573 99.1291 27.1267 97.8577 27.1267ZM108.368 25.4916C107.137 25.4916 105.862 26.0336 105.334 27.2351L106.843 27.8646C107.166 27.2351 107.767 27.0292 108.397 27.0292C109.277 27.0292 110.171 27.5567 110.185 28.494V28.6115C109.877 28.4357 109.217 28.1725 108.412 28.1725C106.785 28.1725 105.128 29.0661 105.128 30.7359C105.128 32.2599 106.462 33.2409 107.957 33.2409C109.1 33.2409 109.731 32.7281 110.126 32.1269H110.184V33.0059H111.827V28.6398C111.828 26.6193 110.317 25.4916 108.368 25.4916ZM108.162 31.7324C107.606 31.7324 106.829 31.4537 106.829 30.765C106.829 29.886 107.797 29.5489 108.632 29.5489C109.379 29.5489 109.731 29.7101 110.185 29.9297C110.053 30.9855 109.144 31.7324 108.162 31.7324ZM117.807 25.7403L115.858 30.6776H115.8L113.776 25.7403H111.944L114.978 32.6406L113.249 36.4793H115.022L119.698 25.7403H117.807ZM102.49 33.026H104.19V21.6383H102.49V33.026Z" fill="white"/>
<path d="M48.3283 14.9042C48.3283 15.6537 48.1025 16.2503 47.6499 16.6957C47.1363 17.2252 46.4661 17.49 45.643 17.49C44.8544 17.49 44.1833 17.2217 43.6324 16.685C43.0806 16.1474 42.8047 15.482 42.8047 14.6877C42.8047 13.8926 43.0806 13.2271 43.6324 12.6904C44.1833 12.1529 44.8544 11.8846 45.643 11.8846C46.0345 11.8846 46.4088 11.9597 46.7639 12.1091C47.1199 12.2593 47.405 12.4588 47.618 12.7083L47.1382 13.1806C46.7767 12.7557 46.2786 12.5438 45.6421 12.5438C45.0666 12.5438 44.5694 12.7423 44.1496 13.1395C43.7298 13.5366 43.5204 14.0527 43.5204 14.6868C43.5204 15.321 43.7298 15.8371 44.1496 16.2342C44.5694 16.6313 45.0666 16.8299 45.6421 16.8299C46.2522 16.8299 46.7612 16.6304 47.1682 16.2306C47.4323 15.9703 47.5853 15.6081 47.6262 15.1439H45.6421V14.499H48.2891C48.3165 14.6394 48.3283 14.7745 48.3283 14.9042Z" fill="white"/>
<path d="M52.5262 12.6628H50.0385V14.364H52.2821V15.0089H50.0385V16.7101H52.5262V17.3702H49.3364V12.0036H52.5262V12.6628Z" fill="white"/>
<path d="M55.4864 17.3702H54.7843V12.6628H53.2582V12.0036H57.0125V12.6628H55.4864V17.3702Z" fill="white"/>
<path d="M59.7288 17.3702V12.0036H60.4308V17.3702H59.7288Z" fill="white"/>
<path d="M63.5443 17.3702H62.8422V12.6628H61.3161V12.0036H65.0704V12.6628H63.5443V17.3702Z" fill="white"/>
<path d="M72.1773 16.677C71.6401 17.219 70.9726 17.49 70.174 17.49C69.3754 17.49 68.708 17.219 68.1716 16.677C67.6344 16.135 67.3667 15.4713 67.3667 14.6869C67.3667 13.9024 67.6344 13.2388 68.1716 12.6967C68.708 12.1547 69.3754 11.8828 70.174 11.8828C70.968 11.8828 71.6346 12.1556 72.1737 12.7003C72.7127 13.245 72.9823 13.9069 72.9823 14.6869C72.9823 15.4713 72.7136 16.135 72.1773 16.677ZM68.6898 16.2271C69.0941 16.6296 69.5885 16.8299 70.174 16.8299C70.7595 16.8299 71.2549 16.6287 71.6583 16.2271C72.0626 15.8246 72.2656 15.3112 72.2656 14.6869C72.2656 14.0626 72.0626 13.5491 71.6583 13.1466C71.2549 12.7442 70.7595 12.5438 70.174 12.5438C69.5885 12.5438 69.0941 12.745 68.6898 13.1466C68.2864 13.5491 68.0833 14.0626 68.0833 14.6869C68.0833 15.3112 68.2864 15.8246 68.6898 16.2271Z" fill="white"/>
<path d="M73.9675 17.3702V12.0036H74.8217L77.4769 16.1779H77.507L77.4769 15.1439V12.0036H78.179V17.3702H77.446L74.6678 12.9928H74.6377L74.6678 14.0268V17.3702H73.9675Z" fill="white"/>
<path d="M48.3283 14.9042C48.3283 15.6537 48.1025 16.2503 47.6499 16.6957C47.1363 17.2252 46.4661 17.49 45.643 17.49C44.8544 17.49 44.1833 17.2217 43.6324 16.685C43.0806 16.1474 42.8047 15.482 42.8047 14.6877C42.8047 13.8926 43.0806 13.2271 43.6324 12.6904C44.1833 12.1529 44.8544 11.8846 45.643 11.8846C46.0345 11.8846 46.4088 11.9597 46.7639 12.1091C47.1199 12.2593 47.405 12.4588 47.618 12.7083L47.1382 13.1806C46.7767 12.7557 46.2786 12.5438 45.6421 12.5438C45.0666 12.5438 44.5694 12.7423 44.1496 13.1395C43.7298 13.5366 43.5204 14.0527 43.5204 14.6868C43.5204 15.321 43.7298 15.8371 44.1496 16.2342C44.5694 16.6313 45.0666 16.8299 45.6421 16.8299C46.2522 16.8299 46.7612 16.6304 47.1682 16.2306C47.4323 15.9703 47.5853 15.6081 47.6262 15.1439H45.6421V14.499H48.2891C48.3165 14.6394 48.3283 14.7745 48.3283 14.9042Z" stroke="white" stroke-width="0.0373814" stroke-miterlimit="10"/>
<path d="M52.5262 12.6628H50.0385V14.364H52.2821V15.0089H50.0385V16.7101H52.5262V17.3702H49.3364V12.0036H52.5262V12.6628Z" stroke="white" stroke-width="0.0373814" stroke-miterlimit="10"/>
<path d="M55.4864 17.3702H54.7843V12.6628H53.2582V12.0036H57.0125V12.6628H55.4864V17.3702Z" stroke="white" stroke-width="0.0373814" stroke-miterlimit="10"/>
<path d="M59.7288 17.3702V12.0036H60.4308V17.3702H59.7288Z" stroke="white" stroke-width="0.0373814" stroke-miterlimit="10"/>
<path d="M63.5443 17.3702H62.8422V12.6628H61.3161V12.0036H65.0704V12.6628H63.5443V17.3702Z" stroke="white" stroke-width="0.0373814" stroke-miterlimit="10"/>
<path d="M72.1773 16.677C71.6401 17.219 70.9726 17.49 70.174 17.49C69.3754 17.49 68.708 17.219 68.1716 16.677C67.6344 16.135 67.3667 15.4713 67.3667 14.6869C67.3667 13.9024 67.6344 13.2388 68.1716 12.6967C68.708 12.1547 69.3754 11.8828 70.174 11.8828C70.968 11.8828 71.6346 12.1556 72.1737 12.7003C72.7127 13.245 72.9823 13.9069 72.9823 14.6869C72.9823 15.4713 72.7136 16.135 72.1773 16.677ZM68.6898 16.2271C69.0941 16.6296 69.5885 16.8299 70.174 16.8299C70.7595 16.8299 71.2549 16.6287 71.6583 16.2271C72.0626 15.8246 72.2656 15.3112 72.2656 14.6869C72.2656 14.0626 72.0626 13.5491 71.6583 13.1466C71.2549 12.7442 70.7595 12.5438 70.174 12.5438C69.5885 12.5438 69.0941 12.745 68.6898 13.1466C68.2864 13.5491 68.0833 14.0626 68.0833 14.6869C68.0833 15.3112 68.2864 15.8246 68.6898 16.2271Z" stroke="white" stroke-width="0.0373814" stroke-miterlimit="10"/>
<path d="M73.9675 17.3702V12.0036H74.8217L77.4769 16.1779H77.507L77.4769 15.1439V12.0036H78.179V17.3702H77.446L74.6678 12.9928H74.6377L74.6678 14.0268V17.3702H73.9675Z" stroke="white" stroke-width="0.0373814" stroke-miterlimit="10"/>
<defs>
<filter id="filter0_ii_238_38788" x="14.5234" y="11.8828" width="22.2803" height="24.918" filterUnits="userSpaceOnUse" color-interpolation-filters="sRGB">
<feFlood flood-opacity="0" result="BackgroundImageFix"/>
<feBlend mode="normal" in="SourceGraphic" in2="BackgroundImageFix" result="shape"/>
<feColorMatrix in="SourceAlpha" type="matrix" values="0 0 0 0 0 0 0 0 0 0 0 0 0 0 0 0 0 0 127 0" result="hardAlpha"/>
<feOffset dy="-0.145313"/>
<feComposite in2="hardAlpha" operator="arithmetic" k2="-1" k3="1"/>
<feColorMatrix type="matrix" values="0 0 0 0 0 0 0 0 0 0 0 0 0 0 0 0 0 0 0.12 0"/>
<feBlend mode="normal" in2="shape" result="effect1_innerShadow_238_38788"/>
<feColorMatrix in="SourceAlpha" type="matrix" values="0 0 0 0 0 0 0 0 0 0 0 0 0 0 0 0 0 0 127 0" result="hardAlpha"/>
<feOffset dy="0.145313"/>
<feComposite in2="hardAlpha" operator="arithmetic" k2="-1" k3="1"/>
<feColorMatrix type="matrix" values="0 0 0 0 1 0 0 0 0 1 0 0 0 0 1 0 0 0 0.25 0"/>
<feBlend mode="normal" in2="effect1_innerShadow_238_38788" result="effect2_innerShadow_238_38788"/>
</filter>
<filter id="filter1_i_238_38788" x="14.9688" y="24.3438" width="16.1016" height="12.457" filterUnits="userSpaceOnUse" color-interpolation-filters="sRGB">
<feFlood flood-opacity="0" result="BackgroundImageFix"/>
<feBlend mode="normal" in="SourceGraphic" in2="BackgroundImageFix" result="shape"/>
<feColorMatrix in="SourceAlpha" type="matrix" values="0 0 0 0 0 0 0 0 0 0 0 0 0 0 0 0 0 0 127 0" result="hardAlpha"/>
<feOffset dy="-0.145313"/>
<feComposite in2="hardAlpha" operator="arithmetic" k2="-1" k3="1"/>
<feColorMatrix type="matrix" values="0 0 0 0 0 0 0 0 0 0 0 0 0 0 0 0 0 0 0.08 0"/>
<feBlend mode="normal" in2="shape" result="effect1_innerShadow_238_38788"/>
</filter>
<linearGradient id="paint0_linear_238_38788" x1="25.9371" y1="13.4004" x2="9.6796" y2="29.5948" gradientUnits="userSpaceOnUse">
<stop stop-color="#00A0FF"/>
<stop offset="0.0066" stop-color="#00A1FF"/>
<stop offset="0.2601" stop-color="#00BEFF"/>
<stop offset="0.5122" stop-color="#00D2FF"/>
<stop offset="0.7604" stop-color="#00DFFF"/>
<stop offset="1" stop-color="#00E3FF"/>
</linearGradient>
<linearGradient id="paint1_linear_238_38788" x1="37.5478" y1="24.3377" x2="14.199" y2="24.3377" gradientUnits="userSpaceOnUse">
<stop stop-color="#FFE000"/>
<stop offset="0.4087" stop-color="#FFBD00"/>
<stop offset="0.7754" stop-color="#FFA500"/>
<stop offset="1" stop-color="#FF9C00"/>
</linearGradient>
<linearGradient id="paint2_linear_238_38788" x1="28.857" y1="26.566" x2="6.80971" y2="48.5275" gradientUnits="userSpaceOnUse">
<stop stop-color="#FF3A44"/>
<stop offset="1" stop-color="#C31162"/>
</linearGradient>
<linearGradient id="paint3_linear_238_38788" x1="11.94" y1="5.13628" x2="21.7847" y2="14.9427" gradientUnits="userSpaceOnUse">
<stop stop-color="#32A071"/>
<stop offset="0.0685" stop-color="#2DA771"/>
<stop offset="0.4762" stop-color="#15CF74"/>
<stop offset="0.8009" stop-color="#06E775"/>
<stop offset="1" stop-color="#00F076"/>
</linearGradient>
</defs>
</svg>
