<svg width="13" height="12" viewBox="0 0 13 12" fill="none" xmlns="http://www.w3.org/2000/svg">
<path d="M-0.00015285 6C-0.00015284 5.77632 0.0756366 5.58895 0.227216 5.43789C0.378268 5.28631 0.565636 5.21053 0.789321 5.21053L9.61169 5.21053L5.763 1.36184C5.60511 1.20395 5.52616 1.01632 5.52616 0.798947C5.52616 0.582105 5.60511 0.394736 5.763 0.236842C5.9209 0.0789469 6.10511 -2.70608e-07 6.31564 -2.61406e-07C6.52616 -2.52203e-07 6.71037 0.0789469 6.86827 0.236842L12.0788 5.44737C12.1577 5.52632 12.2138 5.61184 12.247 5.70395C12.2796 5.79605 12.2959 5.89474 12.2959 6C12.2959 6.10526 12.2796 6.20737 12.247 6.30631C12.2138 6.40474 12.1577 6.48684 12.0788 6.55263L6.86827 11.7632C6.71037 11.9211 6.52616 12 6.31564 12C6.10511 12 5.9209 11.9211 5.763 11.7632C5.60511 11.6053 5.52616 11.4176 5.52616 11.2003C5.52616 10.9834 5.60511 10.7961 5.763 10.6382L9.61169 6.78947L0.789321 6.78947C0.565636 6.78947 0.378268 6.71395 0.227215 6.56289C0.0756366 6.41131 -0.00015286 6.22368 -0.00015285 6Z" fill="#FFF"/>
</svg>
