<svg width="80" height="80" viewBox="0 0 80 80" fill="none" xmlns="http://www.w3.org/2000/svg">
<circle cx="40" cy="40" r="40" fill="white"/>
<g clip-path="url(#clip0_183_8843)">
<path d="M18.7368 66.6074C18.1768 66.3127 18 65.8117 18 65.1928C18.0295 63.1004 17.9705 61.008 18.0295 58.9155C18.1474 54.2886 20.2693 50.8111 24.2773 48.4829C25.8687 47.5693 27.637 47.1567 29.4642 47.1567C30.4956 47.1567 31.5566 47.1567 32.6765 47.1567C32.6765 46.2725 32.6765 45.3884 32.6765 44.5338C32.6765 44.4159 32.5291 44.2685 32.4407 44.1506C30.8493 42.6771 29.7294 40.9383 29.081 38.8754C28.9926 38.6101 28.9337 38.4333 28.5506 38.4333C26.7823 38.4038 25.4561 37.6081 24.7194 36.0167C24.0121 34.4842 24.2184 33.0107 25.2498 31.655C25.2793 31.5961 25.3382 31.5371 25.3382 31.5371C25.0435 31.0066 24.6899 30.5351 24.5131 30.0341C23.9826 28.59 24.6604 26.9691 26.0455 26.2913C26.3697 26.1439 26.4581 25.9376 26.5171 25.6135C27.2244 20.8097 29.9062 17.6269 34.4742 15.9765C34.651 15.9176 34.8573 15.7113 34.9163 15.505C35.4762 13.8841 36.5961 13.0589 38.3054 13.0589C39.4548 13.0589 40.6042 13.1178 41.7535 13.0589C43.6102 12.9705 44.7006 14.2967 45.0543 15.4755C45.1427 15.7997 45.3195 15.9176 45.5847 16.006C49.9464 17.5385 52.5693 20.6329 53.4534 25.1419C53.4829 25.3482 53.4534 25.5545 53.5419 25.7608C53.6008 25.9082 53.7187 26.1145 53.8366 26.1734C55.8995 27.2933 56.3121 29.5036 54.7796 31.2719C54.7207 31.3308 54.6912 31.3898 54.6912 31.3898C54.9859 31.9792 55.3101 32.5096 55.4869 33.0991C56.3121 35.722 54.3965 38.3744 51.6557 38.4628C51.1842 38.4628 51.0074 38.6396 50.8895 39.0522C50.2706 41.0267 49.1507 42.6771 47.6772 44.1212C47.5003 44.298 47.353 44.6222 47.353 44.8579C47.294 45.5947 47.3235 46.361 47.3235 47.1567C47.9129 47.1567 48.4729 47.1567 49.0033 47.1567C50.4179 47.1567 51.8326 47.0977 53.2177 47.5103C57.6973 48.807 60.438 51.7836 61.6464 56.2337C61.8821 57.0883 61.9411 57.9725 61.9705 58.8566C62.0295 60.9785 61.9705 63.0709 62 65.1928C62 65.8412 61.8232 66.3127 61.2632 66.6074C47.0877 66.6074 32.9123 66.6074 18.7368 66.6074ZM30.5841 32.1855C30.5841 33.158 30.5841 34.1305 30.5841 35.0736C30.6135 37.5492 31.3798 39.73 32.9712 41.6456C36.8908 46.361 43.9933 46.0368 47.5593 41.0562C49.4749 38.3449 49.5633 35.3094 49.3865 32.1855C43.1092 32.1855 36.8614 32.1855 30.5841 32.1855ZM28.4916 64.515C28.4916 64.2792 28.4916 64.1024 28.4916 63.8961C28.4916 63.2772 28.4622 62.6878 28.4916 62.0689C28.5211 61.4795 28.9926 61.0669 29.5526 61.0669C30.0831 61.0669 30.5251 61.4795 30.5546 62.0689C30.5841 62.3047 30.5546 62.511 30.5546 62.7468C30.5546 63.3362 30.5546 63.9256 30.5546 64.4855C33.3838 64.4855 36.1246 64.4855 38.8948 64.4855C38.9243 64.4266 38.9243 64.3676 38.9243 64.3087C38.9243 61.3616 38.9243 58.4145 38.9243 55.4674C38.9243 55.2906 38.8064 55.0843 38.6591 54.937C36.9498 53.1098 35.211 51.2826 33.4722 49.4849C33.3838 49.3965 33.2659 49.2491 33.148 49.2491C32.2934 49.2196 31.4092 49.2491 30.5251 49.2491C30.5251 51.4594 30.5251 53.5813 30.5251 55.7032C30.5251 56.4105 30.1125 56.882 29.4642 56.882C28.8453 56.882 28.4327 56.4105 28.4327 55.7032C28.4327 54.0234 28.4327 52.3141 28.4327 50.6342C28.4327 50.2216 28.4327 49.809 28.4327 49.308C27.8727 49.4554 27.3717 49.5733 26.8707 49.6617C26.4581 49.7501 26.3403 49.9269 26.3403 50.369C26.3697 54.9075 26.3403 59.446 26.3403 63.9845C26.3403 64.1614 26.3403 64.3382 26.3403 64.5445C27.1065 64.515 27.7549 64.515 28.4916 64.515ZM51.5084 49.2786C51.5084 49.6027 51.5084 49.7796 51.5084 49.9564C51.5084 51.8425 51.5378 53.7581 51.4789 55.6443C51.4789 55.9685 51.3315 56.3221 51.1253 56.5873C50.86 56.9115 50.4474 56.9705 50.0643 56.7936C49.5928 56.5873 49.3865 56.2337 49.3865 55.7032C49.3865 53.7287 49.3865 51.7541 49.3865 49.7796C49.3865 49.6027 49.3865 49.4259 49.3865 49.1902C48.5613 49.1902 47.8245 49.1607 47.0583 49.1902C46.852 49.1902 46.5867 49.308 46.4394 49.4554C44.7006 51.2531 42.9913 53.0508 41.282 54.878C41.1052 55.0549 41.0167 55.3496 41.0167 55.6148C40.9873 58.3851 41.0167 61.1553 41.0167 63.9256C41.0167 64.1024 41.0462 64.2498 41.0462 64.4266C43.8459 64.4266 46.6162 64.4266 49.4159 64.4266C49.4159 63.6898 49.4159 62.953 49.4159 62.2457C49.4159 61.4795 49.8285 61.008 50.4474 61.008C51.0958 61.008 51.4789 61.4795 51.4789 62.2457C51.4789 62.9825 51.4789 63.6898 51.4789 64.4266C52.2157 64.4266 52.8935 64.4266 53.5713 64.4266C53.5713 64.1908 53.5713 64.014 53.5713 63.8077C53.5713 61.1259 53.5713 58.4735 53.5713 55.7916C53.5713 53.935 53.5713 52.0488 53.5713 50.1922C53.5713 50.0153 53.4534 49.7206 53.3356 49.6912C52.7756 49.5733 52.1862 49.4259 51.5084 49.2786ZM45.29 18.1573C45.29 18.1868 45.2605 18.2163 45.2605 18.2458C45.2605 19.6014 45.2605 20.9571 45.2605 22.3422C45.2605 23.3442 44.9069 23.8452 44.1996 23.8157C43.5218 23.7863 43.1681 23.3147 43.1681 22.3422C43.1681 20.4855 43.1681 18.5994 43.1681 16.7427C43.1681 15.6228 42.6376 15.1218 41.5472 15.1218C40.4568 15.1218 39.3369 15.1218 38.2465 15.1218C37.5981 15.1218 37.1561 15.446 36.9792 16.0649C36.9203 16.3301 36.8908 16.6249 36.8908 16.8901C36.8908 18.7468 36.8908 20.6329 36.8908 22.4896C36.8908 23.3147 36.5077 23.7863 35.8593 23.7863C35.1815 23.7863 34.7984 23.3147 34.7984 22.4601C34.7984 21.1928 34.7984 19.9256 34.7984 18.6289C34.7984 18.452 34.7984 18.3047 34.7984 18.1279C31.704 18.9236 28.7274 22.6664 28.6095 25.8492C36.213 25.8492 43.8165 25.8492 51.42 25.8492C51.0958 22.3127 48.3255 19.0415 45.29 18.1573ZM39.9558 30.093C41.9893 30.093 44.0522 30.093 46.0857 30.093C48.1487 30.093 50.2411 30.093 52.3041 30.093C52.8051 30.093 53.2472 29.9752 53.4829 29.4741C53.866 28.7374 53.2766 28.0006 52.3336 28.0006C44.1112 28.0006 35.8888 28.0006 27.6664 28.0006C26.9002 28.0006 26.3992 28.4132 26.3992 29.0321C26.3992 29.651 26.9002 30.093 27.6959 30.093C27.8138 30.093 27.9317 30.093 28.0496 30.093C32.0281 30.093 35.9772 30.093 39.9558 30.093ZM24.2773 64.515C24.2773 60.006 24.2773 55.5264 24.2773 51.0763C24.2184 51.0763 24.1889 51.0763 24.1594 51.0763C21.8902 52.8151 20.4756 55.0843 20.2398 57.9135C20.063 59.947 20.1514 62.01 20.1219 64.0729C20.1219 64.2203 20.1514 64.3382 20.1514 64.4855C21.507 64.515 22.8627 64.515 24.2773 64.515ZM59.9076 64.515C59.9076 64.3087 59.9076 64.1319 59.9076 63.9551C59.9076 62.4226 59.9076 60.8901 59.9076 59.3576C59.9076 57.2652 59.4066 55.3201 58.2572 53.5813C57.5794 52.5793 56.8131 51.6952 55.7816 51.0173C55.7816 55.5559 55.7816 60.0354 55.7816 64.515C57.1373 64.515 58.4635 64.515 59.9076 64.515ZM39.9558 53.1982C40.0147 53.1982 40.0442 53.1982 40.0442 53.1687C41.724 51.4299 43.4039 49.6617 45.0543 47.9229C45.1427 47.8345 45.2016 47.7166 45.2016 47.5987C45.2311 47.0388 45.2016 46.4788 45.2016 45.8305C41.6946 47.5987 38.217 47.5693 34.7395 45.8305C34.7395 46.3315 34.7689 46.7441 34.7395 47.1272C34.71 47.5693 34.8573 47.864 35.152 48.1881C36.3898 49.4554 37.6276 50.7521 38.8359 52.0488C39.219 52.4319 39.6021 52.8445 39.9558 53.1982ZM28.4622 32.2149C27.2244 32.3034 26.3403 33.217 26.3992 34.3368C26.4581 35.4567 27.3423 36.3114 28.4622 36.3114C28.4622 34.9263 28.4622 33.5706 28.4622 32.2149ZM51.5378 36.3114C52.7167 36.2819 53.6008 35.3978 53.6008 34.2779C53.6008 33.158 52.7167 32.2739 51.5378 32.2149C51.5378 33.5706 51.5378 34.9557 51.5378 36.3114Z" fill="#E1292C"/>
<path d="M29.523 60.006C28.9336 60.006 28.4621 59.5345 28.4915 58.9451C28.4915 58.3851 28.9631 57.9136 29.523 57.9136C30.1124 57.9136 30.584 58.3851 30.5545 58.9745C30.5545 59.5639 30.083 60.006 29.523 60.006Z" fill="#E1292C"/>
<path d="M51.5084 58.9451C51.5084 59.5345 51.0369 60.006 50.4475 60.006C49.8875 60.006 49.416 59.5345 49.416 58.9745C49.416 58.3851 49.8875 57.9136 50.477 57.9136C51.0369 57.943 51.5084 58.3851 51.5084 58.9451Z" fill="#E1292C"/>
</g>
<defs>
<clipPath id="clip0_183_8843">
<rect width="44" height="53.6075" fill="white" transform="translate(18 13)"/>
</clipPath>
</defs>
</svg>
