 <svg xmlns="http://www.w3.org/2000/svg" width="60" height="35" viewBox="0 0 60 35" fill="none">
                                    <path d="M0.907807 17.8237L44.7845 17.8237L40.8299 21.7783C40.5138 22.0943 40.5138 22.613 40.8299 22.929C40.9048 23.0042 40.9939 23.0638 41.0919 23.1044C41.19 23.1451 41.295 23.166 41.4012 23.166C41.5073 23.166 41.6124 23.1451 41.7104 23.1044C41.8085 23.0638 41.8975 23.0042 41.9725 22.929L47.3128 17.5887C47.3879 17.5137 47.4475 17.4247 47.4882 17.3266C47.5289 17.2286 47.5498 17.1235 47.5498 17.0174C47.5498 16.9113 47.5289 16.8062 47.4882 16.7081C47.4475 16.6101 47.3879 16.521 47.3128 16.4461L41.9725 11.1057C41.8975 11.0307 41.8084 10.9712 41.7104 10.9306C41.6123 10.89 41.5073 10.8691 41.4012 10.8691C41.2951 10.8691 41.19 10.89 41.092 10.9306C40.994 10.9712 40.9049 11.0307 40.8299 11.1057C40.7548 11.1808 40.6953 11.2698 40.6547 11.3679C40.6141 11.4659 40.5932 11.571 40.5932 11.6771C40.5932 11.7832 40.6141 11.8882 40.6547 11.9862C40.6953 12.0843 40.7548 12.1733 40.8299 12.2484L44.7845 16.203L0.907807 16.203C0.462105 16.203 0.0974394 16.5676 0.0974394 17.0133C0.0974393 17.459 0.462105 17.8237 0.907807 17.8237Z" fill="white"/>
                                    <circle cx="42.0802" cy="17.0177" r="16.5177" stroke="white"/>
                                    </svg>