<svg width="80" height="80" viewBox="0 0 80 80" fill="none" xmlns="http://www.w3.org/2000/svg">
<circle cx="40" cy="40" r="40" fill="white"/>
<g clip-path="url(#clip0_183_7694)">
<path d="M28.4035 12.3374C36.1344 12.3374 43.8653 12.3374 51.5962 12.3374C51.7139 12.4944 51.8709 12.6513 51.9886 12.7691C57.208 17.9884 62.388 23.1685 67.6074 28.3879C67.8821 28.6626 67.9998 28.898 67.9998 29.2905C67.9998 36.6682 67.9998 44.0066 67.9998 51.3844C67.9998 51.7768 67.8821 52.0122 67.6466 52.2869C62.4273 57.5063 57.1687 62.7256 51.9494 67.9842C51.6747 68.2589 51.4392 68.3374 51.0468 68.3374C43.7083 68.3374 36.3698 68.3374 29.0314 68.3374C28.5997 68.3374 28.325 68.2197 28.0503 67.9057C22.8702 62.7256 17.6901 57.5063 12.4707 52.3262C12.3138 52.1692 12.196 52.0515 12.0391 51.9338C12.0391 44.2029 12.0391 36.472 12.0391 28.741C12.1175 28.6626 12.196 28.6233 12.2745 28.5448C17.5723 23.2078 22.8702 17.9099 28.168 12.5729C28.2465 12.4944 28.325 12.4159 28.4035 12.3374ZM40.0587 15.6338C36.8015 15.6338 33.5836 15.6338 30.3264 15.6338C30.0517 15.6338 29.6985 15.7908 29.5023 15.987C24.8323 20.5785 20.2409 25.1699 15.6494 29.8006C15.4532 29.9968 15.2962 30.35 15.2962 30.6247C15.2962 37.0606 15.2962 43.5357 15.2962 49.9716C15.2962 50.2463 15.4532 50.5995 15.6494 50.7957C20.2409 55.4264 24.8716 60.0179 29.5023 64.6485C29.6985 64.8448 30.0517 65.0017 30.3264 65.0017C36.7623 65.0017 43.2374 65.0017 49.6733 65.0017C49.948 65.0017 50.3012 64.8448 50.4974 64.6485C55.1281 60.0571 59.7195 55.4264 64.3502 50.7957C64.5464 50.5995 64.7034 50.2463 64.7034 49.9716C64.7034 43.5357 64.7034 37.0606 64.7034 30.6247C64.7034 30.35 64.5464 29.9968 64.3502 29.7614C59.7588 25.1699 55.1281 20.5785 50.4974 15.987C50.3012 15.7908 49.948 15.6338 49.6733 15.6338C46.4553 15.5946 43.2374 15.6338 40.0587 15.6338Z" fill="#E1292C"/>
<path d="M35.1143 45.2233C35.1143 37.5708 35.1143 29.9577 35.1143 22.3445C38.3714 22.3445 41.5894 22.3445 44.8858 22.3445C44.8858 29.9577 44.8858 37.5708 44.8858 45.2233C41.6286 45.2233 38.3714 45.2233 35.1143 45.2233ZM41.5894 41.9268C41.5894 36.4328 41.5894 31.0172 41.5894 25.6017C40.4906 25.6017 39.431 25.6017 38.3714 25.6017C38.3714 31.0565 38.3714 36.472 38.3714 41.9268C39.4702 41.9268 40.4906 41.9268 41.5894 41.9268Z" fill="#E1292C"/>
<path d="M44.8858 58.3304C41.6286 58.3304 38.3714 58.3304 35.1143 58.3304C35.1143 55.0732 35.1143 51.8553 35.1143 48.5588C38.3322 48.5588 41.5894 48.5588 44.8858 48.5588C44.8858 51.816 44.8858 55.034 44.8858 58.3304ZM41.5894 55.0732C41.5894 53.9744 41.5894 52.9148 41.5894 51.8553C40.4906 51.8553 39.431 51.8553 38.3714 51.8553C38.3714 52.9541 38.3714 54.0136 38.3714 55.0732C39.4702 55.0732 40.4906 55.0732 41.5894 55.0732Z" fill="#E1292C"/>
</g>
<defs>
<clipPath id="clip0_183_7694">
<rect width="56" height="56" fill="white" transform="translate(12 12.3374)"/>
</clipPath>
</defs>
</svg>
