<svg width="134" height="71" viewBox="0 0 134 71" fill="none" xmlns="http://www.w3.org/2000/svg">
<path fill-rule="evenodd" clip-rule="evenodd" d="M0.37207 0.182617H133.75V19.9694H0.37207V0.182617Z" fill="#6E7E9B"/>
<path fill-rule="evenodd" clip-rule="evenodd" d="M8.87339 33.7657V40.9927C8.87339 42.949 9.02073 43.1579 10.5624 43.1579H11.0667V44.8165H0.37207V43.1579H0.785972C2.32766 43.1579 2.47652 42.9498 2.47652 40.9927V27.2792C2.47652 25.3229 2.29804 25.1171 0.785972 25.1171H0.37207V23.4554H13.4962C15.3333 23.4554 16.3403 23.6058 16.9919 23.9316C18.3552 24.6713 18.9756 26.1514 18.9756 28.6121C18.9756 32.0767 17.7932 33.9131 15.511 33.9131H15.1237L19.0949 41.6466C19.7776 43.0075 19.925 43.1267 20.7854 43.1267H21.0793V44.8165H13.8531L8.87339 33.7657ZM8.87339 32.4936C9.1711 32.5217 9.55538 32.5217 9.64424 32.5217C11.6902 32.5217 12.4299 31.5451 12.4299 28.8764C12.4299 25.7368 11.8953 24.8801 9.91156 24.8801C9.73385 24.8801 9.26147 24.9082 8.87339 24.9082V32.4936ZM36.0094 36.8187H33.1372V36.1641C33.1372 34.8897 32.781 34.5054 31.6266 34.5054H31.1504C30.4411 34.5358 30.1434 34.7424 30.1434 35.2763V41.4377C30.1434 43.0683 30.3211 43.186 32.4248 43.186L33.2549 43.1579C34.9135 43.1579 35.3889 42.9802 35.8036 42.3255C36.1598 41.7354 36.2175 41.3792 36.2175 39.7783V38.4455H39.5652V44.8158H21.494V43.186H22.0279C23.5392 43.186 23.7139 42.949 23.7139 40.9927V27.2792C23.7139 25.3229 23.5392 25.0859 22.0279 25.0859H21.494V23.4554H39.0617V28.9956H35.6836V27.9886C35.6555 25.5902 35.2378 25.1755 32.781 25.1755H32.0709C30.3204 25.1755 30.1426 25.3533 30.1426 27.1281V31.3939C30.1426 32.5217 30.2619 32.6379 31.3897 32.6379H31.862C32.901 32.6379 33.1372 32.3425 33.1372 31.0097V30.3284H36.0094V36.8187ZM52.2724 44.8165L44.9254 30.98V40.9934C44.9254 42.9498 45.1039 43.1867 46.6456 43.1867H47.2653V44.8165H40.3049V43.1867H40.8373C42.3478 43.1867 42.5263 42.9498 42.5263 40.9934V27.2792C42.5263 25.3229 42.3478 25.0859 40.8373 25.0859H40.3049V23.4554H48.1835L56.0066 37.8812V27.2792C56.0066 25.3229 55.8289 25.0859 54.2872 25.0859H53.7829V23.4554H60.6294V25.0859H60.1532C58.6115 25.0859 58.4323 25.3229 58.4323 27.2792V44.8165H52.2724ZM79.7646 41.7354C80.1208 42.8906 80.445 43.1579 81.4528 43.186H82.0164V44.8158H71.2048V43.186L71.8852 43.1579C72.5961 43.1579 72.9515 42.8905 72.9515 42.3863C72.9515 42.1774 72.9204 42.0605 72.7738 41.5577L71.7934 38.09C71.4979 37.083 71.5291 37.1134 70.5501 37.1134H66.4035C66.0192 37.1438 65.8992 37.26 65.7527 37.8235L64.6249 41.8531C64.5079 42.2367 64.5079 42.2989 64.5079 42.4767C64.5079 42.9498 64.7449 43.1579 65.3684 43.1579L66.2835 43.186V44.8158H59.8282V43.186L60.3894 43.1579C61.5172 43.0964 61.8126 42.8017 62.288 41.1704L66.462 27.0111C66.6093 26.5388 66.6397 26.358 66.6397 26.1826C66.6397 25.411 66.3147 25.2021 65.1595 25.1748L64.5079 25.1429V23.4539H74.1059L79.7646 41.7354ZM66.6974 34.4477C66.6389 34.6535 66.6086 34.8009 66.6086 34.8905C66.6086 35.0986 66.8174 35.1882 67.2047 35.1882H70.2236C70.6997 35.1882 70.8478 35.0993 70.8478 34.832C70.8478 34.7431 70.8478 34.6535 70.7856 34.5366L68.713 27.0119L66.6974 34.4477ZM98.094 39.571C98.094 43.5422 95.7845 45.32 90.5724 45.32C84.884 45.32 82.1576 43.4222 82.1576 39.4229V27.2792C82.1576 25.3229 81.9829 25.0859 80.4397 25.0859H79.9977V23.4554H90.747V25.0859H90.305C88.7626 25.0859 88.5871 25.3229 88.5871 27.2792V39.4533C88.5871 41.0534 88.7041 41.5273 89.298 42.0612C89.9488 42.6817 90.8359 42.9802 92.1102 42.9802C94.5397 42.9802 95.7533 41.822 95.7533 39.4533V27.2792C95.7533 25.3229 95.5787 25.0859 94.037 25.0859H93.5638V23.4554H100.318V25.0859H99.8149C98.2725 25.0859 98.094 25.3229 98.094 27.2792V39.571ZM118.002 44.8165H100.761V43.1867H101.264C102.805 43.1867 102.98 42.9498 102.98 40.9934V27.2792C102.98 25.3229 102.806 25.0859 101.264 25.0859H100.761V23.4554H111.632V25.0859H111.101C109.59 25.0859 109.411 25.3229 109.411 27.2792V40.7565C109.411 43.0075 109.589 43.2467 111.248 43.186H112.077C114.004 43.1267 114.624 42.3863 114.624 40.0464V38.4159H118.002V44.8165Z" fill="#6E7E9B"/>
<path fill-rule="evenodd" clip-rule="evenodd" d="M133.844 23.4554V29.8256H130.557L130.528 28.9652C130.528 27.1281 130.411 26.5084 129.966 25.8264C129.639 25.3806 129.137 25.0851 128.663 25.0851C128.098 25.0851 127.92 25.3221 127.92 26.1825V40.9926C127.92 42.949 128.098 43.1859 129.639 43.1859H130.112V44.8157H119.271V43.1859H119.776C121.287 43.1859 121.464 42.949 121.464 40.9926V26.2714C121.464 25.2917 121.317 25.0548 120.694 25.0548C119.418 25.0548 118.856 26.2091 118.856 28.7594V29.8249H115.536V23.4546H133.844V23.4554ZM25.7749 48.2264V54.5831H22.4956L22.4637 53.7264C22.4637 51.8931 22.3445 51.2726 21.9025 50.5906C21.5767 50.1486 21.0724 49.8502 20.6 49.8502C20.038 49.8502 19.8603 50.0894 19.8603 50.946V65.7318C19.8603 67.6821 20.038 67.9191 21.5774 67.9191H22.0498V69.5466H11.2261V67.9191H11.7304C13.2386 67.9191 13.4171 67.6821 13.4171 65.7318V51.0357C13.4171 50.059 13.269 49.8213 12.6455 49.8213C11.3742 49.8213 10.8122 50.9741 10.8122 53.516V54.5815H7.50098V48.2249H25.7749V48.2264ZM34.7654 58.5178V65.7326C34.7654 67.6829 34.9134 67.8917 36.4521 67.8917H36.9526V69.5473H26.2792V67.8917H26.6908C28.2295 67.8917 28.3761 67.6836 28.3761 65.7326V52.0404C28.3761 50.0909 28.2014 49.8813 26.6908 49.8813H26.2792V48.2264H39.379C41.2123 48.2264 42.2171 48.373 42.8672 48.6988C44.2281 49.4393 44.8486 50.9164 44.8486 53.3702C44.8486 56.8311 43.6661 58.6659 41.387 58.6659H41.0035L44.9656 66.3834C45.6468 67.7406 45.7941 67.8606 46.6516 67.8606H46.9462V69.5466H39.7322L34.7654 58.5178ZM34.7654 57.2434C35.0608 57.2731 35.4451 57.2731 35.5332 57.2731C37.5753 57.2731 38.3128 56.2979 38.3128 53.6375C38.3128 50.5048 37.7811 49.6443 35.8005 49.6443C35.622 49.6443 35.1496 49.6755 34.7654 49.6755V57.2434ZM65.4298 64.3139C65.4298 68.276 63.1226 70.0516 57.9173 70.0516C52.2404 70.0516 49.52 68.156 49.52 64.1636V52.0404C49.52 50.0909 49.3415 49.8509 47.8059 49.8509H47.3609V48.2264H58.095V49.8509H57.6522C56.1143 49.8509 55.9359 50.0901 55.9359 52.0404V64.1947C55.9359 65.7918 56.0559 66.2642 56.6452 66.7958C57.2961 67.4193 58.1839 67.714 59.4552 67.714C61.8778 67.714 63.0922 66.5589 63.0922 64.1947V52.0404C63.0922 50.0909 62.9175 49.8509 61.3781 49.8509H60.905V48.2264H67.6466V49.8509H67.1424C65.6067 49.8509 65.429 50.0901 65.429 52.0404L65.4298 64.3139ZM85.7437 54.1684H82.2547V53.0163C82.2813 50.4729 81.19 49.1712 79.0301 49.1712C77.2264 49.1712 76.0128 50.1175 75.6285 51.865C75.3642 53.134 75.2442 55.3235 75.2442 58.9294C75.2442 61.1197 75.3346 63.395 75.4515 64.7256C75.7189 67.4193 76.8413 68.6603 79.0293 68.6603C81.4246 68.6603 82.4005 67.3578 82.4005 64.1051V62.8922H85.7421V68.8965C83.6134 69.7258 81.2181 70.1374 78.4385 70.1374C74.5653 70.1374 71.933 69.2215 70.4536 67.3297C69.1807 65.7022 68.6795 63.19 68.6795 58.6044C68.6795 50.4129 71.0763 47.7533 78.4962 47.7533C81.0115 47.7533 82.1363 47.9006 85.0913 48.5796C85.2394 48.6411 85.449 48.6692 85.7421 48.7581V54.1684H85.7437ZM105.88 66.7639C106.295 67.7133 106.562 67.891 107.302 67.9191H107.655V69.5466H99.8497L96.3 60.7043L95.1761 62.2118V65.7318C95.1761 67.6821 95.3538 67.9191 96.8924 67.9191H97.3344V69.5466H86.6011V67.9191H87.0461C88.581 67.9191 88.761 67.6821 88.761 65.7318V52.0397C88.761 50.0901 88.5817 49.8502 87.0461 49.8502H86.6011V48.2257H97.3344V49.8502H96.8924C95.3545 49.8502 95.1761 50.0894 95.1761 52.0397V58.5755L100.587 51.4503L100.914 51.0357C101.123 50.7676 101.212 50.5618 101.212 50.3848C101.212 50.0894 101.003 49.939 100.677 49.939H99.732V48.2257H106.296V49.939L105.854 49.9694C104.581 50.0279 104.403 50.1479 103.221 51.6835L100.588 55.1458L105.88 66.7639ZM123.654 54.0522H120.281V53.3117C120.253 50.5321 119.246 49.2297 117.06 49.2297C115.253 49.2297 114.28 50.2367 114.28 52.1285C114.28 53.8426 114.9 54.5246 117.235 55.3509L118.421 55.7655C123.388 57.51 124.78 59.0175 124.78 62.6849C124.78 64.9914 124.186 66.6774 123.004 67.8021C121.435 69.3096 119.068 70.1359 116.293 70.1359C114.222 70.1359 112.862 69.8405 109.489 68.6284L108.78 68.3634V62.8011H112.151V63.7778C112.122 67.0305 113.124 68.4218 115.49 68.4218C117.532 68.4218 118.657 67.2386 118.657 65.1387C118.657 62.8323 118.121 62.3006 114.19 60.9405C109.695 59.3737 108.602 58.1024 108.602 54.3454C108.602 49.554 110.88 47.6622 116.557 47.6622C118.658 47.6622 121.259 48.0184 123.655 48.6669V54.0522H123.654Z" fill="#6E7E9B"/>
</svg>
