<svg width="80" height="80" viewBox="0 0 80 80" fill="none" xmlns="http://www.w3.org/2000/svg">
<circle cx="40" cy="40" r="40" fill="white"/>
<g clip-path="url(#clip0_183_9433)">
<path d="M16 56.5844C16.3449 55.8084 16.9485 55.5497 17.782 55.5497C22.3521 55.5784 26.8934 55.5497 31.4635 55.5497C31.6359 55.5497 31.8084 55.5497 32.0096 55.5497C31.9808 55.4922 32.0096 55.4347 31.9808 55.4347C31.4347 54.9174 31.3772 54.3425 31.6072 53.6527C32.7856 50.3473 33.9641 47.0132 35.1713 43.7078C35.7461 42.0982 36.321 40.5174 36.8958 38.9078C36.9533 38.7641 36.982 38.6204 37.0395 38.3904C36.8383 38.3904 36.6659 38.3904 36.4934 38.3904C34.6252 38.3904 32.7856 38.3904 30.9174 38.3904C29.7389 38.3904 29.0778 37.4707 29.509 36.3497C31.9808 29.9114 34.4527 23.4731 36.8958 17.0347C37.097 16.5461 37.4419 16.2587 37.8443 16C41.9545 16 46.0934 16 50.2036 16C50.491 16.2587 50.8359 16.4886 51.0659 16.8048C51.382 17.2359 51.2096 17.7246 51.0084 18.1844C49.3413 22.0359 47.703 25.8874 46.0359 29.7389C45.9497 29.9114 45.8922 30.1126 45.7772 30.3425C46.5533 30.3425 47.3006 30.3425 48.0192 30.3425C49.6 30.3425 51.2096 30.3425 52.7904 30.3425C53.4515 30.3425 53.9401 30.5725 54.2275 31.176C54.515 31.7796 54.3425 32.3257 53.9114 32.8144C51.0084 36.0623 48.1341 39.3102 45.2599 42.5293C41.5521 46.697 37.8443 50.8934 34.1078 55.0611C33.9641 55.2048 33.8491 55.3485 33.6479 55.5497C33.9066 55.5497 34.079 55.5497 34.2515 55.5497C43.6216 55.5497 52.9629 55.5497 62.3329 55.5497C63.4826 55.5497 64 56.0671 64 57.188C64 58.9413 64 60.6946 64 62.4479C64 63.4252 63.4252 63.9713 62.4479 63.9713C47.4731 63.9713 32.5269 63.9713 17.5521 63.9713C16.776 63.9713 16.3162 63.5976 16 62.9365C16 60.8383 16 58.7114 16 56.5844ZM32.8431 35.6024C33.0731 35.6024 33.2455 35.6024 33.418 35.6024C35.2287 35.6024 37.0395 35.6599 38.8503 35.5737C39.9713 35.5162 40.776 36.5509 40.3449 37.6719C39.1665 40.8048 38.0743 43.9665 36.9533 47.1281C36.8958 47.3006 36.8383 47.4731 36.7808 47.6455C36.8096 47.6743 36.8383 47.6743 36.8671 47.703C41.1497 42.8743 45.4611 38.0455 49.8299 33.1593C49.3701 33.1593 49.0252 33.1593 48.709 33.1593C47.0419 33.1593 45.4036 33.1593 43.7365 33.1593C43.018 33.1593 42.4719 32.8431 42.3281 32.2395C42.2419 31.8659 42.2707 31.3772 42.4431 31.0323C44.1102 27.1234 45.7772 23.2144 47.4731 19.3054C47.5305 19.1617 47.588 19.018 47.6455 18.8168C44.8 18.8168 42.0407 18.8168 39.2527 18.8168C37.1257 24.3928 34.9988 29.9689 32.8431 35.6024ZM40.6898 61.1258C40.7473 61.1545 40.776 61.1832 40.776 61.1832C43.7078 61.1832 46.6108 61.1832 49.5425 61.1832C49.6575 61.1832 49.8012 61.1257 49.8587 61.0395C50.376 60.1772 50.8647 59.315 51.382 58.424C51.2958 58.3952 51.2671 58.3665 51.2383 58.3665C48.3353 58.3665 45.4323 58.3665 42.5293 58.3665C42.4144 58.3665 42.2419 58.4527 42.1844 58.5389C41.6671 59.4012 41.1784 60.2347 40.6898 61.1258ZM38.994 58.3665C35.976 58.3665 33.0731 58.3665 30.1413 58.3665C30.0263 58.3665 29.8826 58.424 29.8251 58.4814C29.3078 59.3437 28.8192 60.2347 28.3018 61.0683C28.3593 61.1258 28.3593 61.1258 28.3593 61.1258C31.2623 61.1258 34.194 61.1545 37.097 61.1258C37.212 61.1258 37.3557 61.0395 37.4132 60.9246C37.988 60.1485 38.4766 59.2862 38.994 58.3665ZM61.1545 61.1545C61.1545 60.206 61.1545 59.315 61.1545 58.3665C59.6311 58.3665 58.1365 58.3665 56.6419 58.3665C55.9808 58.3665 55.2048 58.1653 54.7162 58.4527C54.1988 58.7401 53.9976 59.5449 53.6527 60.1198C53.4515 60.4647 53.279 60.8096 53.0491 61.1832C55.8084 61.1545 58.4814 61.1545 61.1545 61.1545ZM26.6347 58.3952C23.9904 58.3952 21.4036 58.3952 18.8455 58.3952C18.8455 59.3437 18.8455 60.2347 18.8455 61.1832C20.8287 61.1832 22.812 61.1832 24.7665 61.1832C24.8814 61.1832 25.0539 61.097 25.1114 61.0108C25.6287 60.1485 26.1174 59.315 26.6347 58.3952Z" fill="#E1292C"/>
<path d="M15.9999 37.8443C16.8622 36.7521 17.7245 35.6599 18.5868 34.5964C18.8454 34.2802 19.1041 33.9353 19.3916 33.6191C19.9951 32.9006 21.0011 32.8718 21.6047 33.5617C22.6682 34.7976 23.7029 36.0623 24.7377 37.3557C25.255 37.988 25.1401 38.8215 24.5365 39.3389C23.9329 39.8275 23.0993 39.7413 22.5532 39.1377C22.352 38.9365 22.1796 38.7066 21.8921 38.3617C21.8921 38.6491 21.8921 38.7928 21.8921 38.9653C21.8921 42.4431 21.8921 45.8922 21.8921 49.37C21.8921 50.0886 21.3748 50.6922 20.7137 50.7784C19.9951 50.8934 19.3341 50.4335 19.1329 49.7437C19.0754 49.5712 19.0754 49.37 19.0754 49.1976C19.0754 45.8347 19.0754 42.4431 19.0754 39.0802C19.0754 38.9078 19.0754 38.7353 19.0754 38.4766C18.558 38.9653 18.2419 39.5976 17.4945 39.6551C16.7185 39.6838 16.2874 39.2527 15.9712 38.6203C15.9999 38.3329 15.9999 38.103 15.9999 37.8443Z" fill="#E1292C"/>
<path d="M58.0215 38.4479C57.7628 38.7641 57.5904 38.9653 57.4179 39.1377C56.8718 39.7126 56.067 39.7701 55.4634 39.3102C54.8598 38.8216 54.7449 37.9593 55.2335 37.3557C56.2682 36.091 57.3029 34.8263 58.3664 33.5617C58.9413 32.8719 59.976 32.8719 60.5508 33.5617C61.6143 34.7976 62.649 36.0623 63.655 37.3269C64.1724 37.9593 64.0574 38.8216 63.4826 39.3102C62.879 39.8275 62.0167 39.7413 61.4706 39.109C61.2981 38.9078 61.1257 38.7066 60.8958 38.4192C60.8958 38.6778 60.867 38.8216 60.867 38.994C60.867 42.3856 60.867 45.7772 60.867 49.1689C60.867 50.1174 60.3496 50.7497 59.5449 50.8072C58.6538 50.8647 58.0215 50.2323 58.0215 49.2551C58.0215 47.0707 58.0215 44.8862 58.0215 42.7018C58.0215 41.2934 58.0215 39.9425 58.0215 38.4479Z" fill="#E1292C"/>
</g>
<defs>
<clipPath id="clip0_183_9433">
<rect width="48" height="48" fill="white" transform="translate(16 16)"/>
</clipPath>
</defs>
</svg>
