<svg width="128" height="127" viewBox="0 0 128 127" fill="none" xmlns="http://www.w3.org/2000/svg">
<g clip-path="url(#clip0_146_248)">
<path d="M112.079 112.964V111.733H15.7099V112.964H112.079ZM12.2238 88.9163H2.85938V90.3772H4.0427C4.34775 90.3772 4.82015 90.857 4.82015 91.1597V94.6921H10.5681V90.3759H12.2238V88.9163ZM39.9587 108.138V102.354H36.8528V104.829C36.8528 105.681 36.4456 106.678 35.7044 106.678H32.3244C32.0194 106.678 31.5654 106.257 31.5654 105.956V99.4842C31.5654 99.1809 31.7987 98.9456 32.1037 98.9456H33.0624C33.3674 98.9456 33.8332 99.4306 33.8332 99.7333V100.962H36.696V95.1582H33.9004V96.3603C33.9004 96.663 33.3925 97.2023 33.0874 97.2023H32.1044C31.7993 97.2023 31.5661 96.8584 31.5661 96.5545V91.0106C31.5661 90.708 32.02 90.3785 32.3251 90.3785H35.6161C36.0424 90.3785 36.418 90.7635 36.418 91.1871V93.8424H39.3051V88.9163H23.8501V90.3772H25.0334C25.3385 90.3772 25.8102 90.857 25.8102 91.1597V106C25.8102 106.303 25.3563 106.678 25.0512 106.678H23.8692V108.136L39.9587 108.138ZM45.706 96.2865L52.1207 108.138H57.7823V91.1048C57.7823 90.8021 58.2362 90.3772 58.5413 90.3772H59.724V88.9163H53.3738V90.3772H54.5624C54.8675 90.3772 55.3221 90.8002 55.3221 91.1022V101.107L48.4323 88.9163H41.285V90.3772H42.4677C42.7734 90.3772 43.2458 90.8341 43.2458 91.1368V105.977C43.2458 106.281 42.7912 106.678 42.4868 106.678H41.3041V108.136H47.6542V106.678H46.4663C46.1606 106.678 45.7066 106.283 45.7066 105.981L45.706 96.2865ZM64.1746 95.8733L61.018 106.045C60.9007 106.358 60.7162 106.68 60.4112 106.68H59.1791V108.138H65.0924L65.0799 106.68H63.8992C63.5941 106.68 63.2733 106.352 63.3609 106.049L64.6134 101.517C64.6424 101.399 64.7201 101.294 64.8427 101.294H67.2456V99.5248L65.5147 99.5261C65.3915 99.5261 65.2459 99.4065 65.2835 99.2862L66.2559 95.8733H64.1746Z" fill="#6E7E9B"/>
<path d="M67.2464 101.293H69.4727C69.5953 101.293 69.702 101.398 69.7304 101.517L70.9835 106.048C71.0725 106.351 70.7503 106.679 70.4459 106.679H69.2632L69.2514 108.138H78.9479V106.679H77.7165C77.4114 106.679 77.2263 106.358 77.109 106.045L72.0311 88.9163H63.4883V90.3772H64.4548C65.3456 90.3805 65.6869 91.0204 65.5103 91.6526L64.1742 95.872H66.2555L67.1977 92.6403L69.1097 99.2829C69.1486 99.4045 68.976 99.5248 68.8534 99.5248H67.2451V101.293H67.2464ZM93.5101 103.662L93.5114 91.1675C93.5114 90.8642 93.9805 90.3785 94.2856 90.3785H95.463V88.9176H89.5668V90.3785H90.7494C91.0545 90.3785 91.523 90.8753 91.523 91.178L91.5216 103.729C91.4828 107.173 85.242 107.534 85.2031 103.589V91.1525C85.2031 90.8492 85.6716 90.3785 85.9766 90.3785H87.154V88.9176H77.5043V90.3785H78.6883C78.9933 90.3785 79.4618 90.8577 79.4618 91.1616V103.721C79.4611 109.91 93.5101 110.239 93.5101 103.662ZM104.543 91.144C104.543 90.8407 105.019 90.3772 105.325 90.3772H106.511V88.9163H96.8327V90.3772H98.0167C98.3218 90.3772 98.7942 90.8341 98.7942 91.1368V105.977C98.7942 106.28 98.3409 106.678 98.0358 106.678H97.0732V108.136H112.076V102.33H108.969V104.806C108.969 105.658 108.563 106.677 107.822 106.677H105.301C104.995 106.677 104.542 106.233 104.542 105.93L104.543 91.144Z" fill="#6E7E9B"/>
<path d="M118.099 108.138H122.93V106.679H121.748C121.442 106.679 120.974 106.252 120.974 105.95V90.704C120.974 90.5223 121.118 90.3805 121.302 90.3805C122.71 90.4341 123.317 90.8877 123.317 92.7965V94.5771H126.125V88.9162H110.076V94.5771H112.884V92.7965C112.884 90.8877 113.491 90.4341 114.897 90.3805C115.081 90.3805 115.227 90.5223 115.227 90.704V105.948C115.227 106.252 114.758 106.678 114.453 106.678H113.271V108.136L118.099 108.138ZM11.1717 98.8175C11.4082 98.8175 11.733 99.0535 11.8674 99.2999L11.8866 99.3175L15.8009 108.136H22.5107V106.678H22.0396C21.6364 106.678 21.4335 106.175 21.1891 105.756L17.1186 98.639C19.6032 98.639 20.8491 96.6976 20.8787 94.1123C20.8491 91.5015 19.6756 88.9149 16.6106 88.9149H12.2239V90.3752H12.751C15.4503 90.3752 15.4899 97.3421 12.751 97.3421H10.5682V94.6908H4.82024V106.006C4.82024 106.309 4.36694 106.677 4.06188 106.677H2.87988V108.135H12.5184V106.677H11.3278C11.0228 106.677 10.5688 106.282 10.5688 105.979L10.5748 98.8168H11.2349H11.1717V98.8175ZM64.8876 64.1726L58.9848 74.3183C58.7924 74.6452 58.2983 74.3667 58.4248 74.0281L63.3386 62.8352L53.5511 46.0174L40.1393 46.0207C40.1564 46.1959 40.2763 46.4273 40.3027 46.4914L57.5175 76.0754C57.6223 76.231 57.8252 76.4454 58.0901 76.448H70.8516C71.1105 76.4454 71.3161 76.2768 71.3846 76.1669L88.6192 46.5299C88.6745 46.443 88.7918 46.1809 88.9367 45.8298H75.5704L64.5001 64.8355L64.8876 64.1726Z" fill="#6E7E9B"/>
<path d="M73.6457 45.9032H88.7982C88.9099 45.9038 89.0175 45.8616 89.0986 45.7853C89.1796 45.7091 89.2278 45.6047 89.2331 45.494C89.2515 45.1161 89.1646 44.6971 88.9774 44.3664L71.7277 14.7588C71.5334 14.4385 71.1921 14.3019 70.8304 14.3182H58.1729C57.8185 14.309 57.4337 14.4581 57.2255 14.7555L57.205 14.7869L40.0449 44.3677C39.8381 44.7344 39.7122 45.2234 39.6845 45.6411C39.6769 45.7552 39.7154 45.8677 39.7914 45.9537C39.8673 46.0398 39.9747 46.0924 40.0897 46.0999L40.1181 46.1006H55.382L64.1251 61.0489C64.1634 61.1142 64.2184 61.1684 64.2845 61.206C64.3506 61.2436 64.4255 61.2634 64.5017 61.2633C64.5779 61.2631 64.6527 61.2431 64.7187 61.2053C64.7846 61.1674 64.8394 61.113 64.8775 61.0475L73.616 45.9607C73.6277 45.9425 73.6377 45.9232 73.6457 45.9032ZM72.8366 45.575L64.4993 59.969L56.1127 45.6293L64.5006 31.2164L72.8366 45.575ZM55.3365 45.2371H40.63C40.6748 45.0743 40.7269 44.9403 40.8046 44.7893L57.9423 15.2458L58.0379 15.1928C58.0741 15.1771 58.1228 15.1804 58.1591 15.1804C58.221 15.1817 70.8785 15.1804 70.9055 15.1778C70.9201 15.1755 70.9351 15.1771 70.9489 15.1825C70.9627 15.1879 70.9748 15.1969 70.9839 15.2085L88.2171 44.79C88.2606 44.8736 88.2916 44.9482 88.3159 45.039H73.5291L64.8775 30.1372C64.8393 30.0716 64.7844 30.0171 64.7183 29.9792C64.6522 29.9413 64.5772 29.9214 64.5008 29.9213C64.4245 29.9212 64.3495 29.9411 64.2833 29.9788C64.2171 30.0166 64.1621 30.071 64.1238 30.1365L55.3365 45.2371Z" fill="#6E7E9B"/>
<path d="M53.4239 45.2919H55.7536L64.5007 30.3528L73.0956 45.1723L75.4556 45.1736L65.6306 28.2924L70.6018 17.0845C70.7329 16.7832 70.2038 16.5393 70.0292 16.8368L53.4239 45.2919ZM57.1972 76.2265C57.3922 76.5664 57.7085 76.771 58.0998 76.8135L58.1235 76.8161H70.9226C71.2639 76.8044 71.6204 76.6279 71.8081 76.3389L89.075 46.6451C89.1448 46.4921 89.1844 45.9737 89.2061 45.7234L88.3404 45.6482L88.2942 46.1633L88.2751 46.2934L71.0801 75.8644C71.0585 75.8908 71.0314 75.9123 71.0008 75.9275C70.9701 75.9428 70.9365 75.9513 70.9022 75.9526H58.1756C58.0853 75.9454 57.9951 75.8716 57.9522 75.7977L40.7499 46.2345C40.7009 46.1272 40.6597 46.0164 40.6267 45.9031C40.6128 45.7895 40.5539 45.686 40.463 45.6155C40.3721 45.5449 40.2567 45.5131 40.1421 45.5269C40.0276 45.5408 39.9233 45.5993 39.8522 45.6894C39.7811 45.7796 39.749 45.8941 39.763 46.0077C39.7748 46.1025 39.8005 46.2143 39.8348 46.3032L39.9672 46.6169L57.1972 76.2265Z" fill="#6E7E9B"/>
</g>
<defs>
<clipPath id="clip0_146_248">
<rect width="127" height="126" fill="white" transform="translate(0.992188 0.640625)"/>
</clipPath>
</defs>
</svg>
