<svg xmlns="http://www.w3.org/2000/svg" width="80" height="80" viewBox="0 0 80 80" fill="none">
<circle cx="40" cy="40" r="40" fill="white"/>
<path d="M45.3501 9.85645C46.2431 10.2623 46.5678 10.9118 46.4055 11.8859C46.1619 14.4837 45.9184 17.0002 45.5937 19.598C45.5125 20.4909 44.9442 21.0592 43.9701 21.0592C43.1583 21.0592 42.4277 21.0592 41.6159 21.0592C41.6159 22.5204 41.6159 23.9816 41.6159 25.4429C46.5678 26.9041 48.1102 33.0737 44.1325 36.5644C44.2136 36.6456 44.376 36.808 44.4572 36.8891C48.1102 40.7857 51.6821 44.7635 55.3352 48.6601C55.8223 49.1472 56.0658 49.7155 55.9846 50.4461C55.9846 53.5309 55.9846 56.5345 55.9846 59.6193C55.9846 60.7558 55.4164 61.3241 54.2799 61.3241C44.7819 61.3241 35.2027 61.3241 25.7048 61.3241C24.6494 61.3241 24 60.7558 24 59.6193C24 56.5345 24 53.4497 24 50.3649C24 49.7155 24.1624 49.3096 24.5683 48.8225C28.2213 44.8447 31.8744 40.8669 35.6086 36.8891C35.6898 36.808 35.771 36.6456 35.8522 36.5644C35.4463 36.0773 35.0404 35.6714 34.7157 35.2655C34.1474 34.5349 34.3098 33.642 35.0404 33.1549C35.6898 32.6678 36.664 32.749 37.151 33.4796C37.7193 34.2102 38.4499 34.7785 39.3429 34.9408C41.1288 35.2655 42.8336 34.129 43.1583 32.4243C43.5642 30.6383 42.3465 28.7712 40.6417 28.3653C40.3982 28.2841 40.1547 28.2841 39.9111 28.2841C39.0182 28.203 38.4499 27.6347 38.4499 26.6605C38.4499 24.8746 38.4499 23.0887 38.4499 21.3027C38.4499 21.2215 38.4499 21.1404 38.4499 21.0592C37.7193 21.0592 36.9075 21.0592 36.1769 21.0592C35.1216 21.0592 34.5533 20.5721 34.4721 19.5168C34.2286 17.0002 33.985 14.4025 33.6603 11.8859C33.5791 10.9118 33.9039 10.2623 34.7157 9.93762C38.3687 9.85645 41.8594 9.85645 45.3501 9.85645ZM53.0622 51.5826C44.376 51.5826 35.771 51.5826 27.2472 51.5826C27.2472 53.8556 27.2472 56.0474 27.2472 58.2393C35.8522 58.2393 44.4572 58.2393 53.0622 58.2393C53.0622 55.9663 53.0622 53.7744 53.0622 51.5826ZM29.1955 48.4978C36.5016 48.4978 43.8077 48.4978 51.1139 48.4978C47.8667 45.0071 44.7007 41.5163 41.4535 38.1068C41.3724 38.0256 41.1288 37.9445 40.9665 37.9445C40.3982 37.9445 39.83 37.9445 39.3429 37.9445C39.1805 37.9445 38.8558 38.0256 38.7746 38.1068C38.044 38.8374 37.3946 39.568 36.664 40.3798C34.1474 43.0588 31.712 45.7377 29.1955 48.4978ZM43.2395 12.8601C41.1288 12.8601 39.0182 12.8601 36.9887 12.8601C37.151 14.5648 37.3134 16.2696 37.4758 17.8932C39.2617 17.8932 40.9665 17.8932 42.7524 17.8932C42.9148 16.2696 43.0771 14.5648 43.2395 12.8601Z" fill="#E1292C"/>
</svg>