<svg width="80" height="80" viewBox="0 0 80 80" fill="none" xmlns="http://www.w3.org/2000/svg">
<circle cx="40" cy="40" r="40" fill="white"/>
<g clip-path="url(#clip0_183_11073)">
<path d="M38.2811 69.0328C37.3497 68.8895 36.3826 68.782 35.4512 68.5671C29.6124 67.4208 24.8841 64.4835 21.1587 59.8626C18.3647 56.3164 16.7169 52.2686 16.1796 47.791C14.89 37.6537 20.693 27.4089 30.0423 23.2537C31.4393 22.6447 32.9438 22.1432 34.4482 21.6059C34.4482 20.8895 34.4482 20.1014 34.4482 19.2417C33.8393 19.2417 33.2662 19.2417 32.6572 19.2417C31.5467 19.2417 30.7945 18.4537 30.7945 17.3432C30.7945 15.5522 30.7945 13.7253 30.7945 11.9343C30.7945 10.788 31.5467 10.0358 32.7288 10.0358C37.6005 10.0358 42.4363 10.0358 47.3079 10.0358C48.49 10.0358 49.2423 10.788 49.2423 11.9701C49.2423 13.7611 49.2423 15.5522 49.2423 17.3432C49.2423 18.4895 48.49 19.2417 47.3079 19.2417C46.7348 19.2417 46.1617 19.2417 45.5527 19.2417C45.5527 20.1014 45.5527 20.8895 45.5527 21.7134C47.9527 22.2865 50.1736 23.2179 52.287 24.4358C52.4303 24.5074 52.7169 24.4358 52.8602 24.3283C53.4333 23.791 53.9706 23.2179 54.5438 22.6805C56.7288 20.7462 60.1318 20.8537 62.1736 22.8955C64.2512 24.9731 64.3229 28.3044 62.3169 30.4895C61.8154 31.0626 61.2781 31.5999 60.705 32.1373C60.3826 32.4238 60.49 32.6388 60.6691 32.9253C62.2453 35.5402 63.2482 38.3701 63.6781 41.379C64.5378 47.182 63.499 52.6626 60.3467 57.6417C56.6214 63.588 51.2482 67.2417 44.3706 68.6387C43.4751 68.8179 42.5796 68.8895 41.7199 69.0328C40.5736 69.0328 39.4273 69.0328 38.2811 69.0328ZM40.0005 24.7582C28.8602 24.7582 19.7259 33.8567 19.7259 45.0328C19.69 56.1731 28.8602 65.3432 40.0363 65.3432C51.1766 65.3432 60.3109 56.2447 60.3109 45.0686C60.3109 33.9283 51.1766 24.7582 40.0005 24.7582ZM45.5169 13.7253C41.8273 13.7253 38.1736 13.7253 34.5199 13.7253C34.5199 14.3343 34.5199 14.9432 34.5199 15.5164C38.2094 15.5164 41.8632 15.5164 45.5169 15.5164C45.5169 14.9074 45.5169 14.3343 45.5169 13.7253ZM58.305 29.3074C58.7348 28.8776 59.2005 28.4835 59.6303 27.982C60.2751 27.2656 60.2393 26.1552 59.5587 25.4746C58.9139 24.8298 57.7676 24.7582 57.0512 25.3671C56.5497 25.797 56.1199 26.2626 55.69 26.6567C56.6214 27.588 57.4811 28.4477 58.305 29.3074ZM41.8273 19.2417C40.5736 19.2417 39.3915 19.2417 38.2094 19.2417C38.2094 19.8507 38.2094 20.4238 38.2094 21.0328C39.4273 21.0328 40.6453 21.0328 41.8273 21.0328C41.8273 20.4238 41.8273 19.8507 41.8273 19.2417Z" fill="#E1292C"/>
<path d="M45.5525 45.1761C45.445 47.3612 44.3704 49.1522 42.2211 50.0836C40.0361 51.0507 37.9943 50.6925 36.2391 49.0806C34.5197 47.4687 34.054 45.4627 34.7704 43.2418C34.9137 42.7761 34.8779 42.4895 34.5197 42.1672C32.4062 40.0537 30.2928 37.9403 28.1794 35.8269C27.5704 35.2179 27.3555 34.5373 27.642 33.7492C28.1077 32.4955 29.6838 32.1731 30.6868 33.1045C32.0122 34.3582 33.2659 35.6836 34.5555 36.9731C35.451 37.8687 36.3823 38.8 37.2779 39.6955C37.5286 39.9463 37.7435 40.0179 38.0659 39.8746C41.4689 38.6567 44.9435 40.7343 45.5167 44.3164C45.5525 44.5672 45.5525 44.8179 45.5525 45.1761ZM40.0361 46.8955C41.0032 46.8955 41.8629 46 41.8629 45.0328C41.8629 44.0657 41.0032 43.206 40.0003 43.206C39.0331 43.206 38.1734 44.1015 38.1734 45.0687C38.1734 46.0358 39.0331 46.8955 40.0361 46.8955Z" fill="#E1292C"/>
<path d="M23.3799 44.4597C23.4873 43.7791 23.7023 42.4896 23.8456 41.2C23.9888 39.8746 25.0276 39.1224 26.2097 39.409C27.2844 39.6597 27.75 40.6627 27.4635 41.9881C26.8187 44.8179 26.962 47.5761 28.2157 50.1911C30.5441 55.1343 34.4844 57.6776 39.9291 57.9284C41.0038 57.9642 41.7918 58.6448 41.8635 59.6119C41.9351 60.7582 41.147 61.6179 40.0008 61.6179C35.559 61.5821 31.6903 60.0418 28.5023 56.9612C25.1351 53.7373 23.4873 49.7612 23.3799 44.4597Z" fill="#E1292C"/>
</g>
<defs>
<clipPath id="clip0_183_11073">
<rect width="48" height="59.0328" fill="white" transform="translate(16 10)"/>
</clipPath>
</defs>
</svg>
