<svg width="191" height="61" viewBox="0 0 191 61" fill="none" xmlns="http://www.w3.org/2000/svg">
<path d="M19.8783 11.2785H6.77117V0.320312H0.617188V28.3886H6.77117V16.7649H19.8783V28.3886H26.0295V0.320312H19.8783V11.2785ZM153.512 1.92126C152.221 3.24218 152.169 5.16949 152.136 6.29297V28.3886H158.28V19.433H171.333V28.3886H177.504V0.320312H158.324C156.501 0.337101 154.796 0.601687 153.512 1.92126ZM159.848 5.80477H171.334V13.9525H158.28V7.40773C158.306 7.08539 158.244 6.50115 158.516 6.15531C158.807 5.79066 159.27 5.82021 159.848 5.80477ZM109.987 0.320312H90.7712V28.3886H96.9252V5.80477H108.464C109.037 5.82021 109.507 5.79066 109.792 6.15464C110.067 6.50048 110.013 7.08472 110.032 7.40706V28.3879H116.18V6.29297C116.146 5.16949 116.098 3.24218 114.812 1.92126C113.522 0.601687 111.819 0.337101 109.987 0.320312ZM79.1738 21.2985C79.1516 21.6276 79.2073 22.199 78.936 22.5476C78.6446 22.9156 78.1765 22.8833 77.6057 22.8988H66.07V0.320312H59.9134V28.3886H79.1328C80.9607 28.3745 82.6651 28.1025 83.9511 26.783C85.2425 25.4641 85.2915 23.5394 85.3264 22.4119V0.320312H79.1751V21.2985H79.1738ZM147.033 6.29297C147.003 5.16949 146.951 3.24218 145.666 1.92126C144.38 0.601687 142.673 0.337101 140.848 0.320312H121.636V28.3886H140.848C142.673 28.3745 144.38 28.1025 145.666 26.783C146.951 25.4641 147.003 23.5394 147.033 22.4119V6.29297ZM140.904 21.2985C140.881 21.6276 140.938 22.199 140.669 22.5476C140.38 22.9156 139.906 22.8833 139.335 22.8988H127.784V5.80477H139.335C139.907 5.82021 140.38 5.79066 140.669 6.15464C140.937 6.50048 140.881 7.08472 140.904 7.40706V21.2985ZM42.9772 12.6007L35.513 0.320312H28.2033L39.69 18.016V28.3886H46.2603V18.016L57.745 0.320312H50.4326L42.9772 12.6007ZM183.67 0.320312H190.231V28.3886H183.67V0.320312ZM0.617188 35.7319H190.231V39.9599H0.617188V35.7319ZM123.916 56.7269C124.521 56.657 125.067 56.4757 125.509 56.0177C126.108 55.4073 126.136 54.5182 126.148 53.9964V50.6629C126.136 50.1438 126.107 49.2513 125.509 48.6402C124.918 48.0298 124.129 47.9062 123.284 47.8981H114.352V60.9602H117.24V56.7584H120.89L123.702 60.9602H126.75L123.916 56.7269ZM123.434 53.5008C123.42 53.6351 123.405 53.7754 123.327 53.8789C123.194 54.0481 122.974 54.0367 122.711 54.0367H117.241V50.6192H122.711C122.974 50.6266 123.194 50.6125 123.327 50.7831C123.405 50.8851 123.421 51.0309 123.434 51.1585V53.5008ZM88.9782 56.7269C89.5846 56.657 90.1306 56.4757 90.5751 56.0177C91.1715 55.4073 91.201 54.5182 91.2124 53.9964V50.6629C91.201 50.1438 91.1715 49.2513 90.5751 48.6402C89.9822 48.0298 89.1911 47.9062 88.345 47.8981H79.4162V60.9602H82.3011V56.7584H85.9529L88.7653 60.9602H91.8101L88.9782 56.7269ZM88.4934 53.5008C88.4833 53.6351 88.4678 53.7754 88.3899 53.8789C88.257 54.0481 88.0387 54.0367 87.7735 54.0367H82.3018V50.6192H87.7735C88.0387 50.6266 88.257 50.6125 88.3899 50.7831C88.4685 50.8851 88.484 51.0309 88.4934 51.1585V53.5008ZM51.6299 47.8988V50.7589H56.0923V60.9609H58.9537V50.7589H63.4201V47.8988H51.6299ZM21.8096 47.8988V60.9609H24.6683V52.697L27.4666 60.9609H29.9936L32.7893 52.697V60.9609H35.6473V47.8988H31.8565L28.7285 57.0975L25.6011 47.8988H21.8096ZM157.266 60.9609H160.124V57.2171H166.172C167.02 57.213 167.809 57.0868 168.398 56.4764C168.998 55.8606 169.026 54.9735 169.04 54.4571V50.6655C169.026 50.1444 168.997 49.2567 168.398 48.6429C167.808 48.0351 167.02 47.9075 166.172 47.8995H157.266V60.9609ZM166.314 53.9547C166.308 54.0837 166.294 54.2294 166.216 54.3328C166.082 54.4994 165.863 54.4953 165.597 54.4953H160.124V50.6185H165.597C165.863 50.6239 166.082 50.6132 166.216 50.7851C166.294 50.8858 166.309 51.0275 166.314 51.1591V53.9547ZM103.007 50.9187C103.134 50.7535 103.352 50.7623 103.614 50.7562H111.836V47.8988H102.905C102.059 47.9069 101.272 48.0345 100.673 48.6422C100.075 49.256 100.054 50.1438 100.04 50.6629V58.1968C100.055 58.7166 100.075 59.6091 100.673 60.2195C101.273 60.8273 102.059 60.9549 102.905 60.9609H108.969C109.816 60.9555 110.603 60.8279 111.199 60.2195C111.794 59.6091 111.821 58.7166 111.835 58.1968V53.1321H105.673V55.6826H108.972V57.5596C108.968 57.6925 108.952 57.8383 108.869 57.9376C108.738 58.1055 108.519 58.0961 108.255 58.1002H103.614C103.35 58.0961 103.133 58.1055 103.006 57.9363C102.925 57.8382 102.905 57.6925 102.9 57.5596V51.2975C102.905 51.1679 102.925 51.0235 103.007 50.9187ZM151.903 57.669C151.893 57.8208 151.917 58.0867 151.795 58.2506C151.655 58.4198 151.441 58.407 151.173 58.4131H145.817V47.8988H142.96V60.9609H151.885C152.732 60.9569 153.522 60.8293 154.124 60.2195C154.719 59.6044 154.743 58.7113 154.757 58.1901V47.8988H151.902L151.903 57.669ZM139.892 48.6429C139.299 48.0351 138.506 47.9075 137.662 47.8995H131.599C130.755 47.9075 129.966 48.0351 129.369 48.6429C128.773 49.2567 128.749 50.1444 128.733 50.6655V58.1975C128.749 58.7173 128.774 59.6098 129.369 60.2202C129.966 60.8279 130.755 60.9555 131.599 60.9616H137.662C138.507 60.9562 139.299 60.8286 139.892 60.2202C140.493 59.6098 140.518 58.7173 140.53 58.1975V50.6649C140.517 50.1438 140.492 49.256 139.892 48.6429ZM137.667 57.5602C137.661 57.6932 137.646 57.8389 137.568 57.9383C137.434 58.1062 137.218 58.0968 136.952 58.1008H132.313C132.048 58.0968 131.83 58.1062 131.699 57.9383C131.617 57.8389 131.599 57.6932 131.591 57.5602V51.2981C131.599 51.1679 131.617 51.0235 131.699 50.9207C131.83 50.7528 132.049 50.7656 132.313 50.7555H136.952C137.218 50.7656 137.434 50.7528 137.568 50.9207C137.646 51.0228 137.662 51.1672 137.667 51.2981V57.5602ZM76.3264 48.6429C75.7341 48.0351 74.941 47.9075 74.0983 47.8995H68.0323C67.1895 47.9075 66.4004 48.0351 65.8041 48.6429C65.2071 49.2567 65.1836 50.1444 65.1682 50.6655V58.1975C65.1829 58.7173 65.2071 59.6098 65.8041 60.2202C66.4004 60.8279 67.1895 60.9555 68.0323 60.9616H74.0983C74.9417 60.9562 75.7341 60.8286 76.3264 60.2202C76.9275 59.6098 76.951 58.7173 76.9624 58.1975V50.6649C76.951 50.1438 76.9275 49.256 76.3264 48.6429ZM74.101 57.5602C74.0983 57.6932 74.0795 57.8389 74.0002 57.9383C73.8686 58.1062 73.6517 58.0968 73.3844 58.1008H68.7454C68.4822 58.0968 68.2653 58.1062 68.1343 57.9383C68.0531 57.8389 68.0323 57.6932 68.0255 57.5602V51.2981C68.0323 51.1679 68.0531 51.0235 68.1343 50.9207C68.2646 50.7528 68.4822 50.7656 68.7454 50.7555H73.3844C73.6517 50.7656 73.8693 50.7528 74.0002 50.9207C74.0801 51.0228 74.0983 51.1672 74.101 51.2981V57.5602ZM49.2406 48.6429C48.6496 48.0351 47.8566 47.9075 47.0124 47.8995H40.9491C40.103 47.9075 39.3133 48.0351 38.721 48.6429C38.1226 49.2567 38.0978 50.1444 38.081 50.6655V58.1975C38.0978 58.7173 38.1233 59.6098 38.721 60.2202C39.3133 60.8279 40.1036 60.9555 40.9491 60.9616H47.0124C47.8572 60.9562 48.6496 60.8286 49.2406 60.2202C49.843 59.6098 49.8651 58.7173 49.8792 58.1975V50.6649C49.8651 50.1438 49.843 49.256 49.2406 48.6429ZM47.0165 57.5602C47.0124 57.6932 46.9983 57.8389 46.9157 57.9383C46.7841 58.1062 46.5659 58.0968 46.3006 58.1008H41.6616C41.397 58.0968 41.1781 58.1062 41.0498 57.9383C40.9686 57.8389 40.9491 57.6932 40.9417 57.5602V51.2981C40.9491 51.1679 40.9686 51.0235 41.0498 50.9207C41.1781 50.7528 41.397 50.7656 41.6616 50.7555H46.3006C46.5652 50.7656 46.7841 50.7528 46.9157 50.9207C46.9983 51.0228 47.0124 51.1672 47.0165 51.2981V57.5602Z" fill="#6E7E9B"/>
</svg>
