<svg width="80" height="80" viewBox="0 0 80 80" fill="none" xmlns="http://www.w3.org/2000/svg">
<circle cx="40" cy="40" r="40" fill="white"/>
<g clip-path="url(#clip0_183_8146)">
<path d="M12.0001 51.916C12.2815 51.7151 12.5427 51.4338 12.8642 51.2931C14.3109 50.6703 15.7777 50.0474 17.2445 49.4847C17.9478 49.2034 17.5861 48.6609 17.6665 48.239C17.7267 47.8371 17.3851 47.8974 17.1641 47.8371C15.5567 47.4151 14.4314 46.0086 14.4113 44.3208C14.3912 42.9142 14.3912 41.5077 14.3912 40.1213C14.3912 40.1012 14.3712 40.0811 14.3511 40.0409C14.2305 40.0208 14.0898 40.0208 13.9693 39.9806C13.4268 39.8601 12.8642 39.5788 12.8039 39.0362C12.7034 38.132 12.7838 37.2077 12.7838 36.2835C12.7838 36.2433 12.824 36.183 12.8441 36.1428C13.3665 35.6003 13.9693 35.1582 14.2305 34.3947C14.2707 34.254 14.7931 34.1335 14.994 34.2339C15.2553 34.3545 15.416 34.6559 15.5968 34.9171C15.6571 35.0176 15.5968 35.1984 15.5768 35.3592C16.5613 35.3592 17.5459 35.3592 18.5506 35.3592C18.5506 34.3545 18.5506 33.3699 18.5506 32.305C18.1688 32.4657 17.8473 32.5863 17.5057 32.7269C17.0034 32.9279 16.5412 32.8073 16.3403 32.3854C16.1394 31.9634 16.3001 31.4812 16.7824 31.2601C17.2244 31.0592 17.6865 30.8583 18.1487 30.7578C18.4501 30.6774 18.5506 30.577 18.6309 30.2756C18.8118 29.5924 19.3141 29.2307 20.0375 29.2106C20.5398 29.1905 21.0622 29.1905 21.5646 29.2106C22.2879 29.2307 22.73 29.6125 22.9711 30.2957C23.0314 30.4765 23.2323 30.6774 23.4131 30.7176C25.6435 31.3204 27.0701 32.7269 27.6729 34.9573C27.7332 35.1783 27.9341 35.4194 28.115 35.54C28.6374 35.8615 28.8986 36.2835 28.9388 36.8662C28.9589 37.2881 28.9388 37.7101 28.9388 38.132C28.9388 39.3778 28.4766 39.9003 27.1907 40.0409C27.1907 41.3872 27.2309 42.7535 27.1706 44.1198C27.1505 44.7025 27.0299 45.3254 26.7888 45.8479C26.3267 46.9128 25.4627 47.5759 24.3374 47.8371C23.9557 47.9175 23.8552 48.0782 23.8954 48.4198C23.8954 48.5002 23.9155 48.5605 23.8954 48.6408C23.7949 49.1633 24.036 49.4044 24.5183 49.5852C25.322 49.8665 26.0855 50.2282 26.9094 50.5698C27.0701 49.9469 27.2108 49.3642 27.3715 48.7815C27.8337 47.0535 28.8986 45.8278 30.5463 45.1446C32.1939 44.4614 33.8215 43.7582 35.4892 43.0951C35.8107 42.9745 35.9313 42.7937 35.9112 42.4521C35.8911 41.8091 35.9112 41.146 35.9112 40.503C32.435 39.5988 31.6715 38.6344 31.2093 34.676C29.6621 34.254 28.5369 33.2896 28.0949 31.6821C27.6528 30.0746 28.0748 28.6681 29.2603 27.4625C28.5771 26.4177 28.8182 25.2321 28.8986 24.127C28.9589 23.3032 29.6421 22.8812 30.4458 22.7205C30.8075 20.3294 31.9327 18.4004 34.0023 17.1546C34.8663 16.6523 35.871 16.3911 36.8355 16.0696C37.0766 15.9892 37.177 15.929 37.2172 15.6677C37.378 14.4822 37.9205 14.0201 39.106 14C39.5882 14 40.0504 14 40.5326 14C42.1803 14 42.5821 14.3215 42.8433 15.9892C43.0443 16.0294 43.2854 16.0696 43.5064 16.1299C46.7816 16.9537 48.7508 19.0233 49.454 22.3186C49.5143 22.62 49.6148 22.7607 49.9162 22.8611C50.6395 23.0621 51.0615 23.5845 51.1218 24.328C51.1821 25.0312 51.162 25.7546 51.1218 26.4578C51.1017 26.7994 50.9008 27.141 50.7802 27.5027C53.1914 29.9541 52.0662 33.8522 48.7106 34.7363C48.7709 36.1227 48.5498 37.469 47.6256 38.6143C46.7214 39.7395 45.5359 40.3222 44.0489 40.483C44.0489 41.2465 44.0289 41.99 44.069 42.7334C44.069 42.854 44.2298 42.9946 44.3503 43.0549C44.7522 43.2357 45.1541 43.3764 45.5559 43.5773C46.0583 43.8184 46.2391 44.2605 46.0583 44.6825C45.8573 45.1245 45.4153 45.2852 44.913 45.0843C44.4709 44.9236 44.0289 44.7226 43.5466 44.5418C42.6625 45.8881 41.7985 47.2142 40.9144 48.5605C40.8742 48.6408 40.834 48.7212 40.834 48.8217C40.834 50.409 40.834 51.9763 40.834 53.6039C43.2653 53.6039 45.6363 53.6039 48.1279 53.6039C48.0274 51.3735 48.3489 49.2235 49.8157 47.2745C49.2531 46.9932 48.7508 46.7521 48.2284 46.5109C47.8466 46.3301 47.6456 46.0086 47.7662 45.6268C47.8667 45.3656 48.148 45.1446 48.3891 44.9638C48.4695 44.9035 48.6704 44.9437 48.8111 44.9839C50.7199 45.6268 52.026 46.8525 52.5685 48.8217C52.7292 49.4044 52.8699 49.9871 53.0306 50.6301C54.0152 50.2282 54.9797 49.8866 55.8839 49.4044C56.0848 49.2838 56.0446 48.6408 56.0446 48.2591C56.0446 48.1586 55.8035 47.9978 55.6629 47.9577C53.9951 47.5357 52.8096 46.0689 52.7895 44.3409C52.7694 42.9343 52.7895 41.5479 52.7895 40.1414C51.383 39.8802 51.0414 39.4783 51.0414 38.0919C51.0414 37.7302 51.0414 37.3685 51.0414 37.0068C51.0615 36.3638 51.3428 35.9017 51.9054 35.6003C52.0662 35.5199 52.2269 35.319 52.2671 35.1381C52.8699 32.8274 54.2965 31.3807 56.6073 30.798C56.7479 30.7578 56.9287 30.577 56.989 30.4162C57.2703 29.6527 57.7325 29.291 58.5362 29.291C58.9783 29.291 59.4203 29.291 59.8423 29.291C60.6058 29.291 61.1282 29.6527 61.3292 30.3961C61.4095 30.6774 61.5301 30.7578 61.7913 30.8181C64.0619 31.4008 65.4684 32.8475 66.0712 35.098C66.1315 35.2788 66.2721 35.4998 66.453 35.6003C66.9955 35.9017 67.2969 36.3437 67.2969 36.9666C67.2969 37.3886 67.2969 37.8105 67.2969 38.2325C67.2969 39.5185 66.895 39.9806 65.5689 40.1414C65.5689 40.3222 65.5689 40.5231 65.5689 40.704C65.5689 41.9699 65.589 43.2156 65.5488 44.4815C65.5086 46.1493 64.3633 47.5759 62.7357 47.9577C62.374 48.038 62.2535 48.1586 62.2535 48.5203C62.2736 49.4044 62.2535 49.4044 63.0773 49.7661C64.4436 50.3488 65.8301 50.9315 67.1964 51.474C67.6988 51.6749 67.9198 51.9964 67.9198 52.5389C67.8997 56.7786 67.9198 61.0384 67.9198 65.2781C67.9198 65.9211 67.6184 66.3028 67.1361 66.3229C66.6137 66.343 66.2922 65.9412 66.2922 65.2781C66.2922 64.2734 66.2922 63.2687 66.2922 62.244C64.2025 62.244 62.1329 62.244 59.9628 62.244C59.9628 62.6057 59.9628 62.9874 59.9628 63.3491C59.9628 64.0524 59.9829 64.7757 59.9628 65.479C59.9427 65.9813 59.6012 66.3229 59.139 66.3229C58.697 66.3229 58.3353 65.9612 58.3152 65.4589C58.2951 64.5748 58.3152 63.7108 58.3152 62.8267C58.3152 62.6258 58.3152 62.4449 58.3152 62.2038C57.4914 62.2038 56.7077 62.2038 55.8839 62.2038C56.1049 63.1482 56.346 64.0524 56.5671 64.9767C56.7479 65.7201 56.5671 66.1421 56.0045 66.2827C55.5021 66.4033 55.1404 66.0818 54.9596 65.3584C53.7138 60.3552 52.468 55.352 51.2022 50.3287C51.0816 49.8464 50.9409 49.3642 50.7802 48.7614C50.1372 49.8464 49.7755 50.8913 49.7755 52.0165C49.7554 56.3567 49.7554 60.6968 49.7554 65.037C49.7554 65.258 49.7554 65.479 49.6952 65.6799C49.5947 66.0818 49.2933 66.3028 48.8914 66.2827C48.4896 66.2827 48.2083 66.0416 48.1078 65.6398C48.0676 65.4388 48.0676 65.2379 48.0676 65.037C48.0676 63.7309 48.0676 62.4047 48.0676 61.0987C48.0676 60.8977 48.0676 60.7169 48.0676 60.4758C45.6162 60.4758 43.2452 60.4758 40.8139 60.4758C40.8139 60.6968 40.7938 60.8776 40.7938 61.0786C40.7938 62.5052 40.7938 63.9318 40.7938 65.3384C40.7938 65.901 40.4121 66.2827 39.9298 66.2626C39.4677 66.2426 39.1462 65.8809 39.106 65.3384C39.106 65.2178 39.106 65.0771 39.106 64.9566C39.106 63.6907 39.106 62.4047 39.106 61.1389C39.106 60.9379 39.106 60.737 39.106 60.4959C36.6747 60.4959 34.2836 60.4959 31.8121 60.4959C31.8121 60.7169 31.8121 60.9379 31.8121 61.1389C31.8121 62.5454 31.8121 63.9519 31.8121 65.3584C31.8121 65.901 31.4505 66.2626 31.0084 66.2827C30.5262 66.3028 30.1846 65.9211 30.1444 65.3384C30.1444 65.1977 30.1444 65.037 30.1444 64.8963C30.1444 62.0832 30.1444 59.2903 30.1444 56.4772C30.1444 54.93 30.1645 53.3828 30.1243 51.8357C30.1042 50.7707 29.7425 49.7861 29.1196 48.7212C28.8785 49.6455 28.6776 50.409 28.4766 51.2128C27.2911 55.9146 26.1257 60.6365 24.9402 65.3384C24.9201 65.4388 24.8799 65.5594 24.8398 65.6598C24.679 66.1421 24.2771 66.3832 23.8351 66.2425C23.373 66.122 23.1318 65.7201 23.2524 65.2178C23.4533 64.3136 23.6944 63.4094 23.9155 62.5253C23.9356 62.4248 23.9557 62.3244 23.9757 62.1837C23.172 62.1837 22.3884 62.1837 21.5646 62.1837C21.5646 63.2687 21.5646 64.3136 21.5646 65.3584C21.5646 65.8407 21.3234 66.1622 20.8412 66.2425C20.4393 66.3028 20.1178 66.122 19.9772 65.7402C19.8968 65.5393 19.9169 65.3183 19.9169 65.0972C19.9169 64.1328 19.9169 63.1683 19.9169 62.1837C17.787 62.1837 15.7174 62.1837 13.5875 62.1837C13.5875 63.1683 13.5875 64.1328 13.5875 65.1173C13.5875 65.5795 13.5674 66.0014 13.0651 66.2024C12.5628 66.4033 12.2413 66.1019 11.96 65.7603C12.0001 61.1188 12.0001 56.5174 12.0001 51.916ZM32.9976 28.0251C32.9775 28.1859 32.9574 28.2863 32.9574 28.4069C32.9574 30.7779 32.9374 33.1489 32.9574 35.5199C32.9775 37.3685 34.2836 38.7549 36.1322 38.7951C38.684 38.8353 41.2359 38.8353 43.7877 38.7951C45.6363 38.7549 46.9826 37.3886 47.0027 35.54C47.0228 33.169 47.0027 30.798 47.0027 28.427C47.0027 28.3064 46.9826 28.1859 46.9625 28.0251C42.3209 28.0251 37.6794 28.0251 32.9976 28.0251ZM36.4336 44.4815C34.3439 45.4259 32.214 46.1292 30.1645 47.2142C31.6112 49.1633 31.9528 51.3132 31.8523 53.5436C34.3238 53.5436 36.7149 53.5436 39.1462 53.5436C39.1462 51.9361 39.1462 50.3689 39.1462 48.8217C39.1462 48.7011 39.106 48.5605 39.0256 48.46C38.1817 47.1338 37.3177 45.8278 36.4336 44.4815ZM63.9413 40.0208C62.6152 40.0208 61.3493 40.0208 60.0231 40.0208C60.0231 40.3624 60.0231 40.704 60.0231 41.0255C60.003 41.5881 59.6815 41.9297 59.2194 41.9498C58.7371 41.9498 58.3956 41.568 58.3755 41.0054C58.3755 40.6839 58.3755 40.3624 58.3755 40.0409C57.0292 40.0409 55.7633 40.0409 54.4975 40.0409C54.4975 41.568 54.4372 43.0549 54.5176 44.5418C54.5778 45.5264 55.3414 46.2497 56.3059 46.2899C58.2549 46.3502 60.204 46.3502 62.153 46.2899C63.1376 46.2698 63.9212 45.4058 63.9413 44.4212C63.9815 42.9544 63.9413 41.5077 63.9413 40.0208ZM16.0992 40.0208C16.0791 40.1012 16.059 40.1213 16.059 40.1615C16.059 41.4675 16.059 42.7736 16.059 44.0997C16.059 45.4259 16.8828 46.2899 18.2291 46.2899C19.937 46.31 21.6449 46.31 23.3529 46.2899C24.6991 46.2698 25.5229 45.446 25.543 44.0997C25.5631 42.854 25.543 41.5881 25.543 40.3222C25.543 40.2217 25.5028 40.1213 25.4827 40.0208C24.1968 40.0208 22.9309 40.0208 21.6248 40.0208C21.6248 40.2217 21.6248 40.3825 21.6248 40.5432C21.6248 40.7241 21.6248 40.9049 21.6248 41.0858C21.5846 41.568 21.2431 41.9297 20.801 41.9297C20.359 41.9297 20.0174 41.5881 19.9973 41.0858C19.9772 40.7442 19.9973 40.4026 19.9973 40.0208C18.651 40.0208 17.3851 40.0208 16.0992 40.0208ZM66.3324 58.4664C65.9506 58.4664 65.6291 58.4664 65.2876 58.4664C64.6848 58.4464 64.2829 58.1048 64.2829 57.6024C64.2829 57.1202 64.6647 56.7987 65.2474 56.7786C65.589 56.7585 65.9305 56.7786 66.3324 56.7786C66.3324 55.4725 66.3324 54.2268 66.3123 52.981C66.3123 52.8604 66.1114 52.6997 65.9707 52.6394C65.0464 52.2375 64.1221 51.8558 63.1979 51.474C62.7558 51.2931 62.3137 51.1123 61.8717 50.9315C61.3694 51.916 60.9675 52.8805 60.425 53.7646C59.8423 54.7291 60.0432 55.7137 60.003 56.7987C60.3848 56.7987 60.7063 56.7987 61.0278 56.7987C61.731 56.8188 62.0927 57.1001 62.0927 57.6225C62.0927 58.145 61.731 58.4664 61.0479 58.4664C60.7063 58.4664 60.3647 58.4664 60.0432 58.4664C60.0432 59.1697 60.0432 59.7725 60.0432 60.3954C62.153 60.3954 64.2226 60.3954 66.3123 60.3954C66.3324 59.7524 66.3324 59.1496 66.3324 58.4664ZM30.5061 26.2971C36.8555 26.2971 43.1648 26.2971 49.4741 26.2971C49.4741 25.6541 49.4741 25.0714 49.4741 24.4485C43.1447 24.4485 36.8355 24.4485 30.5061 24.4485C30.5061 25.0915 30.5061 25.6742 30.5061 26.2971ZM18.1085 50.9315C16.9833 51.3936 15.8982 51.8357 14.8333 52.2777C13.6478 52.78 13.6478 52.78 13.6478 54.0861C13.6478 54.9702 13.6478 55.8543 13.6478 56.7384C15.7978 56.7384 17.8674 56.7384 20.0174 56.7384C19.9772 55.9548 20.1178 55.1511 19.8566 54.488C19.3945 53.2824 18.7113 52.1371 18.1085 50.9315ZM39.1261 55.2917C36.7149 55.2917 34.3238 55.2917 31.9126 55.2917C31.9126 56.437 31.9126 57.5622 31.9126 58.6875C34.3439 58.6875 36.735 58.6875 39.1261 58.6875C39.1261 57.5422 39.1261 56.437 39.1261 55.2917ZM48.1078 55.2716C45.6564 55.2716 43.2854 55.2716 40.8742 55.2716C40.8742 56.4169 40.8742 57.5422 40.8742 58.6674C43.3055 58.6674 45.6966 58.6674 48.1078 58.6674C48.1078 57.5422 48.1078 56.437 48.1078 55.2716ZM21.6248 56.7786C22.8304 56.7786 23.9557 56.7786 25.0809 56.7585C25.2014 56.7585 25.4225 56.5978 25.4426 56.4772C25.8243 55.0506 26.1659 53.6441 26.5276 52.1772C25.5028 51.7553 24.4982 51.3333 23.4734 50.8913C23.0314 51.7754 22.6697 52.6796 22.1473 53.4833C21.4842 54.5282 21.6248 55.6132 21.6248 56.7786ZM58.3353 56.7786C58.3353 55.995 58.5362 55.1912 58.2951 54.5683C57.8329 53.3226 57.1297 52.1572 56.5068 50.9315C55.4619 51.3534 54.4774 51.7754 53.4325 52.1973C53.7942 53.6441 54.1559 55.0707 54.5176 56.4772C54.5577 56.5978 54.7587 56.7585 54.8792 56.7585C56.0245 56.7987 57.1498 56.7786 58.3353 56.7786ZM52.7493 38.2928C57.0895 38.2928 61.3694 38.2928 65.6492 38.2928C65.6492 37.8708 65.6492 37.469 65.6492 37.0872C61.3292 37.0872 57.0493 37.0872 52.7493 37.0872C52.7493 37.4891 52.7493 37.8708 52.7493 38.2928ZM14.3109 38.2928C18.651 38.2928 22.9309 38.2928 27.2309 38.2928C27.2309 37.8507 27.2309 37.469 27.2309 37.0872C22.9108 37.0872 18.6108 37.0872 14.3109 37.0872C14.3109 37.4891 14.3109 37.8708 14.3109 38.2928ZM42.8233 22.7205C44.5111 22.7205 46.1587 22.7205 47.9872 22.7205C47.5854 21.7761 47.2237 20.9121 46.8419 19.9878C46.5405 20.1887 46.3597 20.2892 46.1989 20.4098C46.0382 20.5102 45.8774 20.6509 45.6966 20.7513C45.2545 20.9925 44.7924 20.9121 44.5312 20.5303C44.27 20.1485 44.3503 19.7065 44.7723 19.385C44.9933 19.2042 45.2345 19.0635 45.4756 18.8827C44.8125 18.2598 43.6069 17.7574 42.8032 17.7775C42.8233 19.385 42.8233 21.0527 42.8233 22.7205ZM37.1971 17.6771C36.1724 17.8579 35.2883 18.1794 34.4845 18.8224C34.6654 18.9429 34.7859 19.0233 34.9065 19.1037C35.6098 19.5859 35.7705 19.9878 35.4691 20.47C35.1476 20.9523 34.6654 20.9523 33.942 20.47C33.721 20.3294 33.5 20.1686 33.1584 19.9476C32.7766 20.892 32.4149 21.756 32.0332 22.6803C33.8616 22.6803 35.5093 22.6803 37.1971 22.6803C37.1971 21.0126 37.1971 19.385 37.1971 17.6771ZM38.9252 15.7079C38.9252 18.0388 38.9252 20.3696 38.9252 22.6803C39.6686 22.6803 40.3719 22.6803 41.0751 22.6803C41.0751 20.3294 41.0751 18.0388 41.0751 15.7079C40.3518 15.7079 39.6686 15.7079 38.9252 15.7079ZM13.6478 60.3954C15.7777 60.3954 17.8272 60.3954 19.937 60.3954C19.937 59.7524 19.937 59.1496 19.937 58.5066C17.8272 58.5066 15.7576 58.5066 13.6478 58.5066C13.6478 59.1496 13.6478 59.7524 13.6478 60.3954ZM42.3812 40.483C40.7536 40.483 39.1864 40.483 37.6191 40.483C37.6191 41.2264 37.6191 41.9096 37.6191 42.6128C39.2266 42.6128 40.7938 42.6128 42.3812 42.6128C42.3812 41.8694 42.3812 41.1862 42.3812 40.483ZM64.4235 35.3793C64.1824 33.8723 62.8161 32.526 61.4698 32.4055C61.4698 33.39 61.4698 34.3746 61.4698 35.3793C62.4745 35.3793 63.439 35.3793 64.4235 35.3793ZM23.0515 32.3854C23.0515 33.3699 23.0515 34.3545 23.0515 35.3592C24.0561 35.3592 25.0005 35.3592 25.965 35.3592C25.9449 34.0732 24.4781 32.5863 23.0515 32.3854ZM56.9488 32.3854C55.482 32.6064 54.0353 34.0933 54.0152 35.3592C54.9797 35.3592 55.9643 35.3592 56.9488 35.3592C56.9488 34.3344 56.9488 33.3498 56.9488 32.3854ZM21.6449 60.4356C22.529 60.4356 23.3529 60.4356 24.1968 60.4356C24.2972 60.4356 24.4781 60.3552 24.4982 60.2748C24.6589 59.6921 24.7996 59.1094 24.9603 58.5066C23.7949 58.5066 22.73 58.5066 21.6449 58.5066C21.6449 59.1295 21.6449 59.7524 21.6449 60.4356ZM55.04 58.4865C55.2007 59.1094 55.3213 59.652 55.4619 60.1945C55.482 60.2949 55.6227 60.4155 55.7031 60.4155C56.5872 60.4356 57.4713 60.4356 58.3353 60.4356C58.3353 59.7323 58.3353 59.1295 58.3353 58.5066C57.2502 58.4865 56.1853 58.4865 55.04 58.4865ZM31.2495 28.226C30.1846 28.5274 29.5215 29.5522 29.5818 30.7578C29.6421 31.7424 30.3855 32.7069 31.2495 32.8475C31.2495 31.3003 31.2495 29.7732 31.2495 28.226ZM48.7508 32.8676C49.7554 32.6064 50.4386 31.6017 50.4185 30.4564C50.3984 29.4116 49.6751 28.427 48.7508 28.2461C48.7508 29.7933 48.7508 31.3204 48.7508 32.8676ZM20.2585 30.8985C20.2585 32.4055 20.2585 33.8723 20.2585 35.3391C20.6202 35.3391 20.9618 35.3391 21.3033 35.3391C21.3033 33.8321 21.3033 32.3854 21.3033 30.8985C20.9417 30.8985 20.6001 30.8985 20.2585 30.8985ZM58.697 30.8985C58.697 32.4055 58.697 33.8723 58.697 35.3391C59.0586 35.3391 59.4002 35.3391 59.7418 35.3391C59.7418 33.8321 59.7418 32.3854 59.7418 30.8985C59.3801 30.8985 59.0586 30.8985 58.697 30.8985ZM38.3023 44.3007C38.885 45.1848 39.4275 46.0086 39.9901 46.8927C40.5728 45.9885 41.1153 45.1848 41.6779 44.3007C40.5326 44.3007 39.4878 44.3007 38.3023 44.3007ZM19.3543 48.9824C20.3389 48.9824 21.2832 48.9824 22.2276 48.9824C22.2276 48.6408 22.2276 48.3193 22.2276 47.9978C21.2431 47.9978 20.3188 47.9978 19.3543 47.9978C19.3543 48.3394 19.3543 48.6408 19.3543 48.9824ZM60.646 48.9824C60.646 48.6408 60.646 48.3193 60.646 48.0179C59.6614 48.0179 58.717 48.0179 57.7727 48.0179C57.7727 48.3595 57.7727 48.6609 57.7727 48.9824C58.7371 48.9824 59.6815 48.9824 60.646 48.9824ZM19.8566 50.7305C20.158 51.3534 20.4594 51.916 20.7809 52.559C21.1024 51.8959 21.3837 51.3333 21.7052 50.7305C21.0622 50.7305 20.4996 50.7305 19.8566 50.7305ZM59.1993 52.559C59.5208 51.916 59.8222 51.3333 60.1236 50.7305C59.4806 50.7305 58.918 50.7305 58.275 50.7305C58.5965 51.3534 58.8778 51.916 59.1993 52.559Z" fill="#E1292C"/>
<path d="M39.8895 36.9264C38.9049 36.8662 38.061 36.404 37.4983 35.4395C37.217 34.9372 37.3175 34.455 37.7596 34.2138C38.1815 33.9727 38.5834 34.1134 38.9049 34.5755C39.5278 35.4797 40.4521 35.4998 41.0549 34.5956C41.3964 34.0933 41.8184 33.9727 42.2404 34.2339C42.6623 34.4951 42.7226 34.9774 42.4413 35.4797C41.9792 36.3437 40.9946 36.9264 39.8895 36.9264Z" fill="#E1292C"/>
<path d="M39.1466 31.0793C39.1466 30.6373 39.1265 30.2153 39.1466 29.7733C39.1868 29.2307 39.5284 28.8892 40.0106 28.8892C40.4527 28.9093 40.8144 29.2307 40.8144 29.7532C40.8345 30.5971 40.8345 31.4611 40.8144 32.305C40.7943 32.8274 40.4125 33.1891 39.9704 33.1891C39.5284 33.169 39.1868 32.8074 39.1466 32.2648C39.1466 31.8831 39.1466 31.4812 39.1466 31.0793Z" fill="#E1292C"/>
<path d="M59.2599 45.1446C58.3557 45.1045 57.6725 44.7227 57.2305 43.9391C56.9693 43.497 57.0697 43.0549 57.4515 42.7937C57.8534 42.5325 58.2552 42.6129 58.5968 43.0349C59.0791 43.6377 59.3403 43.6176 59.8024 43.0349C60.1239 42.633 60.566 42.5325 60.9477 42.7937C61.3295 43.0349 61.43 43.5171 61.1688 43.9591C60.7669 44.7227 60.1038 45.0844 59.2599 45.1446Z" fill="#E1292C"/>
<path d="M20.6406 45.1446C19.9373 45.1044 19.2541 44.7226 18.8121 43.9591C18.571 43.517 18.6714 43.0549 19.0532 42.8138C19.4551 42.5526 19.877 42.653 20.1985 43.0549C20.6607 43.6376 20.9219 43.6376 21.4041 43.0549C21.7457 42.653 22.1677 42.5526 22.5494 42.8339C22.9312 43.1152 23.0116 43.4969 22.8106 43.939C22.449 44.6222 21.6251 45.1245 20.6406 45.1446Z" fill="#E1292C"/>
</g>
<defs>
<clipPath id="clip0_183_8146">
<rect width="56" height="52.2024" fill="white" transform="translate(12 14)"/>
</clipPath>
</defs>
</svg>
