<svg width="80" height="80" viewBox="0 0 80 80" fill="none" xmlns="http://www.w3.org/2000/svg">
<circle cx="40" cy="40" r="40" fill="white"/>
<g clip-path="url(#clip0_183_8139)">
<path d="M55.678 63.3584C55.1604 63.158 54.7597 63.0578 54.4091 62.8575C53.5408 62.3733 52.706 61.8223 51.8211 61.3381C51.6208 61.2212 51.2701 61.2212 51.0531 61.3214C49.8008 61.8056 48.5653 62.3733 47.3131 62.8575C46.9624 62.9911 46.7955 63.158 46.712 63.5253C46.5116 64.4603 46.2612 65.3787 46.0107 66.3137C45.7102 67.4824 45.0256 68.0167 43.8068 68.0167C41.2689 68.0167 38.7311 68.0167 36.1765 68.0167C35.0078 68.0167 34.3065 67.4657 34.0227 66.347C33.7722 65.3787 33.5552 64.4103 33.2713 63.4586C33.2045 63.2415 33.0042 63.0078 32.7871 62.9076C31.5182 62.3399 30.2326 61.8056 28.9302 61.3047C28.7299 61.2212 28.3959 61.2379 28.2123 61.3381C27.3441 61.8223 26.4925 62.3566 25.641 62.8575C24.6058 63.4586 23.771 63.3751 22.9195 62.5403C21.0829 60.7203 19.263 58.9004 17.4431 57.0638C16.6583 56.2624 16.5581 55.4275 17.1258 54.4592C17.6267 53.5909 18.1276 52.7394 18.6619 51.8879C18.8456 51.5874 18.8623 51.3703 18.712 51.0364C18.161 49.8008 17.6434 48.5653 17.1592 47.2964C17.0256 46.9624 16.8921 46.7955 16.5414 46.712C15.5897 46.4949 14.6547 46.2445 13.703 46.0107C12.551 45.7102 12 45.0089 12 43.8402C12 41.2856 12 38.7144 12 36.1598C12 34.9911 12.551 34.3065 13.6863 34.006C14.6547 33.7555 15.6231 33.5385 16.5748 33.2546C16.7919 33.1878 17.0256 32.9708 17.1091 32.7704C17.6601 31.5015 18.2111 30.2159 18.712 28.9135C18.7955 28.7132 18.7788 28.3792 18.6786 28.1956C18.1944 27.3274 17.6601 26.4758 17.1592 25.6243C16.5581 24.5891 16.6583 23.7543 17.4931 22.9195C19.2797 21.1163 21.0829 19.3131 22.8861 17.5265C23.7877 16.6416 24.5891 16.5414 25.7078 17.1926C26.5426 17.6935 27.3775 18.2111 28.229 18.6786C28.4293 18.7788 28.7466 18.7955 28.9469 18.712C30.2326 18.2111 31.5182 17.6768 32.8038 17.1091C33.0042 17.0256 33.2212 16.7752 33.2713 16.5581C33.5552 15.6064 33.7722 14.6213 34.0227 13.6696C34.3065 12.551 35.0244 12 36.1932 12C38.7478 12 41.319 12 43.8736 12C45.0089 12 45.7102 12.551 45.994 13.6363C46.2445 14.588 46.4949 15.523 46.6953 16.4747C46.7788 16.842 46.9457 17.0089 47.2964 17.1425C48.5486 17.6267 49.7841 18.1777 51.0364 18.6786C51.2534 18.7621 51.6041 18.7621 51.8044 18.6452C52.6559 18.1777 53.4908 17.6434 54.3256 17.1592C55.3942 16.5247 56.229 16.6249 57.0972 17.4764C58.9004 19.263 60.7036 21.0662 62.4902 22.8694C63.3584 23.7376 63.4586 24.5724 62.8241 25.641C62.3232 26.4925 61.8056 27.3107 61.3381 28.1622C61.2212 28.3626 61.2045 28.7132 61.288 28.9302C61.7889 30.1992 62.3065 31.4681 62.8742 32.7203C62.9744 32.9374 63.2248 33.1711 63.4419 33.2379C64.3936 33.5218 65.362 33.7388 66.3304 33.9893C67.4657 34.2898 67.9833 34.9911 67.9833 36.1598C67.9833 38.6977 67.9833 41.2355 67.9833 43.7901C67.9833 44.9756 67.4657 45.6601 66.3304 45.9606C65.3453 46.2278 64.3602 46.4448 63.3751 46.7287C63.1747 46.7788 62.9577 46.9791 62.8742 47.1795C62.3065 48.4651 61.7722 49.7841 61.2546 51.0865C61.1711 51.2868 61.1878 51.5707 61.288 51.7543C61.7722 52.6225 62.3065 53.4741 62.8241 54.3256C63.4419 55.3942 63.3584 56.2123 62.4902 57.0972C60.7036 58.9004 58.9171 60.7036 57.0805 62.4735C56.6965 62.8742 56.1288 63.0745 55.678 63.3584ZM51.4705 56.6631C51.8712 56.8134 52.2552 56.9135 52.5891 57.0972C53.3405 57.5146 54.0751 57.932 54.7764 58.4162C55.1604 58.6667 55.3608 58.5999 55.6613 58.2993C56.5295 57.3977 57.4144 56.5128 58.316 55.6446C58.5999 55.3775 58.6667 55.1604 58.4329 54.8098C57.9821 54.1419 57.5981 53.4073 57.164 52.7394C56.6297 51.8879 56.6297 51.0698 57.1473 50.2182C58.1658 48.5653 58.8837 46.7788 59.3512 44.8921C59.585 43.9404 60.1694 43.3894 61.1044 43.1556C61.9392 42.9553 62.7573 42.7716 63.5754 42.5212C63.7424 42.4711 63.9595 42.2206 63.9762 42.0537C64.0095 40.7013 64.0095 39.3488 63.9762 37.9964C63.9762 37.8295 63.7591 37.5623 63.5921 37.5122C62.7573 37.2618 61.9058 37.0781 61.0543 36.8611C60.186 36.644 59.6017 36.1431 59.3846 35.2749C58.9004 33.288 58.1157 31.418 57.0638 29.6482C56.613 28.8968 56.6297 28.1455 57.0805 27.4109C57.548 26.6428 58.0155 25.8915 58.4496 25.1067C58.5331 24.9565 58.4997 24.6225 58.3828 24.489C57.4478 23.5039 56.4961 22.5522 55.511 21.6172C55.3942 21.5003 55.0602 21.4669 54.8933 21.5504C54.1753 21.9344 53.4741 22.3518 52.8062 22.7859C51.9046 23.3703 51.0531 23.387 50.1348 22.8193C48.5152 21.8175 46.7621 21.0996 44.9088 20.6655C43.9237 20.4317 43.356 19.8473 43.1222 18.879C42.9219 18.0441 42.7382 17.226 42.4878 16.4079C42.4377 16.2409 42.1705 16.0239 42.0036 16.0239C40.6679 15.9905 39.3321 16.0239 37.9964 15.9905C37.6291 15.9905 37.4955 16.124 37.4287 16.4747C37.2451 17.3095 37.028 18.1276 36.811 18.9624C36.5939 19.8473 36.0596 20.415 35.158 20.6321C33.2045 21.1163 31.3679 21.8843 29.6482 22.9195C28.8468 23.4037 28.0787 23.3703 27.294 22.8861C26.6094 22.452 25.8748 22.0847 25.2236 21.6172C24.8229 21.3333 24.5891 21.4335 24.2886 21.7507C23.4371 22.6357 22.5689 23.5039 21.684 24.3554C21.3834 24.6559 21.2999 24.8563 21.5671 25.2403C22.0179 25.9082 22.4019 26.6261 22.836 27.3107C23.3536 28.1288 23.3536 28.9469 22.836 29.7651C21.8175 31.418 21.0829 33.2045 20.6154 35.0912C20.3816 36.0763 19.7973 36.6273 18.8289 36.8611C18.0274 37.0447 17.226 37.2952 16.4079 37.4621C16.0739 37.5289 15.9571 37.6458 15.9571 37.9964C15.9738 39.3321 15.9738 40.6679 15.9571 42.0036C15.9571 42.3375 16.0405 42.4711 16.3912 42.5379C17.2427 42.7215 18.0775 42.9553 18.929 43.1723C19.814 43.3894 20.3649 43.9404 20.5987 44.842C21.0662 46.7788 21.8342 48.5987 22.8527 50.285C23.3536 51.1032 23.3369 51.8879 22.836 52.6893C22.3852 53.4073 21.9678 54.1586 21.5003 54.8766C21.3166 55.1604 21.35 55.3274 21.5838 55.5611C22.5355 56.4961 23.4872 57.4311 24.4055 58.3828C24.6392 58.6333 24.8229 58.65 25.09 58.4663C25.808 58.0155 26.5593 57.5981 27.2773 57.1306C28.0787 56.6297 28.8634 56.613 29.6816 57.1139C31.3846 58.1491 33.2045 58.9004 35.1246 59.3679C36.0596 59.6017 36.5939 60.186 36.811 61.0877C37.0113 61.9225 37.2451 62.7406 37.412 63.5754C37.4788 63.9261 37.6291 64.0095 37.963 64.0095C39.2987 63.9928 40.6345 63.9928 41.9702 64.0095C42.3041 64.0095 42.4377 63.8927 42.5045 63.5587C42.6881 62.7239 42.9219 61.9058 43.1222 61.0877C43.3393 60.2027 43.8569 59.6184 44.7585 59.3846C46.7287 58.9004 48.582 58.1157 50.3351 57.0805C50.6858 56.8968 51.0698 56.8134 51.4705 56.6631Z" fill="#E1292C"/>
<path d="M40.0338 32.0024C44.4584 32.0024 48.0148 35.5755 48.0148 40.0334C48.0148 44.458 44.425 47.9977 39.9671 47.9977C35.5592 47.9977 32.0195 44.3912 32.0195 39.9333C32.0195 35.5421 35.6093 32.0024 40.0338 32.0024ZM39.9838 35.9929C37.8299 36.0096 36.01 37.8128 35.9933 39.9667C35.9766 42.1539 37.8299 43.9905 40.0004 43.9905C42.1543 43.9738 43.9742 42.1706 43.9909 40.0168C44.0076 37.8295 42.171 35.9929 39.9838 35.9929Z" fill="#E1292C"/>
<path d="M39.9829 26.7764C39.0813 27.7114 38.2464 28.613 37.3615 29.4478C36.6269 30.1658 35.5082 30.1825 34.7402 29.548C33.9721 28.9303 33.7551 27.8617 34.256 27.0269C34.3729 26.8098 34.5398 26.6261 34.7235 26.4425C35.9757 25.1902 37.2113 23.938 38.4802 22.6858C39.4653 21.7174 40.5673 21.7174 41.5523 22.6858C42.8213 23.938 44.0902 25.2069 45.3424 26.4759C46.2274 27.3775 46.2441 28.5963 45.4092 29.4145C44.5911 30.2159 43.389 30.1825 42.5207 29.3143C41.6859 28.5128 40.8678 27.678 39.9829 26.7764Z" fill="#E1292C"/>
<path d="M26.8098 40.0001C27.678 40.8516 28.4794 41.6363 29.2808 42.4378C30.2158 43.3728 30.2659 44.5916 29.4144 45.4264C28.5796 46.2613 27.3774 46.2112 26.4257 45.2762C25.1902 44.0406 23.9547 42.8051 22.7191 41.5696C21.7173 40.5678 21.7173 39.4658 22.7191 38.4473C23.9547 37.2118 25.1902 35.9762 26.4257 34.7407C27.3607 33.8057 28.5629 33.7556 29.4144 34.5904C30.2492 35.4253 30.1991 36.6274 29.2641 37.5791C28.4794 38.3638 27.678 39.1486 26.8098 40.0001Z" fill="#E1292C"/>
<path d="M53.1738 39.9999C52.3223 39.1484 51.5209 38.3637 50.7195 37.5623C49.7845 36.6273 49.7344 35.4084 50.5692 34.5736C51.404 33.7388 52.6062 33.7889 53.5579 34.7239C54.7934 35.9594 56.0289 37.1949 57.2645 38.4305C58.2663 39.4323 58.2663 40.5342 57.2645 41.5527C56.0289 42.805 54.7767 44.0572 53.5078 45.3094C52.6062 46.1943 51.3873 46.2444 50.5692 45.4096C49.7511 44.5915 49.7845 43.3726 50.6694 42.471C51.5042 41.6696 52.3056 40.8682 53.1738 39.9999Z" fill="#E1292C"/>
<path d="M40.0833 53.1068C40.868 52.3054 41.6527 51.504 42.4375 50.7192C43.3725 49.8009 44.5913 49.7508 45.4261 50.6024C46.2443 51.4372 46.1942 52.6226 45.2926 53.5409C44.057 54.7932 42.8048 56.0454 41.5359 57.2976C40.5341 58.2827 39.4321 58.266 38.4136 57.2643C37.1781 56.0287 35.9425 54.7932 34.707 53.5576C33.7887 52.6226 33.7386 51.4038 34.5901 50.569C35.4249 49.7508 36.6104 49.8009 37.5287 50.7025C38.3301 51.4873 39.1316 52.2887 39.9163 53.0734C39.9497 53.0734 39.9664 53.0734 40.0833 53.1068Z" fill="#E1292C"/>
</g>
<defs>
<clipPath id="clip0_183_8139">
<rect width="56" height="56" fill="white" transform="translate(12 12)"/>
</clipPath>
</defs>
</svg>
