<svg width="65" height="95" viewBox="0 0 65 95" fill="none" xmlns="http://www.w3.org/2000/svg">
<g clip-path="url(#clip0_146_239)">
<path d="M0.619141 0.640625H63.4956V62.1589H0.619141V0.640625Z" fill="#6E7E9B"/>
<path d="M4.06445 4.08569H60.0503V58.714H4.06445V4.08569Z" fill="white"/>
<path d="M15.6308 6.30029C11.5375 6.34951 8.25215 9.63664 8.24805 13.6825C8.25215 17.7448 11.5375 21.0298 15.6329 21.0647H47.6248C49.5782 21.0497 51.4473 20.2671 52.8286 18.8859C54.2099 17.5047 54.9925 15.6357 55.0075 13.6825C54.9788 9.63664 51.6914 6.34951 47.6248 6.30029H15.6308Z" fill="#6E7E9B"/>
<path d="M45.1619 39.8894C46.1321 39.8916 47.0932 39.7021 47.99 39.3319C48.8868 38.9617 49.7017 38.4181 50.3878 37.7322C51.074 37.0463 51.6179 36.2316 51.9884 35.335C52.3589 34.4384 52.5486 33.4774 52.5467 32.5072C52.5463 31.5435 52.3541 30.5895 51.9813 29.7007C51.6084 28.812 51.0624 28.0064 50.3751 27.3307C49.6878 26.6551 48.8729 26.123 47.9779 25.7655C47.0828 25.4079 46.1256 25.232 45.1619 25.2481H15.6309C14.6673 25.2323 13.7102 25.4084 12.8153 25.766C11.9204 26.1237 11.1055 26.6558 10.4183 27.3314C9.73102 28.0069 9.18503 28.8125 8.81211 29.7011C8.43919 30.5897 8.24678 31.5436 8.24609 32.5072V49.2402C8.2502 53.2451 11.5355 56.5322 15.6309 56.4994C16.5861 56.5059 17.533 56.3226 18.4168 55.9601C19.3005 55.5977 20.1034 55.0632 20.7789 54.3878C21.4543 53.7124 21.9888 52.9096 22.3513 52.0259C22.7138 51.1422 22.8971 50.1953 22.8906 49.2402V39.8894H45.1619ZM27.5663 83.3214C27.5526 84.1001 27.237 84.843 26.6861 85.3935C26.1352 85.944 25.392 86.259 24.6132 86.2722C24.2324 86.2683 23.8562 86.1884 23.5067 86.0372C23.1572 85.886 22.8414 85.6666 22.5778 85.3917C22.3142 85.1169 22.1081 84.7922 21.9717 84.4367C21.8352 84.0812 21.7712 83.702 21.7832 83.3214V68.68C21.7278 67.0723 23.026 65.7723 24.6132 65.7292C25.3899 65.7489 26.1293 66.0661 26.6789 66.6152C27.2284 67.1643 27.5461 67.9034 27.5663 68.68V83.3214Z" fill="#6E7E9B"/>
<path d="M4.43357 71.6328C2.84013 71.6369 1.53994 70.3368 1.48047 68.68C1.51423 67.919 1.83995 67.2003 2.38992 66.6733C2.9399 66.1463 3.67182 65.8515 4.43357 65.8501H16.9842C17.3562 65.849 17.7247 65.9215 18.0685 66.0633C18.4124 66.2051 18.7248 66.4135 18.9878 66.6765C19.2508 66.9395 19.4592 67.2519 19.6011 67.5957C19.7429 67.9396 19.8154 68.308 19.8143 68.68C19.8389 70.3389 18.5387 71.6369 16.9842 71.6328H4.43357Z" fill="#6E7E9B"/>
<path d="M16.1229 79.138C16.5048 79.1372 16.8826 79.0594 17.2337 78.9091C17.5848 78.7589 17.902 78.5393 18.1662 78.2636C18.4305 77.9879 18.6364 77.6617 18.7715 77.3046C18.9067 76.9475 18.9684 76.5667 18.953 76.1851C19.0063 74.6328 17.7061 73.3327 16.1229 73.3553H4.55662C2.9037 73.3327 1.60557 74.6328 1.60352 76.1851V83.3213C1.60352 84.9474 2.9037 86.2475 4.55662 86.2721C5.32196 86.2522 6.04854 85.9311 6.57846 85.3786C7.10837 84.826 7.39882 84.0867 7.38667 83.3213V79.138H16.1229ZM59.4351 86.2741C60.0495 86.2755 60.6581 86.1555 61.226 85.921C61.7939 85.6865 62.3099 85.3422 62.7443 84.9078C63.1788 84.4734 63.5232 83.9574 63.7577 83.3896C63.9922 82.8217 64.1122 82.2131 64.1108 81.5988C64.1032 80.6865 63.848 79.7935 63.3725 79.015L55.8667 66.8344C55.5912 66.4318 55.2249 66.0997 54.7975 65.8646C54.37 65.6295 53.8934 65.4981 53.4058 65.481C52.3497 65.5158 51.4289 66.0756 50.9449 66.9574L42.8239 79.9993H35.3181V68.6799C35.3488 67.1358 34.0487 65.8357 32.488 65.8501C30.8454 65.8357 29.5452 67.1358 29.5349 68.6799V83.3233C29.5398 84.1048 29.8525 84.8528 30.4053 85.4052C30.9582 85.9576 31.7065 86.2698 32.488 86.2741H43.07C44.4317 86.2639 45.7442 85.5257 46.7614 84.0595L53.4058 73.2343L57.8355 80.4935H51.5601C50.0077 80.4484 48.7075 81.7464 48.7301 83.3233C48.7169 84.0891 49.007 84.829 49.5371 85.3818C50.0672 85.9346 50.7944 86.2553 51.5601 86.2741H59.4351ZM2.95702 94.5176H2.21874V88.6118H6.15621V89.3501H2.95702V91.0726H5.78708V91.8108H2.95702V94.5176ZM9.35541 94.6406C7.26158 94.6529 6.62174 92.8238 6.6484 91.5647C6.62174 90.281 7.25952 88.4519 9.35541 88.4888C11.4369 88.4519 12.0768 90.281 12.0624 91.5647C12.0747 92.8238 11.4369 94.6529 9.35541 94.6406ZM15.3847 94.6406C13.3216 94.6529 12.6838 92.8238 12.6776 91.5647C12.6838 90.281 13.3216 88.4519 15.3847 88.4888C17.4969 88.4519 18.1368 90.281 18.0917 91.5647C18.1368 92.8238 17.4969 94.6529 15.3847 94.6406ZM18.5838 88.6118H23.1365V89.3501H21.1678V94.5176H20.4295V89.3501H18.5838V88.6118ZM25.5975 94.5176H24.7361L23.3826 88.6118H24.1209L25.2283 93.4103L26.4588 88.6118H27.3201L28.5506 93.4103L29.658 88.6118H30.3963L28.9197 94.5176H28.1814L26.8279 89.5961L25.5975 94.5176ZM35.3181 94.5176H31.2576V88.6118H35.3181V89.3501H31.9958V91.0726H35.072V91.8108H31.9958V93.7794H35.3181V94.5176ZM37.2868 92.7951L36.6716 94.5176H35.8103L38.0251 88.6118H38.7634L40.8552 94.5176H39.9938L39.5016 92.7951H37.2868ZM42.3317 94.5176H41.5934V88.6118H44.1774C45.1433 88.6077 46.062 88.944 46.021 90.2093C46.062 91.0603 45.6396 91.3781 45.2848 91.5627C45.6027 91.739 45.9226 91.8867 45.9 92.67L46.0231 93.7773C46.0087 94.1013 46.0497 94.2244 46.2692 94.3925V94.5176H45.4078C45.2458 94.1341 45.2212 93.2421 45.1618 93.0412C45.2212 92.5367 45.1269 91.9707 44.1794 91.9338H42.3338L42.3317 94.5176ZM53.775 88.6118V92.4239C53.7606 93.6338 53.0449 94.6509 51.5601 94.6386C50.0057 94.6509 49.3597 93.6338 49.3453 92.547V88.6118H50.0836V92.3029C50.1144 93.5948 50.8547 93.9475 51.5601 93.9024C52.2266 93.9475 53.0059 93.6112 53.0367 92.3029V88.6118H53.775ZM58.3277 90.3344C58.2969 89.4198 57.5791 89.1327 56.9742 89.1019C56.4717 89.1327 55.6699 89.2721 55.6207 90.2093C55.6678 90.6666 56.0042 90.8306 56.3569 90.9475L57.9565 91.3166C58.6517 91.4766 59.1972 91.9359 59.1869 92.9161C59.1972 94.2654 57.9667 94.6509 56.9721 94.6386C55.9713 94.6509 55.5673 94.3228 55.3725 94.1464C54.8414 93.6338 54.747 93.1437 54.7573 92.549H55.4935C55.4545 93.6604 56.281 93.9701 56.9701 94.0255C57.5443 93.9721 58.463 93.8245 58.4466 93.0412C58.463 92.3645 58.1903 92.1676 57.2141 91.9338L56.1067 91.6878C55.7581 91.5668 54.9316 91.2981 54.8762 90.3344C54.9316 89.3542 55.5017 88.4519 56.845 88.4888C58.8116 88.4519 59.0065 89.6823 59.0598 90.3344H58.3277ZM61.0347 92.7951L60.4194 94.5176H59.6812L61.7729 88.6118H62.6343L64.603 94.5176H63.8647L63.2495 92.7951H61.0347Z" fill="#6E7E9B"/>
<path d="M9.35545 89.104C8.1332 89.1573 7.40107 90.1683 7.38672 91.5647C7.40107 92.9386 8.1332 93.9475 9.35545 93.9024C10.5634 93.9475 11.2975 92.9386 11.3242 91.5647C11.2975 90.1662 10.5634 89.1573 9.35545 89.104ZM15.3847 89.104C14.1932 89.1573 13.4611 90.1683 13.416 91.5647C13.4611 92.9386 14.1932 93.9475 15.3847 93.9024C16.6254 93.9475 17.3575 92.9386 17.3534 91.5647C17.3575 90.1662 16.6254 89.1573 15.3847 89.104ZM39.2556 92.0569L38.3943 89.4731L37.4099 92.0569H39.2556ZM42.3317 91.3187H44.1774C44.6983 91.29 45.2828 91.1444 45.2849 90.3364C45.2828 89.3644 44.6512 89.2906 44.3005 89.3521H42.3317V91.3187ZM63.0035 92.0569L62.1421 89.4731L61.2808 92.0569H63.0035Z" fill="white"/>
<path d="M61.012 69.7667C61.2722 69.7748 61.5314 69.7304 61.7741 69.6363C62.0169 69.5422 62.2382 69.4002 62.425 69.2188C62.6117 69.0375 62.7601 68.8204 62.8613 68.5806C62.9625 68.3407 63.0144 68.083 63.014 67.8226C63.0136 67.5623 62.9609 67.3047 62.8589 67.0652C62.7569 66.8257 62.6079 66.6091 62.4205 66.4283C62.2332 66.2476 62.0114 66.1063 61.7684 66.0129C61.5254 65.9196 61.266 65.8761 61.0059 65.8849C60.502 65.9021 60.0245 66.1145 59.6745 66.4772C59.3244 66.84 59.1291 67.3247 59.1299 67.8288C59.1307 68.3329 59.3275 68.817 59.6787 69.1786C60.03 69.5403 60.5081 69.7512 61.012 69.7667ZM61.012 69.5104C60.0646 69.5104 59.3714 68.7722 59.3714 67.8186C59.3714 66.8754 60.0646 66.1371 61.012 66.1371C61.9554 66.1371 62.6424 66.8754 62.6424 67.8186C62.6444 68.7722 61.9574 69.5104 61.012 69.5104ZM61.3258 67.9068C61.7113 67.8966 62.0087 67.7366 62.0087 67.3121C62.0087 66.9533 61.8139 66.738 61.2396 66.738H60.2922V68.9055H60.5588V67.9068H61.0448L61.6662 68.9055H61.9841L61.3258 67.9068ZM60.5567 67.6956V66.9266H61.1761C61.4427 66.9266 61.7195 66.9676 61.7195 67.306C61.7195 67.7469 61.2684 67.6956 60.9607 67.6956H60.5567Z" fill="#6E7E9B"/>
</g>
<defs>
<clipPath id="clip0_146_239">
<rect width="64" height="94" fill="white" transform="translate(0.611328 0.640625)"/>
</clipPath>
</defs>
</svg>
