<svg width="183" height="62" viewBox="0 0 183 62" fill="none" xmlns="http://www.w3.org/2000/svg">
<g clip-path="url(#clip0_146_235)">
<path d="M182.123 14.6633C179.648 0.318105 136.953 -4.15859 86.7563 4.66394C65.6756 8.37103 46.6408 13.8388 31.8173 19.9901C34.0944 20.0405 35.7831 20.5676 36.8092 21.6007C37.6115 22.4115 38.0166 23.5243 38.0166 24.9106V26.3336H33.0946V25.0772C33.0946 24.0303 32.4727 23.3815 31.3714 23.3815C30.4459 23.3815 29.8757 23.8034 29.6917 24.6343C29.63 24.9627 29.6368 25.3006 29.7116 25.6263C30.2383 27.7996 37.5471 29.1494 38.3421 33.1603C38.4463 33.6764 38.5877 34.781 38.3647 36.3614C37.9088 39.5963 35.0933 40.8445 31.5091 40.8445C26.5064 40.8445 24.4741 38.4524 24.4741 35.1543L24.4777 33.5941H29.7542L29.7569 35.5378C29.7569 36.6304 30.5438 37.2335 31.6152 37.2335C32.6304 37.2335 33.2233 36.8207 33.4281 35.977C33.5233 35.589 33.565 35.0171 33.3919 34.5796C32.4156 32.107 25.5908 30.9522 24.7505 26.9541C24.5629 26.0554 24.5475 25.2904 24.7034 24.3231C24.7834 23.8437 24.9305 23.3781 25.1403 22.9404C8.69797 30.7033 -0.920521 39.2449 0.350341 46.6197C2.82771 60.9667 45.5222 65.4388 95.7176 56.6163C117.783 52.739 137.62 46.9345 152.717 40.4299C152.499 40.4409 152.286 40.4647 152.06 40.4647C148.624 40.4647 145.557 39.1652 145.239 35.6201C145.182 34.975 145.173 34.705 145.171 34.3371L145.173 26.1872C145.173 25.8358 145.213 25.219 145.252 24.9006C145.659 21.4744 148.342 20.0615 152.062 20.0615C154.94 20.0615 158.469 20.8952 158.856 24.9033C158.908 25.4066 158.903 25.9438 158.902 26.1204V26.89H153.931V25.7416C153.931 25.7169 153.924 25.2877 153.869 25.0195C153.788 24.6105 153.442 23.6624 152.026 23.6624C150.628 23.6624 150.265 24.6123 150.174 25.0205C150.123 25.2447 150.098 25.5668 150.098 25.9237V34.781C150.094 35.0884 150.109 35.3291 150.14 35.5057C150.164 35.6448 150.415 36.8656 152.044 36.8656C153.66 36.8656 153.91 35.6448 153.933 35.5057C153.975 35.266 153.981 34.9805 153.979 34.781V32.0366H152.023V29.0808H158.94V34.339C158.938 34.6968 158.933 34.9612 158.873 35.6201C158.789 36.5499 158.499 37.3369 158.044 38.0095C174.055 30.3345 183.377 21.9311 182.123 14.6633ZM51.9653 40.0877L49.4472 22.8141H49.3565L46.774 40.0877H41.4667L45.0363 20.5804H53.6958L57.2437 40.0877H51.9653ZM77.4932 40.0877L77.3762 23.1481H77.291L74.1683 40.0877H69.1872L66.0799 23.1481H65.9911L65.8777 40.0877H60.942L61.3699 20.5804H69.3087L71.6202 35.0711H71.7335L74.0513 20.5804H81.9865L82.4126 40.0877H77.4932ZM100.736 36.3074C100.205 40.0858 96.538 40.7465 93.9464 40.7465C89.6434 40.7465 86.982 38.8898 86.982 35.1113L86.9848 33.5703H92.1978L92.2015 35.4902C92.2015 36.5325 92.9294 37.1703 94.0534 37.1703C95.0559 37.1703 95.6433 36.764 95.8473 35.9294C95.9415 35.5405 95.9805 34.9731 95.8137 34.5449C94.8529 32.1189 88.0816 30.9302 87.2585 26.9943C87.07 26.1021 87.0564 25.3444 87.2114 24.3872C87.7843 20.8192 91.1763 20.078 93.9065 20.078C96.3485 20.078 98.1261 20.6161 99.1921 21.6922C99.9871 22.4957 100.39 23.5984 100.39 24.9701V26.3776H95.5146V25.1358C95.5146 24.0724 94.861 23.4575 93.8104 23.4575C92.8786 23.4575 92.3148 23.8757 92.1299 24.6983C92.0698 25.0234 92.0779 25.3576 92.1534 25.6793C92.6755 27.8426 99.92 29.165 100.713 33.1384C100.816 33.6453 100.956 34.7334 100.736 36.3074ZM118.791 34.5348C118.798 34.9008 118.763 35.632 118.743 35.8196C118.445 39.0335 116.168 40.6669 111.992 40.6669C107.8 40.6669 105.521 39.0335 105.226 35.8196C105.192 35.3934 105.176 34.966 105.177 34.5385V20.5758H110.165V34.9786C110.159 35.3008 110.176 35.5387 110.207 35.7043C110.269 36.0246 110.585 37.0642 111.992 37.0642C113.396 37.0642 113.711 36.0237 113.777 35.708C113.805 35.5378 113.822 35.2879 113.822 34.9777V20.5758H118.791V34.5348ZM140.279 39.8891H133.339L128.68 24.4375H128.602L128.861 39.8891H124.024V20.5804H131.255L135.56 35.4234H135.661L135.406 20.5804H140.279V39.8891Z" fill="#6E7E9B"/>
</g>
<defs>
<clipPath id="clip0_146_235">
<rect width="182" height="61" fill="white" transform="translate(0.236328 0.140625)"/>
</clipPath>
</defs>
</svg>
