<svg width="199" height="98" viewBox="0 0 199 98" fill="none" xmlns="http://www.w3.org/2000/svg">
<g clip-path="url(#clip0_146_259)">
<path d="M184.185 93.8953C184.185 93.7609 184.158 93.628 184.106 93.504C184.055 93.38 183.979 93.2674 183.884 93.1726C183.788 93.0779 183.675 93.0027 183.551 92.9516C183.426 92.9004 183.293 92.8742 183.159 92.8745H181.16V95.9205H181.704V94.9221H182.822L183.592 95.9205H184.277L183.46 94.8611C183.668 94.7974 183.85 94.6696 183.98 94.496C184.111 94.3225 184.182 94.1121 184.185 93.8953ZM181.704 94.3812V93.4113H183.159C183.282 93.4193 183.398 93.4739 183.482 93.5639C183.567 93.654 183.614 93.7728 183.614 93.8963C183.614 94.0197 183.567 94.1385 183.482 94.2286C183.398 94.3187 183.282 94.3732 183.159 94.3812H181.704Z" fill="#6E7E9B"/>
<path d="M182.537 90.9143C181.638 90.9519 180.788 91.3349 180.165 91.9835C179.542 92.632 179.194 93.4958 179.194 94.3943C179.194 95.2929 179.542 96.1567 180.165 96.8052C180.788 97.4537 181.638 97.8368 182.537 97.8744C183.437 97.8368 184.287 97.4537 184.91 96.8052C185.533 96.1567 185.881 95.2929 185.881 94.3943C185.881 93.4958 185.533 92.632 184.91 91.9835C184.287 91.3349 183.437 90.9519 182.537 90.9143ZM182.537 97.3356C181.775 97.3073 181.054 96.9851 180.524 96.4368C179.995 95.8885 179.699 95.1568 179.699 94.3954C179.699 93.634 179.995 92.9022 180.524 92.3539C181.054 91.8056 181.775 91.4834 182.537 91.4551C183.3 91.4834 184.021 91.8056 184.551 92.3539C185.08 92.9022 185.376 93.634 185.376 94.3954C185.376 95.1568 185.08 95.8885 184.551 96.4368C184.021 96.9851 183.3 97.3073 182.537 97.3356ZM44.543 79.5519H31.8968C31.7205 79.5621 31.5481 79.6076 31.3899 79.6859C31.2316 79.7642 31.0909 79.8735 30.976 80.0074L23.0823 90.4059C22.8928 90.654 22.5771 90.654 22.3897 90.4059L14.496 80.0074C14.3811 79.8735 14.2403 79.7642 14.0821 79.6859C13.9239 79.6076 13.7515 79.5621 13.5752 79.5519H0.933025C0.857319 79.5516 0.782301 79.5663 0.712254 79.5949C0.642208 79.6236 0.578505 79.6658 0.524783 79.719C0.471062 79.7723 0.428373 79.8355 0.399154 79.9053C0.369935 79.975 0.354759 80.0497 0.354492 80.1253L0.354492 97.1261C0.354492 97.4413 0.613202 97.6975 0.933025 97.6975H9.96955C10.0449 97.6978 10.1195 97.6832 10.1892 97.6546C10.2589 97.626 10.3223 97.584 10.3756 97.5309C10.429 97.4778 10.4713 97.4147 10.5002 97.3453C10.5291 97.2758 10.544 97.2013 10.544 97.1261V87.9578C10.544 87.6406 10.7029 87.5897 10.8903 87.8378L18.0303 97.2441C18.1461 97.3782 18.288 97.4875 18.4473 97.5655C18.6066 97.6434 18.78 97.6883 18.9572 97.6975H26.5168C26.6936 97.6878 26.8666 97.6426 27.0255 97.5647C27.1844 97.4868 27.3259 97.3778 27.4417 97.2441L34.5796 87.8378C34.7691 87.5897 34.9259 87.6406 34.9259 87.9578V97.1261C34.9259 97.4413 35.1846 97.6975 35.5024 97.6975H44.543C44.695 97.6975 44.8408 97.6374 44.9485 97.5303C45.0562 97.4232 45.1169 97.2779 45.1175 97.1261V80.1253C45.1175 79.9732 45.057 79.8274 44.9492 79.7198C44.8415 79.6123 44.6954 79.5519 44.543 79.5519ZM132.411 79.5519H98.9068C98.7307 79.5616 98.5585 79.607 98.4005 79.6853C98.2426 79.7636 98.1022 79.8732 97.9881 80.0074L96.6192 81.8049C96.4077 82.1081 96.2863 82.4647 96.2688 82.8337V94.4137C96.2688 94.7309 96.4256 95.1945 96.6192 95.4466L97.9881 97.24C98.1014 97.3753 98.2415 97.4857 98.3996 97.5645C98.5577 97.6432 98.7304 97.6885 98.9068 97.6975H132.411C132.563 97.697 132.709 97.6361 132.817 97.5283C132.925 97.4204 132.985 97.2743 132.985 97.1221V92.5714C132.985 92.4194 132.925 92.2735 132.817 92.166C132.709 92.0584 132.563 91.998 132.411 91.998H106.98C106.827 91.997 106.682 91.9359 106.574 91.8282C106.466 91.7204 106.406 91.5747 106.405 91.4226V85.8248C106.405 85.5096 106.666 85.2534 106.98 85.2534H132.411C132.563 85.2523 132.709 85.1913 132.817 85.0836C132.924 84.9758 132.985 84.8301 132.985 84.678V80.1253C132.985 79.9734 132.924 79.8279 132.816 79.7204C132.709 79.613 132.563 79.5524 132.411 79.5519ZM164.004 86.63C163.76 86.4307 163.784 86.144 164.065 85.9956L175.799 79.8142C176.082 79.6678 176.053 79.5499 175.736 79.5499H162.042C161.725 79.5499 161.238 79.6678 160.957 79.8142L148.555 86.3474C148.278 86.4938 148.047 86.3535 148.047 86.0383V80.1212C148.047 79.9695 147.986 79.8242 147.879 79.7171C147.771 79.61 147.625 79.5499 147.473 79.5499H138.434C138.282 79.5499 138.137 79.61 138.029 79.7171C137.921 79.8242 137.861 79.9695 137.86 80.1212V97.1221C137.86 97.4413 138.119 97.6975 138.434 97.6975H147.473C147.626 97.697 147.772 97.6361 147.879 97.5283C147.987 97.4204 148.047 97.2743 148.047 97.1221V95.0054C148.057 94.8345 148.109 94.6687 148.197 94.5221C148.286 94.3755 148.408 94.2524 148.555 94.1636L155.648 90.4283C155.801 90.3588 155.969 90.3312 156.136 90.3484C156.303 90.3656 156.462 90.4268 156.597 90.5259L164.931 97.3335C165.228 97.5516 165.583 97.6781 165.951 97.6975H176.976C177.292 97.6975 177.353 97.5328 177.109 97.3335L164.004 86.63ZM80.0556 80.0155C79.941 79.8812 79.8003 79.7714 79.6421 79.6928C79.4838 79.6141 79.3113 79.5683 79.1348 79.558H63.0703C62.8939 79.5685 62.7215 79.6145 62.5632 79.6931C62.405 79.7717 62.2643 79.8814 62.1496 80.0155L49.0694 97.24C48.88 97.4921 48.9818 97.6975 49.2976 97.6975L59.2549 97.6894C59.4312 97.6791 59.6037 97.6336 59.7622 97.5557C59.9207 97.4779 60.0619 97.3691 60.1777 97.2359L61.9622 94.8874C62.0763 94.7525 62.2169 94.6424 62.3752 94.5637C62.5335 94.485 62.7063 94.4395 62.8829 94.4299H79.3222C79.4988 94.4399 79.6714 94.4856 79.8297 94.5642C79.988 94.6429 80.1286 94.7528 80.243 94.8874L82.0234 97.2359C82.2169 97.482 82.6345 97.6894 82.9482 97.6894L92.9035 97.6975C93.2193 97.6975 93.3252 97.4921 93.1317 97.24L80.0556 80.0155ZM75.9549 89.4177H66.2991C65.9834 89.4177 65.8815 89.2083 66.0689 88.9582L69.0533 85.0155C69.1673 84.8804 69.3078 84.7699 69.4661 84.6909C69.6245 84.6118 69.7973 84.5659 69.974 84.556H72.28C72.5998 84.556 73.0113 84.7634 73.2049 85.0155L76.1831 88.9582C76.3766 89.2083 76.2707 89.4177 75.9549 89.4177ZM160.873 23.8748H167.944C168.048 23.8698 168.149 23.8344 168.233 23.773C168.317 23.7115 168.382 23.6267 168.418 23.5291L169.783 19.3628C169.821 19.2646 169.886 19.1796 169.972 19.1182C170.057 19.0568 170.159 19.0216 170.264 19.0171H176.149C176.351 19.0171 176.667 19.0801 176.852 19.1554L178.52 19.8569C178.704 19.9321 178.979 19.8874 179.125 19.7511L183.43 15.8064C183.578 15.6722 183.546 15.4974 183.362 15.4181L178.302 13.3013C178.203 13.2531 178.117 13.183 178.049 13.0963C177.981 13.0096 177.934 12.9087 177.911 12.8011L177.058 7.38023C177.029 7.18503 177.153 7.08743 177.337 7.16266L182.666 9.39324C182.849 9.47255 182.975 9.37291 182.945 9.17364L182.14 4.07197C182.129 3.96047 182.141 3.8479 182.174 3.74099C182.208 3.63409 182.263 3.53504 182.336 3.44977L183.556 2.17689C183.695 2.03456 183.666 1.83326 183.495 1.73362L182.24 1.00162C182.139 0.951021 182.029 0.920841 181.917 0.912815C181.804 0.904788 181.691 0.919074 181.584 0.954849L174.65 3.68564C174.43 3.75764 174.191 3.75407 173.974 3.67547L171.792 2.76046C171.749 2.74215 171.703 2.73304 171.656 2.73373C171.61 2.73441 171.564 2.74488 171.521 2.76444C171.479 2.784 171.441 2.81222 171.411 2.84727C171.38 2.88232 171.357 2.92341 171.344 2.96786L171.13 3.6165C171.069 3.80764 171.15 4.05774 171.309 4.17364L172.554 5.07035C172.592 5.09548 172.624 5.12893 172.647 5.16817C172.67 5.2074 172.684 5.25139 172.688 5.29682C172.692 5.34226 172.685 5.38794 172.668 5.43043C172.652 5.47291 172.626 5.51109 172.592 5.54208L171.527 6.60959C171.448 6.68085 171.351 6.72956 171.246 6.75066C171.141 6.77176 171.033 6.76448 170.932 6.72956L168.225 5.59292C168.135 5.553 168.062 5.48152 168.021 5.39198C167.981 5.30244 167.974 5.20104 168.003 5.10695L169.023 1.99796C169.053 1.90412 169.047 1.80274 169.006 1.71312C168.966 1.6235 168.893 1.55191 168.803 1.51199L167.697 1.04635C167.655 1.02833 167.608 1.01939 167.562 1.02009C167.516 1.0208 167.47 1.03115 167.428 1.05047C167.386 1.06979 167.348 1.09766 167.317 1.13231C167.286 1.16696 167.263 1.20762 167.249 1.25172L165.921 5.30011C165.857 5.52745 165.85 5.7669 165.901 5.99755L166.752 9.23261C166.801 9.46352 166.793 9.70272 166.73 9.93005L163.77 18.9601C163.733 19.0583 163.668 19.1433 163.582 19.2048C163.497 19.2663 163.396 19.3014 163.291 19.3058H161.696C161.595 19.3089 161.497 19.3462 161.42 19.4116C161.343 19.4769 161.29 19.5665 161.27 19.6657L160.574 23.5169C160.564 23.5608 160.564 23.6064 160.575 23.6502C160.586 23.6939 160.606 23.7346 160.635 23.7691C160.664 23.8037 160.701 23.8312 160.742 23.8495C160.783 23.8678 160.828 23.8764 160.873 23.8748ZM185.334 6.03009L186.652 5.29605C186.693 5.27625 186.729 5.24725 186.756 5.21134C186.784 5.17544 186.802 5.13361 186.811 5.0892C186.819 5.04478 186.817 4.999 186.805 4.95549C186.793 4.91198 186.771 4.87194 186.74 4.83854L185.434 3.2505C185.406 3.21391 185.37 3.18396 185.329 3.16279C185.288 3.14163 185.242 3.12975 185.196 3.128C185.15 3.12626 185.104 3.13468 185.061 3.15269C185.018 3.1707 184.98 3.19784 184.949 3.2322L184.858 3.32777C184.783 3.4121 184.727 3.51098 184.693 3.6181C184.659 3.72523 184.648 3.83825 184.66 3.94997L184.958 5.84505C184.99 6.04229 185.157 6.12565 185.334 6.03009ZM185.312 8.07767L185.664 10.3103C185.686 10.4182 185.733 10.5196 185.801 10.6065C185.869 10.6933 185.956 10.7631 186.055 10.8105L189.959 12.4453C190.142 12.5246 190.356 12.7422 190.429 12.9272L190.802 13.8768C190.845 13.9719 190.914 14.0526 191.002 14.1089C191.09 14.1653 191.192 14.1948 191.297 14.194L191.81 14.1614C191.916 14.1505 192.017 14.1105 192.101 14.0459C192.186 13.9813 192.251 13.8946 192.289 13.7954L193.446 10.2534C193.475 10.152 193.474 10.0447 193.443 9.9439C193.413 9.84309 193.355 9.75296 193.275 9.68401L191.554 8.342C191.382 8.18927 191.269 7.98259 191.232 7.7564L190.942 4.95038C190.92 4.75314 190.761 4.66978 190.584 4.76534L185.573 7.54086C185.483 7.59665 185.411 7.67666 185.365 7.77166C185.318 7.86665 185.3 7.97275 185.312 8.07767Z" fill="#6E7E9B"/>
<path d="M197.95 8.67141L193.581 6.13583C193.409 6.03213 193.285 6.1155 193.306 6.31476L193.359 6.80277C193.396 7.03025 193.513 7.23713 193.689 7.38634L196.066 9.20822C196.147 9.27551 196.207 9.36494 196.239 9.46564C196.27 9.56634 196.272 9.67399 196.243 9.77552L194.18 16.0687C194.142 16.1675 194.078 16.2539 193.994 16.3185C193.91 16.3831 193.81 16.4233 193.705 16.4347L187.361 16.815C187.251 16.8275 187.144 16.8636 187.048 16.9208C186.953 16.9779 186.871 17.0549 186.807 17.1464L183.968 21.7479C183.943 21.7861 183.927 21.8294 183.921 21.8747C183.915 21.9199 183.919 21.9658 183.934 22.0091C183.948 22.0524 183.972 22.092 184.003 22.1249C184.035 22.1578 184.074 22.1832 184.116 22.1993L185.453 22.7585C185.64 22.8357 185.738 23.0553 185.675 23.2444L184.253 27.5389C184.238 27.5831 184.215 27.6238 184.183 27.6584C184.152 27.693 184.114 27.7206 184.071 27.7396C184.029 27.7585 183.983 27.7684 183.936 27.7685C183.889 27.7686 183.843 27.7589 183.801 27.7402L180.541 26.3737C180.317 26.2891 180.08 26.241 179.84 26.2314H178.207C178.161 26.2296 178.116 26.2381 178.074 26.2564C178.032 26.2747 177.995 26.3021 177.965 26.3368C177.936 26.3715 177.914 26.4124 177.903 26.4565C177.891 26.5005 177.89 26.5467 177.899 26.5913L179.032 33.7955C179.082 34.0183 179.213 34.2151 179.398 34.3485L184.866 37.7585C185.035 37.8642 185.011 37.9598 184.811 37.9699L179.959 38.2526C179.851 38.2643 179.748 38.3028 179.659 38.3647C179.57 38.4265 179.498 38.5096 179.449 38.6064L174.931 49.0049C174.85 49.1859 174.746 49.495 174.701 49.6902L169.985 69.7491C169.945 69.9747 169.988 70.207 170.105 70.4039L171.327 72.2197C171.439 72.3864 171.366 72.5226 171.164 72.5226H169.421C169.31 72.5161 169.203 72.4856 169.105 72.4332C169.008 72.3809 168.923 72.308 168.856 72.2197L167.919 70.8289C167.803 70.6316 167.759 70.4001 167.795 70.1741L172.326 49.7796C172.365 49.5494 172.333 49.3128 172.236 49.1005L169.991 44.7329C169.946 44.6364 169.929 44.5294 169.942 44.4239C169.954 44.3183 169.996 44.2183 170.062 44.135L176.659 36.5161C176.8 36.3364 176.866 36.1089 176.842 35.8817L175.393 26.6849C175.374 26.5859 175.322 26.4964 175.246 26.4307C175.169 26.365 175.073 26.327 174.972 26.3229L160.822 26.2314C160.775 26.2309 160.727 26.2398 160.683 26.2576C160.639 26.2755 160.599 26.3019 160.565 26.3354C160.531 26.3689 160.504 26.4087 160.485 26.4526C160.467 26.4966 160.458 26.5437 160.458 26.5913V26.7865C160.446 27.0151 160.352 27.2319 160.193 27.3965L136.791 49.0558C136.612 49.2037 136.391 49.29 136.159 49.3018H133.099C132.868 49.314 132.647 49.4011 132.47 49.5499L131.121 50.7983C131.048 50.8705 131.001 50.9642 130.985 51.0656C130.969 51.1669 130.986 51.2707 131.034 51.3616L134.014 56.5019C134.117 56.7059 134.139 56.9409 134.077 57.1607L128.842 72.179C128.78 72.3989 128.803 72.6343 128.907 72.8378L129.797 74.3628C129.858 74.4543 129.939 74.5305 130.034 74.5852C130.129 74.6399 130.236 74.6717 130.345 74.678H140.184C140.286 74.674 140.382 74.637 140.46 74.5727C140.538 74.5085 140.593 74.4204 140.616 74.3221L140.783 73.4661C140.799 73.3564 140.791 73.2448 140.759 73.1385C140.728 73.0323 140.674 72.9339 140.602 72.85L137.298 69.4218C137.157 69.2794 137.2 69.1127 137.394 69.0558L151.513 64.802C151.702 64.741 151.745 64.5804 151.604 64.438L148.056 60.8736C147.981 60.8034 147.885 60.759 147.783 60.7469C147.68 60.7348 147.577 60.7557 147.487 60.8065L136.122 67.7524C135.925 67.8843 135.759 68.0587 135.638 68.2628L133.497 72.2034C133.439 72.2959 133.361 72.3732 133.267 72.4288C133.173 72.4844 133.068 72.5166 132.959 72.5226L131.46 72.5267C131.26 72.5267 131.162 72.3762 131.246 72.1912L136.263 60.9732C136.315 60.8751 136.387 60.7892 136.475 60.7215C136.563 60.6538 136.664 60.6058 136.772 60.5808L145.799 59.0293C145.902 59.006 145.997 58.9551 146.074 58.882C146.151 58.809 146.206 58.7165 146.235 58.6145L148.333 48.948C148.349 48.8403 148.34 48.7304 148.306 48.6269C148.272 48.5235 148.214 48.4294 148.137 48.3522L146.078 46.5344C146 46.4573 145.941 46.3631 145.906 46.2593C145.871 46.1555 145.861 46.045 145.876 45.9366L146.243 44.068C146.279 43.8707 146.432 43.8178 146.583 43.952L150.647 47.5409C150.814 47.7036 150.93 47.9113 150.981 48.1387L153.395 62.5267C153.43 62.7219 153.531 62.7402 153.623 62.5613L156.952 56.0993C157.003 56.009 157.081 55.936 157.174 55.8893C157.267 55.8426 157.372 55.8244 157.475 55.837L161.886 56.5934C161.987 56.6067 162.09 56.5873 162.18 56.5379C162.27 56.4885 162.342 56.4118 162.385 56.3189L163.686 53.218C163.769 52.9968 163.798 52.7591 163.77 52.5247L160.718 33.9337C160.686 33.7385 160.763 33.7019 160.896 33.8544L168.361 42.6934C168.428 42.7796 168.472 42.8806 168.49 42.9876C168.508 43.0946 168.499 43.2044 168.465 43.3075L166.137 49.2977C166.065 49.5175 166.068 49.7548 166.145 49.9728L168.372 55.2798C168.447 55.4628 168.476 55.7739 168.435 55.9712L164.986 72.1688C164.95 72.3978 164.988 72.6324 165.096 72.8378L165.986 74.3628C166.086 74.5357 166.333 74.678 166.53 74.678H176.326C176.432 74.6732 176.533 74.6379 176.618 74.5765C176.704 74.5152 176.769 74.4303 176.807 74.3323L177.101 73.4437C177.129 73.3393 177.132 73.2294 177.108 73.1237C177.085 73.018 177.035 72.9198 176.964 72.8378L172.491 68.1997C172.421 68.1197 172.375 68.022 172.358 67.9175C172.342 67.813 172.354 67.7058 172.395 67.608L177.602 56.6625C177.685 56.4815 177.779 56.1704 177.803 55.9712L178.722 48.4661C178.762 48.2331 178.857 48.0132 179.001 47.8256L186.516 38.887C186.654 38.7004 186.732 38.4763 186.74 38.2444L186.504 30.172C186.482 29.9379 186.405 29.7121 186.28 29.5132L185.74 28.7609C185.68 28.6665 185.64 28.5606 185.623 28.4499C185.606 28.3393 185.613 28.2264 185.642 28.1184L186.958 24.0964C187.017 23.8755 186.993 23.6409 186.893 23.4356L186.064 21.9898C186.04 21.95 186.026 21.9057 186.021 21.8598C186.016 21.8139 186.021 21.7675 186.035 21.7236C186.05 21.6798 186.073 21.6395 186.105 21.6055C186.136 21.5714 186.174 21.5444 186.217 21.5262L195.11 17.6039C195.316 17.4999 195.475 17.324 195.559 17.1098L198.15 9.19805C198.178 9.10054 198.174 8.9964 198.138 8.90138C198.102 8.80637 198.036 8.72564 197.95 8.67141Z" fill="#6E7E9B"/>
<path d="M176.656 21.0505H171.741C171.636 21.055 171.535 21.0901 171.449 21.1515C171.364 21.213 171.299 21.2981 171.262 21.3962L170.565 23.5292C170.5 23.7203 170.612 23.8749 170.814 23.8749H177.1C177.3 23.8749 177.443 23.7122 177.408 23.515L177.076 21.4104C177.057 21.3117 177.006 21.2223 176.93 21.1569C176.853 21.0914 176.757 21.0539 176.656 21.0505Z" fill="#6E7E9B"/>
</g>
<defs>
<clipPath id="clip0_146_259">
<rect width="198" height="97" fill="white" transform="translate(0.224609 0.955078)"/>
</clipPath>
</defs>
</svg>
