<svg width="155" height="253" viewBox="0 0 155 253" fill="none" xmlns="http://www.w3.org/2000/svg">
<path fill-rule="evenodd" clip-rule="evenodd" d="M118.052 92.2687L108.268 101.348C108.388 101.778 108.457 102.242 108.457 102.723C108.457 105.457 106.239 107.693 103.487 107.693C100.736 107.693 98.5181 105.474 98.5181 102.723C98.5181 99.9892 100.736 97.7539 103.487 97.7539C103.797 97.7539 104.106 97.7883 104.399 97.8399L116.005 87.0758H136.897C137.379 83.9979 137.637 80.8512 137.637 77.6357C137.637 73.6121 137.224 69.6744 136.485 65.8744H118.189L103.006 52.4451H67.0856C66.1915 53.3908 64.919 53.9582 63.509 53.9582C60.775 53.9582 58.5397 51.7401 58.5397 48.9889C58.5397 46.2549 60.7578 44.0195 63.509 44.0195C65.6412 44.0195 67.4467 45.3607 68.1517 47.235H104.966L120.149 60.6643H135.212C127.887 35.5424 104.725 17.1953 77.265 17.1953C50.1141 17.1953 27.1588 35.1125 19.5414 59.7701H33.4694L44.6633 49.8142C44.6117 49.5219 44.5773 49.2296 44.5773 48.9373C44.5773 46.2033 46.7955 43.9679 49.5467 43.9679C52.2807 43.9679 54.516 46.1861 54.516 48.9373C54.516 51.6713 52.2979 53.9066 49.5467 53.9066C49.048 53.9066 48.5666 53.8379 48.1195 53.7003L35.4468 64.9802H18.183C17.3233 69.0382 16.8418 73.2682 16.8418 77.5842C16.8418 105.096 35.2576 128.309 60.4139 135.583V115.705L37.8197 94.5212C37.493 94.59 37.1491 94.6244 36.8052 94.6244C34.0712 94.6244 31.8358 92.4062 31.8358 89.655C31.8358 86.921 34.054 84.6857 36.8052 84.6857C39.5392 84.6857 41.7745 86.9038 41.7745 89.655C41.7745 90.1021 41.7058 90.532 41.6026 90.9447L65.6412 113.487V136.89C69.3897 137.612 73.2758 138.007 77.2478 138.007C80.5321 138.007 83.7647 137.732 86.9114 137.234L87.1522 119.798C85.7422 118.921 84.8136 117.373 84.8136 115.568C84.8136 112.834 87.0318 110.599 89.783 110.599C92.517 110.599 94.7523 112.817 94.7523 115.568C94.7523 117.356 93.8066 118.921 92.3622 119.798L92.1731 136.133C113.65 130.682 130.535 113.745 135.883 92.2343L118.052 92.2687ZM77.3166 92.6126C68.9942 92.6126 62.2538 85.8721 62.2538 77.567C62.2538 69.2446 68.9942 62.5213 77.3166 62.5213C85.639 62.5213 92.3622 69.2618 92.3622 77.567C92.3622 85.8721 85.6218 92.6126 77.3166 92.6126Z" fill="#010101"/>
<path fill-rule="evenodd" clip-rule="evenodd" d="M118.052 92.2687L108.268 101.348C108.388 101.778 108.457 102.242 108.457 102.723C108.457 105.457 106.239 107.693 103.487 107.693C100.736 107.693 98.5181 105.474 98.5181 102.723C98.5181 99.9892 100.736 97.7539 103.487 97.7539C103.797 97.7539 104.106 97.7883 104.399 97.8399L116.005 87.0758H136.897C137.379 83.9979 137.637 80.8512 137.637 77.6357C137.637 73.6121 137.224 69.6744 136.485 65.8744H118.189L103.006 52.4451H67.0856C66.1915 53.3908 64.919 53.9582 63.509 53.9582C60.775 53.9582 58.5397 51.7401 58.5397 48.9889C58.5397 46.2549 60.7578 44.0195 63.509 44.0195C65.6412 44.0195 67.4467 45.3607 68.1517 47.235H104.966L120.149 60.6643H135.212C127.887 35.5424 104.725 17.1953 77.265 17.1953C50.1141 17.1953 27.1588 35.1125 19.5414 59.7701H33.4694L44.6633 49.8142C44.6117 49.5219 44.5773 49.2296 44.5773 48.9373C44.5773 46.2033 46.7955 43.9679 49.5467 43.9679C52.2807 43.9679 54.516 46.1861 54.516 48.9373C54.516 51.6713 52.2979 53.9066 49.5467 53.9066C49.048 53.9066 48.5666 53.8379 48.1195 53.7003L35.4468 64.9802H18.183C17.3233 69.0382 16.8418 73.2682 16.8418 77.5842C16.8418 105.096 35.2576 128.309 60.4139 135.583V115.705L37.8197 94.5212C37.493 94.59 37.1491 94.6244 36.8052 94.6244C34.0712 94.6244 31.8358 92.4062 31.8358 89.655C31.8358 86.921 34.054 84.6857 36.8052 84.6857C39.5392 84.6857 41.7745 86.9038 41.7745 89.655C41.7745 90.1021 41.7058 90.532 41.6026 90.9447L65.6412 113.487V136.89C69.3897 137.612 73.2758 138.007 77.2478 138.007C80.5321 138.007 83.7647 137.732 86.9114 137.234L87.1522 119.798C85.7422 118.921 84.8136 117.373 84.8136 115.568C84.8136 112.834 87.0318 110.599 89.783 110.599C92.517 110.599 94.7523 112.817 94.7523 115.568C94.7523 117.356 93.8066 118.921 92.3622 119.798L92.1731 136.133C113.65 130.682 130.535 113.745 135.883 92.2343L118.052 92.2687ZM77.3166 92.6126C68.9942 92.6126 62.2538 85.8721 62.2538 77.567C62.2538 69.2446 68.9942 62.5213 77.3166 62.5213C85.639 62.5213 92.3622 69.2618 92.3622 77.567C92.3622 85.8721 85.6218 92.6126 77.3166 92.6126Z" fill="url(#paint0_radial_251_7209)"/>
<path d="M10.9297 37.7602C17.6701 26.4631 27.179 17.0574 38.562 10.4546C49.9451 3.85168 62.8242 0.257925 75.9784 0L76.0987 6.878C64.1138 7.10153 52.3868 10.3858 42.001 16.404C31.6325 22.4223 22.9662 30.9854 16.8276 41.2852L10.9297 37.7602Z" fill="#ED2224"/>
<path d="M143.708 117.456C136.899 128.719 127.338 138.056 115.921 144.607C104.503 151.141 91.6069 154.666 78.4356 154.838L78.3496 147.96C90.3345 147.805 102.096 144.59 112.499 138.64C122.902 132.674 131.62 124.179 137.81 113.914L143.708 117.456Z" fill="#ED2224"/>
<path d="M83.837 0.257812C96.3721 1.28951 108.46 5.36473 119.052 12.1396C129.662 18.8972 138.448 28.1309 144.69 39.0669C150.915 49.9858 154.405 62.263 154.818 74.8325C155.248 87.4021 152.6 99.8856 147.115 111.2L140.924 108.191C145.928 97.8738 148.335 86.5079 147.94 75.0561C147.562 63.6042 144.381 52.4274 138.706 42.4715C133.032 32.5156 125.019 24.1073 115.355 17.9515C105.692 11.7957 94.687 8.08154 83.2695 7.13581L83.837 0.257812Z" fill="#ED2224"/>
<path d="M71.5063 154.614C58.9711 153.651 46.8486 149.644 36.2049 142.956C25.5612 136.267 16.7058 127.067 10.4124 116.2C4.11906 105.316 0.559698 93.0557 0.0610431 80.5034C-0.437612 67.9338 2.12444 55.4503 7.54087 44.1016L13.7483 47.0591C8.8133 57.3933 6.47478 68.7764 6.93904 80.2283C7.38611 91.6801 10.636 102.84 16.3619 112.761C22.105 122.683 30.1695 131.039 39.8675 137.144C49.5654 143.248 60.6046 146.893 72.0221 147.77L71.5063 154.614Z" fill="#ED2224"/>
<path d="M0.742188 210.425V185.008H16.884V189.813H6.1228V194.801H15.6768V199.495H6.1228V205.62H17.6773V210.425H0.742188Z" fill="#060F0F"/>
<path d="M33.8609 195.461C34.8267 193.725 35.7464 191.989 36.6202 190.253C37.494 188.517 38.2988 186.769 39.0346 185.008H44.9671C43.6564 187.747 42.2998 190.4 40.8971 192.967C39.4945 195.534 38.0114 198.114 36.4478 200.705V210.425H31.0671V200.779C29.5035 198.187 28.0089 195.595 26.5833 193.004C25.1807 190.412 23.824 187.747 22.5134 185.008H28.7562C29.4921 186.769 30.2853 188.517 31.1361 190.253C31.9869 191.989 32.8952 193.725 33.8609 195.461Z" fill="#060F0F"/>
<path d="M51.0076 210.425V185.008H67.1494V189.813H56.3882V194.801H65.9422V199.495H56.3882V205.62H67.9427V210.425H51.0076Z" fill="#060F0F"/>
<path d="M75.0288 210.425V185.008H91.0326V189.813H80.4094V195.131H89.8599V199.935H80.4094V210.425H75.0288Z" fill="#060F0F"/>
<path d="M97.9384 185.008H103.319V210.425H97.9384V185.008Z" fill="#060F0F"/>
<path d="M118.957 184.715C122.545 184.715 125.292 185.399 127.201 186.769C129.109 188.113 130.064 190.216 130.064 193.077C130.064 194.862 129.673 196.317 128.891 197.441C128.132 198.542 127.028 199.41 125.58 200.045C126.063 200.681 126.569 201.415 127.097 202.246C127.626 203.053 128.144 203.908 128.649 204.813C129.178 205.693 129.684 206.622 130.167 207.601C130.65 208.554 131.098 209.495 131.512 210.425H125.476C125.039 209.593 124.591 208.75 124.131 207.894C123.694 207.038 123.234 206.207 122.752 205.4C122.292 204.593 121.832 203.835 121.372 203.126C120.912 202.393 120.452 201.732 119.992 201.146H117.336V210.425H111.956V185.375C113.128 185.131 114.336 184.959 115.577 184.862C116.842 184.764 117.969 184.715 118.957 184.715ZM119.268 189.593C118.877 189.593 118.521 189.605 118.199 189.629C117.9 189.654 117.612 189.678 117.336 189.703V196.598H118.854C120.878 196.598 122.326 196.329 123.2 195.791C124.074 195.253 124.511 194.336 124.511 193.04C124.511 191.793 124.062 190.913 123.165 190.4C122.292 189.862 120.992 189.593 119.268 189.593Z" fill="#060F0F"/>
<path d="M138.065 210.425V185.008H154.207V189.813H143.446V194.801H153V199.495H143.446V205.62H155V210.425H138.065Z" fill="#060F0F"/>
<path d="M127.914 252.519H28.2366C22.5843 252.519 18.0215 246.393 18.0215 238.873C18.0215 231.322 22.607 225.227 28.2366 225.227H127.891C133.544 225.227 138.106 231.352 138.106 238.873C138.129 246.393 133.544 252.519 127.914 252.519Z" fill="#5C89E8"/>
<path d="M45.5305 243.914C44.3863 243.914 43.2714 243.676 42.1271 243.2V240.407H43.4181V242.368C44.0929 242.576 44.8557 242.695 45.7359 242.695C46.6455 242.695 47.3496 242.517 47.8484 242.16C48.3472 241.803 48.5819 241.387 48.5819 240.852C48.5819 240.555 48.5232 240.317 48.4059 240.109C48.2885 239.901 48.1418 239.723 47.9071 239.574C47.6724 239.426 47.379 239.277 47.0269 239.129C46.6748 238.98 46.2347 238.831 45.7359 238.683C45.2958 238.534 44.8851 238.386 44.445 238.207C44.0049 238.029 43.5941 237.791 43.242 237.554C42.8899 237.316 42.5965 236.989 42.3618 236.632C42.1271 236.246 42.0391 235.8 42.0391 235.295C42.0391 234.344 42.4205 233.571 43.1833 233.006C43.9462 232.412 44.9731 232.145 46.264 232.145C47.4377 232.145 48.5232 232.382 49.4621 232.888V235.651H48.1712V233.66C47.6137 233.422 46.9389 233.304 46.088 233.304C45.2371 233.304 44.5623 233.482 44.1222 233.839C43.6821 234.195 43.4474 234.611 43.4474 235.117C43.4474 235.443 43.5061 235.711 43.6234 235.919C43.7408 236.127 43.9168 236.305 44.1809 236.484C44.4156 236.662 44.7384 236.811 45.0904 236.929C45.4425 237.078 45.8826 237.227 46.3521 237.375C46.7922 237.524 47.2029 237.672 47.643 237.851C48.0831 238.029 48.4646 238.237 48.8166 238.475C49.1687 238.742 49.4621 239.04 49.6675 239.396C49.8729 239.753 49.9902 240.199 49.9902 240.704C49.9902 241.714 49.6088 242.517 48.8166 243.081C48.0245 243.646 46.9389 243.914 45.5305 243.914Z" fill="white"/>
<path d="M61.756 242.781C60.4944 243.524 59.2034 243.881 57.9125 243.881C56.2401 243.881 54.9198 243.346 53.8929 242.276C52.8953 241.206 52.3672 239.779 52.3672 237.996C52.3672 236.124 52.866 234.668 53.9222 233.627C54.9491 232.587 56.2988 232.082 57.9712 232.082C59.2328 232.082 60.4651 232.379 61.756 233.003V236.005H60.4651V233.865C59.7022 233.509 58.8514 233.33 57.8831 233.33C56.5335 233.33 55.5359 233.746 54.8318 234.549C54.1276 235.351 53.7755 236.481 53.7755 237.937C53.7755 239.423 54.1569 240.582 54.8904 241.444C55.624 242.306 56.6802 242.722 58.0005 242.722C59.1448 242.722 60.4064 242.335 61.7267 241.592V242.781H61.756Z" fill="white"/>
<path d="M71.9079 242.691H73.1989V238.322H66.744V242.691H68.035V243.88H64.1621V242.691H65.4531V233.329H64.1621V232.141H68.035V233.329H66.744V237.163H73.1989V233.329H71.9079V232.141H75.7808V233.329H74.4898V242.721H75.7808V243.91H71.9079V242.691Z" fill="white"/>
<path d="M78.3008 237.995C78.3008 236.242 78.7996 234.815 79.7678 233.745C80.736 232.676 82.0563 232.141 83.6994 232.141C85.2837 232.141 86.5454 232.646 87.4843 233.686C88.4231 234.726 88.8632 236.093 88.8632 237.847C88.8632 239.719 88.3645 241.175 87.3962 242.275C86.428 243.375 85.137 243.91 83.5527 243.91C81.9683 243.91 80.7067 243.375 79.7384 242.305C78.7702 241.235 78.3008 239.779 78.3008 237.995ZM79.6798 237.906C79.6798 239.363 80.0319 240.522 80.7067 241.384C81.3815 242.245 82.3497 242.691 83.5527 242.691C84.785 242.691 85.7238 242.245 86.3987 241.384C87.0735 240.522 87.4256 239.333 87.4256 237.906C87.4256 236.509 87.1028 235.41 86.4573 234.578C85.8119 233.745 84.8436 233.329 83.582 233.329C82.3204 233.329 81.3815 233.745 80.7067 234.548C80.0319 235.35 79.6798 236.45 79.6798 237.906Z" fill="white"/>
<path d="M91.8867 237.995C91.8867 236.242 92.3855 234.815 93.3537 233.745C94.322 232.676 95.6423 232.141 97.2853 232.141C98.8697 232.141 100.131 232.646 101.07 233.686C102.009 234.726 102.449 236.093 102.449 237.847C102.449 239.719 101.95 241.175 100.982 242.275C100.014 243.375 98.723 243.91 97.1386 243.91C95.5542 243.91 94.2926 243.375 93.3244 242.305C92.3562 241.235 91.8867 239.779 91.8867 237.995ZM93.295 237.906C93.295 239.363 93.6471 240.522 94.3219 241.384C94.9968 242.245 95.965 242.691 97.1679 242.691C98.4002 242.691 99.3391 242.245 100.014 241.384C100.689 240.522 101.041 239.333 101.041 237.906C101.041 236.509 100.718 235.41 100.073 234.578C99.4271 233.745 98.4589 233.329 97.1973 233.329C95.9357 233.329 94.9968 233.745 94.3219 234.548C93.6178 235.35 93.295 236.45 93.295 237.906Z" fill="white"/>
<path d="M104.945 242.691H106.236V233.329H104.945V232.141H108.818V233.329H107.527V242.721H112.691V240.403H113.982V243.88H104.945V242.691Z" fill="white"/>
<defs>
<radialGradient id="paint0_radial_251_7209" cx="0" cy="0" r="1" gradientUnits="userSpaceOnUse" gradientTransform="translate(77.3155 77.5233) rotate(-155.453) scale(66.4183 66.425)">
<stop offset="0.0104" stop-color="#71CCDB"/>
<stop offset="0.2083" stop-color="#0765AD"/>
<stop offset="0.5" stop-color="#21386E"/>
<stop offset="0.8646" stop-color="#EB2C2A"/>
<stop offset="0.9948" stop-color="#ED2224"/>
</radialGradient>
</defs>
</svg>
