<svg width="56" height="56" viewBox="0 0 56 56" fill="none" xmlns="http://www.w3.org/2000/svg">
<circle cx="28" cy="28" r="27.5" fill="#0063AA" stroke="white"/>
<g clip-path="url(#clip0_413_533)">
<path d="M18.6169 25.767C18.6169 23.4926 18.6169 21.2182 18.6169 18.9438C18.6169 17.8638 19.2334 17.0948 20.228 16.8902C20.3678 16.8657 20.5157 16.8575 20.6555 16.8575C23.9434 16.8575 27.2396 16.8575 30.5275 16.8575C30.5851 16.8575 30.6508 16.8493 30.7084 16.8657C30.9632 16.9066 31.1194 17.0539 31.1276 17.3157C31.1358 17.5611 30.9879 17.7166 30.7495 17.7656C30.6426 17.7902 30.5275 17.782 30.4125 17.782C27.2067 17.782 23.9927 17.782 20.787 17.782C19.9239 17.782 19.5376 18.1665 19.5376 19.0337C19.5376 23.5417 19.5376 28.0578 19.5376 32.5657C19.5376 33.4247 19.9321 33.8174 20.7952 33.8174C25.3244 33.8174 29.8617 33.8174 34.3909 33.8174C35.2457 33.8174 35.6403 33.4247 35.6403 32.5902C35.6403 29.424 35.6403 26.266 35.6403 23.0999C35.6403 22.969 35.6403 22.8299 35.6732 22.7072C35.7389 22.4699 35.9116 22.3554 36.1582 22.3799C36.3883 22.4045 36.528 22.5435 36.5609 22.7726C36.5691 22.8626 36.5691 22.9526 36.5691 23.0508C36.5691 26.2251 36.5445 29.3995 36.5774 32.5738C36.5938 33.8419 35.6814 34.7583 34.3909 34.7501C29.8617 34.7255 25.3244 34.7419 20.7952 34.7419C19.4225 34.7419 18.6169 33.9401 18.6169 32.5738C18.6087 30.2994 18.6169 28.0332 18.6169 25.767Z" fill="white"/>
<path d="M34.4078 34.8638C34.3996 34.8638 34.3996 34.8638 34.3914 34.8638C31.2021 34.8475 27.9552 34.8475 24.8152 34.8557C23.4754 34.8557 22.1355 34.8557 20.7957 34.8557C19.3572 34.8557 18.4941 33.9966 18.4941 32.5649C18.4941 30.9532 18.4941 29.3496 18.4941 27.7379V25.7662H18.6174H18.4941C18.4941 25.0953 18.4941 24.4163 18.4941 23.7454C18.4941 22.1746 18.4941 20.5465 18.4941 18.943C18.4941 17.8139 19.1517 16.9794 20.2039 16.7749C20.3683 16.7422 20.5327 16.7422 20.656 16.7422C23.6644 16.7422 26.6811 16.7422 29.6896 16.7422H30.528C30.5445 16.7422 30.5609 16.7422 30.5691 16.7422C30.6185 16.7422 30.676 16.7422 30.7253 16.7504C31.0459 16.7995 31.2432 17.004 31.2432 17.3149C31.2514 17.6094 31.0706 17.8221 30.7664 17.8876C30.6678 17.9121 30.5774 17.9039 30.4869 17.9039C30.4623 17.9039 30.4376 17.9039 30.4047 17.9039H20.7793C19.9819 17.9039 19.6531 18.2312 19.6531 19.033C19.6531 23.5409 19.6531 28.057 19.6531 32.5649C19.6531 33.3585 19.9902 33.6939 20.7875 33.6939C25.3166 33.6939 29.854 33.6939 34.3832 33.6939C35.1723 33.6939 35.5093 33.3585 35.5093 32.5894C35.5093 31.1741 35.5093 29.7669 35.5093 28.3515C35.5093 26.6007 35.5093 24.8499 35.5093 23.0991V23.0745C35.5093 22.9436 35.5093 22.8046 35.5422 22.6737C35.6162 22.3791 35.8463 22.2237 36.1587 22.2564C36.4464 22.2891 36.6272 22.4691 36.6683 22.7555C36.6765 22.8373 36.6765 22.9191 36.6765 23.0009V23.05C36.6765 23.9663 36.6765 24.8826 36.6765 25.7989C36.6683 28.0161 36.6683 30.3068 36.693 32.5649C36.7012 33.2112 36.471 33.8003 36.0518 34.2175C35.649 34.6348 35.0572 34.8638 34.4078 34.8638ZM28.3169 34.6102C30.339 34.6102 32.3775 34.6102 34.3914 34.6266H34.3996C34.9832 34.6266 35.5093 34.422 35.8792 34.0539C36.2491 33.6775 36.4546 33.1539 36.4464 32.5731C36.4217 30.315 36.4217 28.0242 36.4299 25.7989C36.4299 24.8826 36.4299 23.9663 36.4299 23.05V23.0009C36.4299 22.9273 36.4299 22.8536 36.4217 22.7882C36.397 22.6082 36.3066 22.5182 36.134 22.5018C35.945 22.4855 35.8299 22.5591 35.7806 22.7391C35.7559 22.8455 35.7559 22.96 35.7559 23.0827V23.1073C35.7559 24.8581 35.7559 26.6089 35.7559 28.3597C35.7559 29.775 35.7559 31.1822 35.7559 32.5976C35.7559 33.5057 35.3038 33.9475 34.3832 33.9475C29.854 33.9475 25.3166 33.9475 20.7875 33.9475C19.8586 33.9475 19.4065 33.4976 19.4065 32.5731C19.4065 28.0652 19.4065 23.5491 19.4065 19.0411C19.4065 18.1003 19.8422 17.6667 20.7793 17.6667H30.4047C30.4294 17.6667 30.4623 17.6667 30.4869 17.6667C30.5691 17.6667 30.6431 17.6667 30.7089 17.6585C30.8979 17.6176 30.9966 17.5031 30.9884 17.3312C30.9884 17.1431 30.8815 17.0285 30.676 17.004C30.6431 16.9958 30.602 16.9958 30.5609 17.004C30.5445 17.004 30.528 17.004 30.5116 17.004H29.6732C26.6647 17.004 23.648 17.004 20.6395 17.004C20.5245 17.004 20.3765 17.004 20.2368 17.0367C19.3079 17.2003 18.7407 17.9203 18.7407 18.943C18.7407 20.5465 18.7407 22.1746 18.7407 23.7454C18.7407 24.4163 18.7407 25.0953 18.7407 25.7662V27.7379C18.7407 29.3496 18.7407 30.9532 18.7407 32.5649C18.7407 33.8657 19.4887 34.6102 20.7957 34.6102C22.1355 34.6102 23.4754 34.6102 24.8152 34.6102C25.9742 34.6102 27.1415 34.6102 28.3169 34.6102Z" fill="white"/>
<path d="M34.4078 34.8638C34.3996 34.8638 34.3996 34.8638 34.3914 34.8638C31.2021 34.8475 27.9552 34.8475 24.8152 34.8557C23.4754 34.8557 22.1355 34.8557 20.7957 34.8557C19.3572 34.8557 18.4941 33.9966 18.4941 32.5649C18.4941 30.9532 18.4941 29.3496 18.4941 27.7379V25.7662H18.6174H18.4941C18.4941 25.0953 18.4941 24.4163 18.4941 23.7454C18.4941 22.1746 18.4941 20.5465 18.4941 18.943C18.4941 17.8139 19.1517 16.9794 20.2039 16.7749C20.3683 16.7422 20.5327 16.7422 20.656 16.7422C23.6644 16.7422 26.6811 16.7422 29.6896 16.7422H30.528C30.5445 16.7422 30.5609 16.7422 30.5691 16.7422C30.6185 16.7422 30.676 16.7422 30.7253 16.7504C31.0459 16.7995 31.2432 17.004 31.2432 17.3149C31.2514 17.6094 31.0706 17.8221 30.7664 17.8876C30.6678 17.9121 30.5774 17.9039 30.4869 17.9039C30.4623 17.9039 30.4376 17.9039 30.4047 17.9039H20.7793C19.9819 17.9039 19.6531 18.2312 19.6531 19.033C19.6531 23.5409 19.6531 28.057 19.6531 32.5649C19.6531 33.3585 19.9902 33.6939 20.7875 33.6939C25.3166 33.6939 29.854 33.6939 34.3832 33.6939C35.1723 33.6939 35.5093 33.3585 35.5093 32.5894C35.5093 31.1741 35.5093 29.7669 35.5093 28.3515C35.5093 26.6007 35.5093 24.8499 35.5093 23.0991V23.0745C35.5093 22.9436 35.5093 22.8046 35.5422 22.6737C35.6162 22.3791 35.8463 22.2237 36.1587 22.2564C36.4464 22.2891 36.6272 22.4691 36.6683 22.7555C36.6765 22.8373 36.6765 22.9191 36.6765 23.0009V23.05C36.6765 23.9663 36.6765 24.8826 36.6765 25.7989C36.6683 28.0161 36.6683 30.3068 36.693 32.5649C36.7012 33.2112 36.471 33.8003 36.0518 34.2175C35.649 34.6348 35.0572 34.8638 34.4078 34.8638ZM28.3169 34.6102C30.339 34.6102 32.3775 34.6102 34.3914 34.6266H34.3996C34.9832 34.6266 35.5093 34.422 35.8792 34.0539C36.2491 33.6775 36.4546 33.1539 36.4464 32.5731C36.4217 30.315 36.4217 28.0242 36.4299 25.7989C36.4299 24.8826 36.4299 23.9663 36.4299 23.05V23.0009C36.4299 22.9273 36.4299 22.8536 36.4217 22.7882C36.397 22.6082 36.3066 22.5182 36.134 22.5018C35.945 22.4855 35.8299 22.5591 35.7806 22.7391C35.7559 22.8455 35.7559 22.96 35.7559 23.0827V23.1073C35.7559 24.8581 35.7559 26.6089 35.7559 28.3597C35.7559 29.775 35.7559 31.1822 35.7559 32.5976C35.7559 33.5057 35.3038 33.9475 34.3832 33.9475C29.854 33.9475 25.3166 33.9475 20.7875 33.9475C19.8586 33.9475 19.4065 33.4976 19.4065 32.5731C19.4065 28.0652 19.4065 23.5491 19.4065 19.0411C19.4065 18.1003 19.8422 17.6667 20.7793 17.6667H30.4047C30.4294 17.6667 30.4623 17.6667 30.4869 17.6667C30.5691 17.6667 30.6431 17.6667 30.7089 17.6585C30.8979 17.6176 30.9966 17.5031 30.9884 17.3312C30.9884 17.1431 30.8815 17.0285 30.676 17.004C30.6431 16.9958 30.602 16.9958 30.5609 17.004C30.5445 17.004 30.528 17.004 30.5116 17.004H29.6732C26.6647 17.004 23.648 17.004 20.6395 17.004C20.5245 17.004 20.3765 17.004 20.2368 17.0367C19.3079 17.2003 18.7407 17.9203 18.7407 18.943C18.7407 20.5465 18.7407 22.1746 18.7407 23.7454C18.7407 24.4163 18.7407 25.0953 18.7407 25.7662V27.7379C18.7407 29.3496 18.7407 30.9532 18.7407 32.5649C18.7407 33.8657 19.4887 34.6102 20.7957 34.6102C22.1355 34.6102 23.4754 34.6102 24.8152 34.6102C25.9742 34.6102 27.1415 34.6102 28.3169 34.6102Z" fill="white"/>
<path d="M34.4081 34.9846H34.3916C31.2599 34.9683 28.0706 34.9683 24.9881 34.9765H24.8155C23.4756 34.9765 22.1358 34.9765 20.796 34.9765C19.2753 34.9765 18.3711 34.0765 18.3711 32.563C18.3711 30.9512 18.3711 29.3477 18.3711 27.736V25.7643C18.3711 25.0934 18.3711 24.4144 18.3711 23.7435C18.3711 22.1727 18.3711 20.5528 18.3711 18.9411C18.3711 17.7466 19.0698 16.8712 20.1795 16.6503C20.3521 16.6176 20.5247 16.6094 20.6562 16.6094C23.4839 16.6094 26.3033 16.6094 29.1309 16.6094H30.5776C30.6352 16.6094 30.6927 16.6094 30.7585 16.6176C31.1448 16.6748 31.3749 16.9284 31.3832 17.3048C31.3914 17.6566 31.1695 17.9266 30.8078 18.0002C30.7009 18.0247 30.5858 18.0247 30.4954 18.0166C30.4708 18.0166 30.4461 18.0166 30.4214 18.0166H20.796C20.0644 18.0166 19.7931 18.2865 19.7931 19.0229C19.7931 23.5308 19.7931 28.0469 19.7931 32.5548C19.7931 33.2829 20.0808 33.5611 20.8042 33.5611C25.3333 33.5611 29.8707 33.5611 34.3999 33.5611C35.1232 33.5611 35.4027 33.2829 35.4027 32.5793C35.4027 31.164 35.4027 29.7568 35.4027 28.3414C35.4027 26.5906 35.4027 24.8398 35.4027 23.089V23.0644C35.4027 22.9254 35.4027 22.7781 35.4438 22.6308C35.5342 22.279 35.8219 22.0827 36.1918 22.1154C36.537 22.1481 36.7672 22.3772 36.8083 22.7208C36.8165 22.8108 36.8165 22.9008 36.8165 22.9826V23.0317C36.8165 23.948 36.8165 24.8643 36.8165 25.7806C36.8083 27.9978 36.8083 30.2886 36.833 32.5466C36.8412 33.2256 36.6028 33.8474 36.1589 34.2892C35.7068 34.7392 35.0903 34.9846 34.4081 34.9846ZM28.3007 34.731C30.3228 34.731 32.3696 34.731 34.3999 34.7392H34.4163H34.4081C32.6573 34.731 30.7338 34.7228 28.3336 34.7228C27.3143 34.7228 26.3033 34.7228 25.3005 34.7228H24.8319C23.4921 34.7228 22.1522 34.7228 20.8124 34.7228C22.1522 34.7228 23.4921 34.7228 24.8319 34.7228H25.0045C26.0813 34.731 27.1828 34.731 28.3007 34.731ZM18.6177 25.887V27.736C18.6177 29.3477 18.6177 30.9512 18.6177 32.563C18.6177 33.9211 19.4315 34.731 20.796 34.731C19.4315 34.731 18.6177 33.9211 18.6177 32.563C18.6177 30.9512 18.6177 29.3477 18.6177 27.736V25.887ZM28.3172 34.4856C30.7091 34.4856 32.6408 34.4856 34.3916 34.5019H34.3999C34.9506 34.5019 35.452 34.3138 35.7972 33.962C36.1425 33.6102 36.3315 33.1193 36.3315 32.5711C36.3069 30.3131 36.3069 28.0223 36.3151 25.797C36.3151 24.8807 36.3151 23.9644 36.3151 23.0481V22.999C36.3151 22.9254 36.3151 22.8599 36.3069 22.8026C36.2904 22.6799 36.2411 22.6308 36.126 22.6226C35.9945 22.6063 35.937 22.6472 35.9041 22.7699C35.8794 22.8599 35.8794 22.9744 35.8794 23.0808V23.1053C35.8794 24.8562 35.8794 26.607 35.8794 28.3578C35.8794 29.7731 35.8794 31.1803 35.8794 32.5957C35.8794 33.5774 35.378 34.0683 34.3834 34.0683C29.8543 34.0683 25.3169 34.0683 20.7877 34.0683C19.7849 34.0683 19.2835 33.5611 19.2835 32.5711C19.2835 28.0632 19.2835 23.5471 19.2835 19.0392C19.2835 18.0329 19.7767 17.542 20.7795 17.542H30.405C30.4379 17.542 30.4625 17.542 30.4954 17.542C30.5694 17.542 30.6352 17.542 30.6927 17.5339C30.8571 17.5011 30.8818 17.4111 30.8735 17.3293C30.8735 17.223 30.8324 17.1412 30.668 17.1166C30.6434 17.1166 30.6105 17.1166 30.5694 17.1166C30.553 17.1166 30.5365 17.1166 30.5201 17.1166H29.1556C26.3197 17.1166 23.4839 17.1166 20.648 17.1166C20.5411 17.1166 20.3932 17.1166 20.2699 17.1493C19.3986 17.3048 18.8643 17.9838 18.8643 18.9411C18.8643 20.5528 18.8643 22.1727 18.8643 23.7435C18.8643 24.4144 18.8643 25.0934 18.8643 25.7643V27.736C18.8643 29.3477 18.8643 30.9512 18.8643 32.563C18.8643 33.8065 19.5548 34.4856 20.796 34.4856C22.1358 34.4856 23.4756 34.4856 24.8155 34.4856H25.284C26.2868 34.4856 27.2979 34.4856 28.3172 34.4856ZM36.2411 33.7983C36.1671 33.9129 36.0767 34.0274 35.9781 34.1256C35.8794 34.2238 35.7644 34.3138 35.6411 34.3956C35.7644 34.3219 35.8712 34.232 35.9781 34.1256C36.0767 34.0274 36.1671 33.9211 36.2411 33.7983ZM19.5383 32.563C19.5383 33.4138 19.9411 33.8147 20.796 33.8147C19.9411 33.8147 19.5383 33.4138 19.5383 32.563ZM35.6411 28.4723C35.6411 29.8386 35.6411 31.213 35.6411 32.5793C35.6411 33.422 35.2465 33.8065 34.3916 33.8065C35.2465 33.8065 35.6411 33.4138 35.6411 32.5793C35.6411 31.213 35.6411 29.8468 35.6411 28.4723ZM36.5617 27.9978C36.5617 29.5113 36.5617 31.0494 36.5781 32.563C36.5781 32.6611 36.5781 32.7511 36.5617 32.8493C36.5699 32.7593 36.5781 32.6611 36.5781 32.563C36.5617 31.0412 36.5617 29.5113 36.5617 27.9978ZM20.7877 17.7711C19.9247 17.7711 19.5383 18.1556 19.5383 19.0229C19.5383 22.9335 19.5383 26.8442 19.5383 30.7549C19.5383 26.8442 19.5383 22.9335 19.5383 19.0229C19.5383 18.1638 19.9247 17.7711 20.7877 17.7711ZM35.6493 23.089C35.6493 24.7171 35.6493 26.3452 35.6493 27.9732C35.6411 26.3452 35.6411 24.7171 35.6493 23.089ZM36.5699 22.9744C36.5699 22.9826 36.5699 22.9826 36.5699 22.9908V23.0399C36.5699 23.9562 36.5699 24.8725 36.5699 25.7888C36.5699 26.0179 36.5699 26.2388 36.5699 26.4679C36.5699 26.2388 36.5699 26.0097 36.5699 25.7888C36.5699 24.8725 36.5699 23.9562 36.5699 23.0399V22.9908C36.5699 22.9826 36.5699 22.9826 36.5699 22.9744ZM18.6177 25.6416C18.6177 25.0116 18.6177 24.3735 18.6177 23.7435C18.6177 22.5572 18.6177 21.3464 18.6177 20.1273C18.6177 21.3464 18.6177 22.5572 18.6177 23.7435C18.6177 24.3816 18.6177 25.0116 18.6177 25.6416ZM35.6904 22.6554C35.6822 22.6717 35.6822 22.6799 35.6822 22.6963C35.6493 22.8108 35.6493 22.9417 35.6493 23.0644C35.6493 22.9417 35.6493 22.8108 35.6822 22.6963C35.6822 22.6881 35.6822 22.6717 35.6904 22.6554ZM36.1671 22.369C36.3891 22.3936 36.5288 22.5327 36.5535 22.7617C36.5535 22.7781 36.5535 22.7945 36.5617 22.8108C36.5617 22.7945 36.5617 22.7781 36.5535 22.7617C36.5288 22.5327 36.3891 22.3936 36.1671 22.369ZM36.1178 22.369C36.1343 22.369 36.1425 22.369 36.1589 22.369C36.1425 22.369 36.1343 22.369 36.1178 22.369ZM30.5119 17.7793C30.5941 17.7793 30.6763 17.7793 30.7502 17.7629C30.6763 17.7793 30.5941 17.7793 30.5119 17.7793ZM30.4132 17.7711C30.4214 17.7711 30.4297 17.7711 30.4379 17.7711C30.4297 17.7711 30.4214 17.7711 30.4132 17.7711ZM30.7338 16.863C30.9886 16.9039 31.1284 17.0675 31.1284 17.313C31.1284 17.3212 31.1284 17.3375 31.1284 17.3457C31.1284 17.3375 31.1284 17.3212 31.1284 17.313C31.1284 17.0593 30.9886 16.9039 30.7338 16.863ZM20.6562 16.8548C20.5329 16.8548 20.3767 16.8548 20.2288 16.8875C20.2123 16.8875 20.1959 16.8957 20.1795 16.8957C20.1959 16.8957 20.2123 16.8875 20.2288 16.8875C20.3767 16.863 20.5411 16.8548 20.6562 16.8548ZM30.6352 16.8548C30.6598 16.8548 30.6763 16.8548 30.7009 16.8548C30.6845 16.8548 30.6598 16.8548 30.6352 16.8548ZM30.5283 16.8548C30.5283 16.8548 30.5365 16.8548 30.5283 16.8548C30.5365 16.8548 30.5283 16.8548 30.5283 16.8548ZM30.5776 16.8548C30.5612 16.8548 30.5447 16.8548 30.5283 16.8548C30.5447 16.8548 30.5612 16.8548 30.5776 16.8548Z" fill="white"/>
<path d="M23.0156 31.6115C22.3005 31.6443 21.8813 31.1943 21.9388 30.4907C21.9964 29.8444 22.0457 29.1899 22.0868 28.5354C22.1032 28.2245 22.2101 27.9627 22.4403 27.7418C26.1392 24.0602 29.8382 20.3786 33.5371 16.7052C34.1783 16.067 35.0496 16.067 35.6989 16.7052C36.1017 17.0979 36.4963 17.4988 36.899 17.8996C37.5484 18.5541 37.5566 19.4132 36.899 20.0759C35.888 21.0904 34.8687 22.0967 33.8577 23.1111C31.2191 25.7373 28.5805 28.3636 25.9419 30.9979C25.6625 31.2761 25.3583 31.4479 24.9473 31.4725C24.3062 31.4888 23.6568 31.5543 23.0156 31.6115ZM22.8512 30.6952C23.5335 30.6461 24.1829 30.6052 24.8322 30.5398C24.9966 30.5234 25.1857 30.4334 25.3008 30.3107C28.1366 27.5045 30.9561 24.6901 33.7837 21.8758C33.8495 21.8103 33.9152 21.7285 33.9563 21.6876C33.2576 20.9922 32.5836 20.3213 31.9013 19.6423C31.9013 19.6423 31.8685 19.6586 31.852 19.6832C28.9504 22.5712 26.057 25.451 23.1554 28.339C23.0978 28.3963 23.0321 28.4863 23.0239 28.5681C22.9581 29.2635 22.9088 29.9589 22.8512 30.6952ZM34.6714 20.9513C35.214 20.4277 35.7729 19.8877 36.3154 19.3396C36.5209 19.135 36.5045 18.8323 36.3072 18.6196C35.8798 18.1778 35.4441 17.7442 35.0085 17.3188C34.7865 17.1061 34.4906 17.0815 34.2851 17.286C33.7179 17.8342 33.1836 18.3987 32.6576 18.9305C33.3234 19.6014 33.9974 20.2804 34.6714 20.9513Z" fill="white"/>
<path d="M22.9491 31.7353C22.5956 31.7353 22.3079 31.6208 22.1024 31.4163C21.8805 31.1872 21.7901 30.8681 21.823 30.4836C21.8805 29.8455 21.9298 29.1909 21.9709 28.5364C21.9956 28.1846 22.1189 27.9065 22.3573 27.6692C23.9766 26.0657 25.5877 24.454 27.1988 22.8504C29.2784 20.7805 31.3662 18.7025 33.4541 16.6326C34.1446 15.9454 35.0816 15.9454 35.7885 16.6326C36.1338 16.9762 36.5037 17.3362 36.9886 17.8271C37.6873 18.5307 37.6873 19.4715 36.9886 20.1751C36.2735 20.8951 35.5419 21.6232 34.835 22.3268C34.5391 22.6213 34.2432 22.9159 33.9473 23.2104L32.1307 25.0185C30.1333 27.0065 28.0619 29.0682 26.0315 31.0972C25.7027 31.4326 25.3657 31.5881 24.9547 31.6044C24.5026 31.629 24.0423 31.6699 23.5902 31.7026C23.4012 31.719 23.2121 31.7353 23.0231 31.7517H23.0148C22.9984 31.7353 22.9737 31.7353 22.9491 31.7353ZM34.6131 16.3544C34.2679 16.3544 33.9144 16.5017 33.6267 16.7962C31.5389 18.8661 29.4592 20.9442 27.3714 23.014C25.7603 24.6176 24.141 26.2293 22.5299 27.8328C22.3326 28.0292 22.234 28.2501 22.2175 28.5446C22.1764 29.1991 22.1271 29.8618 22.0696 30.5C22.0449 30.8108 22.1189 31.0645 22.2833 31.2445C22.4477 31.4163 22.7025 31.5063 23.0148 31.4899C23.2039 31.4735 23.3847 31.4572 23.5738 31.4408C24.0259 31.3999 24.4862 31.359 24.9465 31.3426C25.2918 31.3263 25.5712 31.1954 25.8589 30.909C27.8892 28.8801 29.9606 26.8265 31.9581 24.8303L33.7747 23.0222C34.0706 22.7277 34.3665 22.4332 34.6624 22.1386C35.3693 21.435 36.1009 20.7069 36.816 19.987C37.4161 19.3815 37.4161 18.5961 36.816 17.9825C36.3393 17.4998 35.9694 17.1317 35.6241 16.7962C35.3118 16.5017 34.9583 16.3544 34.6131 16.3544ZM22.7189 30.8272L22.7682 30.1809C22.8093 29.6164 22.8504 29.0846 22.8998 28.5528C22.908 28.4301 22.9984 28.3237 23.0724 28.2501C25.9329 25.403 28.8181 22.5313 31.769 19.5943C31.8019 19.5615 31.8266 19.5452 31.843 19.537L31.9252 19.4797L31.991 19.5615L34.1281 21.6969L34.0459 21.7868C34.0377 21.795 34.0213 21.8114 34.013 21.8278C33.9802 21.8687 33.9308 21.9259 33.8733 21.975L33.0102 22.8341C30.5196 25.3212 27.9386 27.8901 25.3904 30.41C25.2507 30.549 25.0369 30.6472 24.8479 30.6718C24.3711 30.7209 23.9108 30.7536 23.4176 30.7945C23.2368 30.8108 23.0559 30.819 22.8669 30.8354L22.7189 30.8272ZM31.8923 19.8151C28.9578 22.7359 26.0891 25.5912 23.245 28.4301C23.1792 28.4955 23.1464 28.5528 23.1464 28.5773C23.097 29.1173 23.0559 29.6409 23.0148 30.2054L22.9902 30.5654C23.1299 30.5572 23.2614 30.549 23.4012 30.5327C23.8944 30.5 24.3547 30.4672 24.8232 30.4181C24.9547 30.4018 25.1191 30.3281 25.2178 30.23C27.7577 27.7101 30.3388 25.1412 32.8376 22.6622L33.7007 21.8032C33.7336 21.7705 33.7582 21.7378 33.7911 21.7132L31.8923 19.8151ZM34.6706 21.1242L32.4841 18.9316L32.5663 18.8416C32.7143 18.6943 32.8623 18.5389 33.0102 18.3834C33.3966 17.9907 33.7911 17.5816 34.1939 17.1889C34.4487 16.9435 34.8104 16.9599 35.0899 17.2217C35.5502 17.6635 35.994 18.1052 36.3968 18.5225C36.6434 18.7843 36.6516 19.1688 36.405 19.4143C36.0187 19.807 35.6077 20.1997 35.2214 20.576C35.0652 20.7233 34.909 20.8787 34.7611 21.026L34.6706 21.1242ZM32.8294 18.9234L34.6706 20.7724C34.7939 20.6496 34.9172 20.5269 35.0488 20.4042C35.4351 20.0279 35.8379 19.6352 36.2324 19.2425C36.3804 19.087 36.3804 18.8579 36.2242 18.6943C35.8214 18.2771 35.3858 17.8353 34.9255 17.4017C34.7446 17.2298 34.5309 17.2135 34.3747 17.3607C33.9719 17.7535 33.5774 18.1543 33.1911 18.547C33.0678 18.6861 32.9445 18.8088 32.8294 18.9234Z" fill="white"/>
<path d="M22.9491 31.7353C22.5956 31.7353 22.3079 31.6208 22.1024 31.4163C21.8805 31.1872 21.7901 30.8681 21.823 30.4836C21.8805 29.8455 21.9298 29.1909 21.9709 28.5364C21.9956 28.1846 22.1189 27.9065 22.3573 27.6692C23.9766 26.0657 25.5877 24.454 27.1988 22.8504C29.2784 20.7805 31.3662 18.7025 33.4541 16.6326C34.1446 15.9454 35.0816 15.9454 35.7885 16.6326C36.1338 16.9762 36.5037 17.3362 36.9886 17.8271C37.6873 18.5307 37.6873 19.4715 36.9886 20.1751C36.2735 20.8951 35.5419 21.6232 34.835 22.3268C34.5391 22.6213 34.2432 22.9159 33.9473 23.2104L32.1307 25.0185C30.1333 27.0065 28.0619 29.0682 26.0315 31.0972C25.7027 31.4326 25.3657 31.5881 24.9547 31.6044C24.5026 31.629 24.0423 31.6699 23.5902 31.7026C23.4012 31.719 23.2121 31.7353 23.0231 31.7517H23.0148C22.9984 31.7353 22.9737 31.7353 22.9491 31.7353ZM34.6131 16.3544C34.2679 16.3544 33.9144 16.5017 33.6267 16.7962C31.5389 18.8661 29.4592 20.9442 27.3714 23.014C25.7603 24.6176 24.141 26.2293 22.5299 27.8328C22.3326 28.0292 22.234 28.2501 22.2175 28.5446C22.1764 29.1991 22.1271 29.8618 22.0696 30.5C22.0449 30.8108 22.1189 31.0645 22.2833 31.2445C22.4477 31.4163 22.7025 31.5063 23.0148 31.4899C23.2039 31.4735 23.3847 31.4572 23.5738 31.4408C24.0259 31.3999 24.4862 31.359 24.9465 31.3426C25.2918 31.3263 25.5712 31.1954 25.8589 30.909C27.8892 28.8801 29.9606 26.8265 31.9581 24.8303L33.7747 23.0222C34.0706 22.7277 34.3665 22.4332 34.6624 22.1386C35.3693 21.435 36.1009 20.7069 36.816 19.987C37.4161 19.3815 37.4161 18.5961 36.816 17.9825C36.3393 17.4998 35.9694 17.1317 35.6241 16.7962C35.3118 16.5017 34.9583 16.3544 34.6131 16.3544ZM22.7189 30.8272L22.7682 30.1809C22.8093 29.6164 22.8504 29.0846 22.8998 28.5528C22.908 28.4301 22.9984 28.3237 23.0724 28.2501C25.9329 25.403 28.8181 22.5313 31.769 19.5943C31.8019 19.5615 31.8266 19.5452 31.843 19.537L31.9252 19.4797L31.991 19.5615L34.1281 21.6969L34.0459 21.7868C34.0377 21.795 34.0213 21.8114 34.013 21.8278C33.9802 21.8687 33.9308 21.9259 33.8733 21.975L33.0102 22.8341C30.5196 25.3212 27.9386 27.8901 25.3904 30.41C25.2507 30.549 25.0369 30.6472 24.8479 30.6718C24.3711 30.7209 23.9108 30.7536 23.4176 30.7945C23.2368 30.8108 23.0559 30.819 22.8669 30.8354L22.7189 30.8272ZM31.8923 19.8151C28.9578 22.7359 26.0891 25.5912 23.245 28.4301C23.1792 28.4955 23.1464 28.5528 23.1464 28.5773C23.097 29.1173 23.0559 29.6409 23.0148 30.2054L22.9902 30.5654C23.1299 30.5572 23.2614 30.549 23.4012 30.5327C23.8944 30.5 24.3547 30.4672 24.8232 30.4181C24.9547 30.4018 25.1191 30.3281 25.2178 30.23C27.7577 27.7101 30.3388 25.1412 32.8376 22.6622L33.7007 21.8032C33.7336 21.7705 33.7582 21.7378 33.7911 21.7132L31.8923 19.8151ZM34.6706 21.1242L32.4841 18.9316L32.5663 18.8416C32.7143 18.6943 32.8623 18.5389 33.0102 18.3834C33.3966 17.9907 33.7911 17.5816 34.1939 17.1889C34.4487 16.9435 34.8104 16.9599 35.0899 17.2217C35.5502 17.6635 35.994 18.1052 36.3968 18.5225C36.6434 18.7843 36.6516 19.1688 36.405 19.4143C36.0187 19.807 35.6077 20.1997 35.2214 20.576C35.0652 20.7233 34.909 20.8787 34.7611 21.026L34.6706 21.1242ZM32.8294 18.9234L34.6706 20.7724C34.7939 20.6496 34.9172 20.5269 35.0488 20.4042C35.4351 20.0279 35.8379 19.6352 36.2324 19.2425C36.3804 19.087 36.3804 18.8579 36.2242 18.6943C35.8214 18.2771 35.3858 17.8353 34.9255 17.4017C34.7446 17.2298 34.5309 17.2135 34.3747 17.3607C33.9719 17.7535 33.5774 18.1543 33.1911 18.547C33.0678 18.6861 32.9445 18.8088 32.8294 18.9234Z" fill="white"/>
<path d="M22.9494 31.8555C22.5631 31.8555 22.2425 31.7328 22.0123 31.4955C21.7658 31.2419 21.6589 30.8901 21.7 30.4647C21.7575 29.8265 21.8068 29.172 21.8479 28.5175C21.8726 28.1412 22.0123 27.8303 22.2672 27.5685C23.8372 26.0059 25.4072 24.4432 26.9772 22.8888L27.1169 22.7497C29.1965 20.6798 31.2844 18.6018 33.3722 16.5319C34.112 15.7956 35.1231 15.7874 35.8793 16.5319C36.2327 16.8755 36.6026 17.2436 37.0794 17.7263C37.8274 18.479 37.8274 19.4935 37.0794 20.2462C36.3643 20.9743 35.6327 21.6943 34.9258 22.3979L34.8765 22.447C34.597 22.7251 34.3175 23.0033 34.0298 23.2815L32.2132 25.0895C30.2076 27.0858 28.1444 29.1393 26.1141 31.1683C25.7606 31.5201 25.3989 31.6919 24.9551 31.7082C24.503 31.7328 24.0427 31.7655 23.5988 31.8064C23.4097 31.8228 23.2207 31.8391 23.0316 31.8555H23.0234C22.9987 31.8555 22.9741 31.8555 22.9494 31.8555ZM22.4644 31.5201C22.6206 31.5855 22.8097 31.6182 23.0152 31.6101C23.2042 31.5937 23.3933 31.5773 23.5741 31.561C23.8536 31.5364 24.1331 31.5119 24.4126 31.4955C24.1331 31.5119 23.8536 31.5364 23.5741 31.561C23.3768 31.5773 23.196 31.5937 23.007 31.6101C22.8097 31.6182 22.6206 31.5855 22.4644 31.5201ZM25.7113 31.1928C25.5716 31.2992 25.4236 31.3646 25.2674 31.4137C25.4236 31.3646 25.5633 31.291 25.7113 31.1928ZM21.9548 30.2929C21.9466 30.3583 21.9466 30.4238 21.9384 30.4892C21.9055 30.8328 21.9959 31.1274 22.185 31.3237C22.2096 31.3483 22.2261 31.3646 22.2507 31.381C22.2261 31.3646 22.2096 31.3401 22.185 31.3237C21.9959 31.1192 21.9055 30.8328 21.9384 30.4892C21.9466 30.4238 21.9548 30.3583 21.9548 30.2929ZM34.6134 16.4746C34.2846 16.4746 33.9723 16.6137 33.7092 16.8755C31.6214 18.9454 29.5418 21.0234 27.4621 23.0933C25.851 24.6968 24.2317 26.3086 22.6206 27.9121C22.448 28.0839 22.3576 28.2803 22.3411 28.5421C22.3 29.1966 22.2507 29.8593 22.1932 30.4974C22.1685 30.7756 22.2343 30.9965 22.374 31.1437C22.5138 31.291 22.7357 31.3646 23.007 31.3483C23.1878 31.3319 23.3768 31.3155 23.5577 31.2992C24.0098 31.2583 24.4783 31.2174 24.9386 31.201C25.251 31.1846 25.5058 31.0619 25.7688 30.8001C27.7827 28.7957 29.8295 26.7504 31.8104 24.7787L33.6846 22.9133C33.9641 22.6351 34.2518 22.3488 34.5312 22.0706L34.5723 22.0297C35.2792 21.3261 36.0108 20.6062 36.7259 19.8862C37.2849 19.3217 37.2849 18.6181 36.7259 18.0536C36.2492 17.5709 35.8793 17.2027 35.5341 16.8673C35.2546 16.6137 34.9422 16.4746 34.6134 16.4746ZM22.0945 28.5012C22.0945 28.5175 22.0945 28.5257 22.0945 28.5421C22.0781 28.7957 22.0617 29.0411 22.0452 29.2947C22.0617 29.0493 22.0781 28.7957 22.0945 28.5421C22.0945 28.5257 22.0945 28.5093 22.0945 28.5012ZM25.1523 25.0486C24.2482 25.9486 23.344 26.8485 22.4398 27.7485C22.4233 27.7648 22.4069 27.7812 22.3987 27.7894C22.4151 27.773 22.4233 27.7567 22.4398 27.7485C23.344 26.8485 24.2482 25.9486 25.1523 25.0486ZM33.0434 23.9114L31.9831 24.9668C31.5556 25.3923 31.12 25.8259 30.6843 26.2595C31.1364 25.8095 31.5885 25.3595 32.0406 24.9096L33.0434 23.9114ZM32.7804 17.4564C30.9474 19.2808 29.1143 21.0971 27.2895 22.9215L27.1498 23.0606C26.9443 23.2651 26.7306 23.4778 26.5251 23.6824C26.7799 23.4287 27.0347 23.1751 27.2895 22.9215C29.1143 21.1052 30.9474 19.2808 32.7804 17.4564ZM36.9314 20.0335C36.9232 20.0417 36.9068 20.058 36.8986 20.0662C36.1834 20.7862 35.4519 21.5143 34.7449 22.2179L34.7038 22.2588C34.4737 22.4879 34.2435 22.717 34.0134 22.946C34.2435 22.717 34.4737 22.4961 34.6956 22.267L34.7449 22.2179C35.4519 21.5143 36.1834 20.7943 36.8986 20.0662C36.9068 20.058 36.9232 20.0498 36.9314 20.0335ZM34.6134 16.2292C35.008 16.2292 35.3779 16.3928 35.6985 16.7037C36.0519 17.0473 36.4136 17.4155 36.8986 17.8982C36.915 17.9145 36.9232 17.9227 36.9397 17.9391C36.9314 17.9227 36.915 17.9145 36.8986 17.8982C36.4218 17.4155 36.0519 17.0473 35.6985 16.7037C35.082 16.0983 34.26 16.0655 33.6353 16.6137C33.923 16.3601 34.26 16.2292 34.6134 16.2292ZM22.5877 30.9637L22.6453 30.1783C22.6864 29.6138 22.7275 29.082 22.7768 28.5421C22.7932 28.3866 22.8919 28.2475 22.9823 28.1657C25.8099 25.3432 28.7116 22.4633 31.6789 19.5099C31.7118 19.4772 31.7529 19.4526 31.7693 19.4362L31.942 19.3135L32.0817 19.4772L34.3011 21.6861L34.1449 21.8579C34.1367 21.8661 34.1202 21.8825 34.112 21.8988C34.0709 21.9397 34.0216 21.997 33.9641 22.0543L33.101 22.9133C30.6021 25.4004 28.0293 27.9694 25.4811 30.4892C25.3167 30.6447 25.0866 30.7592 24.8646 30.7837C24.3879 30.8328 23.9276 30.8656 23.4344 30.9065C23.2453 30.9228 23.0645 30.931 22.8754 30.9474L22.5877 30.9637ZM22.8837 30.3256L22.859 30.6938C22.8919 30.6938 22.9165 30.6856 22.9494 30.6856L22.859 30.6938L22.8837 30.3256ZM23.7796 30.6283C23.6563 30.6365 23.533 30.6447 23.4097 30.6528H23.3604C23.2453 30.661 23.1385 30.6692 23.0234 30.6774C23.1549 30.6692 23.2782 30.661 23.4015 30.6528C23.533 30.6447 23.6563 30.6365 23.7796 30.6283ZM24.8729 30.5301C24.8564 30.5301 24.8482 30.5383 24.8318 30.5383C24.7496 30.5465 24.6674 30.5547 24.5852 30.5629C24.6674 30.5547 24.7496 30.5465 24.8318 30.5383C24.84 30.5383 24.8564 30.5301 24.8729 30.5301ZM23.27 28.5912C23.2207 29.1229 23.1796 29.6547 23.1385 30.2111L23.122 30.432C23.196 30.4238 23.27 30.4238 23.344 30.4156H23.3933C23.8865 30.3829 24.3468 30.3501 24.8071 30.301C24.914 30.2929 25.0537 30.2192 25.1277 30.1456C27.6841 27.6094 30.2569 25.0486 32.7475 22.5779L33.6106 21.7188L31.8926 20.0008C28.9828 22.8969 26.1387 25.7195 23.3275 28.5257C23.2864 28.5502 23.27 28.583 23.27 28.5912ZM28.3088 27.323C27.306 28.3212 26.3031 29.3193 25.3003 30.3092C25.2592 30.3501 25.2181 30.3829 25.1688 30.4156C25.2181 30.3829 25.2674 30.3501 25.3003 30.3092C26.3031 29.3193 27.306 28.3212 28.3088 27.323ZM23.1467 28.3457C23.0727 28.4193 23.0316 28.5012 23.0234 28.5584C23.0234 28.583 23.0152 28.6157 23.0152 28.6402C23.0152 28.6157 23.0234 28.583 23.0234 28.5584C23.0316 28.4766 23.1056 28.3866 23.1467 28.3457ZM31.8515 19.6817C30.3884 21.138 28.9417 22.5697 27.5197 23.9932C28.9335 22.5861 30.3637 21.1625 31.8104 19.7226L31.8515 19.6817ZM32.4187 20.1644L33.9558 21.6943L32.4187 20.1644ZM34.671 21.2934L32.3119 18.929L32.4845 18.7572C32.6242 18.6099 32.7722 18.4627 32.9119 18.3154L32.9284 18.299C33.3065 17.9063 33.701 17.4973 34.112 17.1046C34.4079 16.8182 34.86 16.8346 35.1806 17.1373C35.6409 17.5791 36.0848 18.0209 36.4876 18.4463C36.7835 18.7572 36.7917 19.2153 36.4958 19.5099C36.1012 19.9108 35.6985 20.2953 35.3121 20.6798L35.3039 20.688C35.1477 20.8353 34.9998 20.9825 34.8518 21.1298L34.671 21.2934ZM34.671 20.9498C34.8189 20.8025 34.9751 20.6553 35.1231 20.508L35.1313 20.4998C35.5176 20.1235 35.9204 19.739 36.3149 19.3381C36.3478 19.2972 36.3807 19.2563 36.4054 19.2153C36.3807 19.2563 36.356 19.2972 36.3149 19.3381C35.9204 19.7308 35.5258 20.1235 35.1313 20.4998L35.0984 20.5325C34.9833 20.6471 34.8682 20.7534 34.7532 20.868L34.671 20.9498ZM33.0023 18.9208L34.671 20.598C34.7532 20.5162 34.8436 20.4344 34.934 20.3444L34.9669 20.3116C35.3532 19.9353 35.756 19.5508 36.1423 19.1581C36.2492 19.0517 36.241 18.8963 36.1259 18.7817C35.7231 18.3645 35.2875 17.9309 34.8354 17.4891C34.7038 17.3664 34.5641 17.35 34.4573 17.4482C34.0545 17.8409 33.6599 18.2418 33.2818 18.6345C33.1832 18.7327 33.0927 18.8308 33.0023 18.9208ZM32.6571 18.929L32.7393 18.839C32.7475 18.8308 32.764 18.8145 32.7722 18.8063C32.7311 18.8472 32.6982 18.8881 32.6571 18.929ZM34.2107 17.35C34.1202 17.44 34.0298 17.53 33.9394 17.62C34.0298 17.53 34.1202 17.44 34.2107 17.35ZM34.9587 17.2682C34.9751 17.2846 34.9915 17.2927 35.008 17.3091C35.082 17.3827 35.1642 17.4564 35.2381 17.53C35.1642 17.4564 35.0902 17.3827 35.008 17.3091C34.9915 17.3009 34.9751 17.2846 34.9587 17.2682Z" fill="white"/>
<path d="M12.2461 14.5891C12.4516 13.9101 12.8544 13.4192 13.5942 13.2801C13.7175 13.2556 13.8408 13.2474 13.964 13.2474C15.419 13.2474 16.8739 13.2474 18.3288 13.2474C18.411 13.2474 18.4932 13.2392 18.5754 13.2638C18.8138 13.3292 18.9453 13.4928 18.9371 13.7301C18.9206 13.9674 18.7809 14.1228 18.5343 14.1555C18.4439 14.1719 18.3535 14.1637 18.2548 14.1637C16.8574 14.1637 15.4683 14.1637 14.0709 14.1637C13.4298 14.1637 13.1749 14.4255 13.1749 15.0473C13.1749 22.3614 13.1749 29.6837 13.1749 36.9978C13.1749 37.6114 13.4298 37.865 14.0545 37.865C17.5068 37.865 20.9674 37.8732 24.4197 37.8568C25.102 37.8568 25.5541 38.1105 25.8829 38.7077C26.4501 39.7385 27.0501 40.7448 27.6419 41.7593C27.8885 42.1848 28.1105 42.1848 28.3653 41.7511C28.9736 40.7039 29.5983 39.6567 30.1901 38.6013C30.4778 38.0941 30.8888 37.865 31.4724 37.865C33.7164 37.8732 35.9605 37.865 38.2127 37.8732C38.336 37.8732 38.4922 37.8568 38.5662 37.9223C38.6977 38.0368 38.8456 38.2086 38.8621 38.3641C38.8867 38.5768 38.7306 38.7404 38.4922 38.7813C38.3853 38.7977 38.2702 38.7895 38.1552 38.7895C35.9522 38.7895 33.7493 38.7977 31.5382 38.7813C31.2505 38.7813 31.0943 38.8713 30.9545 39.1168C30.3627 40.164 29.7544 41.203 29.1462 42.242C28.5543 43.2565 27.4529 43.2483 26.861 42.2338C26.2692 41.2112 25.6609 40.1885 25.0856 39.1577C24.9294 38.8795 24.7568 38.7731 24.4362 38.7731C21.066 38.7813 17.6877 38.7568 14.3175 38.7895C13.2982 38.7977 12.5995 38.4623 12.2625 37.4723C12.2461 29.8637 12.2461 22.2305 12.2461 14.5891Z" fill="white"/>
<path d="M28.0047 43.1341C27.5115 43.1341 27.0512 42.8314 26.747 42.3078C26.6237 42.0951 26.5004 41.8824 26.3689 41.6615C25.9086 40.8679 25.4236 40.0416 24.9633 39.2316C24.8318 38.9944 24.6921 38.9125 24.4208 38.9125C24.4208 38.9125 24.4208 38.9125 24.4126 38.9125C23.1138 38.9207 21.7904 38.9125 20.5081 38.9125C18.4696 38.9125 16.3653 38.9125 14.2857 38.9289C14.2693 38.9289 14.261 38.9289 14.2446 38.9289C13.1185 38.9289 12.4362 38.4871 12.1156 37.5299L12.1074 37.5135V14.5731L12.1321 14.5567C12.3787 13.755 12.8472 13.305 13.5788 13.1577C13.6939 13.1332 13.8254 13.125 13.9651 13.125C15.42 13.125 16.875 13.125 18.3299 13.125H18.371C18.445 13.125 18.5271 13.125 18.6093 13.1414C18.9053 13.2232 19.0779 13.4441 19.0614 13.7386C19.045 14.0331 18.8559 14.2377 18.5518 14.2786C18.4778 14.2867 18.4039 14.2867 18.3299 14.2867C18.3052 14.2867 18.2806 14.2867 18.2641 14.2867H16.7106C15.831 14.2867 14.9515 14.2867 14.072 14.2867C13.4966 14.2867 13.2993 14.4913 13.2993 15.0476C13.2993 22.3617 13.2993 29.684 13.2993 36.9981C13.2993 37.5544 13.4966 37.7426 14.0555 37.7426C14.8035 37.7426 15.5598 37.7426 16.3078 37.7426C18.971 37.7426 21.7165 37.7508 24.4208 37.7344C24.429 37.7344 24.429 37.7344 24.4372 37.7344C25.1688 37.7344 25.6538 38.0126 25.999 38.6507C26.4018 39.3871 26.8375 40.1316 27.2567 40.8515C27.4211 41.1379 27.5855 41.416 27.7581 41.7024C27.8978 41.9396 27.98 41.9642 28.0129 41.9642C28.0458 41.9642 28.128 41.9396 28.2677 41.7024C28.4321 41.4242 28.5965 41.1379 28.7609 40.8597C29.2048 40.107 29.6569 39.3216 30.0925 38.5526C30.3967 38.0126 30.8488 37.759 31.4735 37.759H31.4817C32.8791 37.7672 34.3011 37.759 35.6738 37.759C36.5205 37.759 37.3671 37.759 38.2138 37.759C38.2302 37.759 38.2549 37.759 38.2795 37.759C38.411 37.759 38.559 37.7508 38.6494 37.8408C38.7892 37.9635 38.9618 38.1517 38.9864 38.3644C39.0193 38.6426 38.822 38.8716 38.5097 38.9125C38.411 38.9289 38.3124 38.9289 38.2138 38.9289H38.1562H36.7753C35.0573 38.9289 33.2818 38.9289 31.5392 38.9207C31.3008 38.9207 31.1775 38.9862 31.0625 39.1989C30.5528 40.0988 30.0268 41.007 29.5089 41.8905L29.2541 42.3323C28.9417 42.8396 28.4896 43.1341 28.0047 43.1341ZM24.429 38.6671C24.7907 38.6671 25.0044 38.798 25.1853 39.1171C25.6456 39.9352 26.1223 40.7533 26.5826 41.5469C26.7059 41.7596 26.8375 41.9724 26.9607 42.1933C27.2238 42.6432 27.6019 42.8968 28.0047 42.8968C28.4074 42.8968 28.7773 42.6432 29.0404 42.2014L29.2952 41.7596C29.8048 40.8842 30.3391 39.9761 30.8488 39.0762C31.0049 38.798 31.2104 38.6753 31.5392 38.6753H31.5474C33.2901 38.6835 35.0656 38.6835 36.7835 38.6835H38.1644H38.222C38.3124 38.6835 38.4028 38.6835 38.485 38.6753C38.633 38.6507 38.7727 38.5607 38.7481 38.3971C38.7316 38.2989 38.6412 38.1599 38.4932 38.029C38.4686 38.0044 38.3453 38.0126 38.2877 38.0126C38.2631 38.0126 38.2384 38.0126 38.2138 38.0126C37.3671 38.0126 36.5205 38.0126 35.6738 38.0126C34.3011 38.0126 32.8791 38.0126 31.4735 38.0126C31.4735 38.0126 31.4735 38.0126 31.4652 38.0126C30.931 38.0126 30.5611 38.2253 30.298 38.6835C29.8624 39.4607 29.4021 40.2379 28.9664 40.9988C28.802 41.2769 28.6376 41.5633 28.4732 41.8415C28.3746 42.0051 28.2266 42.226 28.0047 42.226C27.7827 42.226 27.6348 42.0051 27.5361 41.8415C27.3717 41.5551 27.2073 41.2769 27.0429 40.9906C26.6237 40.2706 26.1881 39.5343 25.7771 38.7898C25.4729 38.2417 25.0702 38.0044 24.4372 38.0044H24.429C21.7247 38.0208 18.971 38.0126 16.3078 38.0126C15.5598 38.0126 14.8035 38.0126 14.0555 38.0126C13.3651 38.0126 13.0527 37.7017 13.0527 37.0227C13.0527 29.7085 13.0527 22.3863 13.0527 15.0722C13.0527 14.3767 13.3651 14.0659 14.072 14.0659C14.9515 14.0659 15.831 14.0659 16.7106 14.0659H18.2559C18.2806 14.0659 18.3052 14.0659 18.3299 14.0659C18.3956 14.0659 18.4532 14.0659 18.5107 14.0577C18.6998 14.0331 18.7984 13.9268 18.8066 13.7468C18.8148 13.5668 18.7244 13.4523 18.5354 13.4032C18.4861 13.3868 18.4285 13.3868 18.3628 13.395H18.3217C16.8667 13.395 15.4118 13.395 13.9569 13.395C13.8254 13.395 13.7185 13.4032 13.6117 13.4277C12.9952 13.5259 12.5842 13.9186 12.3705 14.614V37.4808C12.6582 38.3153 13.2418 38.6916 14.261 38.6916C14.2775 38.6916 14.2857 38.6916 14.3021 38.6916C16.3735 38.6753 18.4861 38.6753 20.5246 38.6753C21.7987 38.6753 23.1221 38.6753 24.429 38.6671C24.4208 38.6671 24.4208 38.6671 24.429 38.6671Z" fill="white"/>
<path d="M28.0047 43.1341C27.5115 43.1341 27.0512 42.8314 26.747 42.3078C26.6237 42.0951 26.5004 41.8824 26.3689 41.6615C25.9086 40.8679 25.4236 40.0416 24.9633 39.2316C24.8318 38.9944 24.6921 38.9125 24.4208 38.9125C24.4208 38.9125 24.4208 38.9125 24.4126 38.9125C23.1138 38.9207 21.7904 38.9125 20.5081 38.9125C18.4696 38.9125 16.3653 38.9125 14.2857 38.9289C14.2693 38.9289 14.261 38.9289 14.2446 38.9289C13.1185 38.9289 12.4362 38.4871 12.1156 37.5299L12.1074 37.5135V14.5731L12.1321 14.5567C12.3787 13.755 12.8472 13.305 13.5788 13.1577C13.6939 13.1332 13.8254 13.125 13.9651 13.125C15.42 13.125 16.875 13.125 18.3299 13.125H18.371C18.445 13.125 18.5271 13.125 18.6093 13.1414C18.9053 13.2232 19.0779 13.4441 19.0614 13.7386C19.045 14.0331 18.8559 14.2377 18.5518 14.2786C18.4778 14.2867 18.4039 14.2867 18.3299 14.2867C18.3052 14.2867 18.2806 14.2867 18.2641 14.2867H16.7106C15.831 14.2867 14.9515 14.2867 14.072 14.2867C13.4966 14.2867 13.2993 14.4913 13.2993 15.0476C13.2993 22.3617 13.2993 29.684 13.2993 36.9981C13.2993 37.5544 13.4966 37.7426 14.0555 37.7426C14.8035 37.7426 15.5598 37.7426 16.3078 37.7426C18.971 37.7426 21.7165 37.7508 24.4208 37.7344C24.429 37.7344 24.429 37.7344 24.4372 37.7344C25.1688 37.7344 25.6538 38.0126 25.999 38.6507C26.4018 39.3871 26.8375 40.1316 27.2567 40.8515C27.4211 41.1379 27.5855 41.416 27.7581 41.7024C27.8978 41.9396 27.98 41.9642 28.0129 41.9642C28.0458 41.9642 28.128 41.9396 28.2677 41.7024C28.4321 41.4242 28.5965 41.1379 28.7609 40.8597C29.2048 40.107 29.6569 39.3216 30.0925 38.5526C30.3967 38.0126 30.8488 37.759 31.4735 37.759H31.4817C32.8791 37.7672 34.3011 37.759 35.6738 37.759C36.5205 37.759 37.3671 37.759 38.2138 37.759C38.2302 37.759 38.2549 37.759 38.2795 37.759C38.411 37.759 38.559 37.7508 38.6494 37.8408C38.7892 37.9635 38.9618 38.1517 38.9864 38.3644C39.0193 38.6426 38.822 38.8716 38.5097 38.9125C38.411 38.9289 38.3124 38.9289 38.2138 38.9289H38.1562H36.7753C35.0573 38.9289 33.2818 38.9289 31.5392 38.9207C31.3008 38.9207 31.1775 38.9862 31.0625 39.1989C30.5528 40.0988 30.0268 41.007 29.5089 41.8905L29.2541 42.3323C28.9417 42.8396 28.4896 43.1341 28.0047 43.1341ZM24.429 38.6671C24.7907 38.6671 25.0044 38.798 25.1853 39.1171C25.6456 39.9352 26.1223 40.7533 26.5826 41.5469C26.7059 41.7596 26.8375 41.9724 26.9607 42.1933C27.2238 42.6432 27.6019 42.8968 28.0047 42.8968C28.4074 42.8968 28.7773 42.6432 29.0404 42.2014L29.2952 41.7596C29.8048 40.8842 30.3391 39.9761 30.8488 39.0762C31.0049 38.798 31.2104 38.6753 31.5392 38.6753H31.5474C33.2901 38.6835 35.0656 38.6835 36.7835 38.6835H38.1644H38.222C38.3124 38.6835 38.4028 38.6835 38.485 38.6753C38.633 38.6507 38.7727 38.5607 38.7481 38.3971C38.7316 38.2989 38.6412 38.1599 38.4932 38.029C38.4686 38.0044 38.3453 38.0126 38.2877 38.0126C38.2631 38.0126 38.2384 38.0126 38.2138 38.0126C37.3671 38.0126 36.5205 38.0126 35.6738 38.0126C34.3011 38.0126 32.8791 38.0126 31.4735 38.0126C31.4735 38.0126 31.4735 38.0126 31.4652 38.0126C30.931 38.0126 30.5611 38.2253 30.298 38.6835C29.8624 39.4607 29.4021 40.2379 28.9664 40.9988C28.802 41.2769 28.6376 41.5633 28.4732 41.8415C28.3746 42.0051 28.2266 42.226 28.0047 42.226C27.7827 42.226 27.6348 42.0051 27.5361 41.8415C27.3717 41.5551 27.2073 41.2769 27.0429 40.9906C26.6237 40.2706 26.1881 39.5343 25.7771 38.7898C25.4729 38.2417 25.0702 38.0044 24.4372 38.0044H24.429C21.7247 38.0208 18.971 38.0126 16.3078 38.0126C15.5598 38.0126 14.8035 38.0126 14.0555 38.0126C13.3651 38.0126 13.0527 37.7017 13.0527 37.0227C13.0527 29.7085 13.0527 22.3863 13.0527 15.0722C13.0527 14.3767 13.3651 14.0659 14.072 14.0659C14.9515 14.0659 15.831 14.0659 16.7106 14.0659H18.2559C18.2806 14.0659 18.3052 14.0659 18.3299 14.0659C18.3956 14.0659 18.4532 14.0659 18.5107 14.0577C18.6998 14.0331 18.7984 13.9268 18.8066 13.7468C18.8148 13.5668 18.7244 13.4523 18.5354 13.4032C18.4861 13.3868 18.4285 13.3868 18.3628 13.395H18.3217C16.8667 13.395 15.4118 13.395 13.9569 13.395C13.8254 13.395 13.7185 13.4032 13.6117 13.4277C12.9952 13.5259 12.5842 13.9186 12.3705 14.614V37.4808C12.6582 38.3153 13.2418 38.6916 14.261 38.6916C14.2775 38.6916 14.2857 38.6916 14.3021 38.6916C16.3735 38.6753 18.4861 38.6753 20.5246 38.6753C21.7987 38.6753 23.1221 38.6753 24.429 38.6671C24.4208 38.6671 24.4208 38.6671 24.429 38.6671Z" fill="white"/>
<path d="M28.0041 43.2545C27.4698 43.2545 26.9684 42.9273 26.6396 42.371L26.2615 41.7246C25.793 40.9311 25.3162 40.1047 24.8559 39.2866C24.7408 39.0903 24.6504 39.033 24.4202 39.033C23.1297 39.0412 21.8145 39.033 20.5487 39.033H20.5158C18.6006 39.033 16.4305 39.033 14.3016 39.0493H14.2605C13.085 39.0493 12.3535 38.5666 12.0164 37.5685L12 37.5358V14.5545L12.0082 14.5217C12.2713 13.6709 12.7727 13.1882 13.5453 13.0409C13.6686 13.0164 13.8084 13 13.9646 13C15.4195 13 16.8744 13 18.3293 13H18.3704C18.4526 13 18.543 13 18.6417 13.0245C18.9951 13.1227 19.2006 13.3927 19.1842 13.7445C19.1677 14.0963 18.9294 14.3499 18.5677 14.399C18.4773 14.4072 18.3951 14.4072 18.3211 14.4072C18.2964 14.4072 18.2718 14.4072 18.2553 14.4072H16.1757C15.4688 14.4072 14.7701 14.4072 14.0632 14.4072C13.5536 14.4072 13.4138 14.5545 13.4138 15.0453C13.4138 22.3594 13.4138 29.6817 13.4138 36.9958C13.4138 37.4785 13.5536 37.6176 14.0468 37.6176C14.7948 37.6176 15.551 37.6176 16.299 37.6176H16.3483C18.9951 37.6176 21.7241 37.6258 24.4202 37.6094H24.4367C25.2094 37.6094 25.7354 37.9203 26.1053 38.583C26.5081 39.3193 26.9437 40.0638 27.363 40.7756C27.5274 41.062 27.6918 41.3401 27.8644 41.6265C27.9384 41.7492 27.9877 41.7983 28.0123 41.8146C28.037 41.7983 28.0863 41.7492 28.1603 41.6183C28.3247 41.3401 28.4891 41.0538 28.6535 40.7756C29.0891 40.0229 29.5494 39.2457 29.9851 38.4685C30.3139 37.8876 30.7989 37.6094 31.4729 37.6094C32.7716 37.6094 34.0868 37.6176 35.3527 37.6094H35.6733C36.5199 37.6094 37.3666 37.6094 38.2132 37.6094C38.2296 37.6094 38.2461 37.6094 38.2543 37.6094H38.2707C38.4187 37.6094 38.5995 37.6013 38.7311 37.724C38.8872 37.8631 39.0763 38.0758 39.1092 38.3212C39.1503 38.6648 38.9119 38.9512 38.5338 39.0084C38.4187 39.0248 38.3118 39.0248 38.2214 39.0248H38.1639H36.5446C34.9088 39.0248 33.2155 39.0248 31.5469 39.0166H31.5387C31.3496 39.0166 31.2674 39.0657 31.177 39.2293C30.6674 40.1293 30.1413 41.0292 29.6316 41.9046L29.3686 42.3628C29.0234 42.9355 28.5384 43.2545 28.0041 43.2545ZM27.1081 42.5919C27.363 42.8618 27.6753 43.0091 28.0041 43.0091V43.1318V43.0091C27.6753 43.0091 27.363 42.8618 27.1081 42.5919ZM29.7303 41.2338C29.6152 41.4301 29.5001 41.6183 29.3933 41.8146L29.1385 42.2564C29.0069 42.4773 28.8508 42.6573 28.6699 42.7882C28.8508 42.6573 29.0069 42.4773 29.1385 42.2564L29.4015 41.7983C29.5166 41.6101 29.6234 41.4219 29.7303 41.2338ZM24.4202 38.5421C24.8312 38.5421 25.0861 38.6975 25.2915 39.0493C25.7436 39.8593 26.2286 40.6774 26.6889 41.471L27.067 42.1173C27.3054 42.5264 27.6424 42.7555 28.0041 42.7555C28.3576 42.7555 28.6946 42.5264 28.933 42.1255L29.1878 41.6837C29.6974 40.8083 30.2317 39.9002 30.7413 39.0003C30.9222 38.6812 31.1688 38.5339 31.5387 38.5339C33.2237 38.5421 34.9335 38.5421 36.5857 38.5421H38.1639H38.2214C38.3201 38.5421 38.394 38.5421 38.4598 38.5339C38.4927 38.5257 38.6324 38.5012 38.616 38.3948C38.6078 38.3376 38.542 38.2394 38.4187 38.1167C38.394 38.1167 38.3529 38.1167 38.2872 38.1167H38.2707C38.2461 38.1167 38.2296 38.1167 38.205 38.1167C37.3583 38.1167 36.5117 38.1167 35.665 38.1167H35.4678C34.1608 38.1167 32.8045 38.1167 31.4729 38.1167C30.9715 38.1167 30.6509 38.3048 30.4125 38.7221C29.9769 39.4911 29.5248 40.2765 29.0809 41.0292L29.0727 41.0374C28.9083 41.3156 28.7439 41.6019 28.5795 41.8801C28.4644 42.0764 28.2836 42.3301 28.0041 42.3301C27.7246 42.3301 27.5438 42.0764 27.4287 41.8883C27.2643 41.6019 27.0999 41.3238 26.9355 41.0374C26.5081 40.3175 26.0724 39.573 25.6697 38.8285C25.3902 38.313 25.0285 38.1085 24.4367 38.1085H24.412C21.7406 38.1249 19.0116 38.1167 16.3812 38.1167H16.2908C15.5428 38.1167 14.7865 38.1167 14.0385 38.1167C13.2823 38.1167 12.9124 37.7485 12.9124 37.004C12.9124 29.6899 12.9124 22.3676 12.9124 15.0535C12.9124 14.2926 13.2905 13.9245 14.055 13.9245C14.8852 13.9245 15.7236 13.9245 16.5538 13.9245H18.2389C18.2636 13.9245 18.2882 13.9245 18.3129 13.9245C18.3704 13.9245 18.4279 13.9245 18.4773 13.9163C18.6088 13.8999 18.6663 13.8427 18.6745 13.72C18.6828 13.63 18.6581 13.5481 18.4937 13.5072C18.4773 13.4909 18.4197 13.4909 18.3704 13.4909H18.3293C16.8744 13.4909 15.4195 13.4909 13.9646 13.4909C13.8413 13.4909 13.7344 13.4991 13.644 13.5154C13.0768 13.63 12.6987 13.9899 12.4932 14.6281V37.454C12.7727 38.2312 13.2987 38.5666 14.2605 38.5666H14.3016C16.4059 38.5503 18.5923 38.5503 20.524 38.5503H20.6144C21.8639 38.5503 23.1544 38.5503 24.4202 38.5421ZM25.7272 40.3175C25.9738 40.7511 26.2286 41.1847 26.4752 41.6019L26.7629 42.0928L26.4752 41.6019C26.2286 41.1765 25.9738 40.7511 25.7272 40.3175ZM27.6589 41.8065C27.7411 41.9374 27.8562 42.0928 27.9959 42.0928C27.889 42.0928 27.774 41.9946 27.6589 41.8065ZM28.9576 40.7429C28.9247 40.8002 28.8919 40.8656 28.8508 40.9229C28.785 41.0292 28.7192 41.1438 28.6617 41.2501C28.7275 41.1438 28.7932 41.0292 28.8508 40.9229L28.859 40.9147C28.8919 40.8574 28.9247 40.8002 28.9576 40.7429ZM26.9437 40.5793C27.0095 40.6938 27.0753 40.8083 27.141 40.9147C27.1575 40.9474 27.1821 40.9801 27.1986 41.021C27.1821 40.9883 27.1575 40.9556 27.141 40.9229C27.0753 40.8083 27.0095 40.6938 26.9437 40.5793ZM31.0126 39.033C30.9879 39.0657 30.9715 39.0984 30.9468 39.1312C30.84 39.3193 30.7331 39.5075 30.6263 39.6957C30.7331 39.5075 30.84 39.3193 30.9468 39.1312C30.9715 39.0903 30.9879 39.0575 31.0126 39.033ZM24.4202 38.7875C24.6586 38.7875 24.823 38.8448 24.9545 38.9921C24.823 38.8448 24.6668 38.7875 24.4202 38.7875C23.1544 38.7957 21.8556 38.7875 20.6144 38.7875H20.524H20.5569C21.8228 38.7957 23.1297 38.7957 24.4202 38.7875ZM14.729 38.8039C14.5893 38.8039 14.4413 38.8039 14.3016 38.8039H14.2933H14.3016C14.4413 38.8039 14.5893 38.8039 14.729 38.8039ZM38.1474 38.7957H36.7665H38.1474ZM38.1557 38.7957H38.205C38.205 38.7957 38.205 38.7957 38.2132 38.7957C38.2132 38.7957 38.2132 38.7957 38.205 38.7957H38.1557ZM31.5304 38.7875C31.5469 38.7875 31.5633 38.7875 31.5798 38.7875C31.5633 38.7875 31.5469 38.7875 31.5304 38.7875ZM24.4285 37.8712C25.0861 37.8712 25.5299 38.1167 25.8505 38.6648C25.5299 38.1085 25.1025 37.8712 24.4285 37.8712ZM38.8379 38.5176C38.8215 38.5585 38.805 38.5912 38.7804 38.6239C38.805 38.5912 38.8297 38.5585 38.8379 38.5176ZM38.5749 37.9367C38.6324 37.994 38.7146 38.0758 38.7722 38.1658C38.7228 38.0921 38.6571 38.0185 38.5749 37.9367ZM13.1754 37.094C13.2001 37.6503 13.4631 37.8712 14.055 37.8712C14.803 37.8712 15.5592 37.8712 16.3072 37.8712H16.3976C19.028 37.8712 21.7488 37.8794 24.4285 37.8631H24.4449H24.412C21.7241 37.8794 18.9869 37.8712 16.3401 37.8712H16.2908C15.5428 37.8712 14.7865 37.8712 14.0385 37.8712C13.4549 37.8794 13.2001 37.6503 13.1754 37.094ZM38.3365 37.8794C38.3694 37.8794 38.394 37.8794 38.4187 37.8794C38.3776 37.8794 38.3365 37.8794 38.2954 37.8794C38.3036 37.8794 38.3201 37.8794 38.3365 37.8794ZM37.1939 37.8794C37.531 37.8794 37.868 37.8794 38.1968 37.8794C37.8598 37.8794 37.531 37.8794 37.1939 37.8794ZM31.4565 37.8712C32.7963 37.8712 34.1444 37.8712 35.4595 37.8712H35.6568H35.3362C34.0704 37.8794 32.7552 37.8794 31.4565 37.8712C31.4647 37.8712 31.4647 37.8712 31.4565 37.8712ZM13.1672 25.7056C13.1672 25.812 13.1672 25.9183 13.1672 26.0247C13.1672 25.9183 13.1672 25.812 13.1672 25.7056ZM14.0714 14.1617C13.4303 14.1617 13.1754 14.4154 13.1754 15.0453C13.1672 14.4236 13.4303 14.1617 14.0714 14.1617ZM12.748 13.7036C12.5343 13.9163 12.3699 14.2027 12.2548 14.5626C12.3699 14.2108 12.5343 13.9163 12.748 13.7036ZM18.2553 14.1617C18.28 14.1617 18.2964 14.1617 18.3211 14.1617C18.3293 14.1617 18.3293 14.1617 18.3375 14.1617H18.3293C18.3046 14.1617 18.28 14.1617 18.2553 14.1617ZM14.1372 14.1617C14.1207 14.1617 14.0961 14.1617 14.0796 14.1617C14.0961 14.1617 14.1125 14.1617 14.1372 14.1617ZM15.9373 14.1617C15.3373 14.1617 14.7372 14.1617 14.1372 14.1617C14.8194 14.1617 15.5017 14.1617 16.1757 14.1617H18.2471H16.5703C16.3565 14.1617 16.151 14.1617 15.9373 14.1617ZM18.5595 14.1536C18.5512 14.1536 18.543 14.1536 18.5348 14.1617C18.5266 14.1617 18.5184 14.1617 18.5184 14.1617C18.5266 14.1617 18.5348 14.1617 18.5348 14.1617C18.5348 14.1536 18.5512 14.1536 18.5595 14.1536ZM16.299 13.2454C15.5181 13.2454 14.7372 13.2454 13.9646 13.2454C15.4195 13.2454 16.8744 13.2454 18.3293 13.2454C17.6553 13.2454 16.9812 13.2454 16.299 13.2454ZM18.3704 13.2454H18.3293H18.3704Z" fill="white"/>
<path d="M43.7545 26.0211C43.7545 29.6781 43.7545 33.327 43.7545 36.984C43.7545 38.1458 43.0969 38.8003 41.9297 38.8003C41.4776 38.8003 41.0255 38.8003 40.5734 38.8003C40.2282 38.8003 40.0392 38.6285 40.0392 38.3503C40.0392 38.0721 40.2364 37.8922 40.5734 37.8922C41.0338 37.884 41.4941 37.8922 41.9544 37.8922C42.5791 37.8922 42.8257 37.6385 42.8257 37.0168C42.8257 32.607 42.8257 28.1973 42.8257 23.7957C42.8257 20.8995 42.8257 18.0034 42.8257 15.099C42.8257 14.4281 42.5709 14.1827 41.8968 14.1827C34.8935 14.1827 27.8902 14.1827 20.8868 14.1827C20.3854 14.1827 20.1717 14.0436 20.1799 13.7163C20.1881 13.3891 20.4019 13.25 20.8786 13.25C27.8902 13.25 34.9017 13.25 41.9133 13.25C43.0805 13.25 43.7463 13.9127 43.7463 15.0663C43.7545 18.7151 43.7545 22.3722 43.7545 26.0211Z" fill="white"/>
<path d="M41.172 38.92C40.9665 38.92 40.7692 38.92 40.5637 38.92C40.1609 38.9118 39.9061 38.6909 39.9061 38.3473C39.9061 37.9955 40.1691 37.7664 40.5637 37.7664C40.8432 37.7582 41.1227 37.7664 41.3939 37.7664C41.5747 37.7664 41.7638 37.7664 41.9446 37.7664C42.4954 37.7664 42.6926 37.5701 42.6926 37.0137C42.6926 33.6267 42.6926 30.2314 42.6926 26.8443V21.4201C42.6926 19.3093 42.6926 17.2067 42.6926 15.096C42.6926 14.4905 42.4954 14.3024 41.8871 14.3024H20.8771C20.5401 14.3024 20.3181 14.2369 20.1866 14.106C20.088 14.0078 20.0469 13.8769 20.0469 13.7133C20.0551 13.1406 20.6634 13.1406 20.8689 13.1406H22.2745C28.8175 13.1406 35.3687 13.1406 41.9118 13.1406C43.153 13.1406 43.8681 13.8442 43.8681 15.0796C43.8681 17.6894 43.8681 20.2993 43.8681 22.9091V26.0426V29.176C43.8681 31.7859 43.8681 34.3957 43.8681 37.0056C43.8681 38.2328 43.153 38.9445 41.92 38.9445H41.6487C41.4925 38.92 41.3364 38.92 41.172 38.92ZM41.0733 38.0037C40.9089 38.0037 40.7363 38.0037 40.5719 38.0037C40.3089 38.0119 40.1527 38.1346 40.1527 38.3391C40.1527 38.6091 40.3746 38.6664 40.5637 38.6664C40.9254 38.6745 41.2871 38.6664 41.6405 38.6664H41.9118C43.0132 38.6664 43.6133 38.0609 43.6133 36.9728C43.6133 34.363 43.6133 31.7531 43.6133 29.1433V26.0099V22.8764C43.6133 20.2666 43.6133 17.6567 43.6133 15.0469C43.6133 13.9588 43.005 13.3533 41.9035 13.3533C35.3605 13.3533 28.8175 13.3533 22.2662 13.3533H20.8606C20.3346 13.3533 20.2935 13.5251 20.2853 13.6888C20.2853 13.8197 20.3264 13.8769 20.351 13.9015C20.4332 13.9833 20.6058 14.0242 20.8689 14.0242H41.8789C42.6269 14.0242 42.931 14.3269 42.931 15.0632C42.931 17.174 42.931 19.2766 42.931 21.3874V26.828C42.931 30.2151 42.931 33.6103 42.931 36.9974C42.931 37.6846 42.6269 37.9955 41.9364 37.9955C41.7556 37.9955 41.5665 37.9955 41.3857 37.9955C41.2953 38.0037 41.1802 38.0037 41.0733 38.0037Z" fill="white"/>
<path d="M41.172 38.92C40.9665 38.92 40.7692 38.92 40.5637 38.92C40.1609 38.9118 39.9061 38.6909 39.9061 38.3473C39.9061 37.9955 40.1691 37.7664 40.5637 37.7664C40.8432 37.7582 41.1227 37.7664 41.3939 37.7664C41.5747 37.7664 41.7638 37.7664 41.9446 37.7664C42.4954 37.7664 42.6926 37.5701 42.6926 37.0137C42.6926 33.6267 42.6926 30.2314 42.6926 26.8443V21.4201C42.6926 19.3093 42.6926 17.2067 42.6926 15.096C42.6926 14.4905 42.4954 14.3024 41.8871 14.3024H20.8771C20.5401 14.3024 20.3181 14.2369 20.1866 14.106C20.088 14.0078 20.0469 13.8769 20.0469 13.7133C20.0551 13.1406 20.6634 13.1406 20.8689 13.1406H22.2745C28.8175 13.1406 35.3687 13.1406 41.9118 13.1406C43.153 13.1406 43.8681 13.8442 43.8681 15.0796C43.8681 17.6894 43.8681 20.2993 43.8681 22.9091V26.0426V29.176C43.8681 31.7859 43.8681 34.3957 43.8681 37.0056C43.8681 38.2328 43.153 38.9445 41.92 38.9445H41.6487C41.4925 38.92 41.3364 38.92 41.172 38.92ZM41.0733 38.0037C40.9089 38.0037 40.7363 38.0037 40.5719 38.0037C40.3089 38.0119 40.1527 38.1346 40.1527 38.3391C40.1527 38.6091 40.3746 38.6664 40.5637 38.6664C40.9254 38.6745 41.2871 38.6664 41.6405 38.6664H41.9118C43.0132 38.6664 43.6133 38.0609 43.6133 36.9728C43.6133 34.363 43.6133 31.7531 43.6133 29.1433V26.0099V22.8764C43.6133 20.2666 43.6133 17.6567 43.6133 15.0469C43.6133 13.9588 43.005 13.3533 41.9035 13.3533C35.3605 13.3533 28.8175 13.3533 22.2662 13.3533H20.8606C20.3346 13.3533 20.2935 13.5251 20.2853 13.6888C20.2853 13.8197 20.3264 13.8769 20.351 13.9015C20.4332 13.9833 20.6058 14.0242 20.8689 14.0242H41.8789C42.6269 14.0242 42.931 14.3269 42.931 15.0632C42.931 17.174 42.931 19.2766 42.931 21.3874V26.828C42.931 30.2151 42.931 33.6103 42.931 36.9974C42.931 37.6846 42.6269 37.9955 41.9364 37.9955C41.7556 37.9955 41.5665 37.9955 41.3857 37.9955C41.2953 38.0037 41.1802 38.0037 41.0733 38.0037Z" fill="white"/>
<path d="M41.1726 39.0412C40.9671 39.0412 40.7616 39.0412 40.5643 39.0412C40.0876 39.033 39.7834 38.763 39.7834 38.3376C39.7834 37.9203 40.0958 37.6422 40.5643 37.634C40.852 37.6258 41.1397 37.634 41.4027 37.634C41.5836 37.634 41.7726 37.634 41.9535 37.634C42.4384 37.634 42.5782 37.4867 42.5782 37.004C42.5782 33.6169 42.5782 30.2217 42.5782 26.8346V21.4104C42.5782 19.2996 42.5782 17.197 42.5782 15.0862C42.5782 14.5545 42.4384 14.4154 41.8959 14.4154H20.8859C20.5078 14.4154 20.2612 14.3417 20.105 14.1781C19.9817 14.0554 19.9242 13.8918 19.9324 13.6954C19.9406 13.3763 20.105 13 20.8777 13H26.4179C31.5882 13 36.7503 13 41.9206 13C43.2276 13 44.0002 13.769 44.0002 15.0617C44.0002 17.2379 44.0002 19.4142 44.0002 21.5822V30.4508C44.0002 32.627 44.0002 34.8032 44.0002 36.9713C44.0002 38.2639 43.2276 39.033 41.9288 39.033H41.5918C41.4521 39.0412 41.3123 39.0412 41.1726 39.0412ZM40.3013 38.7466C40.3753 38.7794 40.4657 38.7957 40.5725 38.7957C40.9095 38.7957 41.2548 38.7957 41.5918 38.7957H41.7809H41.6C41.263 38.7957 40.9095 38.7957 40.5725 38.7957C40.4657 38.7957 40.3753 38.7794 40.3013 38.7466ZM43.7454 36.9795C43.7454 38.1249 43.0796 38.7875 41.9288 38.7957C43.1043 38.7875 43.7454 38.1412 43.7454 36.9795ZM41.0739 38.1249C40.9096 38.1249 40.7369 38.1249 40.5725 38.1249C40.3753 38.1249 40.2766 38.1985 40.2766 38.3376C40.2766 38.3948 40.2766 38.5421 40.5725 38.5421C40.9095 38.5421 41.263 38.5421 41.6 38.5421H41.9206C42.9563 38.5421 43.4988 37.994 43.507 36.9713C43.507 34.7951 43.507 32.6188 43.507 30.4508V21.5822C43.507 19.406 43.507 17.2297 43.507 15.0617C43.507 14.039 42.9563 13.4909 41.9206 13.4909C35.879 13.4909 29.8374 13.4909 23.7958 13.4909H20.8777C20.4338 13.4909 20.4256 13.6054 20.4256 13.7036C20.4256 13.7936 20.4503 13.8181 20.4585 13.8345C20.4831 13.859 20.5818 13.9245 20.8859 13.9245H41.8959C42.7097 13.9245 43.0714 14.2845 43.0714 15.0862C43.0714 17.197 43.0714 19.2996 43.0714 21.4104V26.8264C43.0714 30.2135 43.0714 33.6088 43.0714 36.9958C43.0714 37.7485 42.7015 38.1167 41.9535 38.1167C41.7809 38.1167 41.6 38.1167 41.4274 38.1167H41.4027C41.2959 38.1249 41.1808 38.1249 41.0739 38.1249ZM40.104 38.084C40.0547 38.1576 40.03 38.2394 40.03 38.3376C40.03 38.2394 40.0547 38.1576 40.104 38.084ZM40.6958 37.8794C40.6547 37.8794 40.6136 37.8794 40.5725 37.8794C40.4081 37.8794 40.2684 37.9285 40.178 38.0103C40.2684 37.9285 40.4081 37.8876 40.5725 37.8794C40.6136 37.8794 40.6547 37.8794 40.6958 37.8794ZM41.9781 37.8794C41.9535 37.8794 41.9206 37.8794 41.8959 37.8794C41.9206 37.8794 41.9535 37.8794 41.9781 37.8794ZM41.3534 37.8794C41.3699 37.8794 41.3863 37.8794 41.3945 37.8794H41.4027C41.3863 37.8794 41.3699 37.8794 41.3534 37.8794ZM42.8248 37.004C42.8248 37.094 42.8166 37.1758 42.8083 37.2495C42.8248 37.1676 42.8248 37.0858 42.8248 37.004ZM42.8248 30.009C42.8248 31.9234 42.8248 33.8297 42.8248 35.7441C42.8248 33.8297 42.8248 31.9152 42.8248 30.009ZM43.7536 31.0071C43.7536 31.228 43.7536 31.4489 43.7536 31.678C43.7536 31.4571 43.7536 31.2362 43.7536 31.0071ZM41.8959 14.1617C42.57 14.1617 42.8248 14.4072 42.8248 15.0781C42.8248 16.9189 42.8248 18.7678 42.8248 20.6086C42.8248 18.7678 42.8248 16.9189 42.8248 15.0781C42.8248 14.4154 42.5782 14.1617 41.8959 14.1617ZM43.7536 17.9415C43.7536 18.7515 43.7536 19.5532 43.7536 20.3632C43.7536 19.5532 43.7536 18.7515 43.7536 17.9415ZM41.9124 13.2454C43.0796 13.2454 43.7454 13.9081 43.7454 15.0617C43.7454 13.8918 43.096 13.2454 41.9124 13.2454ZM20.2694 13.9899L20.2776 13.9981C20.3845 14.1045 20.5818 14.1617 20.8859 14.1617C20.5818 14.1617 20.3845 14.1127 20.2776 13.9981C20.2776 13.9981 20.2776 13.9981 20.2694 13.9899ZM20.2283 13.4827C20.1954 13.54 20.179 13.6136 20.179 13.7036C20.179 13.7118 20.179 13.7281 20.179 13.7363C20.179 13.7281 20.179 13.7118 20.179 13.7036C20.179 13.6136 20.1954 13.54 20.2283 13.4827ZM31.9992 13.2454C35.3036 13.2454 38.608 13.2454 41.9124 13.2454C38.608 13.2454 35.3036 13.2454 31.9992 13.2454Z" fill="white"/>
</g>
<defs>
<clipPath id="clip0_413_533">
<rect width="32" height="30.2545" fill="white" transform="translate(12 13)"/>
</clipPath>
</defs>
</svg>
