<svg width="56" height="56" viewBox="0 0 56 56" fill="none" xmlns="http://www.w3.org/2000/svg">
<circle cx="28" cy="28" r="27.5" fill="#0063AA" stroke="white"/>
<path d="M36.7767 32.2018C36.7767 31.1553 35.9295 30.3164 34.8913 30.3164C33.853 30.3164 33.0059 31.1636 33.0059 32.2018C33.0059 33.0988 33.6288 33.8464 34.4677 34.0374V35.5989C34.4677 35.8397 34.6587 36.0308 34.8996 36.0308C35.1404 36.0308 35.3315 35.8397 35.3315 35.5989V34.0374C36.1537 33.838 36.7767 33.0905 36.7767 32.2018ZM34.883 33.2151C34.3182 33.2151 33.8614 32.7583 33.8614 32.1935C33.8614 31.6287 34.3182 31.1719 34.883 31.1719C35.4478 31.1719 35.9046 31.6287 35.9046 32.1935C35.9046 32.7666 35.4478 33.2151 34.883 33.2151Z" fill="white"/>
<path d="M34.8908 36.1227C34.6084 36.1227 34.3759 35.8901 34.3759 35.6077V34.1127C33.5121 33.8801 32.9141 33.1077 32.9141 32.2107C32.9141 31.1226 33.7945 30.2422 34.8825 30.2422C35.9706 30.2422 36.851 31.1226 36.851 32.2107C36.851 33.0994 36.2613 33.8718 35.4058 34.1127V35.5994C35.4141 35.8901 35.1815 36.1227 34.8908 36.1227ZM34.8825 30.4C33.8858 30.4 33.0802 31.2057 33.0802 32.2023C33.0802 33.0495 33.6533 33.7721 34.4755 33.9632L34.542 33.9798V35.5994C34.542 35.7904 34.6998 35.9482 34.8908 35.9482C35.0819 35.9482 35.2397 35.7904 35.2397 35.5994V33.9715L35.3061 33.9549C36.1201 33.7555 36.6849 33.0412 36.6849 32.2023C36.6932 31.2057 35.8792 30.4 34.8825 30.4ZM34.8825 33.2987C34.2762 33.2987 33.7779 32.8087 33.7779 32.194C33.7779 31.5877 34.2679 31.0894 34.8825 31.0894C35.4972 31.0894 35.9872 31.5794 35.9872 32.194C35.9872 32.8087 35.4972 33.2987 34.8825 33.2987ZM34.8825 31.2638C34.3676 31.2638 33.944 31.6791 33.944 32.2023C33.944 32.7256 34.3593 33.1409 34.8825 33.1409C35.4058 33.1409 35.8211 32.7256 35.8211 32.2023C35.8211 31.6791 35.3975 31.2638 34.8825 31.2638Z" fill="white"/>
<path d="M23.0364 33.6784C23.0364 32.6318 22.1893 31.793 21.151 31.793C20.1128 31.793 19.2656 32.6402 19.2656 33.6784C19.2656 34.5754 19.8886 35.3229 20.7274 35.5139V37.0754C20.7274 37.3163 20.9185 37.5073 21.1593 37.5073C21.4002 37.5073 21.5912 37.3163 21.5912 37.0754V35.5139C22.4218 35.3146 23.0364 34.5754 23.0364 33.6784ZM21.151 34.7C20.5862 34.7 20.1294 34.2432 20.1294 33.6784C20.1294 33.1136 20.5862 32.6568 21.151 32.6568C21.7158 32.6568 22.1726 33.1136 22.1726 33.6784C22.1643 34.2432 21.7075 34.7 21.151 34.7Z" fill="white"/>
<path d="M21.1604 37.5992C20.878 37.5992 20.6454 37.3667 20.6454 37.0843V35.5892C19.7816 35.3567 19.1836 34.5842 19.1836 33.6872C19.1836 32.5992 20.064 31.7188 21.1521 31.7188C22.2401 31.7188 23.1205 32.5992 23.1205 33.6872C23.1205 34.5759 22.5308 35.3484 21.6753 35.5892V37.0926C21.6753 37.3667 21.4428 37.5992 21.1604 37.5992ZM21.1521 31.8766C20.1554 31.8766 19.3497 32.6822 19.3497 33.6789C19.3497 34.5261 19.9228 35.2487 20.7451 35.4397L20.8115 35.4563V37.0843C20.8115 37.2753 20.9693 37.4331 21.1604 37.4331C21.3514 37.4331 21.5092 37.2753 21.5092 37.0843V35.4563L21.5757 35.4397C22.3896 35.2404 22.9544 34.5261 22.9544 33.6872C22.9544 32.6905 22.1487 31.8766 21.1521 31.8766ZM21.1521 34.7836C20.5457 34.7836 20.0474 34.2935 20.0474 33.6789C20.0474 33.0726 20.5374 32.5742 21.1521 32.5742C21.7667 32.5742 22.2567 33.0643 22.2567 33.6789C22.2484 34.2935 21.7584 34.7836 21.1521 34.7836ZM21.1521 32.7487C20.6371 32.7487 20.2135 33.164 20.2135 33.6872C20.2135 34.2105 20.6288 34.6258 21.1521 34.6258C21.6753 34.6258 22.0906 34.2105 22.0906 33.6872C22.0906 33.164 21.667 32.7487 21.1521 32.7487Z" fill="white"/>
<path d="M43.9097 19.5391C43.8682 18.7832 43.4529 18.3015 42.7137 18.1769C42.5309 18.1437 42.3399 18.1437 42.1572 18.1437C36.8083 18.1437 31.4594 18.1437 26.1105 18.1437H24.2998C24.0755 17.3463 23.3446 16.7649 22.4808 16.7649C21.6253 16.7649 20.9027 17.3297 20.6702 18.1105H17.8711C17.8711 17.8364 17.8794 17.5955 17.8711 17.3546C17.8545 16.632 17.3313 16.1005 16.6087 16.0922C16.019 16.0839 15.4293 16.0839 14.8395 16.0922C13.6518 16.1171 12.5887 16.9144 12.2232 18.044C12.1734 18.2018 12.1319 18.3596 12.082 18.5174C12.082 25.0624 12.082 31.6156 12.082 38.1689C12.0903 38.1855 12.1153 38.2021 12.1153 38.2187C12.5305 39.83 13.5106 40.5941 15.1801 40.5941C17.0489 40.5941 18.9094 40.5941 20.7782 40.5941C20.8778 40.5941 20.9858 40.6025 21.0855 40.5775C21.3097 40.5277 21.4509 40.3699 21.4509 40.1373C21.4509 39.8882 21.318 39.7303 21.0772 39.6722C20.9775 39.6473 20.8695 39.6639 20.7699 39.6639C18.818 39.6639 16.8745 39.6722 14.9226 39.6639C13.8512 39.6556 13.0206 38.8167 13.0206 37.7702C13.0206 36.7237 13.8512 35.8848 14.9226 35.8682C15.4376 35.8599 15.9608 35.8682 16.4758 35.8682C17.3728 35.8682 17.8794 35.3615 17.8794 34.4645C17.8794 32.9861 17.8794 31.4993 17.8794 30.0209C17.8794 29.9129 17.8794 29.7967 17.8794 29.6721C18.0123 29.6638 18.112 29.6555 18.22 29.6555C19.4409 29.6555 20.6619 29.6638 21.8911 29.6472C22.1071 29.6472 22.2483 29.7053 22.3812 29.8797C24.8231 33.0608 27.265 36.2336 29.7152 39.4147C29.765 39.4812 29.8065 39.5559 29.873 39.6556C28.0042 39.6556 26.1769 39.6556 24.3579 39.6556C23.926 39.6556 23.4858 39.6473 23.0539 39.6556C22.7632 39.6639 22.5639 39.8549 22.5556 40.1041C22.5473 40.3699 22.7549 40.5692 23.0622 40.5858C23.0955 40.5858 23.1204 40.5858 23.1536 40.5858C29.5241 40.5858 35.9029 40.5858 42.2735 40.5858C43.3698 40.5858 43.918 40.0294 43.9346 38.9413C43.9346 38.8665 43.9346 38.8001 43.9346 38.7254C43.9346 32.4462 43.9346 26.167 43.9346 19.8796C43.918 19.7716 43.918 19.6553 43.9097 19.5391ZM37.9129 19.0739C38.8681 19.0739 39.7983 19.0739 40.7286 19.0739C41.3017 19.0739 41.8665 19.0656 42.4396 19.0822C42.8133 19.0905 42.9794 19.2317 42.9794 19.5806C42.9877 21.7152 42.9794 23.8497 42.9794 26.0092C41.2851 26.0092 39.6073 26.0092 37.9046 26.0092C37.9129 23.7085 37.9129 21.4162 37.9129 19.0739ZM22.4808 17.637C23.0456 17.637 23.5024 18.0939 23.5024 18.6586C23.5024 19.2234 23.0456 19.6803 22.4808 19.6803C21.916 19.6803 21.4592 19.2234 21.4592 18.6586C21.4675 18.0939 21.9244 17.637 22.4808 17.637ZM16.9409 34.4064C16.9409 34.8466 16.8578 34.9379 16.4176 34.9379C16.0522 34.9379 15.695 34.9545 15.3296 34.9379C14.499 34.8964 13.7266 35.0625 13.0123 35.6771C13.0123 35.4944 13.0123 35.3947 13.0123 35.2951C13.0123 29.9046 13.0123 24.5225 13.0123 19.1321C13.0123 17.8032 13.7764 17.039 15.1136 17.0307C15.504 17.0307 15.9027 17.0307 16.293 17.0307C16.8994 17.0307 16.9326 17.0639 16.9326 17.6536C16.9326 21.7069 16.9326 25.7601 16.9326 29.805C16.9409 31.3332 16.9409 32.8698 16.9409 34.4064ZM31.152 39.6473C31.069 39.6473 30.9693 39.531 30.9029 39.448C28.2866 36.0509 25.6619 32.6538 23.0539 29.2485C22.7549 28.8664 22.4227 28.7003 21.9493 28.7086C20.72 28.7335 19.4825 28.7169 18.2532 28.7169C18.1369 28.7169 18.029 28.7169 17.8961 28.7169C17.8961 28.1272 17.8961 27.5707 17.8961 26.9644C18.0123 26.9644 18.1286 26.9644 18.2366 26.9644C19.308 26.9644 20.3712 26.9644 21.4426 26.9644C21.5008 26.9644 21.5672 26.9644 21.6253 26.9644C22.0157 26.9561 22.2234 26.79 22.2234 26.4827C22.2151 26.192 22.0157 26.0342 21.642 26.0258C20.5124 26.0258 19.3828 26.0258 18.2532 26.0258C18.1452 26.0258 18.029 26.0258 17.8961 26.0258C17.8961 23.7002 17.8961 21.4079 17.8961 19.0905C18.4609 19.0905 19.0173 19.0905 19.5738 19.0905H20.6536C20.8197 19.7799 21.3679 20.3281 22.0572 20.4859V22.0474C22.0572 22.2883 22.2483 22.4793 22.4891 22.4793C22.73 22.4793 22.921 22.2883 22.921 22.0474V20.4859C23.6104 20.3198 24.1586 19.7716 24.3164 19.0739H25.6453C26.4676 19.0739 27.2816 19.0739 28.1038 19.0739C30.0308 19.0739 31.9577 19.0739 33.8846 19.0739C34.0009 19.0739 34.1089 19.0739 34.2418 19.0739C34.2418 20.3115 34.2418 21.5241 34.2418 22.7866C34.1255 22.7866 34.0092 22.7866 33.9013 22.7866C32.78 22.7866 31.667 22.7866 30.5457 22.7866C29.8813 22.7866 29.6238 23.0441 29.6238 23.7085C29.6238 24.373 29.6238 25.0375 29.6238 25.7019C29.6238 25.8016 29.6155 25.9013 29.6072 26.0342C29.4743 26.0342 29.3663 26.0342 29.2583 26.0342C27.5972 26.0342 25.9443 26.0342 24.2832 26.0342C24.1835 26.0342 24.0755 26.0259 23.9759 26.0425C23.7433 26.0757 23.6021 26.2086 23.5772 26.4411C23.5523 26.6903 23.6686 26.8647 23.9094 26.9312C24.0257 26.9644 24.1586 26.9561 24.2749 26.9561C27.5473 26.9561 30.8198 26.9561 34.1006 26.9561C34.8979 26.9561 35.2136 26.6405 35.2136 25.8431C35.2136 23.7168 35.2136 21.5906 35.2136 19.4726C35.2136 19.348 35.2136 19.2317 35.2136 19.0822C35.8199 19.0822 36.3764 19.0822 36.9661 19.0822C36.9661 19.2151 36.9661 19.3397 36.9661 19.456C36.9661 21.5989 36.9661 23.7501 36.9661 25.893C36.9661 26.6322 37.29 26.9561 38.0292 26.9561C39.5658 26.9561 41.094 26.9561 42.6306 26.9561C42.7386 26.9561 42.8549 26.9561 42.9794 26.9561C42.9794 27.5458 42.9794 28.1023 42.9794 28.7086C42.8549 28.7086 42.722 28.7086 42.5974 28.7086C37.2485 28.7086 31.8996 28.7086 26.559 28.7086C26.3679 28.7086 26.1603 28.7169 25.9776 28.7667C25.5789 28.8664 25.4211 29.2236 25.6038 29.5973C25.6786 29.7551 25.7948 29.8963 25.8945 30.0375C28.2783 33.1439 30.6703 36.2419 33.0624 39.3483C33.1288 39.4396 33.1953 39.5227 33.2866 39.6639C32.5308 39.6556 31.8414 39.6639 31.152 39.6473ZM34.2584 23.7418C34.2584 24.5059 34.2584 25.2451 34.2584 26.0092C33.0375 26.0092 31.8165 26.0092 30.5789 26.0092C30.5789 25.2534 30.5789 24.5059 30.5789 23.7418C31.8082 23.7418 33.0208 23.7418 34.2584 23.7418ZM42.9877 30.0043C42.9877 32.9362 42.9877 35.8682 42.9877 38.8001C42.9877 38.9164 42.9877 39.0244 42.9794 39.1406C42.9545 39.448 42.7884 39.6141 42.4894 39.6473C42.3731 39.6556 42.2651 39.6556 42.1489 39.6556C39.6821 39.6556 37.2152 39.6556 34.7484 39.6473C34.6072 39.6473 34.4162 39.5725 34.3332 39.4729C31.8414 36.2585 29.358 33.0276 26.8746 29.805C26.8497 29.7717 26.8331 29.7385 26.7832 29.6638C32.1986 29.6638 37.5724 29.6638 42.9794 29.6638C42.9877 29.7884 42.9877 29.8963 42.9877 30.0043Z" fill="white"/>
<path d="M20.9204 40.6743C20.8955 40.6743 20.8705 40.6743 20.8456 40.6743C20.8207 40.6743 20.8041 40.6743 20.7792 40.6743C18.9104 40.6743 17.0499 40.6743 15.1811 40.6743C13.495 40.6743 12.4651 39.877 12.0415 38.2407C12.0415 38.2407 12.0415 38.2407 12.0332 38.2324C12.0249 38.2241 12.0166 38.2158 12.0166 38.2075L12 38.1909V18.4897C12.0166 18.4398 12.0249 18.39 12.0415 18.3401C12.0748 18.2322 12.0997 18.1242 12.1412 18.0162C12.515 16.8617 13.6279 16.0311 14.8406 16.0062C15.3804 15.9979 15.9618 15.9979 16.6097 16.0062C17.3738 16.0145 17.9386 16.5876 17.9552 17.3518C17.9552 17.5179 17.9552 17.6923 17.9552 17.875C17.9552 17.9249 17.9552 17.9747 17.9552 18.0245H20.6131C20.8789 17.2272 21.643 16.679 22.4819 16.679C23.3374 16.679 24.1015 17.2438 24.359 18.0578H28.0716C32.7644 18.0578 37.4571 18.0578 42.1499 18.0578C42.316 18.0578 42.5236 18.0578 42.723 18.091C43.4954 18.2239 43.9522 18.7388 43.9938 19.5362C44.0021 19.6275 44.0021 19.7189 43.9938 19.8103V19.885V38.7806C43.9938 38.8387 43.9938 38.8886 43.9938 38.9467C43.9772 40.0929 43.3874 40.6743 42.2496 40.6743C37.4488 40.6743 32.6564 40.6743 27.8557 40.6743H23.1297H23.1048C23.0799 40.6743 23.055 40.6743 23.03 40.6743C22.6812 40.6577 22.4403 40.4251 22.4486 40.1095C22.4569 39.8022 22.6978 39.5863 23.03 39.578C23.3374 39.5697 23.653 39.5697 23.9603 39.578C24.0849 39.578 24.2095 39.578 24.3424 39.578H29.7079C29.683 39.5364 29.658 39.5032 29.6331 39.47L27.8308 37.1195C26.0201 34.7606 24.143 32.327 22.3074 29.9267C22.1912 29.7772 22.0832 29.719 21.8922 29.719H21.8838C21.0201 29.7273 20.1313 29.7273 19.2841 29.7273C18.927 29.7273 18.5699 29.7273 18.221 29.7273C18.1546 29.7273 18.0881 29.7273 18.0134 29.7356C17.9968 29.7356 17.9801 29.7356 17.9635 29.7356V31.3802C17.9635 32.4018 17.9635 33.4317 17.9635 34.4533C17.9635 35.4002 17.4154 35.94 16.4768 35.94C16.2941 35.94 16.1113 35.94 15.9286 35.94C15.5964 35.94 15.2559 35.94 14.9236 35.94C13.902 35.9567 13.1047 36.754 13.1047 37.759C13.1047 38.764 13.9103 39.5613 14.9319 39.5697C16.2775 39.578 17.6396 39.578 18.9602 39.5697C19.5665 39.5697 20.1729 39.5697 20.7792 39.5697C20.8041 39.5697 20.829 39.5697 20.8539 39.5697C20.937 39.5697 21.0201 39.5613 21.1114 39.5863C21.3938 39.6527 21.5599 39.8521 21.5516 40.1344C21.5433 40.4002 21.3855 40.5913 21.1197 40.6577C21.045 40.6743 20.9785 40.6743 20.9204 40.6743ZM20.7792 40.5082C20.8041 40.5082 20.829 40.5082 20.8456 40.5082C20.9204 40.5082 20.9951 40.5082 21.0616 40.4916C21.2526 40.4501 21.3606 40.3172 21.3689 40.1261C21.3689 39.9268 21.2609 39.7939 21.0533 39.7441C20.9868 39.7275 20.9204 39.7275 20.8373 39.7358C20.721 39.7358 20.6131 39.7358 20.4968 39.7358C19.9818 39.7358 19.4586 39.7358 18.9436 39.7358C17.623 39.7358 16.2609 39.7358 14.9153 39.7358C13.8023 39.7275 12.9302 38.8637 12.9302 37.759C12.9302 36.6626 13.8023 35.7905 14.907 35.7739C15.2476 35.7656 15.5881 35.7739 15.9203 35.7739C16.103 35.7739 16.2858 35.7739 16.4685 35.7739C17.324 35.7739 17.7891 35.3005 17.7891 34.4533C17.7891 33.4317 17.7891 32.4018 17.7891 31.3802V29.5778H17.8722C17.9137 29.5778 17.9552 29.5695 17.9968 29.5695C18.0715 29.5612 18.1463 29.5612 18.2127 29.5612C18.5699 29.5612 18.927 29.5612 19.2758 29.5612C20.1313 29.5612 21.0117 29.5612 21.8755 29.5529H21.8838C22.1247 29.5529 22.2825 29.6277 22.432 29.8187C24.2676 32.2191 26.1447 34.6526 27.9554 37.0032L29.7577 39.3537C29.7909 39.4035 29.8242 39.4534 29.8574 39.5115C29.874 39.5364 29.8906 39.5697 29.9155 39.6029L29.9986 39.7275H24.3257C24.2012 39.7275 24.0766 39.7275 23.9437 39.7275C23.6364 39.7275 23.3291 39.7275 23.0217 39.7275C22.7809 39.7358 22.6148 39.8853 22.6064 40.1012C22.5981 40.3255 22.7726 40.4833 23.03 40.4916C23.0467 40.4916 23.0716 40.4916 23.0882 40.4916H23.1131H27.8391C32.6398 40.4916 37.4322 40.4916 42.2329 40.4916C43.2795 40.4916 43.7944 39.9766 43.811 38.9301C43.811 38.8803 43.811 38.8221 43.811 38.7723V38.7142V19.8684V19.7937C43.811 19.7023 43.811 19.6192 43.811 19.5279C43.7695 18.8053 43.3791 18.3651 42.6815 18.2405C42.4987 18.2073 42.2994 18.2073 42.1416 18.2073C37.3492 18.2073 32.5567 18.2073 27.7726 18.2073H24.2261L24.2095 18.1491C23.9935 17.3767 23.2792 16.8285 22.4736 16.8285C21.6845 16.8285 20.9702 17.3601 20.746 18.1159L20.7293 18.174H17.7891V18.091C17.7891 18.0079 17.7891 17.9332 17.7891 17.8584C17.7891 17.6757 17.7891 17.5096 17.7891 17.3435C17.7725 16.679 17.2742 16.1807 16.6097 16.1723C15.9618 16.164 15.3887 16.164 14.8406 16.1723C13.6944 16.1973 12.6562 16.978 12.299 18.0661C12.2658 18.174 12.2326 18.282 12.2076 18.39C12.191 18.4315 12.1827 18.4813 12.1661 18.5229V38.1328C12.1744 38.1494 12.191 38.166 12.1993 38.1909C12.6063 39.769 13.5532 40.5082 15.1811 40.5082C17.0499 40.5082 18.9104 40.5082 20.7792 40.5082ZM39.3509 39.7441C37.8226 39.7441 36.2777 39.7441 34.7578 39.7358C34.6 39.7358 34.384 39.661 34.276 39.5281C32.0501 36.6543 29.7992 33.7307 27.6231 30.8984L26.8258 29.8602C26.8092 29.8353 26.7925 29.8187 26.7759 29.7772C26.7676 29.7606 26.751 29.7356 26.7344 29.7107L26.6514 29.5861H43.0884V30.0097C43.0884 32.9417 43.0884 35.8736 43.0884 38.8055V38.8221C43.0884 38.9301 43.0884 39.0464 43.0801 39.1544C43.0552 39.5032 42.8642 39.7025 42.5153 39.7358C42.4074 39.7441 42.2994 39.7441 42.1914 39.7441H41.1117C40.5137 39.7441 39.9323 39.7441 39.3509 39.7441ZM26.9421 29.7439L26.9504 29.7523L27.7477 30.7905C29.9238 33.6227 32.183 36.5464 34.4006 39.4202C34.4588 39.4949 34.6249 39.5613 34.7495 39.5613C36.8674 39.5697 39.0186 39.5697 41.0951 39.5697H42.1748C42.2745 39.5697 42.3825 39.5697 42.4821 39.5613C42.7396 39.5364 42.8808 39.3952 42.8974 39.1378C42.9057 39.0298 42.9057 38.9218 42.9057 38.8138V38.7972C42.9057 35.8653 42.9057 32.9334 42.9057 30.0014V29.7439H26.9421ZM32.2577 39.7358C31.884 39.7358 31.5185 39.7358 31.1531 39.7275C31.0368 39.7275 30.9371 39.6112 30.8458 39.4949L30.1647 38.6062C27.8142 35.558 25.3806 32.4018 23.0051 29.2954C22.731 28.93 22.4154 28.7805 21.9669 28.7888C21.0865 28.8054 20.1895 28.7971 19.3257 28.7971C18.9768 28.7971 18.6197 28.7971 18.2708 28.7971H17.814V26.8785H21.4935C21.535 26.8785 21.5765 26.8785 21.6181 26.8785C21.8091 26.8785 21.9586 26.8286 22.0417 26.7456C22.0998 26.6791 22.133 26.5961 22.133 26.4881C22.1247 26.2389 21.9586 26.1143 21.6347 26.1143C20.8207 26.1143 20.0067 26.1143 19.2011 26.1143H17.814V19.0129H20.721L20.7377 19.0794C20.8955 19.7355 21.427 20.2588 22.0832 20.4166L22.1496 20.4332V22.0611C22.1496 22.2522 22.3074 22.41 22.4985 22.41C22.6895 22.41 22.8473 22.2522 22.8473 22.0611V20.4166L22.9138 20.4C23.5699 20.2422 24.0932 19.7106 24.251 19.0544L24.2676 18.988H25.746C26.452 18.988 27.158 18.988 27.864 18.988H34.3425V22.8668H32.9056C32.1248 22.8668 31.3441 22.8668 30.5551 22.8668C29.9321 22.8668 29.7162 23.091 29.7162 23.7057C29.7162 24.0462 29.7162 24.3867 29.7162 24.7273C29.7162 25.0512 29.7162 25.3751 29.7162 25.6907C29.7162 25.7572 29.7162 25.8319 29.7079 25.9067C29.7079 25.9482 29.6996 25.9814 29.6996 26.0313V26.1143H28.271C26.9421 26.1143 25.6214 26.1143 24.2925 26.1143C24.2676 26.1143 24.2427 26.1143 24.2178 26.1143C24.1347 26.1143 24.06 26.1143 23.9935 26.1226C23.7942 26.1476 23.6862 26.2555 23.6613 26.4549C23.6364 26.6625 23.7277 26.8037 23.9354 26.8619C24.0267 26.8868 24.1264 26.8868 24.2344 26.8868H24.2842C27.5567 26.8868 30.8291 26.8868 34.1099 26.8868C34.8574 26.8868 35.1398 26.6127 35.1398 25.8569C35.1398 24.3535 35.1398 22.8585 35.1398 21.3551V19.0046H37.0585V21.3385C37.0585 22.8585 37.0585 24.3784 37.0585 25.8984C37.0585 26.5878 37.3492 26.8785 38.0385 26.8785C39.1266 26.8785 40.2146 26.8785 41.3027 26.8785H43.0718V28.7971H40.3392C35.7462 28.7971 31.1531 28.7971 26.5683 28.7971C26.3856 28.7971 26.1862 28.7971 26.0035 28.8469C25.8374 28.8885 25.7128 28.9881 25.6547 29.1127C25.5965 29.2456 25.6048 29.4034 25.6796 29.5612C25.746 29.7024 25.8457 29.827 25.9454 29.9516L25.9703 29.9765C27.6065 32.1028 29.2344 34.2207 30.8707 36.3387L33.1381 39.2873C33.1797 39.3454 33.2212 39.4035 33.2793 39.4783C33.3043 39.5198 33.3375 39.5613 33.3707 39.6029L33.4621 39.7358H33.296C33.1215 39.7358 32.9471 39.7358 32.781 39.7358C32.59 39.7358 32.4239 39.7358 32.2577 39.7358ZM31.1531 39.5613C31.6763 39.578 32.1996 39.5697 32.7478 39.5697C32.8641 39.5697 32.9803 39.5697 33.1049 39.5697C33.0551 39.5032 33.0136 39.4451 32.972 39.3869L30.7046 36.4384C29.0683 34.3204 27.4404 32.1941 25.8042 30.0762L25.7792 30.0513C25.6796 29.9184 25.5716 29.7855 25.4969 29.6277C25.3972 29.4283 25.3889 29.2124 25.4719 29.038C25.555 28.8635 25.7128 28.739 25.9288 28.6808C26.1281 28.631 26.3357 28.6227 26.5351 28.6227C31.1282 28.6227 35.7212 28.6227 40.306 28.6227H42.8725V27.0446H41.2695C40.1814 27.0446 39.0934 27.0446 38.0053 27.0446C37.2246 27.0446 36.8591 26.6791 36.8591 25.8984C36.8591 24.3784 36.8591 22.8585 36.8591 21.3385V19.1707H35.2727V21.3551C35.2727 22.8585 35.2727 24.3535 35.2727 25.8569C35.2727 26.704 34.9239 27.0529 34.0767 27.0529C30.8042 27.0529 27.5318 27.0529 24.251 27.0529H24.2012C24.0849 27.0529 23.9686 27.0529 23.8606 27.0197C23.5782 26.9366 23.437 26.729 23.4702 26.4383C23.4952 26.1642 23.6696 25.9981 23.9437 25.9648C24.0267 25.9565 24.1098 25.9565 24.1928 25.9565C24.2178 25.9565 24.2427 25.9565 24.2676 25.9565C25.5965 25.9565 26.9171 25.9565 28.2461 25.9565H29.5168C29.5168 25.9399 29.5168 25.9233 29.5168 25.915C29.5251 25.8402 29.5251 25.7738 29.5251 25.7074C29.5251 25.3834 29.5251 25.0595 29.5251 24.7439C29.5251 24.4033 29.5251 24.0628 29.5251 23.7223C29.5251 23.008 29.8158 22.7173 30.5301 22.7173C31.3109 22.7173 32.0916 22.7173 32.8807 22.7173H34.1515V19.1541H27.8391C27.1082 19.1541 26.369 19.1541 25.6381 19.1541H25.555H24.3756C24.1928 19.8269 23.6696 20.3584 22.9968 20.5495V22.0528C22.9968 22.3352 22.7643 22.5678 22.4819 22.5678C22.1995 22.5678 21.9669 22.3352 21.9669 22.0528V20.5578C21.3024 20.3751 20.7626 19.8435 20.5798 19.179H17.9801V25.9482H19.2011C20.0151 25.9482 20.829 25.9482 21.6347 25.9482C22.05 25.9482 22.2908 26.1476 22.2991 26.4798C22.2991 26.6376 22.2576 26.7622 22.1662 26.8535C22.05 26.9781 21.8672 27.0363 21.6264 27.0363C21.5848 27.0363 21.5433 27.0363 21.4935 27.0363H21.4353H17.9801V28.6227H18.2542C18.6031 28.6227 18.9602 28.6227 19.3091 28.6227C20.1729 28.6227 21.0699 28.631 21.9503 28.6144C21.9586 28.6144 21.9752 28.6144 21.9835 28.6144C22.4736 28.6144 22.8224 28.7888 23.1214 29.1875C25.4969 32.2938 27.9304 35.45 30.281 38.4982L30.9703 39.3869C31.0949 39.5447 31.1365 39.5613 31.1531 39.5613ZM12.9302 35.8404V19.1126C12.9302 17.7255 13.7276 16.9365 15.1147 16.9282C15.4469 16.9282 15.7708 16.9282 16.103 16.9282H16.3024C16.9502 16.9282 17.025 17.0029 17.025 17.6342V31.0396C17.025 32.1526 17.025 33.2739 17.025 34.3869C17.025 34.8686 16.9004 35.0015 16.4187 35.0015C16.3107 35.0015 16.211 35.0015 16.103 35.0015C15.8456 35.0015 15.5881 35.0098 15.3223 34.9932C14.3838 34.9517 13.6861 35.1759 13.0631 35.7075L12.9302 35.8404ZM15.5881 17.1026C15.4303 17.1026 15.2808 17.1026 15.123 17.1026C13.8356 17.1026 13.1047 17.8418 13.1047 19.1209V35.4915C13.7276 35.0098 14.4419 34.8105 15.3389 34.8437C15.5964 34.852 15.8539 34.852 16.103 34.852C16.211 34.852 16.3107 34.852 16.4187 34.852C16.809 34.852 16.8589 34.8022 16.8589 34.4035C16.8589 33.2905 16.8589 32.1692 16.8589 31.0563V17.6508C16.8589 17.1109 16.8589 17.1109 16.3024 17.1109H16.103C15.9286 17.1026 15.7542 17.1026 15.5881 17.1026ZM34.3425 26.0894H30.4969V23.6558H34.3425V26.0894ZM30.663 25.9233H34.1764V23.8219H30.663V25.9233ZM43.0635 26.0811H37.8309V18.988H38.7944C39.4422 18.988 40.0901 18.988 40.7296 18.988C40.8874 18.988 41.0452 18.988 41.203 18.988C41.61 18.988 42.0336 18.988 42.4406 18.9963C42.8642 19.0046 43.0635 19.1873 43.0635 19.5694C43.0718 21.1724 43.0718 22.8086 43.0635 24.3867V26.0811ZM37.997 25.915H42.8974V24.3867C42.8974 22.8086 42.8974 21.1724 42.8974 19.5694C42.8974 19.2787 42.7728 19.1624 42.4323 19.1541C42.017 19.1458 41.6017 19.1458 41.1947 19.1458C41.0369 19.1458 40.8791 19.1458 40.7213 19.1458C40.0818 19.1458 39.4339 19.1458 38.7861 19.1458H37.9887V25.915H37.997ZM22.4819 19.7521C21.8755 19.7521 21.3772 19.2621 21.3772 18.6475C21.3772 18.0411 21.8672 17.5428 22.4819 17.5428C23.0965 17.5428 23.5865 18.0328 23.5865 18.6475C23.5865 19.2538 23.0882 19.7521 22.4819 19.7521ZM22.4819 17.7172C21.9669 17.7172 21.5433 18.1325 21.5433 18.6558C21.5433 19.179 21.9586 19.5943 22.4819 19.5943C22.9968 19.5943 23.4204 19.179 23.4204 18.6558C23.4204 18.1325 22.9968 17.7172 22.4819 17.7172Z" fill="white"/>
</svg>
