<svg width="28" height="21" viewBox="0 0 28 21" fill="none" xmlns="http://www.w3.org/2000/svg">
<path d="M16.0476 11.4336V14.9746H19.4202L13.6617 20.733L7.90332 14.9746H11.2759V11.4336H16.0476Z" fill="#0063AA"/>
<path d="M6.26723 4.60281C7.71801 2.01066 10.4889 0.253906 13.6621 0.253906C16.8352 0.253906 19.6062 2.01066 21.0569 4.60281C24.512 4.62343 27.3173 7.43905 27.3173 10.8975C27.3173 14.3698 24.4948 17.1923 21.0226 17.1923H18.7708L20.9882 14.9749H21.0191C23.2675 14.9749 25.0964 13.1459 25.0964 10.8975C25.0964 8.96546 23.7419 7.34279 21.9336 6.92681C21.6379 6.85805 21.332 6.82023 21.0191 6.82023C20.5481 6.82023 20.1012 6.90274 19.6818 7.05057C19.479 6.3183 19.1455 5.64105 18.7089 5.04286C17.5709 3.4855 15.7317 2.47133 13.6586 2.47133C11.5856 2.47133 9.74979 3.4855 8.60842 5.04286C8.17181 5.64105 7.83834 6.3183 7.6355 7.05057C7.21608 6.90274 6.76572 6.82023 6.29817 6.82023C5.98189 6.82023 5.67936 6.85805 5.3837 6.92681C3.57538 7.34279 2.22086 8.96546 2.22086 10.8975C2.22086 13.1459 4.04981 14.9749 6.29817 14.9749H6.32911L8.54654 17.1923H6.29474C2.82249 17.1923 0 14.3698 0 10.8975C0.00687573 7.43905 2.81218 4.62 6.26723 4.60281Z" fill="#0063AA"/>
</svg>
