<svg width="80" height="80" viewBox="0 0 80 80" fill="none" xmlns="http://www.w3.org/2000/svg">
<circle cx="40" cy="40" r="40" fill="#0063AA"/>
<g clip-path="url(#clip0_251_6896)">
<path d="M60.0772 27.5781C60.0772 29.7396 60.0772 31.9011 60.0772 34.0625C60.0595 34.0813 60.0355 34.097 60.025 34.1189C59.7151 34.767 59.2298 35.0436 58.6328 34.91C58.0661 34.7837 57.731 34.3067 57.731 33.621C57.73 32.2799 57.6705 30.9357 57.7519 29.5997C57.8062 28.7126 57.5223 28.1021 56.8836 27.5061C56.4264 27.0793 55.9933 27.0876 55.4579 27.1481C55.4579 27.3381 55.4579 27.5061 55.4579 27.6742C55.4579 36.0966 55.4485 44.5181 55.4694 52.9406C55.4715 53.9957 55.1198 54.7545 54.1481 55.1803C54.1408 55.2189 54.1314 55.244 54.1314 55.2701C54.1293 56.1812 54.1314 57.0923 54.1272 58.0034C54.122 59.1588 53.2871 59.9937 52.1307 59.9969C50.9304 60.001 49.7313 60 48.531 59.9969C47.5594 59.9937 46.7943 59.3968 46.5804 58.4627C46.5345 58.2633 46.5407 58.0494 46.5397 57.8427C46.5355 57.0005 46.5376 56.1593 46.5376 55.317C42.1813 55.317 37.874 55.317 33.5407 55.317C33.5407 56.2313 33.5438 57.1142 33.5396 57.9982C33.5355 59.1567 32.7026 59.9927 31.5483 59.9969C30.3481 60.001 29.1489 60.001 27.9487 59.9969C26.7912 59.9937 25.9552 59.1588 25.9511 58.0045C25.9479 57.0683 25.95 56.1311 25.95 55.1866C24.9575 54.7555 24.6047 53.9968 24.6078 52.9416C24.6287 44.5066 24.6193 36.0716 24.6193 27.6366C24.6193 27.4717 24.6193 27.3078 24.6193 27.1534C24.0046 27.0323 23.4995 27.0824 23.1269 27.6063C22.986 27.8057 22.7939 27.9737 22.604 28.1313C22.3921 28.3066 22.3389 28.5112 22.341 28.7784C22.3525 30.4316 22.3514 32.0847 22.3451 33.7379C22.342 34.5343 21.6563 35.0843 20.9007 34.9089C20.4394 34.8014 20.1858 34.4675 20 34.0636C20 31.9021 20 29.7406 20 27.5792C20.1774 27.3433 20.3329 27.0887 20.5344 26.8768C21.0552 26.332 21.6052 25.8133 22.1281 25.2695C22.4641 24.9199 22.8461 24.7373 23.3408 24.7644C23.7635 24.7874 24.1872 24.7696 24.6037 24.7696C24.8197 22.9181 25.662 21.5154 27.2619 20.6408C27.7984 20.3465 28.4193 20.2087 29.0017 20C36.3597 20 43.7176 20 51.0755 20C51.1329 20.025 51.1893 20.0626 51.2498 20.0741C52.3791 20.2724 53.3257 20.8005 54.1053 21.6334C54.9235 22.509 55.3421 23.5642 55.4715 24.7675C55.6468 24.7675 55.8013 24.7665 55.9557 24.7675C57.5578 24.779 57.2906 24.6078 58.5002 25.8216C58.5368 25.8582 58.5754 25.8936 58.6098 25.9323C59.0993 26.4812 59.5877 27.0292 60.0772 27.5781ZM40.0783 22.342C36.7124 22.342 33.3476 22.341 29.9817 22.342C28.1031 22.3431 26.9655 23.4817 26.9655 25.3603C26.9645 29.6561 26.9655 33.9529 26.9655 38.2487C26.9655 39.1598 26.9718 40.071 26.9613 40.9831C26.9592 41.2065 27.0187 41.3109 27.2556 41.338C27.7994 41.3996 28.3369 41.5248 28.8817 41.5551C31.3938 41.696 33.906 41.8995 36.4191 41.9183C40.2912 41.9475 44.1653 41.8807 48.0374 41.7784C49.6091 41.7367 51.1747 41.4872 52.7444 41.3495C53.0543 41.3223 53.119 41.194 53.119 40.907C53.1107 35.6865 53.1149 30.466 53.1076 25.2455C53.1076 24.9376 53.0668 24.6193 52.9834 24.324C52.6348 23.0976 51.5827 22.3483 50.2145 22.3462C46.835 22.3389 43.4567 22.342 40.0783 22.342ZM26.9822 48.3494C27.0563 48.3766 27.1262 48.4141 27.2003 48.4267C28.7512 48.6949 30.3021 48.9652 31.8551 49.2219C32.4427 49.319 32.8174 49.6258 32.9927 50.2009C33.2338 50.9962 33.5083 51.781 33.7463 52.5763C33.8173 52.8122 33.9081 52.9103 34.17 52.9093C38.0828 52.9009 41.9966 52.9019 45.9093 52.9082C46.141 52.9082 46.2516 52.8466 46.3216 52.6118C46.5647 51.7904 46.8392 50.9784 47.096 50.1612C47.2598 49.6384 47.6074 49.3273 48.1459 49.2345C49.1071 49.0685 50.0704 48.912 51.0327 48.746C51.7215 48.627 52.4093 48.4997 53.0929 48.3766C53.0929 46.7891 53.0929 45.2445 53.0929 43.7552C44.3824 44.5285 35.6917 44.5348 26.9832 43.7499C26.9822 45.2466 26.9822 46.7923 26.9822 48.3494ZM26.9916 50.7822C26.9916 51.493 26.9916 52.186 26.9916 52.8821C28.4538 52.8821 29.8899 52.8821 31.3636 52.8821C31.2248 52.4459 31.1079 52.0378 30.9586 51.6401C30.9231 51.5441 30.7885 51.4408 30.6841 51.422C29.4599 51.1997 28.2325 50.9941 26.9916 50.7822ZM53.0909 50.7875C51.8457 50.9993 50.6393 51.1997 49.4359 51.4158C49.318 51.4366 49.1604 51.5358 49.1207 51.6381C48.9662 52.0347 48.8525 52.4459 48.7137 52.8832C50.1905 52.8832 51.6297 52.8832 53.0909 52.8832C53.0909 52.1829 53.0909 51.4982 53.0909 50.7875ZM28.3119 57.6329C29.2804 57.6329 30.2228 57.6329 31.1736 57.6329C31.1736 56.8481 31.1736 56.0873 31.1736 55.3128C30.2103 55.3128 29.2689 55.3128 28.3119 55.3128C28.3119 56.0904 28.3119 56.8418 28.3119 57.6329ZM48.9109 55.3076C48.9109 56.0779 48.9109 56.8481 48.9109 57.634C49.8638 57.634 50.8073 57.634 51.7612 57.634C51.7612 56.8502 51.7612 56.0893 51.7612 55.3076C50.8073 55.3076 49.8742 55.3076 48.9109 55.3076Z" fill="white"/>
<path d="M40.0369 47.043C41.1964 47.043 42.3559 47.0368 43.5155 47.0462C44.0822 47.0503 44.4986 47.3593 44.674 47.8665C44.8357 48.3362 44.7042 48.8684 44.2763 49.145C44.0394 49.2984 43.7242 49.4038 43.4424 49.407C41.1755 49.4278 38.9087 49.4237 36.6418 49.4153C35.9791 49.4132 35.5585 49.1043 35.3894 48.5585C35.2412 48.0794 35.4165 47.5284 35.8674 47.2695C36.1033 47.1349 36.4028 47.0587 36.6763 47.0524C37.7951 47.0295 38.916 47.043 40.0369 47.043Z" fill="white"/>
</g>
<defs>
<clipPath id="clip0_251_6896">
<rect width="40.0772" height="40" fill="white" transform="translate(20 20)"/>
</clipPath>
</defs>
</svg>
