<svg width="56" height="56" viewBox="0 0 56 56" fill="none" xmlns="http://www.w3.org/2000/svg">
<circle cx="28" cy="28" r="27.5" fill="#0063AA" stroke="white"/>
<g clip-path="url(#clip0_413_535)">
<path d="M12 35.6502C12.1833 35.3086 12.4667 35.1919 12.85 35.2086C13.5667 35.2336 14.2833 35.2169 15.0083 35.2169C15.525 35.2169 15.75 35.4502 15.75 35.9586C15.75 37.2502 15.75 38.5336 15.75 39.8252C15.75 39.9419 15.75 40.0502 15.75 40.2086C15.875 40.2086 15.9917 40.2086 16.1 40.2086C17.3917 40.2086 18.6833 40.2086 19.975 40.2086C20.5333 40.2086 20.75 40.4252 20.75 40.9836C20.75 41.6919 20.7333 42.4002 20.7583 43.1002C20.775 43.4836 20.65 43.7669 20.3167 43.9502C17.5417 43.9502 14.775 43.9502 12 43.9502C12 41.1752 12 38.4169 12 35.6502ZM13.2667 42.6752C15.3583 42.6752 17.425 42.6752 19.4917 42.6752C19.4917 42.2586 19.4917 41.8752 19.4917 41.4502C19.3667 41.4502 19.25 41.4502 19.1417 41.4502C17.8583 41.4502 16.5833 41.4502 15.3 41.4502C14.725 41.4502 14.5083 41.2336 14.5083 40.6586C14.5083 39.3669 14.5083 38.0836 14.5083 36.7919C14.5083 36.6836 14.5083 36.5752 14.5083 36.4752C14.0667 36.4752 13.675 36.4752 13.275 36.4752C13.2667 38.5502 13.2667 40.6002 13.2667 42.6752Z" fill="white"/>
<path d="M35.6913 43.9424C35.3496 43.759 35.2329 43.4757 35.2496 43.0924C35.2746 42.3757 35.2579 41.659 35.2579 40.9424C35.2579 40.4257 35.4913 40.2007 35.9996 40.2007C37.2913 40.2007 38.5829 40.2007 39.8746 40.2007C39.9913 40.2007 40.0996 40.2007 40.2579 40.2007C40.2579 40.0757 40.2579 39.959 40.2579 39.8507C40.2579 38.559 40.2579 37.2757 40.2579 35.984C40.2579 35.4257 40.4746 35.209 41.0329 35.209C41.7413 35.209 42.4496 35.2257 43.1579 35.2007C43.5413 35.184 43.8246 35.309 44.0079 35.6423C44.0079 38.409 44.0079 41.1757 44.0079 43.9424C41.2329 43.9424 38.4579 43.9424 35.6913 43.9424ZM42.7246 42.684C42.7246 40.6007 42.7246 38.534 42.7246 36.484C42.2996 36.484 41.9079 36.484 41.4996 36.484C41.4996 37.8923 41.4996 39.2757 41.4996 40.6507C41.4996 41.2257 41.2829 41.4424 40.7079 41.4424C39.4163 41.4424 38.1246 41.4424 36.8329 41.4424C36.7246 41.4424 36.6163 41.4424 36.5079 41.4424C36.5079 41.884 36.5079 42.2757 36.5079 42.6757C38.5913 42.684 40.6496 42.684 42.7246 42.684Z" fill="white"/>
<path d="M12 12.4417C12.1833 12.1083 12.4667 12 12.85 12C15.2 12.0167 17.55 12.0083 19.9 12.0083C20.5583 12.0083 20.75 12.2 20.75 12.8667C20.75 13.5583 20.75 14.2583 20.75 14.95C20.75 15.525 20.5333 15.7417 19.9667 15.7417C18.6833 15.7417 17.4083 15.7417 16.125 15.7417C16.0083 15.7417 15.9 15.7417 15.75 15.7417C15.75 15.875 15.75 15.9833 15.75 16.1C15.75 17.3917 15.75 18.675 15.75 19.9667C15.75 20.525 15.5333 20.7417 14.975 20.7417C14.2667 20.7417 13.5583 20.725 12.85 20.75C12.4667 20.7583 12.1833 20.6417 12 20.3083C12 17.6833 12 15.0667 12 12.4417ZM13.275 13.2667C13.275 15.3583 13.275 17.4167 13.275 19.475C13.6917 19.475 14.0833 19.475 14.5 19.475C14.5 19.35 14.5 19.2417 14.5 19.125C14.5 17.85 14.5 16.5667 14.5 15.2917C14.5 14.7167 14.7167 14.5 15.2917 14.5C16.5833 14.5 17.875 14.5 19.1667 14.5C19.275 14.5 19.3833 14.5 19.4833 14.5C19.4833 14.0583 19.4833 13.6667 19.4833 13.2667C17.4083 13.2667 15.35 13.2667 13.275 13.2667Z" fill="white"/>
<path d="M43.9995 20.3C43.8162 20.6333 43.5328 20.7583 43.1495 20.7417C42.4328 20.7167 41.7162 20.7333 40.9995 20.7333C40.4828 20.7333 40.2578 20.5 40.2495 19.9917C40.2495 18.5917 40.2495 17.1917 40.2495 15.7417C40.1245 15.7417 40.0162 15.7417 39.9078 15.7417C38.6162 15.7417 37.3245 15.7417 36.0411 15.7417C35.4661 15.7417 35.2578 15.525 35.2578 14.95C35.2578 14.2167 35.2578 13.475 35.2578 12.7417C35.2578 12.25 35.4911 12.0083 35.9828 12.0083C38.4162 12.0083 40.8495 12.0083 43.2912 12C43.6412 12 43.8495 12.1667 44.0162 12.4417C43.9995 15.0667 43.9995 17.6833 43.9995 20.3ZM36.5161 14.5C36.6578 14.5 36.7661 14.5 36.8828 14.5C38.1662 14.5 39.4412 14.5 40.7245 14.5C41.2828 14.5 41.5078 14.7167 41.5078 15.2667C41.5078 16.5583 41.5078 17.8417 41.5078 19.1333C41.5078 19.2417 41.5078 19.3583 41.5078 19.4667C41.9412 19.4667 42.3412 19.4667 42.7328 19.4667C42.7328 17.3833 42.7328 15.325 42.7328 13.2667C40.6495 13.2667 38.5912 13.2667 36.5245 13.2667C36.5161 13.675 36.5161 14.0667 36.5161 14.5Z" fill="white"/>
<path d="M28.0089 17.3755C31.2672 17.3755 34.5255 17.3755 37.7839 17.3755C38.4255 17.3755 38.6172 17.5755 38.6172 18.2172C38.6172 24.7255 38.6172 31.2255 38.6172 37.7339C38.6172 38.3922 38.4255 38.5839 37.7589 38.5839C31.2505 38.5839 24.7422 38.5839 18.2339 38.5839C17.5505 38.5839 17.3672 38.4005 17.3672 37.7089C17.3672 31.2255 17.3672 24.7422 17.3672 18.2505C17.3672 17.5505 17.5505 17.3672 18.2589 17.3672C21.5172 17.3755 24.7672 17.3755 28.0089 17.3755ZM18.6422 37.3089C24.9005 37.3089 31.1255 37.3089 37.3505 37.3089C37.3505 31.0672 37.3505 24.8505 37.3505 18.6339C31.1005 18.6339 24.8755 18.6339 18.6422 18.6339C18.6422 24.8672 18.6422 31.0755 18.6422 37.3089Z" fill="white"/>
<path d="M22.3164 27.8837C22.3747 26.9087 22.3414 25.9171 22.5081 24.9671C22.9914 22.2754 25.4747 20.3921 28.2747 20.4921C30.9497 20.5921 33.3081 22.7004 33.5497 25.3837C33.6914 26.9837 33.6081 28.6004 33.5997 30.2087C33.5997 30.5837 33.4997 30.9754 33.4081 31.3421C32.7331 33.8671 30.5414 35.4837 27.8914 35.4171C24.7247 35.3337 22.4331 33.0087 22.3914 29.8171C22.3831 29.1754 22.3914 28.5254 22.3914 27.8837C22.3581 27.8837 22.3414 27.8837 22.3164 27.8837ZM23.6247 28.6087C23.6247 29.0588 23.6081 29.4837 23.6247 29.9087C23.6914 31.6337 24.4831 32.9338 26.0164 33.7254C27.5414 34.5088 29.0664 34.3921 30.4831 33.4338C32.1914 32.2671 32.5414 30.5421 32.3414 28.6004C30.5581 28.5087 29.1081 27.7421 28.0081 26.3171C26.8997 27.6671 25.6914 28.4337 23.6247 28.6087ZM32.3747 27.3421C32.3747 26.8921 32.3914 26.4504 32.3747 26.0171C32.2997 24.2837 31.4914 22.9671 29.9414 22.2004C28.3747 21.4254 26.8247 21.5754 25.4081 22.6087C23.7997 23.7837 23.4747 25.4671 23.6664 27.3421C24.8747 27.2754 25.8997 26.8171 26.7081 25.9087C26.9914 25.5921 27.2164 25.2254 27.4581 24.8754C27.7581 24.4421 28.2664 24.4421 28.5581 24.8754C28.7164 25.1171 28.8664 25.3671 29.0497 25.6004C29.8747 26.6754 30.9747 27.2587 32.3747 27.3421Z" fill="white"/>
<path d="M28.008 32.3398C27.833 32.3398 27.658 32.3398 27.483 32.3398C27.033 32.3315 26.7497 32.0898 26.758 31.7065C26.7663 31.3232 27.033 31.0982 27.4997 31.0898C27.8413 31.0898 28.183 31.0898 28.5247 31.0898C28.9747 31.0982 29.2497 31.3398 29.2497 31.7232C29.2413 32.1065 28.9747 32.3315 28.508 32.3398C28.3413 32.3398 28.1747 32.3398 28.008 32.3398Z" fill="white"/>
<path d="M26.125 30.1557C25.775 30.1557 25.5 29.8724 25.5 29.5224C25.5083 29.1891 25.7917 28.9141 26.125 28.9141C26.4583 28.9141 26.7417 29.1891 26.75 29.5224C26.75 29.8641 26.475 30.1557 26.125 30.1557Z" fill="white"/>
<path d="M29.8591 30.1559C29.5091 30.1476 29.2341 29.8559 29.2507 29.5059C29.2674 29.1726 29.5507 28.9059 29.8841 28.9143C30.2174 28.9226 30.4924 29.2059 30.4924 29.5309C30.5007 29.8809 30.2091 30.1559 29.8591 30.1559Z" fill="white"/>
</g>
<defs>
<clipPath id="clip0_413_535">
<rect width="32" height="31.9417" fill="white" transform="translate(12 12)"/>
</clipPath>
</defs>
</svg>
