<svg width="59" height="48" viewBox="0 0 59 48" fill="none" xmlns="http://www.w3.org/2000/svg">
<path d="M58.6229 0.728047L58.6229 13.3712C58.623 17.2757 57.9412 21.3041 56.5777 25.4565C55.1523 29.6709 53.2 33.6684 50.721 37.4489C48.18 41.2915 45.2981 44.5762 42.0753 47.3031L30.9196 40.3308C33.3986 36.4263 35.4439 32.3049 37.0552 27.9666C38.6046 23.6902 39.3793 18.8561 39.3793 13.4642L39.3793 0.728049L58.6229 0.728047ZM28.1307 0.72805L28.1307 13.3712C28.1307 17.2757 27.4489 21.3041 26.0855 25.4565C24.66 29.6709 22.7078 33.6684 20.2287 37.4489C17.6877 41.2915 14.8058 44.5762 11.583 47.3031L0.427324 40.3308C2.90637 36.4263 4.95158 32.3049 6.56296 27.9666C8.11237 23.6902 8.88707 18.8561 8.88707 13.4642L8.88707 0.728051L28.1307 0.72805Z" fill="#0063AA"/>
</svg>
