<svg width="57" height="24" viewBox="0 0 57 24" fill="none" xmlns="http://www.w3.org/2000/svg">
<path d="M-0.000141668 12C-0.000141649 11.5526 0.151432 11.1779 0.454589 10.8758C0.756694 10.5726 1.13143 10.421 1.5788 10.421L50.8025 10.4211L43.1051 2.72368C42.7893 2.40789 42.6314 2.03263 42.6314 1.59789C42.6314 1.16421 42.7893 0.789473 43.1051 0.473683C43.4209 0.157894 43.7893 -5.41216e-07 44.2104 -5.22811e-07C44.6314 -5.04406e-07 44.9998 0.157894 45.3156 0.473683L55.7367 10.8947C55.8946 11.0526 56.0067 11.2237 56.073 11.4079C56.1383 11.5921 56.1709 11.7895 56.1709 12C56.1709 12.2105 56.1383 12.4147 56.073 12.6126C56.0067 12.8095 55.8946 12.9737 55.7367 13.1053L45.3156 23.5263C44.9998 23.8421 44.6314 24 44.2104 24C43.7893 24 43.4209 23.8421 43.1051 23.5263C42.7893 23.2105 42.6314 22.8353 42.6314 22.4005C42.6314 21.9668 42.7893 21.5921 43.1051 21.2763L50.8025 13.5789L1.5788 13.5789C1.13143 13.5789 0.756694 13.4279 0.454589 13.1258C0.151431 12.8226 -0.000141688 12.4474 -0.000141668 12Z" fill="white"/>
</svg>
