<svg width="80" height="80" viewBox="0 0 80 80" fill="none" xmlns="http://www.w3.org/2000/svg">
<circle cx="40" cy="40" r="40" fill="#0063AA"/>
<g clip-path="url(#clip0_251_6904)">
<path d="M58.4393 60C57.409 59.2133 56.3708 58.4344 55.3493 57.636C54.3649 56.8669 53.3914 56.0842 52.4266 55.2906C52.1712 55.0802 51.9158 54.9912 51.5831 54.9922C46.0773 55.001 40.5714 55.001 35.0655 54.9971C32.6546 54.9951 30.6644 53.4716 30.1536 51.1223C29.9716 50.2857 30.0029 49.3904 30.0323 48.5245C30.0528 47.9061 30.6966 47.4687 31.3434 47.5029C31.954 47.5362 32.4696 48.0479 32.497 48.6654C32.5117 49.0029 32.501 49.3425 32.5019 49.68C32.5039 51.4667 33.5284 52.499 35.3043 52.499C38.3894 52.5 41.4745 52.499 44.5587 52.499C47.0968 52.499 49.635 52.5088 52.1732 52.4912C52.7133 52.4873 53.1526 52.6448 53.5665 52.9824C54.7661 53.9609 55.9814 54.9217 57.1908 55.8885C57.27 55.9521 57.3552 56.0088 57.4785 56.0979C57.4892 55.954 57.5039 55.8464 57.5039 55.7378C57.5049 48.9041 57.5059 42.0705 57.5039 35.2368C57.5039 33.6301 56.5714 32.6262 54.9745 32.4971C54.2152 32.4354 53.7182 31.8894 53.7573 31.1595C53.7925 30.4902 54.3493 30 55.0743 30C57.4305 30 59.5284 31.7818 59.9256 34.1155C59.9403 34.2035 59.9775 34.2877 60.0039 34.3728C60.0039 42.6018 60.0039 50.8307 60.0039 59.0607C59.8199 59.501 59.5039 59.8112 59.0665 59.998C58.8561 60 58.6477 60 58.4393 60Z" fill="white"/>
<path d="M20.0029 37.3318C20.0029 33.2438 20 29.1557 20.0039 25.0676C20.0059 22.6547 21.5352 20.7017 23.8738 20.1361C24.2358 20.0481 24.6184 20.008 24.9922 20.008C32.5039 20.0001 40.0157 19.9962 47.5274 20.005C50.2779 20.008 52.4912 22.2203 52.4971 24.9669C52.5069 29.9923 52.5078 35.0177 52.4971 40.0432C52.4912 42.7868 50.273 44.9923 47.5196 44.9962C41.5568 45.005 35.5939 45.0011 29.6311 44.9943C29.3405 44.9943 29.1204 45.0686 28.8953 45.2585C26.6928 47.1087 24.4804 48.9463 22.272 50.7888C21.7926 51.189 21.2808 51.4277 20.6683 51.099C20.184 50.8387 19.999 50.4111 20 49.869C20.0059 46.9003 20.0029 43.9326 20.0029 40.9639C20.0029 39.7526 20.0029 38.5422 20.0029 37.3318ZM22.5 47.2976C22.6399 47.1949 22.7231 47.1401 22.7994 47.0765C24.409 45.735 26.0245 44.3994 27.6243 43.0461C28.0626 42.6753 28.5245 42.4913 29.1116 42.4923C35.1654 42.507 41.2192 42.5031 47.274 42.5001C48.9188 42.4992 49.999 41.4571 50.001 39.8426C50.0088 34.9473 50.0088 30.052 50.001 25.1567C49.998 23.5745 48.9315 22.5031 47.3513 22.5011C39.956 22.4943 32.5616 22.4943 25.1663 22.5099C24.7505 22.5109 24.2994 22.6029 23.9247 22.779C22.8934 23.2633 22.5 24.1586 22.5 25.2614C22.501 32.4737 22.501 39.687 22.501 46.8994C22.5 47.0041 22.5 47.1078 22.5 47.2976Z" fill="white"/>
<path d="M36.2907 27.501C38.777 27.501 41.2633 27.498 43.7496 27.5029C44.3895 27.5039 44.9199 27.9736 44.9932 28.5734C45.0705 29.2045 44.7046 29.773 44.094 29.9472C43.9473 29.9892 43.7868 29.9951 43.6322 29.9951C38.7114 29.9971 33.7907 29.998 28.87 29.9961C28.051 29.9961 27.4952 29.4775 27.504 28.728C27.5118 28.002 28.0666 27.5 28.8709 27.5C31.3435 27.5 33.8171 27.501 36.2907 27.501Z" fill="white"/>
<path d="M33.7917 32.5002C35.4061 32.5002 37.0196 32.4993 38.6341 32.5012C39.4531 32.5022 40.0079 33.0208 40.0001 33.7693C39.9922 34.4944 39.4365 34.9963 38.6331 34.9973C35.3787 34.9983 32.1243 34.9983 28.8699 34.9973C28.051 34.9973 27.4962 34.4777 27.504 33.7292C27.5118 33.0042 28.0676 32.5022 28.8709 32.5012C30.5108 32.4993 32.1508 32.5002 33.7917 32.5002Z" fill="white"/>
</g>
<defs>
<clipPath id="clip0_251_6904">
<rect width="40.002" height="40" fill="white" transform="translate(20 20)"/>
</clipPath>
</defs>
</svg>
