<svg width="80" height="80" viewBox="0 0 80 80" fill="none" xmlns="http://www.w3.org/2000/svg">
<circle cx="40" cy="40" r="40" fill="#0063AA"/>
<path fill-rule="evenodd" clip-rule="evenodd" d="M20 42V38H60.0297V42H20ZM48.0208 60V56H56.0268V48H60.0297V56C60.0297 58.2 58.4035 60 56.402 60H48.0208ZM32.0089 60H23.6277C21.6262 60 20 58.2 20 56V48H24.003V56H32.0089V60ZM48.0208 20H56.402C58.4035 20 60.0297 21.8 60.0297 24V32H56.0268V24H48.0208V20ZM32.0089 20V24H24.003V32H20V24C20 21.8 21.6262 20 23.6277 20H32.0089Z" fill="white"/>
</svg>
