<svg width="62" height="62" viewBox="0 0 62 62" fill="none" xmlns="http://www.w3.org/2000/svg">
<circle cx="31" cy="31" r="31" fill="white"/>
<path d="M27.0652 46.2025C27.5193 44.5823 28.5384 43.5365 30.1733 43.0811V41.7027H29.6297C26.9971 41.7027 24.3645 41.7027 21.7306 41.7027C20.4017 41.7027 19.8313 41.139 19.8006 39.7954C19.7993 39.7152 19.7899 39.6351 19.7873 39.5964C18.9551 39.4641 18.1377 39.4027 17.359 39.1983C13.4603 38.1712 10.7663 34.4341 11.016 30.4538C11.2618 26.535 14.3792 23.1718 18.326 22.6015C18.7281 22.5441 18.7401 22.3224 18.7815 22.0325C19.5121 16.9571 22.2822 13.4416 27.0772 11.7039C32.9234 9.5856 39.3786 12.4025 42.0966 18.083C42.6977 19.3399 43.097 20.6568 43.2239 22.0472C43.252 22.3518 43.3014 22.5481 43.6914 22.6029C47.6703 23.1625 50.8545 26.6713 50.9947 30.6181C51.139 34.6945 48.2981 38.4103 44.3405 39.2825C43.6634 39.4321 42.9621 39.4735 42.2008 39.575C42.2008 39.7072 42.2035 39.8835 42.2008 40.0598C42.1861 41.0055 41.5036 41.6973 40.5566 41.7C37.8399 41.7053 35.1245 41.7013 32.4078 41.7013C32.2275 41.7013 32.0459 41.7013 31.8335 41.7013V43.0757C33.4349 43.5218 34.4727 44.5489 34.9309 46.2011H35.5172C40.2828 46.2011 45.0484 46.2011 49.8154 46.2011C49.9823 46.2011 50.1533 46.1838 50.3136 46.2158C50.7436 46.3013 50.9961 46.5725 50.9894 47.0146C50.9841 47.4326 50.737 47.6957 50.3323 47.7799C50.156 47.8173 49.9676 47.7986 49.7846 47.7986C45.0351 47.7986 40.2868 47.7986 35.5373 47.7986H34.9482C34.3405 49.7139 33.1197 50.932 31.0935 50.9721C28.9739 51.0135 27.6916 49.7807 27.0505 47.7986H26.4508C21.7012 47.7986 16.953 47.7986 12.2034 47.7986C12.0365 47.7986 11.8668 47.8146 11.7052 47.7852C11.2751 47.7064 11.0147 47.4406 11.0147 46.9972C11.0147 46.5551 11.2751 46.2893 11.7052 46.2105C11.8668 46.1811 12.0378 46.1985 12.2034 46.1971C16.953 46.1971 21.7012 46.1971 26.4508 46.1971H27.0652V46.2025ZM19.838 37.8947C19.6457 36.4803 19.9181 35.1166 19.826 33.7328C19.7205 32.1234 19.7939 30.5006 19.8046 28.8844C19.81 27.9989 20.5112 27.3043 21.4021 27.303C27.8012 27.2977 34.2016 27.2977 40.6007 27.303C41.4889 27.303 42.1848 28.0002 42.1981 28.8858C42.2102 29.619 42.2222 30.3536 42.1955 31.0856C42.1541 32.2089 42.0779 33.3321 42.0205 34.4554C42.0178 34.5182 42.0486 34.5823 42.0579 34.6464C42.106 35.0057 42.1835 35.3637 42.1941 35.7243C42.2155 36.4349 42.2008 37.1481 42.2008 37.9321C42.7177 37.8854 43.1785 37.8653 43.6326 37.7972C47.4259 37.2216 50.1012 33.2707 49.2304 29.5429C48.4971 26.4041 45.8017 24.1936 42.5962 24.1015C41.9818 24.0841 41.724 23.8236 41.6973 23.2213C41.6799 22.8219 41.6532 22.4225 41.6091 22.0259C41.0522 16.9824 36.4989 12.7631 31.4488 12.6055C25.4571 12.4185 20.4364 17.1788 20.3015 23.1732C20.2868 23.8196 20.0317 24.0828 19.3999 24.1001C16.4762 24.1829 13.9304 26.0542 12.9714 28.8243C12.0431 31.5023 12.8846 34.418 15.1485 36.2986C16.4775 37.4032 18.0122 37.9401 19.8367 37.8934L19.838 37.8947ZM21.4261 33.6674H40.562V28.9245H21.4261V33.6674ZM40.5633 40.0825V35.3249H21.4328V40.0825H40.5633ZM28.6039 46.9812C28.5945 48.2714 29.6818 49.3853 30.9693 49.4014C32.2609 49.4174 33.3775 48.3369 33.4002 47.048C33.4229 45.735 32.321 44.6077 31.0107 44.6037C29.7205 44.5997 28.6146 45.6936 28.6039 46.9812Z" fill="#0063AA"/>
<path d="M24.9663 32.478H22.6289V30.1406H24.9663V32.478Z" fill="#0063AA"/>
<path d="M26.6445 30.1172H28.9699V32.4706H26.6445V30.1172Z" fill="#0063AA"/>
<path d="M24.978 36.5312V38.8726H22.6406V36.5312H24.978Z" fill="#0063AA"/>
<path d="M26.6445 36.5156H28.9726V38.8704H26.6445V36.5156Z" fill="#0063AA"/>
</svg>
