<svg width="56" height="56" viewBox="0 0 56 56" fill="none" xmlns="http://www.w3.org/2000/svg">
<circle cx="28" cy="28" r="27.5" fill="#0063AA" stroke="white"/>
<g clip-path="url(#clip0_251_7300)">
<path d="M12 39.3303C12 30.9693 12 22.6084 12 14.257C12.281 13.3238 12.9065 13 13.813 13C22.0714 13.019 30.3297 13.0095 38.5881 13.0095C38.7241 13.0095 38.8601 13.0095 38.996 13.019C39.8028 13.0857 40.3558 13.7047 40.3739 14.5522C40.383 14.9807 40.3739 15.4092 40.3739 15.8282C40.3739 16.152 40.3739 16.4758 40.3739 16.8091C41.0901 16.8091 41.7518 16.8091 42.4227 16.8091C43.4017 16.8186 44 17.4471 44 18.4756C44 25.2462 44.0091 32.0168 43.9909 38.7875C43.9909 39.2255 43.9184 39.6921 43.7915 40.1016C43.2839 41.7014 41.9059 42.6632 40.2017 42.6632C32.0703 42.6632 23.9388 42.6632 15.7983 42.6632C15.6714 42.6632 15.5445 42.6632 15.4266 42.6537C13.9127 42.568 12.5892 41.4729 12.1541 39.9492C12.0997 39.7493 12.0544 39.5398 12 39.3303ZM40.3739 18.3422C40.3739 18.466 40.3739 18.5517 40.3739 18.6374C40.3739 24.9319 40.3739 31.2169 40.3739 37.5114C40.3739 37.9685 40.4193 38.0161 40.8816 38.1304C41.2533 38.2256 41.4708 38.5304 41.4436 38.9208C41.4164 39.2922 41.1626 39.5683 40.8 39.5969C40.6278 39.6064 40.4465 39.5969 40.2742 39.5493C39.404 39.3017 38.9235 38.578 38.9235 37.5209C38.9235 30.0075 38.9235 22.4941 38.9235 14.9712C38.9235 14.8284 38.9235 14.695 38.9235 14.5427C30.4113 14.5427 21.9445 14.5427 13.4504 14.5427C13.4414 14.6665 13.4323 14.7712 13.4323 14.876C13.4323 22.8084 13.4323 30.7408 13.4323 38.6732C13.4323 40.1778 14.3479 41.1491 15.7711 41.1491C23.9116 41.1491 32.0612 41.1491 40.2017 41.1491C41.6249 41.1491 42.5405 40.1778 42.5405 38.6732C42.5405 32.0073 42.5405 25.3509 42.5405 18.6851C42.5405 18.5708 42.5314 18.4565 42.5224 18.3422C41.7972 18.3422 41.1082 18.3422 40.3739 18.3422Z" fill="white"/>
<path d="M20.7125 21.3828C21.8547 21.3828 23.0059 21.3828 24.1481 21.3828C24.8462 21.3828 25.1 21.659 25.1 22.3922C25.1 24.7919 25.1 27.1821 25.1 29.5819C25.1 30.3056 24.828 30.5817 24.13 30.5817C21.8456 30.5817 19.5702 30.5817 17.2858 30.5817C16.6059 30.5817 16.334 30.3056 16.334 29.6009C16.334 27.1917 16.334 24.7919 16.334 22.3827C16.334 21.6399 16.5787 21.3828 17.304 21.3828C18.4462 21.3828 19.5793 21.3828 20.7125 21.3828ZM17.8116 29.0391C19.7697 29.0391 21.6915 29.0391 23.6314 29.0391C23.6314 26.9917 23.6314 24.9633 23.6314 22.9255C21.6824 22.9255 19.7515 22.9255 17.8116 22.9255C17.8116 24.9729 17.8116 26.9917 17.8116 29.0391Z" fill="white"/>
<path d="M26.1867 17.5781C29.1238 17.5781 32.0609 17.5781 34.9981 17.5781C35.1522 17.5781 35.3153 17.5781 35.4604 17.6067C35.7777 17.6638 36.0043 17.959 36.0224 18.3019C36.0405 18.6351 35.832 18.9589 35.5238 19.0446C35.3879 19.0827 35.2337 19.1018 35.0887 19.1018C29.151 19.1018 23.2224 19.1018 17.2847 19.1018C16.6592 19.1018 16.3238 18.797 16.3601 18.2733C16.3873 17.9305 16.6139 17.6543 16.9403 17.6067C17.0853 17.5876 17.2303 17.5876 17.3754 17.5876C20.3125 17.5781 23.2496 17.5781 26.1867 17.5781Z" fill="white"/>
<path d="M31.6268 26.7033C30.4756 26.7033 29.3152 26.7033 28.1639 26.7033C27.5747 26.7033 27.2484 26.3605 27.3027 25.8463C27.339 25.5225 27.5475 25.2749 27.8557 25.2178C27.9917 25.1892 28.1277 25.1797 28.2546 25.1797C30.5209 25.1797 32.7962 25.1797 35.0625 25.1797C35.3617 25.1797 35.6518 25.1892 35.8603 25.4558C36.2047 25.8939 35.9962 26.5414 35.4614 26.6652C35.3164 26.6938 35.1713 26.7033 35.0263 26.7033C33.8931 26.7033 32.76 26.7033 31.6268 26.7033Z" fill="white"/>
<path d="M31.6352 30.5002C30.4658 30.5002 29.3055 30.5097 28.1361 30.5002C27.5378 30.5002 27.2114 30.1288 27.3021 29.5955C27.3474 29.2908 27.5287 29.1099 27.8007 29.0242C27.9457 28.9766 28.1089 28.9766 28.263 28.9766C30.5202 28.9766 32.7774 28.9766 35.0437 28.9766C35.6873 28.9766 36.0318 29.2527 36.0227 29.7574C36.0137 30.2526 35.6783 30.5002 35.0437 30.5097C33.9106 30.5002 32.7774 30.5002 31.6352 30.5002Z" fill="white"/>
<path d="M31.6532 21.3828C32.8226 21.3828 33.9829 21.3828 35.1523 21.3828C35.6781 21.3828 35.9773 21.6304 36.0135 22.078C36.0407 22.4494 35.8322 22.7731 35.4877 22.8588C35.3608 22.8874 35.2248 22.9064 35.0889 22.9064C32.7954 22.9064 30.511 22.916 28.2175 22.8969C27.9999 22.8969 27.7642 22.8303 27.5739 22.716C27.3019 22.5541 27.2384 22.2494 27.311 21.9447C27.3835 21.659 27.5648 21.4685 27.8458 21.4114C27.9909 21.3828 28.1359 21.3828 28.2809 21.3828C29.405 21.3828 30.5291 21.3828 31.6532 21.3828Z" fill="white"/>
<path d="M31.6537 34.2994C30.4843 34.2994 29.324 34.2994 28.1546 34.2994C27.6288 34.2994 27.3296 34.0519 27.2934 33.6043C27.2662 33.2329 27.4747 32.9091 27.8192 32.8234C27.9551 32.7853 28.1093 32.7758 28.2543 32.7758C30.5206 32.7758 32.7959 32.7663 35.0622 32.7853C35.2888 32.7853 35.5427 32.852 35.7421 32.9663C36.0141 33.1282 36.0775 33.4329 35.9959 33.7376C35.9234 34.0233 35.7421 34.2137 35.4611 34.2709C35.316 34.2994 35.171 34.2994 35.026 34.2994C33.9019 34.2994 32.7778 34.2994 31.6537 34.2994Z" fill="white"/>
<path d="M20.7204 38.1018C19.551 38.1018 18.3907 38.1018 17.2213 38.1018C16.9131 38.1018 16.6411 38.0351 16.4689 37.7399C16.215 37.3304 16.4145 36.7591 16.8677 36.6353C17.0128 36.5972 17.176 36.5781 17.3301 36.5781C19.5963 36.5781 21.8717 36.5781 24.138 36.5781C24.2921 36.5781 24.4553 36.5972 24.6003 36.6353C24.9085 36.721 25.117 37.0447 25.0989 37.378C25.0808 37.7208 24.8541 38.0065 24.5369 38.0732C24.4009 38.1018 24.2649 38.1018 24.1289 38.1018C22.9867 38.1018 21.8536 38.1018 20.7204 38.1018Z" fill="white"/>
<path d="M31.6336 38.1001C30.4642 38.1001 29.3039 38.1001 28.1345 38.1001C27.6178 38.1001 27.3095 37.8429 27.2823 37.3954C27.2642 37.043 27.4727 36.7288 27.7991 36.6336C27.9169 36.605 28.0438 36.5859 28.1707 36.5859C30.4914 36.5859 32.8121 36.5859 35.1328 36.5859C35.2778 36.5859 35.4228 36.605 35.5588 36.6526C35.8489 36.7478 36.0302 37.0716 36.0121 37.3954C35.9849 37.7382 35.7583 38.0239 35.441 38.0715C35.2325 38.1001 35.024 38.1001 34.8155 38.1001C33.7549 38.1001 32.6942 38.1001 31.6336 38.1001Z" fill="white"/>
<path d="M20.7219 34.3049C19.5525 34.3049 18.3922 34.3049 17.2228 34.3049C16.7061 34.3049 16.4069 34.0668 16.3616 33.6478C16.3163 33.2383 16.5248 32.9146 16.9146 32.8289C17.0324 32.8003 17.1593 32.7812 17.2862 32.7812C19.5797 32.7812 21.8641 32.7812 24.1576 32.7812C24.7197 32.7812 25.0188 33.0003 25.0732 33.4478C25.1276 33.8573 24.8828 34.2287 24.493 34.2668C24.1304 34.3049 23.7678 34.2953 23.4052 34.2953C22.5168 34.3049 21.6194 34.3049 20.7219 34.3049Z" fill="white"/>
</g>
<defs>
<clipPath id="clip0_251_7300">
<rect width="32" height="29.6727" fill="white" transform="translate(12 13)"/>
</clipPath>
</defs>
</svg>
