<svg width="24" height="25" viewBox="0 0 24 25" fill="none" xmlns="http://www.w3.org/2000/svg">
<path d="M2.43457 11.8844C2.47008 14.3734 3.16745 16.3809 4.5836 18.1387C6.02794 19.9309 7.89115 21.0443 10.1208 21.5477C10.9698 21.7394 11.8448 21.7952 12.7118 21.7225C14.7013 21.5556 16.4901 20.8678 18.0557 19.6056C19.2463 18.6455 20.1602 17.4723 20.7983 16.0934C21.2392 15.1407 21.5301 14.1372 21.5994 13.079C21.6276 12.6528 21.6637 12.2266 21.7116 11.8021C21.7584 11.3844 22.0341 11.1233 22.3983 10.9909C22.8171 10.8386 23.236 10.8742 23.612 11.1622C24.0551 11.5022 24.01 11.9802 23.9858 12.447C23.9666 12.818 23.917 13.1872 23.8798 13.5576C23.7631 14.7105 23.4423 15.8087 22.9953 16.8736C22.5821 17.8574 22.0352 18.7645 21.3728 19.5943C20.4116 20.7979 19.2627 21.7935 17.9232 22.567C16.993 23.1043 16.0137 23.5265 14.9725 23.7712C14.2543 23.9403 13.5146 24.0237 12.7806 24.119C12.3933 24.1692 11.997 24.1929 11.6069 24.1754C10.1056 24.1072 8.6511 23.8197 7.26088 23.2249C6.24499 22.7903 5.3007 22.2355 4.4483 21.5421C3.61338 20.8633 2.87091 20.0876 2.25078 19.1991C1.38147 17.9527 0.732025 16.6036 0.384188 15.1243C0.225773 14.4512 0.137827 13.7589 0.0589013 13.0705C-0.130521 11.4148 0.153048 9.80978 0.678468 8.24762C1.15653 6.82639 1.88772 5.5399 2.86246 4.39266C3.97024 3.08813 5.27364 2.03616 6.8172 1.29257C8.01123 0.717536 9.26108 0.320089 10.5859 0.19268C11.1418 0.139123 11.701 0.0759827 12.2574 0.0872578C13.1572 0.105298 14.0468 0.230452 14.9251 0.443551C15.4353 0.567014 15.8142 0.813375 15.9557 1.33598C16.1096 1.90481 15.5825 2.81809 14.8513 2.8023C14.3625 2.79159 13.8771 2.66306 13.3872 2.63712C12.6182 2.59653 11.8465 2.57737 11.0758 2.58695C10.3198 2.59653 9.592 2.78877 8.88111 3.03513C7.73612 3.43202 6.71291 4.02847 5.80244 4.83915C4.73525 5.78908 3.88285 6.88615 3.28978 8.18673C2.93067 8.9743 2.67698 9.79287 2.5631 10.6503C2.4994 11.1374 2.46106 11.629 2.43457 11.8844Z" fill="#0AAC07"/>
<path d="M12.0456 13.8954C12.443 13.4523 12.8456 13.0109 13.2391 12.5621C13.694 12.0435 14.1399 11.5163 14.5915 10.9949C15.1902 10.3031 15.7901 9.61254 16.3916 8.92307C16.8274 8.42358 17.2688 7.92917 17.7046 7.42968C18.2999 6.74754 18.8947 6.06483 19.4855 5.3793C19.7854 5.0309 20.2567 4.88996 20.7443 5.08333C21.6418 5.4385 21.8504 6.37208 21.2128 7.09368C20.2725 8.15749 19.34 9.2275 18.4047 10.2952C17.6234 11.1877 16.8409 12.0795 16.0623 12.9748C15.0882 14.095 14.1225 15.2225 13.1415 16.3359C12.9177 16.5896 12.6979 16.8512 12.3156 16.9239C11.8917 17.0045 11.5416 16.9222 11.2434 16.6251C10.0116 15.3984 8.7899 14.1615 7.55077 12.9421C7.13415 12.5322 7.11949 11.7272 7.5953 11.2615C8.04574 10.8207 8.83613 10.8241 9.25725 11.2384C10.166 12.132 11.1013 12.9985 12.0456 13.8954Z" fill="#0AAC07"/>
</svg>
