<svg width="59" height="48" viewBox="0 0 59 48" fill="none" xmlns="http://www.w3.org/2000/svg">
<path d="M0.377043 47.272V34.6288C0.377043 30.7243 1.05878 26.6959 2.42226 22.5435C3.84771 18.3291 5.79996 14.3316 8.27901 10.5511C10.82 6.70855 13.7019 3.42381 16.9247 0.696859L28.0804 7.66918C25.6013 11.5737 23.5561 15.6951 21.9448 20.0334C20.3953 24.3098 19.6206 29.1439 19.6206 34.5359V47.272H0.377043ZM30.8693 47.272V34.6288C30.8693 30.7243 31.5511 26.6959 32.9145 22.5435C34.34 18.3291 36.2922 14.3316 38.7713 10.5511C41.3123 6.70855 44.1942 3.42381 47.417 0.696859L58.5727 7.66918C56.0936 11.5737 54.0484 15.6951 52.437 20.0334C50.8876 24.3098 50.1129 29.1439 50.1129 34.5359V47.272H30.8693Z" fill="#0063AA"/>
</svg>
