<svg width="62" height="62" viewBox="0 0 62 62" fill="none" xmlns="http://www.w3.org/2000/svg">
<circle cx="31" cy="31" r="31" fill="white"/>
<path d="M32.0228 41.802V44.1548H33.4275C34.5736 44.1548 35.1467 44.7352 35.1467 45.8959V47.423H48.453V48.9959H35.1467C35.1467 49.708 35.1489 50.3569 35.1467 51.0057C35.1424 51.7528 34.8977 51.9975 34.1396 51.9975C32.1954 51.9997 30.2511 52.0018 28.3068 51.9975C27.551 51.9975 27.3085 51.7506 27.3041 51.0013C27.3019 50.3525 27.3041 49.7037 27.3041 49.0133H14V47.4579H27.3041C27.3041 46.6518 27.3041 45.9047 27.3041 45.1576C27.3063 44.3908 27.5313 44.1614 28.2915 44.157C28.9906 44.1526 29.6897 44.157 30.4149 44.157V41.8042H29.8513C25.9781 41.8042 22.1048 41.8042 18.2337 41.8042C17.3162 41.8042 17.1108 41.5989 17.1108 40.6835C17.1108 38.7873 17.1108 36.8933 17.1108 34.9971C17.1108 34.1757 17.3271 33.9616 18.1616 33.9616C22.0349 33.9616 25.9081 33.9616 29.7792 33.9616H30.404V30.8245H29.8382C25.9649 30.8245 22.0917 30.8245 18.2206 30.8245C17.3271 30.8245 17.1108 30.6126 17.1108 29.7388C17.1108 27.8098 17.1108 25.883 17.1108 23.954C17.1108 23.2222 17.3468 22.9841 18.0764 22.9819C21.9825 22.9797 25.8885 22.9819 29.7923 22.9819C29.9868 22.9819 30.179 22.9819 30.4084 22.9819V19.8448H29.8229C25.9671 19.8448 22.1092 19.8448 18.2534 19.8448C17.3053 19.8448 17.1087 19.6482 17.1087 18.6957C17.1087 16.817 17.1087 14.9383 17.1087 13.0595C17.1065 12.2185 17.3184 12 18.1354 12C26.8606 12 35.588 12 44.3132 12C45.115 12 45.3422 12.2228 45.3422 13.0071C45.3422 14.9514 45.3444 16.8956 45.3422 18.8399C45.3422 19.5914 45.0975 19.8405 44.3438 19.8405C40.4378 19.8426 36.5318 19.8405 32.6279 19.8405C32.4379 19.8405 32.2456 19.8405 32.0315 19.8405V22.9775H32.6126C36.5012 22.9775 40.3919 22.9775 44.2805 22.9775C45.1368 22.9775 45.3422 23.1872 45.3444 24.0501C45.3444 25.9136 45.3444 27.7749 45.3444 29.6383C45.3444 30.6301 45.1565 30.8202 44.1822 30.8202C40.3417 30.8202 36.5012 30.8202 32.6607 30.8202H32.0424V33.9572H32.6279C36.5012 33.9572 40.3744 33.9572 44.2455 33.9572C45.1412 33.9572 45.3422 34.156 45.3422 35.0451C45.3422 36.9566 45.3422 38.8682 45.3422 40.7797C45.3422 41.5596 45.1019 41.7977 44.3132 41.7977C40.4247 41.7977 36.5361 41.7977 32.6454 41.7977H32.0206L32.0228 41.802ZM18.699 18.2392H43.7518V13.5947H18.699V18.2392ZM43.7496 24.5832H18.7165V29.2276H43.7496V24.5832ZM18.6968 40.1964H43.7496V35.5563H18.6968V40.1964ZM33.5542 50.4093V45.7518H28.9054V50.4093H33.5542Z" fill="#0063AA"/>
<path d="M32.8164 16.6714V15.1641H42.1795V16.6714H32.8164Z" fill="#0063AA"/>
<path d="M21.0399 15.1429C21.4987 15.1495 21.8024 15.4509 21.8089 15.9053C21.8133 16.3707 21.4769 16.7093 21.0137 16.7005C20.5506 16.6918 20.2273 16.3466 20.2469 15.8769C20.2644 15.4269 20.5812 15.1342 21.0421 15.1407L21.0399 15.1429Z" fill="#0063AA"/>
<path d="M23.385 15.9278C23.3763 15.4734 23.6777 15.1566 24.1278 15.1413C24.6105 15.1239 24.9404 15.4297 24.947 15.9016C24.9535 16.3669 24.6171 16.7077 24.154 16.7011C23.7083 16.6946 23.3916 16.3756 23.3828 15.93L23.385 15.9278Z" fill="#0063AA"/>
<path d="M28.0841 15.8889C28.0972 16.3542 27.7652 16.6993 27.302 16.6993C26.8586 16.6993 26.5331 16.3848 26.52 15.9391C26.5068 15.4847 26.8018 15.1614 27.2518 15.1417C27.7346 15.1199 28.071 15.4214 28.0819 15.8889H28.0841Z" fill="#0063AA"/>
<path d="M42.1816 26.1484V27.658H32.8359V26.1484H42.1816Z" fill="#0063AA"/>
<path d="M21.0476 26.1213C21.5042 26.13 21.8079 26.4359 21.8101 26.8902C21.8101 27.3556 21.4715 27.692 21.0105 27.6811C20.567 27.6701 20.2525 27.349 20.2481 26.9012C20.2437 26.4293 20.5692 26.1125 21.0476 26.1213Z" fill="#0063AA"/>
<path d="M24.9468 26.9059C24.9402 27.369 24.5907 27.7011 24.1319 27.6814C23.6885 27.6618 23.3804 27.3341 23.3848 26.8862C23.3892 26.4144 23.7191 26.1063 24.1997 26.1216C24.6519 26.1369 24.9533 26.4515 24.9468 26.9059Z" fill="#0063AA"/>
<path d="M28.0838 26.9198C28.0707 27.3655 27.7452 27.68 27.3018 27.68C26.8386 27.68 26.5088 27.3371 26.5219 26.8696C26.535 26.3999 26.8692 26.0984 27.3542 26.1224C27.8042 26.1443 28.0991 26.4654 28.086 26.922L28.0838 26.9198Z" fill="#0063AA"/>
<path d="M42.1834 37.1328V38.6402H32.8203V37.1328H42.1834Z" fill="#0063AA"/>
<path d="M21.0129 37.1017C21.4935 37.0951 21.8147 37.4119 21.8081 37.8859C21.8016 38.3316 21.4848 38.6527 21.0413 38.6615C20.5782 38.6702 20.2418 38.3338 20.2461 37.8663C20.2505 37.4119 20.5563 37.1082 21.0129 37.1017Z" fill="#0063AA"/>
<path d="M24.9468 37.8909C24.9381 38.354 24.5864 38.6839 24.1276 38.6621C23.6842 38.6402 23.3783 38.3125 23.3849 37.8625C23.3914 37.3928 23.7213 37.0848 24.2041 37.1023C24.6563 37.1176 24.9556 37.4343 24.9468 37.8887V37.8909Z" fill="#0063AA"/>
<path d="M27.3122 38.6592C26.8491 38.6635 26.5149 38.3228 26.5236 37.8574C26.5323 37.4052 26.8404 37.1038 27.2969 37.1016C27.7579 37.0994 28.0703 37.3943 28.0856 37.8443C28.1009 38.3118 27.7732 38.657 27.3101 38.6614L27.3122 38.6592Z" fill="#0063AA"/>
</svg>
