<svg width="56" height="56" viewBox="0 0 56 56" fill="none" xmlns="http://www.w3.org/2000/svg">
<circle cx="28" cy="28" r="27.5" fill="#0063AA" stroke="white"/>
<g clip-path="url(#clip0_415_539)">
<path d="M40.2497 39.6724C40.2497 40.2096 40.2497 40.6766 40.2497 41.1386C40.2497 41.4047 40.2548 41.6708 40.2447 41.9369C40.2347 42.193 40.1493 42.419 39.8982 42.5395C39.6422 42.66 39.4012 42.6198 39.1802 42.4441C38.8137 42.1528 38.4471 41.8666 38.0856 41.5754C37.3927 41.0231 36.7048 40.4557 35.9968 39.9234C35.8361 39.8029 35.6001 39.7226 35.3993 39.7176C31.4325 39.7075 27.4658 39.7075 23.5041 39.7075C22.8513 39.7075 22.2237 39.6121 21.6814 39.2054C21.1692 38.8188 20.878 38.3166 20.873 37.6739C20.868 34.7968 20.8629 31.9197 20.873 29.0425C20.878 27.973 21.7517 27.1345 22.9216 27.019C23.0672 27.0039 23.2078 27.0039 23.3535 27.0039C29.409 27.0039 35.4595 27.0039 41.5151 27.0039C42.0975 27.0039 42.6348 27.1244 43.1218 27.4608C43.6892 27.8575 43.9905 28.3998 43.9955 29.0927C44.0006 31.9347 44.0056 34.7817 43.9955 37.6237C43.9905 38.7133 43.1218 39.592 41.977 39.6724C41.4146 39.7075 40.8523 39.6724 40.2497 39.6724ZM38.9995 40.7017C38.9995 40.1142 38.9894 39.6171 39.0045 39.12C39.0145 38.7133 39.2455 38.4874 39.6522 38.4673C39.7978 38.4623 39.9434 38.4673 40.084 38.4623C40.7067 38.4472 41.3293 38.4572 41.9469 38.402C42.449 38.3568 42.7402 38.0355 42.7402 37.6187C42.7453 34.7767 42.7402 31.9347 42.7453 29.0877C42.7453 28.7864 42.6197 28.5504 42.3536 28.455C42.0674 28.3496 41.7561 28.2642 41.4598 28.2642C35.4495 28.2542 29.4441 28.2542 23.4338 28.2592C23.2681 28.2592 23.0974 28.2542 22.9367 28.2944C22.3442 28.44 22.1182 28.696 22.1233 29.2434C22.1383 31.9849 22.1383 34.7315 22.1233 37.4731C22.1182 37.9802 22.299 38.2614 22.9066 38.407C23.1074 38.4572 23.3233 38.4623 23.5342 38.4623C27.511 38.4673 31.4878 38.4723 35.4595 38.4572C35.9667 38.4572 36.3734 38.5777 36.76 38.9091C37.463 39.5117 38.2061 40.069 38.9995 40.7017Z" fill="white"/>
<path d="M15.7408 25.6793C15.1433 25.6793 14.5759 25.7094 14.0135 25.6743C12.7582 25.5889 12 24.7504 12 23.49C12 21.0799 12 18.6697 12 16.2595C12 14.944 12.7833 14.1105 14.1089 14.0151C14.2545 14.005 14.3951 14.005 14.5407 14.005C20.5511 14.005 26.5614 14.005 32.5718 14C33.2597 14 33.8974 14.1306 34.4447 14.5674C34.9066 14.9339 35.1276 15.431 35.1276 16.0185C35.1276 18.5743 35.1326 21.1301 35.1276 23.6859C35.1225 24.7353 34.3041 25.5638 33.1794 25.6743C32.9032 25.6994 32.627 25.7144 32.3458 25.7144C28.4243 25.7194 24.5027 25.7144 20.5812 25.7245C20.3703 25.7245 20.1243 25.8048 19.9485 25.9303C18.9292 26.6484 17.925 27.3865 16.9208 28.1196C16.6697 28.3054 16.4086 28.456 16.0923 28.3003C15.7609 28.1397 15.7307 27.8334 15.7358 27.502C15.7458 26.9195 15.7408 26.332 15.7408 25.6793ZM16.9961 26.5178C17.8497 25.8952 18.643 25.3278 19.4263 24.7453C19.6874 24.5495 19.9586 24.4641 20.285 24.4641C24.3521 24.4742 28.4142 24.4692 32.4814 24.4641C32.7124 24.4641 32.9534 24.4591 33.1743 24.3989C33.5861 24.2884 33.8823 24.1177 33.8773 23.5503C33.8572 21.105 33.8673 18.6647 33.8673 16.2194C33.8673 15.6369 33.6212 15.3557 33.0337 15.2804C32.858 15.2603 32.6772 15.2553 32.5015 15.2553C26.5363 15.2553 20.5712 15.2553 14.611 15.2553C14.4353 15.2553 14.2545 15.2503 14.0788 15.2804C13.6218 15.3658 13.2252 15.5264 13.2352 16.2143C13.2653 18.6346 13.2653 21.0548 13.2352 23.48C13.2252 24.1428 13.5465 24.3637 14.0637 24.4089C14.7466 24.4692 15.4395 24.4541 16.1274 24.4641C16.7952 24.4742 16.9911 24.67 16.9961 25.3479C17.0011 25.7094 16.9961 26.0759 16.9961 26.5178Z" fill="white"/>
<path d="M32.4059 30.8599C34.7156 30.8599 37.0254 30.8599 39.3351 30.8599C39.4556 30.8599 39.5812 30.8549 39.7017 30.875C40.008 30.9202 40.2239 31.1612 40.2339 31.4625C40.2439 31.7688 40.0481 32.0198 39.7368 32.0751C39.5962 32.1002 39.4506 32.1052 39.305 32.1052C34.7206 32.1052 30.1313 32.1052 25.5469 32.1052C25.4013 32.1052 25.2557 32.1002 25.1151 32.07C24.8289 32.0148 24.623 31.7587 24.623 31.4826C24.623 31.1913 24.844 30.9252 25.1402 30.875C25.2708 30.8549 25.4064 30.8599 25.5369 30.8599C27.8266 30.8599 30.1162 30.8599 32.4059 30.8599Z" fill="white"/>
<path d="M32.441 34.6066C34.7508 34.6066 37.0605 34.6066 39.3702 34.6066C39.5108 34.6066 39.6615 34.6066 39.797 34.6468C40.0883 34.7321 40.2339 34.948 40.2289 35.2443C40.2188 35.5255 40.0732 35.7313 39.797 35.8066C39.6615 35.8418 39.5108 35.8569 39.3702 35.8569C34.7508 35.8569 30.1313 35.8569 25.5068 35.8569C25.4867 35.8569 25.4616 35.8569 25.4415 35.8569C24.9293 35.8518 24.623 35.6108 24.623 35.2242C24.623 34.8325 24.9293 34.6016 25.4465 34.6016C27.7763 34.6016 30.1112 34.6066 32.441 34.6066Z" fill="white"/>
<path d="M23.5993 21.94C21.3447 21.94 19.0902 21.94 16.8357 21.94C16.7704 21.94 16.7001 21.94 16.6349 21.94C16.1177 21.935 15.8164 21.699 15.8164 21.3073C15.8164 20.9207 16.1227 20.6797 16.6399 20.6797C21.2945 20.6797 25.9492 20.6797 30.6038 20.6797C30.7444 20.6797 30.895 20.6948 31.0306 20.7349C31.2917 20.8203 31.4223 21.0211 31.4273 21.2923C31.4323 21.5584 31.3118 21.7743 31.0557 21.8647C30.9051 21.9199 30.7293 21.93 30.5636 21.93C28.2439 21.94 25.9241 21.94 23.5993 21.94Z" fill="white"/>
<path d="M24.7703 18.9551C22.9074 18.9551 21.0395 18.9551 19.1767 18.9551C19.0763 18.9551 18.9758 18.9601 18.8754 18.9501C18.4838 18.93 18.2227 18.6789 18.2227 18.3375C18.2227 17.996 18.4787 17.75 18.8754 17.7199C18.9758 17.7148 19.0763 17.7148 19.1767 17.7148C22.9275 17.7148 26.6833 17.7148 30.4342 17.7148C30.5798 17.7148 30.7254 17.7148 30.866 17.7399C31.1723 17.7902 31.3681 18.0412 31.3631 18.3525C31.3581 18.6588 31.1472 18.8998 30.8359 18.94C30.7053 18.9551 30.5697 18.9551 30.4392 18.9551C28.5462 18.9551 26.6582 18.9551 24.7703 18.9551Z" fill="white"/>
<path d="M16.9903 18.3283C16.9953 18.6597 16.7242 18.9408 16.3878 18.9509C16.0363 18.9609 15.745 18.6747 15.7501 18.3333C15.7551 18.0019 16.0363 17.7307 16.3727 17.7307C16.7041 17.7207 16.9853 17.9918 16.9903 18.3283Z" fill="white"/>
</g>
<defs>
<clipPath id="clip0_415_539">
<rect width="32" height="28.6107" fill="white" transform="translate(12 14)"/>
</clipPath>
</defs>
</svg>
