<svg width="80" height="81" viewBox="0 0 80 81" fill="none" xmlns="http://www.w3.org/2000/svg">
<path d="M40 80.0857C62.0914 80.0857 80 62.1579 80 40.0429C80 17.9278 62.0914 0 40 0C17.9086 0 0 17.9278 0 40.0429C0 62.1579 17.9086 80.0857 40 80.0857Z" fill="#FE9900"/>
<path d="M25.578 43.215C25.2904 42.6145 25.1589 42.1044 25.3151 41.5614C25.537 40.7716 26.1862 40.1957 26.9422 40.1217C27.8462 40.0394 28.5941 40.4426 28.9639 41.2406C29.1365 41.6108 29.2844 42.0057 29.4323 42.3841C29.5803 42.7543 29.7282 43.1245 29.8761 43.503C30.361 43.1163 30.4267 42.6391 30.3445 42.0715C30.024 39.9654 30.2048 37.9087 31.0102 35.9095C31.3143 35.1609 31.5937 34.3711 31.6677 33.5813C31.7827 32.3966 31.7909 31.1873 31.7087 29.9944C31.4869 26.7447 32.473 24.0134 35.0206 21.932C40.1159 17.7692 48.0299 20.7062 49.2133 27.1808C49.4763 28.6205 49.3037 30.0437 49.2544 31.467C49.1969 32.9232 49.3777 34.3299 49.9529 35.6709C50.8487 37.7606 51.0624 39.916 50.7172 42.1455C50.6515 42.5568 50.6926 42.9188 50.9555 43.3055C51.2678 43.7662 51.4486 44.3092 51.6869 44.8275C51.7527 44.9591 51.802 45.099 51.8677 45.1072C52.9032 44.9097 53.9305 44.7041 54.966 44.5231C56.2069 44.301 57.4643 44.1035 58.7052 43.8896C59.4037 43.7662 59.7078 44.0048 59.7078 44.6959C59.7078 48.3404 59.7078 51.9767 59.716 55.6212C59.716 56.0079 59.5928 56.2876 59.2147 56.4274C59.1408 56.4603 59.0586 56.5591 59.0339 56.6496C58.8614 57.2583 58.4751 57.6121 57.8505 57.7108C57.415 57.7766 56.9876 57.8589 56.5521 57.9247C56.3137 57.9576 56.174 58.0481 56.059 58.2785C55.533 59.2657 54.703 59.784 53.5771 59.7429C52.4841 59.7017 51.7034 59.1505 51.2432 58.1715C51.1035 57.8589 50.9391 57.7355 50.6022 57.7602C49.5009 57.8589 48.4572 57.4805 47.3889 57.3077C47.3231 57.2995 47.2574 57.2913 47.1588 57.2748C47.1588 58.0893 47.1588 58.8873 47.1588 59.7182C46.715 59.7182 46.3041 59.7182 45.8274 59.7182C45.8274 58.9613 45.811 58.1962 45.8357 57.4311C45.8521 57.0856 45.7453 56.9622 45.4001 56.9046C44.6523 56.7894 43.9208 56.6166 43.1812 56.4521C42.6635 56.3369 42.5238 56.1559 42.5238 55.6212C42.5238 52.931 42.5238 50.2408 42.5238 47.5506C42.5238 47.4025 42.5238 47.2462 42.5238 46.9665C42.3758 47.2051 42.2854 47.3449 42.2115 47.4848C41.8745 48.1018 41.5376 48.7188 41.2089 49.3358C41.0609 49.6073 40.8801 49.813 40.5432 49.813C40.2063 49.813 40.0255 49.6073 39.8775 49.3358C38.7106 47.1804 37.5272 45.0332 36.3684 42.8777C36.2205 42.6062 36.0643 42.5075 35.7603 42.524C34.9795 42.5651 34.1824 42.5157 33.4099 42.6144C32.2676 42.7625 31.4375 43.4372 30.9609 44.482C30.6157 45.2471 30.3281 46.0369 30.0158 46.8184C29.9829 46.9089 29.9501 46.9994 29.9501 47.0981C29.9501 49.6649 29.9501 52.2235 29.9501 54.889C30.0569 54.7327 30.1226 54.6586 30.1637 54.5764C31.0924 52.857 32.0375 51.1458 32.925 49.4099C33.3359 48.6119 33.6729 47.7809 34.3139 47.131C34.47 46.9747 34.6262 46.8349 34.807 46.6621C35.1028 47.0076 35.374 47.3367 35.6616 47.6822C35.0371 48.2499 34.5522 48.8916 34.2974 49.6814C33.829 51.154 34.0098 52.5361 34.922 53.7948C35.1439 54.1074 35.2425 54.4036 35.2343 54.7821C35.2179 56.2711 35.2261 57.7602 35.2261 59.2493C35.2261 59.3973 35.2261 59.5454 35.2261 59.7182C34.7905 59.7182 34.3796 59.7182 33.903 59.7182C33.903 59.5866 33.903 59.4385 33.903 59.2986C33.903 57.9083 33.9112 56.5097 33.8948 55.1194C33.8948 54.8808 33.7879 54.6257 33.6811 54.4036C33.3935 53.7866 33.0812 53.1778 32.7771 52.5526C32.7442 52.6102 32.6785 52.6924 32.6374 52.7747C31.6512 54.6175 30.665 56.4603 29.6871 58.3114C29.1283 59.3644 28.027 59.891 26.6793 59.7346C25.5041 59.5948 24.4275 58.6816 24.2549 57.5134C24.1399 56.7401 24.2385 55.9256 24.2796 55.1276C24.3864 53.0544 24.5179 50.973 24.6412 48.8998C24.6494 48.7764 24.6412 48.6612 24.6412 48.5296C24.1892 48.4885 23.7372 48.5296 23.3509 48.3815C22.4716 48.0524 21.5923 47.674 20.7704 47.2215C20.2445 46.9336 20.0226 46.3577 20.0062 45.7407C19.9979 45.1072 19.9979 44.4737 20.0062 43.8402C20.0144 42.7214 21.0663 42.055 22.0936 42.491C22.6113 42.7132 23.1208 42.9847 23.6632 43.0916C24.2796 43.2068 24.8959 43.1739 25.578 43.215ZM31.6759 41.7918C32.4812 41.3804 33.262 41.1748 34.1084 41.1912C34.9878 41.2077 35.8753 41.183 36.7547 41.1994C37.108 41.2076 37.2477 41.0678 37.2395 40.7058C37.2231 40.0147 37.2231 39.3237 37.2395 38.6409C37.2477 38.4023 37.1573 38.2789 36.9683 38.1472C35.3001 37.0531 34.2317 35.5228 34.0262 33.5402C33.8783 32.1087 33.9441 30.6525 33.9441 29.2046C33.9441 29.0318 34.1002 28.8097 34.2564 28.7027C35.5959 27.7731 36.5656 26.5555 37.256 25.0911C37.5025 24.5646 37.9627 24.4823 38.3983 24.8608C40.7487 26.8681 43.436 28.1186 46.4849 28.604C46.978 28.6863 47.1423 28.892 47.1423 29.3856C47.1423 30.4469 47.1588 31.5081 47.1423 32.5694C47.1095 34.947 46.0904 36.8063 44.1263 38.1308C43.9208 38.2707 43.8222 38.394 43.8304 38.6573C43.8551 39.1509 43.8387 39.6528 43.8387 40.1464C43.8387 41.2899 43.7318 41.183 44.8824 41.1912C45.9096 41.1994 46.9451 41.1994 47.9724 41.2899C48.4572 41.3311 48.9257 41.5696 49.4188 41.7259C49.7146 39.9407 49.5585 38.2048 48.8681 36.5348C48.1121 34.7166 47.808 32.8491 47.9559 30.8911C48.0381 29.7558 48.1449 28.6205 47.9231 27.4687C47.2656 24.0299 44.3728 21.5042 40.8473 21.3314C37.445 21.1669 34.3057 23.454 33.3277 26.7612C32.9086 28.1927 33.0483 29.6324 33.1387 31.0721C33.2537 32.8244 33.0072 34.4945 32.3826 36.1316C32.0786 36.9214 31.8402 37.7441 31.6594 38.575C31.4375 39.6198 31.4951 40.6811 31.6759 41.7918ZM38.1189 26.3581C37.4121 27.6332 36.5081 28.6945 35.3658 29.5501C35.3001 29.5995 35.2507 29.7147 35.2507 29.7887C35.2754 31.0556 35.1768 32.339 35.374 33.5813C35.7521 36 37.8888 37.7688 40.3378 37.8757C42.7374 37.9827 44.9563 36.362 45.6138 34.0009C45.9918 32.6352 45.7617 31.2449 45.8274 29.8463C42.9593 29.3198 40.4035 28.168 38.1189 26.3581ZM43.8469 47.3038C43.8469 49.8953 43.8469 52.4292 43.8633 54.963C43.8633 55.0618 44.0359 55.2181 44.151 55.251C44.644 55.3744 45.1453 55.4649 45.6384 55.5636C46.7972 55.7939 47.9477 56.0243 49.1393 56.2629C49.1393 53.6796 49.1393 51.1293 49.1311 48.579C49.1311 48.4885 48.9996 48.3404 48.9092 48.3157C47.2327 47.9784 45.5645 47.6493 43.8469 47.3038ZM58.3847 47.3038C56.7411 47.6329 55.155 47.9702 53.5689 48.2581C53.1826 48.3322 53.1005 48.4802 53.1005 48.8422C53.1169 51.154 53.1087 53.474 53.1087 55.7857C53.1087 55.9338 53.1087 56.0819 53.1087 56.2547C53.3552 56.1971 53.5525 56.1559 53.7743 56.1066C53.7743 55.5225 53.7743 54.9548 53.7743 54.3954C53.7743 53.5727 54.2263 53.0133 55.0235 52.8323C55.2207 52.7911 55.4262 52.7418 55.6316 52.7253C56.5438 52.6513 57.4478 52.1823 58.3847 52.6431C58.3847 50.866 58.3847 49.1055 58.3847 47.3038ZM21.395 43.651C21.395 44.4161 21.3868 45.1237 21.4032 45.8312C21.4115 45.9546 21.5347 46.1273 21.6498 46.1932C22.5373 46.6785 23.4249 47.1804 24.4933 47.1557C25.6191 47.131 26.745 47.1475 27.8791 47.1475C28.1256 47.1475 28.364 47.1475 28.6352 47.1475C28.6352 46.0944 28.6352 45.0908 28.6352 44.0871C28.6352 43.9801 28.5941 43.8732 28.553 43.7744C28.3147 43.1574 28.0681 42.5486 27.8216 41.9398C27.6408 41.4956 27.3121 41.3311 26.9587 41.4956C26.5971 41.6601 26.5067 42.0057 26.7039 42.4335C26.8847 42.8037 27.082 43.1657 27.2463 43.5441C27.4435 43.9966 27.1888 44.4902 26.7286 44.482C24.9946 44.4737 23.2194 44.7534 21.6334 43.7251C21.584 43.7086 21.5265 43.7004 21.395 43.651ZM43.4524 42.3923C42.7292 41.9974 42.4745 41.3969 42.5155 40.6235C42.5484 40.0723 42.5238 39.5294 42.5238 38.9206C41.1924 39.3072 39.8858 39.3072 38.5544 38.9206C38.5544 39.4389 38.5298 39.9078 38.5626 40.3685C38.6119 41.2159 38.4805 41.9645 37.6258 42.3841C37.8641 42.8283 38.0696 43.2315 38.3079 43.6181C38.3736 43.7251 38.5544 43.832 38.6859 43.832C39.9268 43.8485 41.1596 43.8485 42.4005 43.832C42.532 43.832 42.7046 43.7333 42.7785 43.6181C43.0169 43.2397 43.2141 42.8284 43.4524 42.3923ZM25.9889 51.1375C25.9643 51.228 25.9314 51.3021 25.9232 51.3843C25.7835 53.186 25.6356 54.9795 25.5123 56.7812C25.463 57.4805 25.9396 58.1222 26.5889 58.3278C27.6243 58.6569 28.6187 57.9001 28.627 56.7647C28.6352 55.0042 28.627 53.2354 28.627 51.4748C28.627 51.3679 28.6105 51.2609 28.6023 51.1457C27.723 51.1375 26.8601 51.1375 25.9889 51.1375ZM51.7527 56.4028C51.7527 53.7455 51.7527 51.1211 51.7527 48.5049C51.3089 48.5049 50.8898 48.5049 50.4789 48.5049C50.4789 51.154 50.4789 53.7701 50.4789 56.4028C50.9062 56.4028 51.3171 56.4028 51.7527 56.4028ZM50.3392 45.1648C50.1337 43.9472 49.0243 42.7707 47.7587 42.6062C46.8794 42.491 45.9754 42.5322 45.0878 42.5157C45.0139 42.5157 44.907 42.5486 44.8741 42.598C44.6194 43.0423 44.3811 43.4947 44.1345 43.9472C46.2466 44.4408 48.3586 44.5149 50.3392 45.1648ZM57.7355 56.3534C57.7355 55.5636 57.7355 54.8314 57.7355 54.0992C57.7355 53.8853 57.6697 53.7455 57.4232 53.7866C56.7493 53.9018 56.0672 54.0005 55.3933 54.1404C55.2783 54.165 55.1057 54.3131 55.1057 54.4118C55.081 55.1934 55.0892 55.9749 55.0892 56.7976C55.9932 56.6413 56.8479 56.5015 57.7355 56.3534ZM43.8962 45.3047C43.7565 45.7736 43.8715 45.9628 44.3317 46.0451C46.1562 46.3824 47.9641 46.769 49.7886 47.131C49.9447 47.1639 50.1009 47.131 50.3063 47.131C50.0269 46.5551 49.5995 46.259 49.0243 46.152C48.2436 46.0122 47.4546 45.8805 46.6657 45.7489C45.7453 45.6008 44.8248 45.4527 43.8962 45.3047ZM58.3847 45.3458C58.319 45.3376 58.2943 45.3211 58.2696 45.3293C56.5356 45.6173 54.8016 45.8888 53.0676 46.2014C52.5498 46.2919 52.1718 46.6127 51.9171 47.238C54.1359 46.7937 56.2562 46.3741 58.3847 45.9546C58.3847 45.7242 58.3847 45.5432 58.3847 45.3458ZM39.1461 45.173C39.6228 46.0533 40.0666 46.8595 40.5432 47.7316C41.0281 46.8349 41.4718 46.0204 41.9321 45.173C40.9788 45.173 40.0994 45.173 39.1461 45.173ZM26.0136 48.4885C26.0136 48.941 26.0136 49.3523 26.0136 49.7719C26.8929 49.7719 27.7558 49.7719 28.6105 49.7719C28.6105 49.3276 28.6105 48.908 28.6105 48.4885C27.7312 48.4885 26.8847 48.4885 26.0136 48.4885ZM54.5058 58.0811C53.9716 57.2172 53.2813 57.571 52.5827 57.7684C53.0922 58.4924 53.8154 58.5911 54.5058 58.0811Z" fill="white"/>
<path d="M41.2262 33.2539C41.6371 33.2539 42.0069 33.2539 42.3767 33.2539C42.4178 33.2539 42.4507 33.2704 42.4918 33.2786C42.5575 34.2823 41.67 35.2037 40.6263 35.2284C39.4758 35.2531 38.5471 34.381 38.5718 33.2704C38.9827 33.2704 39.3854 33.2704 39.8374 33.2704C39.9606 33.583 40.1168 33.9121 40.5523 33.9038C40.9468 33.8874 41.1276 33.6159 41.2262 33.2539Z" fill="white"/>
<path d="M38.5548 30.9491C38.5466 31.5003 38.111 31.9363 37.5522 31.9281C37.0016 31.9199 36.5742 31.4839 36.5742 30.9244C36.5824 30.365 37.018 29.9372 37.5768 29.9454C38.1274 29.9454 38.563 30.3897 38.5548 30.9491Z" fill="white"/>
<path d="M44.505 30.9491C44.4968 31.5003 44.0612 31.9281 43.5024 31.9281C42.9518 31.9199 42.5244 31.4839 42.5244 30.9244C42.5326 30.365 42.9682 29.9372 43.527 29.9454C44.0859 29.9537 44.5132 30.3897 44.505 30.9491Z" fill="white"/>
</svg>
