<svg width="80" height="81" viewBox="0 0 80 81" fill="none" xmlns="http://www.w3.org/2000/svg">
<path d="M40 80.0857C62.0914 80.0857 80 62.1579 80 40.0429C80 17.9278 62.0914 0 40 0C17.9086 0 0 17.9278 0 40.0429C0 62.1579 17.9086 80.0857 40 80.0857Z" fill="#3661AD"/>
<path d="M40 80.0857C62.0914 80.0857 80 62.1579 80 40.0429C80 17.9278 62.0914 0 40 0C17.9086 0 0 17.9278 0 40.0429C0 62.1579 17.9086 80.0857 40 80.0857Z" fill="#0764AC"/>
<path d="M19 59.5C19.1743 59.5 19.3559 59.5073 19.5302 59.5073C33.0839 59.5073 46.6448 59.5073 60.1985 59.5073C60.3728 59.5073 60.5471 59.5073 60.7941 59.5073C60.7941 59.9508 60.7941 60.3798 60.7941 60.8088C46.8627 60.8088 32.9314 60.8088 19 60.8088C19 60.3726 19 59.9363 19 59.5Z" fill="white"/>
<path d="M19 44.4648C21.811 44.4648 24.6219 44.4648 27.462 44.4648C27.462 44.9084 27.462 45.3083 27.462 45.7737C24.6437 45.7737 21.8182 45.7737 19 45.7737C19 45.3374 19 44.9011 19 44.4648Z" fill="white"/>
<path d="M24.8844 36.5892C24.8844 35.4113 24.8917 34.2697 24.8772 33.1281C24.8699 32.8518 25.0442 32.8372 25.2258 32.7791C27.601 32.0228 29.9761 31.2594 32.3586 30.5031C34.5303 29.8124 36.7021 29.1143 38.8739 28.4381C39.1717 28.3436 39.2589 28.2054 39.2589 27.8928C39.2443 25.0861 39.2516 22.2793 39.2516 19.4799C39.2516 19.3345 39.2516 19.1818 39.2516 19C39.6801 19 40.0942 19 40.5518 19C40.5518 19.1527 40.5518 19.2981 40.5518 19.4435C40.5518 22.2503 40.559 25.057 40.5445 27.8564C40.5445 28.1982 40.6462 28.3436 40.973 28.4454C45.4982 29.8705 50.0161 31.3248 54.5412 32.75C54.8245 32.8372 54.9262 32.939 54.9189 33.2444C54.8971 34.3424 54.9117 35.4476 54.9117 36.5819C44.9026 36.5892 34.9226 36.5892 24.8844 36.5892ZM26.1846 35.2876C35.3584 35.2876 44.474 35.2876 53.6188 35.2876C53.6188 34.9168 53.597 34.5823 53.626 34.2406C53.6551 33.9279 53.5461 33.7898 53.2411 33.6952C48.8975 32.321 44.5539 30.9394 40.2104 29.5652C40.0215 29.507 39.7746 29.507 39.5857 29.5652C37.3704 30.2559 35.1623 30.9612 32.9542 31.6665C30.8114 32.35 28.6614 33.0335 26.526 33.7243C26.3952 33.7679 26.2136 33.9206 26.1991 34.037C26.1555 34.4442 26.1846 34.8514 26.1846 35.2876Z" fill="white"/>
<path d="M29.46 58.8399C28.9952 58.8399 28.6029 58.8399 28.1816 58.8399C28.1816 52.3248 28.1816 45.8098 28.1816 39.2656C35.9826 39.2656 43.7836 39.2656 51.6136 39.2656C51.6136 45.7661 51.6136 52.2812 51.6136 58.8181C51.2214 58.8181 50.8147 58.8181 50.3716 58.8181C50.3716 52.7538 50.3716 46.675 50.3716 40.5672C43.3841 40.5672 36.4475 40.5672 29.46 40.5672C29.46 46.6387 29.46 52.7175 29.46 58.8399Z" fill="white"/>
<path d="M26.8535 38.5447C26.8535 38.123 26.8535 37.7303 26.8535 37.3086C35.5479 37.3086 44.2278 37.3086 52.9367 37.3086C52.9367 37.7158 52.9367 38.1157 52.9367 38.5447C44.2568 38.5447 35.5697 38.5447 26.8535 38.5447Z" fill="white"/>
<path d="M31.3855 42.4918C31.1676 42.4918 30.986 42.4918 30.7754 42.4918C30.7754 42.0628 30.7754 41.6556 30.7754 41.2266C31.618 41.2266 32.4533 41.2266 33.3321 41.2266C33.3321 41.6265 33.3321 42.0337 33.3321 42.4772C33.1433 42.4918 32.9472 42.5063 32.7365 42.5208C32.7365 47.5308 32.7365 52.5188 32.7365 57.5287C32.9399 57.536 33.1288 57.5506 33.3394 57.5578C33.3394 57.9796 33.3394 58.394 33.3394 58.823C32.4896 58.823 31.6543 58.823 30.7827 58.823C30.7827 58.4013 30.7827 57.9941 30.7827 57.5578C30.986 57.5506 31.1676 57.5433 31.3855 57.5287C31.3855 52.5334 31.3855 47.538 31.3855 42.4918Z" fill="white"/>
<path d="M35.3074 42.4918C35.0895 42.4918 34.9079 42.4918 34.6973 42.4918C34.6973 42.0628 34.6973 41.6556 34.6973 41.2266C35.5398 41.2266 36.3751 41.2266 37.2468 41.2266C37.2468 41.6265 37.2468 42.0337 37.2468 42.4772C37.0579 42.4918 36.8618 42.5063 36.6511 42.5208C36.6511 47.5308 36.6511 52.5188 36.6511 57.5287C36.8545 57.536 37.0434 57.5506 37.254 57.5578C37.254 57.9796 37.254 58.394 37.254 58.823C36.4042 58.823 35.5689 58.823 34.6973 58.823C34.6973 58.4013 34.6973 57.9941 34.6973 57.5578C34.9006 57.5506 35.0822 57.5433 35.3001 57.5287C35.3074 52.5334 35.3074 47.538 35.3074 42.4918Z" fill="white"/>
<path d="M39.2215 42.4918C39.0036 42.4918 38.822 42.4918 38.6113 42.4918C38.6113 42.0628 38.6113 41.6556 38.6113 41.2266C39.4539 41.2266 40.2892 41.2266 41.1681 41.2266C41.1681 41.6265 41.1681 42.0337 41.1681 42.4772C40.9792 42.4918 40.7831 42.5063 40.5725 42.5208C40.5725 47.5308 40.5725 52.5188 40.5725 57.5287C40.7759 57.536 40.9647 57.5506 41.1753 57.5578C41.1753 57.9796 41.1753 58.394 41.1753 58.823C40.3255 58.823 39.4902 58.823 38.6186 58.823C38.6186 58.4013 38.6186 57.9941 38.6186 57.5578C38.822 57.5506 39.0036 57.5433 39.2215 57.5287C39.2215 52.5334 39.2215 47.538 39.2215 42.4918Z" fill="white"/>
<path d="M44.4943 57.5282C44.705 57.5355 44.8938 57.55 45.0972 57.5573C45.0972 57.979 45.0972 58.3862 45.0972 58.8152C44.2474 58.8152 43.3976 58.8152 42.5332 58.8152C42.5332 58.4008 42.5332 58.0008 42.5332 57.5646C42.7366 57.55 42.9327 57.5355 43.1433 57.5209C43.1433 52.5183 43.1433 47.5229 43.1433 42.513C42.94 42.5058 42.7511 42.4985 42.5405 42.4839C42.5405 42.0622 42.5405 41.655 42.5405 41.2188C43.3903 41.2188 44.2256 41.2188 45.0899 41.2188C45.0899 41.6332 45.0899 42.0477 45.0899 42.4912C44.8938 42.4912 44.705 42.4912 44.4943 42.4912C44.4943 47.5084 44.4943 52.4965 44.4943 57.5282Z" fill="white"/>
<path d="M48.4104 57.5282C48.621 57.5355 48.8098 57.55 49.0132 57.5573C49.0132 57.979 49.0132 58.3862 49.0132 58.8152C48.1634 58.8152 47.3136 58.8152 46.4492 58.8152C46.4492 58.4008 46.4492 58.0008 46.4492 57.5646C46.6526 57.55 46.8487 57.5355 47.0593 57.5209C47.0593 52.5183 47.0593 47.5229 47.0593 42.513C46.856 42.5058 46.6671 42.4985 46.4565 42.4839C46.4565 42.0622 46.4565 41.6478 46.4565 41.2188C47.3063 41.2188 48.1416 41.2188 49.006 41.2188C49.006 41.6405 49.006 42.0477 49.006 42.4912C48.8026 42.4912 48.621 42.4912 48.4031 42.4912C48.4104 47.5084 48.4104 52.4965 48.4104 57.5282Z" fill="white"/>
<path d="M41.2344 22.2508C43.181 22.2508 45.1058 22.2508 47.0597 22.2508C47.0597 21.5891 47.0597 20.9565 47.0597 20.2876C45.1276 20.2876 43.1955 20.2876 41.2344 20.2876C41.2344 19.844 41.2344 19.4441 41.2344 19.0078C43.595 19.0078 45.9629 19.0078 48.3598 19.0078C48.3598 20.4984 48.3598 21.989 48.3598 23.516C45.9992 23.516 43.6313 23.516 41.2344 23.516C41.2344 23.1088 41.2344 22.7089 41.2344 22.2508Z" fill="white"/>
<path d="M44.4805 25.4691C44.4805 25.0474 44.4805 24.6547 44.4805 24.2185C46.4198 24.2185 48.3592 24.2185 50.3203 24.2185C50.3203 23.5422 50.3203 22.9169 50.3203 22.2407C49.9136 22.2407 49.4995 22.2407 49.0637 22.2407C49.0637 21.7971 49.0637 21.3899 49.0637 20.9609C49.9063 20.9609 50.7561 20.9609 51.6277 20.9609C51.6277 22.4588 51.6277 23.9494 51.6277 25.4691C49.2598 25.4691 46.8919 25.4691 44.4805 25.4691Z" fill="white"/>
<path d="M60.7722 45.7507C57.9467 45.7507 55.1575 45.7507 52.332 45.7507C52.332 45.3362 52.332 44.929 52.332 44.5C55.1357 44.5 57.9394 44.5 60.7722 44.5C60.7722 44.9072 60.7722 45.3071 60.7722 45.7507Z" fill="white"/>
<path d="M26.8289 46.4492C26.8289 46.8782 26.8289 47.2709 26.8289 47.6999C24.4537 47.6999 22.0786 47.6999 19.6816 47.6999C19.6816 47.2854 19.6816 46.8855 19.6816 46.4492C22.0495 46.4492 24.4174 46.4492 26.8289 46.4492Z" fill="white"/>
<path d="M60.1322 46.4492C60.1322 46.8782 60.1322 47.2709 60.1322 47.6999C57.757 47.6999 55.3819 47.6999 52.9922 47.6999C52.9922 47.2854 52.9922 46.8855 52.9922 46.4492C55.3528 46.4492 57.7207 46.4492 60.1322 46.4492Z" fill="white"/>
<path d="M19.668 54.2579C19.668 53.8217 19.668 53.429 19.668 53C22.0504 53 24.4183 53 26.8152 53C26.8152 53.4217 26.8152 53.8217 26.8152 54.2579C24.4473 54.2579 22.0722 54.2579 19.668 54.2579Z" fill="white"/>
<path d="M60.1336 53C60.1336 53.4363 60.1336 53.8289 60.1336 54.2507C57.7512 54.2507 55.3833 54.2507 52.9863 54.2507C52.9863 53.8362 52.9863 53.4363 52.9863 53C55.3542 53 57.7221 53 60.1336 53Z" fill="white"/>
<path d="M20.9902 49.0586C21.4188 49.0586 21.8183 49.0586 22.2468 49.0586C22.2468 49.9166 22.2468 50.7528 22.2468 51.6254C21.8401 51.6254 21.426 51.6254 20.9902 51.6254C20.9902 50.7819 20.9902 49.9457 20.9902 49.0586Z" fill="white"/>
<path d="M24.2441 51.6332C24.2441 50.7679 24.2441 49.9317 24.2441 49.0664C24.6582 49.0664 25.0649 49.0664 25.4935 49.0664C25.4935 49.9099 25.4935 50.7606 25.4935 51.6332C25.094 51.6332 24.6945 51.6332 24.2441 51.6332Z" fill="white"/>
<path d="M54.3008 49.0586C54.7293 49.0586 55.1216 49.0586 55.5356 49.0586C55.5356 49.9239 55.5356 50.7673 55.5356 51.6399C55.1216 51.6399 54.7221 51.6399 54.3008 51.6399C54.3008 50.7746 54.3008 49.9166 54.3008 49.0586Z" fill="white"/>
<path d="M58.8026 51.6477C58.3741 51.6477 57.9818 51.6477 57.5605 51.6477C57.5605 50.7897 57.5605 49.939 57.5605 49.0664C57.9673 49.0664 58.3741 49.0664 58.8026 49.0664C58.8026 49.9171 58.8026 50.7606 58.8026 51.6477Z" fill="white"/>
<path d="M22.2474 55.6016C22.2474 56.4741 22.2474 57.3103 22.2474 58.1683C21.8261 58.1683 21.4266 58.1683 20.998 58.1683C20.998 57.3176 20.998 56.4741 20.998 55.6016C21.4048 55.6016 21.8043 55.6016 22.2474 55.6016Z" fill="white"/>
<path d="M24.2656 55.5938C24.6942 55.5938 25.0864 55.5938 25.5004 55.5938C25.5004 56.459 25.5004 57.3025 25.5004 58.175C25.0864 58.175 24.6869 58.175 24.2656 58.175C24.2656 57.3098 24.2656 56.4518 24.2656 55.5938Z" fill="white"/>
<path d="M54.2793 58.1616C54.2793 57.2963 54.2793 56.4674 54.2793 55.6094C54.7006 55.6094 55.1146 55.6094 55.5431 55.6094C55.5431 56.4528 55.5431 57.2963 55.5431 58.1616C55.1364 58.1616 54.7224 58.1616 54.2793 58.1616Z" fill="white"/>
<path d="M58.7953 58.1834C58.3813 58.1834 57.9891 58.1834 57.5605 58.1834C57.5605 57.3327 57.5605 56.4819 57.5605 55.6094C57.96 55.6094 58.3595 55.6094 58.7953 55.6094C58.7953 56.4456 58.7953 57.289 58.7953 58.1834Z" fill="white"/>
<path d="M40.5214 33.3389C40.0928 33.3389 39.7006 33.3389 39.2793 33.3389C39.2793 32.9171 39.2793 32.5027 39.2793 32.0664C39.6933 32.0664 40.0928 32.0664 40.5214 32.0664C40.5214 32.4809 40.5214 32.8953 40.5214 33.3389Z" fill="white"/>
</svg>
