<svg width="33" height="33" viewBox="0 0 33 33" fill="none" xmlns="http://www.w3.org/2000/svg">
<circle cx="16.356" cy="16.0273" r="16" fill="#F8F8F8"/>
<path d="M17.3378 10.9018C17.3378 10.6393 17.1173 10.4292 16.8442 10.4292H14.8381C14.5545 10.4292 14.334 10.6393 14.334 10.9018C14.334 11.1644 14.5545 11.3745 14.8381 11.3745H16.8442C17.1173 11.3745 17.3378 11.1644 17.3378 10.9018Z" fill="#E1292C"/>
<path d="M19.8482 12.0993C19.5751 12.0993 19.3546 12.3304 19.3546 12.6035V22.6653C19.3546 22.9279 19.1235 23.1379 18.8504 23.1379H12.8217C12.5487 23.1379 12.3281 22.9279 12.3281 22.6653V10.4294C12.3281 10.1668 12.5487 9.95673 12.8217 9.95673H17.254C17.5061 9.95673 17.7161 9.74667 17.7161 9.4841C17.7161 9.22153 17.5061 9.02197 17.254 9.02197H12.8217C11.992 9.02197 11.3198 9.65215 11.3198 10.4294V22.6653C11.3198 23.4425 11.992 24.0727 12.8217 24.0727H18.8504C19.6802 24.0727 20.3523 23.4425 20.3523 22.6653V12.6035C20.3523 12.3304 20.1318 12.0993 19.8482 12.0993Z" fill="#E1292C"/>
<path d="M14.8384 21.7199C14.8384 22.2451 15.29 22.6652 15.8362 22.6652C16.3823 22.6652 16.8339 22.2451 16.8339 21.7199C16.8339 21.1948 16.3928 20.7852 15.8362 20.7852C15.2795 20.7852 14.8384 21.2053 14.8384 21.7199Z" fill="#E1292C"/>
<path d="M20.9297 9.05323H20.352V8.48607C20.352 8.213 20.1315 7.98193 19.8479 7.98193C19.5643 7.98193 19.3542 8.213 19.3542 8.48607V9.05323H18.7766C18.5245 9.05323 18.3145 9.26329 18.3145 9.51536C18.3145 9.76743 18.5245 9.98799 18.7766 9.98799H19.3542V10.5552C19.3542 10.8387 19.5748 11.0593 19.8479 11.0593C20.121 11.0593 20.352 10.8387 20.352 10.5552V9.98799H20.9297C21.1818 9.98799 21.3918 9.77794 21.3918 9.51536C21.3918 9.25279 21.1818 9.05323 20.9297 9.05323Z" fill="#E1292C"/>
</svg>
