<svg width="42" height="41" viewBox="0 0 42 41" fill="none" xmlns="http://www.w3.org/2000/svg">
<path d="M20.8047 40.2583C9.75864 40.2583 0.804688 31.3044 0.804688 20.2583C0.804688 9.21224 9.75864 0.258301 20.8047 0.258301C31.8508 0.258301 40.8047 9.21224 40.8047 20.2583C40.8047 31.3044 31.8508 40.2583 20.8047 40.2583Z" stroke="black" stroke-opacity="0.8" stroke-width="0.4321" stroke-miterlimit="10"/>
<path d="M15.9304 16.2866H12.2627V28.142H15.9304V16.2866Z" fill="black" fill-opacity="0.8"/>
<path d="M14.0808 14.7365C15.2775 14.7365 16.2504 13.755 16.2504 12.5496C16.2504 11.3443 15.2775 10.3628 14.0808 10.3628C12.884 10.3628 11.9111 11.3443 11.9111 12.5496C11.9111 13.755 12.884 14.7365 14.0808 14.7365Z" fill="black" fill-opacity="0.8"/>
<path d="M21.8065 21.9273C21.8065 20.257 22.5727 19.267 24.045 19.267C25.3967 19.267 26.0424 20.2226 26.0424 21.9273C26.0424 23.632 26.0424 28.152 26.0424 28.152H29.6928C29.6928 28.152 29.6928 23.8214 29.6928 20.6445C29.6928 17.4676 27.8934 15.9351 25.3795 15.9351C22.8655 15.9351 21.8065 17.898 21.8065 17.898V16.2967H18.2852V28.152H21.8065C21.8065 28.152 21.8065 23.7525 21.8065 21.9273Z" fill="black" fill-opacity="0.8"/>
</svg>
