<svg width="42" height="42" viewBox="0 0 42 42" fill="none" xmlns="http://www.w3.org/2000/svg">
<path d="M20.8867 41.0195C9.84067 41.0195 0.886719 32.0656 0.886719 21.0195C0.886719 9.97347 9.84067 1.01953 20.8867 1.01953C31.9328 1.01953 40.8867 9.97347 40.8867 21.0195C40.8867 32.0656 31.9328 41.0195 20.8867 41.0195Z" stroke="white" stroke-width="0.4321" stroke-miterlimit="10"/>
<path d="M31.6378 15.1813C31.3884 14.1368 30.6151 13.3333 29.6423 13.0387C27.8961 12.5566 20.8867 12.5566 20.8867 12.5566C20.8867 12.5566 13.8773 12.5566 12.1062 13.0655C11.1334 13.3333 10.3851 14.1636 10.1107 15.2081C9.63672 17.0828 9.63672 21.0198 9.63672 21.0198C9.63672 21.0198 9.63672 24.93 10.1107 26.8316C10.3601 27.8761 11.1334 28.6795 12.1062 28.9741C13.8524 29.483 20.8867 29.483 20.8867 29.483C20.8867 29.483 27.8961 29.483 29.6672 28.9741C30.64 28.7063 31.3884 27.8761 31.6628 26.8316C32.1367 24.9568 32.1367 21.0198 32.1367 21.0198C32.1367 21.0198 32.1118 17.0828 31.6378 15.1813ZM18.6417 24.6086V17.3774L24.4787 20.993L18.6417 24.6086Z" fill="white"/>
</svg>
