<svg width="42" height="41" viewBox="0 0 42 41" fill="none" xmlns="http://www.w3.org/2000/svg">
<path d="M20.8047 40.2583C9.75863 40.2583 0.804688 31.3044 0.804688 20.2583C0.804688 9.21224 9.75863 0.258301 20.8047 0.258301C31.8508 0.258301 40.8047 9.21224 40.8047 20.2583C40.8047 31.3044 31.8508 40.2583 20.8047 40.2583Z" stroke="black" stroke-opacity="0.8" stroke-width="0.4321" stroke-miterlimit="10"/>
<path d="M31.5558 14.4201C31.3064 13.3756 30.5331 12.5721 29.5602 12.2775C27.8141 11.7954 20.8047 11.7954 20.8047 11.7954C20.8047 11.7954 13.7953 11.7954 12.0242 12.3043C11.0514 12.5721 10.303 13.4023 10.0286 14.4468C9.55469 16.3216 9.55469 20.2586 9.55469 20.2586C9.55469 20.2586 9.55469 24.1688 10.0286 26.0703C10.2781 27.1148 11.0514 27.9183 12.0242 28.2129C13.7703 28.7218 20.8047 28.7218 20.8047 28.7218C20.8047 28.7218 27.8141 28.7218 29.5852 28.2129C30.558 27.9451 31.3064 27.1148 31.5807 26.0703C32.0547 24.1956 32.0547 20.2586 32.0547 20.2586C32.0547 20.2586 32.0297 16.3216 31.5558 14.4201ZM18.5597 23.8474V16.6162L24.3967 20.2318L18.5597 23.8474Z" fill="black" fill-opacity="0.8"/>
</svg>
