<svg width="25" height="25" viewBox="0 0 25 25" fill="none" xmlns="http://www.w3.org/2000/svg">
<path d="M13.5547 24.2362C13.0547 24.2362 12.5547 24.2362 12.0547 24.2362C11.7609 24.1987 11.4672 24.1674 11.1797 24.1299C8.77344 23.7862 6.65469 22.8237 4.84219 21.2049C2.77969 19.3612 1.48594 17.0737 0.992188 14.3487C0.910938 13.9049 0.867188 13.4549 0.804688 13.0112C0.804688 12.5112 0.804688 12.0112 0.804688 11.5112C0.817188 11.4362 0.835938 11.3612 0.848437 11.2862C0.923438 10.7862 0.960937 10.2799 1.06719 9.78617C1.75469 6.64242 3.43594 4.14867 6.09844 2.34242C8.72344 0.561168 11.6422 -0.0513319 14.7734 0.448668C17.0234 0.804918 19.0109 1.76117 20.7172 3.27367C22.8172 5.12992 24.1297 7.44242 24.6234 10.1987C24.6984 10.6362 24.7484 11.0737 24.8047 11.5112C24.8047 12.0112 24.8047 12.5112 24.8047 13.0112C24.7672 13.2987 24.7422 13.5799 24.6984 13.8674C24.3547 16.2799 23.3859 18.4049 21.7609 20.2174C19.9109 22.2799 17.6234 23.5612 14.8922 24.0549C14.4484 24.1299 13.9984 24.1737 13.5547 24.2362ZM1.92969 12.2487C1.92969 18.2237 6.79844 23.0987 12.7859 23.1112C18.7797 23.1237 23.6797 18.2487 23.6797 12.2612C23.6859 6.28617 18.8109 1.41117 12.8234 1.39867C6.82344 1.39242 1.92969 6.26117 1.92969 12.2487Z" fill="#0063AA"/>
<path d="M12.8045 7.32373C14.6295 7.32373 16.4607 7.32373 18.2857 7.32373C19.267 7.32373 19.8107 7.86123 19.8107 8.84248C19.8107 11.1175 19.8107 13.3925 19.8107 15.6737C19.8107 16.6487 19.2607 17.1987 18.2857 17.1987C14.6295 17.1987 10.9732 17.1987 7.31699 17.1987C6.34199 17.1987 5.79199 16.6487 5.79199 15.6737C5.79199 13.3987 5.79199 11.1237 5.79199 8.84248C5.79199 7.86748 6.34199 7.32373 7.31699 7.32373C9.14824 7.32373 10.9795 7.32373 12.8045 7.32373ZM6.92324 9.01123C6.92324 9.14873 6.92324 9.22998 6.92324 9.31123C6.92324 11.4175 6.92324 13.5175 6.92324 15.6237C6.92324 16.0237 6.96699 16.0675 7.36699 16.0675C10.992 16.0675 14.6107 16.0675 18.2357 16.0675C18.6482 16.0675 18.6857 16.0237 18.6857 15.605C18.6857 13.5112 18.6857 11.4112 18.6857 9.31748C18.6857 9.23623 18.6857 9.15498 18.6857 9.02373C18.5857 9.09873 18.5232 9.13623 18.4607 9.18623C16.7232 10.5612 14.9857 11.9362 13.2545 13.3112C12.9107 13.5862 12.6982 13.5862 12.3545 13.3112C10.942 12.1925 9.52949 11.0737 8.11699 9.95498C7.74199 9.65498 7.35449 9.35498 6.92324 9.01123ZM17.5607 8.47373C14.367 8.47373 11.2357 8.47373 8.04824 8.47373C9.62324 9.72373 11.1607 10.9362 12.692 12.1612C12.8045 12.2487 12.867 12.1987 12.9545 12.13C13.567 11.6425 14.1795 11.1612 14.7857 10.6737C15.6982 9.94873 16.6107 9.22373 17.5607 8.47373Z" fill="#0063AA"/>
</svg>
