<svg width="25" height="25" viewBox="0 0 25 25" fill="none" xmlns="http://www.w3.org/2000/svg">
<path d="M13.5547 24.2362C13.0547 24.2362 12.5547 24.2362 12.0547 24.2362C11.7609 24.1987 11.4672 24.1674 11.1797 24.1299C8.77344 23.7862 6.65469 22.8237 4.84219 21.2049C2.77969 19.3612 1.48594 17.0737 0.992188 14.3487C0.910938 13.9049 0.867188 13.4549 0.804688 13.0112C0.804688 12.5112 0.804688 12.0112 0.804688 11.5112C0.817188 11.4362 0.835938 11.3612 0.848437 11.2862C0.923438 10.7862 0.960937 10.2799 1.06719 9.78617C1.75469 6.64242 3.43594 4.14867 6.09844 2.34242C8.72344 0.561168 11.6422 -0.0513319 14.7734 0.448668C17.0234 0.804918 19.0109 1.76117 20.7172 3.27367C22.8172 5.12992 24.1297 7.44242 24.6234 10.1987C24.6984 10.6362 24.7484 11.0737 24.8047 11.5112C24.8047 12.0112 24.8047 12.5112 24.8047 13.0112C24.7672 13.2987 24.7422 13.5799 24.6984 13.8674C24.3547 16.2799 23.3859 18.4049 21.7609 20.2174C19.9109 22.2799 17.6234 23.5612 14.8922 24.0549C14.4484 24.1299 13.9984 24.1737 13.5547 24.2362ZM1.92969 12.2487C1.92969 18.2237 6.79844 23.0987 12.7859 23.1112C18.7797 23.1237 23.6797 18.2487 23.6797 12.2612C23.6859 6.28617 18.8109 1.41117 12.8234 1.39867C6.82344 1.39242 1.92969 6.26117 1.92969 12.2487Z" fill="#0063AA"/>
<path d="M11.5264 10.8019C12.4558 11.7312 13.3647 12.6402 14.2941 13.5696C14.449 13.4147 14.612 13.2394 14.7792 13.0723C15.5495 12.306 16.54 12.306 17.3104 13.0723C17.6447 13.4024 17.9789 13.7367 18.3091 14.0709C19.0143 14.7883 19.0265 15.7829 18.3335 16.5085C18.0075 16.8468 17.6732 17.181 17.3349 17.503C16.6338 18.1756 15.7737 18.3264 14.8485 18.2367C13.7194 18.1226 12.7085 17.6701 11.7628 17.071C10.1364 16.0438 8.81577 14.7068 7.84565 13.0356C7.34428 12.1755 6.97743 11.2665 6.87145 10.272C6.76547 9.26516 6.97336 8.3521 7.74374 7.62655C8.02907 7.35752 8.29402 7.07219 8.57528 6.79502C9.2723 6.1143 10.2057 6.06947 10.9354 6.71349C11.3715 7.09665 11.7832 7.51242 12.1664 7.94856C12.7941 8.66596 12.7452 9.59125 12.0808 10.276C11.8973 10.4595 11.7017 10.6347 11.5264 10.8019ZM15.4884 17.0873C15.8349 17.1036 16.3036 16.912 16.6868 16.4962C16.9395 16.2231 17.2126 15.9704 17.4735 15.7055C17.7344 15.4405 17.7344 15.1633 17.4735 14.9025C17.1433 14.5682 16.8091 14.238 16.4748 13.9038C16.1732 13.6062 15.9123 13.6062 15.6148 13.9038C15.3213 14.1932 15.036 14.4867 14.7425 14.7761C14.4286 15.0859 14.1066 15.094 13.8009 14.7842C12.6392 13.6266 11.4816 12.469 10.3239 11.3073C10.0142 10.9975 10.0182 10.6796 10.328 10.3657C10.6296 10.06 10.9394 9.75837 11.2411 9.44858C11.4897 9.19586 11.4897 8.91461 11.237 8.65781C10.9028 8.31949 10.5644 7.98117 10.2261 7.64693C9.93671 7.3616 9.67176 7.3616 9.37828 7.65508C9.09702 7.93634 8.81984 8.22167 8.53044 8.49884C8.18804 8.82493 8.04538 9.22847 8.02907 9.69315C8.00054 10.5043 8.24511 11.2543 8.60789 11.9636C9.70437 14.0872 11.3389 15.6647 13.5156 16.6674C14.0658 16.9201 14.6569 17.0791 15.4884 17.0873Z" fill="#0063AA"/>
</svg>
