<svg width="42" height="42" viewBox="0 0 42 42" fill="none" xmlns="http://www.w3.org/2000/svg">
<path d="M20.8867 41.0195C9.84067 41.0195 0.886719 32.0656 0.886719 21.0195C0.886719 9.97347 9.84067 1.01953 20.8867 1.01953C31.9328 1.01953 40.8867 9.97347 40.8867 21.0195C40.8867 32.0656 31.9328 41.0195 20.8867 41.0195Z" stroke="white" stroke-width="0.4321" stroke-miterlimit="10"/>
<path d="M16.0124 17.048H12.3447V28.9033H16.0124V17.048Z" fill="white"/>
<path d="M14.1628 15.4977C15.3595 15.4977 16.3324 14.5162 16.3324 13.3109C16.3324 12.1055 15.3595 11.124 14.1628 11.124C12.9661 11.124 11.9932 12.1055 11.9932 13.3109C11.9932 14.5162 12.9661 15.4977 14.1628 15.4977Z" fill="white"/>
<path d="M21.8885 22.6885C21.8885 21.0183 22.6547 20.0282 24.127 20.0282C25.4787 20.0282 26.1244 20.9838 26.1244 22.6885C26.1244 24.3932 26.1244 28.9133 26.1244 28.9133H29.7749C29.7749 28.9133 29.7749 24.5826 29.7749 21.4057C29.7749 18.2288 27.9755 16.6963 25.4615 16.6963C22.9475 16.6963 21.8885 18.6593 21.8885 18.6593V17.0579H18.3672V28.9133H21.8885C21.8885 28.9133 21.8885 24.5138 21.8885 22.6885Z" fill="white"/>
</svg>
