<svg width="42" height="41" viewBox="0 0 42 41" fill="none" xmlns="http://www.w3.org/2000/svg">
<path d="M20.8047 40.2583C9.75863 40.2583 0.804688 31.3044 0.804688 20.2583C0.804688 9.21224 9.75863 0.258301 20.8047 0.258301C31.8508 0.258301 40.8047 9.21224 40.8047 20.2583C40.8047 31.3044 31.8508 40.2583 20.8047 40.2583Z" stroke="black" stroke-opacity="0.8" stroke-width="0.4321" stroke-miterlimit="10"/>
<path d="M18.1035 30.9785H22.4169V20.1649H25.4303L25.7488 16.5489H22.4169C22.4169 16.5489 22.4169 15.1972 22.4169 14.4912C22.4169 13.6389 22.5891 13.3031 23.4156 13.3031C24.0786 13.3031 25.7488 13.3031 25.7488 13.3031V9.54932C25.7488 9.54932 23.2865 9.54932 22.7613 9.54932C19.5499 9.54932 18.1035 10.9613 18.1035 13.6733C18.1035 16.0323 18.1035 16.5575 18.1035 16.5575H15.8564V20.2252H18.1035V30.9785Z" fill="black" fill-opacity="0.8"/>
</svg>
