<svg width="42" height="42" viewBox="0 0 42 42" fill="none" xmlns="http://www.w3.org/2000/svg">
<path d="M20.8867 41.0195C9.84067 41.0195 0.886719 32.0656 0.886719 21.0195C0.886719 9.97347 9.84067 1.01953 20.8867 1.01953C31.9328 1.01953 40.8867 9.97347 40.8867 21.0195C40.8867 32.0656 31.9328 41.0195 20.8867 41.0195Z" stroke="white" stroke-width="0.4321" stroke-miterlimit="10"/>
<path d="M18.1856 31.7397H22.499V20.9261H25.5123L25.8308 17.3101H22.499C22.499 17.3101 22.499 15.9584 22.499 15.2524C22.499 14.4001 22.6711 14.0643 23.4977 14.0643C24.1606 14.0643 25.8308 14.0643 25.8308 14.0643V10.3105C25.8308 10.3105 23.3685 10.3105 22.8433 10.3105C19.632 10.3105 18.1856 11.7225 18.1856 14.4345C18.1856 16.7935 18.1856 17.3187 18.1856 17.3187H15.9385V20.9864H18.1856V31.7397Z" fill="white"/>
</svg>
