<svg width="125" height="31" viewBox="0 0 125 31" fill="none" xmlns="http://www.w3.org/2000/svg">
<circle cx="14.9309" cy="15.2517" r="14.9309" fill="white"/>
<path d="M39.229 21.4641V8.39408H48.0555V10.8647H42.1712V13.4297H47.3954V15.8438H42.1712V18.9934H48.4893V21.4641H39.229ZM57.3387 13.7692C57.8668 12.8765 58.3697 11.9838 58.8475 11.0911C59.3253 10.1984 59.7653 9.29936 60.1677 8.39408H63.4116C62.6949 9.8023 61.9531 11.1665 61.1861 12.4867C60.4191 13.8069 59.6082 15.1334 58.7532 16.4662V21.4641H55.811V16.5039C54.956 15.1711 54.1387 13.8384 53.3592 12.5056C52.5922 11.1728 51.8504 9.8023 51.1337 8.39408H54.5474C54.9497 9.29936 55.3835 10.1984 55.8487 11.0911C56.3139 11.9838 56.8106 12.8765 57.3387 13.7692ZM66.7146 21.4641V8.39408H75.5411V10.8647H69.6568V13.4297H74.881V15.8438H69.6568V18.9934H75.9749V21.4641H66.7146ZM79.8496 21.4641V8.39408H88.6007V10.8647H82.7918V13.5995H87.9595V16.0701H82.7918V21.4641H79.8496ZM92.3769 8.39408H95.319V21.4641H92.3769V8.39408ZM103.87 8.2432C105.832 8.2432 107.334 8.59525 108.378 9.29936C109.421 9.9909 109.943 11.0722 109.943 12.5433C109.943 13.4612 109.729 14.2093 109.302 14.7876C108.887 15.3534 108.284 15.7998 107.491 16.1267C107.755 16.4536 108.032 16.8308 108.321 17.2583C108.61 17.6732 108.893 18.1133 109.17 18.5785C109.459 19.0312 109.736 19.509 110 20.0119C110.264 20.5022 110.509 20.9863 110.735 21.4641H107.435C107.196 21.0366 106.951 20.6028 106.699 20.1628C106.46 19.7227 106.209 19.2952 105.945 18.8803C105.693 18.4654 105.442 18.0756 105.191 17.711C104.939 17.3338 104.688 16.9943 104.436 16.6925H102.984V21.4641H100.042V8.58268C100.683 8.45695 101.343 8.36893 102.022 8.31864C102.714 8.26835 103.33 8.2432 103.87 8.2432ZM104.04 10.7516C103.826 10.7516 103.631 10.7579 103.455 10.7704C103.292 10.783 103.135 10.7956 102.984 10.8082V14.3539H103.814C104.92 14.3539 105.712 14.2156 106.19 13.9389C106.668 13.6623 106.907 13.1908 106.907 12.5244C106.907 11.8832 106.662 11.4306 106.171 11.1665C105.693 10.8899 104.983 10.7516 104.04 10.7516ZM114.319 21.4641V8.39408H123.145V10.8647H117.261V13.4297H122.485V15.8438H117.261V18.9934H123.579V21.4641H114.319Z" fill="#020202"/>
<ellipse cx="14.8878" cy="15.2894" rx="11.6564" ry="11.6373" fill="white"/>
<path fill-rule="evenodd" clip-rule="evenodd" d="M22.762 18.1104L20.8721 19.8594C20.8959 19.9427 20.9102 20.0307 20.9102 20.1236C20.9102 20.6518 20.4812 21.0801 19.9522 21.0801C19.4231 21.0801 18.9941 20.6518 18.9941 20.1236C18.9941 19.5953 19.4231 19.167 19.9522 19.167C20.0117 19.167 20.0713 19.1741 20.1285 19.1836L22.3688 17.111H26.4012C26.4942 16.5185 26.5442 15.9117 26.5442 15.293C26.5442 14.5173 26.4656 13.7606 26.3226 13.0276H22.7882L19.8592 10.441H12.9264C12.7524 10.6219 12.5093 10.7337 12.2376 10.7337C11.7085 10.7337 11.2795 10.3054 11.2795 9.77714C11.2795 9.24887 11.7085 8.82055 12.2376 8.82055C12.6475 8.82055 12.9979 9.07992 13.1337 9.44162H20.2381L23.1672 12.0282H26.0747C24.6614 7.18815 20.1905 3.6521 14.8902 3.6521C9.6494 3.6521 5.21895 7.10487 3.75087 11.8569H6.43917L8.59839 9.93895C8.58886 9.88422 8.5817 9.82711 8.5817 9.77C8.5817 9.24173 9.01069 8.81341 9.53977 8.81341C10.0688 8.81341 10.4978 9.24173 10.4978 9.77C10.4978 10.2983 10.0688 10.7266 9.53977 10.7266C9.44444 10.7266 9.35149 10.7123 9.26331 10.6861L6.81811 12.8587H3.48871C3.32189 13.6416 3.23132 14.4554 3.23132 15.2882C3.23132 20.5899 6.78474 25.0612 11.6418 26.4651V22.634L7.27569 18.5459C7.21372 18.5578 7.14699 18.5649 7.08026 18.5649C6.55118 18.5649 6.1222 18.1366 6.1222 17.6083C6.1222 17.0801 6.55118 16.6517 7.08026 16.6517C7.60934 16.6517 8.03833 17.0801 8.03833 17.6083C8.03833 17.694 8.02641 17.7773 8.00496 17.8558L12.6451 22.2009V26.7102C13.3696 26.8506 14.118 26.9268 14.8854 26.9268C15.5193 26.9268 16.1437 26.8744 16.7515 26.7769L16.7967 23.4169C16.5251 23.2479 16.3439 22.9481 16.3439 22.6031C16.3439 22.0748 16.7729 21.6465 17.302 21.6465C17.8311 21.6465 18.2601 22.0748 18.2601 22.6031C18.2601 22.9481 18.0765 23.2503 17.8001 23.4193L17.762 26.5675C21.9064 25.5181 25.1667 22.2533 26.1986 18.108H22.762V18.1104ZM14.8989 18.1792C13.2944 18.1792 11.9936 16.8805 11.9936 15.2784C11.9936 13.6763 13.2944 12.3776 14.8989 12.3776C16.5034 12.3776 17.8042 13.6763 17.8042 15.2784C17.8042 16.8805 16.5034 18.1792 14.8989 18.1792Z" fill="white"/>
<path fill-rule="evenodd" clip-rule="evenodd" d="M22.762 18.1104L20.8721 19.8594C20.8959 19.9427 20.9102 20.0307 20.9102 20.1236C20.9102 20.6518 20.4812 21.0801 19.9522 21.0801C19.4231 21.0801 18.9941 20.6518 18.9941 20.1236C18.9941 19.5953 19.4231 19.167 19.9522 19.167C20.0117 19.167 20.0713 19.1741 20.1285 19.1836L22.3688 17.111H26.4012C26.4942 16.5185 26.5442 15.9117 26.5442 15.293C26.5442 14.5173 26.4656 13.7606 26.3226 13.0276H22.7882L19.8592 10.441H12.9264C12.7524 10.6219 12.5093 10.7337 12.2376 10.7337C11.7085 10.7337 11.2795 10.3054 11.2795 9.77714C11.2795 9.24887 11.7085 8.82055 12.2376 8.82055C12.6475 8.82055 12.9979 9.07992 13.1337 9.44162H20.2381L23.1672 12.0282H26.0747C24.6614 7.18815 20.1905 3.6521 14.8902 3.6521C9.6494 3.6521 5.21895 7.10487 3.75087 11.8569H6.43917L8.59839 9.93895C8.58886 9.88422 8.5817 9.82711 8.5817 9.77C8.5817 9.24173 9.01069 8.81341 9.53977 8.81341C10.0688 8.81341 10.4978 9.24173 10.4978 9.77C10.4978 10.2983 10.0688 10.7266 9.53977 10.7266C9.44444 10.7266 9.35149 10.7123 9.26331 10.6861L6.81811 12.8587H3.48871C3.32189 13.6416 3.23132 14.4554 3.23132 15.2882C3.23132 20.5899 6.78474 25.0612 11.6418 26.4651V22.634L7.27569 18.5459C7.21372 18.5578 7.14699 18.5649 7.08026 18.5649C6.55118 18.5649 6.1222 18.1366 6.1222 17.6083C6.1222 17.0801 6.55118 16.6517 7.08026 16.6517C7.60934 16.6517 8.03833 17.0801 8.03833 17.6083C8.03833 17.694 8.02641 17.7773 8.00496 17.8558L12.6451 22.2009V26.7102C13.3696 26.8506 14.118 26.9268 14.8854 26.9268C15.5193 26.9268 16.1437 26.8744 16.7515 26.7769L16.7967 23.4169C16.5251 23.2479 16.3439 22.9481 16.3439 22.6031C16.3439 22.0748 16.7729 21.6465 17.302 21.6465C17.8311 21.6465 18.2601 22.0748 18.2601 22.6031C18.2601 22.9481 18.0765 23.2503 17.8001 23.4193L17.762 26.5675C21.9064 25.5181 25.1667 22.2533 26.1986 18.108H22.762V18.1104ZM14.8989 18.1792C13.2944 18.1792 11.9936 16.8805 11.9936 15.2784C11.9936 13.6763 13.2944 12.3776 14.8989 12.3776C16.5034 12.3776 17.8042 13.6763 17.8042 15.2784C17.8042 16.8805 16.5034 18.1792 14.8989 18.1792Z" fill="url(#paint0_radial_248_70200)"/>
<path d="M2.10791 7.60101C3.40785 5.42144 5.24188 3.60917 7.43682 2.33534C9.63176 1.06152 12.1152 0.368182 14.6525 0.320801L14.6773 1.64827C12.3656 1.69144 10.103 2.32312 8.10325 3.48367C6.10349 4.64423 4.43255 6.29534 3.2482 8.2811L2.10791 7.60101Z" fill="#FF0000"/>
<path d="M27.7103 22.9696C26.3978 25.1417 24.5534 26.9433 22.3511 28.2044C20.1489 29.4655 17.6615 30.1445 15.1239 30.1773L15.1068 28.8497C17.4187 28.8199 19.6849 28.2012 21.6913 27.0523C23.6978 25.9033 25.3782 24.2618 26.574 22.283L27.7103 22.9696Z" fill="#FF0000"/>
<path d="M16.1642 0.369873C18.5807 0.570248 20.912 1.35614 22.9566 2.65961C25.0013 3.96309 26.6977 5.74492 27.8992 7.85107C29.1008 9.95722 29.7713 12.3243 29.8528 14.7477C29.9343 17.1711 29.4244 19.5779 28.3671 21.7601L27.1723 21.1812C28.1355 19.1931 28.6001 17.0003 28.5258 14.7924C28.4516 12.5844 27.8407 10.4278 26.746 8.50898C25.6513 6.59011 24.1057 4.96673 22.2429 3.77916C20.3801 2.5916 18.2561 1.87559 16.0544 1.69303L16.1642 0.369873Z" fill="#FF0000"/>
<path d="M13.7879 30.1368C11.3703 29.9512 9.03418 29.1796 6.98162 27.8886C4.92907 26.5976 3.22181 24.8262 2.00743 22.7274C0.793054 20.6287 0.108101 18.2657 0.0117851 15.8428C-0.0845309 13.42 0.410688 11.0101 1.45463 8.82153L2.65298 9.39315C1.70187 11.3871 1.25069 13.5827 1.33844 15.7901C1.42619 17.9975 2.05023 20.1503 3.15663 22.0625C4.26302 23.9746 5.81846 25.5886 7.6885 26.7647C9.55853 27.9409 11.6869 28.6439 13.8896 28.813L13.7879 30.1368Z" fill="#FF0000"/>
<defs>
<radialGradient id="paint0_radial_248_70200" cx="0" cy="0" r="1" gradientUnits="userSpaceOnUse" gradientTransform="translate(14.8889 15.2917) rotate(-155.486) scale(12.8124 12.8008)">
<stop offset="0.0104167" stop-color="#00FFFC"/>
<stop offset="0.208333" stop-color="#0464AC"/>
<stop offset="0.5" stop-color="#0B3471"/>
<stop offset="0.864583" stop-color="#EC2828"/>
<stop offset="0.994792" stop-color="#FF0000"/>
</radialGradient>
</defs>
</svg>
