<svg width="92" height="108" viewBox="0 0 92 108" fill="none" xmlns="http://www.w3.org/2000/svg">
<circle opacity="0.05" cx="38.5" cy="38.5" r="38.5" fill="#0063AA"/>
<path d="M76.6041 88.2223C71.9421 81.1024 67.1922 74.0703 62.4422 66.9504C59.9792 63.2585 55.6691 63.2585 53.2061 66.9504C48.5441 73.9824 43.7941 81.1024 39.1321 88.1344C37.9006 89.9803 37.6368 92.0021 38.6923 94.0238C39.7479 95.9576 41.5071 96.8366 43.7062 96.7487C48.3682 96.7487 53.0302 96.7487 57.6922 96.7487C62.4422 96.7487 67.2801 96.7487 72.0301 96.7487C73.1736 96.7487 74.1412 96.485 75.1088 95.9576C77.7476 94.3754 78.3634 90.9473 76.6041 88.2223ZM74.669 92.2658C74.3171 93.4085 73.4375 94.0238 71.9421 94.0238C68.5116 94.0238 65.169 94.0238 61.7385 94.0238H57.7802C53.1182 94.0238 48.4561 94.0238 43.8821 94.0238C43.3543 94.0238 42.9145 94.0238 42.3867 93.848C40.8914 93.3206 40.3636 91.4747 41.2432 90.0683C42.3867 88.3102 43.5302 86.6401 44.6738 84.97C48.2802 79.5202 51.9746 74.0703 55.5811 68.5326C56.0209 67.8294 56.5487 67.302 57.4283 67.1262C58.5718 66.9504 59.4515 67.4778 60.0672 68.4447C62.882 72.7518 65.7848 77.0589 68.6875 81.3661C70.5347 84.1789 72.3819 86.9917 74.3171 89.8045C74.7569 90.5956 75.0208 91.3868 74.669 92.2658ZM60.507 81.2782C59.3635 81.2782 58.3079 81.2782 57.1644 81.2782C56.8126 81.2782 56.3728 81.454 56.2848 81.1024C56.1089 80.8387 56.4607 80.4871 56.6367 80.2234C57.4283 78.9049 58.22 77.5863 59.0116 76.2678C59.4515 75.4767 59.1876 74.6856 58.4839 74.334C57.7802 73.9824 57.0765 74.1582 56.6367 74.8614C55.2293 77.2347 53.8219 79.5202 52.4145 81.8935C51.7987 82.8604 52.4145 83.9152 53.6459 84.0031C54.3496 84.0031 54.9654 84.0031 55.6691 84.0031C56.2848 84.0031 56.9005 84.0031 57.6042 84.0031C58.22 84.0031 58.22 84.1789 57.9561 84.6184C57.0765 86.0248 56.2848 87.4312 55.4052 88.8376C54.8774 89.7166 55.0533 90.5078 55.757 90.9473C56.4607 91.3868 57.2524 91.1231 57.6922 90.3319C59.0996 88.0465 60.419 85.7611 61.8264 83.4757C62.4422 82.333 61.8264 81.2782 60.507 81.2782ZM76.6041 88.2223C71.9421 81.1024 67.1922 74.0703 62.4422 66.9504C59.9792 63.2585 55.6691 63.2585 53.2061 66.9504C48.5441 73.9824 43.7941 81.1024 39.1321 88.1344C37.9006 89.9803 37.6368 92.0021 38.6923 94.0238C39.7479 95.9576 41.5071 96.8366 43.7062 96.7487C48.3682 96.7487 53.0302 96.7487 57.6922 96.7487C62.4422 96.7487 67.2801 96.7487 72.0301 96.7487C73.1736 96.7487 74.1412 96.485 75.1088 95.9576C77.7476 94.3754 78.3634 90.9473 76.6041 88.2223ZM74.669 92.2658C74.3171 93.4085 73.4375 94.0238 71.9421 94.0238C68.5116 94.0238 65.169 94.0238 61.7385 94.0238H57.7802C53.1182 94.0238 48.4561 94.0238 43.8821 94.0238C43.3543 94.0238 42.9145 94.0238 42.3867 93.848C40.8914 93.3206 40.3636 91.4747 41.2432 90.0683C42.3867 88.3102 43.5302 86.6401 44.6738 84.97C48.2802 79.5202 51.9746 74.0703 55.5811 68.5326C56.0209 67.8294 56.5487 67.302 57.4283 67.1262C58.5718 66.9504 59.4515 67.4778 60.0672 68.4447C62.882 72.7518 65.7848 77.0589 68.6875 81.3661C70.5347 84.1789 72.3819 86.9917 74.3171 89.8045C74.7569 90.5956 75.0208 91.3868 74.669 92.2658ZM60.507 81.2782C59.3635 81.2782 58.3079 81.2782 57.1644 81.2782C56.8126 81.2782 56.3728 81.454 56.2848 81.1024C56.1089 80.8387 56.4607 80.4871 56.6367 80.2234C57.4283 78.9049 58.22 77.5863 59.0116 76.2678C59.4515 75.4767 59.1876 74.6856 58.4839 74.334C57.7802 73.9824 57.0765 74.1582 56.6367 74.8614C55.2293 77.2347 53.8219 79.5202 52.4145 81.8935C51.7987 82.8604 52.4145 83.9152 53.6459 84.0031C54.3496 84.0031 54.9654 84.0031 55.6691 84.0031C56.2848 84.0031 56.9005 84.0031 57.6042 84.0031C58.22 84.0031 58.22 84.1789 57.9561 84.6184C57.0765 86.0248 56.2848 87.4312 55.4052 88.8376C54.8774 89.7166 55.0533 90.5078 55.757 90.9473C56.4607 91.3868 57.2524 91.1231 57.6922 90.3319C59.0996 88.0465 60.419 85.7611 61.8264 83.4757C62.4422 82.333 61.8264 81.2782 60.507 81.2782ZM87.1596 99.6494C86.1041 99.6494 86.1041 99.6494 86.1041 98.5946V68.181C86.1041 64.7528 86.1041 61.4126 86.1041 57.9845C86.1041 57.2813 86.28 57.0176 86.9837 57.1055C87.6874 57.1934 88.3031 57.1055 88.9189 56.8418C90.7661 56.1386 91.9976 54.2927 91.7337 52.4467C91.4698 50.3371 89.8865 48.8428 87.7754 48.7549C86.192 48.667 84.6967 48.7549 83.1134 48.7549C81.53 48.7549 81.7939 48.8428 81.7939 47.4364C81.7939 45.9421 81.7939 45.9421 83.2013 45.8542C83.2893 45.8542 83.3772 45.8542 83.4652 45.8542C84.6967 45.7663 85.4883 45.151 85.9282 44.0083C86.368 42.8656 86.0161 41.8107 85.1365 40.9317C84.8726 40.668 84.5208 40.4922 84.3448 40.0527C85.4883 39.5253 86.192 38.6463 86.192 37.3278C86.192 36.0093 85.2245 35.2182 84.2569 34.4271C86.8078 33.0207 86.5439 30.3837 84.6087 29.0651C83.7291 28.4498 82.9374 27.6587 82.0578 26.9555C81.4421 26.4281 80.6504 26.0765 79.7708 26.0765C79.155 26.1644 78.9791 25.9007 79.0671 25.2854C79.155 24.4064 78.8912 23.6153 78.0995 23.1758H77.2199C76.4282 23.3516 75.8125 23.7911 75.7245 24.758C75.7245 25.2854 75.2847 25.5491 74.8449 25.637C74.2292 25.8128 73.7014 25.9886 73.1736 26.3402C72.0301 27.2193 70.9745 28.1861 69.919 29.153C68.3357 30.5595 68.2477 32.2296 69.5671 33.8118C69.919 34.2513 69.919 34.6029 69.5671 35.1303C68.3357 36.5367 68.3357 37.9431 69.4792 39.4374C69.919 39.9648 69.919 40.4043 69.4792 40.9317C68.8634 41.6349 68.5116 42.514 68.7755 43.5688C69.1273 45.151 70.0949 46.03 71.7662 46.2058C72.294 46.2937 72.7338 46.2937 72.9097 46.909C73.1736 47.7001 72.7338 48.3154 71.7662 48.3154C70.0949 48.4033 68.4236 48.3154 66.7523 48.3154C65.6968 48.3154 64.7292 48.3154 63.6737 48.3154C62.882 48.2275 62.5301 47.8759 62.6181 47.0848C62.7061 46.2937 63.2338 46.2058 63.8496 46.2058C65.0811 46.1179 65.9607 45.4147 66.4005 44.3599C66.9283 43.3051 66.8403 42.1624 66.1366 41.1076C65.4329 40.1406 65.4329 40.1406 66.1366 39.1737C66.9283 38.031 66.9283 36.4488 66.1366 35.394C65.5209 34.515 65.5209 34.515 66.1366 33.636C67.1042 32.1417 67.0162 30.6474 65.7848 29.3289C64.9931 28.4499 64.0255 27.8345 63.1459 27.0434C62.3542 26.3402 61.5626 25.7249 60.507 25.5491C59.9792 25.4612 59.6274 25.1096 59.6274 24.5822C59.6274 23.7032 59.0996 23.3516 58.3079 23.1758H57.3404C56.5487 23.3516 56.1089 23.7032 56.0209 24.5822C56.0209 25.1975 55.6691 25.4612 55.0533 25.5491C54.3496 25.637 53.8219 25.9007 53.2941 26.3402C52.2385 27.3072 51.095 28.1861 50.0395 29.153C48.5441 30.6474 48.4561 32.0538 49.6876 33.7239C50.0395 34.2513 50.0395 34.6029 49.6876 35.1303C48.5441 36.5367 48.5441 37.8552 49.5997 39.2616C50.0395 39.8769 50.0395 40.3165 49.5997 40.8439C48.72 41.8108 48.6321 43.0414 49.1598 44.1841C49.6876 45.2389 50.4793 45.9421 51.7987 46.03C52.6783 46.03 53.0302 46.3816 53.0302 47.0848C53.0302 47.788 52.6783 48.1396 51.8867 48.1396C49.2478 48.1396 46.521 48.1396 43.8821 48.1396C43.0904 48.1396 42.7386 47.788 42.7386 47.1727C42.7386 46.4695 43.0904 46.1179 43.8821 46.03C44.4099 46.03 44.9376 45.9421 45.4654 45.5905C47.0487 44.5357 47.4886 42.514 46.2571 40.8439C45.9052 40.3165 45.7293 39.8769 46.1691 39.2616C47.3126 37.9431 47.2247 36.1851 46.0812 34.9545C45.6413 34.4271 45.7293 34.0755 46.0812 33.5481C47.3126 32.0538 47.2247 30.3837 45.8173 29.0651C45.1136 28.3619 44.3219 27.7466 43.5302 27.1313C42.6506 26.3402 41.771 25.637 40.5395 25.3733C40.0997 25.2854 39.8358 25.0217 39.8358 24.5822C39.7479 23.6153 39.2201 23.2637 38.3405 23H37.6368C36.8451 23.4395 36.5812 24.1427 36.6692 25.0217C36.7571 25.637 36.5812 25.9007 35.8775 25.9007C35.1738 25.8128 34.4701 26.0765 33.9423 26.516C32.7988 27.4829 31.5673 28.4498 30.5118 29.5046C29.7201 30.2079 29.4562 31.2627 29.7201 32.3175C29.984 33.1965 30.5998 33.8118 31.5673 34.2513C30.5998 35.0424 29.6322 35.8335 29.6322 37.152C29.6322 38.4705 30.3359 39.3495 31.5673 39.9649C31.2155 40.3165 30.9516 40.4923 30.6877 40.756C29.8081 41.5471 29.4562 42.6019 29.8081 43.7446C30.1599 44.8873 31.0396 45.5026 32.271 45.6784C32.7988 45.7663 33.5025 45.4147 33.8544 45.8542C34.2062 46.2937 33.9423 46.9969 33.9423 47.5243C33.9423 48.5791 33.9423 48.5791 32.8868 48.5791C31.2155 48.5791 29.4562 48.4912 27.785 48.667C25.41 48.8428 23.6507 51.2161 24.0905 53.5016C24.5304 55.6991 26.2016 57.0176 28.5766 57.1055C29.7201 57.1055 29.6322 56.9297 29.6322 58.1603C29.6322 71.3454 29.6322 84.6184 29.6322 97.8035C29.6322 98.3309 29.8961 99.0341 29.4562 99.4736C29.1044 99.8252 28.4007 99.5615 27.8729 99.6494C25.41 99.8252 23.5628 102.199 24.0905 104.572C24.5304 106.769 26.2016 108 28.4887 108H87.4235C87.5994 108 87.7754 108 88.0393 108C90.5902 107.824 92.4374 105.363 91.9096 102.902C91.2059 100.88 89.6226 99.7373 87.1596 99.6494ZM75.3727 28.9773C75.7245 28.7136 76.2523 28.9773 76.7801 28.8894C79.155 28.5378 81.0023 29.241 82.5856 30.999C82.7615 31.1748 83.0254 31.3506 83.3772 31.7022C79.5069 31.7901 75.9004 31.6143 72.206 31.7901C72.206 31.7022 72.118 31.6143 72.118 31.6143C73.1736 30.7353 74.2291 29.7684 75.3727 28.9773ZM73.8773 35.7456C74.8449 34.7787 75.9004 34.515 77.2199 34.4271C79.0671 34.3392 80.6504 34.6908 81.9698 36.1851C82.3217 36.5367 82.6735 36.8004 83.1134 37.152C83.1134 37.2399 83.1134 37.3278 83.0254 37.3278C79.4189 37.4157 75.8125 37.2399 71.9421 37.5036C72.6458 36.7125 73.3495 36.3609 73.8773 35.7456ZM71.9421 43.0414C73.0856 42.0745 74.1412 41.1955 75.1967 40.3165C75.3727 40.1406 75.6366 40.1406 75.8125 40.1406C77.0439 40.1406 78.2754 40.1406 79.4189 40.1406C79.5949 40.1406 79.8587 40.1406 80.0347 40.3165C81.0902 41.1076 82.0578 41.9866 83.0254 42.8656C83.0254 42.9535 82.9374 42.9535 82.9374 43.0414H71.9421ZM76.2523 47.2606C76.2523 45.8542 76.2523 45.8542 77.6597 45.8542C79.155 45.8542 79.155 45.8542 79.155 47.3485C79.155 48.8428 79.4189 48.7549 77.7476 48.7549C75.9004 48.7549 76.2523 48.9307 76.2523 47.2606ZM53.382 30.6474C54.7015 29.1531 56.2848 28.6257 58.3079 28.8015C59.6274 28.8894 60.6829 29.0651 61.6505 30.0321C62.1783 30.5595 62.794 30.999 63.4098 31.5264C59.7153 31.7901 56.1089 31.6143 52.4145 31.878C52.5024 31.2627 53.0302 30.999 53.382 30.6474ZM53.558 36.1851C54.7894 34.7787 56.2848 34.3392 58.132 34.4271C59.5394 34.515 60.7709 34.6908 61.7385 35.8335C62.1783 36.3609 62.794 36.7125 63.3218 37.2399C59.6274 37.5036 56.0209 37.3278 52.3265 37.5915C52.5904 36.8004 53.2061 36.6246 53.558 36.1851ZM52.1506 43.0414C53.2941 42.0745 54.2617 41.2834 55.3172 40.4044C55.4931 40.2286 55.757 40.2285 56.0209 40.2285C56.5487 40.2285 57.0765 40.3164 57.6042 40.2285C60.2431 39.7011 61.6505 41.4591 63.4977 43.1293H52.1506V43.0414ZM59.2755 47.3485C59.2755 47.6122 59.2755 47.8759 59.2755 48.0517C59.2755 48.4912 59.0996 48.667 58.6598 48.667C56.3728 48.8428 56.1968 48.5791 56.3728 46.3816C56.3728 45.9421 56.5487 45.7663 56.9885 45.8542C57.2524 45.8542 57.5163 45.8542 57.7802 45.8542C59.4515 45.8542 59.2755 45.5905 59.2755 47.3485ZM35.6136 28.9773C35.7016 28.8894 35.9655 28.8894 36.1414 28.8894C36.6692 28.8894 37.2849 28.9773 37.8127 28.8894C40.4516 28.362 41.771 30.2079 43.6182 31.7901C39.7479 31.878 36.1414 31.7022 32.5349 31.9659C32.5349 31.878 32.447 31.7901 32.447 31.7022C33.5025 30.7353 34.5581 29.8563 35.6136 28.9773ZM34.1183 35.8335C35.0858 34.6908 36.3173 34.4271 37.8127 34.4271C39.6599 34.3392 41.0673 34.7787 42.2988 36.0972C42.6506 36.4488 43.0904 36.8004 43.4423 37.152C43.4423 37.2399 43.4423 37.3278 43.3543 37.3278C39.7479 37.4157 36.1414 37.2399 32.271 37.5036C32.8868 36.8004 33.5905 36.4488 34.1183 35.8335ZM32.359 43.0414C33.5025 42.0745 34.3821 40.9317 35.5257 40.4922C37.109 39.8769 38.9562 39.8769 40.5395 40.4922C41.683 40.9317 42.5627 42.0744 43.4423 43.1293H32.359V43.0414ZM38.0766 45.8542C39.484 45.8542 39.484 45.8542 39.484 47.1727C39.484 48.667 39.484 48.7549 37.9886 48.667C36.3173 48.667 36.6692 48.7549 36.5812 47.3485C36.5812 45.8542 36.5812 45.8542 38.0766 45.8542ZM28.9285 54.3806C28.4887 54.3806 28.1368 54.3806 27.697 54.2927C26.9933 54.029 26.6415 53.5015 26.7294 52.7983C26.8174 52.0951 27.2572 51.5677 28.0488 51.4798C28.3127 51.4798 28.6646 51.4798 28.9285 51.4798H86.7198C86.9837 51.4798 87.2476 51.4798 87.4235 51.4798C88.3031 51.4798 88.9189 52.0072 89.0068 52.8862C89.0068 53.6773 88.4791 54.2927 87.5115 54.3806C87.2476 54.3806 86.9837 54.3806 86.8078 54.3806H28.9285ZM87.7754 105.275C87.5115 105.363 87.1596 105.275 86.8957 105.275C77.2199 105.275 67.544 105.275 57.8681 105.275C48.1923 105.275 38.6043 105.275 28.9285 105.275C28.5766 105.275 28.2248 105.275 27.9609 105.275C27.2572 105.187 26.7294 104.484 26.7294 103.781C26.7294 103.078 27.3451 102.462 28.1368 102.374C28.8405 102.374 29.5442 102.374 30.3359 102.374C33.2386 102.374 36.2294 102.374 39.1321 102.374C39.5719 102.374 40.0117 102.374 40.3636 102.023C40.8034 101.671 40.9793 101.144 40.8034 100.528C40.6275 99.8252 40.0997 99.5615 39.396 99.5615C37.5488 99.5615 35.7016 99.5615 33.9423 99.5615C32.1831 99.5615 32.359 99.8252 32.359 97.9793C32.359 84.8821 32.359 71.697 32.359 58.5998C32.359 58.3361 32.359 58.0724 32.359 57.8966C32.271 57.2813 32.5349 57.0176 33.1507 57.1055C34.0303 57.1934 34.9979 57.1934 35.8775 57.1055C36.4932 57.1055 36.7571 57.1934 36.6692 57.8966C36.5812 58.5998 36.6692 59.2151 36.6692 59.9183C36.6692 60.7973 37.1969 61.3247 37.9886 61.3247C38.7803 61.3247 39.308 60.7973 39.396 59.9183C39.396 59.2151 39.396 58.5119 39.396 57.7208C39.396 57.2813 39.5719 57.1055 40.0117 57.1055C40.9793 57.1055 42.0349 57.1055 43.0025 57.1055C47.2247 57.1055 51.4469 57.1055 55.5811 57.1055C56.1968 57.1055 56.4607 57.2813 56.4607 57.8966C56.3728 58.5119 56.4607 59.2151 56.4607 59.9183C56.5487 60.7973 57.0765 61.3247 57.8681 61.3247C58.6598 61.3247 59.0996 60.7973 59.1876 59.9183C59.2755 59.2151 59.2755 58.5119 59.1876 57.8087C59.1876 57.1934 59.3635 57.1055 59.9792 57.1055C63.9375 57.1055 67.9838 57.1055 71.9421 57.1055C73.1736 57.1055 74.4051 57.1055 75.5486 57.1055C76.0764 57.1055 76.2523 57.2813 76.2523 57.8087C76.2523 58.5119 76.2523 59.2151 76.2523 59.9183C76.2523 60.7973 76.7801 61.3247 77.6597 61.3247C78.4513 61.3247 78.9791 60.7973 79.0671 59.9183C79.0671 59.2151 79.0671 58.5119 79.0671 57.8087C79.0671 57.3692 79.155 57.1055 79.6828 57.1055C80.7384 57.1055 81.706 57.1055 82.7615 57.1055C83.2013 57.1055 83.3772 57.2813 83.3772 57.7208C83.3772 57.8966 83.3772 58.1603 83.3772 58.424V98.4188C83.3772 98.5946 83.3772 98.7704 83.3772 99.0341C83.3772 99.4736 83.2013 99.7373 82.6735 99.7373C82.4097 99.7373 82.1458 99.7373 81.9698 99.7373H47.3126C47.0487 99.7373 46.6969 99.7373 46.433 99.7373C45.6413 99.8252 45.1136 100.353 45.1136 101.056C45.1136 101.671 45.6413 102.374 46.345 102.462C46.6089 102.55 46.9608 102.462 47.2247 102.462C60.419 102.462 73.6134 102.462 86.8078 102.462C87.0717 102.462 87.3356 102.462 87.5994 102.462C88.3911 102.55 89.0068 103.078 89.0068 103.869C89.0068 104.572 88.4791 105.187 87.7754 105.275ZM57.7802 96.8366C62.5301 96.8366 67.3681 96.8366 72.118 96.8366C73.2616 96.8366 74.2291 96.5729 75.1967 96.0455C77.7476 94.3754 78.3634 91.0352 76.6041 88.3102C71.9421 81.1903 67.1922 74.1582 62.4422 67.0383C59.9792 63.3464 55.6691 63.3464 53.2061 67.0383C48.5441 74.0703 43.7941 81.1903 39.1321 88.2223C37.9006 90.0683 37.6368 92.09 38.6923 94.1117C39.7479 96.0455 41.5071 96.9245 43.7062 96.8366C48.3682 96.7487 53.1182 96.8366 57.7802 96.8366ZM42.3867 93.848C40.8914 93.3206 40.3636 91.4747 41.2432 90.0683C42.3867 88.3102 43.5302 86.6401 44.6738 84.97C48.2802 79.5202 51.9746 74.0703 55.5811 68.5326C56.0209 67.8294 56.5487 67.302 57.4283 67.1262C58.5718 66.9504 59.4515 67.4778 60.0672 68.4447C62.882 72.7518 65.7848 77.0589 68.6875 81.3661C70.5347 84.1789 72.3819 86.9917 74.3171 89.8045C74.8449 90.5956 75.0208 91.3867 74.7569 92.3537C74.4051 93.4964 73.5254 94.1117 72.0301 94.1117C68.5995 94.1117 65.257 94.1117 61.8264 94.1117H57.8681C53.2061 94.1117 48.5441 94.1117 43.9701 94.1117C43.3543 94.0238 42.9145 94.0238 42.3867 93.848ZM60.507 81.2782C59.3635 81.2782 58.3079 81.2782 57.1644 81.2782C56.8126 81.2782 56.3728 81.454 56.2848 81.1024C56.1089 80.8387 56.4607 80.4871 56.6367 80.2234C57.4283 78.9049 58.22 77.5863 59.0116 76.2678C59.4515 75.4767 59.1876 74.6856 58.4839 74.334C57.7802 73.9824 57.0765 74.1582 56.6367 74.8614C55.2293 77.2347 53.8219 79.5202 52.4145 81.8935C51.7987 82.8604 52.4145 83.9152 53.6459 84.0031C54.3496 84.0031 54.9654 84.0031 55.6691 84.0031C56.2848 84.0031 56.9005 84.0031 57.6042 84.0031C58.22 84.0031 58.22 84.1789 57.9561 84.6184C57.0765 86.0248 56.2848 87.4312 55.4052 88.8376C54.8774 89.7166 55.0533 90.5078 55.757 90.9473C56.4607 91.3868 57.2524 91.1231 57.6922 90.3319C59.0996 88.0465 60.419 85.7611 61.8264 83.4757C62.4422 82.333 61.8264 81.2782 60.507 81.2782Z" fill="#0063AA"/>
</svg>
