<svg width="69" height="69" viewBox="0 0 69 69" fill="none" xmlns="http://www.w3.org/2000/svg">
<circle cx="34.793" cy="34.0171" r="34" fill="white"/>
<path d="M55.7433 35.8547C55.7433 35.0547 55.6433 34.8547 54.9433 34.6547C52.2433 33.8547 49.5433 32.9547 46.7433 32.0547C46.0433 31.8547 45.4433 31.7547 44.8433 32.0547C44.6433 32.1547 44.5433 32.1547 44.4433 31.8547C44.1433 30.6547 43.7433 29.4547 43.1433 28.2547C42.3433 26.5547 41.3433 25.0547 40.0433 23.6547C39.5433 23.0547 38.8433 22.8547 38.1433 23.1547C37.4433 23.3547 37.0433 23.8547 36.9433 24.6547C36.9433 24.9547 36.9433 25.2547 36.9433 25.5547C36.8433 27.0547 36.3433 28.2547 35.2433 29.2547C35.1433 29.3547 35.1433 29.4547 34.9433 29.3547C34.9433 28.3547 34.9433 27.3547 34.9433 26.3547C34.9433 24.1547 34.5433 22.1547 33.7433 20.1547C32.6433 17.4547 30.8433 15.1547 28.4433 13.3547H27.8433C27.2433 13.5547 27.1433 13.6547 27.1433 14.3547C27.1433 14.8547 27.0433 15.3547 27.0433 15.7547C26.7433 18.5547 25.6433 20.9547 23.9433 23.1547C22.0433 25.4547 20.8433 28.1547 20.3433 31.0547C20.2433 31.4547 20.2433 31.9547 20.1433 32.4547C19.9433 32.1547 19.8433 31.7547 19.6433 31.4547C19.4433 30.9547 19.3433 30.3547 19.1433 29.7547C18.9433 29.1547 18.5433 28.7547 17.8433 28.6547C17.1433 28.5547 16.6433 28.8547 16.2433 29.4547C15.8433 30.1547 15.4433 30.9547 15.1433 31.6547C14.5433 33.0547 14.1433 34.4547 13.9433 35.9547C13.8433 36.6547 13.8433 37.3547 13.8433 37.9547V40.6547C13.9433 41.3547 14.0433 41.9547 14.1433 42.6547C14.3433 43.5547 14.5433 44.3547 14.8433 45.1547C15.0433 45.5547 15.4433 45.7547 15.8433 45.6547C16.2433 45.5547 16.5433 45.1547 16.3433 44.6547C16.3433 44.5547 16.2433 44.3547 16.2433 44.2547C15.7433 42.8547 15.4433 41.4547 15.4433 39.9547C15.3433 36.9547 15.9433 34.1547 17.2433 31.4547C17.2433 31.3547 17.3433 31.2547 17.4433 31.1547C17.5433 31.3547 17.5433 31.5547 17.6433 31.7547C18.1433 33.3547 19.0433 34.6547 20.3433 35.6547C20.8433 36.0547 21.5433 35.8547 21.6433 35.3547C21.7433 35.1547 21.7433 34.9547 21.7433 34.7547C21.7433 33.5547 21.8433 32.3547 22.0433 31.2547C22.5433 28.5547 23.7433 26.1547 25.4433 23.9547C27.0433 21.9547 28.0433 19.6547 28.5433 17.1547C28.6433 16.7547 28.7433 16.2547 28.7433 15.8547C28.7433 15.8547 28.8433 15.8547 28.8433 15.7547C28.9433 15.8547 29.0433 16.0547 29.1433 16.1547C30.5433 17.6547 31.5433 19.2547 32.2433 21.1547C32.8433 22.8547 33.1433 24.5547 33.1433 26.2547C33.1433 27.7547 33.1433 29.1547 33.1433 30.6547C33.1433 31.4547 33.7433 31.7547 34.4433 31.4547C36.5433 30.4547 37.8433 28.7547 38.3433 26.3547C38.4433 25.8547 38.4433 25.3547 38.4433 24.8547C38.4433 24.7547 38.4433 24.6547 38.5433 24.6547C38.6433 24.6547 38.7433 24.6547 38.7433 24.7547L38.8433 24.8547C40.7433 26.9547 41.9433 29.3547 42.6433 32.0547C42.7433 32.5547 42.7433 32.5547 42.2433 32.6547C40.2433 33.2547 38.3433 33.8547 36.3433 34.4547C35.7433 34.6547 35.5433 34.8547 35.5433 35.4547C35.5433 37.7547 35.5433 40.1547 35.5433 42.4547C35.5433 43.2547 35.5433 44.0547 35.7433 44.8547C35.5433 44.4547 35.3433 44.1547 35.1433 43.7547C34.3433 42.3547 33.3433 40.9547 32.7433 39.3547C32.3433 38.2547 32.0433 37.1547 32.3433 36.0547C32.4433 35.6547 32.3433 35.3547 32.0433 35.0547C31.7433 34.7547 31.3433 34.8547 31.0433 35.0547C29.7433 35.6547 28.7433 36.5547 27.9433 37.7547C27.6433 38.2547 27.3433 38.7547 27.1433 39.2547C27.0433 39.1547 26.9433 39.0547 26.8433 39.0547C26.1433 38.4547 25.4433 38.0547 24.5433 37.9547C24.0433 37.8547 23.6433 38.1547 23.6433 38.5547C23.6433 38.7547 23.6433 38.9547 23.7433 39.1547C24.3433 40.9547 24.1433 42.6547 23.2433 44.2547C21.9433 46.6547 22.0433 49.1547 23.4433 51.4547C23.4433 51.5547 23.6433 51.5547 23.5433 51.7547C23.4433 51.7547 23.3433 51.6547 23.2433 51.6547C22.2433 51.1547 21.4433 50.6547 20.5433 49.9547C20.3433 49.7547 20.0433 49.5547 19.7433 49.6547C19.3433 49.7547 19.1433 49.9547 19.0433 50.2547C18.9433 50.6547 19.1433 50.9547 19.4433 51.1547C22.0433 53.2547 24.9433 54.4547 28.3433 54.6547C32.2433 54.8547 35.7433 53.8547 38.7433 51.4547C38.9433 51.2547 39.1433 51.2547 39.3433 51.4547C40.9433 53.0547 42.8433 54.0547 44.9433 54.5547C45.2433 54.6547 45.5433 54.6547 45.8433 54.6547C51.5433 53.4547 55.5433 48.5547 55.5433 42.7547C55.7433 40.7547 55.7433 38.2547 55.7433 35.8547ZM30.4433 53.3547C27.1433 53.9547 24.1433 51.4547 24.0433 48.1547C24.0433 47.1547 24.2433 46.2547 24.7433 45.3547C25.4433 44.0547 25.7433 42.6547 25.7433 41.2547C25.7433 41.0547 25.7433 40.8547 25.7433 40.5547C26.2433 40.9547 26.6433 41.4547 26.8433 42.0547C26.9433 42.1547 26.9433 42.3547 27.0433 42.4547C27.2433 42.7547 27.6433 42.8547 27.9433 42.7547C28.3433 42.6547 28.5433 42.2547 28.5433 41.9547C28.3433 41.1547 28.6433 40.5547 28.9433 39.8547C29.3433 39.0547 29.9433 38.2547 30.6433 37.6547C30.7433 38.0547 30.7433 38.3547 30.8433 38.7547C31.1433 40.0547 31.7433 41.2547 32.3433 42.4547C32.8433 43.3547 33.4433 44.2547 33.9433 45.1547C36.0433 48.3547 34.1433 52.6547 30.4433 53.3547ZM38.0433 50.4547C37.1433 51.1547 36.2433 51.6547 35.2433 52.1547C36.1433 50.6547 36.6433 49.1547 36.5433 47.3547C36.9433 48.3547 37.4433 49.3547 38.0433 50.1547C38.1433 50.2547 38.1433 50.3547 38.0433 50.4547ZM54.0433 43.1547C54.0433 47.9547 50.8433 52.0547 46.1433 53.2547C45.8433 53.3547 45.5433 53.3547 45.2433 53.2547C41.0433 52.0547 38.4433 49.2547 37.5433 45.0547C37.4433 44.4547 37.3433 43.7547 37.3433 43.0547C37.3433 42.0547 37.3433 41.0547 37.3433 39.9547C37.3433 38.7547 37.3433 37.5547 37.3433 36.4547C37.3433 36.1547 37.4433 36.0547 37.6433 36.0547C40.2433 35.2547 42.7433 34.4547 45.3433 33.6547C45.5433 33.5547 45.7433 33.5547 45.9433 33.6547C48.5433 34.4547 51.0433 35.2547 53.6433 36.0547C53.8433 36.1547 53.9433 36.2547 53.9433 36.5547C54.0433 38.7547 54.1433 40.9547 54.0433 43.1547Z" fill="#E1292C"/>
<path d="M17.5432 47.2548C17.1432 47.2548 16.7432 47.6547 16.7432 48.0547C16.7432 48.5547 17.1432 48.8548 17.5432 48.8548C17.9432 48.8548 18.3432 48.4547 18.3432 48.0547C18.3432 47.6547 17.9432 47.2548 17.5432 47.2548Z" fill="#E1292C"/>
<path d="M51.7431 37.1548C49.8431 36.5548 47.9431 35.9548 46.1431 35.3548C45.9431 35.2548 45.6431 35.2548 45.4431 35.3548C43.5431 35.9548 41.6431 36.5548 39.7431 37.1548C39.2431 37.2548 39.0431 37.5548 39.0431 38.0548C39.0431 39.0548 39.0431 39.9548 39.0431 41.1548C39.0431 42.0548 38.9431 43.2548 39.1431 44.4548C39.5431 47.8548 42.1431 50.8548 45.4431 51.7548C45.6431 51.8548 45.8431 51.8548 46.0431 51.7548C49.6431 50.7548 52.4431 47.2548 52.4431 43.4548C52.4431 41.6548 52.4431 39.9548 52.4431 38.1548C52.4431 37.5548 52.3431 37.2548 51.7431 37.1548ZM50.6431 44.6548C50.0431 47.2548 48.5431 49.0548 46.0431 49.9548C45.8431 50.0548 45.6431 50.0548 45.5431 49.9548C42.8431 48.8548 41.2431 46.9548 40.8431 44.0548C40.6431 42.3548 40.8431 40.5548 40.7431 38.7548C40.7431 38.5548 40.8431 38.5548 40.9431 38.4548C42.5431 37.9548 44.0431 37.4548 45.6431 36.9548C45.7431 36.9548 45.9431 36.9548 46.0431 36.9548C47.5431 37.4548 49.0431 37.8548 50.5431 38.3548C50.7431 38.4548 50.8431 38.5548 50.8431 38.7548C50.8431 39.5548 50.8431 40.2548 50.8431 41.2548C50.8431 42.3548 50.9431 43.4548 50.6431 44.6548Z" fill="#E1292C"/>
<path d="M48.7432 40.8548C48.3432 40.6548 48.0432 40.7548 47.7432 41.0548C46.9432 41.8548 46.0432 42.6548 45.2432 43.5548C45.0432 43.7548 44.9432 43.7548 44.7432 43.5548C44.4432 43.1548 44.0432 42.8548 43.6432 42.4548C43.4432 42.2548 43.0432 42.1548 42.7432 42.3548C42.4432 42.4548 42.2432 42.7548 42.2432 43.1548C42.2432 43.3548 42.3432 43.5548 42.5432 43.7548C43.1432 44.3548 43.7432 44.9548 44.3432 45.5548C44.7432 45.9548 45.2432 45.9548 45.6432 45.5548C46.7432 44.4548 47.8432 43.4548 48.8432 42.3548C48.9432 42.2548 49.1432 42.0548 49.1432 41.8548C49.2432 41.3548 49.0432 41.0548 48.7432 40.8548Z" fill="#E1292C"/>
</svg>
