<svg width="60" height="35" viewBox="0 0 60 35" fill="none" xmlns="http://www.w3.org/2000/svg">
<path d="M1.80527 17.4923L45.6819 17.4923L41.7273 21.4437C41.4113 21.7595 41.4113 22.2777 41.7273 22.5935C41.8023 22.6686 41.8913 22.7281 41.9894 22.7688C42.0874 22.8094 42.1925 22.8303 42.2986 22.8303C42.4048 22.8303 42.5099 22.8094 42.6079 22.7688C42.7059 22.7281 42.795 22.6686 42.8699 22.5935L48.2103 17.2575C48.2854 17.1826 48.345 17.0936 48.3857 16.9957C48.4263 16.8977 48.4473 16.7927 48.4473 16.6866C48.4473 16.5806 48.4263 16.4756 48.3857 16.3776C48.345 16.2797 48.2854 16.1907 48.2103 16.1158L42.8699 10.7798C42.7949 10.7048 42.7059 10.6453 42.6078 10.6048C42.5098 10.5642 42.4047 10.5433 42.2986 10.5433C42.1925 10.5433 42.0875 10.5642 41.9894 10.6048C41.8914 10.6453 41.8024 10.7048 41.7273 10.7798C41.6523 10.8547 41.5928 10.9437 41.5522 11.0417C41.5116 11.1396 41.4907 11.2446 41.4907 11.3506C41.4907 11.4566 41.5116 11.5616 41.5522 11.6596C41.5928 11.7575 41.6523 11.8465 41.7273 11.9215L45.6819 15.8729L1.80527 15.8729C1.35957 15.8729 0.9949 16.2373 0.9949 16.6826C0.9949 17.1279 1.35957 17.4923 1.80527 17.4923Z" fill="white"/>
<circle cx="42.9777" cy="17.2836" r="16.5177" stroke="white"/>
</svg>
