<svg width="93" height="100" viewBox="0 0 93 100" fill="none" xmlns="http://www.w3.org/2000/svg">
<circle opacity="0.05" cx="38.5" cy="38.5" r="38.5" fill="#0063AA"/>
<path d="M79.8682 83.2472C75.8918 77.2161 71.8404 71.2596 67.7889 65.2285C65.6882 62.1013 62.0119 62.1013 59.9111 65.2285C55.9347 71.1851 51.8832 77.2161 47.9068 83.1727C46.8564 84.7363 46.6314 86.4488 47.5317 88.1613C48.432 89.7994 49.9325 90.5439 51.8082 90.4695C55.7846 90.4695 59.761 90.4695 63.7375 90.4695C67.7889 90.4695 71.9154 90.4695 75.9668 90.4695C76.9422 90.4695 77.7675 90.2461 78.5928 89.7994C80.8436 88.4591 81.3688 85.5553 79.8682 83.2472ZM78.2176 86.6722C77.9175 87.6401 77.1673 88.1613 75.8918 88.1613C72.9658 88.1613 70.1147 88.1613 67.1887 88.1613H63.8125C59.8361 88.1613 55.8597 88.1613 51.9583 88.1613C51.5081 88.1613 51.133 88.1613 50.6828 88.0124C49.4073 87.5657 48.9572 86.0021 49.7075 84.8108C50.6828 83.3216 51.6581 81.9069 52.6335 80.4922C55.7096 75.8759 58.8607 71.2596 61.9368 66.5688C62.312 65.9731 62.7621 65.5264 63.5124 65.3775C64.4877 65.2285 65.238 65.6753 65.7632 66.4943C68.1641 70.1427 70.6399 73.7911 73.1158 77.4395C74.6914 79.8221 76.2669 82.2048 77.9175 84.5874C78.2927 85.2575 78.5177 85.9276 78.2176 86.6722ZM66.1383 77.3651C65.163 77.3651 64.2627 77.3651 63.2873 77.3651C62.9872 77.3651 62.6121 77.514 62.537 77.2161C62.387 76.9928 62.6871 76.6949 62.8371 76.4716C63.5124 75.3547 64.1876 74.2378 64.8629 73.121C65.238 72.4509 65.0129 71.7808 64.4127 71.4829C63.8125 71.1851 63.2123 71.334 62.8371 71.9297C61.6367 73.94 60.4363 75.8759 59.2359 77.8862C58.7107 78.7053 59.2359 79.5987 60.2862 79.6732C60.8864 79.6732 61.4116 79.6732 62.0119 79.6732C62.537 79.6732 63.0622 79.6732 63.6624 79.6732C64.1876 79.6732 64.1876 79.8221 63.9625 80.1944C63.2123 81.3857 62.537 82.577 61.7868 83.7683C61.3366 84.5129 61.4867 85.183 62.0869 85.5553C62.6871 85.9276 63.3623 85.7042 63.7375 85.0341C64.9379 83.0982 66.0633 81.1624 67.2637 79.2265C67.7889 78.2585 67.2637 77.3651 66.1383 77.3651ZM79.8682 83.2472C75.8918 77.2161 71.8404 71.2596 67.7889 65.2285C65.6882 62.1013 62.0119 62.1013 59.9111 65.2285C55.9347 71.1851 51.8832 77.2161 47.9068 83.1727C46.8564 84.7363 46.6314 86.4488 47.5317 88.1613C48.432 89.7994 49.9325 90.5439 51.8082 90.4695C55.7846 90.4695 59.761 90.4695 63.7375 90.4695C67.7889 90.4695 71.9154 90.4695 75.9668 90.4695C76.9422 90.4695 77.7675 90.2461 78.5928 89.7994C80.8436 88.4591 81.3688 85.5553 79.8682 83.2472ZM78.2176 86.6722C77.9175 87.6401 77.1673 88.1613 75.8918 88.1613C72.9658 88.1613 70.1147 88.1613 67.1887 88.1613H63.8125C59.8361 88.1613 55.8597 88.1613 51.9583 88.1613C51.5081 88.1613 51.133 88.1613 50.6828 88.0124C49.4073 87.5657 48.9572 86.0021 49.7075 84.8108C50.6828 83.3216 51.6581 81.9069 52.6335 80.4922C55.7096 75.8759 58.8607 71.2596 61.9368 66.5688C62.312 65.9731 62.7621 65.5264 63.5124 65.3775C64.4877 65.2285 65.238 65.6753 65.7632 66.4943C68.1641 70.1427 70.6399 73.7911 73.1158 77.4395C74.6914 79.8221 76.2669 82.2048 77.9175 84.5874C78.2927 85.2575 78.5177 85.9276 78.2176 86.6722ZM66.1383 77.3651C65.163 77.3651 64.2627 77.3651 63.2873 77.3651C62.9872 77.3651 62.6121 77.514 62.537 77.2161C62.387 76.9928 62.6871 76.6949 62.8371 76.4716C63.5124 75.3547 64.1876 74.2378 64.8629 73.121C65.238 72.4509 65.0129 71.7808 64.4127 71.4829C63.8125 71.1851 63.2123 71.334 62.8371 71.9297C61.6367 73.94 60.4363 75.8759 59.2359 77.8862C58.7107 78.7053 59.2359 79.5987 60.2862 79.6732C60.8864 79.6732 61.4116 79.6732 62.0119 79.6732C62.537 79.6732 63.0622 79.6732 63.6624 79.6732C64.1876 79.6732 64.1876 79.8221 63.9625 80.1944C63.2123 81.3857 62.537 82.577 61.7868 83.7683C61.3366 84.5129 61.4867 85.183 62.0869 85.5553C62.6871 85.9276 63.3623 85.7042 63.7375 85.0341C64.9379 83.0982 66.0633 81.1624 67.2637 79.2265C67.7889 78.2585 67.2637 77.3651 66.1383 77.3651ZM88.8715 92.9266C87.9711 92.9266 87.9711 92.9266 87.9711 92.0331V66.2709C87.9711 63.3671 87.9711 60.5378 87.9711 57.6339C87.9711 57.0383 88.1212 56.8149 88.7214 56.8894C89.3216 56.9638 89.8468 56.8893 90.372 56.666C91.9476 56.0703 92.9979 54.5067 92.7728 52.9431C92.5478 51.1561 91.1973 49.8904 89.3966 49.8159C88.0462 49.7415 86.7707 49.8159 85.4202 49.8159C84.0697 49.8159 84.2948 49.8904 84.2948 48.6991C84.2948 47.4333 84.2948 47.4333 85.4952 47.3588C85.5703 47.3588 85.6453 47.3588 85.7203 47.3588C86.7707 47.2844 87.4459 46.7632 87.8211 45.7952C88.1962 44.8273 87.8961 43.9338 87.1458 43.1892C86.9208 42.9659 86.6206 42.817 86.4706 42.4447C87.4459 41.9979 88.0462 41.2534 88.0462 40.1365C88.0462 39.0197 87.2209 38.3495 86.3956 37.6794C88.5713 36.4881 88.3463 34.2544 86.6957 33.1375C85.9454 32.6163 85.2702 31.9462 84.5199 31.3506C83.9947 30.9038 83.3195 30.606 82.5692 30.606C82.044 30.6805 81.894 30.4571 81.969 29.9359C82.044 29.1913 81.8189 28.5212 81.1437 28.1489H80.3934C79.7182 28.2978 79.193 28.6701 79.118 29.4891C79.118 29.9359 78.7428 30.1593 78.3677 30.2337C77.8425 30.3826 77.3923 30.5316 76.9422 30.8294C75.9668 31.574 75.0665 32.393 74.1662 33.212C72.8157 34.4033 72.7407 35.818 73.8661 37.1582C74.1662 37.5305 74.1662 37.8283 73.8661 38.2751C72.8157 39.4664 72.8157 40.6577 73.7911 41.9235C74.1662 42.3702 74.1662 42.7425 73.7911 43.1892C73.2659 43.7849 72.9658 44.5295 73.1908 45.423C73.491 46.7632 74.3162 47.5077 75.7418 47.6567C76.1919 47.7311 76.5671 47.7311 76.7171 48.2523C76.9422 48.9224 76.5671 49.4437 75.7418 49.4437C74.3162 49.5181 72.8907 49.4437 71.4652 49.4437C70.5649 49.4437 69.7396 49.4437 68.8393 49.4437C68.1641 49.3692 67.8639 49.0713 67.939 48.4012C68.014 47.7311 68.4642 47.6567 68.9893 47.6567C70.0397 47.5822 70.79 46.9866 71.1651 46.0931C71.6153 45.1996 71.5403 44.2316 70.94 43.3382C70.3398 42.5191 70.3398 42.5191 70.94 41.7001C71.6153 40.7322 71.6153 39.3919 70.94 38.4985C70.4149 37.7539 70.4149 37.7539 70.94 37.0093C71.7653 35.7435 71.6903 34.4778 70.6399 33.3609C69.9647 32.6163 69.1394 32.0951 68.3891 31.425C67.7139 30.8294 67.0386 30.3082 66.1383 30.1593C65.6882 30.0848 65.3881 29.787 65.3881 29.3402C65.3881 28.5957 64.9379 28.2978 64.2627 28.1489H63.4374C62.7621 28.2978 62.387 28.5957 62.312 29.3402C62.312 29.8614 62.0119 30.0848 61.4867 30.1593C60.8864 30.2337 60.4363 30.4571 59.9861 30.8294C59.0858 31.6484 58.1105 32.393 57.2101 33.212C55.9347 34.4778 55.8597 35.6691 56.91 37.0838C57.2101 37.5305 57.2101 37.8283 56.91 38.2751C55.9347 39.4664 55.9347 40.5832 56.835 41.7746C57.2101 42.2958 57.2101 42.6681 56.835 43.1148C56.0847 43.9338 56.0097 44.9762 56.4599 45.9442C56.91 46.8376 57.5853 47.4333 58.7107 47.5078C59.4609 47.5078 59.761 47.8056 59.761 48.4012C59.761 48.9969 59.4609 49.2947 58.7857 49.2947C56.5349 49.2947 54.2091 49.2947 51.9583 49.2947C51.283 49.2947 50.9829 48.9969 50.9829 48.4757C50.9829 47.88 51.283 47.5822 51.9583 47.5078C52.4084 47.5078 52.8586 47.4333 53.3087 47.1355C54.6592 46.242 55.0344 44.5295 53.984 43.1148C53.6839 42.6681 53.5338 42.2958 53.909 41.7746C54.8843 40.6577 54.8093 39.1686 53.8339 38.1262C53.4588 37.6794 53.5338 37.3816 53.8339 36.9348C54.8843 35.6691 54.8093 34.2544 53.6088 33.1375C53.0086 32.5419 52.3334 32.0207 51.6581 31.4995C50.9079 30.8294 50.1576 30.2337 49.1072 30.0103C48.7321 29.9359 48.507 29.7125 48.507 29.3402C48.432 28.5212 47.9818 28.2234 47.2316 28H46.6314C45.9561 28.3723 45.731 28.968 45.8061 29.7125C45.8811 30.2337 45.731 30.4571 45.1308 30.4571C44.5306 30.3826 43.9304 30.606 43.4802 30.9783C42.5049 31.7973 41.4545 32.6163 40.5542 33.5098C39.8789 34.1055 39.6539 34.999 39.8789 35.8925C40.104 36.637 40.6292 37.1582 41.4545 37.5305C40.6292 38.2006 39.8039 38.8707 39.8039 39.9876C39.8039 41.1044 40.4041 41.849 41.4545 42.3702C41.1544 42.6681 40.9293 42.817 40.7042 43.0403C39.954 43.7105 39.6539 44.6039 39.954 45.5719C40.2541 46.5398 41.0043 47.061 42.0547 47.2099C42.5049 47.2844 43.1051 46.9866 43.4052 47.3588C43.7053 47.7311 43.4802 48.3268 43.4802 48.7735C43.4802 49.667 43.4802 49.667 42.5799 49.667C41.1544 49.667 39.6539 49.5926 38.2283 49.7415C36.2026 49.8904 34.7021 51.9007 35.0772 53.8366C35.4524 55.698 36.8779 56.8149 38.9036 56.8894C39.8789 56.8894 39.8039 56.7404 39.8039 57.7828C39.8039 68.9514 39.8039 80.1944 39.8039 91.363C39.8039 91.8097 40.029 92.4054 39.6539 92.7777C39.3538 93.0755 38.7535 92.8521 38.3034 92.9266C36.2026 93.0755 34.6271 95.0858 35.0772 97.0962C35.4524 98.9576 36.8779 100 38.8286 100H89.0965C89.2466 100 89.3966 100 89.6217 100C91.7975 99.8511 93.3731 97.7663 92.9229 95.6815C92.3227 93.969 90.9722 93.001 88.8715 92.9266ZM78.8179 33.0631C79.118 32.8397 79.5681 33.0631 80.0183 32.9886C82.044 32.6908 83.6196 33.2865 84.9701 34.7756C85.1201 34.9245 85.3452 35.0734 85.6453 35.3712C82.3441 35.4457 79.268 35.2968 76.1169 35.4457C76.1169 35.3713 76.0419 35.2968 76.0419 35.2968C76.9422 34.5522 77.8425 33.7332 78.8179 33.0631ZM77.5424 38.7963C78.3677 37.9772 79.268 37.7539 80.3934 37.6794C81.969 37.605 83.3195 37.9028 84.4449 39.1686C84.745 39.4664 85.0451 39.6898 85.4202 39.9876C85.4202 40.0621 85.4202 40.1365 85.3452 40.1365C82.2691 40.211 79.193 40.062 75.8918 40.2854C76.492 39.6153 77.0922 39.3175 77.5424 38.7963ZM75.8918 44.9762C76.8672 44.1572 77.7675 43.4126 78.6678 42.6681C78.8179 42.5191 79.0429 42.5191 79.193 42.5191C80.2434 42.5191 81.2937 42.5191 82.2691 42.5191C82.4191 42.5191 82.6442 42.5191 82.7943 42.6681C83.6946 43.3382 84.5199 44.0827 85.3452 44.8273C85.3452 44.9018 85.2702 44.9018 85.2702 44.9762H75.8918ZM79.5681 48.5502C79.5681 47.3588 79.5681 47.3588 80.7686 47.3588C82.044 47.3588 82.044 47.3588 82.044 48.6246C82.044 49.8904 82.2691 49.8159 80.8436 49.8159C79.268 49.8159 79.5681 49.9648 79.5681 48.5502ZM60.0612 34.4778C61.1866 33.212 62.537 32.7653 64.2627 32.9142C65.3881 32.9886 66.2884 33.1375 67.1137 33.9566C67.5638 34.4033 68.089 34.7756 68.6142 35.2223C65.4631 35.4457 62.387 35.2968 59.2359 35.5202C59.3109 34.999 59.761 34.7756 60.0612 34.4778ZM60.2112 39.1686C61.2616 37.9772 62.537 37.605 64.1126 37.6794C65.313 37.7539 66.3634 37.9028 67.1887 38.8707C67.5638 39.3175 68.089 39.6153 68.5392 40.0621C65.3881 40.2854 62.312 40.1365 59.1608 40.3599C59.3859 39.6898 59.9111 39.5408 60.2112 39.1686ZM59.0108 44.9762C59.9861 44.1572 60.8114 43.4871 61.7117 42.7425C61.8618 42.5936 62.0869 42.5936 62.312 42.5936C62.7621 42.5936 63.2123 42.668 63.6624 42.5936C65.9132 42.1468 67.1137 43.636 68.6892 45.0507H59.0108V44.9762ZM65.0879 48.6246C65.0879 48.848 65.0879 49.0714 65.0879 49.2203C65.0879 49.5926 64.9379 49.7415 64.5628 49.7415C62.6121 49.8904 62.462 49.667 62.6121 47.8056C62.6121 47.4333 62.7621 47.2844 63.1373 47.3588C63.3623 47.3588 63.5874 47.3588 63.8125 47.3588C65.238 47.3588 65.0879 47.1355 65.0879 48.6246ZM44.9057 33.0631C44.9808 32.9886 45.2058 32.9886 45.3559 32.9886C45.8061 32.9886 46.3312 33.0631 46.7814 32.9886C49.0322 32.5419 50.1576 34.1055 51.7332 35.4457C48.432 35.5202 45.3559 35.3713 42.2798 35.5946C42.2798 35.5202 42.2048 35.4457 42.2048 35.3712C43.1051 34.5522 44.0054 33.8077 44.9057 33.0631ZM43.6303 38.8707C44.4556 37.9028 45.506 37.6794 46.7814 37.6794C48.357 37.605 49.5574 37.9772 50.6078 39.0941C50.9079 39.3919 51.283 39.6898 51.5831 39.9876C51.5831 40.0621 51.5831 40.1365 51.5081 40.1365C48.432 40.211 45.3559 40.062 42.0547 40.2854C42.5799 39.6898 43.1801 39.3919 43.6303 38.8707ZM42.1297 44.9762C43.1051 44.1572 43.8554 43.1892 44.8307 42.817C46.1812 42.2958 47.7568 42.2958 49.1072 42.817C50.0826 43.1892 50.8329 44.1572 51.5831 45.0507H42.1297V44.9762ZM47.0065 47.3588C48.2069 47.3588 48.2069 47.3588 48.2069 48.4757C48.2069 49.7415 48.2069 49.8159 46.9315 49.7415C45.506 49.7415 45.8061 49.8159 45.731 48.6246C45.731 47.3588 45.731 47.3588 47.0065 47.3588ZM39.2037 54.5812C38.8286 54.5812 38.5285 54.5812 38.1533 54.5067C37.5531 54.2834 37.253 53.8366 37.328 53.2409C37.4031 52.6453 37.7782 52.1985 38.4534 52.1241C38.6785 52.1241 38.9786 52.1241 39.2037 52.1241H88.4963C88.7214 52.1241 88.9465 52.1241 89.0965 52.1241C89.8468 52.1241 90.372 52.5708 90.447 53.3154C90.447 53.9855 89.9969 54.5067 89.1716 54.5812C88.9465 54.5812 88.7214 54.5812 88.5713 54.5812H39.2037ZM89.3966 97.6918C89.1716 97.7663 88.8715 97.6918 88.6464 97.6918C80.3934 97.6918 72.1405 97.6918 63.8875 97.6918C55.6346 97.6918 47.4566 97.6918 39.2037 97.6918C38.9036 97.6918 38.6035 97.6918 38.3784 97.6918C37.7782 97.6174 37.328 97.0217 37.328 96.426C37.328 95.8304 37.8532 95.3092 38.5285 95.2347C39.1287 95.2347 39.7289 95.2347 40.4041 95.2347C42.88 95.2347 45.4309 95.2347 47.9068 95.2347C48.2819 95.2347 48.6571 95.2347 48.9572 94.9369C49.3323 94.6391 49.4824 94.1923 49.3323 93.6712C49.1823 93.0755 48.7321 92.8521 48.1319 92.8521C46.5563 92.8521 44.9808 92.8521 43.4802 92.8521C41.9797 92.8521 42.1297 93.0755 42.1297 91.5119C42.1297 80.4178 42.1297 69.2492 42.1297 58.1551C42.1297 57.9317 42.1297 57.7084 42.1297 57.5595C42.0547 57.0383 42.2798 56.8149 42.805 56.8894C43.5553 56.9638 44.3805 56.9638 45.1308 56.8894C45.656 56.8894 45.8811 56.9638 45.8061 57.5595C45.731 58.1551 45.8061 58.6763 45.8061 59.272C45.8061 60.0165 46.2562 60.4633 46.9315 60.4633C47.6067 60.4633 48.0569 60.0165 48.1319 59.272C48.1319 58.6763 48.1319 58.0807 48.1319 57.4105C48.1319 57.0383 48.2819 56.8894 48.6571 56.8894C49.4824 56.8894 50.3827 56.8894 51.208 56.8894C54.8093 56.8894 58.4106 56.8894 61.9368 56.8894C62.462 56.8894 62.6871 57.0383 62.6871 57.5595C62.6121 58.0807 62.6871 58.6763 62.6871 59.272C62.7621 60.0165 63.2123 60.4633 63.8875 60.4633C64.5628 60.4633 64.9379 60.0165 65.0129 59.272C65.088 58.6763 65.088 58.0807 65.0129 57.485C65.0129 56.9638 65.163 56.8894 65.6882 56.8894C69.0644 56.8894 72.5156 56.8894 75.8918 56.8894C76.9422 56.8894 77.9926 56.8894 78.9679 56.8894C79.4181 56.8894 79.5681 57.0383 79.5681 57.485C79.5681 58.0807 79.5681 58.6763 79.5681 59.272C79.5681 60.0165 80.0183 60.4633 80.7686 60.4633C81.4438 60.4633 81.894 60.0165 81.969 59.272C81.969 58.6763 81.969 58.0807 81.969 57.485C81.969 57.1127 82.044 56.8894 82.4942 56.8894C83.3945 56.8894 84.2198 56.8894 85.1201 56.8894C85.4952 56.8894 85.6453 57.0383 85.6453 57.4105C85.6453 57.5595 85.6453 57.7828 85.6453 58.0062V91.8842C85.6453 92.0331 85.6453 92.182 85.6453 92.4054C85.6453 92.7777 85.4952 93.001 85.0451 93.001C84.82 93.001 84.5949 93.001 84.4449 93.001H54.8843C54.6592 93.001 54.3591 93.001 54.134 93.001C53.4588 93.0755 53.0086 93.5222 53.0086 94.1179C53.0086 94.6391 53.4588 95.2347 54.059 95.3092C54.2841 95.3836 54.5842 95.3092 54.8093 95.3092C66.0633 95.3092 77.3173 95.3092 88.5713 95.3092C88.7964 95.3092 89.0215 95.3092 89.2466 95.3092C89.9218 95.3836 90.447 95.8304 90.447 96.5005C90.447 97.0962 89.9969 97.6174 89.3966 97.6918ZM63.8125 90.5439C67.8639 90.5439 71.9904 90.5439 76.0419 90.5439C77.0172 90.5439 77.8425 90.3206 78.6678 89.8738C80.8436 88.4591 81.3688 85.6298 79.8682 83.3216C75.8918 77.2906 71.8404 71.334 67.7889 65.303C65.6882 62.1758 62.0119 62.1758 59.9111 65.303C55.9347 71.2596 51.8832 77.2906 47.9068 83.2472C46.8564 84.8108 46.6314 86.5233 47.5317 88.2358C48.432 89.8738 49.9325 90.6184 51.8082 90.5439C55.7846 90.4695 59.8361 90.5439 63.8125 90.5439ZM50.6828 88.0124C49.4073 87.5657 48.9572 86.0021 49.7075 84.8108C50.6828 83.3216 51.6581 81.9069 52.6335 80.4922C55.7096 75.8759 58.8607 71.2596 61.9368 66.5688C62.312 65.9731 62.7621 65.5264 63.5124 65.3775C64.4877 65.2285 65.238 65.6753 65.7632 66.4943C68.1641 70.1427 70.6399 73.7911 73.1158 77.4395C74.6914 79.8221 76.2669 82.2048 77.9175 84.5874C78.3677 85.2575 78.5177 85.9276 78.2927 86.7466C77.9926 87.7146 77.2423 88.2358 75.9668 88.2358C73.0408 88.2358 70.1898 88.2358 67.2637 88.2358H63.8875C59.9111 88.2358 55.9347 88.2358 52.0333 88.2358C51.5081 88.1613 51.133 88.1613 50.6828 88.0124ZM66.1383 77.3651C65.163 77.3651 64.2627 77.3651 63.2873 77.3651C62.9872 77.3651 62.6121 77.514 62.537 77.2161C62.387 76.9928 62.6871 76.6949 62.8371 76.4716C63.5124 75.3547 64.1876 74.2378 64.8629 73.121C65.238 72.4509 65.0129 71.7808 64.4127 71.4829C63.8125 71.1851 63.2123 71.334 62.8371 71.9297C61.6367 73.94 60.4363 75.8759 59.2359 77.8862C58.7107 78.7053 59.2359 79.5987 60.2862 79.6732C60.8864 79.6732 61.4116 79.6732 62.0119 79.6732C62.537 79.6732 63.0622 79.6732 63.6624 79.6732C64.1876 79.6732 64.1876 79.8221 63.9625 80.1944C63.2123 81.3857 62.537 82.577 61.7868 83.7683C61.3366 84.5129 61.4867 85.183 62.0869 85.5553C62.6871 85.9276 63.3623 85.7042 63.7375 85.0341C64.9379 83.0982 66.0633 81.1624 67.2637 79.2265C67.7889 78.2585 67.2637 77.3651 66.1383 77.3651Z" fill="#0063AA"/>
</svg>
