<svg width="69" height="69" viewBox="0 0 69 69" fill="none" xmlns="http://www.w3.org/2000/svg">
<circle cx="34.8457" cy="34.8494" r="34" fill="white"/>
<path d="M57.7457 46.7994C57.5457 46.7994 57.4457 46.7994 57.2457 46.7994H43.2457C42.7457 46.7994 42.7457 46.7994 42.6457 46.1994C42.6457 40.1994 42.6457 34.1994 42.6457 28.1994C42.6457 24.8994 42.6457 21.6994 42.6457 18.3994C42.6457 18.1994 42.6457 17.9994 42.6457 17.7994C42.5457 17.2994 42.1457 16.8994 41.6457 16.8994C41.1457 16.8994 40.7457 17.2994 40.6457 17.7994C40.6457 17.9994 40.6457 18.0994 40.6457 18.2994V36.0994C40.6457 36.1994 40.6457 36.3994 40.6457 36.4994C40.6457 36.7994 40.5457 36.8994 40.2457 36.8994C39.7457 36.8994 39.1457 36.8994 38.6457 36.8994C38.2457 36.8994 38.1457 36.7994 38.0457 36.4994C37.4457 34.5994 36.8457 32.7994 36.2457 30.8994C35.3457 28.0994 34.3457 25.2994 33.4457 22.4994C32.7457 20.4994 31.3457 19.1994 29.2457 18.9994C26.7457 18.7994 24.2457 18.8994 21.7457 18.9994C21.1457 18.9994 20.8457 19.3994 20.8457 19.9994C20.8457 20.1994 20.8457 20.2994 20.8457 20.4994C20.8457 23.7994 20.8457 27.0994 20.8457 30.3994C20.8457 30.8994 20.8457 30.8994 20.3457 30.8994C18.9457 30.8994 17.4457 30.8994 16.0457 30.8994C13.6457 30.8994 11.6457 32.3994 11.0457 34.6994C11.0457 34.8994 11.0457 35.0994 10.8457 35.1994V46.1994C10.8457 46.2994 10.9457 46.4994 10.9457 46.5994C11.3457 47.6994 12.0457 48.3994 13.1457 48.6994C13.5457 48.7994 13.9457 48.7994 14.3457 48.7994C14.7457 48.7994 14.9457 48.8994 15.0457 49.2994C15.6457 51.3994 17.6457 52.7994 19.7457 52.7994C21.9457 52.7994 23.8457 51.3994 24.5457 49.1994C24.6457 48.8994 24.7457 48.7994 25.1457 48.7994C26.2457 48.7994 27.3457 48.7994 28.5457 48.7994C28.8457 48.7994 28.9457 48.8994 29.0457 49.1994C29.7457 51.3994 31.6457 52.7994 33.8457 52.7994C36.0457 52.7994 37.9457 51.3994 38.6457 49.1994C38.7457 48.8994 38.9457 48.7994 39.2457 48.7994C40.4457 48.7994 41.6457 48.7994 42.8457 48.7994C47.6457 48.7994 52.4457 48.7994 57.3457 48.7994C57.5457 48.7994 57.7457 48.7994 57.9457 48.7994C58.4457 48.6994 58.8457 48.3994 58.8457 47.8994C58.5457 47.2994 58.2457 46.8994 57.7457 46.7994ZM23.2457 20.8994C25.0457 20.8994 26.9457 20.8994 28.7457 20.8994C30.1457 20.8994 31.1457 21.5994 31.6457 22.9994C33.1457 27.4994 34.6457 31.8994 36.1457 36.3994C36.2457 36.7994 36.1457 36.7994 35.7457 36.7994C32.4457 36.7994 29.1457 36.7994 25.9457 36.7994C24.1457 36.7994 22.8457 35.4994 22.8457 33.6994C22.8457 31.6994 22.8457 29.5994 22.8457 27.5994C22.8457 25.4994 22.8457 23.4994 22.8457 21.3994C22.7457 20.9994 22.8457 20.8994 23.2457 20.8994ZM19.7457 50.7994C18.1457 50.7994 16.7457 49.3994 16.7457 47.7994C16.7457 46.1994 18.0457 44.7994 19.7457 44.7994C21.4457 44.7994 22.7457 46.0994 22.7457 47.7994C22.8457 49.3994 21.4457 50.7994 19.7457 50.7994ZM33.7457 50.7994C32.0457 50.7994 30.7457 49.4994 30.7457 47.7994C30.7457 46.0994 32.0457 44.7994 33.7457 44.7994C35.4457 44.7994 36.7457 46.0994 36.7457 47.7994C36.7457 49.4994 35.3457 50.7994 33.7457 50.7994ZM40.2457 46.7994C39.7457 46.7994 39.2457 46.8994 38.7457 46.7994C38.2457 46.5994 38.3457 45.9994 38.1457 45.5994C37.2457 43.8994 35.3457 42.6994 33.4457 42.8994C31.2457 43.0994 29.5457 44.3994 28.9457 46.4994C28.8457 46.7994 28.7457 46.8994 28.4457 46.8994C27.3457 46.8994 26.1457 46.8994 25.0457 46.8994C24.7457 46.8994 24.6457 46.7994 24.5457 46.4994C23.8457 44.2994 21.9457 42.8994 19.7457 42.8994C17.5457 42.8994 15.6457 44.2994 14.9457 46.4994C14.8457 46.7994 14.7457 46.8994 14.4457 46.8994C12.9457 46.8994 12.6457 46.6994 12.6457 45.1994C12.6457 43.7994 12.6457 42.2994 12.6457 40.8994C12.6457 39.3994 12.6457 37.8994 12.6457 36.2994C12.5457 34.1994 14.1457 32.8994 15.9457 32.9994C17.3457 33.0994 18.7457 32.9994 20.1457 32.9994C20.5457 32.9994 20.6457 33.0994 20.6457 33.4994C20.6457 35.0994 21.0457 36.5994 22.3457 37.6994C23.3457 38.5994 24.4457 38.9994 25.7457 38.9994C30.4457 38.9994 35.2457 38.9994 39.9457 38.9994C40.5457 38.9994 40.5457 38.9994 40.5457 39.5994C40.5457 41.8994 40.5457 44.1994 40.5457 46.5994C40.7457 46.6994 40.6457 46.7994 40.2457 46.7994Z" fill="#E1292C"/>
</svg>
