<svg width="95" height="101" viewBox="0 0 95 101" fill="none" xmlns="http://www.w3.org/2000/svg">
<circle opacity="0.05" cx="38.5" cy="38.5" r="38.5" fill="#0063AA"/>
<path d="M29.852 45.468C29.1252 45.468 28.4791 46.1166 28.3984 46.8462C28.3984 47.6569 28.9637 48.3054 29.7712 48.3054C30.498 48.3054 31.144 47.738 31.2248 46.9273C31.3055 46.2787 30.5787 45.5491 29.852 45.468ZM45.3567 29.9029C44.5491 29.9029 43.9839 30.4703 43.9839 31.281C43.9839 32.0917 44.6299 32.7403 45.3567 32.7403C46.0834 32.7403 46.8102 32.0106 46.8102 31.281C46.7295 30.5514 46.0834 29.9029 45.3567 29.9029ZM29.852 45.468C29.1252 45.468 28.4791 46.1166 28.3984 46.8462C28.3984 47.6569 28.9637 48.3054 29.7712 48.3054C30.498 48.3054 31.144 47.738 31.2248 46.9273C31.3055 46.2787 30.5787 45.5491 29.852 45.468ZM45.3567 29.9029C44.5491 29.9029 43.9839 30.4703 43.9839 31.281C43.9839 32.0917 44.6299 32.7403 45.3567 32.7403C46.0834 32.7403 46.8102 32.0106 46.8102 31.281C46.7295 30.5514 46.0834 29.9029 45.3567 29.9029ZM29.852 45.468C29.1252 45.468 28.4791 46.1166 28.3984 46.8462C28.3984 47.6569 28.9637 48.3054 29.7712 48.3054C30.498 48.3054 31.144 47.738 31.2248 46.9273C31.3055 46.2787 30.5787 45.5491 29.852 45.468ZM45.3567 29.9029C44.5491 29.9029 43.9839 30.4703 43.9839 31.281C43.9839 32.0917 44.6299 32.7403 45.3567 32.7403C46.0834 32.7403 46.8102 32.0106 46.8102 31.281C46.7295 30.5514 46.0834 29.9029 45.3567 29.9029ZM29.852 45.468C29.1252 45.468 28.4791 46.1166 28.3984 46.8462C28.3984 47.6569 28.9637 48.3054 29.7712 48.3054C30.498 48.3054 31.144 47.738 31.2248 46.9273C31.3055 46.2787 30.5787 45.5491 29.852 45.468ZM45.3567 29.9029C44.5491 29.9029 43.9839 30.4703 43.9839 31.281C43.9839 32.0917 44.6299 32.7403 45.3567 32.7403C46.0834 32.7403 46.8102 32.0106 46.8102 31.281C46.7295 30.5514 46.0834 29.9029 45.3567 29.9029ZM29.852 45.468C29.1252 45.468 28.4791 46.1166 28.3984 46.8462C28.3984 47.6569 28.9637 48.3054 29.7712 48.3054C30.498 48.3054 31.144 47.738 31.2248 46.9273C31.3055 46.2787 30.5787 45.5491 29.852 45.468ZM45.3567 29.9029C44.5491 29.9029 43.9839 30.4703 43.9839 31.281C43.9839 32.0917 44.6299 32.7403 45.3567 32.7403C46.0834 32.7403 46.8102 32.0106 46.8102 31.281C46.7295 30.5514 46.0834 29.9029 45.3567 29.9029ZM29.852 45.468C29.1252 45.468 28.4791 46.1166 28.3984 46.8462C28.3984 47.6569 28.9637 48.3054 29.7712 48.3054C30.498 48.3054 31.144 47.738 31.2248 46.9273C31.3055 46.2787 30.5787 45.5491 29.852 45.468ZM45.3567 29.9029C44.5491 29.9029 43.9839 30.4703 43.9839 31.281C43.9839 32.0917 44.6299 32.7403 45.3567 32.7403C46.0834 32.7403 46.8102 32.0106 46.8102 31.281C46.7295 30.5514 46.0834 29.9029 45.3567 29.9029ZM29.852 45.468C29.1252 45.468 28.4791 46.1166 28.3984 46.8462C28.3984 47.6569 28.9637 48.3054 29.7712 48.3054C30.498 48.3054 31.144 47.738 31.2248 46.9273C31.3055 46.2787 30.5787 45.5491 29.852 45.468ZM45.3567 29.9029C44.5491 29.9029 43.9839 30.4703 43.9839 31.281C43.9839 32.0917 44.6299 32.7403 45.3567 32.7403C46.0834 32.7403 46.8102 32.0106 46.8102 31.281C46.7295 30.5514 46.0834 29.9029 45.3567 29.9029ZM29.852 45.468C29.1252 45.468 28.4791 46.1166 28.3984 46.8462C28.3984 47.6569 28.9637 48.3054 29.7712 48.3054C30.498 48.3054 31.144 47.738 31.2248 46.9273C31.3055 46.2787 30.5787 45.5491 29.852 45.468ZM45.3567 29.9029C44.5491 29.9029 43.9839 30.4703 43.9839 31.281C43.9839 32.0917 44.6299 32.7403 45.3567 32.7403C46.0834 32.7403 46.8102 32.0106 46.8102 31.281C46.7295 30.5514 46.0834 29.9029 45.3567 29.9029ZM29.852 45.468C29.1252 45.468 28.4791 46.1166 28.3984 46.8462C28.3984 47.6569 28.9637 48.3054 29.7712 48.3054C30.498 48.3054 31.144 47.738 31.2248 46.9273C31.3055 46.2787 30.5787 45.5491 29.852 45.468ZM40.1884 72.7071C39.3809 72.7071 38.8156 73.3556 38.8156 74.0852C38.8156 74.8959 39.4616 75.5445 40.2692 75.4634C40.996 75.4634 41.642 74.8149 41.642 74.0852C41.642 73.3556 40.996 72.7071 40.1884 72.7071ZM45.3567 29.9029C44.5491 29.9029 43.9839 30.4703 43.9839 31.281C43.9839 32.0917 44.6299 32.7403 45.3567 32.7403C46.0834 32.7403 46.8102 32.0106 46.8102 31.281C46.7295 30.5514 46.0834 29.9029 45.3567 29.9029ZM49.5559 72.7071C48.8291 72.7071 48.183 73.3556 48.183 74.1663C48.183 74.977 48.9098 75.5445 49.6366 75.5445C50.3634 75.5445 51.0094 74.8959 51.0094 74.0852C51.0094 73.3556 50.3634 72.7071 49.5559 72.7071ZM59.004 72.7071C58.1965 72.7071 57.5505 73.3556 57.5505 74.0852C57.5505 74.8149 58.1965 75.4634 58.9233 75.4634C59.7308 75.4634 60.3769 74.8149 60.3769 74.0852C60.3769 73.3556 59.7308 72.7881 59.004 72.7071ZM68.21 72.7071C67.4832 72.7071 66.8371 73.3556 66.8371 74.1663C66.8371 74.977 67.4832 75.5445 68.2907 75.5445C69.0175 75.5445 69.6635 74.8959 69.6635 74.0852C69.7443 73.3556 69.0175 72.7071 68.21 72.7071ZM77.6581 72.7071C76.9314 72.7071 76.2853 73.3556 76.2853 74.0852C76.2853 74.8959 76.9314 75.5445 77.7389 75.4634C78.4657 75.4634 79.1117 74.8149 79.1117 74.0852C79.1117 73.3556 78.4657 72.7071 77.6581 72.7071ZM77.6581 72.7071C76.9314 72.7071 76.2853 73.3556 76.2853 74.0852C76.2853 74.8959 76.9314 75.5445 77.7389 75.4634C78.4657 75.4634 79.1117 74.8149 79.1117 74.0852C79.1117 73.3556 78.4657 72.7071 77.6581 72.7071ZM68.21 72.7071C67.4832 72.7071 66.8371 73.3556 66.8371 74.1663C66.8371 74.977 67.4832 75.5445 68.2907 75.5445C69.0175 75.5445 69.6635 74.8959 69.6635 74.0852C69.7443 73.3556 69.0175 72.7071 68.21 72.7071ZM59.004 72.7071C58.1965 72.7071 57.5505 73.3556 57.5505 74.0852C57.5505 74.8149 58.1965 75.4634 58.9233 75.4634C59.7308 75.4634 60.3769 74.8149 60.3769 74.0852C60.3769 73.3556 59.7308 72.7881 59.004 72.7071ZM49.5559 72.7071C48.8291 72.7071 48.183 73.3556 48.183 74.1663C48.183 74.977 48.9098 75.5445 49.6366 75.5445C50.3634 75.5445 51.0094 74.8959 51.0094 74.0852C51.0094 73.3556 50.3634 72.7071 49.5559 72.7071ZM40.1884 72.7071C39.3809 72.7071 38.8156 73.3556 38.8156 74.0852C38.8156 74.8959 39.4616 75.5445 40.2692 75.4634C40.996 75.4634 41.642 74.8149 41.642 74.0852C41.642 73.3556 40.996 72.7071 40.1884 72.7071ZM29.852 45.468C29.1252 45.468 28.4791 46.1166 28.3984 46.8462C28.3984 47.6569 28.9637 48.3054 29.7712 48.3054C30.498 48.3054 31.144 47.738 31.2248 46.9273C31.3055 46.2787 30.5787 45.5491 29.852 45.468ZM45.3567 29.9029C44.5491 29.9029 43.9839 30.4703 43.9839 31.281C43.9839 32.0917 44.6299 32.7403 45.3567 32.7403C46.0834 32.7403 46.8102 32.0106 46.8102 31.281C46.7295 30.5514 46.0834 29.9029 45.3567 29.9029ZM29.852 45.468C29.1252 45.468 28.4791 46.1166 28.3984 46.8462C28.3984 47.6569 28.9637 48.3054 29.7712 48.3054C30.498 48.3054 31.144 47.738 31.2248 46.9273C31.3055 46.2787 30.5787 45.5491 29.852 45.468ZM40.1884 72.7071C39.3809 72.7071 38.8156 73.3556 38.8156 74.0852C38.8156 74.8959 39.4616 75.5445 40.2692 75.4634C40.996 75.4634 41.642 74.8149 41.642 74.0852C41.642 73.3556 40.996 72.7071 40.1884 72.7071ZM45.3567 29.9029C44.5491 29.9029 43.9839 30.4703 43.9839 31.281C43.9839 32.0917 44.6299 32.7403 45.3567 32.7403C46.0834 32.7403 46.8102 32.0106 46.8102 31.281C46.7295 30.5514 46.0834 29.9029 45.3567 29.9029ZM49.5559 72.7071C48.8291 72.7071 48.183 73.3556 48.183 74.1663C48.183 74.977 48.9098 75.5445 49.6366 75.5445C50.3634 75.5445 51.0094 74.8959 51.0094 74.0852C51.0094 73.3556 50.3634 72.7071 49.5559 72.7071ZM59.004 72.7071C58.1965 72.7071 57.5505 73.3556 57.5505 74.0852C57.5505 74.8149 58.1965 75.4634 58.9233 75.4634C59.7308 75.4634 60.3769 74.8149 60.3769 74.0852C60.3769 73.3556 59.7308 72.7881 59.004 72.7071ZM68.21 72.7071C67.4832 72.7071 66.8371 73.3556 66.8371 74.1663C66.8371 74.977 67.4832 75.5445 68.2907 75.5445C69.0175 75.5445 69.6635 74.8959 69.6635 74.0852C69.7443 73.3556 69.0175 72.7071 68.21 72.7071ZM77.6581 72.7071C76.9314 72.7071 76.2853 73.3556 76.2853 74.0852C76.2853 74.8959 76.9314 75.5445 77.7389 75.4634C78.4657 75.4634 79.1117 74.8149 79.1117 74.0852C79.1117 73.3556 78.4657 72.7071 77.6581 72.7071ZM77.6581 72.7071C76.9314 72.7071 76.2853 73.3556 76.2853 74.0852C76.2853 74.8959 76.9314 75.5445 77.7389 75.4634C78.4657 75.4634 79.1117 74.8149 79.1117 74.0852C79.1117 73.3556 78.4657 72.7071 77.6581 72.7071ZM68.21 72.7071C67.4832 72.7071 66.8371 73.3556 66.8371 74.1663C66.8371 74.977 67.4832 75.5445 68.2907 75.5445C69.0175 75.5445 69.6635 74.8959 69.6635 74.0852C69.7443 73.3556 69.0175 72.7071 68.21 72.7071ZM59.004 72.7071C58.1965 72.7071 57.5505 73.3556 57.5505 74.0852C57.5505 74.8149 58.1965 75.4634 58.9233 75.4634C59.7308 75.4634 60.3769 74.8149 60.3769 74.0852C60.3769 73.3556 59.7308 72.7881 59.004 72.7071ZM49.5559 72.7071C48.8291 72.7071 48.183 73.3556 48.183 74.1663C48.183 74.977 48.9098 75.5445 49.6366 75.5445C50.3634 75.5445 51.0094 74.8959 51.0094 74.0852C51.0094 73.3556 50.3634 72.7071 49.5559 72.7071ZM40.1884 72.7071C39.3809 72.7071 38.8156 73.3556 38.8156 74.0852C38.8156 74.8959 39.4616 75.5445 40.2692 75.4634C40.996 75.4634 41.642 74.8149 41.642 74.0852C41.642 73.3556 40.996 72.7071 40.1884 72.7071ZM29.852 45.468C29.1252 45.468 28.4791 46.1166 28.3984 46.8462C28.3984 47.6569 28.9637 48.3054 29.7712 48.3054C30.498 48.3054 31.144 47.738 31.2248 46.9273C31.3055 46.2787 30.5787 45.5491 29.852 45.468ZM45.3567 29.9029C44.5491 29.9029 43.9839 30.4703 43.9839 31.281C43.9839 32.0917 44.6299 32.7403 45.3567 32.7403C46.0834 32.7403 46.8102 32.0106 46.8102 31.281C46.7295 30.5514 46.0834 29.9029 45.3567 29.9029ZM29.852 45.468C29.1252 45.468 28.4791 46.1166 28.3984 46.8462C28.3984 47.6569 28.9637 48.3054 29.7712 48.3054C30.498 48.3054 31.144 47.738 31.2248 46.9273C31.3055 46.2787 30.5787 45.5491 29.852 45.468ZM40.1884 72.7071C39.3809 72.7071 38.8156 73.3556 38.8156 74.0852C38.8156 74.8959 39.4616 75.5445 40.2692 75.4634C40.996 75.4634 41.642 74.8149 41.642 74.0852C41.642 73.3556 40.996 72.7071 40.1884 72.7071ZM45.3567 29.9029C44.5491 29.9029 43.9839 30.4703 43.9839 31.281C43.9839 32.0917 44.6299 32.7403 45.3567 32.7403C46.0834 32.7403 46.8102 32.0106 46.8102 31.281C46.7295 30.5514 46.0834 29.9029 45.3567 29.9029ZM49.5559 72.7071C48.8291 72.7071 48.183 73.3556 48.183 74.1663C48.183 74.977 48.9098 75.5445 49.6366 75.5445C50.3634 75.5445 51.0094 74.8959 51.0094 74.0852C51.0094 73.3556 50.3634 72.7071 49.5559 72.7071ZM59.004 72.7071C58.1965 72.7071 57.5505 73.3556 57.5505 74.0852C57.5505 74.8149 58.1965 75.4634 58.9233 75.4634C59.7308 75.4634 60.3769 74.8149 60.3769 74.0852C60.3769 73.3556 59.7308 72.7881 59.004 72.7071ZM62.3149 84.9484C61.5074 84.9484 60.9421 85.5159 60.8614 86.3266C60.8614 87.1373 61.4266 87.7858 62.2342 87.7858C63.0417 87.7858 63.6878 87.1373 63.6878 86.3266C63.6878 85.5159 63.0417 84.9484 62.3149 84.9484ZM68.21 72.7071C67.4832 72.7071 66.8371 73.3556 66.8371 74.1663C66.8371 74.977 67.4832 75.5445 68.2907 75.5445C69.0175 75.5445 69.6635 74.8959 69.6635 74.0852C69.7443 73.3556 69.0175 72.7071 68.21 72.7071ZM77.6581 72.7071C76.9314 72.7071 76.2853 73.3556 76.2853 74.0852C76.2853 74.8959 76.9314 75.5445 77.7389 75.4634C78.4657 75.4634 79.1117 74.8149 79.1117 74.0852C79.1117 73.3556 78.4657 72.7071 77.6581 72.7071ZM77.6581 72.7071C76.9314 72.7071 76.2853 73.3556 76.2853 74.0852C76.2853 74.8959 76.9314 75.5445 77.7389 75.4634C78.4657 75.4634 79.1117 74.8149 79.1117 74.0852C79.1117 73.3556 78.4657 72.7071 77.6581 72.7071ZM68.21 72.7071C67.4832 72.7071 66.8371 73.3556 66.8371 74.1663C66.8371 74.977 67.4832 75.5445 68.2907 75.5445C69.0175 75.5445 69.6635 74.8959 69.6635 74.0852C69.7443 73.3556 69.0175 72.7071 68.21 72.7071ZM59.004 72.7071C58.1965 72.7071 57.5505 73.3556 57.5505 74.0852C57.5505 74.8149 58.1965 75.4634 58.9233 75.4634C59.7308 75.4634 60.3769 74.8149 60.3769 74.0852C60.3769 73.3556 59.7308 72.7881 59.004 72.7071ZM49.5559 72.7071C48.8291 72.7071 48.183 73.3556 48.183 74.1663C48.183 74.977 48.9098 75.5445 49.6366 75.5445C50.3634 75.5445 51.0094 74.8959 51.0094 74.0852C51.0094 73.3556 50.3634 72.7071 49.5559 72.7071ZM40.1884 72.7071C39.3809 72.7071 38.8156 73.3556 38.8156 74.0852C38.8156 74.8959 39.4616 75.5445 40.2692 75.4634C40.996 75.4634 41.642 74.8149 41.642 74.0852C41.642 73.3556 40.996 72.7071 40.1884 72.7071ZM62.3149 84.9484C61.5074 84.9484 60.9421 85.5159 60.8614 86.3266C60.8614 87.1373 61.4266 87.7858 62.2342 87.7858C63.0417 87.7858 63.6878 87.1373 63.6878 86.3266C63.6878 85.5159 63.0417 84.9484 62.3149 84.9484ZM29.852 45.468C29.1252 45.468 28.4791 46.1166 28.3984 46.8462C28.3984 47.6569 28.9637 48.3054 29.7712 48.3054C30.498 48.3054 31.144 47.738 31.2248 46.9273C31.3055 46.2787 30.5787 45.5491 29.852 45.468ZM45.3567 29.9029C44.5491 29.9029 43.9839 30.4703 43.9839 31.281C43.9839 32.0917 44.6299 32.7403 45.3567 32.7403C46.0834 32.7403 46.8102 32.0106 46.8102 31.281C46.7295 30.5514 46.0834 29.9029 45.3567 29.9029ZM94.9394 57.223C94.9394 56.0069 94.9394 54.7098 94.3742 53.5749C93.4051 51.6292 91.8708 50.2511 89.852 49.3593C89.2867 49.1161 88.9637 48.7108 89.2059 48.0622C89.6097 47.0894 89.7712 46.0355 89.6904 44.9816C89.6904 44.4952 89.7712 44.0088 90.0135 43.6845C90.5787 42.8738 90.6595 42.0631 90.5787 41.0903C90.175 36.6315 86.1373 33.3077 81.4536 34.1184C78.3042 34.6048 75.8816 37.199 75.3163 40.3607C75.1548 41.3335 74.9125 42.3874 75.5585 43.2792C76.0431 43.9277 76.2046 44.6574 76.1238 45.387C76.1238 46.2787 76.2853 47.0894 76.5276 47.9001C76.8506 48.8729 76.8506 48.954 75.8816 49.4404C73.2167 50.6564 71.5209 52.6831 70.7941 55.4395C70.4711 56.5744 70.3096 56.6555 69.179 56.6555C67.1602 56.6555 65.1413 56.7366 63.2032 56.6555C61.1844 56.5744 60.6191 57.6283 60.6999 59.2497C60.7806 61.3575 60.6999 63.4653 60.6999 65.573C60.6999 67.0323 60.4576 67.2755 59.004 67.2755C58.358 67.2755 57.6312 67.2755 56.9852 67.2755C55.7739 67.2755 55.4509 67.0323 55.4509 65.7352C55.4509 63.4652 55.4509 61.1953 55.4509 58.9254C55.4509 57.4662 54.9664 56.8987 53.755 56.7366C54.3203 56.5744 54.7241 56.1691 54.9664 55.6016C55.1279 55.1152 55.1279 54.5477 55.2086 53.9802C55.2894 52.9263 56.0969 51.8725 56.7429 51.8725C57.4697 51.8725 58.2773 52.9263 58.358 54.0613C58.358 54.4666 58.358 54.872 58.5195 55.2773C58.8425 56.2501 59.4886 56.7366 60.5384 56.5744C61.4267 56.4934 62.0727 55.7637 62.0727 54.7909C62.0727 53.9802 62.0727 53.2506 62.0727 52.4399C62.0727 51.8724 61.9112 51.386 61.5074 50.9807C60.7806 50.2511 60.0538 49.6025 59.4078 48.8729C58.1965 47.5758 58.2773 46.3598 59.6501 45.3059C61.9919 43.5224 62.2342 40.1986 60.1346 38.0908C56.5814 34.4427 52.9475 30.8757 49.3943 27.3087C48.6676 26.579 47.86 26.1737 46.8102 26.0926C44.3069 25.7684 42.288 26.2548 40.4307 28.2004C36.8775 32.0106 33.0821 35.5777 29.4482 39.3068C28.8829 39.8743 28.2369 40.2796 27.5101 40.6039C24.4415 41.6578 22.9071 44.0088 22.9071 47.2515C22.9071 49.5215 22.9071 51.8724 22.9071 54.1424C22.9071 55.3584 23.7147 56.3312 24.6837 56.3312C25.6528 56.3312 26.4603 55.5205 26.541 54.3045C26.541 54.2234 26.541 54.2234 26.541 54.1424C26.6218 53.4938 26.8641 53.2506 27.5101 53.4938C28.9637 53.9802 30.498 53.9802 31.9515 53.4938C32.6783 53.2506 32.9206 53.4938 32.9206 54.2234C32.9206 58.2769 32.9206 62.4114 32.9206 66.4648C32.9206 67.2755 32.5976 67.5187 31.8708 67.3565C30.7402 67.1133 29.6097 67.1944 28.4791 67.2755C26.6218 67.3566 26.6218 67.4376 26.541 65.573C26.4603 64.4381 25.6528 63.5463 24.6837 63.5463C23.7147 63.5463 22.9071 64.4381 22.8264 65.573C22.8264 66.4648 22.7456 67.2755 22.8264 68.1672C22.9071 69.2211 22.5841 70.1939 21.8573 71.0046C21.0498 71.8964 20.4845 72.9503 20.2423 74.1663C20.0808 74.8959 20.0808 75.6255 20 76.2741V99.865C20.0808 100.595 20.4845 101 21.1306 101H88.3984C89.852 100.676 89.9327 100.189 89.9327 99.0544C89.9327 98.649 89.9327 98.2437 89.9327 97.9194C89.9327 90.9475 89.9327 83.9756 89.9327 77.0037C89.9327 75.7877 90.0942 75.5445 91.0633 75.2202C93.7281 74.2474 94.9394 72.5449 94.9394 69.6265C95.0202 65.492 95.0202 61.3575 94.9394 57.223ZM84.3607 40.1175C84.3607 39.7932 84.3607 39.4689 84.3607 39.0636V38.4151C84.3607 37.4422 84.3607 37.4422 85.249 37.9286C86.1373 38.4151 86.7026 39.2258 87.1871 40.1175C87.4293 40.6039 87.2678 40.7661 86.7026 40.7661C86.1373 40.7661 85.572 40.7661 85.0067 40.7661C84.5222 40.8471 84.2799 40.685 84.3607 40.1175ZM82.9879 43.6845C83.9569 43.6845 84.926 43.6845 85.895 43.6845C86.3795 43.6845 86.5411 43.8466 86.4603 44.252C86.4603 44.7384 86.4603 45.2248 86.4603 45.7112C86.2988 47.5758 84.8452 49.0351 82.9879 49.0351C81.1306 49.0351 79.5962 47.6569 79.4347 45.7112C79.2732 43.6035 79.2732 43.6035 81.2921 43.6035H82.9879V43.6845ZM78.9502 39.7122C79.4347 38.8204 80.0808 38.1718 80.969 37.7665C81.3728 37.6044 81.4536 37.6855 81.4536 38.0908C81.4536 38.4961 81.4536 38.9015 81.4536 39.2258C81.4536 40.7661 81.4536 40.7661 79.9192 40.7661H79.5962C78.4657 40.7661 78.3849 40.685 78.9502 39.7122ZM63.8493 60.4657C63.8493 59.9793 64.0108 59.8172 64.4953 59.8172C65.6258 59.8172 66.6756 59.8172 67.8062 59.8172C68.856 59.8172 69.9058 59.8172 70.9556 59.8172C71.4401 59.8172 71.6016 59.8982 71.6016 60.4657C71.6016 62.5735 71.6016 64.7623 71.6016 66.9512C71.6016 67.4376 71.4401 67.5998 70.9556 67.5998C68.7752 67.5998 66.6756 67.5998 64.4953 67.5998C64.0108 67.5998 63.8493 67.4376 63.8493 66.9512C63.93 64.7623 63.93 62.6546 63.8493 60.4657ZM54.2396 48.7108C53.5935 49.3593 52.9475 50.0889 52.3015 50.6564C51.6555 51.2239 51.4132 51.8724 51.4132 52.7642C51.4939 53.4938 51.4132 54.3045 51.4132 55.0341C51.4132 55.8448 51.8977 56.4934 52.6245 56.7366C49.4751 56.7366 46.3257 56.7366 43.0956 56.7366C42.0458 56.7366 41.4805 57.223 41.2382 58.2769C41.1575 58.6822 41.1575 59.0876 41.1575 59.4118C41.1575 61.6007 41.1575 63.7895 41.1575 65.9784C41.1575 67.0323 40.8345 67.2755 39.7847 67.3565C39.2194 67.3565 38.6541 67.3565 38.0081 67.3565C36.8775 67.3565 36.6353 67.0323 36.6353 65.9784C36.6353 60.4657 36.6353 54.9531 36.6353 49.4404C36.6353 48.6297 36.8775 48.0622 37.4428 47.4947C40.1077 44.8195 42.8533 42.0631 45.5182 39.3879C46.3257 38.5772 46.6487 38.5772 47.4563 39.3879C48.9098 40.8471 50.3634 42.3064 51.817 43.7656C52.463 44.4141 53.109 45.0627 53.8358 45.5491C55.1279 46.2787 55.2894 47.4947 54.2396 48.7108ZM52.14 63.7085C52.14 64.7623 52.14 65.8973 52.14 66.9512C52.14 67.4376 51.9785 67.5998 51.4939 67.5998C49.3943 67.5998 47.2948 67.5998 45.1144 67.5998C44.6299 67.5998 44.4684 67.4376 44.4684 66.8701C44.4684 64.7624 44.4684 62.6546 44.4684 60.4657C44.4684 59.9793 44.6299 59.8172 45.1144 59.8172C47.214 59.8172 49.3136 59.8172 51.4939 59.8172C51.9785 59.8172 52.14 59.9793 52.14 60.4657C52.14 61.6007 52.14 62.6546 52.14 63.7085ZM49.0713 35.1723C49.5559 34.6859 49.9596 34.1184 50.2019 33.4699C50.3634 33.0645 50.5249 32.9835 50.8479 33.3077C53.109 35.5777 55.3701 37.8476 57.6312 40.1175C57.9542 40.4418 58.1965 40.8471 58.1157 41.1714C58.1157 41.901 57.8735 42.3874 57.3082 42.7117C56.7429 43.036 56.2584 43.036 55.6931 42.7117C55.4509 42.5496 55.2894 42.3874 55.0471 42.2253C53.0283 40.1986 51.0094 38.1718 48.9906 36.1451C48.6676 35.8209 48.5868 35.5777 49.0713 35.1723ZM45.3567 28.849C46.7295 28.849 47.7793 29.9839 47.7793 31.3621C47.7793 32.7403 46.7295 33.7941 45.2759 33.7941C43.9031 33.7941 42.8533 32.6592 42.8533 31.281C42.8533 29.9029 44.0646 28.7679 45.3567 28.849ZM32.6783 40.5229C35.1817 38.0908 37.6043 35.5777 40.1077 33.1456C40.1077 33.1456 40.1884 33.0645 40.2692 33.0645C40.5922 33.632 40.8345 34.1995 41.2382 34.767C41.8035 35.4155 42.3688 35.9019 43.0956 36.2262C43.7416 36.4694 43.5801 36.7126 43.1763 37.0369C41.8035 38.4151 40.4307 39.7932 39.0579 41.0903C38.0888 42.0631 37.1198 42.9549 36.2315 43.9277C35.9085 44.252 35.747 44.4141 35.424 43.8466C34.8587 42.6306 33.8896 41.7389 32.7591 41.1714C32.5168 41.0093 32.2746 40.8471 32.6783 40.5229ZM29.7712 50.5754C27.8331 50.5754 26.1373 48.8729 26.1373 46.9273C26.1373 44.9006 27.8331 43.2792 29.7712 43.3603C31.79 43.3603 33.4051 44.9816 33.3244 47.0083C33.4051 48.954 31.79 50.5754 29.7712 50.5754ZM30.498 79.1115C30.2557 79.1926 30.0135 79.1926 29.7712 79.1926C28.8022 79.1926 27.9946 78.544 27.7524 77.5712C27.5908 76.6794 28.0754 75.7066 28.8829 75.3013C29.2867 75.1391 29.5289 75.1391 29.6097 75.6255C29.7712 76.5173 30.175 77.328 30.7402 78.0576C31.3055 78.7061 31.2248 78.7872 30.498 79.1115ZM36.6353 92.8121C36.6353 94.4335 36.6353 95.9738 36.6353 97.5951C36.6353 98.0815 36.4738 98.2437 35.9892 98.2437C31.79 98.2437 27.6716 98.2437 23.4724 98.2437C22.9071 98.2437 22.9071 98.0005 22.9071 97.5141C22.9071 94.1092 22.9071 90.7854 22.9071 87.3805C22.9071 84.1377 22.9071 80.895 22.9071 77.6523C22.9071 74.7338 24.1992 72.5449 26.7833 71.1668C27.7524 70.6804 28.8022 70.5182 29.9327 70.5182C30.2557 70.5182 30.4172 70.5993 30.2557 71.0046C29.9327 71.7342 29.6097 72.3017 28.5599 72.4639C26.6218 72.7881 25.0875 74.6527 24.8452 76.5173C24.603 78.7872 25.6528 80.7329 27.6716 81.7057C29.4482 82.5974 31.7093 82.1921 33.1629 80.7329C33.4859 80.4086 33.8089 80.2465 34.2934 80.4897C34.7779 80.7329 35.424 80.7329 35.9085 80.7329C36.4738 80.7329 36.6353 80.9761 36.6353 81.5435C36.6353 85.2727 36.6353 89.0019 36.6353 92.8121ZM75.4778 98.1626C69.6635 98.1626 63.7685 98.1626 57.9542 98.1626C52.14 98.1626 46.245 98.1626 40.4307 98.1626C39.7847 98.1626 39.5424 98.0005 39.5424 97.2709C39.5424 94.3524 39.5424 91.4339 39.5424 88.5154C39.5424 87.8669 39.7039 87.7048 40.3499 87.7048C45.5182 87.7048 50.6864 87.7048 55.9354 87.7048C56.3392 87.7048 56.7429 87.7048 57.066 87.6237C57.712 87.4615 58.1157 86.8941 58.035 86.1645C57.9542 85.4348 57.6312 85.0295 56.9044 84.8674C56.5814 84.7863 56.1777 84.7863 55.7739 84.7863C50.6057 84.7863 45.5182 84.7863 40.3499 84.7863C39.6231 84.7863 39.3809 84.5431 39.3809 83.8135C39.4616 83.0839 39.3809 82.3542 39.3809 81.6246C39.3809 80.6518 39.3809 80.6518 40.3499 80.6518C42.5303 80.6518 44.6299 80.6518 46.8102 80.6518C56.2584 80.6518 65.6258 80.6518 75.074 80.6518C76.2046 80.6518 76.0431 80.5707 76.0431 81.6246C76.0431 86.8941 76.0431 92.0825 76.0431 97.3519C76.2853 98.0005 76.0431 98.1626 75.4778 98.1626ZM80.8075 98.1626C79.1117 98.1626 79.1117 98.1626 79.1117 96.4602C79.1117 91.515 79.1117 86.5698 79.1117 81.5435C79.1117 80.895 79.2732 80.6518 79.9192 80.7329C80 80.7329 80.0808 80.7329 80.1615 80.7329C81.5343 80.7329 81.5343 80.7329 81.5343 82.111V89.4072C81.5343 92.0825 81.5343 94.7577 81.5343 97.433C81.5343 97.9194 81.4536 98.1626 80.8075 98.1626ZM80.969 77.7333C80.5653 77.8144 80.1615 77.8144 79.7577 77.8144C65.4643 77.8144 51.0902 77.8144 36.7968 77.8144C35.9085 77.8144 35.1009 77.8144 34.2934 77.328C32.8398 76.5173 32.1131 74.8959 32.4361 73.3556C32.8398 71.6532 34.1319 70.4372 35.8277 70.4372C38.9771 70.3561 42.0458 70.4372 45.1952 70.4372C49.5559 70.4372 53.9166 70.4372 58.2773 70.4372C65.5451 70.4372 72.8129 70.4372 80.1615 70.4372C82.3419 70.4372 83.7954 71.5721 84.1184 73.4367C84.4415 75.4634 82.9879 77.5712 80.969 77.7333ZM85.9758 98.1626C84.3607 98.0815 84.3607 98.1626 84.3607 96.4602C84.3607 91.0286 84.3607 85.597 84.3607 80.0843C84.3607 79.5168 84.5222 79.1926 84.926 78.8683C85.7335 78.2197 86.218 77.328 86.7833 76.4362V77.0848C86.7833 83.8135 86.7833 90.5422 86.7833 97.3519C86.7833 98.0005 86.6218 98.1626 85.9758 98.1626ZM92.0323 69.3833C92.0323 70.5993 91.467 71.41 90.4172 71.9775C89.9327 72.2207 89.6904 72.2207 89.6904 71.491C89.6904 67.7619 89.6904 64.0327 89.6904 60.3036C89.6904 60.0604 89.6904 59.8172 89.6904 59.574C89.6097 58.8444 88.9637 58.2769 88.3176 58.2769C87.5909 58.2769 86.9448 58.8444 86.8641 59.574C86.8641 59.8172 86.8641 60.0604 86.8641 60.3036C86.8641 63.8706 86.8641 67.5187 86.8641 71.0857C86.8641 71.3289 86.9448 71.5721 86.7833 71.8964C86.3795 70.9236 85.8143 70.1129 85.0875 69.3833C83.7147 68.0862 82.0188 67.4376 80.0808 67.5187C79.354 67.5187 79.1925 67.3565 79.1925 66.6269C79.2732 64.357 79.1925 62.0871 79.1925 59.8172C79.1925 59.1686 78.9502 58.6012 78.3042 58.3579C77.8196 58.1147 77.3351 58.1958 76.8506 58.5201C76.3661 58.8443 76.2853 59.4118 76.2853 59.9793C76.2853 62.2492 76.2853 64.5191 76.2853 66.708C76.2853 67.5998 75.8816 67.5187 75.3163 67.5187C74.6703 67.5187 74.428 67.3565 74.428 66.708C74.5088 64.0327 74.428 61.4385 74.428 58.7633C74.428 58.5201 74.5088 58.1958 74.3472 57.9526C73.3782 56.4934 74.1857 55.2773 74.9125 54.2234C75.8816 52.7642 77.3351 51.9535 79.1117 51.9535C81.6151 51.9535 84.1184 51.8724 86.5411 51.9535C89.6904 52.0346 91.9515 54.3045 91.9515 57.4662C92.0323 61.5196 92.0323 65.492 92.0323 69.3833ZM77.6581 72.7071C76.9314 72.7071 76.2853 73.3556 76.2853 74.0852C76.2853 74.8959 76.9314 75.5445 77.7389 75.4634C78.4657 75.4634 79.1117 74.8149 79.1117 74.0852C79.1117 73.3556 78.4657 72.7071 77.6581 72.7071ZM68.21 72.7071C67.4832 72.7071 66.8371 73.3556 66.8371 74.1663C66.8371 74.977 67.4832 75.5445 68.2907 75.5445C69.0175 75.5445 69.6635 74.8959 69.6635 74.0852C69.7443 73.3556 69.0175 72.7071 68.21 72.7071ZM62.3149 84.9484C61.5074 84.9484 60.9421 85.5159 60.8614 86.3266C60.8614 87.1373 61.4266 87.7858 62.2342 87.7858C63.0417 87.7858 63.6878 87.1373 63.6878 86.3266C63.6878 85.5159 63.0417 84.9484 62.3149 84.9484ZM59.004 72.7071C58.1965 72.7071 57.5505 73.3556 57.5505 74.0852C57.5505 74.8149 58.1965 75.4634 58.9233 75.4634C59.7308 75.4634 60.3769 74.8149 60.3769 74.0852C60.3769 73.3556 59.7308 72.7881 59.004 72.7071ZM49.5559 72.7071C48.8291 72.7071 48.183 73.3556 48.183 74.1663C48.183 74.977 48.9098 75.5445 49.6366 75.5445C50.3634 75.5445 51.0094 74.8959 51.0094 74.0852C51.0094 73.3556 50.3634 72.7071 49.5559 72.7071ZM45.3567 32.7403C46.0834 32.7403 46.8102 32.0106 46.8102 31.281C46.8102 30.5514 46.1642 29.9029 45.3567 29.9029C44.5491 29.9029 43.9839 30.4703 43.9839 31.281C43.9031 32.0917 44.5491 32.7403 45.3567 32.7403ZM40.1884 72.7071C39.3809 72.7071 38.8156 73.3556 38.8156 74.0852C38.8156 74.8959 39.4616 75.5445 40.2692 75.4634C40.996 75.4634 41.642 74.8149 41.642 74.0852C41.642 73.3556 40.996 72.7071 40.1884 72.7071ZM29.852 45.468C29.1252 45.468 28.4791 46.1166 28.3984 46.8462C28.3984 47.6569 28.9637 48.3054 29.7712 48.3054C30.498 48.3054 31.144 47.738 31.2248 46.9273C31.3055 46.2787 30.5787 45.5491 29.852 45.468ZM45.3567 29.9029C44.5491 29.9029 43.9839 30.4703 43.9839 31.281C43.9839 32.0917 44.6299 32.7403 45.3567 32.7403C46.0834 32.7403 46.8102 32.0106 46.8102 31.281C46.7295 30.5514 46.0834 29.9029 45.3567 29.9029ZM29.852 45.468C29.1252 45.468 28.4791 46.1166 28.3984 46.8462C28.3984 47.6569 28.9637 48.3054 29.7712 48.3054C30.498 48.3054 31.144 47.738 31.2248 46.9273C31.3055 46.2787 30.5787 45.5491 29.852 45.468ZM62.3149 84.9484C61.5074 84.9484 60.9421 85.5159 60.8614 86.3266C60.8614 87.1373 61.4266 87.7858 62.2342 87.7858C63.0417 87.7858 63.6878 87.1373 63.6878 86.3266C63.6878 85.5159 63.0417 84.9484 62.3149 84.9484ZM40.1884 72.7071C39.3809 72.7071 38.8156 73.3556 38.8156 74.0852C38.8156 74.8959 39.4616 75.5445 40.2692 75.4634C40.996 75.4634 41.642 74.8149 41.642 74.0852C41.642 73.3556 40.996 72.7071 40.1884 72.7071ZM49.5559 72.7071C48.8291 72.7071 48.183 73.3556 48.183 74.1663C48.183 74.977 48.9098 75.5445 49.6366 75.5445C50.3634 75.5445 51.0094 74.8959 51.0094 74.0852C51.0094 73.3556 50.3634 72.7071 49.5559 72.7071ZM59.004 72.7071C58.1965 72.7071 57.5505 73.3556 57.5505 74.0852C57.5505 74.8149 58.1965 75.4634 58.9233 75.4634C59.7308 75.4634 60.3769 74.8149 60.3769 74.0852C60.3769 73.3556 59.7308 72.7881 59.004 72.7071ZM68.21 72.7071C67.4832 72.7071 66.8371 73.3556 66.8371 74.1663C66.8371 74.977 67.4832 75.5445 68.2907 75.5445C69.0175 75.5445 69.6635 74.8959 69.6635 74.0852C69.7443 73.3556 69.0175 72.7071 68.21 72.7071ZM77.6581 72.7071C76.9314 72.7071 76.2853 73.3556 76.2853 74.0852C76.2853 74.8959 76.9314 75.5445 77.7389 75.4634C78.4657 75.4634 79.1117 74.8149 79.1117 74.0852C79.1117 73.3556 78.4657 72.7071 77.6581 72.7071ZM77.6581 72.7071C76.9314 72.7071 76.2853 73.3556 76.2853 74.0852C76.2853 74.8959 76.9314 75.5445 77.7389 75.4634C78.4657 75.4634 79.1117 74.8149 79.1117 74.0852C79.1117 73.3556 78.4657 72.7071 77.6581 72.7071ZM68.21 72.7071C67.4832 72.7071 66.8371 73.3556 66.8371 74.1663C66.8371 74.977 67.4832 75.5445 68.2907 75.5445C69.0175 75.5445 69.6635 74.8959 69.6635 74.0852C69.7443 73.3556 69.0175 72.7071 68.21 72.7071ZM62.3149 84.9484C61.5074 84.9484 60.9421 85.5159 60.8614 86.3266C60.8614 87.1373 61.4266 87.7858 62.2342 87.7858C63.0417 87.7858 63.6878 87.1373 63.6878 86.3266C63.6878 85.5159 63.0417 84.9484 62.3149 84.9484ZM59.004 72.7071C58.1965 72.7071 57.5505 73.3556 57.5505 74.0852C57.5505 74.8149 58.1965 75.4634 58.9233 75.4634C59.7308 75.4634 60.3769 74.8149 60.3769 74.0852C60.3769 73.3556 59.7308 72.7881 59.004 72.7071ZM49.5559 72.7071C48.8291 72.7071 48.183 73.3556 48.183 74.1663C48.183 74.977 48.9098 75.5445 49.6366 75.5445C50.3634 75.5445 51.0094 74.8959 51.0094 74.0852C51.0094 73.3556 50.3634 72.7071 49.5559 72.7071ZM45.3567 29.9029C44.5491 29.9029 43.9839 30.4703 43.9839 31.281C43.9839 32.0917 44.6299 32.7403 45.3567 32.7403C46.0834 32.7403 46.8102 32.0106 46.8102 31.281C46.7295 30.5514 46.0834 29.9029 45.3567 29.9029ZM40.1884 72.7071C39.3809 72.7071 38.8156 73.3556 38.8156 74.0852C38.8156 74.8959 39.4616 75.5445 40.2692 75.4634C40.996 75.4634 41.642 74.8149 41.642 74.0852C41.642 73.3556 40.996 72.7071 40.1884 72.7071ZM29.852 45.468C29.1252 45.468 28.4791 46.1166 28.3984 46.8462C28.3984 47.6569 28.9637 48.3054 29.7712 48.3054C30.498 48.3054 31.144 47.738 31.2248 46.9273C31.3055 46.2787 30.5787 45.5491 29.852 45.468ZM45.3567 29.9029C44.5491 29.9029 43.9839 30.4703 43.9839 31.281C43.9839 32.0917 44.6299 32.7403 45.3567 32.7403C46.0834 32.7403 46.8102 32.0106 46.8102 31.281C46.7295 30.5514 46.0834 29.9029 45.3567 29.9029ZM29.852 45.468C29.1252 45.468 28.4791 46.1166 28.3984 46.8462C28.3984 47.6569 28.9637 48.3054 29.7712 48.3054C30.498 48.3054 31.144 47.738 31.2248 46.9273C31.3055 46.2787 30.5787 45.5491 29.852 45.468ZM40.1884 72.7071C39.3809 72.7071 38.8156 73.3556 38.8156 74.0852C38.8156 74.8959 39.4616 75.5445 40.2692 75.4634C40.996 75.4634 41.642 74.8149 41.642 74.0852C41.642 73.3556 40.996 72.7071 40.1884 72.7071ZM49.5559 72.7071C48.8291 72.7071 48.183 73.3556 48.183 74.1663C48.183 74.977 48.9098 75.5445 49.6366 75.5445C50.3634 75.5445 51.0094 74.8959 51.0094 74.0852C51.0094 73.3556 50.3634 72.7071 49.5559 72.7071ZM59.004 72.7071C58.1965 72.7071 57.5505 73.3556 57.5505 74.0852C57.5505 74.8149 58.1965 75.4634 58.9233 75.4634C59.7308 75.4634 60.3769 74.8149 60.3769 74.0852C60.3769 73.3556 59.7308 72.7881 59.004 72.7071ZM68.21 72.7071C67.4832 72.7071 66.8371 73.3556 66.8371 74.1663C66.8371 74.977 67.4832 75.5445 68.2907 75.5445C69.0175 75.5445 69.6635 74.8959 69.6635 74.0852C69.7443 73.3556 69.0175 72.7071 68.21 72.7071ZM77.6581 72.7071C76.9314 72.7071 76.2853 73.3556 76.2853 74.0852C76.2853 74.8959 76.9314 75.5445 77.7389 75.4634C78.4657 75.4634 79.1117 74.8149 79.1117 74.0852C79.1117 73.3556 78.4657 72.7071 77.6581 72.7071ZM77.6581 72.7071C76.9314 72.7071 76.2853 73.3556 76.2853 74.0852C76.2853 74.8959 76.9314 75.5445 77.7389 75.4634C78.4657 75.4634 79.1117 74.8149 79.1117 74.0852C79.1117 73.3556 78.4657 72.7071 77.6581 72.7071ZM68.21 72.7071C67.4832 72.7071 66.8371 73.3556 66.8371 74.1663C66.8371 74.977 67.4832 75.5445 68.2907 75.5445C69.0175 75.5445 69.6635 74.8959 69.6635 74.0852C69.7443 73.3556 69.0175 72.7071 68.21 72.7071ZM59.004 72.7071C58.1965 72.7071 57.5505 73.3556 57.5505 74.0852C57.5505 74.8149 58.1965 75.4634 58.9233 75.4634C59.7308 75.4634 60.3769 74.8149 60.3769 74.0852C60.3769 73.3556 59.7308 72.7881 59.004 72.7071ZM49.5559 72.7071C48.8291 72.7071 48.183 73.3556 48.183 74.1663C48.183 74.977 48.9098 75.5445 49.6366 75.5445C50.3634 75.5445 51.0094 74.8959 51.0094 74.0852C51.0094 73.3556 50.3634 72.7071 49.5559 72.7071ZM45.3567 29.9029C44.5491 29.9029 43.9839 30.4703 43.9839 31.281C43.9839 32.0917 44.6299 32.7403 45.3567 32.7403C46.0834 32.7403 46.8102 32.0106 46.8102 31.281C46.7295 30.5514 46.0834 29.9029 45.3567 29.9029ZM40.1884 72.7071C39.3809 72.7071 38.8156 73.3556 38.8156 74.0852C38.8156 74.8959 39.4616 75.5445 40.2692 75.4634C40.996 75.4634 41.642 74.8149 41.642 74.0852C41.642 73.3556 40.996 72.7071 40.1884 72.7071ZM29.852 45.468C29.1252 45.468 28.4791 46.1166 28.3984 46.8462C28.3984 47.6569 28.9637 48.3054 29.7712 48.3054C30.498 48.3054 31.144 47.738 31.2248 46.9273C31.3055 46.2787 30.5787 45.5491 29.852 45.468ZM45.3567 29.9029C44.5491 29.9029 43.9839 30.4703 43.9839 31.281C43.9839 32.0917 44.6299 32.7403 45.3567 32.7403C46.0834 32.7403 46.8102 32.0106 46.8102 31.281C46.7295 30.5514 46.0834 29.9029 45.3567 29.9029ZM29.852 45.468C29.1252 45.468 28.4791 46.1166 28.3984 46.8462C28.3984 47.6569 28.9637 48.3054 29.7712 48.3054C30.498 48.3054 31.144 47.738 31.2248 46.9273C31.3055 46.2787 30.5787 45.5491 29.852 45.468ZM45.3567 29.9029C44.5491 29.9029 43.9839 30.4703 43.9839 31.281C43.9839 32.0917 44.6299 32.7403 45.3567 32.7403C46.0834 32.7403 46.8102 32.0106 46.8102 31.281C46.7295 30.5514 46.0834 29.9029 45.3567 29.9029ZM29.852 45.468C29.1252 45.468 28.4791 46.1166 28.3984 46.8462C28.3984 47.6569 28.9637 48.3054 29.7712 48.3054C30.498 48.3054 31.144 47.738 31.2248 46.9273C31.3055 46.2787 30.5787 45.5491 29.852 45.468ZM45.3567 29.9029C44.5491 29.9029 43.9839 30.4703 43.9839 31.281C43.9839 32.0917 44.6299 32.7403 45.3567 32.7403C46.0834 32.7403 46.8102 32.0106 46.8102 31.281C46.7295 30.5514 46.0834 29.9029 45.3567 29.9029ZM29.852 45.468C29.1252 45.468 28.4791 46.1166 28.3984 46.8462C28.3984 47.6569 28.9637 48.3054 29.7712 48.3054C30.498 48.3054 31.144 47.738 31.2248 46.9273C31.3055 46.2787 30.5787 45.5491 29.852 45.468ZM45.3567 29.9029C44.5491 29.9029 43.9839 30.4703 43.9839 31.281C43.9839 32.0917 44.6299 32.7403 45.3567 32.7403C46.0834 32.7403 46.8102 32.0106 46.8102 31.281C46.7295 30.5514 46.0834 29.9029 45.3567 29.9029ZM29.852 45.468C29.1252 45.468 28.4791 46.1166 28.3984 46.8462C28.3984 47.6569 28.9637 48.3054 29.7712 48.3054C30.498 48.3054 31.144 47.738 31.2248 46.9273C31.3055 46.2787 30.5787 45.5491 29.852 45.468ZM45.3567 29.9029C44.5491 29.9029 43.9839 30.4703 43.9839 31.281C43.9839 32.0917 44.6299 32.7403 45.3567 32.7403C46.0834 32.7403 46.8102 32.0106 46.8102 31.281C46.7295 30.5514 46.0834 29.9029 45.3567 29.9029ZM29.852 45.468C29.1252 45.468 28.4791 46.1166 28.3984 46.8462C28.3984 47.6569 28.9637 48.3054 29.7712 48.3054C30.498 48.3054 31.144 47.738 31.2248 46.9273C31.3055 46.2787 30.5787 45.5491 29.852 45.468ZM45.3567 29.9029C44.5491 29.9029 43.9839 30.4703 43.9839 31.281C43.9839 32.0917 44.6299 32.7403 45.3567 32.7403C46.0834 32.7403 46.8102 32.0106 46.8102 31.281C46.7295 30.5514 46.0834 29.9029 45.3567 29.9029ZM29.852 45.468C29.1252 45.468 28.4791 46.1166 28.3984 46.8462C28.3984 47.6569 28.9637 48.3054 29.7712 48.3054C30.498 48.3054 31.144 47.738 31.2248 46.9273C31.3055 46.2787 30.5787 45.5491 29.852 45.468ZM45.3567 29.9029C44.5491 29.9029 43.9839 30.4703 43.9839 31.281C43.9839 32.0917 44.6299 32.7403 45.3567 32.7403C46.0834 32.7403 46.8102 32.0106 46.8102 31.281C46.7295 30.5514 46.0834 29.9029 45.3567 29.9029ZM29.852 45.468C29.1252 45.468 28.4791 46.1166 28.3984 46.8462C28.3984 47.6569 28.9637 48.3054 29.7712 48.3054C30.498 48.3054 31.144 47.738 31.2248 46.9273C31.3055 46.2787 30.5787 45.5491 29.852 45.468ZM45.3567 29.9029C44.5491 29.9029 43.9839 30.4703 43.9839 31.281C43.9839 32.0917 44.6299 32.7403 45.3567 32.7403C46.0834 32.7403 46.8102 32.0106 46.8102 31.281C46.7295 30.5514 46.0834 29.9029 45.3567 29.9029ZM29.852 45.468C29.1252 45.468 28.4791 46.1166 28.3984 46.8462C28.3984 47.6569 28.9637 48.3054 29.7712 48.3054C30.498 48.3054 31.144 47.738 31.2248 46.9273C31.3055 46.2787 30.5787 45.5491 29.852 45.468ZM29.852 45.468C29.1252 45.468 28.4791 46.1166 28.3984 46.8462C28.3984 47.6569 28.9637 48.3054 29.7712 48.3054C30.498 48.3054 31.144 47.738 31.2248 46.9273C31.3055 46.2787 30.5787 45.5491 29.852 45.468ZM29.852 45.468C29.1252 45.468 28.4791 46.1166 28.3984 46.8462C28.3984 47.6569 28.9637 48.3054 29.7712 48.3054C30.498 48.3054 31.144 47.738 31.2248 46.9273C31.3055 46.2787 30.5787 45.5491 29.852 45.468Z" fill="#0264AB"/>
</svg>
