<svg width="95" height="102" viewBox="0 0 95 102" fill="none" xmlns="http://www.w3.org/2000/svg">
<circle opacity="0.05" cx="38.5" cy="38.5" r="38.5" fill="#0063AA"/>
<path d="M91.5809 76.9066C91.1409 76.6426 91.0529 76.4666 91.3169 76.0266C92.989 73.2984 91.5809 69.6902 88.5007 68.8982C87.8847 68.7222 87.2687 68.7222 86.6526 68.7222C80.2283 68.7222 73.7159 68.7222 67.2916 68.7222C66.8515 68.7222 66.4115 68.7222 66.1475 68.2822C65.8835 67.7541 66.1475 67.4021 66.4115 66.9621C67.5556 65.114 68.6996 63.3539 69.8437 61.5058C70.8998 59.7457 70.5477 57.5456 69.0517 56.2255C67.5556 54.9054 65.3555 54.8174 63.7714 56.1375C62.0993 57.4576 60.4272 58.7776 58.7551 60.1857C57.699 61.0658 57.083 62.2098 56.819 63.5299C56.643 64.41 56.907 65.29 56.907 66.258C56.907 67.9301 56.555 69.5142 55.3229 70.8343C53.6508 72.5944 51.6267 73.0344 49.2506 72.6824C48.2825 72.5064 47.4025 72.5064 46.5224 72.8584C45.2024 73.3864 43.8823 73.4744 42.4742 73.4744C37.7219 73.4744 33.0577 73.4744 28.3054 73.4744C27.9534 73.4744 27.6014 73.4744 27.1614 73.4744C25.1372 73.6504 23.5532 74.9705 23.0251 76.9066C22.9371 77.0826 22.9371 77.2587 22.8491 77.5227C22.8491 82.4509 22.8491 87.3792 22.8491 92.2195C22.8491 92.3075 22.9371 92.3075 22.9371 92.3955C23.7292 95.0356 25.3133 96.2677 28.0414 96.2677C33.3217 96.2677 38.602 96.2677 43.9703 96.2677C45.7304 96.2677 47.4025 96.6197 48.9866 97.4998C49.6906 97.9398 50.3946 98.2918 51.0987 98.7318C53.4748 100.228 56.115 101.02 59.0191 100.932C61.8353 100.844 64.7394 100.932 67.5556 100.932C67.7316 100.932 67.9956 100.932 68.1716 100.932C68.6996 100.844 69.0517 100.404 69.0517 99.8759C69.0517 99.3479 68.6996 98.9958 68.1716 98.9078C67.9956 98.9078 67.7316 98.9078 67.5556 98.9078C64.5634 98.9078 61.4832 98.9078 58.4911 98.9078C56.731 98.9078 54.9709 98.4678 53.4748 97.6758C52.6828 97.2357 51.8907 96.7957 51.1867 96.2677C48.8986 94.8596 46.4344 94.1556 43.7943 94.1556C38.514 94.2436 33.3217 94.1556 28.0414 94.1556C26.2813 94.1556 25.1372 93.0115 25.0492 91.1634C25.0492 89.3153 25.0492 87.4672 25.0492 85.7071C25.0492 83.243 25.0492 80.7788 25.0492 78.3147C25.0492 76.6426 26.1933 75.4986 27.8654 75.4986C30.3295 75.4986 32.7937 75.4986 35.2578 75.4986C35.5218 75.4986 35.7858 75.4986 35.9618 75.7626C37.1059 77.2587 38.074 78.7547 38.514 80.5148C38.602 80.8668 38.602 81.1309 38.69 81.4829C38.866 82.0109 39.306 82.1869 39.8341 82.0989C40.3621 82.0109 40.6261 81.6589 40.6261 81.2189C40.6261 80.8668 40.6261 80.6028 40.5381 80.2508C40.2741 78.7547 39.57 77.4347 38.778 76.2026C38.69 76.0266 38.426 75.8506 38.514 75.6746C38.602 75.4105 38.954 75.5866 39.13 75.5866C40.4501 75.5866 41.6822 75.5866 43.0022 75.5866C44.1463 75.5866 45.2904 75.5866 46.2584 75.1465C47.4025 74.6185 48.6345 74.6185 49.8666 74.7945C53.6508 75.3225 57.259 73.0344 58.4911 69.4262C59.0191 67.8421 59.0191 66.258 58.8431 64.586C58.7551 63.5299 59.0191 62.5618 59.8992 61.9458C61.5713 60.5377 63.3313 59.1297 65.0914 57.8096C65.8835 57.1936 67.0275 57.2815 67.7316 57.8976C68.4356 58.6016 68.6116 59.5697 68.1716 60.4497C68.0836 60.6257 67.9076 60.8898 67.8196 61.0658C66.7635 62.8259 65.6195 64.586 64.5634 66.3461C63.3313 68.3702 64.4754 70.5703 66.8515 70.8343C67.2916 70.9223 67.8196 70.8343 68.3476 70.8343C68.7876 70.8343 68.8757 71.0103 68.7876 71.3623C68.6116 71.8904 68.5236 72.4184 68.3476 72.9464C67.0275 77.1706 64.4754 79.6348 59.4591 79.3708C56.907 79.2828 54.6189 80.0748 52.5068 81.3949C51.2747 82.1869 50.0426 82.979 48.8105 83.771C48.1945 84.123 47.5785 84.4751 46.9624 84.6511C45.5544 85.0031 44.2343 84.9151 42.9142 84.299C42.2982 84.035 41.7702 84.211 41.5061 84.7391C41.2421 85.2671 41.4181 85.7951 42.0342 86.1471C42.2102 86.2351 42.2982 86.3231 42.4742 86.3231C44.9383 87.3792 47.4025 87.1152 49.6026 85.7071C50.8347 84.9151 52.0667 84.035 53.2988 83.243C54.7069 82.3629 56.115 81.7469 57.787 81.4829C58.7551 81.3069 59.8112 81.4829 60.7792 81.3949C64.2114 81.2189 66.8515 79.8108 68.6996 76.9066C69.7557 75.2345 70.3717 73.3864 70.7238 71.4503C70.8118 70.9223 71.0758 70.7463 71.6038 70.7463C76.7961 70.7463 81.9004 70.7463 87.0927 70.7463C87.2687 70.7463 87.4447 70.7463 87.6207 70.7463C88.9408 70.8343 89.9968 71.8023 90.0848 73.0344C90.2608 74.4425 89.4688 75.6746 88.2367 76.0266C87.7967 76.1146 87.3567 76.2026 86.9166 76.2026C81.8124 76.2026 76.7081 76.2026 71.6038 76.2026C70.8118 76.2026 70.3717 76.5546 70.3717 77.1707C70.3717 77.7867 70.8118 78.1387 71.6038 78.2267C71.7798 78.2267 71.9558 78.2267 72.1318 78.2267C77.6761 78.2267 83.2204 78.2267 88.7647 78.2267C89.0288 78.2267 89.2048 78.2267 89.4688 78.2267C90.7009 78.3147 91.6689 79.1068 92.0209 80.2508C92.3729 81.3949 91.8449 82.5389 90.8769 83.243C90.3488 83.595 89.7328 83.683 89.0288 83.683C83.0444 83.683 77.0601 83.683 71.0758 83.683C70.8998 83.683 70.6357 83.683 70.4597 83.683C69.8437 83.771 69.4037 84.211 69.4037 84.7391C69.4037 85.2671 69.8437 85.6191 70.4597 85.7071C70.7238 85.7071 70.8998 85.7071 71.1638 85.7071C75.74 85.7071 80.4043 85.7071 84.9805 85.7071C85.3326 85.7071 85.7726 85.7071 86.1246 85.7951C87.5327 86.1471 88.5007 87.5552 88.1487 89.0513C87.7967 90.4594 86.7406 91.2514 85.0685 91.2514C81.9004 91.2514 78.7322 91.2514 75.652 91.2514C73.3639 91.2514 70.9878 91.2514 68.6996 91.2514C67.9076 91.2514 67.4676 91.6914 67.4676 92.2195C67.4676 92.8355 67.9076 93.2755 68.6996 93.2755C68.8757 93.2755 69.0517 93.2755 69.2277 93.2755C72.8359 93.2755 76.5321 93.2755 80.1403 93.2755C80.4043 93.2755 80.7563 93.2755 81.0203 93.2755C82.6044 93.3635 83.7485 94.9476 83.3965 96.4437C83.1324 97.8518 81.9884 98.7318 80.4923 98.7318C78.0282 98.7318 75.564 98.7318 73.0999 98.7318C72.3958 98.7318 71.9558 99.0838 71.9558 99.6999C71.9558 100.316 72.3958 100.756 73.0999 100.756C75.74 100.756 78.2922 100.844 80.9323 100.756C83.8365 100.668 85.9486 97.9398 85.4206 95.1236C85.3326 94.5076 84.9805 93.9796 84.8045 93.3635C85.0685 93.1875 85.2446 93.2755 85.5086 93.2755C89.2048 93.0995 91.4049 89.2273 89.6448 86.1471C89.3808 85.7071 89.5568 85.7071 89.9088 85.6191C92.0209 85.1791 93.605 83.683 93.957 81.5709C94.221 79.8108 93.253 77.8747 91.5809 76.9066Z" fill="#0264AB" stroke="#0065AB" stroke-width="0.9045" stroke-miterlimit="10"/>
<path d="M52.4189 54.1134C53.035 56.0495 54.7951 57.1935 56.7312 57.0175C58.6673 56.8415 60.2514 55.4334 60.5154 53.4093C60.6034 52.8813 60.7794 52.6173 61.3074 52.4413C65.3556 51.2972 69.3159 50.0651 73.2761 48.8331C74.2441 48.569 75.3002 48.217 76.2682 47.865C76.7963 47.689 77.0603 47.161 76.8843 46.6329C76.7083 46.1049 76.2682 45.8409 75.7402 45.9289C75.5642 45.9289 75.3882 46.0169 75.2122 46.1049C73.2761 46.721 71.34 47.249 69.4039 47.865C66.4997 48.7451 63.6836 49.6251 60.7794 50.5052C60.3394 50.6812 60.0754 50.5932 59.8993 50.0651C59.6353 49.0971 59.3713 48.129 59.0193 47.161C58.9313 46.809 59.0193 46.6329 59.3713 46.6329C60.2514 46.5449 61.0434 46.4569 61.9235 46.2809C66.0597 45.5769 69.8439 44.0808 73.2761 41.7927C74.2441 41.1766 75.3002 40.7366 76.3562 40.5606C78.3804 40.2086 80.4045 40.3846 82.3406 40.5606C84.2767 40.7366 86.3008 41.0886 88.3249 40.7366C89.1169 40.5606 89.997 40.4726 90.877 40.2966C90.173 41.3527 89.1169 41.9687 87.9729 42.3207C85.4207 43.1128 82.9566 43.8168 80.4045 44.6088C79.7004 44.7848 79.3484 45.3129 79.5244 45.8409C79.7004 46.4569 80.2285 46.721 80.9325 46.5449C83.6606 45.7529 86.3888 44.9609 89.0289 44.0808C91.9331 43.1128 93.7812 40.2966 93.7812 37.2164C93.7812 34.2243 91.7571 31.4081 88.9409 30.4401C88.4129 30.264 87.9729 30.176 87.4449 30H85.5968C84.9807 30.176 84.4527 30.3521 83.8367 30.5281C74.7722 33.2562 65.7957 35.9844 56.7312 38.7125C56.2911 38.8005 56.1151 38.8005 55.7631 38.4485C54.443 36.8644 52.4189 36.4244 50.6588 37.3044C48.8987 38.1845 48.0187 40.2086 48.5467 42.1447C49.9548 46.0169 51.1869 50.0651 52.4189 54.1134ZM57.8752 40.3846C62.8035 38.8885 67.8198 37.3924 72.748 35.8964C76.7963 34.6643 80.9325 33.4322 84.9807 32.2002C88.3249 31.2321 91.4051 33.1682 91.9331 36.5124C92.1091 37.3924 92.0211 37.3924 91.2291 37.7445C89.733 38.4485 88.1489 38.6245 86.3888 38.7125C84.4527 38.5365 82.4286 38.4485 80.4045 38.2725C78.8204 38.1845 77.3243 38.2725 75.7402 38.5365C74.5961 38.7125 73.4521 39.1525 72.484 39.8566C69.4039 41.9687 65.9717 43.4648 62.2755 44.1688C61.1314 44.4328 59.8993 44.6088 58.6673 44.6968C58.3153 44.6968 58.1392 44.6088 58.0512 44.2568C57.7872 43.3768 57.5232 42.4087 57.2592 41.5287C57.0832 40.6486 57.0832 40.6486 57.8752 40.3846ZM52.0669 38.8885C53.211 38.4485 54.443 39.0645 54.7951 40.3846C55.4991 42.4967 56.1151 44.6968 56.7312 46.809C57.2592 48.5691 57.7872 50.3291 58.3153 52.0012C58.4033 52.2653 58.4913 52.6173 58.4913 52.7053C58.4913 53.8493 57.6992 54.7294 56.7312 54.9054C55.7631 55.0814 54.7071 54.4654 54.443 53.4093C54.003 52.0893 53.651 50.7692 53.211 49.4491C52.4189 46.809 51.6269 44.2568 50.8348 41.6167C50.4828 40.3846 50.9228 39.2405 52.0669 38.8885Z" fill="#0264AB" stroke="#0065AB" stroke-width="0.9045" stroke-miterlimit="10"/>
<path d="M48.7228 69.9543C51.803 70.1303 54.2671 67.7541 54.1791 64.1459C54.0911 61.5938 52.595 59.2177 50.6589 57.0175C49.7789 56.0495 48.1948 56.1375 47.4027 57.1056C45.7306 59.0417 44.3225 61.1538 43.8825 63.7939C43.3545 67.0501 45.4666 69.6902 48.7228 69.9543ZM45.8186 64.1459C46.0826 61.9458 47.3147 60.2737 48.6348 58.6016C48.8108 58.3376 49.0748 58.2496 49.3388 58.5136C50.7469 60.2737 51.979 62.1218 52.067 63.9699C52.067 66.5221 50.7469 67.9302 48.8108 67.8421C46.8747 67.7541 45.5546 66.1701 45.8186 64.1459Z" fill="#0264AB" stroke="#0065AB" stroke-width="0.9045" stroke-miterlimit="10"/>
<path d="M48.1063 80.7788C48.1063 80.1628 47.8423 79.7228 47.2262 79.7228C46.2582 79.6348 45.8181 79.1067 45.7301 78.1387C45.6421 77.5226 45.2021 77.2586 44.6741 77.3466C44.058 77.4346 43.794 77.7867 43.794 78.4027C43.706 80.1628 45.2901 81.7469 47.0502 81.7469C47.6662 81.7469 48.1063 81.3949 48.1063 80.7788Z" fill="#0264AB" stroke="#0065AB" stroke-width="0.9045" stroke-miterlimit="10"/>
<path d="M60.5149 76.5546C62.187 76.5546 63.6831 75.0585 63.7711 73.3864C63.7711 72.6824 63.4191 72.1544 62.8031 72.0664C62.275 72.0664 61.747 72.4184 61.747 72.9464C61.747 73.9145 61.131 74.3545 60.2509 74.5305C59.6349 74.6185 59.3709 75.0585 59.4589 75.6746C59.5469 76.2906 59.9869 76.5546 60.5149 76.5546Z" fill="#0264AB" stroke="#0065AB" stroke-width="0.9045" stroke-miterlimit="10"/>
</svg>
