<svg width="94" height="101" viewBox="0 0 94 101" fill="none" xmlns="http://www.w3.org/2000/svg">
<circle opacity="0.05" cx="38.5" cy="38.5" r="38.5" fill="#0063AA"/>
<path d="M93.8 67.2901C93.8 65.9622 93.5657 65.6498 92.3159 65.2592C87.5511 63.7751 82.8644 62.3691 78.0996 60.8069C76.9279 60.4163 75.9125 60.2601 74.8189 60.8069C74.4283 61.0412 74.194 60.885 74.1159 60.4163C73.5691 58.2292 72.8661 56.1202 71.9288 54.1674C70.5227 51.1991 68.7262 48.5434 66.4609 46.1219C65.6017 45.1846 64.43 44.794 63.1803 45.1846C61.9305 45.5751 61.2275 46.4343 60.9931 47.7622C60.915 48.2309 60.915 48.7777 60.915 49.2464C60.8369 51.7459 59.8215 53.933 57.9468 55.6515C57.7906 55.7296 57.7124 55.964 57.4781 55.8858C57.4781 54.1674 57.4781 52.3708 57.4781 50.6524C57.4781 46.903 56.7751 43.2317 55.3691 39.7948C53.3382 35.03 50.37 31.0464 46.1519 28H45.1365C44.0429 28.3906 43.9648 28.4687 43.9648 29.7185C43.9648 30.5777 43.8867 31.3588 43.7305 32.218C43.1056 37.0609 41.309 41.3571 38.3408 45.1846C35.0601 49.2464 33.0292 53.8549 32.0918 59.0103C31.9356 59.7914 31.8575 60.5725 31.7013 61.4318C31.3107 60.8069 31.0764 60.2601 30.9202 59.7133C30.5296 58.7759 30.4515 57.7605 30.1391 56.7451C29.8266 55.6515 29.1236 55.0266 27.9519 54.8704C26.7021 54.7141 25.7648 55.1828 25.1399 56.2764C24.4369 57.5262 23.812 58.8541 23.2652 60.182C22.3279 62.6034 21.4687 65.0249 21.2343 67.6026C21.1562 68.7743 21.1562 69.9459 21 71.1176V75.8043C21.1562 76.976 21.3906 78.0695 21.5468 79.2412C21.8592 80.7253 22.2498 82.2095 22.8747 83.6155C23.1871 84.3966 23.8901 84.709 24.5931 84.4747C25.3742 84.2403 25.7648 83.5373 25.5305 82.7562C25.4524 82.5219 25.3742 82.2876 25.2961 82.0532C24.3588 79.6318 23.8901 77.1322 23.812 74.5545C23.6558 69.3991 24.7494 64.4781 26.9365 59.7914C27.0146 59.6352 27.0146 59.4008 27.327 59.3227C27.4052 59.7133 27.5614 60.0258 27.6395 60.4163C28.5768 63.1502 30.1391 65.4155 32.3262 67.212C33.1854 67.915 34.3571 67.6807 34.6695 66.6652C34.7476 66.3528 34.7476 66.0404 34.7476 65.6498C34.7476 63.6189 34.8258 61.5099 35.2163 59.479C36.0755 54.7142 38.1064 50.4961 41.1528 46.7468C43.8867 43.2318 45.6833 39.3262 46.5425 34.9519C46.6987 34.1708 46.8549 33.4678 46.933 32.6867C47.0112 32.6867 47.0893 32.6086 47.0893 32.6086C47.2455 32.8429 47.4798 33.0772 47.6361 33.3116C50.0575 35.8893 51.8541 38.7794 53.0258 42.0601C54.0412 44.9502 54.5099 47.9184 54.5099 50.9648C54.5099 53.4644 54.5099 56.042 54.5099 58.5416C54.5099 59.8695 55.5253 60.4944 56.697 59.9476C60.4464 58.151 62.7116 55.1828 63.4927 51.121C63.6489 50.2618 63.6489 49.4026 63.727 48.5433C63.727 48.3871 63.727 48.1528 63.8833 48.0747C64.0395 47.9966 64.1957 48.1528 64.2738 48.2309C64.3519 48.309 64.43 48.3871 64.43 48.4652C67.7107 52.1365 69.8979 56.3545 71.0695 61.0412C71.3039 61.9004 71.3039 61.9004 70.4446 62.1348C67.0077 63.2283 63.5708 64.2438 60.1339 65.3373C59.0403 65.6498 58.806 66.0403 58.806 67.1339C58.806 71.1957 58.806 75.2575 58.806 79.3974C58.806 80.7253 58.806 82.1313 59.1185 83.6155C58.7279 82.9125 58.3373 82.3657 58.0249 81.7408C56.5408 79.2412 54.9004 76.8197 53.8069 74.1639C53.0258 72.2893 52.6352 70.4146 53.0258 68.3837C53.182 67.6807 53.1039 67.1339 52.5571 66.6652C51.9322 66.1966 51.3854 66.3528 50.7605 66.6652C48.4953 67.6807 46.7768 69.2429 45.3708 71.2738C44.824 72.133 44.3554 72.9923 43.8867 73.9296C43.6524 73.7734 43.5743 73.6172 43.418 73.461C42.2464 72.4455 40.9185 71.6644 39.3562 71.43C38.497 71.2738 37.8721 71.8206 37.7159 72.5236C37.6378 72.9142 37.7159 73.2266 37.8721 73.5391C38.8876 76.5854 38.5751 79.5537 37.091 82.4438C34.8258 86.7399 34.982 90.9579 37.4815 95.0978C37.5597 95.2541 37.794 95.3322 37.6378 95.5665C37.4815 95.4884 37.3253 95.4103 37.1691 95.3322C35.5288 94.5511 33.9665 93.5356 32.5605 92.3639C32.17 92.0515 31.7013 91.7391 31.1545 91.8172C30.5296 91.9734 30.1391 92.2858 29.9828 92.9107C29.8266 93.6137 30.1391 94.0824 30.6858 94.4729C35.2163 98.1442 40.3717 100.253 46.1519 100.566C52.8695 100.956 58.9622 99.0815 64.3519 95.0197C64.7425 94.7073 64.9768 94.6292 65.3674 95.0197C68.1013 97.7536 71.4601 99.4721 75.2094 100.409C75.7562 100.566 76.2249 100.644 76.8498 100.566C86.6918 98.5347 93.6438 89.9425 93.6438 79.8661C93.8 75.8043 93.8 71.5863 93.8 67.2901ZM49.7451 97.7536C44.0429 98.8472 38.7313 94.4729 38.5751 88.6146C38.5751 86.8961 38.9657 85.2558 39.8249 83.7716C41.1528 81.5064 41.6215 79.085 41.5434 76.5854C41.5434 76.273 41.5434 75.8824 41.5434 75.4137C42.4807 76.1168 43.0275 77.0541 43.4961 77.9914C43.6524 78.2258 43.7305 78.5382 43.8867 78.7725C44.1991 79.3193 44.9021 79.5536 45.527 79.3974C46.1519 79.1631 46.6206 78.5382 46.5425 77.9133C46.23 76.5854 46.7768 75.4137 47.3236 74.2421C48.0266 72.758 49.0421 71.5081 50.37 70.4146C50.4481 71.1176 50.5262 71.7425 50.6824 72.2893C51.1511 74.5545 52.1665 76.6635 53.3382 78.6944C54.2755 80.2566 55.2129 81.897 56.1502 83.4592C59.509 89.1614 56.2283 96.582 49.7451 97.7536ZM62.9459 92.7545C61.4618 93.9262 59.8996 94.9416 58.103 95.6446C59.7434 93.1451 60.5245 90.3331 60.2901 87.3648C60.9931 89.0833 61.8524 90.8017 62.9459 92.2858C63.1021 92.4421 63.1803 92.5983 62.9459 92.7545ZM90.9099 80.1004C90.8318 88.5365 85.2858 95.5665 77.1622 97.7536C76.6155 97.9099 76.1468 97.9099 75.6 97.7536C68.2575 95.6446 63.8052 90.8798 62.1648 83.4592C61.9305 82.3657 61.8524 81.194 61.8524 80.0223C61.8524 78.2257 61.8524 76.5073 61.8524 74.7107C61.8524 72.6798 61.8524 70.5708 61.8524 68.5399C61.8524 68.0712 62.0086 67.915 62.3991 67.7588C66.8515 66.3528 71.3039 65.0249 75.7562 63.6189C76.1468 63.4626 76.4592 63.5408 76.8498 63.6189C81.3022 65.0249 85.7545 66.4309 90.2069 67.7588C90.5974 67.915 90.7537 68.0712 90.7537 68.5399C90.9099 72.3674 90.988 76.1949 90.9099 80.1004Z" fill="#0264AB"/>
<path d="M27.2488 87.2087C26.4677 87.2087 25.8428 87.9117 25.8428 88.6928C25.8428 89.4739 26.4677 90.0988 27.3269 90.0988C28.108 90.0988 28.7329 89.4739 28.7329 88.6928C28.6548 87.8336 27.9518 87.2087 27.2488 87.2087Z" fill="#0264AB"/>
<path d="M86.8478 69.5554C83.5671 68.5399 80.2864 67.5244 77.0057 66.509C76.6151 66.3528 76.2246 66.3528 75.834 66.509C72.5533 67.5244 69.1945 68.5399 65.9139 69.6334C65.0546 69.8678 64.7422 70.3365 64.7422 71.1957C64.7422 72.836 64.7422 74.4764 64.7422 76.5073C64.8203 78.1476 64.6641 80.1785 64.8984 82.1313C65.6014 87.9897 70.21 93.3013 75.9121 94.8635C76.3027 94.9416 76.6151 94.9416 76.9276 94.8635C83.2546 93.145 88.0194 86.9742 88.0194 80.4128C88.0194 77.3665 88.0194 74.3201 88.0194 71.2738C88.0976 70.2583 87.7851 69.8678 86.8478 69.5554ZM84.9731 82.6C83.9576 87.1304 81.2237 90.1768 76.9276 91.8953C76.6151 92.0515 76.3027 92.0515 75.9903 91.8953C71.2255 90.0206 68.4134 86.6618 67.7885 81.5845C67.398 78.5382 67.7104 75.4918 67.6323 72.4454C67.6323 72.133 67.7885 72.0549 68.0229 71.9768C70.7568 71.1176 73.4126 70.2583 76.1465 69.4772C76.3808 69.3991 76.6933 69.3991 76.9276 69.4772C79.5053 70.3364 82.1611 71.1176 84.7388 71.8987C85.1293 72.0549 85.2855 72.2111 85.2855 72.6017C85.2855 73.9296 85.2855 75.3356 85.2855 76.8978C85.2074 78.6163 85.4418 80.6472 84.9731 82.6Z" fill="#0264AB"/>
<path d="M81.6143 76.1167C80.9894 75.8043 80.4426 75.9605 79.8958 76.4292C78.4898 77.8352 77.0057 79.3193 75.5997 80.7253C75.2091 81.1159 74.9748 81.1159 74.6624 80.7253C74.0375 80.1005 73.4126 79.4755 72.7877 78.8506C72.319 78.4601 71.8503 78.382 71.3036 78.6163C70.7568 78.8507 70.4443 79.3193 70.4443 80.0223C70.4443 80.3348 70.6787 80.6472 70.9911 80.9597C72.0066 81.9751 73.022 82.9906 74.0375 84.006C74.7405 84.709 75.5216 84.709 76.3027 84.006C78.1774 82.1314 80.0521 80.2567 81.9267 78.382C82.1611 78.1477 82.3954 77.8352 82.3954 77.4446C82.4735 76.8979 82.2392 76.4292 81.6143 76.1167Z" fill="#0264AB"/>
</svg>
