<svg width="94" height="92" viewBox="0 0 94 92" fill="none" xmlns="http://www.w3.org/2000/svg">
<circle opacity="0.05" cx="38.5" cy="38.5" r="38.5" fill="#0063AA"/>
<path d="M41.8816 47.5744C41.3001 47.5744 40.7833 48.0933 40.7187 48.677C40.7187 49.3255 41.1709 49.8443 41.817 49.8443C42.3984 49.8443 42.9152 49.3904 42.9798 48.7418C43.0444 48.223 42.463 47.6393 41.8816 47.5744ZM54.2853 35.1223C53.6393 35.1223 53.1871 35.5763 53.1871 36.2248C53.1871 36.8734 53.7039 37.3922 54.2853 37.3922C54.8668 37.3922 55.4482 36.8085 55.4482 36.2248C55.3836 35.6411 54.8668 35.1223 54.2853 35.1223ZM41.8816 47.5744C41.3001 47.5744 40.7833 48.0933 40.7187 48.677C40.7187 49.3255 41.1709 49.8443 41.817 49.8443C42.3984 49.8443 42.9152 49.3904 42.9798 48.7418C43.0444 48.223 42.463 47.6393 41.8816 47.5744ZM54.2853 35.1223C53.6393 35.1223 53.1871 35.5763 53.1871 36.2248C53.1871 36.8734 53.7039 37.3922 54.2853 37.3922C54.8668 37.3922 55.4482 36.8085 55.4482 36.2248C55.3836 35.6411 54.8668 35.1223 54.2853 35.1223ZM41.8816 47.5744C41.3001 47.5744 40.7833 48.0933 40.7187 48.677C40.7187 49.3255 41.1709 49.8443 41.817 49.8443C42.3984 49.8443 42.9152 49.3904 42.9798 48.7418C43.0444 48.223 42.463 47.6393 41.8816 47.5744ZM54.2853 35.1223C53.6393 35.1223 53.1871 35.5763 53.1871 36.2248C53.1871 36.8734 53.7039 37.3922 54.2853 37.3922C54.8668 37.3922 55.4482 36.8085 55.4482 36.2248C55.3836 35.6411 54.8668 35.1223 54.2853 35.1223ZM41.8816 47.5744C41.3001 47.5744 40.7833 48.0933 40.7187 48.677C40.7187 49.3255 41.1709 49.8443 41.817 49.8443C42.3984 49.8443 42.9152 49.3904 42.9798 48.7418C43.0444 48.223 42.463 47.6393 41.8816 47.5744ZM54.2853 35.1223C53.6393 35.1223 53.1871 35.5763 53.1871 36.2248C53.1871 36.8734 53.7039 37.3922 54.2853 37.3922C54.8668 37.3922 55.4482 36.8085 55.4482 36.2248C55.3836 35.6411 54.8668 35.1223 54.2853 35.1223ZM41.8816 47.5744C41.3001 47.5744 40.7833 48.0933 40.7187 48.677C40.7187 49.3255 41.1709 49.8443 41.817 49.8443C42.3984 49.8443 42.9152 49.3904 42.9798 48.7418C43.0444 48.223 42.463 47.6393 41.8816 47.5744ZM54.2853 35.1223C53.6393 35.1223 53.1871 35.5763 53.1871 36.2248C53.1871 36.8734 53.7039 37.3922 54.2853 37.3922C54.8668 37.3922 55.4482 36.8085 55.4482 36.2248C55.3836 35.6411 54.8668 35.1223 54.2853 35.1223ZM41.8816 47.5744C41.3001 47.5744 40.7833 48.0933 40.7187 48.677C40.7187 49.3255 41.1709 49.8443 41.817 49.8443C42.3984 49.8443 42.9152 49.3904 42.9798 48.7418C43.0444 48.223 42.463 47.6393 41.8816 47.5744ZM54.2853 35.1223C53.6393 35.1223 53.1871 35.5763 53.1871 36.2248C53.1871 36.8734 53.7039 37.3922 54.2853 37.3922C54.8668 37.3922 55.4482 36.8085 55.4482 36.2248C55.3836 35.6411 54.8668 35.1223 54.2853 35.1223ZM41.8816 47.5744C41.3001 47.5744 40.7833 48.0933 40.7187 48.677C40.7187 49.3255 41.1709 49.8443 41.817 49.8443C42.3984 49.8443 42.9152 49.3904 42.9798 48.7418C43.0444 48.223 42.463 47.6393 41.8816 47.5744ZM54.2853 35.1223C53.6393 35.1223 53.1871 35.5763 53.1871 36.2248C53.1871 36.8734 53.7039 37.3922 54.2853 37.3922C54.8668 37.3922 55.4482 36.8085 55.4482 36.2248C55.3836 35.6411 54.8668 35.1223 54.2853 35.1223ZM41.8816 47.5744C41.3001 47.5744 40.7833 48.0933 40.7187 48.677C40.7187 49.3255 41.1709 49.8443 41.817 49.8443C42.3984 49.8443 42.9152 49.3904 42.9798 48.7418C43.0444 48.223 42.463 47.6393 41.8816 47.5744ZM54.2853 35.1223C53.6393 35.1223 53.1871 35.5763 53.1871 36.2248C53.1871 36.8734 53.7039 37.3922 54.2853 37.3922C54.8668 37.3922 55.4482 36.8085 55.4482 36.2248C55.3836 35.6411 54.8668 35.1223 54.2853 35.1223ZM41.8816 47.5744C41.3001 47.5744 40.7833 48.0933 40.7187 48.677C40.7187 49.3255 41.1709 49.8443 41.817 49.8443C42.3984 49.8443 42.9152 49.3904 42.9798 48.7418C43.0444 48.223 42.463 47.6393 41.8816 47.5744ZM50.1507 69.3657C49.5047 69.3657 49.0525 69.8845 49.0525 70.4682C49.0525 71.1167 49.5693 71.6356 50.2153 71.5707C50.7968 71.5707 51.3136 71.0519 51.3136 70.4682C51.3136 69.8845 50.7968 69.3657 50.1507 69.3657ZM54.2853 35.1223C53.6393 35.1223 53.1871 35.5763 53.1871 36.2248C53.1871 36.8734 53.7039 37.3922 54.2853 37.3922C54.8668 37.3922 55.4482 36.8085 55.4482 36.2248C55.3836 35.6411 54.8668 35.1223 54.2853 35.1223ZM57.6447 69.3657C57.0633 69.3657 56.5464 69.8845 56.5464 70.5331C56.5464 71.1816 57.1279 71.6356 57.7093 71.6356C58.2907 71.6356 58.8075 71.1167 58.8075 70.4682C58.8075 69.8845 58.2907 69.3657 57.6447 69.3657ZM65.2032 69.3657C64.5572 69.3657 64.0404 69.8845 64.0404 70.4682C64.0404 71.0519 64.5572 71.5707 65.1386 71.5707C65.7847 71.5707 66.3015 71.0519 66.3015 70.4682C66.3015 69.8845 65.7847 69.4305 65.2032 69.3657ZM72.568 69.3657C71.9865 69.3657 71.4697 69.8845 71.4697 70.5331C71.4697 71.1816 71.9865 71.6356 72.6326 71.6356C73.214 71.6356 73.7308 71.1167 73.7308 70.4682C73.7954 69.8845 73.214 69.3657 72.568 69.3657ZM80.1265 69.3657C79.5451 69.3657 79.0283 69.8845 79.0283 70.4682C79.0283 71.1167 79.5451 71.6356 80.1911 71.5707C80.7725 71.5707 81.2894 71.0519 81.2894 70.4682C81.2894 69.8845 80.7725 69.3657 80.1265 69.3657ZM80.1265 69.3657C79.5451 69.3657 79.0283 69.8845 79.0283 70.4682C79.0283 71.1167 79.5451 71.6356 80.1911 71.5707C80.7725 71.5707 81.2894 71.0519 81.2894 70.4682C81.2894 69.8845 80.7725 69.3657 80.1265 69.3657ZM72.568 69.3657C71.9865 69.3657 71.4697 69.8845 71.4697 70.5331C71.4697 71.1816 71.9865 71.6356 72.6326 71.6356C73.214 71.6356 73.7308 71.1167 73.7308 70.4682C73.7954 69.8845 73.214 69.3657 72.568 69.3657ZM65.2032 69.3657C64.5572 69.3657 64.0404 69.8845 64.0404 70.4682C64.0404 71.0519 64.5572 71.5707 65.1386 71.5707C65.7847 71.5707 66.3015 71.0519 66.3015 70.4682C66.3015 69.8845 65.7847 69.4305 65.2032 69.3657ZM57.6447 69.3657C57.0633 69.3657 56.5464 69.8845 56.5464 70.5331C56.5464 71.1816 57.1279 71.6356 57.7093 71.6356C58.2907 71.6356 58.8075 71.1167 58.8075 70.4682C58.8075 69.8845 58.2907 69.3657 57.6447 69.3657ZM50.1507 69.3657C49.5047 69.3657 49.0525 69.8845 49.0525 70.4682C49.0525 71.1167 49.5693 71.6356 50.2153 71.5707C50.7968 71.5707 51.3136 71.0519 51.3136 70.4682C51.3136 69.8845 50.7968 69.3657 50.1507 69.3657ZM41.8816 47.5744C41.3001 47.5744 40.7833 48.0933 40.7187 48.677C40.7187 49.3255 41.1709 49.8443 41.817 49.8443C42.3984 49.8443 42.9152 49.3904 42.9798 48.7418C43.0444 48.223 42.463 47.6393 41.8816 47.5744ZM54.2853 35.1223C53.6393 35.1223 53.1871 35.5763 53.1871 36.2248C53.1871 36.8734 53.7039 37.3922 54.2853 37.3922C54.8668 37.3922 55.4482 36.8085 55.4482 36.2248C55.3836 35.6411 54.8668 35.1223 54.2853 35.1223ZM41.8816 47.5744C41.3001 47.5744 40.7833 48.0933 40.7187 48.677C40.7187 49.3255 41.1709 49.8443 41.817 49.8443C42.3984 49.8443 42.9152 49.3904 42.9798 48.7418C43.0444 48.223 42.463 47.6393 41.8816 47.5744ZM50.1507 69.3657C49.5047 69.3657 49.0525 69.8845 49.0525 70.4682C49.0525 71.1167 49.5693 71.6356 50.2153 71.5707C50.7968 71.5707 51.3136 71.0519 51.3136 70.4682C51.3136 69.8845 50.7968 69.3657 50.1507 69.3657ZM54.2853 35.1223C53.6393 35.1223 53.1871 35.5763 53.1871 36.2248C53.1871 36.8734 53.7039 37.3922 54.2853 37.3922C54.8668 37.3922 55.4482 36.8085 55.4482 36.2248C55.3836 35.6411 54.8668 35.1223 54.2853 35.1223ZM57.6447 69.3657C57.0633 69.3657 56.5464 69.8845 56.5464 70.5331C56.5464 71.1816 57.1279 71.6356 57.7093 71.6356C58.2907 71.6356 58.8075 71.1167 58.8075 70.4682C58.8075 69.8845 58.2907 69.3657 57.6447 69.3657ZM65.2032 69.3657C64.5572 69.3657 64.0404 69.8845 64.0404 70.4682C64.0404 71.0519 64.5572 71.5707 65.1386 71.5707C65.7847 71.5707 66.3015 71.0519 66.3015 70.4682C66.3015 69.8845 65.7847 69.4305 65.2032 69.3657ZM72.568 69.3657C71.9865 69.3657 71.4697 69.8845 71.4697 70.5331C71.4697 71.1816 71.9865 71.6356 72.6326 71.6356C73.214 71.6356 73.7308 71.1167 73.7308 70.4682C73.7954 69.8845 73.214 69.3657 72.568 69.3657ZM80.1265 69.3657C79.5451 69.3657 79.0283 69.8845 79.0283 70.4682C79.0283 71.1167 79.5451 71.6356 80.1911 71.5707C80.7725 71.5707 81.2894 71.0519 81.2894 70.4682C81.2894 69.8845 80.7725 69.3657 80.1265 69.3657ZM80.1265 69.3657C79.5451 69.3657 79.0283 69.8845 79.0283 70.4682C79.0283 71.1167 79.5451 71.6356 80.1911 71.5707C80.7725 71.5707 81.2894 71.0519 81.2894 70.4682C81.2894 69.8845 80.7725 69.3657 80.1265 69.3657ZM72.568 69.3657C71.9865 69.3657 71.4697 69.8845 71.4697 70.5331C71.4697 71.1816 71.9865 71.6356 72.6326 71.6356C73.214 71.6356 73.7308 71.1167 73.7308 70.4682C73.7954 69.8845 73.214 69.3657 72.568 69.3657ZM65.2032 69.3657C64.5572 69.3657 64.0404 69.8845 64.0404 70.4682C64.0404 71.0519 64.5572 71.5707 65.1386 71.5707C65.7847 71.5707 66.3015 71.0519 66.3015 70.4682C66.3015 69.8845 65.7847 69.4305 65.2032 69.3657ZM57.6447 69.3657C57.0633 69.3657 56.5464 69.8845 56.5464 70.5331C56.5464 71.1816 57.1279 71.6356 57.7093 71.6356C58.2907 71.6356 58.8075 71.1167 58.8075 70.4682C58.8075 69.8845 58.2907 69.3657 57.6447 69.3657ZM50.1507 69.3657C49.5047 69.3657 49.0525 69.8845 49.0525 70.4682C49.0525 71.1167 49.5693 71.6356 50.2153 71.5707C50.7968 71.5707 51.3136 71.0519 51.3136 70.4682C51.3136 69.8845 50.7968 69.3657 50.1507 69.3657ZM41.8816 47.5744C41.3001 47.5744 40.7833 48.0933 40.7187 48.677C40.7187 49.3255 41.1709 49.8443 41.817 49.8443C42.3984 49.8443 42.9152 49.3904 42.9798 48.7418C43.0444 48.223 42.463 47.6393 41.8816 47.5744ZM54.2853 35.1223C53.6393 35.1223 53.1871 35.5763 53.1871 36.2248C53.1871 36.8734 53.7039 37.3922 54.2853 37.3922C54.8668 37.3922 55.4482 36.8085 55.4482 36.2248C55.3836 35.6411 54.8668 35.1223 54.2853 35.1223ZM41.8816 47.5744C41.3001 47.5744 40.7833 48.0933 40.7187 48.677C40.7187 49.3255 41.1709 49.8443 41.817 49.8443C42.3984 49.8443 42.9152 49.3904 42.9798 48.7418C43.0444 48.223 42.463 47.6393 41.8816 47.5744ZM50.1507 69.3657C49.5047 69.3657 49.0525 69.8845 49.0525 70.4682C49.0525 71.1167 49.5693 71.6356 50.2153 71.5707C50.7968 71.5707 51.3136 71.0519 51.3136 70.4682C51.3136 69.8845 50.7968 69.3657 50.1507 69.3657ZM54.2853 35.1223C53.6393 35.1223 53.1871 35.5763 53.1871 36.2248C53.1871 36.8734 53.7039 37.3922 54.2853 37.3922C54.8668 37.3922 55.4482 36.8085 55.4482 36.2248C55.3836 35.6411 54.8668 35.1223 54.2853 35.1223ZM57.6447 69.3657C57.0633 69.3657 56.5464 69.8845 56.5464 70.5331C56.5464 71.1816 57.1279 71.6356 57.7093 71.6356C58.2907 71.6356 58.8075 71.1167 58.8075 70.4682C58.8075 69.8845 58.2907 69.3657 57.6447 69.3657ZM65.2032 69.3657C64.5572 69.3657 64.0404 69.8845 64.0404 70.4682C64.0404 71.0519 64.5572 71.5707 65.1386 71.5707C65.7847 71.5707 66.3015 71.0519 66.3015 70.4682C66.3015 69.8845 65.7847 69.4305 65.2032 69.3657ZM67.852 79.1587C67.2059 79.1587 66.7537 79.6127 66.6891 80.2613C66.6891 80.9098 67.1413 81.4287 67.7873 81.4287C68.4334 81.4287 68.9502 80.9098 68.9502 80.2613C68.9502 79.6127 68.4334 79.1587 67.852 79.1587ZM72.568 69.3657C71.9865 69.3657 71.4697 69.8845 71.4697 70.5331C71.4697 71.1816 71.9865 71.6356 72.6326 71.6356C73.214 71.6356 73.7308 71.1167 73.7308 70.4682C73.7954 69.8845 73.214 69.3657 72.568 69.3657ZM80.1265 69.3657C79.5451 69.3657 79.0283 69.8845 79.0283 70.4682C79.0283 71.1167 79.5451 71.6356 80.1911 71.5707C80.7725 71.5707 81.2894 71.0519 81.2894 70.4682C81.2894 69.8845 80.7725 69.3657 80.1265 69.3657ZM80.1265 69.3657C79.5451 69.3657 79.0283 69.8845 79.0283 70.4682C79.0283 71.1167 79.5451 71.6356 80.1911 71.5707C80.7725 71.5707 81.2894 71.0519 81.2894 70.4682C81.2894 69.8845 80.7725 69.3657 80.1265 69.3657ZM72.568 69.3657C71.9865 69.3657 71.4697 69.8845 71.4697 70.5331C71.4697 71.1816 71.9865 71.6356 72.6326 71.6356C73.214 71.6356 73.7308 71.1167 73.7308 70.4682C73.7954 69.8845 73.214 69.3657 72.568 69.3657ZM65.2032 69.3657C64.5572 69.3657 64.0404 69.8845 64.0404 70.4682C64.0404 71.0519 64.5572 71.5707 65.1386 71.5707C65.7847 71.5707 66.3015 71.0519 66.3015 70.4682C66.3015 69.8845 65.7847 69.4305 65.2032 69.3657ZM57.6447 69.3657C57.0633 69.3657 56.5464 69.8845 56.5464 70.5331C56.5464 71.1816 57.1279 71.6356 57.7093 71.6356C58.2907 71.6356 58.8075 71.1167 58.8075 70.4682C58.8075 69.8845 58.2907 69.3657 57.6447 69.3657ZM50.1507 69.3657C49.5047 69.3657 49.0525 69.8845 49.0525 70.4682C49.0525 71.1167 49.5693 71.6356 50.2153 71.5707C50.7968 71.5707 51.3136 71.0519 51.3136 70.4682C51.3136 69.8845 50.7968 69.3657 50.1507 69.3657ZM67.852 79.1587C67.2059 79.1587 66.7537 79.6127 66.6891 80.2613C66.6891 80.9098 67.1413 81.4287 67.7873 81.4287C68.4334 81.4287 68.9502 80.9098 68.9502 80.2613C68.9502 79.6127 68.4334 79.1587 67.852 79.1587ZM41.8816 47.5744C41.3001 47.5744 40.7833 48.0933 40.7187 48.677C40.7187 49.3255 41.1709 49.8443 41.817 49.8443C42.3984 49.8443 42.9152 49.3904 42.9798 48.7418C43.0444 48.223 42.463 47.6393 41.8816 47.5744ZM54.2853 35.1223C53.6393 35.1223 53.1871 35.5763 53.1871 36.2248C53.1871 36.8734 53.7039 37.3922 54.2853 37.3922C54.8668 37.3922 55.4482 36.8085 55.4482 36.2248C55.3836 35.6411 54.8668 35.1223 54.2853 35.1223ZM93.9515 56.9784C93.9515 56.0055 93.9515 54.9679 93.4993 54.0599C92.7241 52.5034 91.4966 51.4009 89.8816 50.6875C89.4293 50.4929 89.1709 50.1686 89.3647 49.6498C89.6877 48.8715 89.817 48.0284 89.7524 47.1853C89.7524 46.7962 89.817 46.407 90.0108 46.1476C90.463 45.4991 90.5276 44.8505 90.463 44.0723C90.14 40.5052 86.9098 37.8462 83.1628 38.4947C80.6433 38.8839 78.7052 40.9592 78.253 43.4886C78.1238 44.2668 77.93 45.1099 78.4468 45.8233C78.8345 46.3422 78.9637 46.9259 78.8991 47.5096C78.8991 48.223 79.0283 48.8715 79.2221 49.5201C79.4805 50.2983 79.4805 50.3632 78.7052 50.7523C76.5733 51.7251 75.2167 53.3465 74.6353 55.5516C74.3769 56.4595 74.2476 56.5244 73.3432 56.5244C71.7281 56.5244 70.1131 56.5893 68.5626 56.5244C66.9475 56.4595 66.4953 57.3026 66.5599 58.5997C66.6245 60.286 66.5599 61.9722 66.5599 63.6584C66.5599 64.8258 66.3661 65.0204 65.2032 65.0204C64.6864 65.0204 64.105 65.0204 63.5882 65.0204C62.6191 65.0204 62.3607 64.8258 62.3607 63.7881C62.3607 61.9722 62.3607 60.1563 62.3607 58.3403C62.3607 57.1729 61.9731 56.719 61.004 56.5893C61.4563 56.4595 61.7793 56.1353 61.9731 55.6813C62.1023 55.2921 62.1023 54.8382 62.1669 54.3842C62.2315 53.5411 62.8775 52.698 63.3943 52.698C63.9758 52.698 64.6218 53.5411 64.6864 54.449C64.6864 54.7733 64.6864 55.0976 64.8156 55.4219C65.074 56.2001 65.5908 56.5893 66.4307 56.4595C67.1413 56.3947 67.6581 55.811 67.6581 55.0327C67.6581 54.3842 67.6581 53.8005 67.6581 53.1519C67.6581 52.698 67.5289 52.3088 67.2059 51.9846C66.6245 51.4009 66.0431 50.882 65.5262 50.2983C64.5572 49.2606 64.6218 48.2878 65.7201 47.4447C67.5935 46.0179 67.7873 43.3589 66.1077 41.6726C63.2651 38.7542 60.358 35.9005 57.5155 33.0469C56.9341 32.4632 56.288 32.139 55.4482 32.0741C53.4455 31.8147 51.8304 32.2038 50.3445 33.7603C47.502 36.8085 44.4657 39.6621 41.5585 42.6455C41.1063 43.0994 40.5895 43.4237 40.0081 43.6831C37.5532 44.5262 36.3257 46.407 36.3257 49.0012C36.3257 50.8172 36.3257 52.698 36.3257 54.5139C36.3257 55.4867 36.9717 56.265 37.747 56.265C38.5222 56.265 39.1682 55.6164 39.2328 54.6436C39.2328 54.5788 39.2328 54.5787 39.2328 54.5139C39.2974 53.9951 39.4913 53.8005 40.0081 53.9951C41.1709 54.3842 42.3984 54.3842 43.5612 53.9951C44.1427 53.8005 44.3365 53.9951 44.3365 54.5788C44.3365 57.8215 44.3365 61.1291 44.3365 64.3718C44.3365 65.0204 44.0781 65.2149 43.4966 65.0852C42.5922 64.8907 41.6878 64.9555 40.7833 65.0204C39.2974 65.0852 39.2974 65.1501 39.2328 63.6584C39.1682 62.7505 38.5222 62.0371 37.747 62.0371C36.9717 62.0371 36.3257 62.7505 36.2611 63.6584C36.2611 64.3718 36.1965 65.0204 36.2611 65.7338C36.3257 66.5769 36.0673 67.3551 35.4859 68.0037C34.8398 68.7171 34.3876 69.5602 34.1938 70.5331C34.0646 71.1167 34.0646 71.7004 34 72.2193V91.092C34.0646 91.6757 34.3876 92 34.9044 92H88.7187C89.8816 91.7406 89.9462 91.3515 89.9462 90.4435C89.9462 90.1192 89.9462 89.7949 89.9462 89.5355C89.9462 83.958 89.9462 78.3805 89.9462 72.803C89.9462 71.8302 90.0754 71.6356 90.8506 71.3762C92.9825 70.5979 93.9515 69.236 93.9515 66.9012C94.0162 63.5936 94.0162 60.286 93.9515 56.9784ZM85.4886 43.294C85.4886 43.0346 85.4886 42.7752 85.4886 42.4509V41.9321C85.4886 41.1538 85.4886 41.1538 86.1992 41.5429C86.9098 41.932 87.362 42.5806 87.7497 43.294C87.9435 43.6831 87.8143 43.8128 87.362 43.8128C86.9098 43.8128 86.4576 43.8128 86.0054 43.8128C85.6178 43.8777 85.424 43.748 85.4886 43.294ZM84.3903 46.1476C85.1655 46.1476 85.9408 46.1476 86.716 46.1476C87.1036 46.1476 87.2328 46.2773 87.1682 46.6016C87.1682 46.9907 87.1682 47.3799 87.1682 47.769C87.039 49.2607 85.8762 50.428 84.3903 50.428C82.9044 50.428 81.677 49.3255 81.5478 47.769C81.4186 46.0828 81.4186 46.0828 83.0336 46.0828H84.3903V46.1476ZM81.1602 42.9697C81.5478 42.2563 82.0646 41.7375 82.7752 41.4132C83.0982 41.2835 83.1628 41.3484 83.1628 41.6726C83.1628 41.9969 83.1628 42.3212 83.1628 42.5806C83.1628 43.8128 83.1628 43.8128 81.9354 43.8128H81.677C80.7725 43.8128 80.7079 43.748 81.1602 42.9697ZM69.0794 59.5726C69.0794 59.1834 69.2086 59.0537 69.5962 59.0537C70.5007 59.0537 71.3405 59.0537 72.245 59.0537C73.0848 59.0537 73.9246 59.0537 74.7645 59.0537C75.1521 59.0537 75.2813 59.1186 75.2813 59.5726C75.2813 61.2588 75.2813 63.0099 75.2813 64.761C75.2813 65.1501 75.1521 65.2798 74.7645 65.2798C73.0202 65.2798 71.3405 65.2798 69.5962 65.2798C69.2086 65.2798 69.0794 65.1501 69.0794 64.761C69.144 63.0099 69.144 61.3236 69.0794 59.5726ZM61.3917 50.1686C60.8748 50.6874 60.358 51.2712 59.8412 51.7251C59.3244 52.1791 59.1306 52.698 59.1306 53.4114C59.1952 53.995 59.1306 54.6436 59.1306 55.2273C59.1306 55.8759 59.5182 56.3947 60.0996 56.5893C57.5801 56.5893 55.0606 56.5893 52.4764 56.5893C51.6366 56.5893 51.1844 56.9784 50.9906 57.8215C50.926 58.1458 50.926 58.47 50.926 58.7295C50.926 60.4805 50.926 62.2316 50.926 63.9827C50.926 64.8258 50.6676 65.0204 49.8277 65.0852C49.3755 65.0852 48.9233 65.0852 48.4065 65.0852C47.502 65.0852 47.3082 64.8258 47.3082 63.9827C47.3082 59.5726 47.3082 55.1625 47.3082 50.7523C47.3082 50.1038 47.502 49.6498 47.9542 49.1958C50.0861 47.0556 52.2826 44.8505 54.4145 42.7103C55.0606 42.0618 55.319 42.0618 55.965 42.7103C57.1279 43.8777 58.2907 45.0451 59.4536 46.2125C59.9704 46.7313 60.4872 47.2501 61.0686 47.6393C62.1023 48.223 62.2315 49.1958 61.3917 50.1686ZM59.712 62.1668C59.712 63.0099 59.712 63.9178 59.712 64.761C59.712 65.1501 59.5828 65.2798 59.1952 65.2798C57.5155 65.2798 55.8358 65.2798 54.0915 65.2798C53.7039 65.2798 53.5747 65.1501 53.5747 64.6961C53.5747 63.0099 53.5747 61.3236 53.5747 59.5726C53.5747 59.1834 53.7039 59.0537 54.0915 59.0537C55.7712 59.0537 57.4509 59.0537 59.1952 59.0537C59.5828 59.0537 59.712 59.1834 59.712 59.5726C59.712 60.4805 59.712 61.3236 59.712 62.1668ZM57.2571 39.3379C57.6447 38.9487 57.9677 38.4947 58.1615 37.9759C58.2907 37.6516 58.4199 37.5868 58.6783 37.8462C60.4872 39.6621 62.2961 41.4781 64.105 43.294C64.3634 43.5534 64.5572 43.8777 64.4926 44.1371C64.4926 44.7208 64.2988 45.1099 63.8466 45.3694C63.3943 45.6288 63.0067 45.6288 62.5545 45.3694C62.3607 45.2396 62.2315 45.1099 62.0377 44.9802C60.4226 43.3588 58.8075 41.7375 57.1925 40.1161C56.9341 39.8567 56.8694 39.6621 57.2571 39.3379ZM54.2853 34.2792C55.3836 34.2792 56.2234 35.1871 56.2234 36.2897C56.2234 37.3922 55.3836 38.2353 54.2207 38.2353C53.1225 38.2353 52.2826 37.3273 52.2826 36.2248C52.2826 35.1223 53.2517 34.2143 54.2853 34.2792ZM44.1427 43.6183C46.1454 41.6726 48.0834 39.6621 50.0861 37.7165C50.0861 37.7165 50.1507 37.6516 50.2153 37.6516C50.4738 38.1056 50.6676 38.5596 50.9906 39.0136C51.4428 39.5324 51.895 39.9215 52.4764 40.181C52.9933 40.3755 52.8641 40.5701 52.541 40.8295C51.4428 41.932 50.3445 43.0346 49.2463 44.0723C48.4711 44.8505 47.6958 45.5639 46.9852 46.3422C46.7268 46.6016 46.5976 46.7313 46.3392 46.2773C45.8869 45.3045 45.1117 44.5911 44.2073 44.1371C44.0135 44.0074 43.8197 43.8777 44.1427 43.6183ZM41.817 51.6603C40.2665 51.6603 38.9098 50.2983 38.9098 48.7418C38.9098 47.1204 40.2665 45.8233 41.817 45.8882C43.432 45.8882 44.7241 47.1853 44.6595 48.8067C44.7241 50.3632 43.432 51.6603 41.817 51.6603ZM42.3984 74.4892C42.2046 74.554 42.0108 74.554 41.817 74.554C41.0417 74.554 40.3957 74.0352 40.2019 73.2569C40.0727 72.5435 40.4603 71.7653 41.1063 71.441C41.4293 71.3113 41.6231 71.3113 41.6878 71.7004C41.817 72.4138 42.14 73.0624 42.5922 73.6461C43.0444 74.1649 42.9798 74.2298 42.3984 74.4892ZM47.3082 85.4497C47.3082 86.7468 47.3082 87.979 47.3082 89.2761C47.3082 89.6652 47.179 89.7949 46.7914 89.7949C43.432 89.7949 40.1373 89.7949 36.7779 89.7949C36.3257 89.7949 36.3257 89.6004 36.3257 89.2112C36.3257 86.4873 36.3257 83.8283 36.3257 81.1044C36.3257 78.5102 36.3257 75.916 36.3257 73.3218C36.3257 70.987 37.3594 69.236 39.4266 68.1334C40.2019 67.7443 41.0417 67.6146 41.9462 67.6146C42.2046 67.6146 42.3338 67.6794 42.2046 68.0037C41.9462 68.5874 41.6878 69.0414 40.8479 69.1711C39.2974 69.4305 38.07 70.9222 37.8762 72.4138C37.6824 74.2298 38.5222 75.7863 40.1373 76.5645C41.5585 77.278 43.3674 76.9537 44.5303 75.7863C44.7887 75.5269 45.0471 75.3972 45.4347 75.5917C45.8223 75.7863 46.3392 75.7863 46.7268 75.7863C47.179 75.7863 47.3082 75.9808 47.3082 76.4348C47.3082 79.4182 47.3082 82.4015 47.3082 85.4497ZM78.3822 89.7301C73.7308 89.7301 69.0148 89.7301 64.3634 89.7301C59.712 89.7301 54.996 89.7301 50.3445 89.7301C49.8277 89.7301 49.6339 89.6004 49.6339 89.0167C49.6339 86.6819 49.6339 84.3471 49.6339 82.0124C49.6339 81.4935 49.7631 81.3638 50.2799 81.3638C54.4145 81.3638 58.5491 81.3638 62.7483 81.3638C63.0713 81.3638 63.3943 81.3638 63.6528 81.2989C64.1696 81.1692 64.4926 80.7153 64.428 80.1316C64.3634 79.5479 64.105 79.2236 63.5236 79.0939C63.2651 79.029 62.9421 79.029 62.6191 79.029C58.4845 79.029 54.4145 79.029 50.2799 79.029C49.6985 79.029 49.5047 78.8345 49.5047 78.2508C49.5693 77.6671 49.5047 77.0834 49.5047 76.4997C49.5047 75.7214 49.5047 75.7214 50.2799 75.7214C52.0242 75.7214 53.7039 75.7214 55.4482 75.7214C63.0067 75.7214 70.5007 75.7214 78.0592 75.7214C78.9637 75.7214 78.8345 75.6566 78.8345 76.4997C78.8345 80.7153 78.8345 84.866 78.8345 89.0815C79.0283 89.6004 78.8344 89.7301 78.3822 89.7301ZM82.646 89.7301C81.2894 89.7301 81.2894 89.7301 81.2894 88.3681C81.2894 84.412 81.2894 80.4558 81.2894 76.4348C81.2894 75.916 81.4186 75.7214 81.9354 75.7863C82 75.7863 82.0646 75.7863 82.1292 75.7863C83.2275 75.7863 83.2275 75.7863 83.2275 76.8888V82.7258C83.2275 84.866 83.2275 87.0062 83.2275 89.1464C83.2275 89.5355 83.1629 89.7301 82.646 89.7301ZM82.7752 73.3867C82.4522 73.4515 82.1292 73.4515 81.8062 73.4515C70.3715 73.4515 58.8721 73.4515 47.4374 73.4515C46.7268 73.4515 46.0808 73.4515 45.4347 73.0624C44.2719 72.4138 43.6904 71.1167 43.9489 69.8845C44.2719 68.5226 45.3055 67.5497 46.6622 67.5497C49.1817 67.4849 51.6366 67.5497 54.1561 67.5497C57.6447 67.5497 61.1332 67.5497 64.6218 67.5497C70.4361 67.5497 76.2503 67.5497 82.1292 67.5497C83.8735 67.5497 85.0363 68.4577 85.2948 69.9493C85.5532 71.5707 84.3903 73.257 82.7752 73.3867ZM86.7806 89.7301C85.4886 89.6652 85.4886 89.7301 85.4886 88.3681C85.4886 84.0229 85.4886 79.6776 85.4886 75.2675C85.4886 74.8135 85.6178 74.554 85.9408 74.2946C86.5868 73.7758 86.9744 73.0624 87.4266 72.349V72.8678C87.4266 78.2508 87.4266 83.6337 87.4266 89.0815C87.4266 89.6004 87.2974 89.7301 86.7806 89.7301ZM91.6258 66.7066C91.6258 67.6794 91.1736 68.328 90.3338 68.782C89.9462 68.9765 89.7524 68.9765 89.7524 68.3928C89.7524 65.4095 89.7524 62.4262 89.7524 59.4429C89.7524 59.2483 89.7524 59.0537 89.7524 58.8592C89.6878 58.2755 89.1709 57.8215 88.6541 57.8215C88.0727 57.8215 87.5559 58.2755 87.4913 58.8592C87.4913 59.0537 87.4913 59.2483 87.4913 59.4429C87.4913 62.2965 87.4913 65.2149 87.4913 68.0686C87.4913 68.2631 87.5559 68.4577 87.4266 68.7171C87.1036 67.9388 86.6514 67.2903 86.07 66.7066C84.9717 65.6689 83.6151 65.1501 82.0646 65.2149C81.4832 65.2149 81.354 65.0852 81.354 64.5015C81.4186 62.6856 81.354 60.8697 81.354 59.0537C81.354 58.5349 81.1602 58.0809 80.6433 57.8864C80.2557 57.6918 79.8681 57.7566 79.4805 58.0161C79.0929 58.2755 79.0283 58.7295 79.0283 59.1835C79.0283 60.9994 79.0283 62.8153 79.0283 64.5664C79.0283 65.2798 78.7052 65.2149 78.253 65.2149C77.7362 65.2149 77.5424 65.0852 77.5424 64.5664C77.607 62.4262 77.5424 60.3508 77.5424 58.2106C77.5424 58.0161 77.607 57.7566 77.4778 57.5621C76.7026 56.3947 77.3486 55.4219 77.93 54.5788C78.7052 53.4114 79.8681 52.7628 81.2894 52.7628C83.2921 52.7628 85.2948 52.698 87.2328 52.7628C89.7524 52.8277 91.5612 54.6436 91.5612 57.1729C91.6258 60.4157 91.6258 63.5936 91.6258 66.7066ZM80.1265 69.3657C79.5451 69.3657 79.0283 69.8845 79.0283 70.4682C79.0283 71.1167 79.5451 71.6356 80.1911 71.5707C80.7725 71.5707 81.2894 71.0519 81.2894 70.4682C81.2894 69.8845 80.7725 69.3657 80.1265 69.3657ZM72.568 69.3657C71.9865 69.3657 71.4697 69.8845 71.4697 70.5331C71.4697 71.1816 71.9865 71.6356 72.6326 71.6356C73.214 71.6356 73.7308 71.1167 73.7308 70.4682C73.7954 69.8845 73.214 69.3657 72.568 69.3657ZM67.852 79.1587C67.2059 79.1587 66.7537 79.6127 66.6891 80.2613C66.6891 80.9098 67.1413 81.4287 67.7873 81.4287C68.4334 81.4287 68.9502 80.9098 68.9502 80.2613C68.9502 79.6127 68.4334 79.1587 67.852 79.1587ZM65.2032 69.3657C64.5572 69.3657 64.0404 69.8845 64.0404 70.4682C64.0404 71.0519 64.5572 71.5707 65.1386 71.5707C65.7847 71.5707 66.3015 71.0519 66.3015 70.4682C66.3015 69.8845 65.7847 69.4305 65.2032 69.3657ZM57.6447 69.3657C57.0633 69.3657 56.5464 69.8845 56.5464 70.5331C56.5464 71.1816 57.1279 71.6356 57.7093 71.6356C58.2907 71.6356 58.8075 71.1167 58.8075 70.4682C58.8075 69.8845 58.2907 69.3657 57.6447 69.3657ZM54.2853 37.3922C54.8668 37.3922 55.4482 36.8085 55.4482 36.2248C55.4482 35.6411 54.9314 35.1223 54.2853 35.1223C53.6393 35.1223 53.1871 35.5763 53.1871 36.2248C53.1225 36.8734 53.6393 37.3922 54.2853 37.3922ZM50.1507 69.3657C49.5047 69.3657 49.0525 69.8845 49.0525 70.4682C49.0525 71.1167 49.5693 71.6356 50.2153 71.5707C50.7968 71.5707 51.3136 71.0519 51.3136 70.4682C51.3136 69.8845 50.7968 69.3657 50.1507 69.3657ZM41.8816 47.5744C41.3001 47.5744 40.7833 48.0933 40.7187 48.677C40.7187 49.3255 41.1709 49.8443 41.817 49.8443C42.3984 49.8443 42.9152 49.3904 42.9798 48.7418C43.0444 48.223 42.463 47.6393 41.8816 47.5744ZM54.2853 35.1223C53.6393 35.1223 53.1871 35.5763 53.1871 36.2248C53.1871 36.8734 53.7039 37.3922 54.2853 37.3922C54.8668 37.3922 55.4482 36.8085 55.4482 36.2248C55.3836 35.6411 54.8668 35.1223 54.2853 35.1223ZM41.8816 47.5744C41.3001 47.5744 40.7833 48.0933 40.7187 48.677C40.7187 49.3255 41.1709 49.8443 41.817 49.8443C42.3984 49.8443 42.9152 49.3904 42.9798 48.7418C43.0444 48.223 42.463 47.6393 41.8816 47.5744ZM67.852 79.1587C67.2059 79.1587 66.7537 79.6127 66.6891 80.2613C66.6891 80.9098 67.1413 81.4287 67.7873 81.4287C68.4334 81.4287 68.9502 80.9098 68.9502 80.2613C68.9502 79.6127 68.4334 79.1587 67.852 79.1587ZM50.1507 69.3657C49.5047 69.3657 49.0525 69.8845 49.0525 70.4682C49.0525 71.1167 49.5693 71.6356 50.2153 71.5707C50.7968 71.5707 51.3136 71.0519 51.3136 70.4682C51.3136 69.8845 50.7968 69.3657 50.1507 69.3657ZM57.6447 69.3657C57.0633 69.3657 56.5464 69.8845 56.5464 70.5331C56.5464 71.1816 57.1279 71.6356 57.7093 71.6356C58.2907 71.6356 58.8075 71.1167 58.8075 70.4682C58.8075 69.8845 58.2907 69.3657 57.6447 69.3657ZM65.2032 69.3657C64.5572 69.3657 64.0404 69.8845 64.0404 70.4682C64.0404 71.0519 64.5572 71.5707 65.1386 71.5707C65.7847 71.5707 66.3015 71.0519 66.3015 70.4682C66.3015 69.8845 65.7847 69.4305 65.2032 69.3657ZM72.568 69.3657C71.9865 69.3657 71.4697 69.8845 71.4697 70.5331C71.4697 71.1816 71.9865 71.6356 72.6326 71.6356C73.214 71.6356 73.7308 71.1167 73.7308 70.4682C73.7954 69.8845 73.214 69.3657 72.568 69.3657ZM80.1265 69.3657C79.5451 69.3657 79.0283 69.8845 79.0283 70.4682C79.0283 71.1167 79.5451 71.6356 80.1911 71.5707C80.7725 71.5707 81.2894 71.0519 81.2894 70.4682C81.2894 69.8845 80.7725 69.3657 80.1265 69.3657ZM80.1265 69.3657C79.5451 69.3657 79.0283 69.8845 79.0283 70.4682C79.0283 71.1167 79.5451 71.6356 80.1911 71.5707C80.7725 71.5707 81.2894 71.0519 81.2894 70.4682C81.2894 69.8845 80.7725 69.3657 80.1265 69.3657ZM72.568 69.3657C71.9865 69.3657 71.4697 69.8845 71.4697 70.5331C71.4697 71.1816 71.9865 71.6356 72.6326 71.6356C73.214 71.6356 73.7308 71.1167 73.7308 70.4682C73.7954 69.8845 73.214 69.3657 72.568 69.3657ZM67.852 79.1587C67.2059 79.1587 66.7537 79.6127 66.6891 80.2613C66.6891 80.9098 67.1413 81.4287 67.7873 81.4287C68.4334 81.4287 68.9502 80.9098 68.9502 80.2613C68.9502 79.6127 68.4334 79.1587 67.852 79.1587ZM65.2032 69.3657C64.5572 69.3657 64.0404 69.8845 64.0404 70.4682C64.0404 71.0519 64.5572 71.5707 65.1386 71.5707C65.7847 71.5707 66.3015 71.0519 66.3015 70.4682C66.3015 69.8845 65.7847 69.4305 65.2032 69.3657ZM57.6447 69.3657C57.0633 69.3657 56.5464 69.8845 56.5464 70.5331C56.5464 71.1816 57.1279 71.6356 57.7093 71.6356C58.2907 71.6356 58.8075 71.1167 58.8075 70.4682C58.8075 69.8845 58.2907 69.3657 57.6447 69.3657ZM54.2853 35.1223C53.6393 35.1223 53.1871 35.5763 53.1871 36.2248C53.1871 36.8734 53.7039 37.3922 54.2853 37.3922C54.8668 37.3922 55.4482 36.8085 55.4482 36.2248C55.3836 35.6411 54.8668 35.1223 54.2853 35.1223ZM50.1507 69.3657C49.5047 69.3657 49.0525 69.8845 49.0525 70.4682C49.0525 71.1167 49.5693 71.6356 50.2153 71.5707C50.7968 71.5707 51.3136 71.0519 51.3136 70.4682C51.3136 69.8845 50.7968 69.3657 50.1507 69.3657ZM41.8816 47.5744C41.3001 47.5744 40.7833 48.0933 40.7187 48.677C40.7187 49.3255 41.1709 49.8443 41.817 49.8443C42.3984 49.8443 42.9152 49.3904 42.9798 48.7418C43.0444 48.223 42.463 47.6393 41.8816 47.5744ZM54.2853 35.1223C53.6393 35.1223 53.1871 35.5763 53.1871 36.2248C53.1871 36.8734 53.7039 37.3922 54.2853 37.3922C54.8668 37.3922 55.4482 36.8085 55.4482 36.2248C55.3836 35.6411 54.8668 35.1223 54.2853 35.1223ZM41.8816 47.5744C41.3001 47.5744 40.7833 48.0933 40.7187 48.677C40.7187 49.3255 41.1709 49.8443 41.817 49.8443C42.3984 49.8443 42.9152 49.3904 42.9798 48.7418C43.0444 48.223 42.463 47.6393 41.8816 47.5744ZM50.1507 69.3657C49.5047 69.3657 49.0525 69.8845 49.0525 70.4682C49.0525 71.1167 49.5693 71.6356 50.2153 71.5707C50.7968 71.5707 51.3136 71.0519 51.3136 70.4682C51.3136 69.8845 50.7968 69.3657 50.1507 69.3657ZM57.6447 69.3657C57.0633 69.3657 56.5464 69.8845 56.5464 70.5331C56.5464 71.1816 57.1279 71.6356 57.7093 71.6356C58.2907 71.6356 58.8075 71.1167 58.8075 70.4682C58.8075 69.8845 58.2907 69.3657 57.6447 69.3657ZM65.2032 69.3657C64.5572 69.3657 64.0404 69.8845 64.0404 70.4682C64.0404 71.0519 64.5572 71.5707 65.1386 71.5707C65.7847 71.5707 66.3015 71.0519 66.3015 70.4682C66.3015 69.8845 65.7847 69.4305 65.2032 69.3657ZM72.568 69.3657C71.9865 69.3657 71.4697 69.8845 71.4697 70.5331C71.4697 71.1816 71.9865 71.6356 72.6326 71.6356C73.214 71.6356 73.7308 71.1167 73.7308 70.4682C73.7954 69.8845 73.214 69.3657 72.568 69.3657ZM80.1265 69.3657C79.5451 69.3657 79.0283 69.8845 79.0283 70.4682C79.0283 71.1167 79.5451 71.6356 80.1911 71.5707C80.7725 71.5707 81.2894 71.0519 81.2894 70.4682C81.2894 69.8845 80.7725 69.3657 80.1265 69.3657ZM80.1265 69.3657C79.5451 69.3657 79.0283 69.8845 79.0283 70.4682C79.0283 71.1167 79.5451 71.6356 80.1911 71.5707C80.7725 71.5707 81.2894 71.0519 81.2894 70.4682C81.2894 69.8845 80.7725 69.3657 80.1265 69.3657ZM72.568 69.3657C71.9865 69.3657 71.4697 69.8845 71.4697 70.5331C71.4697 71.1816 71.9865 71.6356 72.6326 71.6356C73.214 71.6356 73.7308 71.1167 73.7308 70.4682C73.7954 69.8845 73.214 69.3657 72.568 69.3657ZM65.2032 69.3657C64.5572 69.3657 64.0404 69.8845 64.0404 70.4682C64.0404 71.0519 64.5572 71.5707 65.1386 71.5707C65.7847 71.5707 66.3015 71.0519 66.3015 70.4682C66.3015 69.8845 65.7847 69.4305 65.2032 69.3657ZM57.6447 69.3657C57.0633 69.3657 56.5464 69.8845 56.5464 70.5331C56.5464 71.1816 57.1279 71.6356 57.7093 71.6356C58.2907 71.6356 58.8075 71.1167 58.8075 70.4682C58.8075 69.8845 58.2907 69.3657 57.6447 69.3657ZM54.2853 35.1223C53.6393 35.1223 53.1871 35.5763 53.1871 36.2248C53.1871 36.8734 53.7039 37.3922 54.2853 37.3922C54.8668 37.3922 55.4482 36.8085 55.4482 36.2248C55.3836 35.6411 54.8668 35.1223 54.2853 35.1223ZM50.1507 69.3657C49.5047 69.3657 49.0525 69.8845 49.0525 70.4682C49.0525 71.1167 49.5693 71.6356 50.2153 71.5707C50.7968 71.5707 51.3136 71.0519 51.3136 70.4682C51.3136 69.8845 50.7968 69.3657 50.1507 69.3657ZM41.8816 47.5744C41.3001 47.5744 40.7833 48.0933 40.7187 48.677C40.7187 49.3255 41.1709 49.8443 41.817 49.8443C42.3984 49.8443 42.9152 49.3904 42.9798 48.7418C43.0444 48.223 42.463 47.6393 41.8816 47.5744ZM54.2853 35.1223C53.6393 35.1223 53.1871 35.5763 53.1871 36.2248C53.1871 36.8734 53.7039 37.3922 54.2853 37.3922C54.8668 37.3922 55.4482 36.8085 55.4482 36.2248C55.3836 35.6411 54.8668 35.1223 54.2853 35.1223ZM41.8816 47.5744C41.3001 47.5744 40.7833 48.0933 40.7187 48.677C40.7187 49.3255 41.1709 49.8443 41.817 49.8443C42.3984 49.8443 42.9152 49.3904 42.9798 48.7418C43.0444 48.223 42.463 47.6393 41.8816 47.5744ZM54.2853 35.1223C53.6393 35.1223 53.1871 35.5763 53.1871 36.2248C53.1871 36.8734 53.7039 37.3922 54.2853 37.3922C54.8668 37.3922 55.4482 36.8085 55.4482 36.2248C55.3836 35.6411 54.8668 35.1223 54.2853 35.1223ZM41.8816 47.5744C41.3001 47.5744 40.7833 48.0933 40.7187 48.677C40.7187 49.3255 41.1709 49.8443 41.817 49.8443C42.3984 49.8443 42.9152 49.3904 42.9798 48.7418C43.0444 48.223 42.463 47.6393 41.8816 47.5744ZM54.2853 35.1223C53.6393 35.1223 53.1871 35.5763 53.1871 36.2248C53.1871 36.8734 53.7039 37.3922 54.2853 37.3922C54.8668 37.3922 55.4482 36.8085 55.4482 36.2248C55.3836 35.6411 54.8668 35.1223 54.2853 35.1223ZM41.8816 47.5744C41.3001 47.5744 40.7833 48.0933 40.7187 48.677C40.7187 49.3255 41.1709 49.8443 41.817 49.8443C42.3984 49.8443 42.9152 49.3904 42.9798 48.7418C43.0444 48.223 42.463 47.6393 41.8816 47.5744ZM54.2853 35.1223C53.6393 35.1223 53.1871 35.5763 53.1871 36.2248C53.1871 36.8734 53.7039 37.3922 54.2853 37.3922C54.8668 37.3922 55.4482 36.8085 55.4482 36.2248C55.3836 35.6411 54.8668 35.1223 54.2853 35.1223ZM41.8816 47.5744C41.3001 47.5744 40.7833 48.0933 40.7187 48.677C40.7187 49.3255 41.1709 49.8443 41.817 49.8443C42.3984 49.8443 42.9152 49.3904 42.9798 48.7418C43.0444 48.223 42.463 47.6393 41.8816 47.5744ZM54.2853 35.1223C53.6393 35.1223 53.1871 35.5763 53.1871 36.2248C53.1871 36.8734 53.7039 37.3922 54.2853 37.3922C54.8668 37.3922 55.4482 36.8085 55.4482 36.2248C55.3836 35.6411 54.8668 35.1223 54.2853 35.1223ZM41.8816 47.5744C41.3001 47.5744 40.7833 48.0933 40.7187 48.677C40.7187 49.3255 41.1709 49.8443 41.817 49.8443C42.3984 49.8443 42.9152 49.3904 42.9798 48.7418C43.0444 48.223 42.463 47.6393 41.8816 47.5744ZM54.2853 35.1223C53.6393 35.1223 53.1871 35.5763 53.1871 36.2248C53.1871 36.8734 53.7039 37.3922 54.2853 37.3922C54.8668 37.3922 55.4482 36.8085 55.4482 36.2248C55.3836 35.6411 54.8668 35.1223 54.2853 35.1223ZM41.8816 47.5744C41.3001 47.5744 40.7833 48.0933 40.7187 48.677C40.7187 49.3255 41.1709 49.8443 41.817 49.8443C42.3984 49.8443 42.9152 49.3904 42.9798 48.7418C43.0444 48.223 42.463 47.6393 41.8816 47.5744ZM54.2853 35.1223C53.6393 35.1223 53.1871 35.5763 53.1871 36.2248C53.1871 36.8734 53.7039 37.3922 54.2853 37.3922C54.8668 37.3922 55.4482 36.8085 55.4482 36.2248C55.3836 35.6411 54.8668 35.1223 54.2853 35.1223ZM41.8816 47.5744C41.3001 47.5744 40.7833 48.0933 40.7187 48.677C40.7187 49.3255 41.1709 49.8443 41.817 49.8443C42.3984 49.8443 42.9152 49.3904 42.9798 48.7418C43.0444 48.223 42.463 47.6393 41.8816 47.5744ZM54.2853 35.1223C53.6393 35.1223 53.1871 35.5763 53.1871 36.2248C53.1871 36.8734 53.7039 37.3922 54.2853 37.3922C54.8668 37.3922 55.4482 36.8085 55.4482 36.2248C55.3836 35.6411 54.8668 35.1223 54.2853 35.1223ZM41.8816 47.5744C41.3001 47.5744 40.7833 48.0933 40.7187 48.677C40.7187 49.3255 41.1709 49.8443 41.817 49.8443C42.3984 49.8443 42.9152 49.3904 42.9798 48.7418C43.0444 48.223 42.463 47.6393 41.8816 47.5744ZM41.8816 47.5744C41.3001 47.5744 40.7833 48.0933 40.7187 48.677C40.7187 49.3255 41.1709 49.8443 41.817 49.8443C42.3984 49.8443 42.9152 49.3904 42.9798 48.7418C43.0444 48.223 42.463 47.6393 41.8816 47.5744ZM41.8816 47.5744C41.3001 47.5744 40.7833 48.0933 40.7187 48.677C40.7187 49.3255 41.1709 49.8443 41.817 49.8443C42.3984 49.8443 42.9152 49.3904 42.9798 48.7418C43.0444 48.223 42.463 47.6393 41.8816 47.5744Z" fill="#0264AB"/>
</svg>
