<svg width="69" height="69" viewBox="0 0 69 69" fill="none" xmlns="http://www.w3.org/2000/svg">
<circle cx="34.2617" cy="34.6443" r="34" fill="white"/>
<path d="M53.1688 46.393C52.9502 46.393 52.7317 46.393 52.5131 46.393C51.4202 46.393 51.3109 46.2838 51.3109 45.1909V24.3165C51.3109 24.098 51.3109 23.8794 51.3109 23.7701C51.3109 23.3329 51.5295 23.2236 51.9666 23.1144C52.4038 23.1144 52.7317 23.1144 53.1688 23.1144C53.9339 23.1144 54.2617 22.7865 54.2617 22.0215C54.2617 19.945 54.2617 17.8685 54.2617 15.6827C54.2617 14.9176 54.0431 14.8083 53.3874 14.8083C51.3109 14.8083 49.1251 14.8083 47.0486 14.8083C46.3929 14.8083 46.065 15.1362 45.9557 15.9012C45.9557 16.1198 45.9557 16.3384 45.9557 16.557C45.9557 17.7592 45.8464 17.8685 44.7535 17.8685H23.9885C23.8792 17.8685 23.7699 17.8685 23.6606 17.8685C22.8956 17.8685 22.7863 17.6499 22.677 16.8849C22.677 16.557 22.677 16.3384 22.677 16.0105C22.677 15.2455 22.3492 14.9176 21.4748 14.9176C19.3983 14.9176 17.4311 14.9176 15.3546 14.9176C14.5896 14.9176 14.4803 15.0269 14.2617 15.6827V22.24C14.4803 23.0051 14.6989 23.1144 15.4639 23.1144H16.0104C17.1033 23.1144 17.2125 23.2236 17.2125 24.3165V45.0816C17.2125 45.3001 17.2125 45.4094 17.2125 45.628C17.2125 46.0652 16.994 46.2838 16.5568 46.2838C16.2289 46.2838 15.9011 46.2838 15.4639 46.2838C14.6989 46.2838 14.4803 46.393 14.2617 47.1581V53.7154C14.2617 54.1526 14.5896 54.4805 15.0267 54.4805H21.6934C22.4584 54.2619 22.5677 54.0433 22.5677 53.2783V52.7318C22.5677 51.6389 22.677 51.5297 23.7699 51.5297C30.7644 51.5297 37.6497 51.5297 44.6442 51.5297C44.8628 51.5297 44.9721 51.5297 45.1907 51.5297C45.6278 51.5297 45.8464 51.7482 45.8464 52.1854C45.8464 52.5133 45.8464 52.8411 45.8464 53.2783C45.8464 54.0433 45.9557 54.2619 46.7207 54.4805H53.3874C54.1524 54.2619 54.1524 54.2619 54.1524 53.4969C54.1524 51.4204 54.1524 49.3439 54.1524 47.1581C54.1524 46.7209 53.8246 46.393 53.1688 46.393ZM48.0322 17.1034C48.0322 16.8849 48.0322 16.7756 48.3601 16.7756C49.5623 16.7756 50.7644 16.7756 51.9666 16.7756C52.1852 16.7756 52.2945 16.8849 52.2945 17.1034C52.2945 17.6499 52.2945 18.3056 52.2945 18.8521C52.2945 19.3985 52.2945 20.0543 52.2945 20.6007C52.2945 20.8193 52.1852 20.9286 51.9666 20.9286C50.7644 20.9286 49.5623 20.9286 48.3601 20.9286C48.1415 20.9286 48.0322 20.9286 48.0322 20.6007C48.0322 19.5078 48.0322 18.3056 48.0322 17.1034ZM16.5568 20.9286C16.3382 20.9286 16.2289 20.8193 16.2289 20.6007C16.2289 19.3985 16.2289 18.1963 16.2289 16.9941C16.2289 16.7756 16.3382 16.6663 16.5568 16.6663C17.759 16.6663 18.9612 16.6663 20.1634 16.6663C20.3819 16.6663 20.4912 16.7756 20.4912 16.9941C20.4912 18.1963 20.4912 19.3985 20.4912 20.6007C20.4912 20.8193 20.3819 20.9286 20.1634 20.9286C19.6169 20.9286 18.9612 20.9286 18.4147 20.9286C17.759 20.9286 17.2125 20.9286 16.5568 20.9286ZM20.4912 52.404C20.4912 52.6226 20.3819 52.7318 20.1634 52.7318C19.5076 52.7318 18.9612 52.7318 18.3054 52.7318C17.759 52.7318 17.1033 52.7318 16.5568 52.7318C16.3382 52.7318 16.2289 52.7318 16.2289 52.404C16.2289 51.2018 16.2289 49.9996 16.2289 48.7974C16.2289 48.5788 16.3382 48.4695 16.5568 48.4695C17.759 48.4695 18.9612 48.4695 20.1634 48.4695C20.3819 48.4695 20.4912 48.5788 20.4912 48.7974C20.4912 49.9996 20.4912 51.2018 20.4912 52.404ZM47.0486 46.5023C46.3929 46.5023 46.065 46.9395 46.065 47.4859C46.065 47.9231 46.065 48.4695 46.065 48.9067C46.065 49.4532 46.065 49.4532 45.5186 49.4532H23.0049C22.4584 49.4532 22.4584 49.4532 22.4584 48.9067C22.4584 48.3603 22.4584 47.9231 22.4584 47.3767C22.4584 46.8302 22.0213 46.393 21.4748 46.393C20.9284 46.393 20.3819 46.393 19.7262 46.393C19.5076 46.393 19.3983 46.2838 19.3983 46.0652V45.9559V23.4422C19.3983 22.8958 19.3983 22.8958 19.9448 22.8958C20.4912 22.8958 20.9284 22.8958 21.4748 22.8958C22.1306 22.8958 22.4584 22.4586 22.4584 21.8029C22.4584 21.2564 22.4584 20.71 22.4584 20.1635C22.4584 19.8357 22.5677 19.7264 22.7863 19.7264C22.8956 19.7264 22.8956 19.7264 23.0049 19.7264H45.5186C46.065 19.7264 46.065 19.7264 46.065 20.2728C46.065 20.8193 46.065 21.2564 46.065 21.8029C46.065 22.3493 46.5022 22.7865 47.0486 22.7865C47.595 22.7865 48.1415 22.7865 48.6879 22.7865C49.0158 22.7865 49.1251 22.8958 49.1251 23.2236C49.1251 25.4094 49.1251 27.5952 49.1251 29.781V46.0652C49.1251 46.6116 49.1251 46.6116 48.5786 46.6116C48.1415 46.5023 47.595 46.5023 47.0486 46.5023ZM52.1852 52.404C52.1852 52.6226 52.0759 52.7318 51.8573 52.7318C50.6551 52.7318 49.453 52.7318 48.2508 52.7318C48.0322 52.7318 47.9229 52.6226 47.9229 52.404C47.9229 51.7482 47.9229 51.2018 47.9229 50.546C47.9229 49.9996 47.9229 49.3439 47.9229 48.7974C47.9229 48.5788 47.9229 48.4695 48.2508 48.4695C49.453 48.4695 50.6551 48.4695 51.8573 48.4695C52.0759 48.4695 52.1852 48.5788 52.1852 48.7974C52.1852 49.9996 52.1852 51.2018 52.1852 52.404Z" fill="#E1292C"/>
</svg>
