<svg width="100" height="89" viewBox="0 0 100 89" fill="none" xmlns="http://www.w3.org/2000/svg">
<circle opacity="0.05" cx="38.5" cy="38.5" r="38.5" fill="#0063AA"/>
<path d="M96.7317 63.9066C96.2916 63.6426 96.2036 63.4666 96.4676 63.0266C98.1397 60.2984 96.7317 56.6902 93.6515 55.8982C93.0355 55.7221 92.4194 55.7222 91.8034 55.7222C85.379 55.7222 78.8667 55.7222 72.4423 55.7222C72.0023 55.7222 71.5623 55.7222 71.2983 55.2821C71.0342 54.7541 71.2983 54.4021 71.5623 53.9621C72.7063 52.114 73.8504 50.3539 74.9945 48.5058C76.0505 46.7457 75.6985 44.5455 74.2024 43.2255C72.7063 41.9054 70.5062 41.8174 68.9221 43.1375C67.25 44.4575 65.5779 45.7776 63.9059 47.1857C62.8498 48.0657 62.2338 49.2098 61.9697 50.5299C61.7937 51.4099 62.0578 52.29 62.0578 53.258C62.0578 54.9301 61.7057 56.5142 60.4737 57.8343C58.8016 59.5944 56.7775 60.0344 54.4013 59.6824C53.4333 59.5064 52.5532 59.5064 51.6732 59.8584C50.3531 60.3864 49.033 60.4744 47.625 60.4744C42.8727 60.4744 38.2084 60.4744 33.4562 60.4744C33.1042 60.4744 32.7521 60.4744 32.3121 60.4744C30.288 60.6504 28.7039 61.9705 28.1759 63.9066C28.0879 64.0826 28.0879 64.2586 27.9999 64.5226C27.9999 69.4509 27.9999 74.3792 27.9999 79.2194C27.9999 79.3074 28.0879 79.3074 28.0879 79.3954C28.8799 82.0356 30.464 83.2677 33.1922 83.2677C38.4725 83.2677 43.7527 83.2677 49.121 83.2677C50.8811 83.2677 52.5532 83.6197 54.1373 84.4997C54.8414 84.9398 55.5454 85.2918 56.2494 85.7318C58.6256 87.2279 61.2657 88.0199 64.1699 87.9319C66.986 87.8439 69.8902 87.9319 72.7063 87.9319C72.8823 87.9319 73.1464 87.9319 73.3224 87.9319C73.8504 87.8439 74.2024 87.4039 74.2024 86.8759C74.2024 86.3478 73.8504 85.9958 73.3224 85.9078C73.1464 85.9078 72.8823 85.9078 72.7063 85.9078C69.7142 85.9078 66.634 85.9078 63.6418 85.9078C61.8817 85.9078 60.1216 85.4678 58.6256 84.6757C57.8335 84.2357 57.0415 83.7957 56.3374 83.2677C54.0493 81.8596 51.5852 81.1555 48.945 81.1555C43.6647 81.2435 38.4725 81.1555 33.1922 81.1555C31.4321 81.1555 30.288 80.0115 30.2 78.1634C30.2 76.3153 30.2 74.4672 30.2 72.7071C30.2 70.243 30.2 67.7788 30.2 65.3147C30.2 63.6426 31.3441 62.4985 33.0162 62.4985C35.4803 62.4985 37.9444 62.4985 40.4086 62.4985C40.6726 62.4985 40.9366 62.4985 41.1126 62.7625C42.2567 64.2586 43.2247 65.7547 43.6647 67.5148C43.7527 67.8668 43.7527 68.1308 43.8407 68.4829C44.0168 69.0109 44.4568 69.1869 44.9848 69.0989C45.5128 69.0109 45.7769 68.6589 45.7769 68.2188C45.7769 67.8668 45.7769 67.6028 45.6889 67.2508C45.4248 65.7547 44.7208 64.4346 43.9288 63.2026C43.8407 63.0266 43.5767 62.8505 43.6647 62.6745C43.7527 62.4105 44.1048 62.5865 44.2808 62.5865C45.6008 62.5865 46.8329 62.5865 48.153 62.5865C49.297 62.5865 50.4411 62.5865 51.4092 62.1465C52.5532 61.6185 53.7853 61.6185 55.0174 61.7945C58.8016 62.3225 62.4098 60.0344 63.6418 56.4262C64.1699 54.8421 64.1699 53.258 63.9939 51.5859C63.9059 50.5299 64.1699 49.5618 65.0499 48.9458C66.722 47.5377 68.4821 46.1296 70.2422 44.8096C71.0342 44.1935 72.1783 44.2815 72.8823 44.8976C73.5864 45.6016 73.7624 46.5697 73.3224 47.4497C73.2344 47.6257 73.0584 47.8897 72.9704 48.0657C71.9143 49.8258 70.7702 51.5859 69.7142 53.346C68.4821 55.3701 69.6262 57.5702 72.0023 57.8343C72.4423 57.9223 72.9704 57.8343 73.4984 57.8343C73.9384 57.8343 74.0264 58.0103 73.9384 58.3623C73.7624 58.8903 73.6744 59.4184 73.4984 59.9464C72.1783 64.1706 69.6262 66.6348 64.6099 66.3707C62.0578 66.2827 59.7696 67.0748 57.6575 68.3948C56.4254 69.1869 55.1934 69.9789 53.9613 70.771C53.3453 71.123 52.7292 71.475 52.1132 71.651C50.7051 72.003 49.3851 71.915 48.065 71.299C47.4489 71.035 46.9209 71.211 46.6569 71.739C46.3929 72.2671 46.5689 72.7951 47.1849 73.1471C47.3609 73.2351 47.4489 73.3231 47.625 73.3231C50.0891 74.3792 52.5532 74.1152 54.7533 72.7071C55.9854 71.915 57.2175 71.035 58.4496 70.243C59.8576 69.3629 61.2657 68.7469 62.9378 68.4829C63.9059 68.3068 64.9619 68.4828 65.93 68.3948C69.3622 68.2188 72.0023 66.8108 73.8504 63.9066C74.9065 62.2345 75.5225 60.3864 75.8745 58.4503C75.9625 57.9223 76.2265 57.7463 76.7546 57.7463C81.9468 57.7463 87.0511 57.7463 92.2434 57.7463C92.4194 57.7463 92.5954 57.7463 92.7714 57.7463C94.0915 57.8343 95.1476 58.8023 95.2356 60.0344C95.4116 61.4425 94.6195 62.6745 93.3875 63.0266C92.9474 63.1146 92.5074 63.2026 92.0674 63.2026C86.9631 63.2026 81.8588 63.2026 76.7546 63.2026C75.9625 63.2026 75.5225 63.5546 75.5225 64.1706C75.5225 64.7867 75.9625 65.1387 76.7546 65.2267C76.9306 65.2267 77.1066 65.2267 77.2826 65.2267C82.8269 65.2267 88.3712 65.2267 93.9155 65.2267C94.1795 65.2267 94.3555 65.2267 94.6195 65.2267C95.8516 65.3147 96.8197 66.1067 97.1717 67.2508C97.5237 68.3949 96.9957 69.5389 96.0276 70.243C95.4996 70.595 94.8836 70.683 94.1795 70.683C88.1952 70.683 82.2109 70.683 76.2265 70.683C76.0505 70.683 75.7865 70.683 75.6105 70.683C74.9945 70.771 74.5544 71.211 74.5544 71.739C74.5544 72.2671 74.9945 72.6191 75.6105 72.7071C75.8745 72.7071 76.0505 72.7071 76.3145 72.7071C80.8908 72.7071 85.555 72.7071 90.1313 72.7071C90.4833 72.7071 90.9233 72.7071 91.2754 72.7951C92.6834 73.1471 93.6515 74.5552 93.2995 76.0513C92.9475 77.4594 91.8914 78.2514 90.2193 78.2514C87.0511 78.2514 83.8829 78.2514 80.8028 78.2514C78.5147 78.2514 76.1385 78.2514 73.8504 78.2514C73.0584 78.2514 72.6183 78.6914 72.6183 79.2194C72.6183 79.8355 73.0584 80.2755 73.8504 80.2755C74.0264 80.2755 74.2024 80.2755 74.3784 80.2755C77.9866 80.2755 81.6828 80.2755 85.291 80.2755C85.555 80.2755 85.9071 80.2755 86.1711 80.2755C87.7552 80.3635 88.8992 81.9476 88.5472 83.4437C88.2832 84.8517 87.1391 85.7318 85.643 85.7318C83.1789 85.7318 80.7148 85.7318 78.2506 85.7318C77.5466 85.7318 77.1066 86.0838 77.1066 86.6999C77.1066 87.3159 77.5466 87.7559 78.2506 87.7559C80.8908 87.7559 83.4429 87.8439 86.0831 87.7559C88.9872 87.6679 91.0993 84.9398 90.5713 82.1236C90.4833 81.5076 90.1313 80.9795 89.9553 80.3635C90.2193 80.1875 90.3953 80.2755 90.6593 80.2755C94.3555 80.0995 96.5556 76.2273 94.7956 73.1471C94.5315 72.7071 94.7076 72.7071 95.0596 72.6191C97.1717 72.1791 98.7558 70.683 99.1078 68.5709C99.3718 66.8108 98.4037 64.8747 96.7317 63.9066Z" fill="#0264AB" stroke="#0065AB" stroke-width="0.9045" stroke-miterlimit="10"/>
<path d="M57.5697 41.1133C58.1857 43.0494 59.9458 44.1935 61.8819 44.0175C63.818 43.8415 65.4021 42.4334 65.6661 40.4093C65.7541 39.8813 65.9301 39.6172 66.4582 39.4412C70.5064 38.2972 74.4666 37.0651 78.4268 35.833C79.3949 35.569 80.4509 35.217 81.419 34.865C81.947 34.689 82.211 34.1609 82.035 33.6329C81.859 33.1049 81.419 32.8409 80.891 32.9289C80.715 32.9289 80.5389 33.0169 80.3629 33.1049C78.4268 33.7209 76.4907 34.249 74.5546 34.865C71.6505 35.745 68.8343 36.6251 65.9301 37.5051C65.4901 37.6811 65.2261 37.5931 65.0501 37.0651C64.7861 36.0971 64.5221 35.129 64.1701 34.1609C64.082 33.8089 64.17 33.6329 64.5221 33.6329C65.4021 33.5449 66.1942 33.4569 67.0742 33.2809C71.2104 32.5769 74.9946 31.0808 78.4268 28.7926C79.3949 28.1766 80.4509 27.7366 81.507 27.5606C83.5311 27.2086 85.5552 27.3846 87.4913 27.5606C89.4274 27.7366 91.4515 28.0886 93.4757 27.7366C94.2677 27.5606 95.1478 27.4726 96.0278 27.2966C95.3238 28.3526 94.2677 28.9687 93.1236 29.3207C90.5715 30.1127 88.1074 30.8168 85.5552 31.6088C84.8512 31.7848 84.4992 32.3128 84.6752 32.8409C84.8512 33.4569 85.3792 33.7209 86.0833 33.5449C88.8114 32.7529 91.5396 31.9608 94.1797 31.0808C97.0839 30.1127 98.932 27.2966 98.932 24.2164C98.932 21.2242 96.9078 18.4081 94.0917 17.44C93.5637 17.264 93.1236 17.176 92.5956 17H90.7475C90.1315 17.176 89.6035 17.352 88.9874 17.528C79.9229 20.2562 70.9464 22.9843 61.8819 25.7125C61.4419 25.8005 61.2659 25.8005 60.9139 25.4485C59.5938 23.8644 57.5697 23.4244 55.8096 24.3044C54.0495 25.1845 53.1694 27.2086 53.6975 29.1447C55.1056 33.0169 56.3376 37.0651 57.5697 41.1133ZM63.026 27.3846C67.9543 25.8885 72.9705 24.3924 77.8988 22.8963C81.947 21.6643 86.0833 20.4322 90.1315 19.2001C93.4757 18.2321 96.5558 20.1682 97.0839 23.5124C97.2599 24.3924 97.1719 24.3924 96.3798 24.7444C94.8837 25.4485 93.2997 25.6245 91.5396 25.7125C89.6035 25.5365 87.5793 25.4485 85.5552 25.2724C83.9711 25.1844 82.4751 25.2725 80.891 25.5365C79.7469 25.7125 78.6028 26.1525 77.6348 26.8565C74.5546 28.9687 71.1224 30.4647 67.4262 31.1688C66.2822 31.4328 65.0501 31.6088 63.818 31.6968C63.466 31.6968 63.29 31.6088 63.202 31.2568C62.938 30.3767 62.674 29.4087 62.41 28.5286C62.2339 27.6486 62.2339 27.6486 63.026 27.3846ZM57.2177 25.8885C58.3617 25.4485 59.5938 26.0645 59.9458 27.3846C60.6499 29.4967 61.2659 31.6968 61.8819 33.8089C62.41 35.569 62.938 37.3291 63.466 39.0012C63.554 39.2652 63.642 39.6172 63.642 39.7053C63.642 40.8493 62.85 41.7294 61.8819 41.9054C60.9139 42.0814 59.8578 41.4654 59.5938 40.4093C59.1538 39.0892 58.8018 37.7691 58.3617 36.4491C57.5697 33.8089 56.7776 31.2568 55.9856 28.6166C55.6336 27.3846 56.0736 26.2405 57.2177 25.8885Z" fill="#0264AB" stroke="#0065AB" stroke-width="0.9045" stroke-miterlimit="10"/>
<path d="M53.8737 56.9542C56.9538 57.1302 59.418 54.7541 59.33 51.1459C59.242 48.5938 57.7459 46.2176 55.8098 44.0175C54.9297 43.0495 53.3456 43.1375 52.5536 44.1055C50.8815 46.0416 49.4734 48.1537 49.0334 50.7939C48.5054 54.0501 50.6175 56.6902 53.8737 56.9542ZM50.9695 51.1459C51.2335 48.9458 52.4656 47.2737 53.7857 45.6016C53.9617 45.3376 54.2257 45.2496 54.4897 45.5136C55.8978 47.2737 57.1298 49.1218 57.2179 50.9699C57.2179 53.522 55.8978 54.9301 53.9617 54.8421C52.0256 54.7541 50.7055 53.17 50.9695 51.1459Z" fill="#0264AB" stroke="#0065AB" stroke-width="0.9045" stroke-miterlimit="10"/>
<path d="M53.2571 67.7788C53.2571 67.1627 52.9931 66.7227 52.3771 66.7227C51.409 66.6347 50.969 66.1067 50.881 65.1386C50.793 64.5226 50.353 64.2586 49.825 64.3466C49.2089 64.4346 48.9449 64.7866 48.9449 65.4026C48.8569 67.1627 50.441 68.7468 52.2011 68.7468C52.8171 68.7468 53.2571 68.3948 53.2571 67.7788Z" fill="#0264AB" stroke="#0065AB" stroke-width="0.9045" stroke-miterlimit="10"/>
<path d="M65.6658 63.5546C67.3379 63.5546 68.834 62.0586 68.922 60.3865C68.922 59.6824 68.57 59.1544 67.9539 59.0664C67.4259 59.0664 66.8979 59.4184 66.8979 59.9465C66.8979 60.9145 66.2819 61.3545 65.4018 61.5305C64.7858 61.6185 64.5218 62.0586 64.6098 62.6746C64.6978 63.2906 65.1378 63.5546 65.6658 63.5546Z" fill="#0264AB" stroke="#0065AB" stroke-width="0.9045" stroke-miterlimit="10"/>
</svg>
