<svg width="57" height="57" viewBox="0 0 57 57" fill="none" xmlns="http://www.w3.org/2000/svg">
<g clip-path="url(#clip0_138_12994)">
<path d="M26.5501 30.3332C26.8356 29.805 26.8213 29.2055 26.5215 28.7201C26.1789 28.1634 25.5366 27.8208 24.8085 27.8208C20.8401 27.8208 16.8718 27.8208 12.9034 27.8208H8.521C8.23551 22.1537 9.39176 17.8285 12.1896 14.217C13.6599 12.3041 15.4015 10.8196 17.4856 9.70612V11.2192C17.4856 12.6753 17.4856 14.3454 17.4856 15.9299C17.4856 16.8863 18.185 17.6286 19.1414 17.7C20.1121 17.7571 20.8972 17.1005 21.0257 16.1298C21.0543 15.9299 21.0543 15.7444 21.0543 15.5731V14.531C21.0685 11.9473 21.0685 9.34925 21.0828 6.76551C21.0828 5.36658 22.1534 4.1675 23.481 4.1104C24.7372 4.0533 26.0362 4.06758 27.2781 4.08185C27.7777 4.08185 28.2773 4.09613 28.7912 4.09613C28.8769 4.09613 28.991 4.12468 29.091 4.15323C30.3614 4.49582 31.1608 5.56643 31.1608 6.93681C31.1608 8.62123 31.1608 10.3485 31.1608 12.0186V12.2756C31.1608 13.4747 31.1608 14.6595 31.1608 15.8586C31.1608 16.9006 31.8603 17.6715 32.8595 17.7143C33.8873 17.7571 34.6439 17.0434 34.7295 15.9728C34.7438 15.8015 34.7438 15.6444 34.7438 15.5017V15.3875V13.2891C34.7438 12.1043 34.7438 10.9195 34.7438 9.73467C36.7994 10.8909 38.441 12.5611 39.7828 14.0599C41.3102 15.7586 42.3237 17.5715 42.9232 19.6128C42.9803 19.7984 43.0232 19.9697 43.066 20.1553C43.1516 20.4979 43.2516 20.8405 43.3658 21.1831C43.6513 22.0253 44.5363 22.5249 45.3928 22.325C46.3064 22.1109 46.8916 21.3115 46.806 20.3837C46.7917 20.1695 46.7346 19.984 46.6918 19.8127C45.1073 13.6174 41.2531 9.04948 34.9151 5.82338C34.6296 5.68063 34.601 5.60925 34.5725 5.43796C34.0586 3.26819 32.7596 1.74079 30.6755 0.884298C30.3757 0.755825 30.0759 0.670177 29.7762 0.584528C29.662 0.555978 29.5335 0.513154 29.4193 0.484604L29.3194 0.456055H22.8957L22.7815 0.498879C22.753 0.513154 22.7101 0.527429 22.6816 0.541703C22.6673 0.555978 22.6388 0.555978 22.6388 0.570253C19.9266 1.18407 18.2136 2.86849 17.5712 5.59498C17.5427 5.6378 17.4713 5.70918 17.3999 5.73773C11.0476 8.63551 7.00787 13.646 5.4091 20.5978C4.89521 22.8104 4.90948 25.0658 4.90948 27.2498V27.8351C4.49551 27.8208 4.11009 27.8066 3.7104 27.8779C1.56918 28.2633 0.17025 30.1333 0.384372 32.3317C0.584219 34.3444 2.36857 35.9289 4.46696 35.9289C6.29414 35.9289 8.13558 35.9289 9.96276 35.9289H18.028C18.8131 35.9289 19.6125 35.9289 20.3976 35.9289C21.1399 35.9289 21.7252 35.5435 22.025 34.8583C22.2962 34.2445 22.2248 33.6021 21.7966 33.0597C21.2684 32.3602 20.469 32.3602 20.0836 32.3602C18.9701 32.3602 17.8567 32.3602 16.7433 32.3602H12.1611C9.76291 32.3602 7.36474 32.3602 4.9523 32.3602H4.89521C4.70963 32.3602 4.55261 32.3602 4.39559 32.3459C4.19574 32.3174 3.95307 32.2175 3.95307 31.8749C3.95307 31.6036 4.11009 31.4324 4.35276 31.4181C5.2378 31.3753 6.17994 31.3895 6.9365 31.3895H7.59314C13.2031 31.3895 18.8131 31.3895 24.4231 31.3895C24.4802 31.3895 24.523 31.3895 24.5801 31.3895C24.8371 31.4038 25.1369 31.4181 25.4509 31.2611C25.8363 31.0612 26.3074 30.7757 26.5501 30.3332Z" fill="white"/>
<path d="M56.3557 39.4405C56.3271 39.3263 56.3129 39.2121 56.2843 39.1122C56.2415 38.8838 56.1844 38.6554 56.1558 38.4412C55.4564 34.273 53.1438 30.6615 49.6465 28.249C46.1492 25.8509 41.9524 24.9944 37.827 25.8366C29.5476 27.5353 24.2231 35.415 25.6934 43.7657C26.3215 47.3202 28.2058 50.5748 30.9894 52.9016C33.7444 55.2141 37.2132 56.4703 40.7391 56.4703C41.5242 56.4703 42.3236 56.4132 43.0944 56.2847C49.518 55.2569 53.7862 51.5027 55.7847 45.1361C55.9703 44.5223 56.0845 43.8942 56.1987 43.2947C56.2415 43.0235 56.2986 42.7522 56.3557 42.481L56.3699 42.4525V39.5832L56.3557 39.4405ZM52.787 41.0107C52.7727 44.194 51.5165 47.1774 49.2754 49.4328C47.0485 51.6597 44.0936 52.8873 40.9675 52.8873H40.8961C37.6985 52.8731 34.6865 51.6026 32.4454 49.3186C30.2185 47.0632 29.0052 44.0798 29.0194 40.9251C29.048 37.7703 30.3042 34.7869 32.5739 32.5458C34.815 30.3189 37.7699 29.1055 40.8818 29.1055H40.9675C47.5196 29.1484 52.8298 34.4871 52.787 41.0107Z" fill="white"/>
<path d="M47.4339 34.844C46.663 34.4443 45.8351 34.6156 45.2213 35.3151C44.322 36.3286 43.4084 37.3707 42.5233 38.3842L41.5812 39.4548C40.7247 40.4398 39.8682 41.4104 38.9832 42.424L38.5264 42.9378L37.9411 42.3526C37.1132 41.5246 36.2995 40.711 35.4859 39.883C35.0576 39.4548 34.5295 39.2121 34.0156 39.2121H34.0013C33.5445 39.2121 33.1163 39.3977 32.7879 39.7546C32.0599 40.4969 32.1313 41.5817 32.945 42.4097C34.1012 43.5802 35.6429 45.1219 37.256 46.7207C37.6985 47.1489 38.1553 47.3773 38.6406 47.3773C38.6549 47.3773 38.6692 47.3773 38.6977 47.3773C39.1973 47.363 39.6684 47.1061 40.0681 46.6493C42.6518 43.7087 45.2784 40.711 47.8621 37.7275C48.0762 37.4849 48.2475 37.1566 48.3189 36.8568C48.533 36.0288 48.1619 35.2295 47.4339 34.844Z" fill="white"/>
</g>
<defs>
<clipPath id="clip0_138_12994">
<rect width="56" height="56.0143" fill="white" transform="translate(0.370117 0.456055)"/>
</clipPath>
</defs>
</svg>
