<svg width="69" height="69" viewBox="0 0 69 69" fill="none" xmlns="http://www.w3.org/2000/svg">
<circle cx="34.1504" cy="34.0449" r="34" fill="white"/>
<path d="M46.3929 56.9766C45.8363 56.8221 45.2487 56.6985 44.6921 56.4822C43.0222 55.8025 41.7852 54.6283 41.0121 52.9906C40.9503 52.867 40.8884 52.7126 40.8575 52.6508C39.8061 53.485 38.7856 54.3193 37.7033 55.0918C36.8374 55.7098 35.8788 56.1423 34.8583 56.3277C33.4358 56.6058 32.1679 56.1423 30.9309 55.4626C29.261 54.5356 27.8385 53.2378 26.5397 51.8474C21.8393 46.7799 18.1594 41.0636 15.8401 34.513C14.4485 30.4653 13.9846 26.2939 14.2011 22.0298C14.2629 20.8557 14.665 20.3304 15.8401 20.0523C17.7573 19.5888 19.6437 19.0944 21.4373 18.3529C25.1791 16.777 28.5498 14.5832 31.5494 11.8641C31.9205 11.5551 32.2607 11.1843 32.6318 10.8753C33.6213 10.0719 34.4872 10.0719 35.4768 10.9371C36.0952 11.4624 36.6519 12.0186 37.2703 12.5438C41.074 15.7573 45.2796 18.2293 50.1347 19.527C50.815 19.7124 51.5263 19.8669 52.2066 20.0214C53.3817 20.3304 53.8146 20.8248 53.8765 22.0298C54.093 26.3248 53.6291 30.558 52.1757 34.6366C51.9901 35.131 51.65 35.3782 51.2789 35.2546C50.846 35.131 50.6913 34.7293 50.8769 34.204C51.6809 31.8866 52.2375 29.5074 52.4231 27.0664C52.5468 25.4596 52.4849 23.822 52.5158 22.1843C52.5158 21.6281 52.2684 21.4428 51.7737 21.3192C50.5367 21.0102 49.3307 20.763 48.1246 20.3613C43.6098 18.8781 39.6824 16.468 36.1571 13.409C35.6623 13.0073 35.1984 12.5438 34.7346 12.1113C34.0852 11.5242 33.9924 11.5551 33.343 12.1113C32.137 13.1309 30.9619 14.2433 29.6631 15.1703C26.0759 17.8894 22.1795 19.8978 17.7883 21.0102C17.2316 21.1338 16.6441 21.2883 16.0875 21.4119C15.7782 21.4737 15.6236 21.6281 15.6236 21.968C15.6236 23.7293 15.5308 25.5214 15.6854 27.2827C16.3348 33.926 19.1489 39.7041 22.8598 45.1114C24.5915 47.6142 26.5088 49.9934 28.7044 52.0637C29.7249 53.0215 30.7763 53.8867 32.0442 54.5047C33.3121 55.1536 34.6109 55.1845 35.8788 54.5356C37.5487 53.7013 38.9402 52.4654 40.239 51.1058C40.3318 51.0131 40.3627 50.7659 40.3627 50.6114C40.1463 47.1198 42.3728 44.1226 45.7744 43.3502C46.2383 43.2575 46.5475 43.0412 46.764 42.6395C47.6608 40.94 48.5576 39.2406 49.4544 37.5411C49.5162 37.4175 49.5781 37.2939 49.6399 37.1704C49.8564 36.8305 50.1965 36.7069 50.5367 36.8305C50.8769 36.985 51.0315 37.3557 50.9078 37.6956C50.815 37.9737 50.6604 38.2518 50.5367 38.5299C49.7945 39.9822 49.0214 41.4035 48.2793 42.8558C48.2174 42.9485 48.1556 43.0721 48.0937 43.1957C48.4957 43.2884 48.8668 43.3811 49.207 43.4738C51.9901 44.2771 54.4331 47.058 54.1239 50.7968C53.8765 53.7322 51.4026 56.3895 48.3411 56.8839C48.2483 56.8839 48.1865 56.9457 48.0937 56.9766C47.5371 56.9766 46.9805 56.9766 46.3929 56.9766ZM52.7942 50.0861C52.7942 47.058 50.3202 44.5861 47.2897 44.5861C44.2592 44.5861 41.7543 47.0889 41.7543 50.0861C41.7543 53.1142 44.2901 55.648 47.3206 55.6171C50.3202 55.6171 52.7942 53.1142 52.7942 50.0861Z" fill="#E1292C"/>
<path d="M21.7152 32.381C21.3132 31.8248 21.0658 31.2377 21.1895 30.5271C21.3441 29.6928 21.8389 29.1057 22.612 28.8585C22.8903 28.7658 22.9521 28.6422 22.9831 28.395C23.2614 25.645 24.4056 23.2967 26.4156 21.3809C27.8072 20.0523 29.4152 19.1871 31.2707 18.6618C31.4562 18.6 31.6727 18.4764 31.7964 18.3219C32.1056 17.9512 32.4458 17.7349 32.9406 17.7349C33.6827 17.7349 34.394 17.7349 35.1362 17.7349C35.6309 17.7349 36.002 17.9821 36.3113 18.3528C36.435 18.5073 36.5896 18.6309 36.7751 18.6618C41.4137 20.0214 44.135 23.0804 45.0318 27.8079C45.0627 27.9006 45.0627 28.0242 45.0627 28.1169C45.0937 28.4877 45.1864 28.7349 45.6194 28.8894C46.8563 29.3529 47.2893 30.836 46.6089 31.9793C46.5162 32.1029 46.4543 32.2265 46.3615 32.3501C47.4439 34.0495 47.011 36.9231 44.3824 37.5102C44.0423 37.6029 43.8567 37.7574 43.733 38.1282C42.2177 42.2996 39.4346 45.1114 35.0125 46.1002C33.4972 46.44 32.0438 46.0384 30.6831 45.3586C27.5289 43.7827 25.3333 41.3417 24.2509 37.9428C24.22 37.7883 24.0345 37.6338 23.8798 37.6029C22.612 37.2321 21.5606 36.6451 21.2822 35.2546C21.0967 34.3276 20.973 33.308 21.7152 32.381ZM25.3951 33.0917C25.3951 34.1731 25.3951 35.2237 25.3951 36.2743C25.3951 36.676 25.457 37.1085 25.5497 37.4793C26.5702 40.8473 28.7658 43.1339 31.9819 44.4625C32.8169 44.8024 33.7137 44.9569 34.6723 44.8333C36.4968 44.5552 37.9812 43.6282 39.3418 42.4541C42.1559 39.9513 43.1455 36.8305 42.5579 33.0917C42.4342 33.0917 42.2796 33.0917 42.125 33.0917C40.1458 33.0917 38.1358 33.0917 36.1566 33.0917C36.002 33.0917 35.8165 33.0917 35.6619 33.0608C35.3217 32.9681 35.1052 32.7209 35.1052 32.381C35.1362 32.0102 35.3526 31.763 35.7546 31.7321C35.9093 31.7012 36.0639 31.7321 36.2185 31.7321C38.9398 31.7321 41.6302 31.7321 44.3515 31.7321C44.537 31.7321 44.7535 31.7321 44.939 31.7012C45.3101 31.6394 45.5266 31.3922 45.5266 30.9905C45.5575 30.5889 45.372 30.3108 44.97 30.2181C44.7535 30.1563 44.537 30.1563 44.3515 30.1563C37.4864 30.1563 30.6213 30.1563 23.7871 30.1563C23.6015 30.1563 23.3851 30.1563 23.1995 30.1872C22.7975 30.2799 22.581 30.558 22.612 30.9905C22.6429 31.4849 22.9521 31.7321 23.6634 31.7321C26.5702 31.7321 29.4771 31.7321 32.3839 31.7321C33.0643 31.7321 33.4044 31.9484 33.4044 32.4428C33.4044 32.9063 33.0643 33.1535 32.3839 33.1535C30.2811 33.1535 28.1474 33.1535 26.0445 33.1535C25.7971 33.0917 25.6425 33.0917 25.3951 33.0917ZM36.6514 20.145C36.8988 23.0186 37.1462 25.8613 37.3936 28.704C39.4964 28.704 41.5993 28.704 43.6712 28.704C43.6093 25.0579 40.5788 21.0411 36.6514 20.145ZM30.6522 28.704C30.8996 25.8304 31.147 22.9877 31.3944 20.145C27.9927 20.5776 24.0035 25.5523 24.4365 28.704C26.4775 28.704 28.5494 28.704 30.6522 28.704ZM35.1671 19.1562C34.3631 19.1562 33.6209 19.1562 32.8787 19.1562C32.6004 22.3388 32.3221 25.5214 32.0438 28.6731C33.4044 28.6731 34.6723 28.6731 35.9711 28.6731C35.7237 25.5214 35.4454 22.3388 35.1671 19.1562ZM44.0732 36.1816C45.5575 35.7799 45.6194 34.6675 45.372 33.5552C45.3411 33.3698 45.0009 33.1844 44.7844 33.1226C44.5989 33.0608 44.3515 33.1226 44.0732 33.1226C44.0732 34.1113 44.0732 35.131 44.0732 36.1816ZM23.9417 36.1816C23.9417 35.131 23.9417 34.1422 23.9417 33.1226C22.7975 32.9681 22.5501 33.1844 22.5501 34.2658C22.5501 34.3276 22.5501 34.3894 22.5501 34.4512C22.581 35.3782 22.9831 35.9035 23.9417 36.1816Z" fill="#E1292C"/>
<path d="M46.6712 50.9205C47.6607 50.0244 48.5884 49.1901 49.4852 48.3559C49.8563 48.016 50.2583 47.9542 50.5676 48.2632C50.815 48.5412 50.8459 48.912 50.5985 49.1901C49.5471 50.3025 48.4957 51.384 47.4133 52.4654C47.135 52.7435 46.8258 52.7435 46.5165 52.5272C45.8981 52.0946 45.2796 51.6311 44.692 51.1677C44.3519 50.9205 44.3209 50.5188 44.5374 50.2098C44.7539 49.9008 45.1559 49.839 45.496 50.0862C45.9599 50.3643 46.3928 50.7042 46.6712 50.9205Z" fill="#E1292C"/>
</svg>
