<svg width="69" height="69" viewBox="0 0 69 69" fill="none" xmlns="http://www.w3.org/2000/svg">
<circle cx="34.793" cy="34.8494" r="34" fill="white"/>
<path d="M34.8928 56.5994C33.8928 56.5994 32.7928 56.2993 31.5928 55.7993C23.3928 52.0993 18.2928 45.7994 16.1928 37.0994C15.7928 35.3994 15.5928 33.4994 15.5928 31.3994C15.5928 29.4994 15.5928 27.5994 15.5928 25.6994V21.3994C15.5928 20.5994 15.8928 20.1994 16.6928 20.1994C21.4928 19.9994 26.1928 18.3994 31.1928 15.3994C32.1928 14.7994 33.1928 14.0994 33.9928 13.4994C34.3928 13.1994 34.5928 13.0994 34.7928 13.0994C34.9928 13.0994 35.2928 13.1994 35.5928 13.4994C38.7928 15.7994 41.8928 17.3994 44.9928 18.5994C47.6928 19.4994 50.1928 20.0994 52.6928 20.1994C53.6928 20.1994 53.9928 20.5994 53.9928 21.4994C53.9928 23.3994 53.9928 25.1994 53.9928 27.0994V27.6994V29.3994C53.9928 30.6994 53.9928 31.8994 53.9928 33.1994C53.7928 43.4994 47.6928 52.3993 38.2928 55.7993L38.0928 55.8994C37.0928 56.2994 35.9928 56.5994 34.8928 56.5994ZM34.7928 15.6994C34.5928 15.6994 34.2928 15.7994 34.0928 15.9994C33.0928 16.6994 31.8928 17.4994 30.5928 18.1994C26.6928 20.3994 22.7928 21.5994 18.7928 22.0994C17.7928 22.1994 17.5928 22.4994 17.5928 23.4994V26.1994C17.5928 27.9994 17.5928 29.7994 17.5928 31.5994C17.5928 33.0994 17.6928 34.2994 17.8928 35.3994C19.5928 44.3994 24.6928 50.7993 33.0928 54.2993C33.6928 54.4993 34.2928 54.6994 34.8928 54.6994C35.3928 54.6994 35.9928 54.5994 36.4928 54.3994L37.1928 54.0994C37.6928 53.8994 38.1928 53.6994 38.6928 53.4994C46.4928 49.8994 50.9928 43.6993 51.9928 34.7993C52.1928 33.4993 52.0928 32.0994 52.0928 30.8994C52.0928 30.1994 52.0928 29.5994 52.0928 28.9994V27.3994C52.0928 25.8994 52.0928 24.5994 52.0928 23.1994C52.0928 22.4994 51.7928 22.1994 51.1928 22.0994C49.5928 21.8994 47.8928 21.5994 46.1928 21.0994C42.5928 19.9994 39.0928 18.3994 35.5928 15.9994C35.3928 15.7994 35.0928 15.6994 34.7928 15.6994Z" fill="#E1292C"/>
<path d="M32.6929 41.3994C32.3929 41.3994 32.1929 41.2994 31.8929 40.9994C30.0929 39.1994 28.1929 37.2994 26.3929 35.4994C25.8929 34.9994 25.8929 34.4994 26.2929 33.9994C26.4929 33.7994 26.6929 33.6994 26.9929 33.6994C27.2929 33.6994 27.5929 33.7994 27.7929 34.0994C29.1929 35.4994 30.4929 36.7994 31.8929 38.1994C32.0929 38.3994 32.2929 38.5994 32.6929 38.5994C33.0929 38.5994 33.3929 38.2994 33.4929 38.1994C35.3929 36.2994 37.1929 34.4994 39.0929 32.5994L41.7929 29.8994C42.0929 29.5994 42.3929 29.4994 42.5929 29.4994C42.6929 29.4994 42.7929 29.4994 42.7929 29.4994C43.2929 29.5994 43.5929 29.9994 43.5929 30.4994C43.5929 30.7994 43.493 30.9994 43.2929 31.1994L40.3929 34.0994C38.0929 36.3994 35.7929 38.6994 33.3929 41.0994C33.2929 41.1994 32.9929 41.3994 32.6929 41.3994Z" fill="#E1292C"/>
</svg>
