<svg width="69" height="69" viewBox="0 0 69 69" fill="none" xmlns="http://www.w3.org/2000/svg">
<circle cx="34.8457" cy="34.0449" r="34" fill="white"/>
<path d="M58.6511 49.7671C55.6139 44.1393 52.5767 38.6008 49.5394 32.973C49.3608 32.6157 49.0034 32.437 48.6461 32.437C47.2168 32.437 45.7875 32.437 44.3583 32.437C43.7329 32.437 43.3756 32.705 43.3756 33.241C43.3756 33.6876 43.7329 33.9556 44.3583 33.9556C45.5196 33.9556 46.6808 33.9556 47.9315 33.9556C48.2888 33.9556 48.4674 34.0449 48.6461 34.4023C51.326 39.3154 54.0059 44.2286 56.6859 49.0525C56.9538 49.4991 56.9538 49.4991 56.4179 49.4991C42.125 49.4991 27.8321 49.4991 13.4499 49.4991C12.9139 49.4991 12.9139 49.4991 13.1819 49.0525C15.8618 44.1393 18.5417 39.3154 21.1323 34.4023C21.311 34.0449 21.4897 33.9556 21.847 33.9556C26.0455 33.9556 30.244 33.9556 34.5319 33.9556C34.7106 33.9556 34.8892 33.9556 34.9786 33.9556C35.3359 33.8663 35.6039 33.5983 35.6039 33.241C35.6039 32.7943 35.3359 32.6157 34.9786 32.5263C34.8892 32.5263 34.7106 32.5263 34.6212 32.5263C30.1547 32.5263 25.6882 32.5263 21.2217 32.5263C20.6857 32.5263 20.3284 32.705 20.0604 33.241C18.7204 35.8316 17.2911 38.3328 15.9512 40.8341C14.3432 43.782 12.6459 46.8192 11.038 49.8564C10.5913 50.6604 10.9487 51.1964 11.842 51.1964C11.9313 51.1964 12.11 51.1964 12.1993 51.1964C19.7924 51.1964 27.2961 51.1964 34.8892 51.1964C42.5716 51.1964 50.2541 51.1964 57.9365 51.1964C58.7405 51.0177 59.0978 50.4818 58.6511 49.7671Z" fill="#E1292C"/>
<path d="M30.959 27.7918C30.959 28.2385 31.3163 28.4171 31.6736 28.5958C32.9243 29.1318 34.1749 29.6678 35.5148 30.1144C36.3188 30.4717 36.8548 31.0077 37.2121 31.8117C37.7481 33.0623 38.1948 34.4023 38.7307 35.6529C38.9094 36.0102 39.0881 36.3675 39.5347 36.3675C39.9814 36.3675 40.16 36.0995 40.3387 35.6529C40.8747 34.4023 41.3213 33.1516 41.8573 31.901C42.2146 31.0077 42.7506 30.4717 43.6439 30.1144C44.8945 29.6678 46.2345 29.1318 47.4851 28.5958C47.8424 28.4171 48.1104 28.2385 48.1104 27.7918C48.1104 27.3452 47.8424 27.1665 47.4851 26.9878C46.2345 26.4519 44.9839 25.9159 43.6439 25.4692C42.7506 25.1119 42.2146 24.5759 41.8573 23.6826C41.4106 22.432 40.8747 21.1814 40.3387 19.9307C40.16 19.5734 39.9814 19.3054 39.5347 19.3054C39.0881 19.3054 38.9094 19.5734 38.7307 20.0201C38.1948 21.2707 37.7481 22.5213 37.2121 23.7719C36.8548 24.6652 36.2295 25.2906 35.3362 25.6479C34.0856 26.0945 32.8349 26.6305 31.6736 27.0772C31.227 27.0772 30.959 27.3452 30.959 27.7918ZM34.2642 27.5238C34.8895 27.2558 35.4255 27.0772 36.0508 26.8092C37.2121 26.3625 38.1054 25.4692 38.5521 24.3079C38.8201 23.5933 39.0881 22.8786 39.356 22.2533H39.5347C39.8027 22.968 40.0707 23.5933 40.3387 24.3079C40.7853 25.5586 41.6786 26.4519 42.9293 26.8985C43.6439 27.1665 44.2692 27.4345 44.9839 27.7025C44.9839 27.8811 44.8052 27.8812 44.7159 27.9705C44.0906 28.2385 43.5546 28.4171 42.9293 28.6851C41.6786 29.1318 40.7853 30.0251 40.3387 31.2757C40.0707 31.9903 39.8027 32.6157 39.5347 33.3303C39.2667 33.3303 39.2667 33.1516 39.2667 32.973C38.9987 32.3477 38.7307 31.7224 38.4627 31.0077C38.0161 29.9357 37.2121 29.1318 36.1402 28.6851C35.4255 28.4171 34.6215 28.0598 33.9069 27.7918C33.9962 27.6132 34.1749 27.6132 34.2642 27.5238Z" fill="#E1292C"/>
<path d="M21.4893 23.0574C22.204 23.3254 22.9186 23.6827 23.7226 23.9507C24.1692 24.1293 24.5266 24.3973 24.7052 24.9333C24.9732 25.6479 25.3305 26.3626 25.5985 27.1666C25.7772 27.5239 25.9559 27.7919 26.4025 27.7919C26.8492 27.7919 27.0278 27.5239 27.2065 27.1666C27.4745 26.4519 27.8318 25.7373 28.0998 25.0226C28.2784 24.576 28.6358 24.2187 29.0824 24.04C29.7971 23.772 30.5117 23.504 31.2264 23.1467C31.5837 22.968 31.8517 22.7894 31.8517 22.3427C31.8517 21.8961 31.5837 21.7174 31.2264 21.5387C30.5117 21.2708 29.7971 21.0028 29.0824 20.6454C28.6358 20.4668 28.2784 20.1988 28.0998 19.6628C27.8318 18.9482 27.4745 18.1442 27.2065 17.4295C27.0278 17.0722 26.8492 16.8936 26.4918 16.8936C26.0452 16.8936 25.8665 17.0722 25.6879 17.5189C25.4199 18.2335 25.0626 18.9482 24.7946 19.7521C24.6159 20.1988 24.2586 20.5561 23.8119 20.7348C23.0973 21.0028 22.3826 21.3601 21.5787 21.6281C21.2213 21.8067 20.9533 21.9854 20.9533 22.3427C20.864 22.7 21.132 22.968 21.4893 23.0574ZM25.3305 21.4494C25.7772 21.0028 25.9559 20.4668 26.3132 19.9308C26.6705 21.1814 27.4745 21.9854 28.8144 22.3427C27.5638 22.7894 26.7598 23.5933 26.4025 24.9333C26.0452 24.308 25.8665 23.6827 25.4199 23.236C24.9732 22.7894 24.4372 22.6107 23.8119 22.3427C24.3479 22.0747 24.8839 21.8067 25.3305 21.4494Z" fill="#E1292C"/>
</svg>
