<svg width="113" height="80" viewBox="0 0 113 80" fill="none" xmlns="http://www.w3.org/2000/svg">
<path d="M0.849077 40.0449C0.303118 40.1283 -0.071898 40.6384 0.0114545 41.1844C0.0948069 41.7303 0.604964 42.1053 1.15092 42.022L0.849077 40.0449ZM111.473 79.5331C112.025 79.548 112.485 79.1125 112.5 78.5605L112.743 69.5637C112.758 69.0117 112.322 68.552 111.77 68.5371C111.218 68.5222 110.758 68.9576 110.744 69.5097L110.527 77.5068L102.53 77.2907C101.978 77.2757 101.519 77.7112 101.504 78.2633C101.489 78.8154 101.924 79.275 102.476 79.2899L111.473 79.5331ZM1.15092 42.022C22.8023 38.7164 75.0828 41.5471 110.774 79.2212L112.226 77.8457C75.9172 39.5198 22.8644 36.6838 0.849077 40.0449L1.15092 42.022Z" fill="white"/>
<path d="M56.7594 24.1521L56.2943 25.287L50.5978 22.9527L51.0629 21.8178L56.7594 24.1521ZM53.1342 17.3812L48.821 27.9068L47.4258 27.335L51.7389 16.8095L53.1342 17.3812ZM59.8283 20.1243L55.5152 30.6499L54.1272 30.0811L58.4403 19.5555L59.8283 20.1243ZM68.3914 29.3914L68.1189 30.0564C67.795 30.8468 67.4059 31.5148 66.9516 32.0603C66.4972 32.6059 65.9947 33.0219 65.4439 33.3084C64.8931 33.5949 64.31 33.7472 63.6947 33.7652C63.0843 33.7853 62.4585 33.6639 61.8175 33.4013C61.1958 33.1465 60.6721 32.7968 60.2464 32.3522C59.8256 31.9096 59.5146 31.391 59.3136 30.7964C59.1174 30.2038 59.044 29.5518 59.0935 28.8403C59.143 28.1289 59.3297 27.378 59.6536 26.5876L59.9261 25.9225C60.25 25.1321 60.6405 24.4676 61.0977 23.9288C61.5617 23.3872 62.0715 22.9741 62.6271 22.6896C63.1847 22.4003 63.7687 22.2456 64.3792 22.2256C64.9945 22.2075 65.613 22.3259 66.2347 22.5806C66.8757 22.8433 67.4066 23.1959 67.8275 23.6386C68.2532 24.0832 68.5608 24.6032 68.7502 25.1987C68.9464 25.7913 69.0149 26.4413 68.9558 27.1488C68.9034 27.8535 68.7153 28.601 68.3914 29.3914ZM66.7381 29.4906L67.0166 28.8111C67.2733 28.1846 67.4354 27.6037 67.5027 27.0684C67.5749 26.5351 67.5553 26.0543 67.4438 25.6258C67.3323 25.1974 67.1328 24.8258 66.8452 24.511C66.5625 24.1981 66.1971 23.9499 65.7489 23.7662C65.3151 23.5885 64.8878 23.5118 64.4669 23.5364C64.0507 23.5629 63.6502 23.6886 63.2653 23.9136C62.8853 24.1406 62.529 24.4675 62.1966 24.8941C61.8641 25.3207 61.5696 25.8473 61.3128 26.4738L61.0344 27.1534C60.7757 27.7847 60.614 28.3714 60.5495 28.9135C60.487 29.4507 60.5129 29.937 60.6272 30.3722C60.7484 30.8046 60.9479 31.1762 61.2257 31.4871C61.5084 31.7999 61.8667 32.0452 62.3004 32.2229C62.7534 32.4086 63.1904 32.4891 63.6113 32.4646C64.0323 32.4401 64.4304 32.3134 64.8056 32.0844C65.1877 31.8526 65.5401 31.5214 65.8629 31.0908C66.1877 30.6554 66.4794 30.122 66.7381 29.4906ZM75.8562 27.7813L68.4408 35.9465L67.0167 35.3629L75.342 26.4814L76.2601 26.8576L75.8562 27.7813ZM74.8458 38.5711L75.2851 27.5473L75.6456 26.6058L76.5637 26.982L76.2772 39.1576L74.8458 38.5711ZM76.2618 34.6005L75.7937 35.7427L69.8803 33.3196L70.3484 32.1774L76.2618 34.6005ZM78.0921 24.6533L79.1764 25.0976C79.0224 25.4736 78.7984 25.773 78.5044 25.9958C78.2124 26.2139 77.8714 26.3387 77.4814 26.3703C77.0913 26.4018 76.6746 26.3267 76.2312 26.145C75.5613 25.8705 75.1043 25.475 74.86 24.9584C74.6226 24.4389 74.6204 23.8949 74.8534 23.3262L75.9378 23.7705C75.8213 24.0549 75.8005 24.3391 75.8755 24.6231C75.9505 24.9071 76.1856 25.1301 76.5808 25.292C76.9663 25.45 77.2855 25.4541 77.5382 25.3044C77.7909 25.1547 77.9755 24.9376 78.0921 24.6533ZM70.2061 38.7468C70.295 38.53 70.4351 38.3735 70.6265 38.2774C70.8226 38.1833 71.0508 38.1896 71.3111 38.2962C71.5665 38.4009 71.7311 38.5556 71.8048 38.7603C71.8833 38.9669 71.8782 39.1787 71.7893 39.3956C71.7044 39.6028 71.5624 39.7501 71.3634 39.8374C71.1672 39.9315 70.9414 39.9262 70.686 39.8216C70.4258 39.7149 70.2588 39.5592 70.1851 39.3545C70.1142 39.1566 70.1212 38.9541 70.2061 38.7468ZM85.326 38.9565L86.714 39.5253C86.3692 40.1607 85.9349 40.6779 85.4112 41.0768C84.8875 41.4758 84.2805 41.7139 83.5903 41.7913C82.902 41.8639 82.1361 41.7273 81.2927 41.3817C80.6759 41.129 80.1618 40.7832 79.7506 40.3445C79.3441 39.9078 79.0471 39.4033 78.8594 38.8311C78.6737 38.2541 78.6045 37.6263 78.6518 36.9477C78.7059 36.2663 78.884 35.5569 79.1862 34.8195L79.6157 33.7713C79.9179 33.0339 80.2878 32.4059 80.7254 31.8873C81.1699 31.3659 81.6631 30.9657 82.2052 30.6869C82.752 30.41 83.3331 30.2626 83.9484 30.2445C84.5637 30.2265 85.1966 30.3508 85.8473 30.6174C86.6425 30.9432 87.2535 31.3681 87.6805 31.8921C88.1075 32.416 88.3642 33.0052 88.4505 33.6598C88.5437 34.3115 88.4843 34.9992 88.2722 35.7228L86.8842 35.154C87.0182 34.6348 87.0657 34.1617 87.0267 33.7349C86.9897 33.3032 86.842 32.9219 86.5836 32.5908C86.3253 32.2598 85.9238 31.9827 85.3792 31.7596C84.9117 31.568 84.4631 31.4883 84.0334 31.5205C83.6085 31.5546 83.2085 31.6862 82.8332 31.9152C82.4628 32.1461 82.1235 32.4658 81.8154 32.8743C81.5073 33.2828 81.2387 33.7665 81.0096 34.3256L80.5742 35.3883C80.3628 35.904 80.2174 36.41 80.1378 36.9065C80.063 37.4049 80.0663 37.8707 80.1478 38.3037C80.2293 38.7367 80.4006 39.1221 80.6618 39.4599C80.925 39.7929 81.2903 40.0552 81.7578 40.2468C82.3506 40.4897 82.8614 40.5892 83.2903 40.5455C83.7191 40.5017 84.0948 40.3404 84.4172 40.0616C84.7445 39.7849 85.0475 39.4165 85.326 38.9565Z" fill="white"/>
</svg>
