<svg width="36" height="36" viewBox="0 0 36 36" fill="none" xmlns="http://www.w3.org/2000/svg">
<circle cx="18" cy="18" r="18" fill="white"/>
<path d="M28.5 23.2435C28.4466 23.446 28.4048 23.6522 28.3374 23.8505C27.8966 25.1513 26.7619 25.9718 25.3399 25.9742C20.4454 25.9827 15.5509 25.9839 10.657 25.9736C9.10459 25.9706 7.8978 24.9894 7.57215 23.5109C7.52546 23.2993 7.50362 23.0779 7.50362 22.8608C7.49877 20.2501 7.49999 17.6389 7.50059 15.0276C7.50059 14.9876 7.50423 14.9481 7.50726 14.8796C7.59277 14.9281 7.6619 14.9663 7.72861 15.007C10.8936 16.9397 14.0609 18.8681 17.2216 20.8087C17.7462 21.1307 18.2283 21.1313 18.7529 20.8099C21.933 18.8632 25.1197 16.9269 28.3047 14.9876C28.3684 14.9488 28.4345 14.9136 28.5 14.8766C28.5 17.6655 28.5 20.4545 28.5 23.2435Z" fill="#0063AA"/>
<path d="M18.0012 10.5007C20.4275 10.5007 22.8539 10.5007 25.2802 10.5007C26.4233 10.5007 27.3347 10.9543 27.9672 11.9124C28.1298 12.1592 28.2201 12.4534 28.3463 12.7244C28.4184 12.8797 28.3632 12.9609 28.2201 13.0477C25.7174 14.5704 23.2189 16.0992 20.7192 17.6262C19.8684 18.1459 19.0164 18.6632 18.1686 19.1883C18.0528 19.2605 17.9739 19.2581 17.8581 19.1877C14.4961 17.1338 11.1316 15.0834 7.76472 13.0367C7.63798 12.9597 7.60523 12.8906 7.64647 12.7438C8.0273 11.3915 9.23652 10.5031 10.7223 10.5013C13.1486 10.4988 15.5749 10.5007 18.0012 10.5007Z" fill="#0063AA"/>
</svg>
