<svg width="112" height="108" viewBox="0 0 112 108" fill="none" xmlns="http://www.w3.org/2000/svg">
<circle opacity="0.05" cx="38.5" cy="38.5" r="38.5" fill="#0063AA"/>
<path d="M44.4 62.5L44.5 62.4C44.8 62.1 45.1 61.8 45.6 62.1C46.1 62.5 45.6 62.8 45.5 63.1C41.7 70.6 37.8 78 33.9 85.5C32.7 87.7 33 88.4 35.3 89.4C37.6 90.4 39.9 91.5 42.2 92.5C43.9 93.3 44.6 93 45.5 91.4C49.3 84.1 53.2 76.9 57 69.6C57.4 68.8 57.7 68.6 58.7 68.9C64.4 70.8 70.7 68.4 73.8 63.3C76.8 58.4 79.9 53.5 82.9 48.6C83.1 48.4 83.1 48 83.5 47.9C83.7 48.2 83.5 48.5 83.4 48.8C82.8 51 82.3 53.1 81.7 55.3C81.4 56.5 81.3 57.6 81.7 58.7C82.5 61.2 84.8 63 87.4 63C90.1 63 92.4 61.3 93.3 58.6C94.5 54.6 95.7 50.7 96.9 46.7C97.1 45.9 97.3 45 97.3 44.2C97.4 40.7 96 38 93.3 35.9C91.5 34.6 89.7 33.2 87.9 31.9C88 31.8 88.1 31.7 88.2 31.7C90.7 30.7 92.2 28.7 93.3 26.4C95.6 21.5 93 15.8 87.9 14.4C87.5 14.3 87 14.3 86.7 14H84.5C84.3 14.2 84 14.2 83.7 14.2C82.4 14.6 81 15.1 80 16.1C77.2 18.9 75.7 22.1 76.8 26.1C76.9 26.5 76.9 26.8 76.4 26.8C72.9 27.3 70.3 29.1 68.6 32.1C68.2 32.8 67.7 32.9 67.1 32.8C66.1 32.6 65.4 32.1 64.9 31.4C63.2 29.1 61.6 26.8 59.9 24.6C58.2 22.3 55.3 21.6 52.9 22.7C49.6 24.2 48.5 28.3 50.6 31.4C52.3 33.8 54 36 55.7 38.4C57.1 40.4 58.9 41.9 61.1 43C61.6 43.2 61.7 43.4 61.4 43.9C60.5 45.2 59.7 46.5 58.9 47.9C58.5 48.6 58.1 48.8 57.4 48.6C54.4 47.9 51.4 47.3 48.5 46.6C45.2 45.8 42.2 46.5 39.6 48.8C34.9 52.9 30.2 56.8 25.5 60.9C23.3 62.7 21 64.4 19 66.5V67.6C20.8 69.9 22.6 72.1 24.4 74.4C26.3 76.8 26.7 76.8 29.1 74.9C34.2 70.7 39.3 66.6 44.4 62.5ZM54.1 67.6C50.5 74.4 46.9 81.2 43.4 88C43.1 88.6 42.8 88.7 42.1 88.4C40.8 87.8 39.6 87.2 38.3 86.7C37.8 86.5 37.7 86.2 38 85.7C41.7 78.7 45.3 71.6 48.9 64.6C49.1 64.1 49.3 64 49.9 64.3C51.2 65.1 52.6 65.8 54 66.5C54.2 66.6 54.5 66.7 54.5 67C54.2 67.2 54.2 67.4 54.1 67.6ZM80.2 22.8C80.7 20.6 81.7 18.7 84 17.9C87.2 16.8 90.5 19.1 90.5 22.5C90.5 25.1 88.5 27.8 86.1 28.4C82.7 29.2 79.4 26.2 80.2 22.8ZM72.1 33.5C74.3 30.1 78.6 29.3 81.9 31.7C85 34 88.1 36.3 91.2 38.7C92.9 40 93.7 41.7 93.7 43.7C93.7 44.3 93.6 44.9 93.4 45.5C92.2 49.4 91 53.3 89.8 57.2C89.3 58.8 88 59.6 86.6 59.1C85.3 58.6 84.8 57.4 85.2 55.8C86.1 52.4 87 49.1 87.9 45.7C88.3 44.2 88.1 43.8 86.9 42.9C85.7 42 84.5 41.1 83.3 40.2C82.2 39.4 81.2 39.5 80.6 40.4C80 41.3 80.1 42.3 81.1 43C81.6 43.4 81.6 43.6 81.3 44.1C78.8 48.1 76.2 52 73.8 56C73.5 56.5 73.2 56.6 72.7 56.3C69.2 54.3 65.8 52.3 62.3 50.3C61.8 50 61.7 49.8 62 49.3C65.4 44.2 68.7 38.8 72.1 33.5ZM59 36.8C57.2 34.4 55.4 31.9 53.6 29.4C53 28.6 53 27.8 53.4 27C53.8 26.3 54.4 25.9 55.3 25.9C56.2 25.9 56.8 26.4 57.3 27C58.9 29.1 60.5 31.3 62 33.4C62.9 34.7 64 35.6 65.5 36.1C66 36.3 66.1 36.5 65.8 36.9C65.2 37.8 64.7 38.6 64.2 39.5C63.9 40 63.6 40 63.2 39.8C61.4 39.2 60 38.2 59 36.8ZM26.3 71C25.5 70 24.6 68.9 23.8 67.9C23.5 67.5 23.5 67.3 23.9 66.9C30.1 61.7 36.2 56.4 42.4 51.1C43.8 49.9 45.4 49.6 47.1 50C50.7 50.7 54.3 51.5 57.8 52.3C58.3 52.4 58.7 52.6 59.2 52.8C63.1 55 67 57.3 70.9 59.5C71.5 59.9 71.6 60.2 71.2 60.8C69.4 64 66.7 65.7 63.2 66C61.2 66.1 59.6 65.6 58 64.8C54.1 62.7 50.3 60.6 46.4 58.5C45.3 57.9 44.4 58 43.4 58.8C38.2 62.8 33 67 27.9 71.2C27 71.9 27 71.9 26.3 71Z" fill="#0063AA"/>
<path d="M111.9 106.2C111.9 107.2 111.2 107.9 110.1 108C109.8 108 29.1001 108 28.8001 108C27.8001 107.9 27.1001 107.2 27.1001 106.2C27.1001 105.2 27.8001 104.5 28.8001 104.4C29.4001 104.4 109.8 104.4 110.1 104.4C111.2 104.4 111.9 105.1 111.9 106.2Z" fill="#0063AA"/>
<path d="M76.1999 70.9C75.2999 70 74.2999 70 73.4999 70.8C72.7999 71.6 72.7999 72.6 73.5999 73.4C74.9999 74.8 76.3999 76.3 77.8999 77.7C78.2999 78.1 78.6999 78.3 79.2999 78.4C79.9999 78.3 80.5999 78 80.8999 77.4C81.2999 76.6 81.0999 75.9 80.4999 75.3C79.0999 73.8 77.6999 72.3 76.1999 70.9Z" fill="#0063AA"/>
<path d="M85.6 68.8C85.6 68.1 85.3 67.5 84.7 67.2C83 66.5 81.4 65.8 79.7 65.2C78.8 64.9 77.9 65.4 77.5 66.2C77.1 67.1 77.4 68.1 78.3 68.4C80 69.1 81.7 69.8 83.4 70.4C84.6 70.9 85.6 70 85.6 68.8Z" fill="#0063AA"/>
<path d="M69.3 74.7C68.5 74.9 68 75.6 68 76.7C68.3 77.8 68.7 79.1 69.4 80.2C69.9 80.9 70.7 81 71.5 80.7C72.3 80.4 72.8 79.5 72.5 78.8C72.2 77.7 71.8 76.7 71.3 75.7C70.9 74.8 70.2 74.5 69.3 74.7Z" fill="#0063AA"/>
</svg>
