<svg width="49" height="58" viewBox="0 0 49 58" fill="none" xmlns="http://www.w3.org/2000/svg">
<path d="M29.8047 0.349854C30.5709 0.710417 31.2019 1.20619 31.3822 2.1076C31.6526 3.41464 30.6611 4.72168 29.3089 4.76676C28.5878 4.81183 27.8667 4.76676 27.1005 4.76676C27.1005 6.25408 27.1005 7.69633 27.1005 9.18366C31.9681 9.67943 36.2949 11.4822 40.1709 14.6372C40.892 13.871 41.6132 13.1048 42.3794 12.3837C43.0103 11.7527 43.7765 11.5724 44.6329 11.8428C45.4441 12.1132 45.9399 12.6991 46.1202 13.5555C46.3005 14.3217 46.0301 14.9977 45.4892 15.5837C44.7681 16.3048 44.047 17.0259 43.3258 17.747C47.247 22.5696 49.0949 28.0682 48.8244 34.2428C48.5991 39.6062 46.7061 44.3386 43.2808 48.4851C36.5653 56.5527 25.3878 59.302 15.6526 55.2456C6.09767 51.2794 0.283587 41.8146 0.914573 31.6287C1.6357 19.6851 11.2357 10.04 22.5934 9.18366C22.5934 7.7414 22.5934 6.29915 22.5934 4.76676C21.9625 4.76676 21.3315 4.76676 20.7005 4.76676C19.4385 4.76676 18.5371 4.0907 18.3118 2.96394C18.0864 1.92732 18.6723 0.935769 19.7991 0.439994C19.8442 0.439994 19.8892 0.394924 19.9343 0.349854C23.2244 0.349854 26.5146 0.349854 29.8047 0.349854ZM44.4075 33.1161C44.4075 22.3442 35.6188 13.5555 24.847 13.5555C14.0751 13.5555 5.2864 22.3442 5.2864 33.1161C5.2864 43.8879 14.0751 52.6766 24.847 52.6766C35.6188 52.6315 44.4526 43.8428 44.4075 33.1161Z" fill="white"/>
<path d="M35.7999 24.688C35.6646 25.0035 35.4844 25.5894 35.0787 25.995C32.1942 28.9246 29.3097 31.8091 26.4252 34.6936C25.4787 35.595 24.1266 35.595 23.2703 34.6936C22.4139 33.7922 22.4139 32.4852 23.3153 31.5838C26.1999 28.6993 29.0844 25.7697 32.0139 22.8852C32.69 22.2091 33.5463 22.0289 34.4477 22.4345C35.3041 22.75 35.7097 23.4711 35.7999 24.688Z" fill="white"/>
</svg>
