<svg width="96" height="85" viewBox="0 0 96 85" fill="none" xmlns="http://www.w3.org/2000/svg">
<circle opacity="0.05" cx="38.5" cy="38.5" r="38.5" fill="#0063AA"/>
<path d="M96 54.9788C96 53.7895 95.7902 53.5097 94.6709 53.1599C90.4035 51.8308 86.2061 50.5715 81.9387 49.1724C80.8893 48.8226 79.9799 48.6827 79.0005 49.1724C78.6507 49.3822 78.4408 49.2423 78.3709 48.8226C77.8812 46.8638 77.2515 44.975 76.4121 43.226C75.1528 40.5677 73.5438 38.1891 71.5151 36.0205C70.7455 35.181 69.6962 34.8312 68.5769 35.181C67.4576 35.5307 66.8279 36.3003 66.6181 37.4895C66.5481 37.9093 66.5481 38.399 66.5481 38.8187C66.4782 41.0574 65.5687 43.0161 63.8897 44.5552C63.7498 44.6251 63.6799 44.835 63.47 44.7651C63.47 43.226 63.47 41.617 63.47 40.078C63.47 36.72 62.8404 33.432 61.5812 30.3539C59.7623 26.0865 57.1039 22.5187 53.3262 19.7904H52.4168C51.4374 20.1402 51.3674 20.2102 51.3674 21.3295C51.3674 22.099 51.2975 22.7985 51.1576 23.5681C50.5979 27.9054 48.9889 31.7531 46.3305 35.181C43.3923 38.8187 41.5734 42.9462 40.734 47.5634C40.594 48.2629 40.5241 48.9625 40.3842 49.732C40.0344 49.1724 39.8245 48.6827 39.6846 48.193C39.3348 47.3535 39.2649 46.444 38.985 45.5346C38.7052 44.5552 38.0756 43.9955 37.0262 43.8556C35.9069 43.7157 35.0674 44.1355 34.5078 45.1149C33.8782 46.2342 33.3185 47.4235 32.8288 48.6127C31.9893 50.7814 31.2198 52.9501 31.0099 55.2587C30.94 56.308 30.94 57.3574 30.8 58.4067V62.6041C30.94 63.6535 31.1498 64.6329 31.2897 65.6822C31.5696 67.0114 31.9194 68.3406 32.479 69.5999C32.7588 70.2994 33.3885 70.5792 34.0181 70.3694C34.7176 70.1595 35.0674 69.5299 34.8576 68.8303C34.7876 68.6204 34.7176 68.4106 34.6477 68.2007C33.8082 66.032 33.3885 63.7934 33.3185 61.4848C33.1786 56.8676 34.158 52.4604 36.1168 48.2629C36.1867 48.123 36.1867 47.9131 36.4666 47.8432C36.5365 48.193 36.6764 48.4728 36.7464 48.8226C37.5859 51.2711 38.985 53.2999 40.9438 54.9089C41.7134 55.5385 42.7627 55.3286 43.0425 54.4192C43.1125 54.1393 43.1125 53.8595 43.1125 53.5097C43.1125 51.6908 43.1825 49.802 43.5322 47.9831C44.3018 43.7157 46.1207 39.938 48.849 36.5801C51.2975 33.432 52.9065 29.9342 53.676 26.0166C53.8159 25.317 53.9558 24.6874 54.0258 23.9878C54.0958 23.9878 54.1657 23.9178 54.1657 23.9178C54.3056 24.1277 54.5155 24.3376 54.6554 24.5475C56.8241 26.8561 58.4331 29.4445 59.4825 32.3827C60.3919 34.9711 60.8116 37.6294 60.8116 40.3578C60.8116 42.5964 60.8116 44.905 60.8116 47.1436C60.8116 48.3329 61.7211 48.8925 62.7704 48.4028C66.1284 46.7938 68.1571 44.1355 68.8567 40.4977C68.9966 39.7282 68.9966 38.9586 69.0666 38.1891C69.0666 38.0492 69.0666 37.8393 69.2065 37.7694C69.3464 37.6994 69.4863 37.8393 69.5563 37.9093C69.6262 37.9792 69.6962 38.0492 69.6962 38.1192C72.6344 41.4072 74.5932 45.1848 75.6425 49.3822C75.8524 50.1518 75.8524 50.1518 75.0829 50.3617C72.0048 51.3411 68.9267 52.2505 65.8485 53.2299C64.8691 53.5097 64.6593 53.8595 64.6593 54.8389C64.6593 58.4767 64.6593 62.1144 64.6593 65.8222C64.6593 67.0114 64.6593 68.2707 64.9391 69.5999C64.5893 68.9702 64.2395 68.4805 63.9597 67.9209C62.6305 65.6822 61.1614 63.5136 60.182 61.135C59.4825 59.4561 59.1327 57.7771 59.4825 55.9582C59.6224 55.3286 59.5524 54.8389 59.0627 54.4192C58.5031 53.9994 58.0134 54.1393 57.4537 54.4192C55.4249 55.3286 53.8859 56.7277 52.6267 58.5466C52.137 59.3161 51.7172 60.0857 51.2975 60.9252C51.0876 60.7852 51.0176 60.6453 50.8777 60.5054C49.8284 59.596 48.6391 58.8964 47.24 58.6865C46.4704 58.5466 45.9108 59.0363 45.7709 59.6659C45.7009 60.0157 45.7709 60.2955 45.9108 60.5754C46.8202 63.3037 46.5404 65.9621 45.2112 68.5505C43.1825 72.3981 43.3224 76.1758 45.561 79.8835C45.631 80.0234 45.8408 80.0934 45.7009 80.3033C45.561 80.2333 45.4211 80.1634 45.2812 80.0934C43.8121 79.3938 42.4129 78.4844 41.1537 77.435C40.8039 77.1552 40.3842 76.8754 39.8945 76.9453C39.3348 77.0853 38.985 77.3651 38.8451 77.9247C38.7052 78.5543 38.985 78.9741 39.4747 79.3239C43.5322 82.6118 48.1494 84.5007 53.3262 84.7805C59.3425 85.1303 64.7992 83.4513 69.6262 79.8136C69.976 79.5337 70.1859 79.4638 70.5357 79.8136C72.9842 82.2621 75.9923 83.8011 79.3503 84.6406C79.84 84.7805 80.2597 84.8505 80.8194 84.7805C89.634 82.9616 95.8601 75.2663 95.8601 66.2419C96.0001 62.6041 96 58.8264 96 54.9788ZM56.5443 82.2621C51.4374 83.2415 46.6803 79.3239 46.5404 74.0771C46.5404 72.538 46.8902 71.0689 47.6597 69.7397C48.849 67.711 49.2687 65.5423 49.1988 63.3037C49.1988 63.0239 49.1988 62.6741 49.1988 62.2544C50.0382 62.884 50.5279 63.7234 50.9477 64.5629C51.0876 64.7728 51.1576 65.0526 51.2975 65.2625C51.5773 65.7522 52.2069 65.9621 52.7666 65.8222C53.3262 65.6123 53.746 65.0526 53.676 64.493C53.3962 63.3037 53.8859 62.2544 54.3756 61.205C55.0052 59.8758 55.9146 58.7565 57.1039 57.7771C57.1739 58.4067 57.2438 58.9664 57.3837 59.4561C57.8035 61.4848 58.7129 63.3736 59.7623 65.1925C60.6018 66.5917 61.4413 68.0608 62.2807 69.4599C65.2889 74.5668 62.3507 81.2127 56.5443 82.2621ZM68.367 77.7848C67.0378 78.8342 65.6387 79.7436 64.0297 80.3732C65.4988 78.1346 66.1983 75.6162 65.9885 72.9578C66.6181 74.4968 67.3876 76.0359 68.367 77.3651C68.5069 77.505 68.5769 77.6449 68.367 77.7848ZM93.4116 66.4518C93.3417 74.0071 88.3747 80.3033 81.0992 82.2621C80.6095 82.402 80.1898 82.402 79.7001 82.2621C73.1241 80.3732 69.1365 76.1059 67.6674 69.4599C67.4576 68.4805 67.3876 67.4312 67.3876 66.3818C67.3876 64.7728 67.3876 63.2337 67.3876 61.6247C67.3876 59.8058 67.3876 57.917 67.3876 56.0981C67.3876 55.6784 67.5275 55.5384 67.8773 55.3985C71.8649 54.1393 75.8524 52.95 79.84 51.6908C80.1897 51.5509 80.4696 51.6209 80.8194 51.6908C84.8069 52.95 88.7945 54.2093 92.782 55.3985C93.1318 55.5384 93.2717 55.6784 93.2717 56.0981C93.4116 59.526 93.4816 62.9539 93.4116 66.4518Z" fill="#0264AB"/>
<path d="M36.3966 72.8179C35.697 72.8179 35.1373 73.4475 35.1373 74.1471C35.1373 74.8466 35.697 75.4063 36.4665 75.4063C37.1661 75.4063 37.7257 74.8466 37.7257 74.1471C37.6558 73.3775 37.0262 72.8179 36.3966 72.8179Z" fill="#0264AB"/>
<path d="M89.7737 57.0076C86.8355 56.0982 83.8973 55.1887 80.9591 54.2793C80.6093 54.1393 80.2595 54.1393 79.9097 54.2793C76.9715 55.1887 73.9634 56.0981 71.0252 57.0775C70.2557 57.2874 69.9758 57.7071 69.9758 58.4767C69.9758 59.9458 69.9758 61.4149 69.9758 63.2337C70.0458 64.7028 69.9059 66.5217 70.1157 68.2707C70.7454 73.5174 74.8728 78.2745 79.9797 79.6737C80.3295 79.7436 80.6093 79.7436 80.8891 79.6737C86.5557 78.1346 90.823 72.608 90.823 66.7316C90.823 64.0033 90.823 61.2749 90.823 58.5466C90.893 57.6372 90.6132 57.2874 89.7737 57.0076ZM88.0947 68.6904C87.1853 72.7479 84.7368 75.4762 80.8891 77.0153C80.6093 77.1552 80.3295 77.1552 80.0497 77.0153C75.7823 75.3363 73.2638 72.3282 72.7042 67.781C72.3544 65.0526 72.6342 62.3243 72.5642 59.596C72.5642 59.3161 72.7042 59.2462 72.914 59.1762C75.3625 58.4067 77.7411 57.6372 80.1896 56.9376C80.3994 56.8677 80.6793 56.8677 80.8891 56.9376C83.1977 57.7071 85.5763 58.4067 87.8848 59.1063C88.2346 59.2462 88.3745 59.3861 88.3745 59.7359C88.3745 60.9252 88.3745 62.1844 88.3745 63.5835C88.3046 65.1226 88.5145 66.9415 88.0947 68.6904Z" fill="#0264AB"/>
<path d="M85.0864 62.884C84.5267 62.6042 84.037 62.7441 83.5473 63.1638C82.2881 64.4231 80.9589 65.7522 79.6997 67.0115C79.3499 67.3613 79.14 67.3613 78.8602 67.0115C78.3005 66.4518 77.7409 65.8921 77.1812 65.3325C76.7615 64.9827 76.3417 64.9127 75.852 65.1226C75.3623 65.3325 75.0825 65.7522 75.0825 66.3818C75.0825 66.6617 75.2924 66.9415 75.5722 67.2213C76.4817 68.1308 77.3911 69.0402 78.3005 69.9497C78.9302 70.5793 79.6297 70.5793 80.3293 69.9497C82.0083 68.2707 83.6872 66.5917 85.3662 64.9128C85.5761 64.7029 85.786 64.423 85.786 64.0733C85.8559 63.5836 85.646 63.1638 85.0864 62.884Z" fill="#0264AB"/>
</svg>
