<svg width="96" height="94" viewBox="0 0 96 94" fill="none" xmlns="http://www.w3.org/2000/svg">
<circle opacity="0.05" cx="38.5" cy="38.5" r="38.5" fill="#0063AA"/>
<path d="M47.834 62.0532L47.9043 61.983C48.1149 61.7723 48.3255 61.5617 48.6766 61.7723C49.0277 62.0532 48.6766 62.2638 48.6064 62.4745C45.9383 67.7404 43.2 72.9362 40.4617 78.2021C39.6191 79.7468 39.8298 80.2383 41.4447 80.9404C43.0596 81.6426 44.6745 82.4149 46.2894 83.117C47.483 83.6787 47.9745 83.4681 48.6064 82.3447C51.2745 77.2191 54.0128 72.1638 56.6809 67.0383C56.9617 66.4766 57.1723 66.3362 57.8745 66.5468C61.8766 67.8809 66.3 66.1957 68.4766 62.6149C70.583 59.1745 72.7596 55.734 74.866 52.2936C75.0064 52.1532 75.0064 51.8723 75.2872 51.8021C75.4277 52.0128 75.2872 52.2234 75.217 52.434C74.7957 53.9787 74.4447 55.4532 74.0234 56.9979C73.8128 57.8404 73.7426 58.6128 74.0234 59.3851C74.5851 61.1404 76.2 62.4043 78.0255 62.4043C79.9213 62.4043 81.5362 61.2106 82.1681 59.3149C83.0106 56.5064 83.8532 53.7681 84.6957 50.9596C84.8362 50.3979 84.9766 49.766 84.9766 49.2043C85.0468 46.7468 84.0638 44.8511 82.1681 43.3766C80.9043 42.4638 79.6404 41.4809 78.3766 40.5681C78.4468 40.4979 78.517 40.4277 78.5872 40.4277C80.3425 39.7255 81.3957 38.3213 82.1681 36.7064C83.783 33.266 81.9574 29.2638 78.3766 28.2809C78.0957 28.2106 77.7447 28.2106 77.534 28H75.9894C75.8489 28.1404 75.6383 28.1404 75.4277 28.1404C74.5149 28.4213 73.5319 28.7723 72.8298 29.4745C70.8638 31.4404 69.8106 33.6872 70.583 36.4957C70.6532 36.7766 70.6532 36.9872 70.3021 36.9872C67.8447 37.3383 66.0191 38.6021 64.8255 40.7085C64.5447 41.2 64.1936 41.2702 63.7723 41.2C63.0702 41.0596 62.5787 40.7085 62.2277 40.217C61.034 38.6021 59.9106 36.9872 58.717 35.4426C57.5234 33.8277 55.4872 33.3362 53.8021 34.1085C51.4851 35.1617 50.7128 38.0404 52.1872 40.217C53.3809 41.9021 54.5745 43.4468 55.7681 45.1319C56.7511 46.5362 58.0149 47.5894 59.5596 48.3617C59.9106 48.5021 59.9809 48.6426 59.7702 48.9936C59.1383 49.9064 58.5766 50.8191 58.0149 51.8021C57.734 52.2936 57.4532 52.434 56.9617 52.2936C54.8553 51.8021 52.7489 51.3808 50.7128 50.8894C48.3957 50.3277 46.2894 50.8191 44.4638 52.434C41.1638 55.3128 37.8638 58.0511 34.5638 60.9298C33.0191 62.1936 31.4043 63.3872 30 64.8617V65.634C31.2638 67.2489 32.5277 68.7936 33.7915 70.4085C35.1255 72.0936 35.4064 72.0936 37.0915 70.7596C40.6723 67.8106 44.2532 64.9319 47.834 62.0532ZM54.6447 65.634C52.117 70.4085 49.5894 75.183 47.1319 79.9574C46.9213 80.3787 46.7106 80.4489 46.2191 80.2383C45.3064 79.817 44.4638 79.3957 43.5511 79.0447C43.2 78.9043 43.1298 78.6936 43.3404 78.3425C45.9383 73.4277 48.466 68.4426 50.9936 63.5277C51.134 63.1766 51.2745 63.1064 51.6957 63.317C52.6085 63.8787 53.5915 64.3702 54.5745 64.8617C54.7149 64.9319 54.9255 65.0021 54.9255 65.2128C54.7149 65.3532 54.7149 65.4936 54.6447 65.634ZM72.9702 34.1787C73.3213 32.634 74.0234 31.3 75.6383 30.7383C77.8851 29.966 80.2021 31.5809 80.2021 33.9681C80.2021 35.7936 78.7979 37.6894 77.1128 38.1106C74.7255 38.6723 72.4085 36.566 72.9702 34.1787ZM67.283 41.6915C68.8277 39.3043 71.8468 38.7426 74.1638 40.4277C76.3404 42.0426 78.517 43.6574 80.6936 45.3426C81.8872 46.2553 82.4489 47.4489 82.4489 48.8532C82.4489 49.2745 82.3787 49.6957 82.2383 50.117C81.3957 52.8553 80.5532 55.5936 79.7106 58.3319C79.3596 59.4553 78.4468 60.017 77.4638 59.666C76.5511 59.3149 76.2 58.4723 76.4808 57.3489C77.1128 54.9617 77.7447 52.6447 78.3766 50.2574C78.6574 49.2043 78.517 48.9234 77.6745 48.2915C76.8319 47.6596 75.9894 47.0277 75.1468 46.3957C74.3745 45.834 73.6723 45.9043 73.2511 46.5362C72.8298 47.1681 72.9 47.8702 73.6021 48.3617C73.9532 48.6426 73.9532 48.783 73.7426 49.134C71.9872 51.9426 70.1617 54.6809 68.4766 57.4894C68.266 57.8404 68.0553 57.9106 67.7043 57.7C65.2468 56.2957 62.8596 54.8915 60.4021 53.4872C60.0511 53.2766 59.9809 53.1362 60.1915 52.7851C62.5787 49.2043 64.8957 45.4128 67.283 41.6915ZM58.0851 44.0085C56.8213 42.3234 55.5574 40.5681 54.2936 38.8128C53.8723 38.2511 53.8723 37.6894 54.1532 37.1277C54.434 36.6362 54.8553 36.3553 55.4872 36.3553C56.1191 36.3553 56.5404 36.7064 56.8915 37.1277C58.0149 38.6021 59.1383 40.1468 60.1915 41.6213C60.8234 42.534 61.5957 43.166 62.6489 43.517C63 43.6574 63.0702 43.7979 62.8596 44.0787C62.4383 44.7106 62.0872 45.2723 61.7362 45.9043C61.5255 46.2553 61.3149 46.2553 61.034 46.1149C59.7702 45.6936 58.7872 44.9915 58.0851 44.0085ZM35.1255 68.0213C34.5638 67.3191 33.9319 66.5468 33.3702 65.8447C33.1596 65.5638 33.1596 65.4234 33.4404 65.1426C37.7936 61.4915 42.0766 57.7702 46.4298 54.0489C47.4128 53.2064 48.5362 52.9957 49.7298 53.2766C52.2574 53.7681 54.7851 54.3298 57.2426 54.8915C57.5936 54.9617 57.8745 55.1021 58.2255 55.2426C60.9638 56.7872 63.7021 58.4021 66.4404 59.9468C66.8617 60.2277 66.9319 60.4383 66.6511 60.8596C65.3872 63.1064 63.4915 64.3 61.034 64.5106C59.6298 64.5808 58.5064 64.2298 57.383 63.6681C54.6447 62.1936 51.9766 60.7191 49.2383 59.2447C48.466 58.8234 47.834 58.8936 47.1319 59.4553C43.4809 62.2638 39.8298 65.2128 36.2489 68.1617C35.617 68.6532 35.617 68.6532 35.1255 68.0213Z" fill="#0063AA"/>
<path d="M95.2277 92.7362C95.2277 93.4384 94.7362 93.9299 93.9639 94.0001C93.7532 94.0001 37.0915 94.0001 36.8809 94.0001C36.1787 93.9299 35.6873 93.4384 35.6873 92.7362C35.6873 92.0341 36.1787 91.5426 36.8809 91.4724C37.3021 91.4724 93.7532 91.4724 93.9639 91.4724C94.7362 91.4724 95.2277 91.9639 95.2277 92.7362Z" fill="#0063AA"/>
<path d="M70.1617 67.951C69.5297 67.3191 68.8276 67.3191 68.2659 67.8808C67.7744 68.4425 67.7744 69.1446 68.3361 69.7063C69.3191 70.6893 70.3021 71.7425 71.3553 72.7255C71.6361 73.0063 71.917 73.1467 72.3383 73.217C72.8297 73.1467 73.251 72.9361 73.4617 72.5148C73.7425 71.9531 73.6021 71.4616 73.1808 71.0404C72.1978 69.9872 71.2149 68.934 70.1617 67.951Z" fill="#0063AA"/>
<path d="M76.7617 66.4767C76.7617 65.9852 76.551 65.5639 76.1298 65.3532C74.9361 64.8618 73.8127 64.3703 72.6191 63.949C71.9872 63.7384 71.3553 64.0894 71.0744 64.6511C70.7936 65.283 71.0042 65.9852 71.6361 66.1958C72.8298 66.6873 74.0234 67.1788 75.217 67.6001C76.0596 67.9511 76.7617 67.3192 76.7617 66.4767Z" fill="#0063AA"/>
<path d="M65.3171 70.6191C64.7554 70.7595 64.4043 71.251 64.4043 72.0234C64.6149 72.7957 64.8958 73.7085 65.3873 74.4808C65.7383 74.9723 66.3 75.0425 66.8617 74.8319C67.4234 74.6212 67.7745 73.9893 67.5639 73.4978C67.3532 72.7255 67.0724 72.0234 66.7213 71.3212C66.4405 70.6893 65.949 70.4787 65.3171 70.6191Z" fill="#0063AA"/>
</svg>
