<svg width="57" height="57" viewBox="0 0 57 57" fill="none" xmlns="http://www.w3.org/2000/svg">
<g clip-path="url(#clip0_138_12982)">
<path d="M56.3701 27.7556C55.8807 26.637 55.0418 26.1476 53.8533 26.2175C53.294 26.2874 52.7347 26.2175 52.2453 26.2175C52.1054 26.2175 51.9656 26.2175 51.8258 26.2175C49.7983 14.1226 42.5973 6.99155 30.4325 4.89417C30.4325 4.75435 30.4325 4.68444 30.4325 4.54461C30.4325 3.98531 30.4325 3.42601 30.4325 2.86671C30.5025 1.67819 30.0131 0.839242 28.8945 0.349854H27.9157H27.7759C26.6573 0.769329 26.1679 1.60828 26.2378 2.86671C26.3077 3.42601 26.2378 3.98531 26.2378 4.54461C26.2378 4.68444 26.2378 4.82426 26.2378 4.96409C15.1217 6.01277 5.8233 15.2412 4.98435 26.2874H4.00557H3.51618C3.16662 26.2874 2.81706 26.2874 2.39758 26.2874C1.20907 26.2874 0.370117 27.1963 0.370117 28.3848C0.370117 29.5034 1.27898 30.4822 2.39758 30.4822C3.09671 30.4822 3.79584 30.4822 4.42505 30.4822H4.91444C6.9419 42.647 14.1429 49.7781 26.2378 51.8055V52.2949C26.2378 52.9241 26.2378 53.5534 26.2378 54.2525C26.2378 55.5109 27.1466 56.4198 28.3352 56.4198C29.5237 56.4198 30.4325 55.5109 30.4325 54.2525C30.4325 53.6233 30.4325 52.9241 30.4325 52.2949V51.7356C36.0955 51.1763 40.9194 48.8692 44.9045 44.9541C48.8196 41.039 51.1267 36.1451 51.686 30.4822C51.8258 30.4822 52.0355 30.4822 52.1754 30.4822C52.7347 30.4822 53.294 30.4822 53.8533 30.4822C55.1117 30.5521 55.9506 30.0627 56.3701 28.9441V27.9653V27.7556ZM46.3027 26.2874C45.7434 26.2874 45.1841 26.4972 44.7646 26.9166C44.3451 27.3361 44.1354 27.8255 44.1354 28.3848C44.1354 29.5733 45.1142 30.4123 46.3027 30.4123C46.6523 30.4123 46.9319 30.4123 47.3514 30.4123H47.4912C47.0018 34.6769 45.3239 38.3823 42.4575 41.4585C39.2415 44.9541 35.2565 46.9117 30.5025 47.471V46.4223C30.5025 45.7231 30.2927 45.1638 29.8732 44.7444C29.5237 44.3948 29.0343 44.1851 28.475 44.1851C27.2865 44.1851 26.4475 45.1638 26.4475 46.4223V47.5409C22.2528 47.0515 18.5474 45.3736 15.5412 42.5771C12.0455 39.3611 10.0181 35.3761 9.45876 30.5521C9.52867 30.5521 9.52867 30.5521 9.59858 30.5521C9.87823 30.5521 10.2278 30.5521 10.5074 30.5521C11.1367 30.622 11.7659 30.4123 12.1853 29.9928C12.6048 29.5733 12.8845 29.014 12.8845 28.4547C12.8845 27.8954 12.6048 27.3361 12.1853 26.9166C11.7659 26.4972 11.1367 26.3573 10.5774 26.3573C10.2977 26.3573 10.0181 26.3573 9.6685 26.3573C9.59858 26.3573 9.59858 26.3573 9.52867 26.3573C10.0181 22.0228 11.696 18.4572 14.5624 15.3112C17.7784 11.8155 21.6935 9.85797 26.5174 9.29867V9.71814C26.5174 10.8367 26.7272 11.6757 27.2166 12.1651C27.5661 12.5146 28.0555 12.6545 28.6148 12.6545C30.6423 12.6545 30.6423 10.4173 30.6423 9.71814V9.29867C35.0468 9.78806 38.6822 11.5359 41.8283 14.4722C45.1841 17.6882 47.1417 21.6033 47.701 26.2874H47.5611C46.9319 26.2874 46.6523 26.2874 46.3027 26.2874Z" fill="white"/>
<path d="M28.4053 21.114C26.4477 21.114 24.63 21.8831 23.2317 23.2114C21.8335 24.5397 21.0645 26.4274 21.0645 28.315C21.0645 32.3 24.2804 35.5859 28.2655 35.5859C30.223 35.5859 32.0407 34.8169 33.439 33.4885C34.8372 32.1602 35.6063 30.3425 35.6063 28.3849C35.6063 26.4274 34.8372 24.6096 33.5089 23.2114C32.1806 21.8831 30.3628 21.114 28.4053 21.114ZM28.4053 31.4611C27.6362 31.4611 26.7973 31.1115 26.238 30.5522C25.6088 29.923 25.3291 29.154 25.3291 28.3849C25.3291 27.546 25.6787 26.7769 26.238 26.2176C26.7973 25.6583 27.5663 25.3088 28.4053 25.3088C30.0832 25.3088 31.4814 26.7769 31.4814 28.3849C31.4814 29.9929 30.0832 31.4611 28.4053 31.4611Z" fill="white"/>
</g>
<defs>
<clipPath id="clip0_138_12982">
<rect width="56" height="56" fill="white" transform="translate(0.370117 0.349854)"/>
</clipPath>
</defs>
</svg>
